G04 #@! TF.FileFunction,Legend,Top*
%FSLAX46Y46*%
G04 Gerber Fmt 4.6, Leading zero omitted, Abs format (unit mm)*
G04 Created by KiCad (PCBNEW 4.0.1-stable) date Tuesday, March 08, 2016 'AMt' 11:46:43 AM*
%MOMM*%
G01*
G04 APERTURE LIST*
%ADD10C,0.100000*%
%ADD11C,0.200000*%
%ADD12C,0.150000*%
%ADD13C,0.010000*%
G04 APERTURE END LIST*
D10*
D11*
X130994048Y-99263095D02*
X130934524Y-99144048D01*
X130934524Y-98905952D01*
X130994048Y-98786905D01*
X131053571Y-98727381D01*
X131172619Y-98667857D01*
X131529762Y-98667857D01*
X131648810Y-98727381D01*
X131708333Y-98786905D01*
X131767857Y-98905952D01*
X131767857Y-99144048D01*
X131708333Y-99263095D01*
X130934524Y-99798810D02*
X132184524Y-99798810D01*
X131410714Y-99917858D02*
X130934524Y-100275001D01*
X131767857Y-100275001D02*
X131291667Y-99798810D01*
X130934524Y-101346429D02*
X132184524Y-101346429D01*
X130994048Y-101346429D02*
X130934524Y-101227382D01*
X130934524Y-100989286D01*
X130994048Y-100870239D01*
X131053571Y-100810715D01*
X131172619Y-100751191D01*
X131529762Y-100751191D01*
X131648810Y-100810715D01*
X131708333Y-100870239D01*
X131767857Y-100989286D01*
X131767857Y-101227382D01*
X131708333Y-101346429D01*
X131053571Y-101941667D02*
X130994048Y-102001191D01*
X130934524Y-101941667D01*
X130994048Y-101882143D01*
X131053571Y-101941667D01*
X130934524Y-101941667D01*
X131767857Y-102358334D02*
X131767857Y-102834524D01*
X132184524Y-102536905D02*
X131113095Y-102536905D01*
X130994048Y-102596429D01*
X130934524Y-102715476D01*
X130934524Y-102834524D01*
X130994048Y-103727382D02*
X130934524Y-103608334D01*
X130934524Y-103370239D01*
X130994048Y-103251191D01*
X131113095Y-103191667D01*
X131589286Y-103191667D01*
X131708333Y-103251191D01*
X131767857Y-103370239D01*
X131767857Y-103608334D01*
X131708333Y-103727382D01*
X131589286Y-103786905D01*
X131470238Y-103786905D01*
X131351190Y-103191667D01*
X130994048Y-104858334D02*
X130934524Y-104739287D01*
X130934524Y-104501191D01*
X130994048Y-104382144D01*
X131053571Y-104322620D01*
X131172619Y-104263096D01*
X131529762Y-104263096D01*
X131648810Y-104322620D01*
X131708333Y-104382144D01*
X131767857Y-104501191D01*
X131767857Y-104739287D01*
X131708333Y-104858334D01*
X130934524Y-105394049D02*
X132184524Y-105394049D01*
X130934524Y-105929763D02*
X131589286Y-105929763D01*
X131708333Y-105870240D01*
X131767857Y-105751192D01*
X131767857Y-105572620D01*
X131708333Y-105453573D01*
X131648810Y-105394049D01*
X132244048Y-107417858D02*
X130636905Y-106346430D01*
X131767857Y-108370239D02*
X130934524Y-108370239D01*
X131767857Y-107834525D02*
X131113095Y-107834525D01*
X130994048Y-107894049D01*
X130934524Y-108013096D01*
X130934524Y-108191668D01*
X130994048Y-108310716D01*
X131053571Y-108370239D01*
X130994048Y-108905953D02*
X130934524Y-109084525D01*
X130934524Y-109382144D01*
X130994048Y-109501191D01*
X131053571Y-109560715D01*
X131172619Y-109620239D01*
X131291667Y-109620239D01*
X131410714Y-109560715D01*
X131470238Y-109501191D01*
X131529762Y-109382144D01*
X131589286Y-109144048D01*
X131648810Y-109025001D01*
X131708333Y-108965477D01*
X131827381Y-108905953D01*
X131946429Y-108905953D01*
X132065476Y-108965477D01*
X132125000Y-109025001D01*
X132184524Y-109144048D01*
X132184524Y-109441668D01*
X132125000Y-109620239D01*
X130934524Y-110155953D02*
X132184524Y-110155953D01*
X132184524Y-110453572D01*
X132125000Y-110632144D01*
X132005952Y-110751191D01*
X131886905Y-110810715D01*
X131648810Y-110870239D01*
X131470238Y-110870239D01*
X131232143Y-110810715D01*
X131113095Y-110751191D01*
X130994048Y-110632144D01*
X130934524Y-110453572D01*
X130934524Y-110155953D01*
X131410714Y-111405953D02*
X131410714Y-112358334D01*
X130934524Y-112953572D02*
X132184524Y-112953572D01*
X131708333Y-112953572D02*
X131767857Y-113072620D01*
X131767857Y-113310715D01*
X131708333Y-113429763D01*
X131648810Y-113489286D01*
X131529762Y-113548810D01*
X131172619Y-113548810D01*
X131053571Y-113489286D01*
X130994048Y-113429763D01*
X130934524Y-113310715D01*
X130934524Y-113072620D01*
X130994048Y-112953572D01*
X130934524Y-114084524D02*
X132184524Y-114084524D01*
X131708333Y-114084524D02*
X131767857Y-114203572D01*
X131767857Y-114441667D01*
X131708333Y-114560715D01*
X131648810Y-114620238D01*
X131529762Y-114679762D01*
X131172619Y-114679762D01*
X131053571Y-114620238D01*
X130994048Y-114560715D01*
X130934524Y-114441667D01*
X130934524Y-114203572D01*
X130994048Y-114084524D01*
X132244048Y-116108333D02*
X130636905Y-115036905D01*
X131767857Y-116405952D02*
X130934524Y-116703571D01*
X131767857Y-117001191D01*
X132065476Y-117417857D02*
X132125000Y-117477381D01*
X132184524Y-117596429D01*
X132184524Y-117894048D01*
X132125000Y-118013095D01*
X132065476Y-118072619D01*
X131946429Y-118132143D01*
X131827381Y-118132143D01*
X131648810Y-118072619D01*
X130934524Y-117358333D01*
X130934524Y-118132143D01*
D12*
X142904762Y-125676191D02*
X142952381Y-125533334D01*
X142952381Y-125295238D01*
X142904762Y-125200000D01*
X142857143Y-125152381D01*
X142761905Y-125104762D01*
X142666667Y-125104762D01*
X142571429Y-125152381D01*
X142523810Y-125200000D01*
X142476190Y-125295238D01*
X142428571Y-125485715D01*
X142380952Y-125580953D01*
X142333333Y-125628572D01*
X142238095Y-125676191D01*
X142142857Y-125676191D01*
X142047619Y-125628572D01*
X142000000Y-125580953D01*
X141952381Y-125485715D01*
X141952381Y-125247619D01*
X142000000Y-125104762D01*
X141952381Y-124819048D02*
X141952381Y-124247619D01*
X142952381Y-124533334D02*
X141952381Y-124533334D01*
X142666667Y-123961905D02*
X142666667Y-123485714D01*
X142952381Y-124057143D02*
X141952381Y-123723810D01*
X142952381Y-123390476D01*
X141952381Y-123200000D02*
X141952381Y-122628571D01*
X142952381Y-122914286D02*
X141952381Y-122914286D01*
X141952381Y-122295238D02*
X142761905Y-122295238D01*
X142857143Y-122247619D01*
X142904762Y-122200000D01*
X142952381Y-122104762D01*
X142952381Y-121914285D01*
X142904762Y-121819047D01*
X142857143Y-121771428D01*
X142761905Y-121723809D01*
X141952381Y-121723809D01*
X142904762Y-121295238D02*
X142952381Y-121152381D01*
X142952381Y-120914285D01*
X142904762Y-120819047D01*
X142857143Y-120771428D01*
X142761905Y-120723809D01*
X142666667Y-120723809D01*
X142571429Y-120771428D01*
X142523810Y-120819047D01*
X142476190Y-120914285D01*
X142428571Y-121104762D01*
X142380952Y-121200000D01*
X142333333Y-121247619D01*
X142238095Y-121295238D01*
X142142857Y-121295238D01*
X142047619Y-121247619D01*
X142000000Y-121200000D01*
X141952381Y-121104762D01*
X141952381Y-120866666D01*
X142000000Y-120723809D01*
X139952381Y-125333333D02*
X138952381Y-125333333D01*
X138952381Y-124952380D01*
X139000000Y-124857142D01*
X139047619Y-124809523D01*
X139142857Y-124761904D01*
X139285714Y-124761904D01*
X139380952Y-124809523D01*
X139428571Y-124857142D01*
X139476190Y-124952380D01*
X139476190Y-125333333D01*
X138952381Y-124428571D02*
X139952381Y-124190476D01*
X139238095Y-123999999D01*
X139952381Y-123809523D01*
X138952381Y-123571428D01*
X139952381Y-122619047D02*
X139476190Y-122952381D01*
X139952381Y-123190476D02*
X138952381Y-123190476D01*
X138952381Y-122809523D01*
X139000000Y-122714285D01*
X139047619Y-122666666D01*
X139142857Y-122619047D01*
X139285714Y-122619047D01*
X139380952Y-122666666D01*
X139428571Y-122714285D01*
X139476190Y-122809523D01*
X139476190Y-123190476D01*
X157119048Y-117752381D02*
X157738096Y-117752381D01*
X157404762Y-118133333D01*
X157547620Y-118133333D01*
X157642858Y-118180952D01*
X157690477Y-118228571D01*
X157738096Y-118323810D01*
X157738096Y-118561905D01*
X157690477Y-118657143D01*
X157642858Y-118704762D01*
X157547620Y-118752381D01*
X157261905Y-118752381D01*
X157166667Y-118704762D01*
X157119048Y-118657143D01*
X158166667Y-118657143D02*
X158214286Y-118704762D01*
X158166667Y-118752381D01*
X158119048Y-118704762D01*
X158166667Y-118657143D01*
X158166667Y-118752381D01*
X159119048Y-117752381D02*
X158642857Y-117752381D01*
X158595238Y-118228571D01*
X158642857Y-118180952D01*
X158738095Y-118133333D01*
X158976191Y-118133333D01*
X159071429Y-118180952D01*
X159119048Y-118228571D01*
X159166667Y-118323810D01*
X159166667Y-118561905D01*
X159119048Y-118657143D01*
X159071429Y-118704762D01*
X158976191Y-118752381D01*
X158738095Y-118752381D01*
X158642857Y-118704762D01*
X158595238Y-118657143D01*
X159595238Y-118752381D02*
X159595238Y-118085714D01*
X159595238Y-118180952D02*
X159642857Y-118133333D01*
X159738095Y-118085714D01*
X159880953Y-118085714D01*
X159976191Y-118133333D01*
X160023810Y-118228571D01*
X160023810Y-118752381D01*
X160023810Y-118228571D02*
X160071429Y-118133333D01*
X160166667Y-118085714D01*
X160309524Y-118085714D01*
X160404762Y-118133333D01*
X160452381Y-118228571D01*
X160452381Y-118752381D01*
X160928571Y-118752381D02*
X160928571Y-118085714D01*
X160928571Y-118180952D02*
X160976190Y-118133333D01*
X161071428Y-118085714D01*
X161214286Y-118085714D01*
X161309524Y-118133333D01*
X161357143Y-118228571D01*
X161357143Y-118752381D01*
X161357143Y-118228571D02*
X161404762Y-118133333D01*
X161500000Y-118085714D01*
X161642857Y-118085714D01*
X161738095Y-118133333D01*
X161785714Y-118228571D01*
X161785714Y-118752381D01*
X159109620Y-94920560D02*
X159678580Y-94920560D01*
X159678580Y-94920560D02*
X159678580Y-94509080D01*
X164947700Y-98920560D02*
X165516660Y-98920560D01*
X165516660Y-98920560D02*
X165516660Y-98509080D01*
X159259620Y-97370560D02*
X159828580Y-97370560D01*
X159828580Y-97370560D02*
X159828580Y-96959080D01*
X144825000Y-114600000D02*
X144825000Y-112600000D01*
X142775000Y-112600000D02*
X142775000Y-114600000D01*
X136700000Y-113700000D02*
X136700000Y-113000000D01*
X137900000Y-113000000D02*
X137900000Y-113700000D01*
X137450000Y-122900000D02*
X137450000Y-124800000D01*
X138550000Y-122900000D02*
X138550000Y-124800000D01*
X138000000Y-123800000D02*
X138000000Y-124250000D01*
X138250000Y-123750000D02*
X137750000Y-123750000D01*
X138000000Y-123750000D02*
X138250000Y-124000000D01*
X138250000Y-124000000D02*
X137750000Y-124000000D01*
X137750000Y-124000000D02*
X138000000Y-123750000D01*
X140450000Y-122900000D02*
X140450000Y-124800000D01*
X141550000Y-122900000D02*
X141550000Y-124800000D01*
X141000000Y-123800000D02*
X141000000Y-124250000D01*
X141250000Y-123750000D02*
X140750000Y-123750000D01*
X141000000Y-123750000D02*
X141250000Y-124000000D01*
X141250000Y-124000000D02*
X140750000Y-124000000D01*
X140750000Y-124000000D02*
X141000000Y-123750000D01*
X138675000Y-119500000D02*
X138675000Y-120500000D01*
X137325000Y-120500000D02*
X137325000Y-119500000D01*
X141675000Y-119600000D02*
X141675000Y-120600000D01*
X140325000Y-120600000D02*
X140325000Y-119600000D01*
X140700000Y-115050000D02*
G75*
G03X140700000Y-115050000I-100000J0D01*
G01*
X140050000Y-114800000D02*
X140550000Y-114800000D01*
X140050000Y-111900000D02*
X140050000Y-114800000D01*
X140550000Y-111900000D02*
X140050000Y-111900000D01*
X140550000Y-114800000D02*
X140550000Y-111900000D01*
D13*
G36*
X152814250Y-124399952D02*
X152861186Y-124403674D01*
X152908923Y-124410308D01*
X152940470Y-124416230D01*
X152957376Y-124419947D01*
X152974424Y-124424096D01*
X152991213Y-124428546D01*
X153007341Y-124433163D01*
X153022408Y-124437817D01*
X153036014Y-124442375D01*
X153047757Y-124446706D01*
X153057236Y-124450677D01*
X153064053Y-124454157D01*
X153067804Y-124457014D01*
X153068418Y-124458338D01*
X153068094Y-124460608D01*
X153067148Y-124466410D01*
X153065614Y-124475542D01*
X153063528Y-124487801D01*
X153060925Y-124502987D01*
X153057840Y-124520897D01*
X153054309Y-124541329D01*
X153050367Y-124564081D01*
X153046050Y-124588952D01*
X153041393Y-124615740D01*
X153036431Y-124644242D01*
X153031200Y-124674258D01*
X153025734Y-124705585D01*
X153020071Y-124738021D01*
X153014244Y-124771365D01*
X153008289Y-124805414D01*
X153002242Y-124839967D01*
X152996137Y-124874822D01*
X152990011Y-124909776D01*
X152983898Y-124944629D01*
X152977835Y-124979179D01*
X152971856Y-125013223D01*
X152965996Y-125046559D01*
X152960292Y-125078986D01*
X152954778Y-125110302D01*
X152949490Y-125140305D01*
X152944463Y-125168793D01*
X152939733Y-125195565D01*
X152935335Y-125220418D01*
X152931304Y-125243151D01*
X152927676Y-125263561D01*
X152924486Y-125281448D01*
X152921769Y-125296608D01*
X152919561Y-125308841D01*
X152917897Y-125317943D01*
X152916813Y-125323715D01*
X152916554Y-125325023D01*
X152906987Y-125368174D01*
X152896334Y-125409393D01*
X152884697Y-125448391D01*
X152872178Y-125484879D01*
X152858877Y-125518570D01*
X152844898Y-125549174D01*
X152830340Y-125576403D01*
X152825100Y-125585127D01*
X152804332Y-125615616D01*
X152781668Y-125643263D01*
X152757299Y-125667879D01*
X152731414Y-125689271D01*
X152704206Y-125707249D01*
X152701656Y-125708718D01*
X152680637Y-125719337D01*
X152656564Y-125729149D01*
X152630122Y-125737957D01*
X152602000Y-125745564D01*
X152572884Y-125751775D01*
X152543460Y-125756392D01*
X152529428Y-125757985D01*
X152515316Y-125759119D01*
X152499006Y-125760002D01*
X152481487Y-125760616D01*
X152463744Y-125760944D01*
X152446764Y-125760968D01*
X152431536Y-125760670D01*
X152419045Y-125760032D01*
X152418511Y-125759991D01*
X152367587Y-125754170D01*
X152316028Y-125744642D01*
X152295992Y-125739983D01*
X152284862Y-125737134D01*
X152273787Y-125734099D01*
X152263482Y-125731094D01*
X152254664Y-125728334D01*
X152248048Y-125726036D01*
X152244351Y-125724417D01*
X152244229Y-125724340D01*
X152243464Y-125723102D01*
X152243204Y-125720393D01*
X152243494Y-125715764D01*
X152244380Y-125708763D01*
X152245906Y-125698941D01*
X152248103Y-125685940D01*
X152254456Y-125649157D01*
X152375687Y-125648107D01*
X152400846Y-125647878D01*
X152422522Y-125647652D01*
X152441024Y-125647420D01*
X152456661Y-125647172D01*
X152469742Y-125646898D01*
X152480574Y-125646588D01*
X152489468Y-125646234D01*
X152496730Y-125645825D01*
X152502671Y-125645351D01*
X152507598Y-125644804D01*
X152511820Y-125644173D01*
X152513977Y-125643782D01*
X152538686Y-125638382D01*
X152560267Y-125632198D01*
X152579344Y-125624999D01*
X152596540Y-125616555D01*
X152609926Y-125608372D01*
X152618839Y-125601612D01*
X152629131Y-125592520D01*
X152640033Y-125581886D01*
X152650778Y-125570503D01*
X152660598Y-125559161D01*
X152668724Y-125548654D01*
X152670838Y-125545602D01*
X152681540Y-125528029D01*
X152692260Y-125507473D01*
X152702653Y-125484721D01*
X152712372Y-125460564D01*
X152721075Y-125435790D01*
X152726308Y-125418740D01*
X152728567Y-125410456D01*
X152731127Y-125400356D01*
X152733831Y-125389145D01*
X152736522Y-125377527D01*
X152739042Y-125366207D01*
X152741234Y-125355889D01*
X152742939Y-125347276D01*
X152744002Y-125341074D01*
X152744283Y-125338326D01*
X152743157Y-125337554D01*
X152739566Y-125338230D01*
X152733192Y-125340443D01*
X152724854Y-125343807D01*
X152696081Y-125354996D01*
X152667373Y-125364545D01*
X152639552Y-125372212D01*
X152613440Y-125377758D01*
X152603067Y-125379412D01*
X152593634Y-125380380D01*
X152581370Y-125381091D01*
X152567159Y-125381546D01*
X152551889Y-125381744D01*
X152536444Y-125381685D01*
X152521711Y-125381368D01*
X152508575Y-125380793D01*
X152497922Y-125379958D01*
X152494052Y-125379480D01*
X152477780Y-125376652D01*
X152460679Y-125372884D01*
X152444106Y-125368516D01*
X152429421Y-125363888D01*
X152424407Y-125362051D01*
X152404388Y-125352428D01*
X152385255Y-125339546D01*
X152367541Y-125323923D01*
X152351781Y-125306074D01*
X152338509Y-125286516D01*
X152330721Y-125271506D01*
X152319927Y-125243613D01*
X152311499Y-125212767D01*
X152305437Y-125178981D01*
X152301743Y-125142266D01*
X152300418Y-125102632D01*
X152301461Y-125060090D01*
X152301630Y-125057836D01*
X152472267Y-125057836D01*
X152472431Y-125089159D01*
X152474198Y-125118773D01*
X152477547Y-125146104D01*
X152482461Y-125170579D01*
X152482781Y-125171848D01*
X152490038Y-125193997D01*
X152499800Y-125213307D01*
X152512069Y-125229780D01*
X152526847Y-125243417D01*
X152544137Y-125254219D01*
X152563941Y-125262188D01*
X152586262Y-125267325D01*
X152611102Y-125269632D01*
X152638464Y-125269109D01*
X152659897Y-125266959D01*
X152672054Y-125264949D01*
X152685242Y-125262046D01*
X152698931Y-125258442D01*
X152712587Y-125254326D01*
X152725678Y-125249889D01*
X152737671Y-125245319D01*
X152748035Y-125240808D01*
X152756237Y-125236546D01*
X152761745Y-125232721D01*
X152763958Y-125229812D01*
X152764395Y-125227595D01*
X152765446Y-125221874D01*
X152767072Y-125212869D01*
X152769235Y-125200802D01*
X152771895Y-125185895D01*
X152775014Y-125168369D01*
X152778552Y-125148444D01*
X152782470Y-125126344D01*
X152786731Y-125102287D01*
X152791293Y-125076497D01*
X152796120Y-125049195D01*
X152801170Y-125020601D01*
X152806407Y-124990938D01*
X152811790Y-124960425D01*
X152817281Y-124929286D01*
X152822840Y-124897741D01*
X152828429Y-124866011D01*
X152834009Y-124834319D01*
X152839540Y-124802884D01*
X152844984Y-124771929D01*
X152850302Y-124741675D01*
X152855454Y-124712343D01*
X152860403Y-124684154D01*
X152865108Y-124657331D01*
X152869531Y-124632093D01*
X152873633Y-124608663D01*
X152877375Y-124587262D01*
X152880717Y-124568112D01*
X152883622Y-124551433D01*
X152886049Y-124537447D01*
X152887961Y-124526375D01*
X152889317Y-124518438D01*
X152890079Y-124513859D01*
X152890239Y-124512770D01*
X152888420Y-124512136D01*
X152883267Y-124511643D01*
X152875233Y-124511286D01*
X152864771Y-124511056D01*
X152852335Y-124510947D01*
X152838378Y-124510951D01*
X152823354Y-124511062D01*
X152807716Y-124511273D01*
X152791918Y-124511577D01*
X152776413Y-124511966D01*
X152761655Y-124512433D01*
X152748098Y-124512972D01*
X152736193Y-124513576D01*
X152726397Y-124514238D01*
X152719160Y-124514950D01*
X152715905Y-124515465D01*
X152692600Y-124521444D01*
X152672051Y-124529166D01*
X152653451Y-124539076D01*
X152635992Y-124551617D01*
X152618869Y-124567233D01*
X152615333Y-124570849D01*
X152598607Y-124590377D01*
X152582563Y-124613354D01*
X152567349Y-124639480D01*
X152553108Y-124668450D01*
X152539987Y-124699964D01*
X152528131Y-124733717D01*
X152517685Y-124769408D01*
X152515182Y-124779112D01*
X152510323Y-124799599D01*
X152505244Y-124823052D01*
X152500088Y-124848667D01*
X152495000Y-124875638D01*
X152490127Y-124903159D01*
X152485611Y-124930423D01*
X152481600Y-124956625D01*
X152478237Y-124980959D01*
X152476822Y-124992358D01*
X152473725Y-125025378D01*
X152472267Y-125057836D01*
X152301630Y-125057836D01*
X152304875Y-125014653D01*
X152308452Y-124982881D01*
X152314267Y-124941114D01*
X152321111Y-124899306D01*
X152328866Y-124857973D01*
X152337414Y-124817631D01*
X152346636Y-124778796D01*
X152356413Y-124741985D01*
X152366627Y-124707714D01*
X152377159Y-124676498D01*
X152381642Y-124664438D01*
X152396718Y-124628077D01*
X152412798Y-124595130D01*
X152430056Y-124565312D01*
X152448667Y-124538338D01*
X152468807Y-124513922D01*
X152482563Y-124499523D01*
X152506335Y-124478099D01*
X152531406Y-124459676D01*
X152558196Y-124444028D01*
X152587123Y-124430930D01*
X152618606Y-124420156D01*
X152640977Y-124414211D01*
X152681479Y-124406269D01*
X152724074Y-124401247D01*
X152768438Y-124399142D01*
X152814250Y-124399952D01*
X152814250Y-124399952D01*
G37*
X152814250Y-124399952D02*
X152861186Y-124403674D01*
X152908923Y-124410308D01*
X152940470Y-124416230D01*
X152957376Y-124419947D01*
X152974424Y-124424096D01*
X152991213Y-124428546D01*
X153007341Y-124433163D01*
X153022408Y-124437817D01*
X153036014Y-124442375D01*
X153047757Y-124446706D01*
X153057236Y-124450677D01*
X153064053Y-124454157D01*
X153067804Y-124457014D01*
X153068418Y-124458338D01*
X153068094Y-124460608D01*
X153067148Y-124466410D01*
X153065614Y-124475542D01*
X153063528Y-124487801D01*
X153060925Y-124502987D01*
X153057840Y-124520897D01*
X153054309Y-124541329D01*
X153050367Y-124564081D01*
X153046050Y-124588952D01*
X153041393Y-124615740D01*
X153036431Y-124644242D01*
X153031200Y-124674258D01*
X153025734Y-124705585D01*
X153020071Y-124738021D01*
X153014244Y-124771365D01*
X153008289Y-124805414D01*
X153002242Y-124839967D01*
X152996137Y-124874822D01*
X152990011Y-124909776D01*
X152983898Y-124944629D01*
X152977835Y-124979179D01*
X152971856Y-125013223D01*
X152965996Y-125046559D01*
X152960292Y-125078986D01*
X152954778Y-125110302D01*
X152949490Y-125140305D01*
X152944463Y-125168793D01*
X152939733Y-125195565D01*
X152935335Y-125220418D01*
X152931304Y-125243151D01*
X152927676Y-125263561D01*
X152924486Y-125281448D01*
X152921769Y-125296608D01*
X152919561Y-125308841D01*
X152917897Y-125317943D01*
X152916813Y-125323715D01*
X152916554Y-125325023D01*
X152906987Y-125368174D01*
X152896334Y-125409393D01*
X152884697Y-125448391D01*
X152872178Y-125484879D01*
X152858877Y-125518570D01*
X152844898Y-125549174D01*
X152830340Y-125576403D01*
X152825100Y-125585127D01*
X152804332Y-125615616D01*
X152781668Y-125643263D01*
X152757299Y-125667879D01*
X152731414Y-125689271D01*
X152704206Y-125707249D01*
X152701656Y-125708718D01*
X152680637Y-125719337D01*
X152656564Y-125729149D01*
X152630122Y-125737957D01*
X152602000Y-125745564D01*
X152572884Y-125751775D01*
X152543460Y-125756392D01*
X152529428Y-125757985D01*
X152515316Y-125759119D01*
X152499006Y-125760002D01*
X152481487Y-125760616D01*
X152463744Y-125760944D01*
X152446764Y-125760968D01*
X152431536Y-125760670D01*
X152419045Y-125760032D01*
X152418511Y-125759991D01*
X152367587Y-125754170D01*
X152316028Y-125744642D01*
X152295992Y-125739983D01*
X152284862Y-125737134D01*
X152273787Y-125734099D01*
X152263482Y-125731094D01*
X152254664Y-125728334D01*
X152248048Y-125726036D01*
X152244351Y-125724417D01*
X152244229Y-125724340D01*
X152243464Y-125723102D01*
X152243204Y-125720393D01*
X152243494Y-125715764D01*
X152244380Y-125708763D01*
X152245906Y-125698941D01*
X152248103Y-125685940D01*
X152254456Y-125649157D01*
X152375687Y-125648107D01*
X152400846Y-125647878D01*
X152422522Y-125647652D01*
X152441024Y-125647420D01*
X152456661Y-125647172D01*
X152469742Y-125646898D01*
X152480574Y-125646588D01*
X152489468Y-125646234D01*
X152496730Y-125645825D01*
X152502671Y-125645351D01*
X152507598Y-125644804D01*
X152511820Y-125644173D01*
X152513977Y-125643782D01*
X152538686Y-125638382D01*
X152560267Y-125632198D01*
X152579344Y-125624999D01*
X152596540Y-125616555D01*
X152609926Y-125608372D01*
X152618839Y-125601612D01*
X152629131Y-125592520D01*
X152640033Y-125581886D01*
X152650778Y-125570503D01*
X152660598Y-125559161D01*
X152668724Y-125548654D01*
X152670838Y-125545602D01*
X152681540Y-125528029D01*
X152692260Y-125507473D01*
X152702653Y-125484721D01*
X152712372Y-125460564D01*
X152721075Y-125435790D01*
X152726308Y-125418740D01*
X152728567Y-125410456D01*
X152731127Y-125400356D01*
X152733831Y-125389145D01*
X152736522Y-125377527D01*
X152739042Y-125366207D01*
X152741234Y-125355889D01*
X152742939Y-125347276D01*
X152744002Y-125341074D01*
X152744283Y-125338326D01*
X152743157Y-125337554D01*
X152739566Y-125338230D01*
X152733192Y-125340443D01*
X152724854Y-125343807D01*
X152696081Y-125354996D01*
X152667373Y-125364545D01*
X152639552Y-125372212D01*
X152613440Y-125377758D01*
X152603067Y-125379412D01*
X152593634Y-125380380D01*
X152581370Y-125381091D01*
X152567159Y-125381546D01*
X152551889Y-125381744D01*
X152536444Y-125381685D01*
X152521711Y-125381368D01*
X152508575Y-125380793D01*
X152497922Y-125379958D01*
X152494052Y-125379480D01*
X152477780Y-125376652D01*
X152460679Y-125372884D01*
X152444106Y-125368516D01*
X152429421Y-125363888D01*
X152424407Y-125362051D01*
X152404388Y-125352428D01*
X152385255Y-125339546D01*
X152367541Y-125323923D01*
X152351781Y-125306074D01*
X152338509Y-125286516D01*
X152330721Y-125271506D01*
X152319927Y-125243613D01*
X152311499Y-125212767D01*
X152305437Y-125178981D01*
X152301743Y-125142266D01*
X152300418Y-125102632D01*
X152301461Y-125060090D01*
X152301630Y-125057836D01*
X152472267Y-125057836D01*
X152472431Y-125089159D01*
X152474198Y-125118773D01*
X152477547Y-125146104D01*
X152482461Y-125170579D01*
X152482781Y-125171848D01*
X152490038Y-125193997D01*
X152499800Y-125213307D01*
X152512069Y-125229780D01*
X152526847Y-125243417D01*
X152544137Y-125254219D01*
X152563941Y-125262188D01*
X152586262Y-125267325D01*
X152611102Y-125269632D01*
X152638464Y-125269109D01*
X152659897Y-125266959D01*
X152672054Y-125264949D01*
X152685242Y-125262046D01*
X152698931Y-125258442D01*
X152712587Y-125254326D01*
X152725678Y-125249889D01*
X152737671Y-125245319D01*
X152748035Y-125240808D01*
X152756237Y-125236546D01*
X152761745Y-125232721D01*
X152763958Y-125229812D01*
X152764395Y-125227595D01*
X152765446Y-125221874D01*
X152767072Y-125212869D01*
X152769235Y-125200802D01*
X152771895Y-125185895D01*
X152775014Y-125168369D01*
X152778552Y-125148444D01*
X152782470Y-125126344D01*
X152786731Y-125102287D01*
X152791293Y-125076497D01*
X152796120Y-125049195D01*
X152801170Y-125020601D01*
X152806407Y-124990938D01*
X152811790Y-124960425D01*
X152817281Y-124929286D01*
X152822840Y-124897741D01*
X152828429Y-124866011D01*
X152834009Y-124834319D01*
X152839540Y-124802884D01*
X152844984Y-124771929D01*
X152850302Y-124741675D01*
X152855454Y-124712343D01*
X152860403Y-124684154D01*
X152865108Y-124657331D01*
X152869531Y-124632093D01*
X152873633Y-124608663D01*
X152877375Y-124587262D01*
X152880717Y-124568112D01*
X152883622Y-124551433D01*
X152886049Y-124537447D01*
X152887961Y-124526375D01*
X152889317Y-124518438D01*
X152890079Y-124513859D01*
X152890239Y-124512770D01*
X152888420Y-124512136D01*
X152883267Y-124511643D01*
X152875233Y-124511286D01*
X152864771Y-124511056D01*
X152852335Y-124510947D01*
X152838378Y-124510951D01*
X152823354Y-124511062D01*
X152807716Y-124511273D01*
X152791918Y-124511577D01*
X152776413Y-124511966D01*
X152761655Y-124512433D01*
X152748098Y-124512972D01*
X152736193Y-124513576D01*
X152726397Y-124514238D01*
X152719160Y-124514950D01*
X152715905Y-124515465D01*
X152692600Y-124521444D01*
X152672051Y-124529166D01*
X152653451Y-124539076D01*
X152635992Y-124551617D01*
X152618869Y-124567233D01*
X152615333Y-124570849D01*
X152598607Y-124590377D01*
X152582563Y-124613354D01*
X152567349Y-124639480D01*
X152553108Y-124668450D01*
X152539987Y-124699964D01*
X152528131Y-124733717D01*
X152517685Y-124769408D01*
X152515182Y-124779112D01*
X152510323Y-124799599D01*
X152505244Y-124823052D01*
X152500088Y-124848667D01*
X152495000Y-124875638D01*
X152490127Y-124903159D01*
X152485611Y-124930423D01*
X152481600Y-124956625D01*
X152478237Y-124980959D01*
X152476822Y-124992358D01*
X152473725Y-125025378D01*
X152472267Y-125057836D01*
X152301630Y-125057836D01*
X152304875Y-125014653D01*
X152308452Y-124982881D01*
X152314267Y-124941114D01*
X152321111Y-124899306D01*
X152328866Y-124857973D01*
X152337414Y-124817631D01*
X152346636Y-124778796D01*
X152356413Y-124741985D01*
X152366627Y-124707714D01*
X152377159Y-124676498D01*
X152381642Y-124664438D01*
X152396718Y-124628077D01*
X152412798Y-124595130D01*
X152430056Y-124565312D01*
X152448667Y-124538338D01*
X152468807Y-124513922D01*
X152482563Y-124499523D01*
X152506335Y-124478099D01*
X152531406Y-124459676D01*
X152558196Y-124444028D01*
X152587123Y-124430930D01*
X152618606Y-124420156D01*
X152640977Y-124414211D01*
X152681479Y-124406269D01*
X152724074Y-124401247D01*
X152768438Y-124399142D01*
X152814250Y-124399952D01*
G36*
X154466412Y-124213773D02*
X154465940Y-124216265D01*
X154464898Y-124222038D01*
X154463356Y-124230694D01*
X154461383Y-124241834D01*
X154459050Y-124255059D01*
X154456425Y-124269971D01*
X154453580Y-124286171D01*
X154450583Y-124303261D01*
X154447504Y-124320842D01*
X154444413Y-124338515D01*
X154441380Y-124355881D01*
X154438475Y-124372543D01*
X154435766Y-124388101D01*
X154433325Y-124402157D01*
X154431220Y-124414312D01*
X154429521Y-124424167D01*
X154428299Y-124431324D01*
X154427622Y-124435385D01*
X154427507Y-124436169D01*
X154429352Y-124436305D01*
X154434684Y-124436447D01*
X154443200Y-124436592D01*
X154454595Y-124436737D01*
X154468567Y-124436880D01*
X154484811Y-124437018D01*
X154503023Y-124437147D01*
X154522900Y-124437265D01*
X154544138Y-124437368D01*
X154559812Y-124437432D01*
X154692117Y-124437918D01*
X154684654Y-124479930D01*
X154677190Y-124521941D01*
X154670345Y-124523799D01*
X154665498Y-124525117D01*
X154658212Y-124527101D01*
X154649708Y-124529419D01*
X154645332Y-124530612D01*
X154606372Y-124540056D01*
X154565704Y-124547701D01*
X154524465Y-124553390D01*
X154483797Y-124556969D01*
X154444840Y-124558281D01*
X154442876Y-124558284D01*
X154405062Y-124558284D01*
X154403993Y-124563497D01*
X154403467Y-124566357D01*
X154402343Y-124572687D01*
X154400668Y-124582222D01*
X154398487Y-124594697D01*
X154395847Y-124609845D01*
X154392793Y-124627401D01*
X154389371Y-124647100D01*
X154385627Y-124668675D01*
X154381607Y-124691861D01*
X154377357Y-124716393D01*
X154372923Y-124742005D01*
X154368350Y-124768431D01*
X154363685Y-124795406D01*
X154358974Y-124822663D01*
X154354261Y-124849938D01*
X154349594Y-124876965D01*
X154345019Y-124903479D01*
X154340580Y-124929212D01*
X154336325Y-124953901D01*
X154332298Y-124977279D01*
X154328546Y-124999081D01*
X154325115Y-125019041D01*
X154322050Y-125036893D01*
X154319398Y-125052372D01*
X154317204Y-125065212D01*
X154315514Y-125075148D01*
X154314375Y-125081914D01*
X154313832Y-125085239D01*
X154311015Y-125110778D01*
X154310265Y-125135796D01*
X154311528Y-125159730D01*
X154314748Y-125182019D01*
X154319871Y-125202102D01*
X154326842Y-125219418D01*
X154327004Y-125219742D01*
X154332422Y-125228638D01*
X154339705Y-125238105D01*
X154347916Y-125247094D01*
X154356115Y-125254561D01*
X154361948Y-125258684D01*
X154366091Y-125261013D01*
X154370160Y-125262990D01*
X154374500Y-125264647D01*
X154379454Y-125266015D01*
X154385367Y-125267127D01*
X154392581Y-125268015D01*
X154401442Y-125268712D01*
X154412292Y-125269248D01*
X154425477Y-125269657D01*
X154441338Y-125269971D01*
X154460221Y-125270221D01*
X154482470Y-125270441D01*
X154488304Y-125270492D01*
X154582272Y-125271303D01*
X154576955Y-125301954D01*
X154574592Y-125315712D01*
X154572748Y-125326233D01*
X154571207Y-125334000D01*
X154569753Y-125339496D01*
X154568171Y-125343203D01*
X154566244Y-125345603D01*
X154563757Y-125347178D01*
X154560493Y-125348412D01*
X154556237Y-125349787D01*
X154555423Y-125350062D01*
X154536571Y-125355829D01*
X154514657Y-125361377D01*
X154490408Y-125366566D01*
X154464550Y-125371253D01*
X154437812Y-125375298D01*
X154410921Y-125378559D01*
X154406270Y-125379037D01*
X154383428Y-125381042D01*
X154363343Y-125382168D01*
X154345092Y-125382431D01*
X154327747Y-125381848D01*
X154313234Y-125380719D01*
X154283440Y-125376692D01*
X154256763Y-125370591D01*
X154233078Y-125362308D01*
X154212261Y-125351737D01*
X154194189Y-125338773D01*
X154178737Y-125323308D01*
X154165782Y-125305236D01*
X154155200Y-125284451D01*
X154146868Y-125260847D01*
X154140660Y-125234316D01*
X154140266Y-125232142D01*
X154138942Y-125221928D01*
X154137993Y-125208811D01*
X154137426Y-125193660D01*
X154137249Y-125177346D01*
X154137469Y-125160738D01*
X154138095Y-125144706D01*
X154139133Y-125130120D01*
X154139347Y-125127888D01*
X154139860Y-125122864D01*
X154140393Y-125117918D01*
X154140980Y-125112847D01*
X154141655Y-125107451D01*
X154142450Y-125101525D01*
X154143399Y-125094870D01*
X154144536Y-125087283D01*
X154145894Y-125078561D01*
X154147506Y-125068504D01*
X154149405Y-125056908D01*
X154151625Y-125043573D01*
X154154199Y-125028296D01*
X154157161Y-125010875D01*
X154160543Y-124991108D01*
X154164380Y-124968793D01*
X154168703Y-124943729D01*
X154173548Y-124915713D01*
X154178947Y-124884544D01*
X154184933Y-124850019D01*
X154190703Y-124816761D01*
X154195963Y-124786417D01*
X154201041Y-124757066D01*
X154205899Y-124728930D01*
X154210500Y-124702228D01*
X154214805Y-124677181D01*
X154218778Y-124654010D01*
X154222380Y-124632934D01*
X154225574Y-124614175D01*
X154228322Y-124597953D01*
X154230587Y-124584489D01*
X154232330Y-124574003D01*
X154233515Y-124566715D01*
X154234104Y-124562846D01*
X154234164Y-124562287D01*
X154234087Y-124561141D01*
X154233589Y-124560238D01*
X154232266Y-124559549D01*
X154229715Y-124559044D01*
X154225533Y-124558695D01*
X154219317Y-124558474D01*
X154210665Y-124558351D01*
X154199173Y-124558297D01*
X154184439Y-124558284D01*
X154178246Y-124558284D01*
X154161495Y-124558250D01*
X154148211Y-124558138D01*
X154138069Y-124557935D01*
X154130745Y-124557626D01*
X154125915Y-124557199D01*
X154123256Y-124556640D01*
X154122442Y-124555934D01*
X154122442Y-124555914D01*
X154122809Y-124553524D01*
X154123793Y-124547880D01*
X154125308Y-124539456D01*
X154127269Y-124528724D01*
X154129589Y-124516157D01*
X154132182Y-124502226D01*
X154133398Y-124495732D01*
X154144238Y-124437918D01*
X154258036Y-124436916D01*
X154277850Y-124323214D01*
X154297664Y-124209511D01*
X154382525Y-124209509D01*
X154467385Y-124209508D01*
X154466412Y-124213773D01*
X154466412Y-124213773D01*
G37*
X154466412Y-124213773D02*
X154465940Y-124216265D01*
X154464898Y-124222038D01*
X154463356Y-124230694D01*
X154461383Y-124241834D01*
X154459050Y-124255059D01*
X154456425Y-124269971D01*
X154453580Y-124286171D01*
X154450583Y-124303261D01*
X154447504Y-124320842D01*
X154444413Y-124338515D01*
X154441380Y-124355881D01*
X154438475Y-124372543D01*
X154435766Y-124388101D01*
X154433325Y-124402157D01*
X154431220Y-124414312D01*
X154429521Y-124424167D01*
X154428299Y-124431324D01*
X154427622Y-124435385D01*
X154427507Y-124436169D01*
X154429352Y-124436305D01*
X154434684Y-124436447D01*
X154443200Y-124436592D01*
X154454595Y-124436737D01*
X154468567Y-124436880D01*
X154484811Y-124437018D01*
X154503023Y-124437147D01*
X154522900Y-124437265D01*
X154544138Y-124437368D01*
X154559812Y-124437432D01*
X154692117Y-124437918D01*
X154684654Y-124479930D01*
X154677190Y-124521941D01*
X154670345Y-124523799D01*
X154665498Y-124525117D01*
X154658212Y-124527101D01*
X154649708Y-124529419D01*
X154645332Y-124530612D01*
X154606372Y-124540056D01*
X154565704Y-124547701D01*
X154524465Y-124553390D01*
X154483797Y-124556969D01*
X154444840Y-124558281D01*
X154442876Y-124558284D01*
X154405062Y-124558284D01*
X154403993Y-124563497D01*
X154403467Y-124566357D01*
X154402343Y-124572687D01*
X154400668Y-124582222D01*
X154398487Y-124594697D01*
X154395847Y-124609845D01*
X154392793Y-124627401D01*
X154389371Y-124647100D01*
X154385627Y-124668675D01*
X154381607Y-124691861D01*
X154377357Y-124716393D01*
X154372923Y-124742005D01*
X154368350Y-124768431D01*
X154363685Y-124795406D01*
X154358974Y-124822663D01*
X154354261Y-124849938D01*
X154349594Y-124876965D01*
X154345019Y-124903479D01*
X154340580Y-124929212D01*
X154336325Y-124953901D01*
X154332298Y-124977279D01*
X154328546Y-124999081D01*
X154325115Y-125019041D01*
X154322050Y-125036893D01*
X154319398Y-125052372D01*
X154317204Y-125065212D01*
X154315514Y-125075148D01*
X154314375Y-125081914D01*
X154313832Y-125085239D01*
X154311015Y-125110778D01*
X154310265Y-125135796D01*
X154311528Y-125159730D01*
X154314748Y-125182019D01*
X154319871Y-125202102D01*
X154326842Y-125219418D01*
X154327004Y-125219742D01*
X154332422Y-125228638D01*
X154339705Y-125238105D01*
X154347916Y-125247094D01*
X154356115Y-125254561D01*
X154361948Y-125258684D01*
X154366091Y-125261013D01*
X154370160Y-125262990D01*
X154374500Y-125264647D01*
X154379454Y-125266015D01*
X154385367Y-125267127D01*
X154392581Y-125268015D01*
X154401442Y-125268712D01*
X154412292Y-125269248D01*
X154425477Y-125269657D01*
X154441338Y-125269971D01*
X154460221Y-125270221D01*
X154482470Y-125270441D01*
X154488304Y-125270492D01*
X154582272Y-125271303D01*
X154576955Y-125301954D01*
X154574592Y-125315712D01*
X154572748Y-125326233D01*
X154571207Y-125334000D01*
X154569753Y-125339496D01*
X154568171Y-125343203D01*
X154566244Y-125345603D01*
X154563757Y-125347178D01*
X154560493Y-125348412D01*
X154556237Y-125349787D01*
X154555423Y-125350062D01*
X154536571Y-125355829D01*
X154514657Y-125361377D01*
X154490408Y-125366566D01*
X154464550Y-125371253D01*
X154437812Y-125375298D01*
X154410921Y-125378559D01*
X154406270Y-125379037D01*
X154383428Y-125381042D01*
X154363343Y-125382168D01*
X154345092Y-125382431D01*
X154327747Y-125381848D01*
X154313234Y-125380719D01*
X154283440Y-125376692D01*
X154256763Y-125370591D01*
X154233078Y-125362308D01*
X154212261Y-125351737D01*
X154194189Y-125338773D01*
X154178737Y-125323308D01*
X154165782Y-125305236D01*
X154155200Y-125284451D01*
X154146868Y-125260847D01*
X154140660Y-125234316D01*
X154140266Y-125232142D01*
X154138942Y-125221928D01*
X154137993Y-125208811D01*
X154137426Y-125193660D01*
X154137249Y-125177346D01*
X154137469Y-125160738D01*
X154138095Y-125144706D01*
X154139133Y-125130120D01*
X154139347Y-125127888D01*
X154139860Y-125122864D01*
X154140393Y-125117918D01*
X154140980Y-125112847D01*
X154141655Y-125107451D01*
X154142450Y-125101525D01*
X154143399Y-125094870D01*
X154144536Y-125087283D01*
X154145894Y-125078561D01*
X154147506Y-125068504D01*
X154149405Y-125056908D01*
X154151625Y-125043573D01*
X154154199Y-125028296D01*
X154157161Y-125010875D01*
X154160543Y-124991108D01*
X154164380Y-124968793D01*
X154168703Y-124943729D01*
X154173548Y-124915713D01*
X154178947Y-124884544D01*
X154184933Y-124850019D01*
X154190703Y-124816761D01*
X154195963Y-124786417D01*
X154201041Y-124757066D01*
X154205899Y-124728930D01*
X154210500Y-124702228D01*
X154214805Y-124677181D01*
X154218778Y-124654010D01*
X154222380Y-124632934D01*
X154225574Y-124614175D01*
X154228322Y-124597953D01*
X154230587Y-124584489D01*
X154232330Y-124574003D01*
X154233515Y-124566715D01*
X154234104Y-124562846D01*
X154234164Y-124562287D01*
X154234087Y-124561141D01*
X154233589Y-124560238D01*
X154232266Y-124559549D01*
X154229715Y-124559044D01*
X154225533Y-124558695D01*
X154219317Y-124558474D01*
X154210665Y-124558351D01*
X154199173Y-124558297D01*
X154184439Y-124558284D01*
X154178246Y-124558284D01*
X154161495Y-124558250D01*
X154148211Y-124558138D01*
X154138069Y-124557935D01*
X154130745Y-124557626D01*
X154125915Y-124557199D01*
X154123256Y-124556640D01*
X154122442Y-124555934D01*
X154122442Y-124555914D01*
X154122809Y-124553524D01*
X154123793Y-124547880D01*
X154125308Y-124539456D01*
X154127269Y-124528724D01*
X154129589Y-124516157D01*
X154132182Y-124502226D01*
X154133398Y-124495732D01*
X154144238Y-124437918D01*
X154258036Y-124436916D01*
X154277850Y-124323214D01*
X154297664Y-124209511D01*
X154382525Y-124209509D01*
X154467385Y-124209508D01*
X154466412Y-124213773D01*
G36*
X155288734Y-124020954D02*
X155323967Y-124022352D01*
X155359370Y-124024848D01*
X155394301Y-124028386D01*
X155428119Y-124032913D01*
X155460185Y-124038371D01*
X155489857Y-124044705D01*
X155516496Y-124051861D01*
X155518007Y-124052322D01*
X155526561Y-124055069D01*
X155531998Y-124057160D01*
X155534875Y-124058880D01*
X155535748Y-124060509D01*
X155535641Y-124061269D01*
X155535103Y-124063812D01*
X155534047Y-124069352D01*
X155532595Y-124077211D01*
X155530868Y-124086711D01*
X155528986Y-124097174D01*
X155527071Y-124107921D01*
X155525243Y-124118274D01*
X155523624Y-124127554D01*
X155522334Y-124135083D01*
X155521495Y-124140184D01*
X155521224Y-124142146D01*
X155519376Y-124142287D01*
X155514025Y-124142437D01*
X155505459Y-124142593D01*
X155493965Y-124142751D01*
X155479832Y-124142910D01*
X155463346Y-124143065D01*
X155444796Y-124143215D01*
X155424470Y-124143355D01*
X155402655Y-124143484D01*
X155379639Y-124143599D01*
X155373847Y-124143624D01*
X155345370Y-124143749D01*
X155320389Y-124143876D01*
X155298611Y-124144024D01*
X155279741Y-124144212D01*
X155263484Y-124144461D01*
X155249547Y-124144788D01*
X155237635Y-124145214D01*
X155227453Y-124145757D01*
X155218708Y-124146438D01*
X155211105Y-124147275D01*
X155204349Y-124148288D01*
X155198147Y-124149495D01*
X155192203Y-124150917D01*
X155186225Y-124152572D01*
X155179917Y-124154480D01*
X155172984Y-124156660D01*
X155172448Y-124156830D01*
X155147004Y-124166187D01*
X155124416Y-124177383D01*
X155104032Y-124190806D01*
X155085205Y-124206846D01*
X155079345Y-124212655D01*
X155060784Y-124234371D01*
X155044756Y-124258740D01*
X155031357Y-124285513D01*
X155020684Y-124314438D01*
X155012834Y-124345265D01*
X155007903Y-124377741D01*
X155006203Y-124402349D01*
X155006015Y-124424774D01*
X155007304Y-124444367D01*
X155010287Y-124461874D01*
X155015181Y-124478038D01*
X155022202Y-124493603D01*
X155031568Y-124509315D01*
X155041442Y-124523217D01*
X155050826Y-124535010D01*
X155060811Y-124546156D01*
X155071684Y-124556852D01*
X155083733Y-124567294D01*
X155097248Y-124577680D01*
X155112515Y-124588206D01*
X155129823Y-124599068D01*
X155149461Y-124610464D01*
X155171717Y-124622591D01*
X155196878Y-124635644D01*
X155225234Y-124649821D01*
X155231209Y-124652757D01*
X155252144Y-124663280D01*
X155270277Y-124673026D01*
X155286381Y-124682481D01*
X155301227Y-124692135D01*
X155315588Y-124702476D01*
X155330235Y-124713992D01*
X155337358Y-124719882D01*
X155356863Y-124737243D01*
X155373426Y-124754351D01*
X155387732Y-124772052D01*
X155400467Y-124791192D01*
X155411978Y-124811954D01*
X155421768Y-124832780D01*
X155429219Y-124852755D01*
X155434546Y-124872816D01*
X155437963Y-124893902D01*
X155439684Y-124916951D01*
X155439996Y-124934545D01*
X155438530Y-124971691D01*
X155434134Y-125009146D01*
X155429456Y-125035145D01*
X155419973Y-125076504D01*
X155409004Y-125114497D01*
X155396435Y-125149292D01*
X155382151Y-125181058D01*
X155366039Y-125209962D01*
X155347984Y-125236174D01*
X155327872Y-125259860D01*
X155305589Y-125281190D01*
X155281022Y-125300332D01*
X155254056Y-125317453D01*
X155229065Y-125330590D01*
X155203394Y-125342064D01*
X155177361Y-125351818D01*
X155150341Y-125360014D01*
X155121708Y-125366815D01*
X155090836Y-125372383D01*
X155057100Y-125376879D01*
X155045448Y-125378133D01*
X155036347Y-125378875D01*
X155024288Y-125379582D01*
X155009931Y-125380237D01*
X154993936Y-125380825D01*
X154976963Y-125381332D01*
X154959671Y-125381742D01*
X154942721Y-125382040D01*
X154926772Y-125382210D01*
X154912483Y-125382238D01*
X154900516Y-125382109D01*
X154891530Y-125381806D01*
X154890015Y-125381715D01*
X154864282Y-125379876D01*
X154841585Y-125378012D01*
X154821168Y-125376033D01*
X154802274Y-125373848D01*
X154784150Y-125371368D01*
X154766039Y-125368503D01*
X154747186Y-125365162D01*
X154740268Y-125363864D01*
X154728772Y-125361552D01*
X154716728Y-125358913D01*
X154704758Y-125356107D01*
X154693483Y-125353292D01*
X154683522Y-125350628D01*
X154675497Y-125348274D01*
X154670029Y-125346390D01*
X154667840Y-125345264D01*
X154667832Y-125343183D01*
X154668397Y-125338025D01*
X154669430Y-125330440D01*
X154670828Y-125321080D01*
X154672484Y-125310597D01*
X154674295Y-125299643D01*
X154676156Y-125288870D01*
X154677962Y-125278929D01*
X154679609Y-125270472D01*
X154680561Y-125266004D01*
X154681471Y-125261956D01*
X154830761Y-125260943D01*
X154860515Y-125260730D01*
X154886787Y-125260511D01*
X154909885Y-125260269D01*
X154930119Y-125259988D01*
X154947797Y-125259651D01*
X154963228Y-125259243D01*
X154976721Y-125258746D01*
X154988585Y-125258145D01*
X154999128Y-125257424D01*
X155008660Y-125256566D01*
X155017490Y-125255555D01*
X155025925Y-125254375D01*
X155034276Y-125253010D01*
X155042850Y-125251443D01*
X155051957Y-125249658D01*
X155054296Y-125249187D01*
X155085056Y-125241748D01*
X155112666Y-125232455D01*
X155137333Y-125221207D01*
X155159267Y-125207905D01*
X155178677Y-125192450D01*
X155183950Y-125187466D01*
X155201455Y-125168402D01*
X155216753Y-125147651D01*
X155230007Y-125124874D01*
X155241380Y-125099732D01*
X155251036Y-125071885D01*
X155259138Y-125040995D01*
X155262787Y-125023635D01*
X155264452Y-125012399D01*
X155265589Y-124999127D01*
X155266199Y-124984734D01*
X155266282Y-124970134D01*
X155265839Y-124956240D01*
X155264869Y-124943968D01*
X155263374Y-124934230D01*
X155262757Y-124931702D01*
X155257441Y-124916159D01*
X155250140Y-124901161D01*
X155240457Y-124886051D01*
X155227997Y-124870170D01*
X155220855Y-124862016D01*
X155209508Y-124850682D01*
X155195326Y-124838732D01*
X155178194Y-124826093D01*
X155157998Y-124812693D01*
X155134623Y-124798458D01*
X155107955Y-124783316D01*
X155077881Y-124767195D01*
X155048291Y-124752031D01*
X155027037Y-124741153D01*
X155008664Y-124731313D01*
X154992538Y-124722129D01*
X154978025Y-124713221D01*
X154964490Y-124704207D01*
X154951299Y-124694708D01*
X154945426Y-124690264D01*
X154919947Y-124668644D01*
X154897750Y-124645287D01*
X154878609Y-124619893D01*
X154862298Y-124592163D01*
X154848702Y-124562075D01*
X154840971Y-124538039D01*
X154835556Y-124511296D01*
X154832454Y-124482140D01*
X154831664Y-124450866D01*
X154833184Y-124417768D01*
X154837012Y-124383138D01*
X154843146Y-124347272D01*
X154850266Y-124315657D01*
X154861623Y-124276293D01*
X154875301Y-124239897D01*
X154891345Y-124206403D01*
X154909801Y-124175746D01*
X154930716Y-124147862D01*
X154954134Y-124122684D01*
X154980102Y-124100148D01*
X155008666Y-124080188D01*
X155021286Y-124072650D01*
X155044558Y-124060896D01*
X155070839Y-124050328D01*
X155099481Y-124041135D01*
X155129836Y-124033501D01*
X155161256Y-124027614D01*
X155190455Y-124023910D01*
X155221337Y-124021678D01*
X155254311Y-124020711D01*
X155288734Y-124020954D01*
X155288734Y-124020954D01*
G37*
X155288734Y-124020954D02*
X155323967Y-124022352D01*
X155359370Y-124024848D01*
X155394301Y-124028386D01*
X155428119Y-124032913D01*
X155460185Y-124038371D01*
X155489857Y-124044705D01*
X155516496Y-124051861D01*
X155518007Y-124052322D01*
X155526561Y-124055069D01*
X155531998Y-124057160D01*
X155534875Y-124058880D01*
X155535748Y-124060509D01*
X155535641Y-124061269D01*
X155535103Y-124063812D01*
X155534047Y-124069352D01*
X155532595Y-124077211D01*
X155530868Y-124086711D01*
X155528986Y-124097174D01*
X155527071Y-124107921D01*
X155525243Y-124118274D01*
X155523624Y-124127554D01*
X155522334Y-124135083D01*
X155521495Y-124140184D01*
X155521224Y-124142146D01*
X155519376Y-124142287D01*
X155514025Y-124142437D01*
X155505459Y-124142593D01*
X155493965Y-124142751D01*
X155479832Y-124142910D01*
X155463346Y-124143065D01*
X155444796Y-124143215D01*
X155424470Y-124143355D01*
X155402655Y-124143484D01*
X155379639Y-124143599D01*
X155373847Y-124143624D01*
X155345370Y-124143749D01*
X155320389Y-124143876D01*
X155298611Y-124144024D01*
X155279741Y-124144212D01*
X155263484Y-124144461D01*
X155249547Y-124144788D01*
X155237635Y-124145214D01*
X155227453Y-124145757D01*
X155218708Y-124146438D01*
X155211105Y-124147275D01*
X155204349Y-124148288D01*
X155198147Y-124149495D01*
X155192203Y-124150917D01*
X155186225Y-124152572D01*
X155179917Y-124154480D01*
X155172984Y-124156660D01*
X155172448Y-124156830D01*
X155147004Y-124166187D01*
X155124416Y-124177383D01*
X155104032Y-124190806D01*
X155085205Y-124206846D01*
X155079345Y-124212655D01*
X155060784Y-124234371D01*
X155044756Y-124258740D01*
X155031357Y-124285513D01*
X155020684Y-124314438D01*
X155012834Y-124345265D01*
X155007903Y-124377741D01*
X155006203Y-124402349D01*
X155006015Y-124424774D01*
X155007304Y-124444367D01*
X155010287Y-124461874D01*
X155015181Y-124478038D01*
X155022202Y-124493603D01*
X155031568Y-124509315D01*
X155041442Y-124523217D01*
X155050826Y-124535010D01*
X155060811Y-124546156D01*
X155071684Y-124556852D01*
X155083733Y-124567294D01*
X155097248Y-124577680D01*
X155112515Y-124588206D01*
X155129823Y-124599068D01*
X155149461Y-124610464D01*
X155171717Y-124622591D01*
X155196878Y-124635644D01*
X155225234Y-124649821D01*
X155231209Y-124652757D01*
X155252144Y-124663280D01*
X155270277Y-124673026D01*
X155286381Y-124682481D01*
X155301227Y-124692135D01*
X155315588Y-124702476D01*
X155330235Y-124713992D01*
X155337358Y-124719882D01*
X155356863Y-124737243D01*
X155373426Y-124754351D01*
X155387732Y-124772052D01*
X155400467Y-124791192D01*
X155411978Y-124811954D01*
X155421768Y-124832780D01*
X155429219Y-124852755D01*
X155434546Y-124872816D01*
X155437963Y-124893902D01*
X155439684Y-124916951D01*
X155439996Y-124934545D01*
X155438530Y-124971691D01*
X155434134Y-125009146D01*
X155429456Y-125035145D01*
X155419973Y-125076504D01*
X155409004Y-125114497D01*
X155396435Y-125149292D01*
X155382151Y-125181058D01*
X155366039Y-125209962D01*
X155347984Y-125236174D01*
X155327872Y-125259860D01*
X155305589Y-125281190D01*
X155281022Y-125300332D01*
X155254056Y-125317453D01*
X155229065Y-125330590D01*
X155203394Y-125342064D01*
X155177361Y-125351818D01*
X155150341Y-125360014D01*
X155121708Y-125366815D01*
X155090836Y-125372383D01*
X155057100Y-125376879D01*
X155045448Y-125378133D01*
X155036347Y-125378875D01*
X155024288Y-125379582D01*
X155009931Y-125380237D01*
X154993936Y-125380825D01*
X154976963Y-125381332D01*
X154959671Y-125381742D01*
X154942721Y-125382040D01*
X154926772Y-125382210D01*
X154912483Y-125382238D01*
X154900516Y-125382109D01*
X154891530Y-125381806D01*
X154890015Y-125381715D01*
X154864282Y-125379876D01*
X154841585Y-125378012D01*
X154821168Y-125376033D01*
X154802274Y-125373848D01*
X154784150Y-125371368D01*
X154766039Y-125368503D01*
X154747186Y-125365162D01*
X154740268Y-125363864D01*
X154728772Y-125361552D01*
X154716728Y-125358913D01*
X154704758Y-125356107D01*
X154693483Y-125353292D01*
X154683522Y-125350628D01*
X154675497Y-125348274D01*
X154670029Y-125346390D01*
X154667840Y-125345264D01*
X154667832Y-125343183D01*
X154668397Y-125338025D01*
X154669430Y-125330440D01*
X154670828Y-125321080D01*
X154672484Y-125310597D01*
X154674295Y-125299643D01*
X154676156Y-125288870D01*
X154677962Y-125278929D01*
X154679609Y-125270472D01*
X154680561Y-125266004D01*
X154681471Y-125261956D01*
X154830761Y-125260943D01*
X154860515Y-125260730D01*
X154886787Y-125260511D01*
X154909885Y-125260269D01*
X154930119Y-125259988D01*
X154947797Y-125259651D01*
X154963228Y-125259243D01*
X154976721Y-125258746D01*
X154988585Y-125258145D01*
X154999128Y-125257424D01*
X155008660Y-125256566D01*
X155017490Y-125255555D01*
X155025925Y-125254375D01*
X155034276Y-125253010D01*
X155042850Y-125251443D01*
X155051957Y-125249658D01*
X155054296Y-125249187D01*
X155085056Y-125241748D01*
X155112666Y-125232455D01*
X155137333Y-125221207D01*
X155159267Y-125207905D01*
X155178677Y-125192450D01*
X155183950Y-125187466D01*
X155201455Y-125168402D01*
X155216753Y-125147651D01*
X155230007Y-125124874D01*
X155241380Y-125099732D01*
X155251036Y-125071885D01*
X155259138Y-125040995D01*
X155262787Y-125023635D01*
X155264452Y-125012399D01*
X155265589Y-124999127D01*
X155266199Y-124984734D01*
X155266282Y-124970134D01*
X155265839Y-124956240D01*
X155264869Y-124943968D01*
X155263374Y-124934230D01*
X155262757Y-124931702D01*
X155257441Y-124916159D01*
X155250140Y-124901161D01*
X155240457Y-124886051D01*
X155227997Y-124870170D01*
X155220855Y-124862016D01*
X155209508Y-124850682D01*
X155195326Y-124838732D01*
X155178194Y-124826093D01*
X155157998Y-124812693D01*
X155134623Y-124798458D01*
X155107955Y-124783316D01*
X155077881Y-124767195D01*
X155048291Y-124752031D01*
X155027037Y-124741153D01*
X155008664Y-124731313D01*
X154992538Y-124722129D01*
X154978025Y-124713221D01*
X154964490Y-124704207D01*
X154951299Y-124694708D01*
X154945426Y-124690264D01*
X154919947Y-124668644D01*
X154897750Y-124645287D01*
X154878609Y-124619893D01*
X154862298Y-124592163D01*
X154848702Y-124562075D01*
X154840971Y-124538039D01*
X154835556Y-124511296D01*
X154832454Y-124482140D01*
X154831664Y-124450866D01*
X154833184Y-124417768D01*
X154837012Y-124383138D01*
X154843146Y-124347272D01*
X154850266Y-124315657D01*
X154861623Y-124276293D01*
X154875301Y-124239897D01*
X154891345Y-124206403D01*
X154909801Y-124175746D01*
X154930716Y-124147862D01*
X154954134Y-124122684D01*
X154980102Y-124100148D01*
X155008666Y-124080188D01*
X155021286Y-124072650D01*
X155044558Y-124060896D01*
X155070839Y-124050328D01*
X155099481Y-124041135D01*
X155129836Y-124033501D01*
X155161256Y-124027614D01*
X155190455Y-124023910D01*
X155221337Y-124021678D01*
X155254311Y-124020711D01*
X155288734Y-124020954D01*
G36*
X155963834Y-124213773D02*
X155963351Y-124216283D01*
X155962298Y-124222077D01*
X155960747Y-124230755D01*
X155958766Y-124241916D01*
X155956425Y-124255163D01*
X155953795Y-124270094D01*
X155950944Y-124286310D01*
X155947944Y-124303412D01*
X155944864Y-124321001D01*
X155941774Y-124338676D01*
X155938743Y-124356038D01*
X155935842Y-124372687D01*
X155933141Y-124388225D01*
X155930708Y-124402251D01*
X155928616Y-124414366D01*
X155926932Y-124424170D01*
X155925727Y-124431264D01*
X155925071Y-124435248D01*
X155924970Y-124435972D01*
X155926815Y-124436141D01*
X155932147Y-124436314D01*
X155940662Y-124436488D01*
X155952057Y-124436660D01*
X155966028Y-124436826D01*
X155982270Y-124436983D01*
X156000481Y-124437128D01*
X156020356Y-124437257D01*
X156041591Y-124437367D01*
X156057202Y-124437432D01*
X156189435Y-124437918D01*
X156181987Y-124479944D01*
X156174540Y-124521970D01*
X156167751Y-124523813D01*
X156162931Y-124525124D01*
X156155669Y-124527102D01*
X156147179Y-124529417D01*
X156142795Y-124530612D01*
X156103835Y-124540056D01*
X156063166Y-124547701D01*
X156021928Y-124553390D01*
X155981260Y-124556969D01*
X155942302Y-124558281D01*
X155940339Y-124558284D01*
X155902525Y-124558284D01*
X155901423Y-124563497D01*
X155900469Y-124568371D01*
X155898948Y-124576625D01*
X155896904Y-124587991D01*
X155894383Y-124602203D01*
X155891431Y-124618994D01*
X155888093Y-124638097D01*
X155884415Y-124659246D01*
X155880442Y-124682174D01*
X155876220Y-124706614D01*
X155871795Y-124732300D01*
X155867211Y-124758965D01*
X155862515Y-124786342D01*
X155857752Y-124814165D01*
X155852968Y-124842167D01*
X155848207Y-124870081D01*
X155843516Y-124897641D01*
X155838941Y-124924579D01*
X155834526Y-124950630D01*
X155830317Y-124975527D01*
X155826360Y-124999002D01*
X155822700Y-125020790D01*
X155819383Y-125040624D01*
X155816454Y-125058236D01*
X155813959Y-125073360D01*
X155811944Y-125085731D01*
X155810453Y-125095080D01*
X155809534Y-125101141D01*
X155809257Y-125103247D01*
X155807650Y-125129963D01*
X155808425Y-125155065D01*
X155811502Y-125178310D01*
X155816805Y-125199458D01*
X155824255Y-125218265D01*
X155833774Y-125234492D01*
X155845284Y-125247896D01*
X155858706Y-125258236D01*
X155859600Y-125258771D01*
X155863695Y-125261082D01*
X155867734Y-125263044D01*
X155872060Y-125264687D01*
X155877016Y-125266045D01*
X155882946Y-125267149D01*
X155890191Y-125268031D01*
X155899096Y-125268723D01*
X155910004Y-125269257D01*
X155923258Y-125269664D01*
X155939200Y-125269977D01*
X155958175Y-125270227D01*
X155980524Y-125270446D01*
X155985729Y-125270492D01*
X156079660Y-125271303D01*
X156073450Y-125306609D01*
X156071459Y-125317805D01*
X156069647Y-125327761D01*
X156068130Y-125335857D01*
X156067024Y-125341470D01*
X156066447Y-125343982D01*
X156066442Y-125343995D01*
X156064325Y-125345424D01*
X156059185Y-125347559D01*
X156051681Y-125350197D01*
X156042472Y-125353136D01*
X156032214Y-125356173D01*
X156021566Y-125359105D01*
X156011187Y-125361729D01*
X156002686Y-125363645D01*
X155966034Y-125370635D01*
X155930862Y-125376022D01*
X155897541Y-125379773D01*
X155866443Y-125381855D01*
X155837940Y-125382233D01*
X155812404Y-125380875D01*
X155811571Y-125380796D01*
X155782001Y-125376812D01*
X155755550Y-125370845D01*
X155732075Y-125362842D01*
X155711432Y-125352748D01*
X155693476Y-125340510D01*
X155686044Y-125334113D01*
X155676942Y-125325032D01*
X155669556Y-125315957D01*
X155662956Y-125305615D01*
X155657047Y-125294429D01*
X155648278Y-125273745D01*
X155641630Y-125251224D01*
X155637082Y-125226638D01*
X155634613Y-125199758D01*
X155634204Y-125170356D01*
X155635834Y-125138204D01*
X155639483Y-125103073D01*
X155639798Y-125100610D01*
X155640466Y-125096090D01*
X155641745Y-125088074D01*
X155643593Y-125076799D01*
X155645971Y-125062506D01*
X155648838Y-125045431D01*
X155652154Y-125025814D01*
X155655877Y-125003893D01*
X155659968Y-124979906D01*
X155664385Y-124954092D01*
X155669089Y-124926690D01*
X155674039Y-124897937D01*
X155679193Y-124868072D01*
X155684512Y-124837334D01*
X155687139Y-124822187D01*
X155692461Y-124791486D01*
X155697601Y-124761781D01*
X155702522Y-124733289D01*
X155707187Y-124706228D01*
X155711559Y-124680815D01*
X155715601Y-124657267D01*
X155719275Y-124635803D01*
X155722544Y-124616639D01*
X155725370Y-124599993D01*
X155727718Y-124586084D01*
X155729549Y-124575127D01*
X155730827Y-124567342D01*
X155731514Y-124562945D01*
X155731627Y-124562026D01*
X155731506Y-124560957D01*
X155730876Y-124560113D01*
X155729335Y-124559468D01*
X155726482Y-124558996D01*
X155721914Y-124558670D01*
X155715230Y-124558462D01*
X155706028Y-124558346D01*
X155693907Y-124558296D01*
X155678465Y-124558284D01*
X155619349Y-124558284D01*
X155620348Y-124553071D01*
X155620936Y-124549921D01*
X155622108Y-124543557D01*
X155623771Y-124534499D01*
X155625830Y-124523262D01*
X155628190Y-124510363D01*
X155630756Y-124496320D01*
X155631469Y-124492415D01*
X155641589Y-124436971D01*
X155698485Y-124436971D01*
X155755380Y-124436970D01*
X155775224Y-124323239D01*
X155795067Y-124209508D01*
X155964848Y-124209508D01*
X155963834Y-124213773D01*
X155963834Y-124213773D01*
G37*
X155963834Y-124213773D02*
X155963351Y-124216283D01*
X155962298Y-124222077D01*
X155960747Y-124230755D01*
X155958766Y-124241916D01*
X155956425Y-124255163D01*
X155953795Y-124270094D01*
X155950944Y-124286310D01*
X155947944Y-124303412D01*
X155944864Y-124321001D01*
X155941774Y-124338676D01*
X155938743Y-124356038D01*
X155935842Y-124372687D01*
X155933141Y-124388225D01*
X155930708Y-124402251D01*
X155928616Y-124414366D01*
X155926932Y-124424170D01*
X155925727Y-124431264D01*
X155925071Y-124435248D01*
X155924970Y-124435972D01*
X155926815Y-124436141D01*
X155932147Y-124436314D01*
X155940662Y-124436488D01*
X155952057Y-124436660D01*
X155966028Y-124436826D01*
X155982270Y-124436983D01*
X156000481Y-124437128D01*
X156020356Y-124437257D01*
X156041591Y-124437367D01*
X156057202Y-124437432D01*
X156189435Y-124437918D01*
X156181987Y-124479944D01*
X156174540Y-124521970D01*
X156167751Y-124523813D01*
X156162931Y-124525124D01*
X156155669Y-124527102D01*
X156147179Y-124529417D01*
X156142795Y-124530612D01*
X156103835Y-124540056D01*
X156063166Y-124547701D01*
X156021928Y-124553390D01*
X155981260Y-124556969D01*
X155942302Y-124558281D01*
X155940339Y-124558284D01*
X155902525Y-124558284D01*
X155901423Y-124563497D01*
X155900469Y-124568371D01*
X155898948Y-124576625D01*
X155896904Y-124587991D01*
X155894383Y-124602203D01*
X155891431Y-124618994D01*
X155888093Y-124638097D01*
X155884415Y-124659246D01*
X155880442Y-124682174D01*
X155876220Y-124706614D01*
X155871795Y-124732300D01*
X155867211Y-124758965D01*
X155862515Y-124786342D01*
X155857752Y-124814165D01*
X155852968Y-124842167D01*
X155848207Y-124870081D01*
X155843516Y-124897641D01*
X155838941Y-124924579D01*
X155834526Y-124950630D01*
X155830317Y-124975527D01*
X155826360Y-124999002D01*
X155822700Y-125020790D01*
X155819383Y-125040624D01*
X155816454Y-125058236D01*
X155813959Y-125073360D01*
X155811944Y-125085731D01*
X155810453Y-125095080D01*
X155809534Y-125101141D01*
X155809257Y-125103247D01*
X155807650Y-125129963D01*
X155808425Y-125155065D01*
X155811502Y-125178310D01*
X155816805Y-125199458D01*
X155824255Y-125218265D01*
X155833774Y-125234492D01*
X155845284Y-125247896D01*
X155858706Y-125258236D01*
X155859600Y-125258771D01*
X155863695Y-125261082D01*
X155867734Y-125263044D01*
X155872060Y-125264687D01*
X155877016Y-125266045D01*
X155882946Y-125267149D01*
X155890191Y-125268031D01*
X155899096Y-125268723D01*
X155910004Y-125269257D01*
X155923258Y-125269664D01*
X155939200Y-125269977D01*
X155958175Y-125270227D01*
X155980524Y-125270446D01*
X155985729Y-125270492D01*
X156079660Y-125271303D01*
X156073450Y-125306609D01*
X156071459Y-125317805D01*
X156069647Y-125327761D01*
X156068130Y-125335857D01*
X156067024Y-125341470D01*
X156066447Y-125343982D01*
X156066442Y-125343995D01*
X156064325Y-125345424D01*
X156059185Y-125347559D01*
X156051681Y-125350197D01*
X156042472Y-125353136D01*
X156032214Y-125356173D01*
X156021566Y-125359105D01*
X156011187Y-125361729D01*
X156002686Y-125363645D01*
X155966034Y-125370635D01*
X155930862Y-125376022D01*
X155897541Y-125379773D01*
X155866443Y-125381855D01*
X155837940Y-125382233D01*
X155812404Y-125380875D01*
X155811571Y-125380796D01*
X155782001Y-125376812D01*
X155755550Y-125370845D01*
X155732075Y-125362842D01*
X155711432Y-125352748D01*
X155693476Y-125340510D01*
X155686044Y-125334113D01*
X155676942Y-125325032D01*
X155669556Y-125315957D01*
X155662956Y-125305615D01*
X155657047Y-125294429D01*
X155648278Y-125273745D01*
X155641630Y-125251224D01*
X155637082Y-125226638D01*
X155634613Y-125199758D01*
X155634204Y-125170356D01*
X155635834Y-125138204D01*
X155639483Y-125103073D01*
X155639798Y-125100610D01*
X155640466Y-125096090D01*
X155641745Y-125088074D01*
X155643593Y-125076799D01*
X155645971Y-125062506D01*
X155648838Y-125045431D01*
X155652154Y-125025814D01*
X155655877Y-125003893D01*
X155659968Y-124979906D01*
X155664385Y-124954092D01*
X155669089Y-124926690D01*
X155674039Y-124897937D01*
X155679193Y-124868072D01*
X155684512Y-124837334D01*
X155687139Y-124822187D01*
X155692461Y-124791486D01*
X155697601Y-124761781D01*
X155702522Y-124733289D01*
X155707187Y-124706228D01*
X155711559Y-124680815D01*
X155715601Y-124657267D01*
X155719275Y-124635803D01*
X155722544Y-124616639D01*
X155725370Y-124599993D01*
X155727718Y-124586084D01*
X155729549Y-124575127D01*
X155730827Y-124567342D01*
X155731514Y-124562945D01*
X155731627Y-124562026D01*
X155731506Y-124560957D01*
X155730876Y-124560113D01*
X155729335Y-124559468D01*
X155726482Y-124558996D01*
X155721914Y-124558670D01*
X155715230Y-124558462D01*
X155706028Y-124558346D01*
X155693907Y-124558296D01*
X155678465Y-124558284D01*
X155619349Y-124558284D01*
X155620348Y-124553071D01*
X155620936Y-124549921D01*
X155622108Y-124543557D01*
X155623771Y-124534499D01*
X155625830Y-124523262D01*
X155628190Y-124510363D01*
X155630756Y-124496320D01*
X155631469Y-124492415D01*
X155641589Y-124436971D01*
X155698485Y-124436971D01*
X155755380Y-124436970D01*
X155775224Y-124323239D01*
X155795067Y-124209508D01*
X155964848Y-124209508D01*
X155963834Y-124213773D01*
G36*
X156727524Y-124400320D02*
X156746762Y-124400863D01*
X156764461Y-124401708D01*
X156779861Y-124402855D01*
X156786485Y-124403544D01*
X156816211Y-124407623D01*
X156846505Y-124412905D01*
X156876652Y-124419213D01*
X156905936Y-124426371D01*
X156933641Y-124434203D01*
X156959053Y-124442532D01*
X156981455Y-124451184D01*
X156983296Y-124451971D01*
X156988622Y-124454470D01*
X156991161Y-124456532D01*
X156991684Y-124459034D01*
X156991345Y-124461136D01*
X156990922Y-124463456D01*
X156989875Y-124469347D01*
X156988234Y-124478642D01*
X156986027Y-124491179D01*
X156983283Y-124506792D01*
X156980030Y-124525316D01*
X156976299Y-124546588D01*
X156972116Y-124570442D01*
X156967513Y-124596714D01*
X156962516Y-124625239D01*
X156957155Y-124655853D01*
X156951460Y-124688391D01*
X156945458Y-124722689D01*
X156939178Y-124758582D01*
X156932650Y-124795906D01*
X156925902Y-124834495D01*
X156918963Y-124874186D01*
X156912554Y-124910851D01*
X156905470Y-124951382D01*
X156898551Y-124990953D01*
X156891826Y-125029400D01*
X156885325Y-125066559D01*
X156879075Y-125102266D01*
X156873107Y-125136356D01*
X156867447Y-125168666D01*
X156862127Y-125199032D01*
X156857173Y-125227289D01*
X156852615Y-125253273D01*
X156848482Y-125276821D01*
X156844802Y-125297767D01*
X156841604Y-125315949D01*
X156838917Y-125331201D01*
X156836770Y-125343360D01*
X156835192Y-125352262D01*
X156834210Y-125357742D01*
X156833861Y-125359616D01*
X156832853Y-125363881D01*
X156692656Y-125363881D01*
X156692656Y-125307015D01*
X156687833Y-125307015D01*
X156683979Y-125308190D01*
X156677749Y-125311517D01*
X156669661Y-125316702D01*
X156664612Y-125320235D01*
X156635103Y-125339134D01*
X156603905Y-125354685D01*
X156571186Y-125366845D01*
X156537118Y-125375570D01*
X156501869Y-125380818D01*
X156465608Y-125382544D01*
X156428740Y-125380727D01*
X156400315Y-125376786D01*
X156373795Y-125370689D01*
X156349529Y-125362561D01*
X156327864Y-125352527D01*
X156309149Y-125340711D01*
X156302806Y-125335715D01*
X156286592Y-125320369D01*
X156272427Y-125303176D01*
X156260202Y-125283887D01*
X156249811Y-125262251D01*
X156241147Y-125238016D01*
X156234102Y-125210932D01*
X156228570Y-125180748D01*
X156225117Y-125153791D01*
X156223242Y-125127692D01*
X156222822Y-125098380D01*
X156223050Y-125091057D01*
X156395043Y-125091057D01*
X156396883Y-125121671D01*
X156400590Y-125149340D01*
X156406160Y-125173959D01*
X156413589Y-125195426D01*
X156418270Y-125205476D01*
X156426366Y-125218602D01*
X156436563Y-125231160D01*
X156447986Y-125242238D01*
X156459756Y-125250924D01*
X156464556Y-125253621D01*
X156482404Y-125260846D01*
X156502856Y-125265983D01*
X156525309Y-125268964D01*
X156549160Y-125269721D01*
X156573807Y-125268188D01*
X156583664Y-125266931D01*
X156613173Y-125260945D01*
X156642912Y-125251705D01*
X156668217Y-125241239D01*
X156686426Y-125232774D01*
X156692499Y-125198339D01*
X156693484Y-125192758D01*
X156695089Y-125183661D01*
X156697277Y-125171265D01*
X156700008Y-125155787D01*
X156703246Y-125137444D01*
X156706951Y-125116453D01*
X156711086Y-125093031D01*
X156715611Y-125067394D01*
X156720489Y-125039761D01*
X156725681Y-125010348D01*
X156731149Y-124979373D01*
X156736855Y-124947051D01*
X156742760Y-124913601D01*
X156748826Y-124879239D01*
X156755014Y-124844183D01*
X156755961Y-124838821D01*
X156762056Y-124804263D01*
X156767963Y-124770709D01*
X156773648Y-124738350D01*
X156779080Y-124707376D01*
X156784224Y-124677978D01*
X156789047Y-124650347D01*
X156793517Y-124624672D01*
X156797601Y-124601144D01*
X156801265Y-124579954D01*
X156804477Y-124561291D01*
X156807203Y-124545347D01*
X156809411Y-124532312D01*
X156811067Y-124522377D01*
X156812138Y-124515731D01*
X156812591Y-124512565D01*
X156812600Y-124512317D01*
X156810546Y-124511901D01*
X156805193Y-124511561D01*
X156797031Y-124511296D01*
X156786552Y-124511105D01*
X156774245Y-124510986D01*
X156760601Y-124510937D01*
X156746112Y-124510957D01*
X156731268Y-124511043D01*
X156716559Y-124511195D01*
X156702477Y-124511409D01*
X156689513Y-124511685D01*
X156678156Y-124512022D01*
X156668899Y-124512416D01*
X156662511Y-124512841D01*
X156636760Y-124516282D01*
X156613686Y-124521946D01*
X156592724Y-124530086D01*
X156573312Y-124540958D01*
X156554885Y-124554815D01*
X156540996Y-124567698D01*
X156532481Y-124576759D01*
X156523690Y-124586997D01*
X156515744Y-124597066D01*
X156510960Y-124603776D01*
X156504660Y-124613922D01*
X156497416Y-124626736D01*
X156489661Y-124641351D01*
X156481827Y-124656902D01*
X156474345Y-124672524D01*
X156467647Y-124687351D01*
X156462165Y-124700517D01*
X156460424Y-124705084D01*
X156451551Y-124731288D01*
X156442874Y-124761147D01*
X156434424Y-124794529D01*
X156426232Y-124831301D01*
X156418326Y-124871332D01*
X156410738Y-124914489D01*
X156406451Y-124941179D01*
X156400774Y-124982556D01*
X156396984Y-125021397D01*
X156395075Y-125057598D01*
X156395043Y-125091057D01*
X156223050Y-125091057D01*
X156223827Y-125066128D01*
X156226230Y-125031214D01*
X156229999Y-124993911D01*
X156235106Y-124954494D01*
X156241523Y-124913238D01*
X156249218Y-124870419D01*
X156258164Y-124826311D01*
X156261637Y-124810388D01*
X156273713Y-124760613D01*
X156287050Y-124714391D01*
X156301661Y-124671697D01*
X156317558Y-124632506D01*
X156334754Y-124596791D01*
X156353260Y-124564528D01*
X156373089Y-124535691D01*
X156394254Y-124510253D01*
X156416361Y-124488546D01*
X156439202Y-124470023D01*
X156463095Y-124453959D01*
X156488430Y-124440194D01*
X156515599Y-124428564D01*
X156544992Y-124418910D01*
X156576999Y-124411069D01*
X156612011Y-124404880D01*
X156622323Y-124403432D01*
X156634841Y-124402153D01*
X156650378Y-124401178D01*
X156668175Y-124400508D01*
X156687471Y-124400142D01*
X156707507Y-124400079D01*
X156727524Y-124400320D01*
X156727524Y-124400320D01*
G37*
X156727524Y-124400320D02*
X156746762Y-124400863D01*
X156764461Y-124401708D01*
X156779861Y-124402855D01*
X156786485Y-124403544D01*
X156816211Y-124407623D01*
X156846505Y-124412905D01*
X156876652Y-124419213D01*
X156905936Y-124426371D01*
X156933641Y-124434203D01*
X156959053Y-124442532D01*
X156981455Y-124451184D01*
X156983296Y-124451971D01*
X156988622Y-124454470D01*
X156991161Y-124456532D01*
X156991684Y-124459034D01*
X156991345Y-124461136D01*
X156990922Y-124463456D01*
X156989875Y-124469347D01*
X156988234Y-124478642D01*
X156986027Y-124491179D01*
X156983283Y-124506792D01*
X156980030Y-124525316D01*
X156976299Y-124546588D01*
X156972116Y-124570442D01*
X156967513Y-124596714D01*
X156962516Y-124625239D01*
X156957155Y-124655853D01*
X156951460Y-124688391D01*
X156945458Y-124722689D01*
X156939178Y-124758582D01*
X156932650Y-124795906D01*
X156925902Y-124834495D01*
X156918963Y-124874186D01*
X156912554Y-124910851D01*
X156905470Y-124951382D01*
X156898551Y-124990953D01*
X156891826Y-125029400D01*
X156885325Y-125066559D01*
X156879075Y-125102266D01*
X156873107Y-125136356D01*
X156867447Y-125168666D01*
X156862127Y-125199032D01*
X156857173Y-125227289D01*
X156852615Y-125253273D01*
X156848482Y-125276821D01*
X156844802Y-125297767D01*
X156841604Y-125315949D01*
X156838917Y-125331201D01*
X156836770Y-125343360D01*
X156835192Y-125352262D01*
X156834210Y-125357742D01*
X156833861Y-125359616D01*
X156832853Y-125363881D01*
X156692656Y-125363881D01*
X156692656Y-125307015D01*
X156687833Y-125307015D01*
X156683979Y-125308190D01*
X156677749Y-125311517D01*
X156669661Y-125316702D01*
X156664612Y-125320235D01*
X156635103Y-125339134D01*
X156603905Y-125354685D01*
X156571186Y-125366845D01*
X156537118Y-125375570D01*
X156501869Y-125380818D01*
X156465608Y-125382544D01*
X156428740Y-125380727D01*
X156400315Y-125376786D01*
X156373795Y-125370689D01*
X156349529Y-125362561D01*
X156327864Y-125352527D01*
X156309149Y-125340711D01*
X156302806Y-125335715D01*
X156286592Y-125320369D01*
X156272427Y-125303176D01*
X156260202Y-125283887D01*
X156249811Y-125262251D01*
X156241147Y-125238016D01*
X156234102Y-125210932D01*
X156228570Y-125180748D01*
X156225117Y-125153791D01*
X156223242Y-125127692D01*
X156222822Y-125098380D01*
X156223050Y-125091057D01*
X156395043Y-125091057D01*
X156396883Y-125121671D01*
X156400590Y-125149340D01*
X156406160Y-125173959D01*
X156413589Y-125195426D01*
X156418270Y-125205476D01*
X156426366Y-125218602D01*
X156436563Y-125231160D01*
X156447986Y-125242238D01*
X156459756Y-125250924D01*
X156464556Y-125253621D01*
X156482404Y-125260846D01*
X156502856Y-125265983D01*
X156525309Y-125268964D01*
X156549160Y-125269721D01*
X156573807Y-125268188D01*
X156583664Y-125266931D01*
X156613173Y-125260945D01*
X156642912Y-125251705D01*
X156668217Y-125241239D01*
X156686426Y-125232774D01*
X156692499Y-125198339D01*
X156693484Y-125192758D01*
X156695089Y-125183661D01*
X156697277Y-125171265D01*
X156700008Y-125155787D01*
X156703246Y-125137444D01*
X156706951Y-125116453D01*
X156711086Y-125093031D01*
X156715611Y-125067394D01*
X156720489Y-125039761D01*
X156725681Y-125010348D01*
X156731149Y-124979373D01*
X156736855Y-124947051D01*
X156742760Y-124913601D01*
X156748826Y-124879239D01*
X156755014Y-124844183D01*
X156755961Y-124838821D01*
X156762056Y-124804263D01*
X156767963Y-124770709D01*
X156773648Y-124738350D01*
X156779080Y-124707376D01*
X156784224Y-124677978D01*
X156789047Y-124650347D01*
X156793517Y-124624672D01*
X156797601Y-124601144D01*
X156801265Y-124579954D01*
X156804477Y-124561291D01*
X156807203Y-124545347D01*
X156809411Y-124532312D01*
X156811067Y-124522377D01*
X156812138Y-124515731D01*
X156812591Y-124512565D01*
X156812600Y-124512317D01*
X156810546Y-124511901D01*
X156805193Y-124511561D01*
X156797031Y-124511296D01*
X156786552Y-124511105D01*
X156774245Y-124510986D01*
X156760601Y-124510937D01*
X156746112Y-124510957D01*
X156731268Y-124511043D01*
X156716559Y-124511195D01*
X156702477Y-124511409D01*
X156689513Y-124511685D01*
X156678156Y-124512022D01*
X156668899Y-124512416D01*
X156662511Y-124512841D01*
X156636760Y-124516282D01*
X156613686Y-124521946D01*
X156592724Y-124530086D01*
X156573312Y-124540958D01*
X156554885Y-124554815D01*
X156540996Y-124567698D01*
X156532481Y-124576759D01*
X156523690Y-124586997D01*
X156515744Y-124597066D01*
X156510960Y-124603776D01*
X156504660Y-124613922D01*
X156497416Y-124626736D01*
X156489661Y-124641351D01*
X156481827Y-124656902D01*
X156474345Y-124672524D01*
X156467647Y-124687351D01*
X156462165Y-124700517D01*
X156460424Y-124705084D01*
X156451551Y-124731288D01*
X156442874Y-124761147D01*
X156434424Y-124794529D01*
X156426232Y-124831301D01*
X156418326Y-124871332D01*
X156410738Y-124914489D01*
X156406451Y-124941179D01*
X156400774Y-124982556D01*
X156396984Y-125021397D01*
X156395075Y-125057598D01*
X156395043Y-125091057D01*
X156223050Y-125091057D01*
X156223827Y-125066128D01*
X156226230Y-125031214D01*
X156229999Y-124993911D01*
X156235106Y-124954494D01*
X156241523Y-124913238D01*
X156249218Y-124870419D01*
X156258164Y-124826311D01*
X156261637Y-124810388D01*
X156273713Y-124760613D01*
X156287050Y-124714391D01*
X156301661Y-124671697D01*
X156317558Y-124632506D01*
X156334754Y-124596791D01*
X156353260Y-124564528D01*
X156373089Y-124535691D01*
X156394254Y-124510253D01*
X156416361Y-124488546D01*
X156439202Y-124470023D01*
X156463095Y-124453959D01*
X156488430Y-124440194D01*
X156515599Y-124428564D01*
X156544992Y-124418910D01*
X156576999Y-124411069D01*
X156612011Y-124404880D01*
X156622323Y-124403432D01*
X156634841Y-124402153D01*
X156650378Y-124401178D01*
X156668175Y-124400508D01*
X156687471Y-124400142D01*
X156707507Y-124400079D01*
X156727524Y-124400320D01*
G36*
X157571984Y-124400278D02*
X157589647Y-124400658D01*
X157606186Y-124401308D01*
X157620784Y-124402223D01*
X157632625Y-124403397D01*
X157633260Y-124403480D01*
X157652477Y-124406260D01*
X157672783Y-124409617D01*
X157692970Y-124413330D01*
X157711829Y-124417175D01*
X157728153Y-124420930D01*
X157728559Y-124421031D01*
X157738916Y-124423732D01*
X157749420Y-124426679D01*
X157759359Y-124429650D01*
X157768024Y-124432422D01*
X157774706Y-124434774D01*
X157778695Y-124436484D01*
X157779354Y-124436916D01*
X157779515Y-124439124D01*
X157779073Y-124444468D01*
X157778101Y-124452352D01*
X157776673Y-124462182D01*
X157774864Y-124473364D01*
X157774655Y-124474591D01*
X157768445Y-124510896D01*
X157676473Y-124510912D01*
X157657077Y-124510955D01*
X157637961Y-124511072D01*
X157619637Y-124511253D01*
X157602619Y-124511492D01*
X157587421Y-124511779D01*
X157574557Y-124512107D01*
X157564540Y-124512468D01*
X157558716Y-124512788D01*
X157528980Y-124516362D01*
X157501756Y-124522677D01*
X157476824Y-124531852D01*
X157453963Y-124544002D01*
X157432952Y-124559242D01*
X157413570Y-124577689D01*
X157396844Y-124597782D01*
X157383160Y-124617428D01*
X157370449Y-124638691D01*
X157358631Y-124661807D01*
X157347624Y-124687010D01*
X157337350Y-124714538D01*
X157327728Y-124744624D01*
X157318677Y-124777506D01*
X157310119Y-124813418D01*
X157301972Y-124852596D01*
X157294157Y-124895276D01*
X157292650Y-124904111D01*
X157287885Y-124933151D01*
X157283944Y-124959001D01*
X157280779Y-124982161D01*
X157278341Y-125003132D01*
X157276582Y-125022413D01*
X157275455Y-125040505D01*
X157274912Y-125057907D01*
X157274904Y-125075120D01*
X157275155Y-125086187D01*
X157276756Y-125114275D01*
X157279779Y-125139123D01*
X157284319Y-125161041D01*
X157290469Y-125180342D01*
X157298325Y-125197337D01*
X157307980Y-125212335D01*
X157316601Y-125222612D01*
X157328915Y-125234596D01*
X157341481Y-125244150D01*
X157355124Y-125251711D01*
X157370669Y-125257721D01*
X157388942Y-125262617D01*
X157393755Y-125263660D01*
X157402162Y-125265214D01*
X157411612Y-125266549D01*
X157422413Y-125267679D01*
X157434871Y-125268616D01*
X157449291Y-125269374D01*
X157465980Y-125269967D01*
X157485243Y-125270408D01*
X157507388Y-125270710D01*
X157532719Y-125270886D01*
X157560569Y-125270951D01*
X157652265Y-125271000D01*
X157651279Y-125276213D01*
X157650640Y-125279788D01*
X157649500Y-125286353D01*
X157647988Y-125295162D01*
X157646231Y-125305466D01*
X157644927Y-125313164D01*
X157639559Y-125344902D01*
X157628141Y-125348672D01*
X157614606Y-125352720D01*
X157598051Y-125356989D01*
X157579229Y-125361328D01*
X157558895Y-125365583D01*
X157537800Y-125369602D01*
X157516699Y-125373233D01*
X157496344Y-125376324D01*
X157482142Y-125378182D01*
X157473145Y-125379051D01*
X157461470Y-125379860D01*
X157447880Y-125380588D01*
X157433135Y-125381210D01*
X157417999Y-125381703D01*
X157403231Y-125382045D01*
X157389595Y-125382212D01*
X157377852Y-125382181D01*
X157368764Y-125381930D01*
X157365567Y-125381723D01*
X157334737Y-125378664D01*
X157307288Y-125374937D01*
X157282847Y-125370417D01*
X157261042Y-125364975D01*
X157241500Y-125358486D01*
X157223851Y-125350822D01*
X157207721Y-125341857D01*
X157192738Y-125331463D01*
X157178530Y-125319514D01*
X157175905Y-125317074D01*
X157160309Y-125300525D01*
X157146846Y-125282192D01*
X157135372Y-125261756D01*
X157125740Y-125238897D01*
X157117807Y-125213293D01*
X157111428Y-125184625D01*
X157108713Y-125168642D01*
X157107003Y-125154487D01*
X157105709Y-125137396D01*
X157104844Y-125118204D01*
X157104419Y-125097745D01*
X157104447Y-125076852D01*
X157104940Y-125056361D01*
X157105911Y-125037105D01*
X157106645Y-125027426D01*
X157110138Y-124993396D01*
X157114890Y-124956786D01*
X157120737Y-124918528D01*
X157127516Y-124879556D01*
X157135061Y-124840801D01*
X157143211Y-124803198D01*
X157151800Y-124767680D01*
X157153256Y-124762053D01*
X157166860Y-124714570D01*
X157181938Y-124670573D01*
X157198494Y-124630053D01*
X157216534Y-124593000D01*
X157236066Y-124559404D01*
X157257094Y-124529257D01*
X157279624Y-124502548D01*
X157303662Y-124479269D01*
X157329214Y-124459408D01*
X157346605Y-124448347D01*
X157369025Y-124436800D01*
X157394527Y-124426439D01*
X157422541Y-124417440D01*
X157452494Y-124409979D01*
X157483816Y-124404231D01*
X157495410Y-124402603D01*
X157506435Y-124401557D01*
X157520423Y-124400807D01*
X157536554Y-124400347D01*
X157554014Y-124400172D01*
X157571984Y-124400278D01*
X157571984Y-124400278D01*
G37*
X157571984Y-124400278D02*
X157589647Y-124400658D01*
X157606186Y-124401308D01*
X157620784Y-124402223D01*
X157632625Y-124403397D01*
X157633260Y-124403480D01*
X157652477Y-124406260D01*
X157672783Y-124409617D01*
X157692970Y-124413330D01*
X157711829Y-124417175D01*
X157728153Y-124420930D01*
X157728559Y-124421031D01*
X157738916Y-124423732D01*
X157749420Y-124426679D01*
X157759359Y-124429650D01*
X157768024Y-124432422D01*
X157774706Y-124434774D01*
X157778695Y-124436484D01*
X157779354Y-124436916D01*
X157779515Y-124439124D01*
X157779073Y-124444468D01*
X157778101Y-124452352D01*
X157776673Y-124462182D01*
X157774864Y-124473364D01*
X157774655Y-124474591D01*
X157768445Y-124510896D01*
X157676473Y-124510912D01*
X157657077Y-124510955D01*
X157637961Y-124511072D01*
X157619637Y-124511253D01*
X157602619Y-124511492D01*
X157587421Y-124511779D01*
X157574557Y-124512107D01*
X157564540Y-124512468D01*
X157558716Y-124512788D01*
X157528980Y-124516362D01*
X157501756Y-124522677D01*
X157476824Y-124531852D01*
X157453963Y-124544002D01*
X157432952Y-124559242D01*
X157413570Y-124577689D01*
X157396844Y-124597782D01*
X157383160Y-124617428D01*
X157370449Y-124638691D01*
X157358631Y-124661807D01*
X157347624Y-124687010D01*
X157337350Y-124714538D01*
X157327728Y-124744624D01*
X157318677Y-124777506D01*
X157310119Y-124813418D01*
X157301972Y-124852596D01*
X157294157Y-124895276D01*
X157292650Y-124904111D01*
X157287885Y-124933151D01*
X157283944Y-124959001D01*
X157280779Y-124982161D01*
X157278341Y-125003132D01*
X157276582Y-125022413D01*
X157275455Y-125040505D01*
X157274912Y-125057907D01*
X157274904Y-125075120D01*
X157275155Y-125086187D01*
X157276756Y-125114275D01*
X157279779Y-125139123D01*
X157284319Y-125161041D01*
X157290469Y-125180342D01*
X157298325Y-125197337D01*
X157307980Y-125212335D01*
X157316601Y-125222612D01*
X157328915Y-125234596D01*
X157341481Y-125244150D01*
X157355124Y-125251711D01*
X157370669Y-125257721D01*
X157388942Y-125262617D01*
X157393755Y-125263660D01*
X157402162Y-125265214D01*
X157411612Y-125266549D01*
X157422413Y-125267679D01*
X157434871Y-125268616D01*
X157449291Y-125269374D01*
X157465980Y-125269967D01*
X157485243Y-125270408D01*
X157507388Y-125270710D01*
X157532719Y-125270886D01*
X157560569Y-125270951D01*
X157652265Y-125271000D01*
X157651279Y-125276213D01*
X157650640Y-125279788D01*
X157649500Y-125286353D01*
X157647988Y-125295162D01*
X157646231Y-125305466D01*
X157644927Y-125313164D01*
X157639559Y-125344902D01*
X157628141Y-125348672D01*
X157614606Y-125352720D01*
X157598051Y-125356989D01*
X157579229Y-125361328D01*
X157558895Y-125365583D01*
X157537800Y-125369602D01*
X157516699Y-125373233D01*
X157496344Y-125376324D01*
X157482142Y-125378182D01*
X157473145Y-125379051D01*
X157461470Y-125379860D01*
X157447880Y-125380588D01*
X157433135Y-125381210D01*
X157417999Y-125381703D01*
X157403231Y-125382045D01*
X157389595Y-125382212D01*
X157377852Y-125382181D01*
X157368764Y-125381930D01*
X157365567Y-125381723D01*
X157334737Y-125378664D01*
X157307288Y-125374937D01*
X157282847Y-125370417D01*
X157261042Y-125364975D01*
X157241500Y-125358486D01*
X157223851Y-125350822D01*
X157207721Y-125341857D01*
X157192738Y-125331463D01*
X157178530Y-125319514D01*
X157175905Y-125317074D01*
X157160309Y-125300525D01*
X157146846Y-125282192D01*
X157135372Y-125261756D01*
X157125740Y-125238897D01*
X157117807Y-125213293D01*
X157111428Y-125184625D01*
X157108713Y-125168642D01*
X157107003Y-125154487D01*
X157105709Y-125137396D01*
X157104844Y-125118204D01*
X157104419Y-125097745D01*
X157104447Y-125076852D01*
X157104940Y-125056361D01*
X157105911Y-125037105D01*
X157106645Y-125027426D01*
X157110138Y-124993396D01*
X157114890Y-124956786D01*
X157120737Y-124918528D01*
X157127516Y-124879556D01*
X157135061Y-124840801D01*
X157143211Y-124803198D01*
X157151800Y-124767680D01*
X157153256Y-124762053D01*
X157166860Y-124714570D01*
X157181938Y-124670573D01*
X157198494Y-124630053D01*
X157216534Y-124593000D01*
X157236066Y-124559404D01*
X157257094Y-124529257D01*
X157279624Y-124502548D01*
X157303662Y-124479269D01*
X157329214Y-124459408D01*
X157346605Y-124448347D01*
X157369025Y-124436800D01*
X157394527Y-124426439D01*
X157422541Y-124417440D01*
X157452494Y-124409979D01*
X157483816Y-124404231D01*
X157495410Y-124402603D01*
X157506435Y-124401557D01*
X157520423Y-124400807D01*
X157536554Y-124400347D01*
X157554014Y-124400172D01*
X157571984Y-124400278D01*
G36*
X151475429Y-124044123D02*
X151474857Y-124047264D01*
X151473747Y-124053632D01*
X151472186Y-124062718D01*
X151470262Y-124074010D01*
X151468061Y-124086997D01*
X151465671Y-124101169D01*
X151464825Y-124106202D01*
X151462398Y-124120605D01*
X151460134Y-124133947D01*
X151458121Y-124145729D01*
X151456444Y-124155451D01*
X151455190Y-124162611D01*
X151454443Y-124166709D01*
X151454316Y-124167332D01*
X151453360Y-124171597D01*
X150980337Y-124171597D01*
X150939145Y-124401429D01*
X150933950Y-124430435D01*
X150928945Y-124458420D01*
X150924171Y-124485156D01*
X150919668Y-124510415D01*
X150915476Y-124533969D01*
X150911636Y-124555590D01*
X150908189Y-124575049D01*
X150905174Y-124592119D01*
X150902632Y-124606571D01*
X150900604Y-124618178D01*
X150899129Y-124626710D01*
X150898249Y-124631940D01*
X150897999Y-124633631D01*
X150898703Y-124634024D01*
X150900922Y-124634375D01*
X150904836Y-124634684D01*
X150910627Y-124634954D01*
X150918475Y-124635188D01*
X150928563Y-124635387D01*
X150941070Y-124635554D01*
X150956179Y-124635691D01*
X150974070Y-124635800D01*
X150994926Y-124635883D01*
X151018926Y-124635942D01*
X151046252Y-124635979D01*
X151077086Y-124635998D01*
X151096127Y-124636000D01*
X151129011Y-124636009D01*
X151158286Y-124636035D01*
X151184132Y-124636082D01*
X151206730Y-124636151D01*
X151226263Y-124636244D01*
X151242910Y-124636364D01*
X151256853Y-124636514D01*
X151268274Y-124636694D01*
X151277354Y-124636908D01*
X151284273Y-124637156D01*
X151289214Y-124637443D01*
X151292356Y-124637769D01*
X151293883Y-124638137D01*
X151294098Y-124638370D01*
X151293758Y-124640745D01*
X151292841Y-124646401D01*
X151291424Y-124654883D01*
X151289586Y-124665738D01*
X151287401Y-124678511D01*
X151284948Y-124692748D01*
X151283120Y-124703291D01*
X151272252Y-124765844D01*
X151073333Y-124766791D01*
X150874414Y-124767739D01*
X150834219Y-124998045D01*
X150828887Y-125028597D01*
X150823561Y-125059115D01*
X150818297Y-125089275D01*
X150813151Y-125118756D01*
X150808181Y-125147235D01*
X150803441Y-125174390D01*
X150798989Y-125199897D01*
X150794881Y-125223436D01*
X150791172Y-125244682D01*
X150787920Y-125263314D01*
X150785180Y-125279010D01*
X150783009Y-125291447D01*
X150782194Y-125296116D01*
X150770364Y-125363881D01*
X150600903Y-125363881D01*
X150603444Y-125350138D01*
X150603962Y-125347241D01*
X150605111Y-125340748D01*
X150606866Y-125330797D01*
X150609203Y-125317529D01*
X150612098Y-125301080D01*
X150615526Y-125281589D01*
X150619463Y-125259196D01*
X150623885Y-125234038D01*
X150628767Y-125206254D01*
X150634085Y-125175982D01*
X150639815Y-125143361D01*
X150645932Y-125108530D01*
X150652412Y-125071626D01*
X150659231Y-125032789D01*
X150666364Y-124992157D01*
X150673788Y-124949868D01*
X150681477Y-124906061D01*
X150689407Y-124860874D01*
X150697555Y-124814447D01*
X150705895Y-124766916D01*
X150714404Y-124718422D01*
X150718887Y-124692866D01*
X150727457Y-124644021D01*
X150735864Y-124596113D01*
X150744082Y-124549278D01*
X150752090Y-124503652D01*
X150759862Y-124459372D01*
X150767375Y-124416573D01*
X150774604Y-124375392D01*
X150781527Y-124335964D01*
X150788118Y-124298427D01*
X150794355Y-124262915D01*
X150800213Y-124229564D01*
X150805668Y-124198512D01*
X150810697Y-124169894D01*
X150815275Y-124143846D01*
X150819379Y-124120505D01*
X150822984Y-124100006D01*
X150826068Y-124082485D01*
X150828605Y-124068079D01*
X150830572Y-124056923D01*
X150831945Y-124049154D01*
X150832701Y-124044908D01*
X150832844Y-124044123D01*
X150833898Y-124038911D01*
X151476480Y-124038911D01*
X151475429Y-124044123D01*
X151475429Y-124044123D01*
G37*
X151475429Y-124044123D02*
X151474857Y-124047264D01*
X151473747Y-124053632D01*
X151472186Y-124062718D01*
X151470262Y-124074010D01*
X151468061Y-124086997D01*
X151465671Y-124101169D01*
X151464825Y-124106202D01*
X151462398Y-124120605D01*
X151460134Y-124133947D01*
X151458121Y-124145729D01*
X151456444Y-124155451D01*
X151455190Y-124162611D01*
X151454443Y-124166709D01*
X151454316Y-124167332D01*
X151453360Y-124171597D01*
X150980337Y-124171597D01*
X150939145Y-124401429D01*
X150933950Y-124430435D01*
X150928945Y-124458420D01*
X150924171Y-124485156D01*
X150919668Y-124510415D01*
X150915476Y-124533969D01*
X150911636Y-124555590D01*
X150908189Y-124575049D01*
X150905174Y-124592119D01*
X150902632Y-124606571D01*
X150900604Y-124618178D01*
X150899129Y-124626710D01*
X150898249Y-124631940D01*
X150897999Y-124633631D01*
X150898703Y-124634024D01*
X150900922Y-124634375D01*
X150904836Y-124634684D01*
X150910627Y-124634954D01*
X150918475Y-124635188D01*
X150928563Y-124635387D01*
X150941070Y-124635554D01*
X150956179Y-124635691D01*
X150974070Y-124635800D01*
X150994926Y-124635883D01*
X151018926Y-124635942D01*
X151046252Y-124635979D01*
X151077086Y-124635998D01*
X151096127Y-124636000D01*
X151129011Y-124636009D01*
X151158286Y-124636035D01*
X151184132Y-124636082D01*
X151206730Y-124636151D01*
X151226263Y-124636244D01*
X151242910Y-124636364D01*
X151256853Y-124636514D01*
X151268274Y-124636694D01*
X151277354Y-124636908D01*
X151284273Y-124637156D01*
X151289214Y-124637443D01*
X151292356Y-124637769D01*
X151293883Y-124638137D01*
X151294098Y-124638370D01*
X151293758Y-124640745D01*
X151292841Y-124646401D01*
X151291424Y-124654883D01*
X151289586Y-124665738D01*
X151287401Y-124678511D01*
X151284948Y-124692748D01*
X151283120Y-124703291D01*
X151272252Y-124765844D01*
X151073333Y-124766791D01*
X150874414Y-124767739D01*
X150834219Y-124998045D01*
X150828887Y-125028597D01*
X150823561Y-125059115D01*
X150818297Y-125089275D01*
X150813151Y-125118756D01*
X150808181Y-125147235D01*
X150803441Y-125174390D01*
X150798989Y-125199897D01*
X150794881Y-125223436D01*
X150791172Y-125244682D01*
X150787920Y-125263314D01*
X150785180Y-125279010D01*
X150783009Y-125291447D01*
X150782194Y-125296116D01*
X150770364Y-125363881D01*
X150600903Y-125363881D01*
X150603444Y-125350138D01*
X150603962Y-125347241D01*
X150605111Y-125340748D01*
X150606866Y-125330797D01*
X150609203Y-125317529D01*
X150612098Y-125301080D01*
X150615526Y-125281589D01*
X150619463Y-125259196D01*
X150623885Y-125234038D01*
X150628767Y-125206254D01*
X150634085Y-125175982D01*
X150639815Y-125143361D01*
X150645932Y-125108530D01*
X150652412Y-125071626D01*
X150659231Y-125032789D01*
X150666364Y-124992157D01*
X150673788Y-124949868D01*
X150681477Y-124906061D01*
X150689407Y-124860874D01*
X150697555Y-124814447D01*
X150705895Y-124766916D01*
X150714404Y-124718422D01*
X150718887Y-124692866D01*
X150727457Y-124644021D01*
X150735864Y-124596113D01*
X150744082Y-124549278D01*
X150752090Y-124503652D01*
X150759862Y-124459372D01*
X150767375Y-124416573D01*
X150774604Y-124375392D01*
X150781527Y-124335964D01*
X150788118Y-124298427D01*
X150794355Y-124262915D01*
X150800213Y-124229564D01*
X150805668Y-124198512D01*
X150810697Y-124169894D01*
X150815275Y-124143846D01*
X150819379Y-124120505D01*
X150822984Y-124100006D01*
X150826068Y-124082485D01*
X150828605Y-124068079D01*
X150830572Y-124056923D01*
X150831945Y-124049154D01*
X150832701Y-124044908D01*
X150832844Y-124044123D01*
X150833898Y-124038911D01*
X151476480Y-124038911D01*
X151475429Y-124044123D01*
G36*
X151751367Y-124038922D02*
X151768135Y-124038964D01*
X151781749Y-124039047D01*
X151792527Y-124039183D01*
X151800787Y-124039382D01*
X151806848Y-124039656D01*
X151811029Y-124040015D01*
X151813647Y-124040471D01*
X151815021Y-124041035D01*
X151815470Y-124041717D01*
X151815477Y-124041837D01*
X151815154Y-124043814D01*
X151814205Y-124049364D01*
X151812656Y-124058322D01*
X151810538Y-124070527D01*
X151807878Y-124085816D01*
X151804705Y-124104028D01*
X151801048Y-124124998D01*
X151796934Y-124148566D01*
X151792393Y-124174568D01*
X151787452Y-124202843D01*
X151782141Y-124233227D01*
X151776487Y-124265559D01*
X151770519Y-124299676D01*
X151764266Y-124335415D01*
X151757757Y-124372614D01*
X151751018Y-124411111D01*
X151744080Y-124450743D01*
X151736970Y-124491348D01*
X151729717Y-124532764D01*
X151722349Y-124574827D01*
X151714895Y-124617376D01*
X151707384Y-124660249D01*
X151699843Y-124703282D01*
X151692301Y-124746313D01*
X151684787Y-124789180D01*
X151677329Y-124831721D01*
X151669956Y-124873773D01*
X151662696Y-124915173D01*
X151655577Y-124955760D01*
X151648628Y-124995371D01*
X151641878Y-125033843D01*
X151635354Y-125071014D01*
X151629086Y-125106721D01*
X151623102Y-125140803D01*
X151617430Y-125173097D01*
X151612098Y-125203439D01*
X151607136Y-125231669D01*
X151602571Y-125257623D01*
X151598433Y-125281139D01*
X151594749Y-125302055D01*
X151591548Y-125320208D01*
X151588859Y-125335436D01*
X151586709Y-125347576D01*
X151585128Y-125356467D01*
X151584904Y-125357720D01*
X151583802Y-125363881D01*
X151499662Y-125363881D01*
X151479540Y-125363872D01*
X151462886Y-125363837D01*
X151449374Y-125363763D01*
X151438682Y-125363639D01*
X151430485Y-125363452D01*
X151424458Y-125363191D01*
X151420279Y-125362843D01*
X151417624Y-125362395D01*
X151416167Y-125361837D01*
X151415586Y-125361155D01*
X151415522Y-125360729D01*
X151415847Y-125358646D01*
X151416804Y-125352963D01*
X151418372Y-125343815D01*
X151420526Y-125331334D01*
X151423242Y-125315656D01*
X151426499Y-125296914D01*
X151430271Y-125275242D01*
X151434536Y-125250773D01*
X151439271Y-125223643D01*
X151444451Y-125193985D01*
X151450054Y-125161933D01*
X151456055Y-125127620D01*
X151462433Y-125091182D01*
X151469162Y-125052751D01*
X151476220Y-125012462D01*
X151483584Y-124970449D01*
X151491229Y-124926845D01*
X151499133Y-124881785D01*
X151507271Y-124835403D01*
X151515622Y-124787832D01*
X151524161Y-124739207D01*
X151531149Y-124699423D01*
X151539819Y-124650068D01*
X151548320Y-124601670D01*
X151556628Y-124554363D01*
X151564721Y-124508279D01*
X151572574Y-124463552D01*
X151580164Y-124420316D01*
X151587468Y-124378704D01*
X151594462Y-124338849D01*
X151601123Y-124300886D01*
X151607428Y-124264946D01*
X151613352Y-124231164D01*
X151618874Y-124199674D01*
X151623969Y-124170608D01*
X151628614Y-124144100D01*
X151632785Y-124120283D01*
X151636460Y-124099292D01*
X151639615Y-124081259D01*
X151642225Y-124066318D01*
X151644269Y-124054601D01*
X151645722Y-124046244D01*
X151646562Y-124041379D01*
X151646776Y-124040089D01*
X151648608Y-124039845D01*
X151653851Y-124039618D01*
X151662124Y-124039413D01*
X151673046Y-124039237D01*
X151686238Y-124039093D01*
X151701319Y-124038987D01*
X151717909Y-124038925D01*
X151731127Y-124038911D01*
X151751367Y-124038922D01*
X151751367Y-124038922D01*
G37*
X151751367Y-124038922D02*
X151768135Y-124038964D01*
X151781749Y-124039047D01*
X151792527Y-124039183D01*
X151800787Y-124039382D01*
X151806848Y-124039656D01*
X151811029Y-124040015D01*
X151813647Y-124040471D01*
X151815021Y-124041035D01*
X151815470Y-124041717D01*
X151815477Y-124041837D01*
X151815154Y-124043814D01*
X151814205Y-124049364D01*
X151812656Y-124058322D01*
X151810538Y-124070527D01*
X151807878Y-124085816D01*
X151804705Y-124104028D01*
X151801048Y-124124998D01*
X151796934Y-124148566D01*
X151792393Y-124174568D01*
X151787452Y-124202843D01*
X151782141Y-124233227D01*
X151776487Y-124265559D01*
X151770519Y-124299676D01*
X151764266Y-124335415D01*
X151757757Y-124372614D01*
X151751018Y-124411111D01*
X151744080Y-124450743D01*
X151736970Y-124491348D01*
X151729717Y-124532764D01*
X151722349Y-124574827D01*
X151714895Y-124617376D01*
X151707384Y-124660249D01*
X151699843Y-124703282D01*
X151692301Y-124746313D01*
X151684787Y-124789180D01*
X151677329Y-124831721D01*
X151669956Y-124873773D01*
X151662696Y-124915173D01*
X151655577Y-124955760D01*
X151648628Y-124995371D01*
X151641878Y-125033843D01*
X151635354Y-125071014D01*
X151629086Y-125106721D01*
X151623102Y-125140803D01*
X151617430Y-125173097D01*
X151612098Y-125203439D01*
X151607136Y-125231669D01*
X151602571Y-125257623D01*
X151598433Y-125281139D01*
X151594749Y-125302055D01*
X151591548Y-125320208D01*
X151588859Y-125335436D01*
X151586709Y-125347576D01*
X151585128Y-125356467D01*
X151584904Y-125357720D01*
X151583802Y-125363881D01*
X151499662Y-125363881D01*
X151479540Y-125363872D01*
X151462886Y-125363837D01*
X151449374Y-125363763D01*
X151438682Y-125363639D01*
X151430485Y-125363452D01*
X151424458Y-125363191D01*
X151420279Y-125362843D01*
X151417624Y-125362395D01*
X151416167Y-125361837D01*
X151415586Y-125361155D01*
X151415522Y-125360729D01*
X151415847Y-125358646D01*
X151416804Y-125352963D01*
X151418372Y-125343815D01*
X151420526Y-125331334D01*
X151423242Y-125315656D01*
X151426499Y-125296914D01*
X151430271Y-125275242D01*
X151434536Y-125250773D01*
X151439271Y-125223643D01*
X151444451Y-125193985D01*
X151450054Y-125161933D01*
X151456055Y-125127620D01*
X151462433Y-125091182D01*
X151469162Y-125052751D01*
X151476220Y-125012462D01*
X151483584Y-124970449D01*
X151491229Y-124926845D01*
X151499133Y-124881785D01*
X151507271Y-124835403D01*
X151515622Y-124787832D01*
X151524161Y-124739207D01*
X151531149Y-124699423D01*
X151539819Y-124650068D01*
X151548320Y-124601670D01*
X151556628Y-124554363D01*
X151564721Y-124508279D01*
X151572574Y-124463552D01*
X151580164Y-124420316D01*
X151587468Y-124378704D01*
X151594462Y-124338849D01*
X151601123Y-124300886D01*
X151607428Y-124264946D01*
X151613352Y-124231164D01*
X151618874Y-124199674D01*
X151623969Y-124170608D01*
X151628614Y-124144100D01*
X151632785Y-124120283D01*
X151636460Y-124099292D01*
X151639615Y-124081259D01*
X151642225Y-124066318D01*
X151644269Y-124054601D01*
X151645722Y-124046244D01*
X151646562Y-124041379D01*
X151646776Y-124040089D01*
X151648608Y-124039845D01*
X151653851Y-124039618D01*
X151662124Y-124039413D01*
X151673046Y-124039237D01*
X151686238Y-124039093D01*
X151701319Y-124038987D01*
X151717909Y-124038925D01*
X151731127Y-124038911D01*
X151751367Y-124038922D01*
G36*
X152057139Y-124418283D02*
X152072268Y-124418327D01*
X152088890Y-124418399D01*
X152101989Y-124418469D01*
X152186272Y-124418963D01*
X152103307Y-124890000D01*
X152095965Y-124931689D01*
X152088796Y-124972401D01*
X152081829Y-125011978D01*
X152075090Y-125050262D01*
X152068609Y-125087095D01*
X152062411Y-125122319D01*
X152056526Y-125155777D01*
X152050981Y-125187310D01*
X152045804Y-125216760D01*
X152041022Y-125243970D01*
X152036663Y-125268780D01*
X152032756Y-125291035D01*
X152029327Y-125310575D01*
X152026405Y-125327242D01*
X152024017Y-125340878D01*
X152022191Y-125351327D01*
X152020955Y-125358428D01*
X152020337Y-125362026D01*
X152020268Y-125362459D01*
X152018420Y-125362754D01*
X152013162Y-125363028D01*
X152004875Y-125363274D01*
X151993939Y-125363488D01*
X151980736Y-125363661D01*
X151965646Y-125363789D01*
X151949050Y-125363863D01*
X151935843Y-125363881D01*
X151914722Y-125363857D01*
X151897137Y-125363782D01*
X151882836Y-125363649D01*
X151871562Y-125363450D01*
X151863063Y-125363178D01*
X151857084Y-125362828D01*
X151853370Y-125362391D01*
X151851669Y-125361861D01*
X151851492Y-125361585D01*
X151851815Y-125359543D01*
X151852761Y-125353968D01*
X151854297Y-125345050D01*
X151856388Y-125332983D01*
X151859001Y-125317957D01*
X151862102Y-125300166D01*
X151865657Y-125279801D01*
X151869633Y-125257055D01*
X151873996Y-125232118D01*
X151878712Y-125205185D01*
X151883748Y-125176445D01*
X151889069Y-125146093D01*
X151894641Y-125114319D01*
X151900432Y-125081316D01*
X151906407Y-125047275D01*
X151912532Y-125012389D01*
X151918774Y-124976851D01*
X151925099Y-124940851D01*
X151931473Y-124904582D01*
X151937863Y-124868237D01*
X151944234Y-124832006D01*
X151950554Y-124796083D01*
X151956787Y-124760659D01*
X151962901Y-124725926D01*
X151968861Y-124692077D01*
X151974634Y-124659304D01*
X151980186Y-124627798D01*
X151985484Y-124597751D01*
X151990493Y-124569357D01*
X151995179Y-124542806D01*
X151999510Y-124518291D01*
X152003451Y-124496003D01*
X152006969Y-124476136D01*
X152010029Y-124458881D01*
X152012598Y-124444430D01*
X152014643Y-124432975D01*
X152016129Y-124424708D01*
X152017022Y-124419821D01*
X152017290Y-124418469D01*
X152019210Y-124418378D01*
X152024538Y-124418313D01*
X152032891Y-124418276D01*
X152043886Y-124418266D01*
X152057139Y-124418283D01*
X152057139Y-124418283D01*
G37*
X152057139Y-124418283D02*
X152072268Y-124418327D01*
X152088890Y-124418399D01*
X152101989Y-124418469D01*
X152186272Y-124418963D01*
X152103307Y-124890000D01*
X152095965Y-124931689D01*
X152088796Y-124972401D01*
X152081829Y-125011978D01*
X152075090Y-125050262D01*
X152068609Y-125087095D01*
X152062411Y-125122319D01*
X152056526Y-125155777D01*
X152050981Y-125187310D01*
X152045804Y-125216760D01*
X152041022Y-125243970D01*
X152036663Y-125268780D01*
X152032756Y-125291035D01*
X152029327Y-125310575D01*
X152026405Y-125327242D01*
X152024017Y-125340878D01*
X152022191Y-125351327D01*
X152020955Y-125358428D01*
X152020337Y-125362026D01*
X152020268Y-125362459D01*
X152018420Y-125362754D01*
X152013162Y-125363028D01*
X152004875Y-125363274D01*
X151993939Y-125363488D01*
X151980736Y-125363661D01*
X151965646Y-125363789D01*
X151949050Y-125363863D01*
X151935843Y-125363881D01*
X151914722Y-125363857D01*
X151897137Y-125363782D01*
X151882836Y-125363649D01*
X151871562Y-125363450D01*
X151863063Y-125363178D01*
X151857084Y-125362828D01*
X151853370Y-125362391D01*
X151851669Y-125361861D01*
X151851492Y-125361585D01*
X151851815Y-125359543D01*
X151852761Y-125353968D01*
X151854297Y-125345050D01*
X151856388Y-125332983D01*
X151859001Y-125317957D01*
X151862102Y-125300166D01*
X151865657Y-125279801D01*
X151869633Y-125257055D01*
X151873996Y-125232118D01*
X151878712Y-125205185D01*
X151883748Y-125176445D01*
X151889069Y-125146093D01*
X151894641Y-125114319D01*
X151900432Y-125081316D01*
X151906407Y-125047275D01*
X151912532Y-125012389D01*
X151918774Y-124976851D01*
X151925099Y-124940851D01*
X151931473Y-124904582D01*
X151937863Y-124868237D01*
X151944234Y-124832006D01*
X151950554Y-124796083D01*
X151956787Y-124760659D01*
X151962901Y-124725926D01*
X151968861Y-124692077D01*
X151974634Y-124659304D01*
X151980186Y-124627798D01*
X151985484Y-124597751D01*
X151990493Y-124569357D01*
X151995179Y-124542806D01*
X151999510Y-124518291D01*
X152003451Y-124496003D01*
X152006969Y-124476136D01*
X152010029Y-124458881D01*
X152012598Y-124444430D01*
X152014643Y-124432975D01*
X152016129Y-124424708D01*
X152017022Y-124419821D01*
X152017290Y-124418469D01*
X152019210Y-124418378D01*
X152024538Y-124418313D01*
X152032891Y-124418276D01*
X152043886Y-124418266D01*
X152057139Y-124418283D01*
G36*
X153555657Y-124039178D02*
X153563253Y-124039222D01*
X153567729Y-124039293D01*
X153568810Y-124039365D01*
X153568484Y-124041259D01*
X153567541Y-124046645D01*
X153566022Y-124055284D01*
X153563972Y-124066934D01*
X153561431Y-124081356D01*
X153558442Y-124098308D01*
X153555049Y-124117550D01*
X153551292Y-124138841D01*
X153547215Y-124161942D01*
X153542860Y-124186611D01*
X153538270Y-124212609D01*
X153533486Y-124239694D01*
X153532959Y-124242679D01*
X153528162Y-124269866D01*
X153523562Y-124295992D01*
X153519202Y-124320816D01*
X153515123Y-124344097D01*
X153511366Y-124365596D01*
X153507974Y-124385072D01*
X153504989Y-124402283D01*
X153502452Y-124416991D01*
X153500405Y-124428954D01*
X153498890Y-124437932D01*
X153497948Y-124443684D01*
X153497622Y-124445969D01*
X153497625Y-124445999D01*
X153499466Y-124445553D01*
X153503789Y-124443900D01*
X153509169Y-124441610D01*
X153518425Y-124437819D01*
X153530376Y-124433372D01*
X153544055Y-124428595D01*
X153558494Y-124423812D01*
X153572728Y-124419349D01*
X153585788Y-124415532D01*
X153590634Y-124414214D01*
X153619095Y-124407804D01*
X153648712Y-124403208D01*
X153678959Y-124400404D01*
X153709313Y-124399367D01*
X153739250Y-124400073D01*
X153768245Y-124402497D01*
X153795776Y-124406617D01*
X153821316Y-124412408D01*
X153844343Y-124419845D01*
X153859798Y-124426563D01*
X153878404Y-124437673D01*
X153895590Y-124451657D01*
X153910568Y-124467784D01*
X153921629Y-124483736D01*
X153929906Y-124500800D01*
X153936556Y-124520820D01*
X153941512Y-124543293D01*
X153944709Y-124567720D01*
X153946079Y-124593599D01*
X153945557Y-124620431D01*
X153943230Y-124646482D01*
X153942713Y-124649905D01*
X153941583Y-124656833D01*
X153939881Y-124667038D01*
X153937646Y-124680289D01*
X153934918Y-124696357D01*
X153931737Y-124715014D01*
X153928142Y-124736031D01*
X153924173Y-124759176D01*
X153919870Y-124784223D01*
X153915272Y-124810941D01*
X153910420Y-124839101D01*
X153905353Y-124868473D01*
X153900110Y-124898830D01*
X153894732Y-124929940D01*
X153889258Y-124961576D01*
X153883728Y-124993508D01*
X153878181Y-125025506D01*
X153872658Y-125057342D01*
X153867197Y-125088785D01*
X153861840Y-125119608D01*
X153856625Y-125149580D01*
X153851592Y-125178473D01*
X153846782Y-125206056D01*
X153842233Y-125232102D01*
X153837985Y-125256380D01*
X153834079Y-125278662D01*
X153830553Y-125298718D01*
X153827448Y-125316318D01*
X153824803Y-125331235D01*
X153822659Y-125343237D01*
X153821054Y-125352097D01*
X153820029Y-125357585D01*
X153819814Y-125358668D01*
X153818743Y-125363881D01*
X153649858Y-125363881D01*
X153651141Y-125355825D01*
X153651599Y-125353134D01*
X153652680Y-125346902D01*
X153654348Y-125337321D01*
X153656572Y-125324584D01*
X153659316Y-125308882D01*
X153662548Y-125290409D01*
X153666233Y-125269357D01*
X153670338Y-125245919D01*
X153674829Y-125220286D01*
X153679672Y-125192651D01*
X153684834Y-125163207D01*
X153690281Y-125132147D01*
X153695979Y-125099662D01*
X153701894Y-125065945D01*
X153707994Y-125031189D01*
X153711316Y-125012261D01*
X153718616Y-124970667D01*
X153725288Y-124932631D01*
X153731361Y-124897976D01*
X153736862Y-124866527D01*
X153741822Y-124838108D01*
X153746269Y-124812544D01*
X153750231Y-124789657D01*
X153753737Y-124769273D01*
X153756817Y-124751216D01*
X153759499Y-124735309D01*
X153761811Y-124721376D01*
X153763782Y-124709242D01*
X153765442Y-124698731D01*
X153766818Y-124689666D01*
X153767940Y-124681873D01*
X153768837Y-124675174D01*
X153769536Y-124669395D01*
X153770068Y-124664359D01*
X153770460Y-124659890D01*
X153770742Y-124655812D01*
X153770941Y-124651950D01*
X153771088Y-124648128D01*
X153771148Y-124646268D01*
X153771458Y-124634132D01*
X153771492Y-124624868D01*
X153771191Y-124617564D01*
X153770494Y-124611307D01*
X153769340Y-124605185D01*
X153768061Y-124599828D01*
X153765500Y-124590871D01*
X153762429Y-124581848D01*
X153759451Y-124574511D01*
X153759034Y-124573631D01*
X153753490Y-124564608D01*
X153745598Y-124554777D01*
X153736335Y-124545145D01*
X153726682Y-124536721D01*
X153717617Y-124530514D01*
X153716713Y-124530018D01*
X153702239Y-124523820D01*
X153684877Y-124518900D01*
X153665325Y-124515310D01*
X153644281Y-124513099D01*
X153622443Y-124512317D01*
X153600511Y-124513016D01*
X153579181Y-124515246D01*
X153560487Y-124518740D01*
X153544401Y-124522995D01*
X153527463Y-124528338D01*
X153511036Y-124534295D01*
X153496483Y-124540393D01*
X153491715Y-124542655D01*
X153478095Y-124549388D01*
X153475980Y-124561892D01*
X153475452Y-124564956D01*
X153474304Y-124571575D01*
X153472567Y-124581570D01*
X153470273Y-124594761D01*
X153467452Y-124610970D01*
X153464136Y-124630016D01*
X153460356Y-124651720D01*
X153456143Y-124675903D01*
X153451530Y-124702386D01*
X153446546Y-124730989D01*
X153441223Y-124761532D01*
X153435593Y-124793837D01*
X153429686Y-124827723D01*
X153423534Y-124863012D01*
X153417169Y-124899525D01*
X153410621Y-124937080D01*
X153405114Y-124968664D01*
X153336362Y-125362933D01*
X153251584Y-125363427D01*
X153166806Y-125363920D01*
X153167946Y-125357740D01*
X153168356Y-125355427D01*
X153169399Y-125349515D01*
X153171049Y-125340139D01*
X153173285Y-125327434D01*
X153176081Y-125311536D01*
X153179414Y-125292579D01*
X153183260Y-125270698D01*
X153187596Y-125246028D01*
X153192398Y-125218705D01*
X153197642Y-125188864D01*
X153203305Y-125156638D01*
X153209362Y-125122165D01*
X153215790Y-125085578D01*
X153222566Y-125047012D01*
X153229665Y-125006603D01*
X153237064Y-124964486D01*
X153244739Y-124920795D01*
X153252666Y-124875667D01*
X153260822Y-124829235D01*
X153269182Y-124781634D01*
X153277724Y-124733001D01*
X153284274Y-124695709D01*
X153399462Y-124039858D01*
X153484149Y-124039365D01*
X153501655Y-124039274D01*
X153517939Y-124039209D01*
X153532620Y-124039172D01*
X153545319Y-124039162D01*
X153555657Y-124039178D01*
X153555657Y-124039178D01*
G37*
X153555657Y-124039178D02*
X153563253Y-124039222D01*
X153567729Y-124039293D01*
X153568810Y-124039365D01*
X153568484Y-124041259D01*
X153567541Y-124046645D01*
X153566022Y-124055284D01*
X153563972Y-124066934D01*
X153561431Y-124081356D01*
X153558442Y-124098308D01*
X153555049Y-124117550D01*
X153551292Y-124138841D01*
X153547215Y-124161942D01*
X153542860Y-124186611D01*
X153538270Y-124212609D01*
X153533486Y-124239694D01*
X153532959Y-124242679D01*
X153528162Y-124269866D01*
X153523562Y-124295992D01*
X153519202Y-124320816D01*
X153515123Y-124344097D01*
X153511366Y-124365596D01*
X153507974Y-124385072D01*
X153504989Y-124402283D01*
X153502452Y-124416991D01*
X153500405Y-124428954D01*
X153498890Y-124437932D01*
X153497948Y-124443684D01*
X153497622Y-124445969D01*
X153497625Y-124445999D01*
X153499466Y-124445553D01*
X153503789Y-124443900D01*
X153509169Y-124441610D01*
X153518425Y-124437819D01*
X153530376Y-124433372D01*
X153544055Y-124428595D01*
X153558494Y-124423812D01*
X153572728Y-124419349D01*
X153585788Y-124415532D01*
X153590634Y-124414214D01*
X153619095Y-124407804D01*
X153648712Y-124403208D01*
X153678959Y-124400404D01*
X153709313Y-124399367D01*
X153739250Y-124400073D01*
X153768245Y-124402497D01*
X153795776Y-124406617D01*
X153821316Y-124412408D01*
X153844343Y-124419845D01*
X153859798Y-124426563D01*
X153878404Y-124437673D01*
X153895590Y-124451657D01*
X153910568Y-124467784D01*
X153921629Y-124483736D01*
X153929906Y-124500800D01*
X153936556Y-124520820D01*
X153941512Y-124543293D01*
X153944709Y-124567720D01*
X153946079Y-124593599D01*
X153945557Y-124620431D01*
X153943230Y-124646482D01*
X153942713Y-124649905D01*
X153941583Y-124656833D01*
X153939881Y-124667038D01*
X153937646Y-124680289D01*
X153934918Y-124696357D01*
X153931737Y-124715014D01*
X153928142Y-124736031D01*
X153924173Y-124759176D01*
X153919870Y-124784223D01*
X153915272Y-124810941D01*
X153910420Y-124839101D01*
X153905353Y-124868473D01*
X153900110Y-124898830D01*
X153894732Y-124929940D01*
X153889258Y-124961576D01*
X153883728Y-124993508D01*
X153878181Y-125025506D01*
X153872658Y-125057342D01*
X153867197Y-125088785D01*
X153861840Y-125119608D01*
X153856625Y-125149580D01*
X153851592Y-125178473D01*
X153846782Y-125206056D01*
X153842233Y-125232102D01*
X153837985Y-125256380D01*
X153834079Y-125278662D01*
X153830553Y-125298718D01*
X153827448Y-125316318D01*
X153824803Y-125331235D01*
X153822659Y-125343237D01*
X153821054Y-125352097D01*
X153820029Y-125357585D01*
X153819814Y-125358668D01*
X153818743Y-125363881D01*
X153649858Y-125363881D01*
X153651141Y-125355825D01*
X153651599Y-125353134D01*
X153652680Y-125346902D01*
X153654348Y-125337321D01*
X153656572Y-125324584D01*
X153659316Y-125308882D01*
X153662548Y-125290409D01*
X153666233Y-125269357D01*
X153670338Y-125245919D01*
X153674829Y-125220286D01*
X153679672Y-125192651D01*
X153684834Y-125163207D01*
X153690281Y-125132147D01*
X153695979Y-125099662D01*
X153701894Y-125065945D01*
X153707994Y-125031189D01*
X153711316Y-125012261D01*
X153718616Y-124970667D01*
X153725288Y-124932631D01*
X153731361Y-124897976D01*
X153736862Y-124866527D01*
X153741822Y-124838108D01*
X153746269Y-124812544D01*
X153750231Y-124789657D01*
X153753737Y-124769273D01*
X153756817Y-124751216D01*
X153759499Y-124735309D01*
X153761811Y-124721376D01*
X153763782Y-124709242D01*
X153765442Y-124698731D01*
X153766818Y-124689666D01*
X153767940Y-124681873D01*
X153768837Y-124675174D01*
X153769536Y-124669395D01*
X153770068Y-124664359D01*
X153770460Y-124659890D01*
X153770742Y-124655812D01*
X153770941Y-124651950D01*
X153771088Y-124648128D01*
X153771148Y-124646268D01*
X153771458Y-124634132D01*
X153771492Y-124624868D01*
X153771191Y-124617564D01*
X153770494Y-124611307D01*
X153769340Y-124605185D01*
X153768061Y-124599828D01*
X153765500Y-124590871D01*
X153762429Y-124581848D01*
X153759451Y-124574511D01*
X153759034Y-124573631D01*
X153753490Y-124564608D01*
X153745598Y-124554777D01*
X153736335Y-124545145D01*
X153726682Y-124536721D01*
X153717617Y-124530514D01*
X153716713Y-124530018D01*
X153702239Y-124523820D01*
X153684877Y-124518900D01*
X153665325Y-124515310D01*
X153644281Y-124513099D01*
X153622443Y-124512317D01*
X153600511Y-124513016D01*
X153579181Y-124515246D01*
X153560487Y-124518740D01*
X153544401Y-124522995D01*
X153527463Y-124528338D01*
X153511036Y-124534295D01*
X153496483Y-124540393D01*
X153491715Y-124542655D01*
X153478095Y-124549388D01*
X153475980Y-124561892D01*
X153475452Y-124564956D01*
X153474304Y-124571575D01*
X153472567Y-124581570D01*
X153470273Y-124594761D01*
X153467452Y-124610970D01*
X153464136Y-124630016D01*
X153460356Y-124651720D01*
X153456143Y-124675903D01*
X153451530Y-124702386D01*
X153446546Y-124730989D01*
X153441223Y-124761532D01*
X153435593Y-124793837D01*
X153429686Y-124827723D01*
X153423534Y-124863012D01*
X153417169Y-124899525D01*
X153410621Y-124937080D01*
X153405114Y-124968664D01*
X153336362Y-125362933D01*
X153251584Y-125363427D01*
X153166806Y-125363920D01*
X153167946Y-125357740D01*
X153168356Y-125355427D01*
X153169399Y-125349515D01*
X153171049Y-125340139D01*
X153173285Y-125327434D01*
X153176081Y-125311536D01*
X153179414Y-125292579D01*
X153183260Y-125270698D01*
X153187596Y-125246028D01*
X153192398Y-125218705D01*
X153197642Y-125188864D01*
X153203305Y-125156638D01*
X153209362Y-125122165D01*
X153215790Y-125085578D01*
X153222566Y-125047012D01*
X153229665Y-125006603D01*
X153237064Y-124964486D01*
X153244739Y-124920795D01*
X153252666Y-124875667D01*
X153260822Y-124829235D01*
X153269182Y-124781634D01*
X153277724Y-124733001D01*
X153284274Y-124695709D01*
X153399462Y-124039858D01*
X153484149Y-124039365D01*
X153501655Y-124039274D01*
X153517939Y-124039209D01*
X153532620Y-124039172D01*
X153545319Y-124039162D01*
X153555657Y-124039178D01*
G36*
X158188283Y-124039178D02*
X158195883Y-124039222D01*
X158200363Y-124039292D01*
X158201448Y-124039365D01*
X158201119Y-124041251D01*
X158200159Y-124046700D01*
X158198599Y-124055543D01*
X158196468Y-124067609D01*
X158193797Y-124082729D01*
X158190616Y-124100733D01*
X158186954Y-124121452D01*
X158182842Y-124144715D01*
X158178310Y-124170353D01*
X158173388Y-124198196D01*
X158168105Y-124228075D01*
X158162492Y-124259818D01*
X158156579Y-124293258D01*
X158150396Y-124328223D01*
X158143973Y-124364544D01*
X158137339Y-124402051D01*
X158130525Y-124440575D01*
X158129654Y-124445500D01*
X158122823Y-124484143D01*
X158116174Y-124521794D01*
X158109739Y-124558282D01*
X158103546Y-124593438D01*
X158097625Y-124627091D01*
X158092006Y-124659072D01*
X158086718Y-124689211D01*
X158081792Y-124717338D01*
X158077256Y-124743282D01*
X158073142Y-124766875D01*
X158069478Y-124787946D01*
X158066293Y-124806325D01*
X158063619Y-124821842D01*
X158061484Y-124834327D01*
X158059918Y-124843611D01*
X158058951Y-124849523D01*
X158058613Y-124851893D01*
X158058616Y-124851932D01*
X158059954Y-124851932D01*
X158061197Y-124850392D01*
X158064690Y-124846067D01*
X158070300Y-124839120D01*
X158077897Y-124829716D01*
X158087346Y-124818017D01*
X158098517Y-124804187D01*
X158111277Y-124788391D01*
X158125494Y-124770791D01*
X158141036Y-124751552D01*
X158157769Y-124730837D01*
X158175563Y-124708810D01*
X158194285Y-124685634D01*
X158213803Y-124661474D01*
X158233984Y-124636492D01*
X158235530Y-124634579D01*
X158410478Y-124418015D01*
X158504300Y-124418015D01*
X158525572Y-124418021D01*
X158543353Y-124418046D01*
X158557943Y-124418101D01*
X158569642Y-124418196D01*
X158578750Y-124418342D01*
X158585568Y-124418551D01*
X158590394Y-124418832D01*
X158593530Y-124419197D01*
X158595275Y-124419656D01*
X158595929Y-124420221D01*
X158595793Y-124420901D01*
X158595519Y-124421292D01*
X158594021Y-124423100D01*
X158590226Y-124427652D01*
X158584269Y-124434785D01*
X158576286Y-124444336D01*
X158566414Y-124456143D01*
X158554789Y-124470043D01*
X158541547Y-124485872D01*
X158526824Y-124503469D01*
X158510757Y-124522670D01*
X158493481Y-124543313D01*
X158475132Y-124565235D01*
X158455848Y-124588273D01*
X158435763Y-124612265D01*
X158415015Y-124637048D01*
X158411895Y-124640774D01*
X158391065Y-124665653D01*
X158370882Y-124689761D01*
X158351482Y-124712937D01*
X158333000Y-124735017D01*
X158315572Y-124755838D01*
X158299335Y-124775240D01*
X158284424Y-124793058D01*
X158270975Y-124809132D01*
X158259124Y-124823297D01*
X158249007Y-124835393D01*
X158240760Y-124845256D01*
X158234519Y-124852725D01*
X158230419Y-124857636D01*
X158228597Y-124859827D01*
X158228529Y-124859911D01*
X158228418Y-124860770D01*
X158228824Y-124862585D01*
X158229818Y-124865511D01*
X158231471Y-124869699D01*
X158233856Y-124875301D01*
X158237046Y-124882471D01*
X158241110Y-124891360D01*
X158246123Y-124902121D01*
X158252155Y-124914907D01*
X158259278Y-124929869D01*
X158267565Y-124947162D01*
X158277088Y-124966936D01*
X158287918Y-124989344D01*
X158300127Y-125014539D01*
X158313787Y-125042674D01*
X158328971Y-125073900D01*
X158345750Y-125108371D01*
X158346515Y-125109942D01*
X158360533Y-125138737D01*
X158374103Y-125166627D01*
X158387132Y-125193418D01*
X158399524Y-125218919D01*
X158411188Y-125242936D01*
X158422030Y-125265275D01*
X158431955Y-125285745D01*
X158440872Y-125304152D01*
X158448685Y-125320303D01*
X158455301Y-125334006D01*
X158460628Y-125345067D01*
X158464572Y-125353293D01*
X158467038Y-125358492D01*
X158467931Y-125360461D01*
X158468031Y-125361237D01*
X158467592Y-125361886D01*
X158466307Y-125362420D01*
X158463870Y-125362849D01*
X158459974Y-125363185D01*
X158454313Y-125363439D01*
X158446581Y-125363622D01*
X158436470Y-125363747D01*
X158423675Y-125363824D01*
X158407888Y-125363864D01*
X158388804Y-125363879D01*
X158375402Y-125363881D01*
X158281788Y-125363881D01*
X158169354Y-125119832D01*
X158156114Y-125091103D01*
X158143296Y-125063313D01*
X158130993Y-125036658D01*
X158119294Y-125011332D01*
X158108289Y-124987531D01*
X158098071Y-124965451D01*
X158088728Y-124945287D01*
X158080352Y-124927235D01*
X158073033Y-124911488D01*
X158066862Y-124898244D01*
X158061929Y-124887698D01*
X158058326Y-124880044D01*
X158056141Y-124875478D01*
X158055473Y-124874175D01*
X158055237Y-124873793D01*
X158055040Y-124873362D01*
X158054848Y-124873066D01*
X158054628Y-124873091D01*
X158054346Y-124873621D01*
X158053969Y-124874841D01*
X158053463Y-124876935D01*
X158052795Y-124880088D01*
X158051931Y-124884485D01*
X158050839Y-124890311D01*
X158049484Y-124897749D01*
X158047833Y-124906986D01*
X158045852Y-124918205D01*
X158043509Y-124931592D01*
X158040769Y-124947330D01*
X158037600Y-124965605D01*
X158033967Y-124986602D01*
X158029837Y-125010504D01*
X158025178Y-125037497D01*
X158019954Y-125067766D01*
X158014133Y-125101495D01*
X158011050Y-125119358D01*
X158005964Y-125148814D01*
X158001044Y-125177276D01*
X157996332Y-125204516D01*
X157991866Y-125230307D01*
X157987686Y-125254420D01*
X157983831Y-125276628D01*
X157980342Y-125296703D01*
X157977258Y-125314417D01*
X157974619Y-125329542D01*
X157972463Y-125341851D01*
X157970832Y-125351114D01*
X157969763Y-125357105D01*
X157969298Y-125359596D01*
X157969293Y-125359616D01*
X157968271Y-125363881D01*
X157883956Y-125363881D01*
X157866491Y-125363850D01*
X157850252Y-125363762D01*
X157835618Y-125363622D01*
X157822971Y-125363438D01*
X157812689Y-125363216D01*
X157805153Y-125362961D01*
X157800743Y-125362682D01*
X157799715Y-125362459D01*
X157800045Y-125360507D01*
X157801008Y-125354955D01*
X157802581Y-125345935D01*
X157804740Y-125333581D01*
X157807462Y-125318027D01*
X157810724Y-125299404D01*
X157814502Y-125277848D01*
X157818773Y-125253491D01*
X157823513Y-125226466D01*
X157828700Y-125196906D01*
X157834309Y-125164945D01*
X157840317Y-125130717D01*
X157846701Y-125094353D01*
X157853438Y-125055988D01*
X157860504Y-125015755D01*
X157867875Y-124973787D01*
X157875529Y-124930217D01*
X157883442Y-124885178D01*
X157891590Y-124838805D01*
X157899951Y-124791229D01*
X157908500Y-124742584D01*
X157915906Y-124700448D01*
X158032024Y-124039858D01*
X158116758Y-124039365D01*
X158134269Y-124039274D01*
X158150556Y-124039209D01*
X158165240Y-124039172D01*
X158177943Y-124039162D01*
X158188283Y-124039178D01*
X158188283Y-124039178D01*
G37*
X158188283Y-124039178D02*
X158195883Y-124039222D01*
X158200363Y-124039292D01*
X158201448Y-124039365D01*
X158201119Y-124041251D01*
X158200159Y-124046700D01*
X158198599Y-124055543D01*
X158196468Y-124067609D01*
X158193797Y-124082729D01*
X158190616Y-124100733D01*
X158186954Y-124121452D01*
X158182842Y-124144715D01*
X158178310Y-124170353D01*
X158173388Y-124198196D01*
X158168105Y-124228075D01*
X158162492Y-124259818D01*
X158156579Y-124293258D01*
X158150396Y-124328223D01*
X158143973Y-124364544D01*
X158137339Y-124402051D01*
X158130525Y-124440575D01*
X158129654Y-124445500D01*
X158122823Y-124484143D01*
X158116174Y-124521794D01*
X158109739Y-124558282D01*
X158103546Y-124593438D01*
X158097625Y-124627091D01*
X158092006Y-124659072D01*
X158086718Y-124689211D01*
X158081792Y-124717338D01*
X158077256Y-124743282D01*
X158073142Y-124766875D01*
X158069478Y-124787946D01*
X158066293Y-124806325D01*
X158063619Y-124821842D01*
X158061484Y-124834327D01*
X158059918Y-124843611D01*
X158058951Y-124849523D01*
X158058613Y-124851893D01*
X158058616Y-124851932D01*
X158059954Y-124851932D01*
X158061197Y-124850392D01*
X158064690Y-124846067D01*
X158070300Y-124839120D01*
X158077897Y-124829716D01*
X158087346Y-124818017D01*
X158098517Y-124804187D01*
X158111277Y-124788391D01*
X158125494Y-124770791D01*
X158141036Y-124751552D01*
X158157769Y-124730837D01*
X158175563Y-124708810D01*
X158194285Y-124685634D01*
X158213803Y-124661474D01*
X158233984Y-124636492D01*
X158235530Y-124634579D01*
X158410478Y-124418015D01*
X158504300Y-124418015D01*
X158525572Y-124418021D01*
X158543353Y-124418046D01*
X158557943Y-124418101D01*
X158569642Y-124418196D01*
X158578750Y-124418342D01*
X158585568Y-124418551D01*
X158590394Y-124418832D01*
X158593530Y-124419197D01*
X158595275Y-124419656D01*
X158595929Y-124420221D01*
X158595793Y-124420901D01*
X158595519Y-124421292D01*
X158594021Y-124423100D01*
X158590226Y-124427652D01*
X158584269Y-124434785D01*
X158576286Y-124444336D01*
X158566414Y-124456143D01*
X158554789Y-124470043D01*
X158541547Y-124485872D01*
X158526824Y-124503469D01*
X158510757Y-124522670D01*
X158493481Y-124543313D01*
X158475132Y-124565235D01*
X158455848Y-124588273D01*
X158435763Y-124612265D01*
X158415015Y-124637048D01*
X158411895Y-124640774D01*
X158391065Y-124665653D01*
X158370882Y-124689761D01*
X158351482Y-124712937D01*
X158333000Y-124735017D01*
X158315572Y-124755838D01*
X158299335Y-124775240D01*
X158284424Y-124793058D01*
X158270975Y-124809132D01*
X158259124Y-124823297D01*
X158249007Y-124835393D01*
X158240760Y-124845256D01*
X158234519Y-124852725D01*
X158230419Y-124857636D01*
X158228597Y-124859827D01*
X158228529Y-124859911D01*
X158228418Y-124860770D01*
X158228824Y-124862585D01*
X158229818Y-124865511D01*
X158231471Y-124869699D01*
X158233856Y-124875301D01*
X158237046Y-124882471D01*
X158241110Y-124891360D01*
X158246123Y-124902121D01*
X158252155Y-124914907D01*
X158259278Y-124929869D01*
X158267565Y-124947162D01*
X158277088Y-124966936D01*
X158287918Y-124989344D01*
X158300127Y-125014539D01*
X158313787Y-125042674D01*
X158328971Y-125073900D01*
X158345750Y-125108371D01*
X158346515Y-125109942D01*
X158360533Y-125138737D01*
X158374103Y-125166627D01*
X158387132Y-125193418D01*
X158399524Y-125218919D01*
X158411188Y-125242936D01*
X158422030Y-125265275D01*
X158431955Y-125285745D01*
X158440872Y-125304152D01*
X158448685Y-125320303D01*
X158455301Y-125334006D01*
X158460628Y-125345067D01*
X158464572Y-125353293D01*
X158467038Y-125358492D01*
X158467931Y-125360461D01*
X158468031Y-125361237D01*
X158467592Y-125361886D01*
X158466307Y-125362420D01*
X158463870Y-125362849D01*
X158459974Y-125363185D01*
X158454313Y-125363439D01*
X158446581Y-125363622D01*
X158436470Y-125363747D01*
X158423675Y-125363824D01*
X158407888Y-125363864D01*
X158388804Y-125363879D01*
X158375402Y-125363881D01*
X158281788Y-125363881D01*
X158169354Y-125119832D01*
X158156114Y-125091103D01*
X158143296Y-125063313D01*
X158130993Y-125036658D01*
X158119294Y-125011332D01*
X158108289Y-124987531D01*
X158098071Y-124965451D01*
X158088728Y-124945287D01*
X158080352Y-124927235D01*
X158073033Y-124911488D01*
X158066862Y-124898244D01*
X158061929Y-124887698D01*
X158058326Y-124880044D01*
X158056141Y-124875478D01*
X158055473Y-124874175D01*
X158055237Y-124873793D01*
X158055040Y-124873362D01*
X158054848Y-124873066D01*
X158054628Y-124873091D01*
X158054346Y-124873621D01*
X158053969Y-124874841D01*
X158053463Y-124876935D01*
X158052795Y-124880088D01*
X158051931Y-124884485D01*
X158050839Y-124890311D01*
X158049484Y-124897749D01*
X158047833Y-124906986D01*
X158045852Y-124918205D01*
X158043509Y-124931592D01*
X158040769Y-124947330D01*
X158037600Y-124965605D01*
X158033967Y-124986602D01*
X158029837Y-125010504D01*
X158025178Y-125037497D01*
X158019954Y-125067766D01*
X158014133Y-125101495D01*
X158011050Y-125119358D01*
X158005964Y-125148814D01*
X158001044Y-125177276D01*
X157996332Y-125204516D01*
X157991866Y-125230307D01*
X157987686Y-125254420D01*
X157983831Y-125276628D01*
X157980342Y-125296703D01*
X157977258Y-125314417D01*
X157974619Y-125329542D01*
X157972463Y-125341851D01*
X157970832Y-125351114D01*
X157969763Y-125357105D01*
X157969298Y-125359596D01*
X157969293Y-125359616D01*
X157968271Y-125363881D01*
X157883956Y-125363881D01*
X157866491Y-125363850D01*
X157850252Y-125363762D01*
X157835618Y-125363622D01*
X157822971Y-125363438D01*
X157812689Y-125363216D01*
X157805153Y-125362961D01*
X157800743Y-125362682D01*
X157799715Y-125362459D01*
X157800045Y-125360507D01*
X157801008Y-125354955D01*
X157802581Y-125345935D01*
X157804740Y-125333581D01*
X157807462Y-125318027D01*
X157810724Y-125299404D01*
X157814502Y-125277848D01*
X157818773Y-125253491D01*
X157823513Y-125226466D01*
X157828700Y-125196906D01*
X157834309Y-125164945D01*
X157840317Y-125130717D01*
X157846701Y-125094353D01*
X157853438Y-125055988D01*
X157860504Y-125015755D01*
X157867875Y-124973787D01*
X157875529Y-124930217D01*
X157883442Y-124885178D01*
X157891590Y-124838805D01*
X157899951Y-124791229D01*
X157908500Y-124742584D01*
X157915906Y-124700448D01*
X158032024Y-124039858D01*
X158116758Y-124039365D01*
X158134269Y-124039274D01*
X158150556Y-124039209D01*
X158165240Y-124039172D01*
X158177943Y-124039162D01*
X158188283Y-124039178D01*
G36*
X152115900Y-124077089D02*
X152131028Y-124077133D01*
X152147648Y-124077205D01*
X152160731Y-124077275D01*
X152244994Y-124077769D01*
X152231261Y-124157381D01*
X152228155Y-124175384D01*
X152225089Y-124193159D01*
X152222159Y-124210151D01*
X152219459Y-124225805D01*
X152217086Y-124239567D01*
X152215136Y-124250883D01*
X152213703Y-124259197D01*
X152213364Y-124261161D01*
X152209202Y-124285329D01*
X152125123Y-124285329D01*
X152105049Y-124285321D01*
X152088440Y-124285290D01*
X152074969Y-124285222D01*
X152064311Y-124285106D01*
X152056138Y-124284926D01*
X152050125Y-124284672D01*
X152045946Y-124284330D01*
X152043273Y-124283887D01*
X152041782Y-124283331D01*
X152041145Y-124282647D01*
X152041031Y-124282011D01*
X152041338Y-124279666D01*
X152042217Y-124274043D01*
X152043596Y-124265560D01*
X152045405Y-124254630D01*
X152047573Y-124241669D01*
X152050028Y-124227093D01*
X152052700Y-124211316D01*
X152055517Y-124194754D01*
X152058408Y-124177821D01*
X152061303Y-124160934D01*
X152064131Y-124144506D01*
X152066820Y-124128955D01*
X152069299Y-124114694D01*
X152071497Y-124102138D01*
X152073344Y-124091704D01*
X152074768Y-124083806D01*
X152075698Y-124078860D01*
X152076054Y-124077275D01*
X152077974Y-124077184D01*
X152083301Y-124077119D01*
X152091653Y-124077082D01*
X152102647Y-124077072D01*
X152115900Y-124077089D01*
X152115900Y-124077089D01*
G37*
X152115900Y-124077089D02*
X152131028Y-124077133D01*
X152147648Y-124077205D01*
X152160731Y-124077275D01*
X152244994Y-124077769D01*
X152231261Y-124157381D01*
X152228155Y-124175384D01*
X152225089Y-124193159D01*
X152222159Y-124210151D01*
X152219459Y-124225805D01*
X152217086Y-124239567D01*
X152215136Y-124250883D01*
X152213703Y-124259197D01*
X152213364Y-124261161D01*
X152209202Y-124285329D01*
X152125123Y-124285329D01*
X152105049Y-124285321D01*
X152088440Y-124285290D01*
X152074969Y-124285222D01*
X152064311Y-124285106D01*
X152056138Y-124284926D01*
X152050125Y-124284672D01*
X152045946Y-124284330D01*
X152043273Y-124283887D01*
X152041782Y-124283331D01*
X152041145Y-124282647D01*
X152041031Y-124282011D01*
X152041338Y-124279666D01*
X152042217Y-124274043D01*
X152043596Y-124265560D01*
X152045405Y-124254630D01*
X152047573Y-124241669D01*
X152050028Y-124227093D01*
X152052700Y-124211316D01*
X152055517Y-124194754D01*
X152058408Y-124177821D01*
X152061303Y-124160934D01*
X152064131Y-124144506D01*
X152066820Y-124128955D01*
X152069299Y-124114694D01*
X152071497Y-124102138D01*
X152073344Y-124091704D01*
X152074768Y-124083806D01*
X152075698Y-124078860D01*
X152076054Y-124077275D01*
X152077974Y-124077184D01*
X152083301Y-124077119D01*
X152091653Y-124077082D01*
X152102647Y-124077072D01*
X152115900Y-124077089D01*
G36*
X146665290Y-97460258D02*
X146631935Y-97459289D01*
X146608347Y-97457772D01*
X146528211Y-97448045D01*
X146446242Y-97432747D01*
X146364299Y-97412319D01*
X146284242Y-97387204D01*
X146236459Y-97369507D01*
X146193653Y-97352518D01*
X146151404Y-97335461D01*
X146109333Y-97318161D01*
X146067061Y-97300442D01*
X146024211Y-97282126D01*
X145980405Y-97263039D01*
X145935264Y-97243005D01*
X145888411Y-97221846D01*
X145839467Y-97199388D01*
X145788055Y-97175454D01*
X145733796Y-97149868D01*
X145676313Y-97122454D01*
X145615226Y-97093036D01*
X145550159Y-97061438D01*
X145480732Y-97027483D01*
X145406569Y-96990997D01*
X145327290Y-96951802D01*
X145242519Y-96909723D01*
X145151876Y-96864583D01*
X145147847Y-96862574D01*
X145068054Y-96822875D01*
X144993999Y-96786242D01*
X144925184Y-96752447D01*
X144861109Y-96721260D01*
X144801275Y-96692449D01*
X144745183Y-96665787D01*
X144692334Y-96641043D01*
X144642228Y-96617986D01*
X144594366Y-96596388D01*
X144548250Y-96576018D01*
X144503379Y-96556646D01*
X144459255Y-96538044D01*
X144415379Y-96519979D01*
X144371251Y-96502224D01*
X144329402Y-96485731D01*
X144305757Y-96476470D01*
X144284119Y-96467942D01*
X144265406Y-96460513D01*
X144250536Y-96454550D01*
X144240427Y-96450417D01*
X144236028Y-96448499D01*
X144235012Y-96446135D01*
X144237368Y-96441355D01*
X144243589Y-96433517D01*
X144254163Y-96421977D01*
X144264250Y-96411526D01*
X144321445Y-96357400D01*
X144385245Y-96305243D01*
X144455449Y-96255154D01*
X144531860Y-96207231D01*
X144614277Y-96161575D01*
X144702502Y-96118283D01*
X144796335Y-96077454D01*
X144895578Y-96039188D01*
X145000031Y-96003583D01*
X145109496Y-95970738D01*
X145200764Y-95946460D01*
X145308347Y-95920864D01*
X145410430Y-95899602D01*
X145507082Y-95882675D01*
X145598371Y-95870084D01*
X145684364Y-95861830D01*
X145765130Y-95857912D01*
X145840736Y-95858332D01*
X145911252Y-95863090D01*
X145976744Y-95872186D01*
X146037281Y-95885622D01*
X146092931Y-95903398D01*
X146143763Y-95925514D01*
X146189843Y-95951971D01*
X146194717Y-95955208D01*
X146213433Y-95969288D01*
X146234023Y-95987185D01*
X146254538Y-96007011D01*
X146273025Y-96026879D01*
X146287533Y-96044902D01*
X146287751Y-96045204D01*
X146309357Y-96080310D01*
X146327636Y-96120075D01*
X146341932Y-96162631D01*
X146351593Y-96206109D01*
X146355437Y-96238678D01*
X146357875Y-96273925D01*
X146423139Y-96279849D01*
X146444400Y-96281753D01*
X146463696Y-96283435D01*
X146479741Y-96284785D01*
X146491249Y-96285695D01*
X146496772Y-96286053D01*
X146502501Y-96286873D01*
X146502138Y-96289827D01*
X146500300Y-96292220D01*
X146497794Y-96295954D01*
X146499753Y-96296938D01*
X146507348Y-96295698D01*
X146507805Y-96295605D01*
X146536598Y-96289982D01*
X146570557Y-96283695D01*
X146607859Y-96277058D01*
X146646684Y-96270382D01*
X146685209Y-96263981D01*
X146721612Y-96258168D01*
X146754071Y-96253255D01*
X146756514Y-96252900D01*
X146837088Y-96242004D01*
X146911979Y-96233581D01*
X146982120Y-96227657D01*
X147048445Y-96224256D01*
X147111888Y-96223404D01*
X147173383Y-96225126D01*
X147233863Y-96229448D01*
X147294262Y-96236394D01*
X147355514Y-96245989D01*
X147418553Y-96258259D01*
X147480978Y-96272424D01*
X147501219Y-96277449D01*
X147523929Y-96283342D01*
X147548117Y-96289819D01*
X147572791Y-96296596D01*
X147596960Y-96303392D01*
X147619632Y-96309921D01*
X147639815Y-96315901D01*
X147656517Y-96321048D01*
X147668746Y-96325079D01*
X147675512Y-96327711D01*
X147676434Y-96328276D01*
X147677209Y-96332024D01*
X147678639Y-96341845D01*
X147680615Y-96356799D01*
X147683029Y-96375945D01*
X147685770Y-96398342D01*
X147688729Y-96423050D01*
X147691797Y-96449129D01*
X147694865Y-96475637D01*
X147697823Y-96501634D01*
X147700562Y-96526179D01*
X147702973Y-96548332D01*
X147704947Y-96567152D01*
X147706374Y-96581699D01*
X147707144Y-96591031D01*
X147707250Y-96593487D01*
X147704019Y-96595108D01*
X147695262Y-96597686D01*
X147682379Y-96600842D01*
X147669326Y-96603680D01*
X147557157Y-96627906D01*
X147449123Y-96653430D01*
X147345650Y-96680130D01*
X147247164Y-96707881D01*
X147154093Y-96736557D01*
X147066864Y-96766034D01*
X146985903Y-96796188D01*
X146925127Y-96821059D01*
X146828646Y-96865567D01*
X146737174Y-96914493D01*
X146649820Y-96968386D01*
X146565692Y-97027798D01*
X146483992Y-97093199D01*
X146467703Y-97107269D01*
X146450223Y-97122791D01*
X146432330Y-97139027D01*
X146414803Y-97155240D01*
X146398420Y-97170693D01*
X146383959Y-97184651D01*
X146372200Y-97196375D01*
X146363920Y-97205130D01*
X146359899Y-97210178D01*
X146359639Y-97210885D01*
X146362890Y-97213383D01*
X146371928Y-97217197D01*
X146385675Y-97221999D01*
X146403056Y-97227465D01*
X146422995Y-97233268D01*
X146444414Y-97239083D01*
X146466239Y-97244583D01*
X146485816Y-97249099D01*
X146555040Y-97262078D01*
X146621946Y-97270010D01*
X146688161Y-97272933D01*
X146755315Y-97270885D01*
X146825037Y-97263904D01*
X146865507Y-97257904D01*
X146961820Y-97239144D01*
X147053589Y-97215193D01*
X147140752Y-97186083D01*
X147223244Y-97151842D01*
X147301004Y-97112501D01*
X147373968Y-97068091D01*
X147442074Y-97018641D01*
X147505258Y-96964182D01*
X147530861Y-96939269D01*
X147581506Y-96883905D01*
X147625550Y-96826720D01*
X147662899Y-96767852D01*
X147693461Y-96707440D01*
X147707205Y-96673972D01*
X147718693Y-96643568D01*
X147864737Y-96505004D01*
X147891511Y-96479532D01*
X147916628Y-96455501D01*
X147939640Y-96433348D01*
X147960100Y-96413510D01*
X147977562Y-96396425D01*
X147991579Y-96382528D01*
X148001702Y-96372258D01*
X148007486Y-96366050D01*
X148008698Y-96364310D01*
X148005158Y-96362487D01*
X147995802Y-96358073D01*
X147981260Y-96351355D01*
X147962158Y-96342619D01*
X147939124Y-96332151D01*
X147912788Y-96320237D01*
X147883775Y-96307163D01*
X147852714Y-96293216D01*
X147849166Y-96291625D01*
X147691717Y-96221069D01*
X147671603Y-96150514D01*
X147657574Y-96102439D01*
X147643876Y-96058060D01*
X147629524Y-96014307D01*
X147613531Y-95968106D01*
X147608362Y-95953578D01*
X147601696Y-95935504D01*
X147596499Y-95923023D01*
X147592163Y-95914987D01*
X147588080Y-95910245D01*
X147584199Y-95907879D01*
X147577666Y-95906626D01*
X147565062Y-95905601D01*
X147547368Y-95904802D01*
X147525564Y-95904229D01*
X147500632Y-95903880D01*
X147473552Y-95903754D01*
X147445306Y-95903850D01*
X147416873Y-95904167D01*
X147389235Y-95904703D01*
X147363373Y-95905458D01*
X147340267Y-95906430D01*
X147320899Y-95907618D01*
X147313902Y-95908200D01*
X147271385Y-95912361D01*
X147227563Y-95917080D01*
X147183322Y-95922233D01*
X147139551Y-95927696D01*
X147097136Y-95933346D01*
X147056963Y-95939060D01*
X147019921Y-95944713D01*
X146986895Y-95950182D01*
X146958772Y-95955343D01*
X146936440Y-95960073D01*
X146929375Y-95961804D01*
X146872949Y-95979812D01*
X146816741Y-96004445D01*
X146761381Y-96035284D01*
X146707497Y-96071912D01*
X146655717Y-96113909D01*
X146606669Y-96160858D01*
X146570769Y-96200581D01*
X146559618Y-96213635D01*
X146552188Y-96221871D01*
X146547683Y-96225892D01*
X146545304Y-96226297D01*
X146544256Y-96223688D01*
X146543924Y-96220823D01*
X146535072Y-96158971D01*
X146519875Y-96098805D01*
X146498633Y-96040975D01*
X146471645Y-95986132D01*
X146439208Y-95934925D01*
X146401622Y-95888006D01*
X146381130Y-95866494D01*
X146333980Y-95824625D01*
X146282120Y-95787761D01*
X146225523Y-95755897D01*
X146164164Y-95729028D01*
X146098016Y-95707153D01*
X146027053Y-95690265D01*
X145951250Y-95678361D01*
X145870581Y-95671438D01*
X145785019Y-95669490D01*
X145694540Y-95672514D01*
X145599116Y-95680507D01*
X145498723Y-95693463D01*
X145393334Y-95711379D01*
X145391264Y-95711771D01*
X145257960Y-95739285D01*
X145129390Y-95770322D01*
X145005778Y-95804802D01*
X144887350Y-95842646D01*
X144774328Y-95883775D01*
X144666937Y-95928109D01*
X144565403Y-95975571D01*
X144469948Y-96026080D01*
X144423444Y-96053129D01*
X144351568Y-96098378D01*
X144286071Y-96144043D01*
X144226278Y-96190701D01*
X144171514Y-96238929D01*
X144121105Y-96289306D01*
X144074376Y-96342407D01*
X144050708Y-96372065D01*
X144043652Y-96381207D01*
X144010115Y-96374545D01*
X143905111Y-96357064D01*
X143800670Y-96346504D01*
X143696185Y-96342829D01*
X143591051Y-96346003D01*
X143565639Y-96347781D01*
X143476315Y-96355483D01*
X143380454Y-96365227D01*
X143278260Y-96376976D01*
X143169938Y-96390696D01*
X143055693Y-96406351D01*
X142935730Y-96423906D01*
X142810255Y-96443324D01*
X142679472Y-96464572D01*
X142543586Y-96487612D01*
X142402803Y-96512411D01*
X142257327Y-96538932D01*
X142107364Y-96567140D01*
X141953118Y-96597000D01*
X141794795Y-96628475D01*
X141632599Y-96661532D01*
X141466736Y-96696134D01*
X141297411Y-96732246D01*
X141132917Y-96768054D01*
X141097460Y-96775781D01*
X141063672Y-96783018D01*
X141032256Y-96789622D01*
X141003918Y-96795450D01*
X140979361Y-96800362D01*
X140959289Y-96804215D01*
X140944405Y-96806866D01*
X140935414Y-96808175D01*
X140933598Y-96808290D01*
X140909147Y-96804675D01*
X140886980Y-96794511D01*
X140867535Y-96778060D01*
X140854702Y-96761286D01*
X140838780Y-96735399D01*
X140820592Y-96704138D01*
X140800727Y-96668579D01*
X140779771Y-96629801D01*
X140758313Y-96588881D01*
X140736942Y-96546897D01*
X140729276Y-96531514D01*
X140699467Y-96469709D01*
X140673848Y-96412992D01*
X140652264Y-96360887D01*
X140634563Y-96312923D01*
X140620590Y-96268624D01*
X140610193Y-96227519D01*
X140603217Y-96189132D01*
X140599510Y-96152991D01*
X140598777Y-96128983D01*
X140600145Y-96094342D01*
X140604397Y-96065176D01*
X140611755Y-96040426D01*
X140621593Y-96020424D01*
X140634628Y-96001592D01*
X140648849Y-95987493D01*
X140666578Y-95975897D01*
X140669484Y-95974339D01*
X140679830Y-95969332D01*
X140691198Y-95964744D01*
X140703951Y-95960546D01*
X140718458Y-95956705D01*
X140735082Y-95953194D01*
X140754189Y-95949981D01*
X140776146Y-95947036D01*
X140801318Y-95944329D01*
X140830071Y-95941830D01*
X140862770Y-95939509D01*
X140899781Y-95937336D01*
X140941470Y-95935280D01*
X140988202Y-95933311D01*
X141040343Y-95931399D01*
X141098258Y-95929514D01*
X141162315Y-95927626D01*
X141232877Y-95925704D01*
X141270819Y-95924718D01*
X141390445Y-95921488D01*
X141503553Y-95918085D01*
X141610678Y-95914475D01*
X141712355Y-95910628D01*
X141809122Y-95906510D01*
X141901513Y-95902090D01*
X141990063Y-95897336D01*
X142075310Y-95892214D01*
X142157788Y-95886694D01*
X142238033Y-95880742D01*
X142316580Y-95874327D01*
X142393967Y-95867417D01*
X142470727Y-95859978D01*
X142547397Y-95851980D01*
X142624513Y-95843389D01*
X142625486Y-95843277D01*
X142763235Y-95826333D01*
X142896484Y-95807586D01*
X143026451Y-95786784D01*
X143154351Y-95763675D01*
X143281401Y-95738007D01*
X143408819Y-95709526D01*
X143537819Y-95677982D01*
X143669619Y-95643120D01*
X143805436Y-95604690D01*
X143875899Y-95583857D01*
X143903013Y-95575584D01*
X143934899Y-95565606D01*
X143970718Y-95554201D01*
X144009633Y-95541650D01*
X144050805Y-95528232D01*
X144093394Y-95514228D01*
X144136562Y-95499918D01*
X144179470Y-95485581D01*
X144221280Y-95471497D01*
X144261153Y-95457946D01*
X144298249Y-95445209D01*
X144331732Y-95433564D01*
X144360761Y-95423293D01*
X144384498Y-95414674D01*
X144397675Y-95409713D01*
X144444100Y-95391286D01*
X144490948Y-95371545D01*
X144538828Y-95350186D01*
X144588350Y-95326901D01*
X144640123Y-95301386D01*
X144694756Y-95273335D01*
X144752858Y-95242442D01*
X144815038Y-95208402D01*
X144881907Y-95170909D01*
X144941472Y-95136910D01*
X144973123Y-95118718D01*
X145008627Y-95098314D01*
X145046031Y-95076819D01*
X145083382Y-95055357D01*
X145118729Y-95035047D01*
X145150118Y-95017013D01*
X145153139Y-95015278D01*
X145227849Y-94972772D01*
X145297389Y-94934140D01*
X145362334Y-94899168D01*
X145423262Y-94867639D01*
X145480751Y-94839338D01*
X145535377Y-94814050D01*
X145587718Y-94791558D01*
X145638351Y-94771647D01*
X145687854Y-94754102D01*
X145736803Y-94738706D01*
X145785776Y-94725245D01*
X145835351Y-94713502D01*
X145886104Y-94703262D01*
X145938613Y-94694309D01*
X145993455Y-94686427D01*
X146051208Y-94679402D01*
X146052722Y-94679232D01*
X146071307Y-94677595D01*
X146095594Y-94676128D01*
X146124379Y-94674848D01*
X146156463Y-94673773D01*
X146190643Y-94672922D01*
X146225718Y-94672312D01*
X146260487Y-94671963D01*
X146293747Y-94671892D01*
X146324298Y-94672118D01*
X146350938Y-94672658D01*
X146372466Y-94673531D01*
X146382569Y-94674234D01*
X146478563Y-94685204D01*
X146571409Y-94701056D01*
X146660643Y-94721660D01*
X146745801Y-94746888D01*
X146826420Y-94776610D01*
X146902037Y-94810697D01*
X146936430Y-94828577D01*
X147020501Y-94878253D01*
X147101994Y-94934386D01*
X147180929Y-94996997D01*
X147257324Y-95066107D01*
X147331200Y-95141736D01*
X147402576Y-95223905D01*
X147471472Y-95312634D01*
X147537908Y-95407943D01*
X147601902Y-95509855D01*
X147625857Y-95550792D01*
X147675664Y-95642199D01*
X147720843Y-95735005D01*
X147761856Y-95830331D01*
X147799166Y-95929298D01*
X147833236Y-96033027D01*
X147853682Y-96102889D01*
X147871937Y-96168153D01*
X147996850Y-96218735D01*
X148029199Y-96231836D01*
X148063280Y-96245640D01*
X148097629Y-96259554D01*
X148130782Y-96272987D01*
X148161275Y-96285343D01*
X148187644Y-96296030D01*
X148201875Y-96301800D01*
X148281987Y-96334281D01*
X147907301Y-96669097D01*
X147892025Y-96714958D01*
X147872029Y-96767442D01*
X147846641Y-96821696D01*
X147816710Y-96876197D01*
X147783084Y-96929420D01*
X147746609Y-96979841D01*
X147739923Y-96988356D01*
X147724812Y-97006309D01*
X147705545Y-97027606D01*
X147683346Y-97051024D01*
X147659439Y-97075341D01*
X147635047Y-97099337D01*
X147611394Y-97121787D01*
X147589703Y-97141471D01*
X147571198Y-97157166D01*
X147569666Y-97158392D01*
X147493729Y-97214313D01*
X147413325Y-97264798D01*
X147328512Y-97309823D01*
X147239352Y-97349364D01*
X147145903Y-97383397D01*
X147048224Y-97411899D01*
X146946376Y-97434845D01*
X146840418Y-97452211D01*
X146839416Y-97452346D01*
X146810441Y-97455469D01*
X146776492Y-97457869D01*
X146739617Y-97459500D01*
X146701867Y-97460312D01*
X146665290Y-97460258D01*
X146665290Y-97460258D01*
G37*
X146665290Y-97460258D02*
X146631935Y-97459289D01*
X146608347Y-97457772D01*
X146528211Y-97448045D01*
X146446242Y-97432747D01*
X146364299Y-97412319D01*
X146284242Y-97387204D01*
X146236459Y-97369507D01*
X146193653Y-97352518D01*
X146151404Y-97335461D01*
X146109333Y-97318161D01*
X146067061Y-97300442D01*
X146024211Y-97282126D01*
X145980405Y-97263039D01*
X145935264Y-97243005D01*
X145888411Y-97221846D01*
X145839467Y-97199388D01*
X145788055Y-97175454D01*
X145733796Y-97149868D01*
X145676313Y-97122454D01*
X145615226Y-97093036D01*
X145550159Y-97061438D01*
X145480732Y-97027483D01*
X145406569Y-96990997D01*
X145327290Y-96951802D01*
X145242519Y-96909723D01*
X145151876Y-96864583D01*
X145147847Y-96862574D01*
X145068054Y-96822875D01*
X144993999Y-96786242D01*
X144925184Y-96752447D01*
X144861109Y-96721260D01*
X144801275Y-96692449D01*
X144745183Y-96665787D01*
X144692334Y-96641043D01*
X144642228Y-96617986D01*
X144594366Y-96596388D01*
X144548250Y-96576018D01*
X144503379Y-96556646D01*
X144459255Y-96538044D01*
X144415379Y-96519979D01*
X144371251Y-96502224D01*
X144329402Y-96485731D01*
X144305757Y-96476470D01*
X144284119Y-96467942D01*
X144265406Y-96460513D01*
X144250536Y-96454550D01*
X144240427Y-96450417D01*
X144236028Y-96448499D01*
X144235012Y-96446135D01*
X144237368Y-96441355D01*
X144243589Y-96433517D01*
X144254163Y-96421977D01*
X144264250Y-96411526D01*
X144321445Y-96357400D01*
X144385245Y-96305243D01*
X144455449Y-96255154D01*
X144531860Y-96207231D01*
X144614277Y-96161575D01*
X144702502Y-96118283D01*
X144796335Y-96077454D01*
X144895578Y-96039188D01*
X145000031Y-96003583D01*
X145109496Y-95970738D01*
X145200764Y-95946460D01*
X145308347Y-95920864D01*
X145410430Y-95899602D01*
X145507082Y-95882675D01*
X145598371Y-95870084D01*
X145684364Y-95861830D01*
X145765130Y-95857912D01*
X145840736Y-95858332D01*
X145911252Y-95863090D01*
X145976744Y-95872186D01*
X146037281Y-95885622D01*
X146092931Y-95903398D01*
X146143763Y-95925514D01*
X146189843Y-95951971D01*
X146194717Y-95955208D01*
X146213433Y-95969288D01*
X146234023Y-95987185D01*
X146254538Y-96007011D01*
X146273025Y-96026879D01*
X146287533Y-96044902D01*
X146287751Y-96045204D01*
X146309357Y-96080310D01*
X146327636Y-96120075D01*
X146341932Y-96162631D01*
X146351593Y-96206109D01*
X146355437Y-96238678D01*
X146357875Y-96273925D01*
X146423139Y-96279849D01*
X146444400Y-96281753D01*
X146463696Y-96283435D01*
X146479741Y-96284785D01*
X146491249Y-96285695D01*
X146496772Y-96286053D01*
X146502501Y-96286873D01*
X146502138Y-96289827D01*
X146500300Y-96292220D01*
X146497794Y-96295954D01*
X146499753Y-96296938D01*
X146507348Y-96295698D01*
X146507805Y-96295605D01*
X146536598Y-96289982D01*
X146570557Y-96283695D01*
X146607859Y-96277058D01*
X146646684Y-96270382D01*
X146685209Y-96263981D01*
X146721612Y-96258168D01*
X146754071Y-96253255D01*
X146756514Y-96252900D01*
X146837088Y-96242004D01*
X146911979Y-96233581D01*
X146982120Y-96227657D01*
X147048445Y-96224256D01*
X147111888Y-96223404D01*
X147173383Y-96225126D01*
X147233863Y-96229448D01*
X147294262Y-96236394D01*
X147355514Y-96245989D01*
X147418553Y-96258259D01*
X147480978Y-96272424D01*
X147501219Y-96277449D01*
X147523929Y-96283342D01*
X147548117Y-96289819D01*
X147572791Y-96296596D01*
X147596960Y-96303392D01*
X147619632Y-96309921D01*
X147639815Y-96315901D01*
X147656517Y-96321048D01*
X147668746Y-96325079D01*
X147675512Y-96327711D01*
X147676434Y-96328276D01*
X147677209Y-96332024D01*
X147678639Y-96341845D01*
X147680615Y-96356799D01*
X147683029Y-96375945D01*
X147685770Y-96398342D01*
X147688729Y-96423050D01*
X147691797Y-96449129D01*
X147694865Y-96475637D01*
X147697823Y-96501634D01*
X147700562Y-96526179D01*
X147702973Y-96548332D01*
X147704947Y-96567152D01*
X147706374Y-96581699D01*
X147707144Y-96591031D01*
X147707250Y-96593487D01*
X147704019Y-96595108D01*
X147695262Y-96597686D01*
X147682379Y-96600842D01*
X147669326Y-96603680D01*
X147557157Y-96627906D01*
X147449123Y-96653430D01*
X147345650Y-96680130D01*
X147247164Y-96707881D01*
X147154093Y-96736557D01*
X147066864Y-96766034D01*
X146985903Y-96796188D01*
X146925127Y-96821059D01*
X146828646Y-96865567D01*
X146737174Y-96914493D01*
X146649820Y-96968386D01*
X146565692Y-97027798D01*
X146483992Y-97093199D01*
X146467703Y-97107269D01*
X146450223Y-97122791D01*
X146432330Y-97139027D01*
X146414803Y-97155240D01*
X146398420Y-97170693D01*
X146383959Y-97184651D01*
X146372200Y-97196375D01*
X146363920Y-97205130D01*
X146359899Y-97210178D01*
X146359639Y-97210885D01*
X146362890Y-97213383D01*
X146371928Y-97217197D01*
X146385675Y-97221999D01*
X146403056Y-97227465D01*
X146422995Y-97233268D01*
X146444414Y-97239083D01*
X146466239Y-97244583D01*
X146485816Y-97249099D01*
X146555040Y-97262078D01*
X146621946Y-97270010D01*
X146688161Y-97272933D01*
X146755315Y-97270885D01*
X146825037Y-97263904D01*
X146865507Y-97257904D01*
X146961820Y-97239144D01*
X147053589Y-97215193D01*
X147140752Y-97186083D01*
X147223244Y-97151842D01*
X147301004Y-97112501D01*
X147373968Y-97068091D01*
X147442074Y-97018641D01*
X147505258Y-96964182D01*
X147530861Y-96939269D01*
X147581506Y-96883905D01*
X147625550Y-96826720D01*
X147662899Y-96767852D01*
X147693461Y-96707440D01*
X147707205Y-96673972D01*
X147718693Y-96643568D01*
X147864737Y-96505004D01*
X147891511Y-96479532D01*
X147916628Y-96455501D01*
X147939640Y-96433348D01*
X147960100Y-96413510D01*
X147977562Y-96396425D01*
X147991579Y-96382528D01*
X148001702Y-96372258D01*
X148007486Y-96366050D01*
X148008698Y-96364310D01*
X148005158Y-96362487D01*
X147995802Y-96358073D01*
X147981260Y-96351355D01*
X147962158Y-96342619D01*
X147939124Y-96332151D01*
X147912788Y-96320237D01*
X147883775Y-96307163D01*
X147852714Y-96293216D01*
X147849166Y-96291625D01*
X147691717Y-96221069D01*
X147671603Y-96150514D01*
X147657574Y-96102439D01*
X147643876Y-96058060D01*
X147629524Y-96014307D01*
X147613531Y-95968106D01*
X147608362Y-95953578D01*
X147601696Y-95935504D01*
X147596499Y-95923023D01*
X147592163Y-95914987D01*
X147588080Y-95910245D01*
X147584199Y-95907879D01*
X147577666Y-95906626D01*
X147565062Y-95905601D01*
X147547368Y-95904802D01*
X147525564Y-95904229D01*
X147500632Y-95903880D01*
X147473552Y-95903754D01*
X147445306Y-95903850D01*
X147416873Y-95904167D01*
X147389235Y-95904703D01*
X147363373Y-95905458D01*
X147340267Y-95906430D01*
X147320899Y-95907618D01*
X147313902Y-95908200D01*
X147271385Y-95912361D01*
X147227563Y-95917080D01*
X147183322Y-95922233D01*
X147139551Y-95927696D01*
X147097136Y-95933346D01*
X147056963Y-95939060D01*
X147019921Y-95944713D01*
X146986895Y-95950182D01*
X146958772Y-95955343D01*
X146936440Y-95960073D01*
X146929375Y-95961804D01*
X146872949Y-95979812D01*
X146816741Y-96004445D01*
X146761381Y-96035284D01*
X146707497Y-96071912D01*
X146655717Y-96113909D01*
X146606669Y-96160858D01*
X146570769Y-96200581D01*
X146559618Y-96213635D01*
X146552188Y-96221871D01*
X146547683Y-96225892D01*
X146545304Y-96226297D01*
X146544256Y-96223688D01*
X146543924Y-96220823D01*
X146535072Y-96158971D01*
X146519875Y-96098805D01*
X146498633Y-96040975D01*
X146471645Y-95986132D01*
X146439208Y-95934925D01*
X146401622Y-95888006D01*
X146381130Y-95866494D01*
X146333980Y-95824625D01*
X146282120Y-95787761D01*
X146225523Y-95755897D01*
X146164164Y-95729028D01*
X146098016Y-95707153D01*
X146027053Y-95690265D01*
X145951250Y-95678361D01*
X145870581Y-95671438D01*
X145785019Y-95669490D01*
X145694540Y-95672514D01*
X145599116Y-95680507D01*
X145498723Y-95693463D01*
X145393334Y-95711379D01*
X145391264Y-95711771D01*
X145257960Y-95739285D01*
X145129390Y-95770322D01*
X145005778Y-95804802D01*
X144887350Y-95842646D01*
X144774328Y-95883775D01*
X144666937Y-95928109D01*
X144565403Y-95975571D01*
X144469948Y-96026080D01*
X144423444Y-96053129D01*
X144351568Y-96098378D01*
X144286071Y-96144043D01*
X144226278Y-96190701D01*
X144171514Y-96238929D01*
X144121105Y-96289306D01*
X144074376Y-96342407D01*
X144050708Y-96372065D01*
X144043652Y-96381207D01*
X144010115Y-96374545D01*
X143905111Y-96357064D01*
X143800670Y-96346504D01*
X143696185Y-96342829D01*
X143591051Y-96346003D01*
X143565639Y-96347781D01*
X143476315Y-96355483D01*
X143380454Y-96365227D01*
X143278260Y-96376976D01*
X143169938Y-96390696D01*
X143055693Y-96406351D01*
X142935730Y-96423906D01*
X142810255Y-96443324D01*
X142679472Y-96464572D01*
X142543586Y-96487612D01*
X142402803Y-96512411D01*
X142257327Y-96538932D01*
X142107364Y-96567140D01*
X141953118Y-96597000D01*
X141794795Y-96628475D01*
X141632599Y-96661532D01*
X141466736Y-96696134D01*
X141297411Y-96732246D01*
X141132917Y-96768054D01*
X141097460Y-96775781D01*
X141063672Y-96783018D01*
X141032256Y-96789622D01*
X141003918Y-96795450D01*
X140979361Y-96800362D01*
X140959289Y-96804215D01*
X140944405Y-96806866D01*
X140935414Y-96808175D01*
X140933598Y-96808290D01*
X140909147Y-96804675D01*
X140886980Y-96794511D01*
X140867535Y-96778060D01*
X140854702Y-96761286D01*
X140838780Y-96735399D01*
X140820592Y-96704138D01*
X140800727Y-96668579D01*
X140779771Y-96629801D01*
X140758313Y-96588881D01*
X140736942Y-96546897D01*
X140729276Y-96531514D01*
X140699467Y-96469709D01*
X140673848Y-96412992D01*
X140652264Y-96360887D01*
X140634563Y-96312923D01*
X140620590Y-96268624D01*
X140610193Y-96227519D01*
X140603217Y-96189132D01*
X140599510Y-96152991D01*
X140598777Y-96128983D01*
X140600145Y-96094342D01*
X140604397Y-96065176D01*
X140611755Y-96040426D01*
X140621593Y-96020424D01*
X140634628Y-96001592D01*
X140648849Y-95987493D01*
X140666578Y-95975897D01*
X140669484Y-95974339D01*
X140679830Y-95969332D01*
X140691198Y-95964744D01*
X140703951Y-95960546D01*
X140718458Y-95956705D01*
X140735082Y-95953194D01*
X140754189Y-95949981D01*
X140776146Y-95947036D01*
X140801318Y-95944329D01*
X140830071Y-95941830D01*
X140862770Y-95939509D01*
X140899781Y-95937336D01*
X140941470Y-95935280D01*
X140988202Y-95933311D01*
X141040343Y-95931399D01*
X141098258Y-95929514D01*
X141162315Y-95927626D01*
X141232877Y-95925704D01*
X141270819Y-95924718D01*
X141390445Y-95921488D01*
X141503553Y-95918085D01*
X141610678Y-95914475D01*
X141712355Y-95910628D01*
X141809122Y-95906510D01*
X141901513Y-95902090D01*
X141990063Y-95897336D01*
X142075310Y-95892214D01*
X142157788Y-95886694D01*
X142238033Y-95880742D01*
X142316580Y-95874327D01*
X142393967Y-95867417D01*
X142470727Y-95859978D01*
X142547397Y-95851980D01*
X142624513Y-95843389D01*
X142625486Y-95843277D01*
X142763235Y-95826333D01*
X142896484Y-95807586D01*
X143026451Y-95786784D01*
X143154351Y-95763675D01*
X143281401Y-95738007D01*
X143408819Y-95709526D01*
X143537819Y-95677982D01*
X143669619Y-95643120D01*
X143805436Y-95604690D01*
X143875899Y-95583857D01*
X143903013Y-95575584D01*
X143934899Y-95565606D01*
X143970718Y-95554201D01*
X144009633Y-95541650D01*
X144050805Y-95528232D01*
X144093394Y-95514228D01*
X144136562Y-95499918D01*
X144179470Y-95485581D01*
X144221280Y-95471497D01*
X144261153Y-95457946D01*
X144298249Y-95445209D01*
X144331732Y-95433564D01*
X144360761Y-95423293D01*
X144384498Y-95414674D01*
X144397675Y-95409713D01*
X144444100Y-95391286D01*
X144490948Y-95371545D01*
X144538828Y-95350186D01*
X144588350Y-95326901D01*
X144640123Y-95301386D01*
X144694756Y-95273335D01*
X144752858Y-95242442D01*
X144815038Y-95208402D01*
X144881907Y-95170909D01*
X144941472Y-95136910D01*
X144973123Y-95118718D01*
X145008627Y-95098314D01*
X145046031Y-95076819D01*
X145083382Y-95055357D01*
X145118729Y-95035047D01*
X145150118Y-95017013D01*
X145153139Y-95015278D01*
X145227849Y-94972772D01*
X145297389Y-94934140D01*
X145362334Y-94899168D01*
X145423262Y-94867639D01*
X145480751Y-94839338D01*
X145535377Y-94814050D01*
X145587718Y-94791558D01*
X145638351Y-94771647D01*
X145687854Y-94754102D01*
X145736803Y-94738706D01*
X145785776Y-94725245D01*
X145835351Y-94713502D01*
X145886104Y-94703262D01*
X145938613Y-94694309D01*
X145993455Y-94686427D01*
X146051208Y-94679402D01*
X146052722Y-94679232D01*
X146071307Y-94677595D01*
X146095594Y-94676128D01*
X146124379Y-94674848D01*
X146156463Y-94673773D01*
X146190643Y-94672922D01*
X146225718Y-94672312D01*
X146260487Y-94671963D01*
X146293747Y-94671892D01*
X146324298Y-94672118D01*
X146350938Y-94672658D01*
X146372466Y-94673531D01*
X146382569Y-94674234D01*
X146478563Y-94685204D01*
X146571409Y-94701056D01*
X146660643Y-94721660D01*
X146745801Y-94746888D01*
X146826420Y-94776610D01*
X146902037Y-94810697D01*
X146936430Y-94828577D01*
X147020501Y-94878253D01*
X147101994Y-94934386D01*
X147180929Y-94996997D01*
X147257324Y-95066107D01*
X147331200Y-95141736D01*
X147402576Y-95223905D01*
X147471472Y-95312634D01*
X147537908Y-95407943D01*
X147601902Y-95509855D01*
X147625857Y-95550792D01*
X147675664Y-95642199D01*
X147720843Y-95735005D01*
X147761856Y-95830331D01*
X147799166Y-95929298D01*
X147833236Y-96033027D01*
X147853682Y-96102889D01*
X147871937Y-96168153D01*
X147996850Y-96218735D01*
X148029199Y-96231836D01*
X148063280Y-96245640D01*
X148097629Y-96259554D01*
X148130782Y-96272987D01*
X148161275Y-96285343D01*
X148187644Y-96296030D01*
X148201875Y-96301800D01*
X148281987Y-96334281D01*
X147907301Y-96669097D01*
X147892025Y-96714958D01*
X147872029Y-96767442D01*
X147846641Y-96821696D01*
X147816710Y-96876197D01*
X147783084Y-96929420D01*
X147746609Y-96979841D01*
X147739923Y-96988356D01*
X147724812Y-97006309D01*
X147705545Y-97027606D01*
X147683346Y-97051024D01*
X147659439Y-97075341D01*
X147635047Y-97099337D01*
X147611394Y-97121787D01*
X147589703Y-97141471D01*
X147571198Y-97157166D01*
X147569666Y-97158392D01*
X147493729Y-97214313D01*
X147413325Y-97264798D01*
X147328512Y-97309823D01*
X147239352Y-97349364D01*
X147145903Y-97383397D01*
X147048224Y-97411899D01*
X146946376Y-97434845D01*
X146840418Y-97452211D01*
X146839416Y-97452346D01*
X146810441Y-97455469D01*
X146776492Y-97457869D01*
X146739617Y-97459500D01*
X146701867Y-97460312D01*
X146665290Y-97460258D01*
D12*
X132056667Y-95378571D02*
X131723333Y-95378571D01*
X131723333Y-95902381D02*
X131723333Y-94902381D01*
X132199524Y-94902381D01*
X132532857Y-94997619D02*
X132580476Y-94950000D01*
X132675714Y-94902381D01*
X132913810Y-94902381D01*
X133009048Y-94950000D01*
X133056667Y-94997619D01*
X133104286Y-95092857D01*
X133104286Y-95188095D01*
X133056667Y-95330952D01*
X132485238Y-95902381D01*
X133104286Y-95902381D01*
X162266667Y-120608571D02*
X161933333Y-120608571D01*
X161933333Y-121132381D02*
X161933333Y-120132381D01*
X162409524Y-120132381D01*
X162695238Y-120132381D02*
X163314286Y-120132381D01*
X162980952Y-120513333D01*
X163123810Y-120513333D01*
X163219048Y-120560952D01*
X163266667Y-120608571D01*
X163314286Y-120703810D01*
X163314286Y-120941905D01*
X163266667Y-121037143D01*
X163219048Y-121084762D01*
X163123810Y-121132381D01*
X162838095Y-121132381D01*
X162742857Y-121084762D01*
X162695238Y-121037143D01*
X146457143Y-113766666D02*
X146504762Y-113814285D01*
X146552381Y-113957142D01*
X146552381Y-114052380D01*
X146504762Y-114195238D01*
X146409524Y-114290476D01*
X146314286Y-114338095D01*
X146123810Y-114385714D01*
X145980952Y-114385714D01*
X145790476Y-114338095D01*
X145695238Y-114290476D01*
X145600000Y-114195238D01*
X145552381Y-114052380D01*
X145552381Y-113957142D01*
X145600000Y-113814285D01*
X145647619Y-113766666D01*
X146552381Y-112814285D02*
X146552381Y-113385714D01*
X146552381Y-113100000D02*
X145552381Y-113100000D01*
X145695238Y-113195238D01*
X145790476Y-113290476D01*
X145838095Y-113385714D01*
X135757143Y-113516666D02*
X135804762Y-113564285D01*
X135852381Y-113707142D01*
X135852381Y-113802380D01*
X135804762Y-113945238D01*
X135709524Y-114040476D01*
X135614286Y-114088095D01*
X135423810Y-114135714D01*
X135280952Y-114135714D01*
X135090476Y-114088095D01*
X134995238Y-114040476D01*
X134900000Y-113945238D01*
X134852381Y-113802380D01*
X134852381Y-113707142D01*
X134900000Y-113564285D01*
X134947619Y-113516666D01*
X134947619Y-113135714D02*
X134900000Y-113088095D01*
X134852381Y-112992857D01*
X134852381Y-112754761D01*
X134900000Y-112659523D01*
X134947619Y-112611904D01*
X135042857Y-112564285D01*
X135138095Y-112564285D01*
X135280952Y-112611904D01*
X135852381Y-113183333D01*
X135852381Y-112564285D01*
X139952381Y-118766666D02*
X139476190Y-119100000D01*
X139952381Y-119338095D02*
X138952381Y-119338095D01*
X138952381Y-118957142D01*
X139000000Y-118861904D01*
X139047619Y-118814285D01*
X139142857Y-118766666D01*
X139285714Y-118766666D01*
X139380952Y-118814285D01*
X139428571Y-118861904D01*
X139476190Y-118957142D01*
X139476190Y-119338095D01*
X139952381Y-117814285D02*
X139952381Y-118385714D01*
X139952381Y-118100000D02*
X138952381Y-118100000D01*
X139095238Y-118195238D01*
X139190476Y-118290476D01*
X139238095Y-118385714D01*
X143052381Y-118766666D02*
X142576190Y-119100000D01*
X143052381Y-119338095D02*
X142052381Y-119338095D01*
X142052381Y-118957142D01*
X142100000Y-118861904D01*
X142147619Y-118814285D01*
X142242857Y-118766666D01*
X142385714Y-118766666D01*
X142480952Y-118814285D01*
X142528571Y-118861904D01*
X142576190Y-118957142D01*
X142576190Y-119338095D01*
X142147619Y-118385714D02*
X142100000Y-118338095D01*
X142052381Y-118242857D01*
X142052381Y-118004761D01*
X142100000Y-117909523D01*
X142147619Y-117861904D01*
X142242857Y-117814285D01*
X142338095Y-117814285D01*
X142480952Y-117861904D01*
X143052381Y-118433333D01*
X143052381Y-117814285D01*
X139588095Y-115352381D02*
X139588095Y-116161905D01*
X139635714Y-116257143D01*
X139683333Y-116304762D01*
X139778571Y-116352381D01*
X139969048Y-116352381D01*
X140064286Y-116304762D01*
X140111905Y-116257143D01*
X140159524Y-116161905D01*
X140159524Y-115352381D01*
X141159524Y-116352381D02*
X140588095Y-116352381D01*
X140873809Y-116352381D02*
X140873809Y-115352381D01*
X140778571Y-115495238D01*
X140683333Y-115590476D01*
X140588095Y-115638095D01*
X132386667Y-120708571D02*
X132053333Y-120708571D01*
X132053333Y-121232381D02*
X132053333Y-120232381D01*
X132529524Y-120232381D01*
X133434286Y-121232381D02*
X132862857Y-121232381D01*
X133148571Y-121232381D02*
X133148571Y-120232381D01*
X133053333Y-120375238D01*
X132958095Y-120470476D01*
X132862857Y-120518095D01*
M02*
