G04 #@! TF.FileFunction,Legend,Top*
%FSLAX46Y46*%
G04 Gerber Fmt 4.6, Leading zero omitted, Abs format (unit mm)*
G04 Created by KiCad (PCBNEW 4.0.1-stable) date Tuesday, May 31, 2016 'PMt' 10:55:08 PM*
%MOMM*%
G01*
G04 APERTURE LIST*
%ADD10C,0.100000*%
%ADD11C,0.200000*%
%ADD12C,0.150000*%
%ADD13C,0.010000*%
G04 APERTURE END LIST*
D10*
D11*
X130994048Y-101167857D02*
X130934524Y-101048810D01*
X130934524Y-100810714D01*
X130994048Y-100691667D01*
X131053571Y-100632143D01*
X131172619Y-100572619D01*
X131529762Y-100572619D01*
X131648810Y-100632143D01*
X131708333Y-100691667D01*
X131767857Y-100810714D01*
X131767857Y-101048810D01*
X131708333Y-101167857D01*
X130934524Y-101703572D02*
X132184524Y-101703572D01*
X131410714Y-101822620D02*
X130934524Y-102179763D01*
X131767857Y-102179763D02*
X131291667Y-101703572D01*
X130934524Y-103251191D02*
X132184524Y-103251191D01*
X130994048Y-103251191D02*
X130934524Y-103132144D01*
X130934524Y-102894048D01*
X130994048Y-102775001D01*
X131053571Y-102715477D01*
X131172619Y-102655953D01*
X131529762Y-102655953D01*
X131648810Y-102715477D01*
X131708333Y-102775001D01*
X131767857Y-102894048D01*
X131767857Y-103132144D01*
X131708333Y-103251191D01*
X131053571Y-103846429D02*
X130994048Y-103905953D01*
X130934524Y-103846429D01*
X130994048Y-103786905D01*
X131053571Y-103846429D01*
X130934524Y-103846429D01*
X131767857Y-104263096D02*
X131767857Y-104739286D01*
X132184524Y-104441667D02*
X131113095Y-104441667D01*
X130994048Y-104501191D01*
X130934524Y-104620238D01*
X130934524Y-104739286D01*
X130994048Y-105632144D02*
X130934524Y-105513096D01*
X130934524Y-105275001D01*
X130994048Y-105155953D01*
X131113095Y-105096429D01*
X131589286Y-105096429D01*
X131708333Y-105155953D01*
X131767857Y-105275001D01*
X131767857Y-105513096D01*
X131708333Y-105632144D01*
X131589286Y-105691667D01*
X131470238Y-105691667D01*
X131351190Y-105096429D01*
X130994048Y-106763096D02*
X130934524Y-106644049D01*
X130934524Y-106405953D01*
X130994048Y-106286906D01*
X131053571Y-106227382D01*
X131172619Y-106167858D01*
X131529762Y-106167858D01*
X131648810Y-106227382D01*
X131708333Y-106286906D01*
X131767857Y-106405953D01*
X131767857Y-106644049D01*
X131708333Y-106763096D01*
X130934524Y-107298811D02*
X132184524Y-107298811D01*
X130934524Y-107834525D02*
X131589286Y-107834525D01*
X131708333Y-107775002D01*
X131767857Y-107655954D01*
X131767857Y-107477382D01*
X131708333Y-107358335D01*
X131648810Y-107298811D01*
X132244048Y-109322620D02*
X130636905Y-108251192D01*
X131767857Y-110275001D02*
X130934524Y-110275001D01*
X131767857Y-109739287D02*
X131113095Y-109739287D01*
X130994048Y-109798811D01*
X130934524Y-109917858D01*
X130934524Y-110096430D01*
X130994048Y-110215478D01*
X131053571Y-110275001D01*
X130994048Y-110810715D02*
X130934524Y-110989287D01*
X130934524Y-111286906D01*
X130994048Y-111405953D01*
X131053571Y-111465477D01*
X131172619Y-111525001D01*
X131291667Y-111525001D01*
X131410714Y-111465477D01*
X131470238Y-111405953D01*
X131529762Y-111286906D01*
X131589286Y-111048810D01*
X131648810Y-110929763D01*
X131708333Y-110870239D01*
X131827381Y-110810715D01*
X131946429Y-110810715D01*
X132065476Y-110870239D01*
X132125000Y-110929763D01*
X132184524Y-111048810D01*
X132184524Y-111346430D01*
X132125000Y-111525001D01*
X130934524Y-112060715D02*
X132184524Y-112060715D01*
X132184524Y-112358334D01*
X132125000Y-112536906D01*
X132005952Y-112655953D01*
X131886905Y-112715477D01*
X131648810Y-112775001D01*
X131470238Y-112775001D01*
X131232143Y-112715477D01*
X131113095Y-112655953D01*
X130994048Y-112536906D01*
X130934524Y-112358334D01*
X130934524Y-112060715D01*
X132244048Y-114203572D02*
X130636905Y-113132144D01*
X131767857Y-114501191D02*
X130934524Y-114798810D01*
X131767857Y-115096430D01*
X131767857Y-116108334D02*
X130934524Y-116108334D01*
X132244048Y-115810715D02*
X131351190Y-115513096D01*
X131351190Y-116286906D01*
D12*
X142904762Y-125676191D02*
X142952381Y-125533334D01*
X142952381Y-125295238D01*
X142904762Y-125200000D01*
X142857143Y-125152381D01*
X142761905Y-125104762D01*
X142666667Y-125104762D01*
X142571429Y-125152381D01*
X142523810Y-125200000D01*
X142476190Y-125295238D01*
X142428571Y-125485715D01*
X142380952Y-125580953D01*
X142333333Y-125628572D01*
X142238095Y-125676191D01*
X142142857Y-125676191D01*
X142047619Y-125628572D01*
X142000000Y-125580953D01*
X141952381Y-125485715D01*
X141952381Y-125247619D01*
X142000000Y-125104762D01*
X141952381Y-124819048D02*
X141952381Y-124247619D01*
X142952381Y-124533334D02*
X141952381Y-124533334D01*
X142666667Y-123961905D02*
X142666667Y-123485714D01*
X142952381Y-124057143D02*
X141952381Y-123723810D01*
X142952381Y-123390476D01*
X141952381Y-123200000D02*
X141952381Y-122628571D01*
X142952381Y-122914286D02*
X141952381Y-122914286D01*
X141952381Y-122295238D02*
X142761905Y-122295238D01*
X142857143Y-122247619D01*
X142904762Y-122200000D01*
X142952381Y-122104762D01*
X142952381Y-121914285D01*
X142904762Y-121819047D01*
X142857143Y-121771428D01*
X142761905Y-121723809D01*
X141952381Y-121723809D01*
X142904762Y-121295238D02*
X142952381Y-121152381D01*
X142952381Y-120914285D01*
X142904762Y-120819047D01*
X142857143Y-120771428D01*
X142761905Y-120723809D01*
X142666667Y-120723809D01*
X142571429Y-120771428D01*
X142523810Y-120819047D01*
X142476190Y-120914285D01*
X142428571Y-121104762D01*
X142380952Y-121200000D01*
X142333333Y-121247619D01*
X142238095Y-121295238D01*
X142142857Y-121295238D01*
X142047619Y-121247619D01*
X142000000Y-121200000D01*
X141952381Y-121104762D01*
X141952381Y-120866666D01*
X142000000Y-120723809D01*
X139952381Y-125333333D02*
X138952381Y-125333333D01*
X138952381Y-124952380D01*
X139000000Y-124857142D01*
X139047619Y-124809523D01*
X139142857Y-124761904D01*
X139285714Y-124761904D01*
X139380952Y-124809523D01*
X139428571Y-124857142D01*
X139476190Y-124952380D01*
X139476190Y-125333333D01*
X138952381Y-124428571D02*
X139952381Y-124190476D01*
X139238095Y-123999999D01*
X139952381Y-123809523D01*
X138952381Y-123571428D01*
X139952381Y-122619047D02*
X139476190Y-122952381D01*
X139952381Y-123190476D02*
X138952381Y-123190476D01*
X138952381Y-122809523D01*
X139000000Y-122714285D01*
X139047619Y-122666666D01*
X139142857Y-122619047D01*
X139285714Y-122619047D01*
X139380952Y-122666666D01*
X139428571Y-122714285D01*
X139476190Y-122809523D01*
X139476190Y-123190476D01*
X157119048Y-117752381D02*
X157738096Y-117752381D01*
X157404762Y-118133333D01*
X157547620Y-118133333D01*
X157642858Y-118180952D01*
X157690477Y-118228571D01*
X157738096Y-118323810D01*
X157738096Y-118561905D01*
X157690477Y-118657143D01*
X157642858Y-118704762D01*
X157547620Y-118752381D01*
X157261905Y-118752381D01*
X157166667Y-118704762D01*
X157119048Y-118657143D01*
X158166667Y-118657143D02*
X158214286Y-118704762D01*
X158166667Y-118752381D01*
X158119048Y-118704762D01*
X158166667Y-118657143D01*
X158166667Y-118752381D01*
X159119048Y-117752381D02*
X158642857Y-117752381D01*
X158595238Y-118228571D01*
X158642857Y-118180952D01*
X158738095Y-118133333D01*
X158976191Y-118133333D01*
X159071429Y-118180952D01*
X159119048Y-118228571D01*
X159166667Y-118323810D01*
X159166667Y-118561905D01*
X159119048Y-118657143D01*
X159071429Y-118704762D01*
X158976191Y-118752381D01*
X158738095Y-118752381D01*
X158642857Y-118704762D01*
X158595238Y-118657143D01*
X159595238Y-118752381D02*
X159595238Y-118085714D01*
X159595238Y-118180952D02*
X159642857Y-118133333D01*
X159738095Y-118085714D01*
X159880953Y-118085714D01*
X159976191Y-118133333D01*
X160023810Y-118228571D01*
X160023810Y-118752381D01*
X160023810Y-118228571D02*
X160071429Y-118133333D01*
X160166667Y-118085714D01*
X160309524Y-118085714D01*
X160404762Y-118133333D01*
X160452381Y-118228571D01*
X160452381Y-118752381D01*
X160928571Y-118752381D02*
X160928571Y-118085714D01*
X160928571Y-118180952D02*
X160976190Y-118133333D01*
X161071428Y-118085714D01*
X161214286Y-118085714D01*
X161309524Y-118133333D01*
X161357143Y-118228571D01*
X161357143Y-118752381D01*
X161357143Y-118228571D02*
X161404762Y-118133333D01*
X161500000Y-118085714D01*
X161642857Y-118085714D01*
X161738095Y-118133333D01*
X161785714Y-118228571D01*
X161785714Y-118752381D01*
X159109620Y-94920560D02*
X159678580Y-94920560D01*
X159678580Y-94920560D02*
X159678580Y-94509080D01*
X164947700Y-98920560D02*
X165516660Y-98920560D01*
X165516660Y-98920560D02*
X165516660Y-98509080D01*
X159259620Y-97370560D02*
X159828580Y-97370560D01*
X159828580Y-97370560D02*
X159828580Y-96959080D01*
X144825000Y-114600000D02*
X144825000Y-112600000D01*
X142775000Y-112600000D02*
X142775000Y-114600000D01*
X136700000Y-113700000D02*
X136700000Y-113000000D01*
X137900000Y-113000000D02*
X137900000Y-113700000D01*
X137450000Y-122900000D02*
X137450000Y-124800000D01*
X138550000Y-122900000D02*
X138550000Y-124800000D01*
X138000000Y-123800000D02*
X138000000Y-124250000D01*
X138250000Y-123750000D02*
X137750000Y-123750000D01*
X138000000Y-123750000D02*
X138250000Y-124000000D01*
X138250000Y-124000000D02*
X137750000Y-124000000D01*
X137750000Y-124000000D02*
X138000000Y-123750000D01*
X140450000Y-122900000D02*
X140450000Y-124800000D01*
X141550000Y-122900000D02*
X141550000Y-124800000D01*
X141000000Y-123800000D02*
X141000000Y-124250000D01*
X141250000Y-123750000D02*
X140750000Y-123750000D01*
X141000000Y-123750000D02*
X141250000Y-124000000D01*
X141250000Y-124000000D02*
X140750000Y-124000000D01*
X140750000Y-124000000D02*
X141000000Y-123750000D01*
X138675000Y-119500000D02*
X138675000Y-120500000D01*
X137325000Y-120500000D02*
X137325000Y-119500000D01*
X141675000Y-119600000D02*
X141675000Y-120600000D01*
X140325000Y-120600000D02*
X140325000Y-119600000D01*
X140700000Y-115050000D02*
G75*
G03X140700000Y-115050000I-100000J0D01*
G01*
X140050000Y-114800000D02*
X140550000Y-114800000D01*
X140050000Y-111900000D02*
X140050000Y-114800000D01*
X140550000Y-111900000D02*
X140050000Y-111900000D01*
X140550000Y-114800000D02*
X140550000Y-111900000D01*
D13*
G36*
X141954710Y-94519742D02*
X141988065Y-94520711D01*
X142011653Y-94522228D01*
X142091789Y-94531955D01*
X142173758Y-94547253D01*
X142255701Y-94567681D01*
X142335758Y-94592796D01*
X142383541Y-94610493D01*
X142426347Y-94627482D01*
X142468596Y-94644539D01*
X142510667Y-94661839D01*
X142552939Y-94679558D01*
X142595789Y-94697874D01*
X142639595Y-94716961D01*
X142684736Y-94736995D01*
X142731589Y-94758154D01*
X142780533Y-94780612D01*
X142831945Y-94804546D01*
X142886204Y-94830132D01*
X142943687Y-94857546D01*
X143004774Y-94886964D01*
X143069841Y-94918562D01*
X143139268Y-94952517D01*
X143213431Y-94989003D01*
X143292710Y-95028198D01*
X143377481Y-95070277D01*
X143468124Y-95115417D01*
X143472153Y-95117426D01*
X143551946Y-95157125D01*
X143626001Y-95193758D01*
X143694816Y-95227553D01*
X143758891Y-95258740D01*
X143818725Y-95287551D01*
X143874817Y-95314213D01*
X143927666Y-95338957D01*
X143977772Y-95362014D01*
X144025634Y-95383612D01*
X144071750Y-95403982D01*
X144116621Y-95423354D01*
X144160745Y-95441956D01*
X144204621Y-95460021D01*
X144248749Y-95477776D01*
X144290598Y-95494269D01*
X144314243Y-95503530D01*
X144335881Y-95512058D01*
X144354594Y-95519487D01*
X144369464Y-95525450D01*
X144379573Y-95529583D01*
X144383972Y-95531501D01*
X144384988Y-95533865D01*
X144382632Y-95538645D01*
X144376411Y-95546483D01*
X144365837Y-95558023D01*
X144355750Y-95568474D01*
X144298555Y-95622600D01*
X144234755Y-95674757D01*
X144164551Y-95724846D01*
X144088140Y-95772769D01*
X144005723Y-95818425D01*
X143917498Y-95861717D01*
X143823665Y-95902546D01*
X143724422Y-95940812D01*
X143619969Y-95976417D01*
X143510504Y-96009262D01*
X143419236Y-96033540D01*
X143311653Y-96059136D01*
X143209570Y-96080398D01*
X143112918Y-96097325D01*
X143021629Y-96109916D01*
X142935636Y-96118170D01*
X142854870Y-96122088D01*
X142779264Y-96121668D01*
X142708748Y-96116910D01*
X142643256Y-96107814D01*
X142582719Y-96094378D01*
X142527069Y-96076602D01*
X142476237Y-96054486D01*
X142430157Y-96028029D01*
X142425283Y-96024792D01*
X142406567Y-96010712D01*
X142385977Y-95992815D01*
X142365462Y-95972989D01*
X142346975Y-95953121D01*
X142332467Y-95935098D01*
X142332249Y-95934796D01*
X142310643Y-95899690D01*
X142292364Y-95859925D01*
X142278068Y-95817369D01*
X142268407Y-95773891D01*
X142264563Y-95741322D01*
X142262125Y-95706075D01*
X142196861Y-95700151D01*
X142175600Y-95698247D01*
X142156304Y-95696565D01*
X142140259Y-95695215D01*
X142128751Y-95694305D01*
X142123228Y-95693947D01*
X142117499Y-95693127D01*
X142117862Y-95690173D01*
X142119700Y-95687780D01*
X142122206Y-95684046D01*
X142120247Y-95683062D01*
X142112652Y-95684302D01*
X142112195Y-95684395D01*
X142083402Y-95690018D01*
X142049443Y-95696305D01*
X142012141Y-95702942D01*
X141973316Y-95709618D01*
X141934791Y-95716019D01*
X141898388Y-95721832D01*
X141865929Y-95726745D01*
X141863486Y-95727100D01*
X141782912Y-95737996D01*
X141708021Y-95746419D01*
X141637880Y-95752343D01*
X141571555Y-95755744D01*
X141508112Y-95756596D01*
X141446617Y-95754874D01*
X141386137Y-95750552D01*
X141325738Y-95743606D01*
X141264486Y-95734011D01*
X141201447Y-95721741D01*
X141139022Y-95707576D01*
X141118781Y-95702551D01*
X141096071Y-95696658D01*
X141071883Y-95690181D01*
X141047209Y-95683404D01*
X141023040Y-95676608D01*
X141000368Y-95670079D01*
X140980185Y-95664099D01*
X140963483Y-95658952D01*
X140951254Y-95654921D01*
X140944488Y-95652289D01*
X140943566Y-95651724D01*
X140942791Y-95647976D01*
X140941361Y-95638155D01*
X140939385Y-95623201D01*
X140936971Y-95604055D01*
X140934230Y-95581658D01*
X140931271Y-95556950D01*
X140928203Y-95530871D01*
X140925135Y-95504363D01*
X140922177Y-95478366D01*
X140919438Y-95453821D01*
X140917027Y-95431668D01*
X140915053Y-95412848D01*
X140913626Y-95398301D01*
X140912856Y-95388969D01*
X140912750Y-95386513D01*
X140915981Y-95384892D01*
X140924738Y-95382314D01*
X140937621Y-95379158D01*
X140950674Y-95376320D01*
X141062843Y-95352094D01*
X141170877Y-95326570D01*
X141274350Y-95299870D01*
X141372836Y-95272119D01*
X141465907Y-95243443D01*
X141553136Y-95213966D01*
X141634097Y-95183812D01*
X141694873Y-95158941D01*
X141791354Y-95114433D01*
X141882826Y-95065507D01*
X141970180Y-95011614D01*
X142054308Y-94952202D01*
X142136008Y-94886801D01*
X142152297Y-94872731D01*
X142169777Y-94857209D01*
X142187670Y-94840973D01*
X142205197Y-94824760D01*
X142221580Y-94809307D01*
X142236041Y-94795349D01*
X142247800Y-94783625D01*
X142256080Y-94774870D01*
X142260101Y-94769822D01*
X142260361Y-94769115D01*
X142257110Y-94766617D01*
X142248072Y-94762803D01*
X142234325Y-94758001D01*
X142216944Y-94752535D01*
X142197005Y-94746732D01*
X142175586Y-94740917D01*
X142153761Y-94735417D01*
X142134184Y-94730901D01*
X142064960Y-94717922D01*
X141998054Y-94709990D01*
X141931839Y-94707067D01*
X141864685Y-94709115D01*
X141794963Y-94716096D01*
X141754493Y-94722096D01*
X141658180Y-94740856D01*
X141566411Y-94764807D01*
X141479248Y-94793917D01*
X141396756Y-94828158D01*
X141318996Y-94867499D01*
X141246032Y-94911909D01*
X141177926Y-94961359D01*
X141114742Y-95015818D01*
X141089139Y-95040731D01*
X141038494Y-95096095D01*
X140994450Y-95153280D01*
X140957101Y-95212148D01*
X140926539Y-95272560D01*
X140912795Y-95306028D01*
X140901307Y-95336432D01*
X140755263Y-95474996D01*
X140728489Y-95500468D01*
X140703372Y-95524499D01*
X140680360Y-95546652D01*
X140659900Y-95566490D01*
X140642438Y-95583575D01*
X140628421Y-95597472D01*
X140618298Y-95607742D01*
X140612514Y-95613950D01*
X140611302Y-95615690D01*
X140614842Y-95617513D01*
X140624198Y-95621927D01*
X140638740Y-95628645D01*
X140657842Y-95637381D01*
X140680876Y-95647849D01*
X140707212Y-95659763D01*
X140736225Y-95672837D01*
X140767286Y-95686784D01*
X140770834Y-95688375D01*
X140928283Y-95758931D01*
X140948397Y-95829486D01*
X140962426Y-95877561D01*
X140976124Y-95921940D01*
X140990476Y-95965693D01*
X141006469Y-96011894D01*
X141011638Y-96026422D01*
X141018304Y-96044496D01*
X141023501Y-96056977D01*
X141027837Y-96065013D01*
X141031920Y-96069755D01*
X141035801Y-96072121D01*
X141042334Y-96073374D01*
X141054938Y-96074399D01*
X141072632Y-96075198D01*
X141094436Y-96075771D01*
X141119368Y-96076120D01*
X141146448Y-96076246D01*
X141174694Y-96076150D01*
X141203127Y-96075833D01*
X141230765Y-96075297D01*
X141256627Y-96074542D01*
X141279733Y-96073570D01*
X141299101Y-96072382D01*
X141306098Y-96071800D01*
X141348615Y-96067639D01*
X141392437Y-96062920D01*
X141436678Y-96057767D01*
X141480449Y-96052304D01*
X141522864Y-96046654D01*
X141563037Y-96040940D01*
X141600079Y-96035287D01*
X141633105Y-96029818D01*
X141661228Y-96024657D01*
X141683560Y-96019927D01*
X141690625Y-96018196D01*
X141747051Y-96000188D01*
X141803259Y-95975555D01*
X141858619Y-95944716D01*
X141912503Y-95908088D01*
X141964283Y-95866091D01*
X142013331Y-95819142D01*
X142049231Y-95779419D01*
X142060382Y-95766365D01*
X142067812Y-95758129D01*
X142072317Y-95754108D01*
X142074696Y-95753703D01*
X142075744Y-95756312D01*
X142076076Y-95759177D01*
X142084928Y-95821029D01*
X142100125Y-95881195D01*
X142121367Y-95939025D01*
X142148355Y-95993868D01*
X142180792Y-96045075D01*
X142218378Y-96091994D01*
X142238870Y-96113506D01*
X142286020Y-96155375D01*
X142337880Y-96192239D01*
X142394477Y-96224103D01*
X142455836Y-96250972D01*
X142521984Y-96272847D01*
X142592947Y-96289735D01*
X142668750Y-96301639D01*
X142749419Y-96308562D01*
X142834981Y-96310510D01*
X142925460Y-96307486D01*
X143020884Y-96299493D01*
X143121277Y-96286537D01*
X143226666Y-96268621D01*
X143228736Y-96268229D01*
X143362040Y-96240715D01*
X143490610Y-96209678D01*
X143614222Y-96175198D01*
X143732650Y-96137354D01*
X143845672Y-96096225D01*
X143953063Y-96051891D01*
X144054597Y-96004429D01*
X144150052Y-95953920D01*
X144196556Y-95926871D01*
X144268432Y-95881622D01*
X144333929Y-95835957D01*
X144393722Y-95789299D01*
X144448486Y-95741071D01*
X144498895Y-95690694D01*
X144545624Y-95637593D01*
X144569292Y-95607935D01*
X144576348Y-95598793D01*
X144609885Y-95605455D01*
X144714889Y-95622936D01*
X144819330Y-95633496D01*
X144923815Y-95637171D01*
X145028949Y-95633997D01*
X145054361Y-95632219D01*
X145143685Y-95624517D01*
X145239546Y-95614773D01*
X145341740Y-95603024D01*
X145450062Y-95589304D01*
X145564307Y-95573649D01*
X145684270Y-95556094D01*
X145809745Y-95536676D01*
X145940528Y-95515428D01*
X146076414Y-95492388D01*
X146217197Y-95467589D01*
X146362673Y-95441068D01*
X146512636Y-95412860D01*
X146666882Y-95383000D01*
X146825205Y-95351525D01*
X146987401Y-95318468D01*
X147153264Y-95283866D01*
X147322589Y-95247754D01*
X147487083Y-95211946D01*
X147522540Y-95204219D01*
X147556328Y-95196982D01*
X147587744Y-95190378D01*
X147616082Y-95184550D01*
X147640639Y-95179638D01*
X147660711Y-95175785D01*
X147675595Y-95173134D01*
X147684586Y-95171825D01*
X147686402Y-95171710D01*
X147710853Y-95175325D01*
X147733020Y-95185489D01*
X147752465Y-95201940D01*
X147765298Y-95218714D01*
X147781220Y-95244601D01*
X147799408Y-95275862D01*
X147819273Y-95311421D01*
X147840229Y-95350199D01*
X147861687Y-95391119D01*
X147883058Y-95433103D01*
X147890724Y-95448486D01*
X147920533Y-95510291D01*
X147946152Y-95567008D01*
X147967736Y-95619113D01*
X147985437Y-95667077D01*
X147999410Y-95711376D01*
X148009807Y-95752481D01*
X148016783Y-95790868D01*
X148020490Y-95827009D01*
X148021223Y-95851017D01*
X148019855Y-95885658D01*
X148015603Y-95914824D01*
X148008245Y-95939574D01*
X147998407Y-95959576D01*
X147985372Y-95978408D01*
X147971151Y-95992507D01*
X147953422Y-96004103D01*
X147950516Y-96005661D01*
X147940170Y-96010668D01*
X147928802Y-96015256D01*
X147916049Y-96019454D01*
X147901542Y-96023295D01*
X147884918Y-96026806D01*
X147865811Y-96030019D01*
X147843854Y-96032964D01*
X147818682Y-96035671D01*
X147789929Y-96038170D01*
X147757230Y-96040491D01*
X147720219Y-96042664D01*
X147678530Y-96044720D01*
X147631798Y-96046689D01*
X147579657Y-96048601D01*
X147521742Y-96050486D01*
X147457685Y-96052374D01*
X147387123Y-96054296D01*
X147349181Y-96055282D01*
X147229555Y-96058512D01*
X147116447Y-96061915D01*
X147009322Y-96065525D01*
X146907645Y-96069372D01*
X146810878Y-96073490D01*
X146718487Y-96077910D01*
X146629937Y-96082664D01*
X146544690Y-96087786D01*
X146462212Y-96093306D01*
X146381967Y-96099258D01*
X146303420Y-96105673D01*
X146226033Y-96112583D01*
X146149273Y-96120022D01*
X146072603Y-96128020D01*
X145995487Y-96136611D01*
X145994514Y-96136723D01*
X145856765Y-96153667D01*
X145723516Y-96172414D01*
X145593549Y-96193216D01*
X145465649Y-96216325D01*
X145338599Y-96241993D01*
X145211181Y-96270474D01*
X145082181Y-96302018D01*
X144950381Y-96336880D01*
X144814564Y-96375310D01*
X144744101Y-96396143D01*
X144716987Y-96404416D01*
X144685101Y-96414394D01*
X144649282Y-96425799D01*
X144610367Y-96438350D01*
X144569195Y-96451768D01*
X144526606Y-96465772D01*
X144483438Y-96480082D01*
X144440530Y-96494419D01*
X144398720Y-96508503D01*
X144358847Y-96522054D01*
X144321751Y-96534791D01*
X144288268Y-96546436D01*
X144259239Y-96556707D01*
X144235502Y-96565326D01*
X144222325Y-96570287D01*
X144175900Y-96588714D01*
X144129052Y-96608455D01*
X144081172Y-96629814D01*
X144031650Y-96653099D01*
X143979877Y-96678614D01*
X143925244Y-96706665D01*
X143867142Y-96737558D01*
X143804962Y-96771598D01*
X143738093Y-96809091D01*
X143678528Y-96843090D01*
X143646877Y-96861282D01*
X143611373Y-96881686D01*
X143573969Y-96903181D01*
X143536618Y-96924643D01*
X143501271Y-96944953D01*
X143469882Y-96962987D01*
X143466861Y-96964722D01*
X143392151Y-97007228D01*
X143322611Y-97045860D01*
X143257666Y-97080832D01*
X143196738Y-97112361D01*
X143139249Y-97140662D01*
X143084623Y-97165950D01*
X143032282Y-97188442D01*
X142981649Y-97208353D01*
X142932146Y-97225898D01*
X142883197Y-97241294D01*
X142834224Y-97254755D01*
X142784649Y-97266498D01*
X142733896Y-97276738D01*
X142681387Y-97285691D01*
X142626545Y-97293573D01*
X142568792Y-97300598D01*
X142567278Y-97300768D01*
X142548693Y-97302405D01*
X142524406Y-97303872D01*
X142495621Y-97305152D01*
X142463537Y-97306227D01*
X142429357Y-97307078D01*
X142394282Y-97307688D01*
X142359513Y-97308037D01*
X142326253Y-97308108D01*
X142295702Y-97307882D01*
X142269062Y-97307342D01*
X142247534Y-97306469D01*
X142237431Y-97305766D01*
X142141437Y-97294796D01*
X142048591Y-97278944D01*
X141959357Y-97258340D01*
X141874199Y-97233112D01*
X141793580Y-97203390D01*
X141717963Y-97169303D01*
X141683570Y-97151423D01*
X141599499Y-97101747D01*
X141518006Y-97045614D01*
X141439071Y-96983003D01*
X141362676Y-96913893D01*
X141288800Y-96838264D01*
X141217424Y-96756095D01*
X141148528Y-96667366D01*
X141082092Y-96572057D01*
X141018098Y-96470145D01*
X140994143Y-96429208D01*
X140944336Y-96337801D01*
X140899157Y-96244995D01*
X140858144Y-96149669D01*
X140820834Y-96050702D01*
X140786764Y-95946973D01*
X140766318Y-95877111D01*
X140748063Y-95811847D01*
X140623150Y-95761265D01*
X140590801Y-95748164D01*
X140556720Y-95734360D01*
X140522371Y-95720446D01*
X140489218Y-95707013D01*
X140458725Y-95694657D01*
X140432356Y-95683970D01*
X140418125Y-95678200D01*
X140338013Y-95645719D01*
X140712699Y-95310903D01*
X140727975Y-95265042D01*
X140747971Y-95212558D01*
X140773359Y-95158304D01*
X140803290Y-95103803D01*
X140836916Y-95050580D01*
X140873391Y-95000159D01*
X140880077Y-94991644D01*
X140895188Y-94973691D01*
X140914455Y-94952394D01*
X140936654Y-94928976D01*
X140960561Y-94904659D01*
X140984953Y-94880663D01*
X141008606Y-94858213D01*
X141030297Y-94838529D01*
X141048802Y-94822834D01*
X141050334Y-94821608D01*
X141126271Y-94765687D01*
X141206675Y-94715202D01*
X141291488Y-94670177D01*
X141380648Y-94630636D01*
X141474097Y-94596603D01*
X141571776Y-94568101D01*
X141673624Y-94545155D01*
X141779582Y-94527789D01*
X141780584Y-94527654D01*
X141809559Y-94524531D01*
X141843508Y-94522131D01*
X141880383Y-94520500D01*
X141918133Y-94519688D01*
X141954710Y-94519742D01*
X141954710Y-94519742D01*
G37*
X141954710Y-94519742D02*
X141988065Y-94520711D01*
X142011653Y-94522228D01*
X142091789Y-94531955D01*
X142173758Y-94547253D01*
X142255701Y-94567681D01*
X142335758Y-94592796D01*
X142383541Y-94610493D01*
X142426347Y-94627482D01*
X142468596Y-94644539D01*
X142510667Y-94661839D01*
X142552939Y-94679558D01*
X142595789Y-94697874D01*
X142639595Y-94716961D01*
X142684736Y-94736995D01*
X142731589Y-94758154D01*
X142780533Y-94780612D01*
X142831945Y-94804546D01*
X142886204Y-94830132D01*
X142943687Y-94857546D01*
X143004774Y-94886964D01*
X143069841Y-94918562D01*
X143139268Y-94952517D01*
X143213431Y-94989003D01*
X143292710Y-95028198D01*
X143377481Y-95070277D01*
X143468124Y-95115417D01*
X143472153Y-95117426D01*
X143551946Y-95157125D01*
X143626001Y-95193758D01*
X143694816Y-95227553D01*
X143758891Y-95258740D01*
X143818725Y-95287551D01*
X143874817Y-95314213D01*
X143927666Y-95338957D01*
X143977772Y-95362014D01*
X144025634Y-95383612D01*
X144071750Y-95403982D01*
X144116621Y-95423354D01*
X144160745Y-95441956D01*
X144204621Y-95460021D01*
X144248749Y-95477776D01*
X144290598Y-95494269D01*
X144314243Y-95503530D01*
X144335881Y-95512058D01*
X144354594Y-95519487D01*
X144369464Y-95525450D01*
X144379573Y-95529583D01*
X144383972Y-95531501D01*
X144384988Y-95533865D01*
X144382632Y-95538645D01*
X144376411Y-95546483D01*
X144365837Y-95558023D01*
X144355750Y-95568474D01*
X144298555Y-95622600D01*
X144234755Y-95674757D01*
X144164551Y-95724846D01*
X144088140Y-95772769D01*
X144005723Y-95818425D01*
X143917498Y-95861717D01*
X143823665Y-95902546D01*
X143724422Y-95940812D01*
X143619969Y-95976417D01*
X143510504Y-96009262D01*
X143419236Y-96033540D01*
X143311653Y-96059136D01*
X143209570Y-96080398D01*
X143112918Y-96097325D01*
X143021629Y-96109916D01*
X142935636Y-96118170D01*
X142854870Y-96122088D01*
X142779264Y-96121668D01*
X142708748Y-96116910D01*
X142643256Y-96107814D01*
X142582719Y-96094378D01*
X142527069Y-96076602D01*
X142476237Y-96054486D01*
X142430157Y-96028029D01*
X142425283Y-96024792D01*
X142406567Y-96010712D01*
X142385977Y-95992815D01*
X142365462Y-95972989D01*
X142346975Y-95953121D01*
X142332467Y-95935098D01*
X142332249Y-95934796D01*
X142310643Y-95899690D01*
X142292364Y-95859925D01*
X142278068Y-95817369D01*
X142268407Y-95773891D01*
X142264563Y-95741322D01*
X142262125Y-95706075D01*
X142196861Y-95700151D01*
X142175600Y-95698247D01*
X142156304Y-95696565D01*
X142140259Y-95695215D01*
X142128751Y-95694305D01*
X142123228Y-95693947D01*
X142117499Y-95693127D01*
X142117862Y-95690173D01*
X142119700Y-95687780D01*
X142122206Y-95684046D01*
X142120247Y-95683062D01*
X142112652Y-95684302D01*
X142112195Y-95684395D01*
X142083402Y-95690018D01*
X142049443Y-95696305D01*
X142012141Y-95702942D01*
X141973316Y-95709618D01*
X141934791Y-95716019D01*
X141898388Y-95721832D01*
X141865929Y-95726745D01*
X141863486Y-95727100D01*
X141782912Y-95737996D01*
X141708021Y-95746419D01*
X141637880Y-95752343D01*
X141571555Y-95755744D01*
X141508112Y-95756596D01*
X141446617Y-95754874D01*
X141386137Y-95750552D01*
X141325738Y-95743606D01*
X141264486Y-95734011D01*
X141201447Y-95721741D01*
X141139022Y-95707576D01*
X141118781Y-95702551D01*
X141096071Y-95696658D01*
X141071883Y-95690181D01*
X141047209Y-95683404D01*
X141023040Y-95676608D01*
X141000368Y-95670079D01*
X140980185Y-95664099D01*
X140963483Y-95658952D01*
X140951254Y-95654921D01*
X140944488Y-95652289D01*
X140943566Y-95651724D01*
X140942791Y-95647976D01*
X140941361Y-95638155D01*
X140939385Y-95623201D01*
X140936971Y-95604055D01*
X140934230Y-95581658D01*
X140931271Y-95556950D01*
X140928203Y-95530871D01*
X140925135Y-95504363D01*
X140922177Y-95478366D01*
X140919438Y-95453821D01*
X140917027Y-95431668D01*
X140915053Y-95412848D01*
X140913626Y-95398301D01*
X140912856Y-95388969D01*
X140912750Y-95386513D01*
X140915981Y-95384892D01*
X140924738Y-95382314D01*
X140937621Y-95379158D01*
X140950674Y-95376320D01*
X141062843Y-95352094D01*
X141170877Y-95326570D01*
X141274350Y-95299870D01*
X141372836Y-95272119D01*
X141465907Y-95243443D01*
X141553136Y-95213966D01*
X141634097Y-95183812D01*
X141694873Y-95158941D01*
X141791354Y-95114433D01*
X141882826Y-95065507D01*
X141970180Y-95011614D01*
X142054308Y-94952202D01*
X142136008Y-94886801D01*
X142152297Y-94872731D01*
X142169777Y-94857209D01*
X142187670Y-94840973D01*
X142205197Y-94824760D01*
X142221580Y-94809307D01*
X142236041Y-94795349D01*
X142247800Y-94783625D01*
X142256080Y-94774870D01*
X142260101Y-94769822D01*
X142260361Y-94769115D01*
X142257110Y-94766617D01*
X142248072Y-94762803D01*
X142234325Y-94758001D01*
X142216944Y-94752535D01*
X142197005Y-94746732D01*
X142175586Y-94740917D01*
X142153761Y-94735417D01*
X142134184Y-94730901D01*
X142064960Y-94717922D01*
X141998054Y-94709990D01*
X141931839Y-94707067D01*
X141864685Y-94709115D01*
X141794963Y-94716096D01*
X141754493Y-94722096D01*
X141658180Y-94740856D01*
X141566411Y-94764807D01*
X141479248Y-94793917D01*
X141396756Y-94828158D01*
X141318996Y-94867499D01*
X141246032Y-94911909D01*
X141177926Y-94961359D01*
X141114742Y-95015818D01*
X141089139Y-95040731D01*
X141038494Y-95096095D01*
X140994450Y-95153280D01*
X140957101Y-95212148D01*
X140926539Y-95272560D01*
X140912795Y-95306028D01*
X140901307Y-95336432D01*
X140755263Y-95474996D01*
X140728489Y-95500468D01*
X140703372Y-95524499D01*
X140680360Y-95546652D01*
X140659900Y-95566490D01*
X140642438Y-95583575D01*
X140628421Y-95597472D01*
X140618298Y-95607742D01*
X140612514Y-95613950D01*
X140611302Y-95615690D01*
X140614842Y-95617513D01*
X140624198Y-95621927D01*
X140638740Y-95628645D01*
X140657842Y-95637381D01*
X140680876Y-95647849D01*
X140707212Y-95659763D01*
X140736225Y-95672837D01*
X140767286Y-95686784D01*
X140770834Y-95688375D01*
X140928283Y-95758931D01*
X140948397Y-95829486D01*
X140962426Y-95877561D01*
X140976124Y-95921940D01*
X140990476Y-95965693D01*
X141006469Y-96011894D01*
X141011638Y-96026422D01*
X141018304Y-96044496D01*
X141023501Y-96056977D01*
X141027837Y-96065013D01*
X141031920Y-96069755D01*
X141035801Y-96072121D01*
X141042334Y-96073374D01*
X141054938Y-96074399D01*
X141072632Y-96075198D01*
X141094436Y-96075771D01*
X141119368Y-96076120D01*
X141146448Y-96076246D01*
X141174694Y-96076150D01*
X141203127Y-96075833D01*
X141230765Y-96075297D01*
X141256627Y-96074542D01*
X141279733Y-96073570D01*
X141299101Y-96072382D01*
X141306098Y-96071800D01*
X141348615Y-96067639D01*
X141392437Y-96062920D01*
X141436678Y-96057767D01*
X141480449Y-96052304D01*
X141522864Y-96046654D01*
X141563037Y-96040940D01*
X141600079Y-96035287D01*
X141633105Y-96029818D01*
X141661228Y-96024657D01*
X141683560Y-96019927D01*
X141690625Y-96018196D01*
X141747051Y-96000188D01*
X141803259Y-95975555D01*
X141858619Y-95944716D01*
X141912503Y-95908088D01*
X141964283Y-95866091D01*
X142013331Y-95819142D01*
X142049231Y-95779419D01*
X142060382Y-95766365D01*
X142067812Y-95758129D01*
X142072317Y-95754108D01*
X142074696Y-95753703D01*
X142075744Y-95756312D01*
X142076076Y-95759177D01*
X142084928Y-95821029D01*
X142100125Y-95881195D01*
X142121367Y-95939025D01*
X142148355Y-95993868D01*
X142180792Y-96045075D01*
X142218378Y-96091994D01*
X142238870Y-96113506D01*
X142286020Y-96155375D01*
X142337880Y-96192239D01*
X142394477Y-96224103D01*
X142455836Y-96250972D01*
X142521984Y-96272847D01*
X142592947Y-96289735D01*
X142668750Y-96301639D01*
X142749419Y-96308562D01*
X142834981Y-96310510D01*
X142925460Y-96307486D01*
X143020884Y-96299493D01*
X143121277Y-96286537D01*
X143226666Y-96268621D01*
X143228736Y-96268229D01*
X143362040Y-96240715D01*
X143490610Y-96209678D01*
X143614222Y-96175198D01*
X143732650Y-96137354D01*
X143845672Y-96096225D01*
X143953063Y-96051891D01*
X144054597Y-96004429D01*
X144150052Y-95953920D01*
X144196556Y-95926871D01*
X144268432Y-95881622D01*
X144333929Y-95835957D01*
X144393722Y-95789299D01*
X144448486Y-95741071D01*
X144498895Y-95690694D01*
X144545624Y-95637593D01*
X144569292Y-95607935D01*
X144576348Y-95598793D01*
X144609885Y-95605455D01*
X144714889Y-95622936D01*
X144819330Y-95633496D01*
X144923815Y-95637171D01*
X145028949Y-95633997D01*
X145054361Y-95632219D01*
X145143685Y-95624517D01*
X145239546Y-95614773D01*
X145341740Y-95603024D01*
X145450062Y-95589304D01*
X145564307Y-95573649D01*
X145684270Y-95556094D01*
X145809745Y-95536676D01*
X145940528Y-95515428D01*
X146076414Y-95492388D01*
X146217197Y-95467589D01*
X146362673Y-95441068D01*
X146512636Y-95412860D01*
X146666882Y-95383000D01*
X146825205Y-95351525D01*
X146987401Y-95318468D01*
X147153264Y-95283866D01*
X147322589Y-95247754D01*
X147487083Y-95211946D01*
X147522540Y-95204219D01*
X147556328Y-95196982D01*
X147587744Y-95190378D01*
X147616082Y-95184550D01*
X147640639Y-95179638D01*
X147660711Y-95175785D01*
X147675595Y-95173134D01*
X147684586Y-95171825D01*
X147686402Y-95171710D01*
X147710853Y-95175325D01*
X147733020Y-95185489D01*
X147752465Y-95201940D01*
X147765298Y-95218714D01*
X147781220Y-95244601D01*
X147799408Y-95275862D01*
X147819273Y-95311421D01*
X147840229Y-95350199D01*
X147861687Y-95391119D01*
X147883058Y-95433103D01*
X147890724Y-95448486D01*
X147920533Y-95510291D01*
X147946152Y-95567008D01*
X147967736Y-95619113D01*
X147985437Y-95667077D01*
X147999410Y-95711376D01*
X148009807Y-95752481D01*
X148016783Y-95790868D01*
X148020490Y-95827009D01*
X148021223Y-95851017D01*
X148019855Y-95885658D01*
X148015603Y-95914824D01*
X148008245Y-95939574D01*
X147998407Y-95959576D01*
X147985372Y-95978408D01*
X147971151Y-95992507D01*
X147953422Y-96004103D01*
X147950516Y-96005661D01*
X147940170Y-96010668D01*
X147928802Y-96015256D01*
X147916049Y-96019454D01*
X147901542Y-96023295D01*
X147884918Y-96026806D01*
X147865811Y-96030019D01*
X147843854Y-96032964D01*
X147818682Y-96035671D01*
X147789929Y-96038170D01*
X147757230Y-96040491D01*
X147720219Y-96042664D01*
X147678530Y-96044720D01*
X147631798Y-96046689D01*
X147579657Y-96048601D01*
X147521742Y-96050486D01*
X147457685Y-96052374D01*
X147387123Y-96054296D01*
X147349181Y-96055282D01*
X147229555Y-96058512D01*
X147116447Y-96061915D01*
X147009322Y-96065525D01*
X146907645Y-96069372D01*
X146810878Y-96073490D01*
X146718487Y-96077910D01*
X146629937Y-96082664D01*
X146544690Y-96087786D01*
X146462212Y-96093306D01*
X146381967Y-96099258D01*
X146303420Y-96105673D01*
X146226033Y-96112583D01*
X146149273Y-96120022D01*
X146072603Y-96128020D01*
X145995487Y-96136611D01*
X145994514Y-96136723D01*
X145856765Y-96153667D01*
X145723516Y-96172414D01*
X145593549Y-96193216D01*
X145465649Y-96216325D01*
X145338599Y-96241993D01*
X145211181Y-96270474D01*
X145082181Y-96302018D01*
X144950381Y-96336880D01*
X144814564Y-96375310D01*
X144744101Y-96396143D01*
X144716987Y-96404416D01*
X144685101Y-96414394D01*
X144649282Y-96425799D01*
X144610367Y-96438350D01*
X144569195Y-96451768D01*
X144526606Y-96465772D01*
X144483438Y-96480082D01*
X144440530Y-96494419D01*
X144398720Y-96508503D01*
X144358847Y-96522054D01*
X144321751Y-96534791D01*
X144288268Y-96546436D01*
X144259239Y-96556707D01*
X144235502Y-96565326D01*
X144222325Y-96570287D01*
X144175900Y-96588714D01*
X144129052Y-96608455D01*
X144081172Y-96629814D01*
X144031650Y-96653099D01*
X143979877Y-96678614D01*
X143925244Y-96706665D01*
X143867142Y-96737558D01*
X143804962Y-96771598D01*
X143738093Y-96809091D01*
X143678528Y-96843090D01*
X143646877Y-96861282D01*
X143611373Y-96881686D01*
X143573969Y-96903181D01*
X143536618Y-96924643D01*
X143501271Y-96944953D01*
X143469882Y-96962987D01*
X143466861Y-96964722D01*
X143392151Y-97007228D01*
X143322611Y-97045860D01*
X143257666Y-97080832D01*
X143196738Y-97112361D01*
X143139249Y-97140662D01*
X143084623Y-97165950D01*
X143032282Y-97188442D01*
X142981649Y-97208353D01*
X142932146Y-97225898D01*
X142883197Y-97241294D01*
X142834224Y-97254755D01*
X142784649Y-97266498D01*
X142733896Y-97276738D01*
X142681387Y-97285691D01*
X142626545Y-97293573D01*
X142568792Y-97300598D01*
X142567278Y-97300768D01*
X142548693Y-97302405D01*
X142524406Y-97303872D01*
X142495621Y-97305152D01*
X142463537Y-97306227D01*
X142429357Y-97307078D01*
X142394282Y-97307688D01*
X142359513Y-97308037D01*
X142326253Y-97308108D01*
X142295702Y-97307882D01*
X142269062Y-97307342D01*
X142247534Y-97306469D01*
X142237431Y-97305766D01*
X142141437Y-97294796D01*
X142048591Y-97278944D01*
X141959357Y-97258340D01*
X141874199Y-97233112D01*
X141793580Y-97203390D01*
X141717963Y-97169303D01*
X141683570Y-97151423D01*
X141599499Y-97101747D01*
X141518006Y-97045614D01*
X141439071Y-96983003D01*
X141362676Y-96913893D01*
X141288800Y-96838264D01*
X141217424Y-96756095D01*
X141148528Y-96667366D01*
X141082092Y-96572057D01*
X141018098Y-96470145D01*
X140994143Y-96429208D01*
X140944336Y-96337801D01*
X140899157Y-96244995D01*
X140858144Y-96149669D01*
X140820834Y-96050702D01*
X140786764Y-95946973D01*
X140766318Y-95877111D01*
X140748063Y-95811847D01*
X140623150Y-95761265D01*
X140590801Y-95748164D01*
X140556720Y-95734360D01*
X140522371Y-95720446D01*
X140489218Y-95707013D01*
X140458725Y-95694657D01*
X140432356Y-95683970D01*
X140418125Y-95678200D01*
X140338013Y-95645719D01*
X140712699Y-95310903D01*
X140727975Y-95265042D01*
X140747971Y-95212558D01*
X140773359Y-95158304D01*
X140803290Y-95103803D01*
X140836916Y-95050580D01*
X140873391Y-95000159D01*
X140880077Y-94991644D01*
X140895188Y-94973691D01*
X140914455Y-94952394D01*
X140936654Y-94928976D01*
X140960561Y-94904659D01*
X140984953Y-94880663D01*
X141008606Y-94858213D01*
X141030297Y-94838529D01*
X141048802Y-94822834D01*
X141050334Y-94821608D01*
X141126271Y-94765687D01*
X141206675Y-94715202D01*
X141291488Y-94670177D01*
X141380648Y-94630636D01*
X141474097Y-94596603D01*
X141571776Y-94568101D01*
X141673624Y-94545155D01*
X141779582Y-94527789D01*
X141780584Y-94527654D01*
X141809559Y-94524531D01*
X141843508Y-94522131D01*
X141880383Y-94520500D01*
X141918133Y-94519688D01*
X141954710Y-94519742D01*
D10*
G36*
X149950569Y-125473441D02*
X150237239Y-124857151D01*
X150252420Y-124859083D01*
X150267311Y-124860831D01*
X150281910Y-124862394D01*
X150296219Y-124863774D01*
X150310236Y-124864970D01*
X150323963Y-124865982D01*
X150337399Y-124866809D01*
X150350544Y-124867453D01*
X150363398Y-124867913D01*
X150375961Y-124868189D01*
X150388233Y-124868281D01*
X150403450Y-124868018D01*
X150418232Y-124867228D01*
X150432579Y-124865912D01*
X150446491Y-124864070D01*
X150459968Y-124861701D01*
X150473010Y-124858805D01*
X150485617Y-124855383D01*
X150497790Y-124851435D01*
X150509528Y-124846960D01*
X150520830Y-124841959D01*
X150531698Y-124836431D01*
X150542131Y-124830377D01*
X150552129Y-124823796D01*
X150561693Y-124816689D01*
X150570821Y-124809056D01*
X150579515Y-124800896D01*
X150587773Y-124792209D01*
X150593944Y-124784952D01*
X150599827Y-124777212D01*
X150605424Y-124768990D01*
X150610733Y-124760284D01*
X150615756Y-124751096D01*
X150620491Y-124741425D01*
X150624939Y-124731271D01*
X150629101Y-124720634D01*
X150632975Y-124709514D01*
X150636563Y-124697912D01*
X150639863Y-124685826D01*
X150642877Y-124673258D01*
X150645603Y-124660207D01*
X150648043Y-124646673D01*
X150650195Y-124632657D01*
X150652061Y-124618157D01*
X150653639Y-124603175D01*
X150654931Y-124587709D01*
X150655935Y-124571761D01*
X150656653Y-124555330D01*
X150657083Y-124538417D01*
X150657227Y-124521020D01*
X150657119Y-124503207D01*
X150656798Y-124485850D01*
X150656263Y-124468949D01*
X150655514Y-124452503D01*
X150654550Y-124436513D01*
X150653373Y-124420979D01*
X150651981Y-124405900D01*
X150650375Y-124391276D01*
X150648555Y-124377109D01*
X150646521Y-124363397D01*
X150644273Y-124350140D01*
X150641811Y-124337339D01*
X150639134Y-124324994D01*
X150636244Y-124313104D01*
X150633139Y-124301670D01*
X150629821Y-124290691D01*
X150626288Y-124280168D01*
X150622541Y-124270101D01*
X150618580Y-124260489D01*
X150614405Y-124251333D01*
X150610016Y-124242632D01*
X150605412Y-124234388D01*
X150599049Y-124224316D01*
X150592153Y-124214854D01*
X150584722Y-124206004D01*
X150576757Y-124197763D01*
X150568258Y-124190133D01*
X150559225Y-124183113D01*
X150549658Y-124176704D01*
X150539556Y-124170905D01*
X150528921Y-124165717D01*
X150517752Y-124161139D01*
X150506049Y-124157171D01*
X150493811Y-124153814D01*
X150481040Y-124151067D01*
X150467734Y-124148930D01*
X150453895Y-124147404D01*
X150439521Y-124146489D01*
X150424614Y-124146184D01*
X150407358Y-124146413D01*
X150390870Y-124147101D01*
X150375148Y-124148247D01*
X150360193Y-124149852D01*
X150346006Y-124151915D01*
X150332585Y-124154437D01*
X150319931Y-124157417D01*
X150308044Y-124160856D01*
X150296923Y-124164753D01*
X150286570Y-124169109D01*
X150276984Y-124173923D01*
X150268164Y-124179196D01*
X150260112Y-124184927D01*
X150252826Y-124191116D01*
X150246307Y-124197765D01*
X150240556Y-124204871D01*
X150235571Y-124212437D01*
X150231353Y-124220460D01*
X150227902Y-124228943D01*
X150225218Y-124237883D01*
X150223300Y-124247282D01*
X150222150Y-124257140D01*
X150221766Y-124267456D01*
X150221766Y-124855051D01*
X150221766Y-124855036D01*
X150237239Y-124857151D01*
X149950569Y-125473441D01*
X149950569Y-124292744D01*
X149950787Y-124279310D01*
X149951444Y-124266044D01*
X149952538Y-124252944D01*
X149954070Y-124240011D01*
X149956039Y-124227244D01*
X149958446Y-124214644D01*
X149961291Y-124202211D01*
X149964573Y-124189945D01*
X149968293Y-124177845D01*
X149972450Y-124165912D01*
X149977046Y-124154145D01*
X149982078Y-124142546D01*
X149987549Y-124131113D01*
X149993457Y-124119846D01*
X149999803Y-124108747D01*
X150006586Y-124097814D01*
X150013807Y-124087047D01*
X150021466Y-124076448D01*
X150029562Y-124066015D01*
X150038096Y-124055748D01*
X150047068Y-124045649D01*
X150056477Y-124035716D01*
X150066324Y-124025949D01*
X150074531Y-124018328D01*
X150083035Y-124010974D01*
X150091834Y-124003887D01*
X150100930Y-123997068D01*
X150110323Y-123990516D01*
X150120011Y-123984231D01*
X150129996Y-123978214D01*
X150140277Y-123972464D01*
X150150854Y-123966982D01*
X150161728Y-123961767D01*
X150172898Y-123956820D01*
X150184364Y-123952140D01*
X150196126Y-123947728D01*
X150208185Y-123943582D01*
X150220539Y-123939705D01*
X150233191Y-123936095D01*
X150246138Y-123932752D01*
X150259381Y-123929676D01*
X150272921Y-123926868D01*
X150286757Y-123924328D01*
X150300890Y-123922055D01*
X150315318Y-123920049D01*
X150330043Y-123918311D01*
X150345064Y-123916840D01*
X150360382Y-123915636D01*
X150375995Y-123914700D01*
X150391905Y-123914032D01*
X150408111Y-123913631D01*
X150424614Y-123913497D01*
X150438652Y-123913636D01*
X150452657Y-123914052D01*
X150466627Y-123914746D01*
X150480562Y-123915717D01*
X150494463Y-123916966D01*
X150508329Y-123918492D01*
X150522162Y-123920296D01*
X150535959Y-123922378D01*
X150547391Y-123924439D01*
X150559198Y-123927071D01*
X150571380Y-123930274D01*
X150583937Y-123934048D01*
X150596868Y-123938393D01*
X150610175Y-123943308D01*
X150623856Y-123948794D01*
X150637912Y-123954851D01*
X150652343Y-123961479D01*
X150667148Y-123968677D01*
X150679673Y-123975079D01*
X150691892Y-123981787D01*
X150703804Y-123988801D01*
X150715410Y-123996122D01*
X150726710Y-124003748D01*
X150737704Y-124011680D01*
X150748391Y-124019919D01*
X150758773Y-124028463D01*
X150768848Y-124037314D01*
X150778616Y-124046470D01*
X150788079Y-124055933D01*
X150797235Y-124065701D01*
X150804374Y-124073889D01*
X150811386Y-124082576D01*
X150818270Y-124091762D01*
X150825026Y-124101449D01*
X150831656Y-124111635D01*
X150838157Y-124122320D01*
X150844532Y-124133506D01*
X150850779Y-124145191D01*
X150856899Y-124157376D01*
X150862891Y-124170061D01*
X150868756Y-124183245D01*
X150874494Y-124196929D01*
X150880104Y-124211113D01*
X150885586Y-124225797D01*
X150890942Y-124240980D01*
X150894811Y-124252536D01*
X150898482Y-124264274D01*
X150901955Y-124276194D01*
X150905229Y-124288296D01*
X150908305Y-124300580D01*
X150911182Y-124313046D01*
X150913861Y-124325694D01*
X150916342Y-124338523D01*
X150918624Y-124351535D01*
X150920707Y-124364729D01*
X150922593Y-124378105D01*
X150924279Y-124391662D01*
X150925768Y-124405402D01*
X150927057Y-124419324D01*
X150928149Y-124433428D01*
X150929042Y-124447713D01*
X150929736Y-124462181D01*
X150930232Y-124476830D01*
X150930530Y-124491662D01*
X150930629Y-124506675D01*
X150930512Y-124522777D01*
X150930160Y-124538657D01*
X150929574Y-124554315D01*
X150928752Y-124569753D01*
X150927697Y-124584969D01*
X150926406Y-124599964D01*
X150924882Y-124614738D01*
X150923122Y-124629290D01*
X150921128Y-124643622D01*
X150918899Y-124657732D01*
X150916436Y-124671621D01*
X150913738Y-124685288D01*
X150910806Y-124698735D01*
X150907638Y-124711960D01*
X150904237Y-124724964D01*
X150900600Y-124737747D01*
X150896730Y-124750309D01*
X150892624Y-124762649D01*
X150888284Y-124774768D01*
X150883709Y-124786666D01*
X150878900Y-124798343D01*
X150873856Y-124809798D01*
X150868578Y-124821032D01*
X150863064Y-124832045D01*
X150857317Y-124842837D01*
X150851334Y-124853408D01*
X150845117Y-124863757D01*
X150838666Y-124873885D01*
X150831980Y-124883792D01*
X150825059Y-124893478D01*
X150817904Y-124902943D01*
X150810514Y-124912186D01*
X150802889Y-124921208D01*
X150795030Y-124930009D01*
X150786705Y-124938826D01*
X150778165Y-124947372D01*
X150769410Y-124955646D01*
X150760441Y-124963649D01*
X150751257Y-124971381D01*
X150741859Y-124978842D01*
X150732245Y-124986031D01*
X150722418Y-124992949D01*
X150712375Y-124999595D01*
X150702118Y-125005971D01*
X150691647Y-125012075D01*
X150680961Y-125017908D01*
X150670060Y-125023469D01*
X150658944Y-125028759D01*
X150647614Y-125033778D01*
X150636070Y-125038526D01*
X150624310Y-125043002D01*
X150612337Y-125047207D01*
X150600148Y-125051141D01*
X150587745Y-125054803D01*
X150575127Y-125058195D01*
X150562295Y-125061314D01*
X150549248Y-125064163D01*
X150535986Y-125066740D01*
X150522510Y-125069046D01*
X150508820Y-125071081D01*
X150494914Y-125072844D01*
X150480794Y-125074337D01*
X150466459Y-125075557D01*
X150451910Y-125076507D01*
X150437146Y-125077185D01*
X150422168Y-125077592D01*
X150406975Y-125077728D01*
X150393453Y-125077626D01*
X150379976Y-125077323D01*
X150366545Y-125076817D01*
X150353158Y-125076108D01*
X150339816Y-125075197D01*
X150326520Y-125074084D01*
X150313268Y-125072768D01*
X150300061Y-125071250D01*
X150286900Y-125069529D01*
X150273783Y-125067606D01*
X150260711Y-125065481D01*
X150247685Y-125063153D01*
X150234703Y-125060622D01*
X150221766Y-125057889D01*
X150221766Y-125473501D01*
X149950569Y-125473501D01*
X149950569Y-125473441D01*
X149950569Y-125473441D01*
G37*
G36*
X151296636Y-124923326D02*
X151449054Y-124305453D01*
X151446016Y-124318098D01*
X151443241Y-124331309D01*
X151440731Y-124345084D01*
X151438485Y-124359425D01*
X151436504Y-124374330D01*
X151434786Y-124389800D01*
X151433333Y-124405835D01*
X151432144Y-124422435D01*
X151431219Y-124439600D01*
X151430559Y-124457330D01*
X151430162Y-124475624D01*
X151430030Y-124494483D01*
X151430162Y-124513245D01*
X151430559Y-124531447D01*
X151431219Y-124549088D01*
X151432144Y-124566169D01*
X151433333Y-124582689D01*
X151434786Y-124598649D01*
X151436504Y-124614049D01*
X151438485Y-124628888D01*
X151440731Y-124643167D01*
X151443241Y-124656886D01*
X151446016Y-124670045D01*
X151449054Y-124682643D01*
X151452357Y-124694680D01*
X151455924Y-124706158D01*
X151459755Y-124717075D01*
X151463850Y-124727431D01*
X151468210Y-124737228D01*
X151472834Y-124746464D01*
X151477722Y-124755139D01*
X151482874Y-124763255D01*
X151488291Y-124770810D01*
X151493971Y-124777804D01*
X151501860Y-124786113D01*
X151510222Y-124793918D01*
X151519056Y-124801219D01*
X151528364Y-124808017D01*
X151538145Y-124814311D01*
X151548399Y-124820101D01*
X151559125Y-124825388D01*
X151570325Y-124830172D01*
X151581998Y-124834452D01*
X151594144Y-124838229D01*
X151606763Y-124841502D01*
X151619854Y-124844271D01*
X151633419Y-124846537D01*
X151647457Y-124848299D01*
X151661968Y-124849558D01*
X151676952Y-124850313D01*
X151692409Y-124850565D01*
X151707862Y-124850313D01*
X151722834Y-124849558D01*
X151737326Y-124848299D01*
X151751337Y-124846537D01*
X151764868Y-124844271D01*
X151777918Y-124841502D01*
X151790487Y-124838229D01*
X151802576Y-124834452D01*
X151814184Y-124830172D01*
X151825311Y-124825388D01*
X151835957Y-124820101D01*
X151846123Y-124814311D01*
X151855809Y-124808017D01*
X151865014Y-124801219D01*
X151873738Y-124793918D01*
X151881981Y-124786113D01*
X151889744Y-124777804D01*
X151895425Y-124770810D01*
X151900841Y-124763255D01*
X151905993Y-124755139D01*
X151910881Y-124746464D01*
X151915505Y-124737228D01*
X151919865Y-124727431D01*
X151923960Y-124717075D01*
X151927791Y-124706158D01*
X151931358Y-124694680D01*
X151934661Y-124682643D01*
X151937700Y-124670045D01*
X151940474Y-124656886D01*
X151942984Y-124643167D01*
X151945230Y-124628888D01*
X151947211Y-124614049D01*
X151948929Y-124598649D01*
X151950382Y-124582689D01*
X151951571Y-124566169D01*
X151952496Y-124549088D01*
X151953156Y-124531447D01*
X151953553Y-124513245D01*
X151953685Y-124494483D01*
X151953553Y-124475624D01*
X151953156Y-124457330D01*
X151952496Y-124439600D01*
X151951571Y-124422435D01*
X151950382Y-124405835D01*
X151948929Y-124389800D01*
X151947211Y-124374330D01*
X151945230Y-124359425D01*
X151942984Y-124345084D01*
X151940474Y-124331309D01*
X151937700Y-124318098D01*
X151934661Y-124305453D01*
X151931358Y-124293372D01*
X151927791Y-124281856D01*
X151923960Y-124270905D01*
X151919865Y-124260519D01*
X151915505Y-124250697D01*
X151910881Y-124241441D01*
X151905993Y-124232749D01*
X151900841Y-124224622D01*
X151895425Y-124217061D01*
X151889744Y-124210064D01*
X151881981Y-124201628D01*
X151873738Y-124193704D01*
X151865014Y-124186291D01*
X151855809Y-124179389D01*
X151846123Y-124172999D01*
X151835957Y-124167119D01*
X151825311Y-124161751D01*
X151814184Y-124156895D01*
X151802576Y-124152549D01*
X151790487Y-124148715D01*
X151777918Y-124145392D01*
X151764868Y-124142580D01*
X151751337Y-124140279D01*
X151737326Y-124138490D01*
X151722834Y-124137212D01*
X151707862Y-124136445D01*
X151692409Y-124136189D01*
X151676952Y-124136445D01*
X151661968Y-124137212D01*
X151647457Y-124138490D01*
X151633419Y-124140279D01*
X151619854Y-124142580D01*
X151606763Y-124145392D01*
X151594144Y-124148715D01*
X151581998Y-124152549D01*
X151570325Y-124156895D01*
X151559125Y-124161751D01*
X151548399Y-124167119D01*
X151538145Y-124172999D01*
X151528364Y-124179389D01*
X151519056Y-124186291D01*
X151510222Y-124193704D01*
X151501860Y-124201628D01*
X151493971Y-124210064D01*
X151488291Y-124217061D01*
X151482874Y-124224622D01*
X151477722Y-124232749D01*
X151472834Y-124241441D01*
X151468210Y-124250697D01*
X151463850Y-124260519D01*
X151459755Y-124270905D01*
X151455924Y-124281856D01*
X151452357Y-124293372D01*
X151449054Y-124305453D01*
X151296636Y-124923326D01*
X151288874Y-124914652D01*
X151281337Y-124905766D01*
X151274025Y-124896668D01*
X151266938Y-124887357D01*
X151260076Y-124877834D01*
X151253439Y-124868098D01*
X151247027Y-124858150D01*
X151240840Y-124847990D01*
X151234878Y-124837617D01*
X151229140Y-124827032D01*
X151223628Y-124816235D01*
X151218341Y-124805225D01*
X151213279Y-124794003D01*
X151208442Y-124782568D01*
X151203830Y-124770921D01*
X151199442Y-124759062D01*
X151195280Y-124746990D01*
X151191343Y-124734706D01*
X151187631Y-124722210D01*
X151184143Y-124709501D01*
X151180881Y-124696580D01*
X151177844Y-124683446D01*
X151175031Y-124670100D01*
X151172444Y-124656542D01*
X151170082Y-124642772D01*
X151167944Y-124628789D01*
X151166032Y-124614593D01*
X151164345Y-124600185D01*
X151162882Y-124585565D01*
X151161645Y-124570733D01*
X151160632Y-124555688D01*
X151159845Y-124540431D01*
X151159282Y-124524961D01*
X151158945Y-124509279D01*
X151158832Y-124493385D01*
X151158945Y-124477490D01*
X151159282Y-124461807D01*
X151159845Y-124446336D01*
X151160632Y-124431078D01*
X151161645Y-124416033D01*
X151162882Y-124401199D01*
X151164345Y-124386579D01*
X151166032Y-124372170D01*
X151167944Y-124357974D01*
X151170082Y-124343990D01*
X151172444Y-124330219D01*
X151175031Y-124316660D01*
X151177844Y-124303314D01*
X151180881Y-124290180D01*
X151184143Y-124277258D01*
X151187631Y-124264549D01*
X151191343Y-124252052D01*
X151195280Y-124239768D01*
X151199442Y-124227696D01*
X151203830Y-124215836D01*
X151208442Y-124204189D01*
X151213279Y-124192754D01*
X151218341Y-124181531D01*
X151223628Y-124170521D01*
X151229140Y-124159724D01*
X151234878Y-124149138D01*
X151240840Y-124138765D01*
X151247027Y-124128605D01*
X151253439Y-124118657D01*
X151260076Y-124108921D01*
X151266938Y-124099398D01*
X151274025Y-124090087D01*
X151281337Y-124080988D01*
X151288874Y-124072102D01*
X151296636Y-124063429D01*
X151305097Y-124054479D01*
X151313777Y-124045806D01*
X151322675Y-124037407D01*
X151331793Y-124029284D01*
X151341128Y-124021437D01*
X151350683Y-124013864D01*
X151360456Y-124006568D01*
X151370447Y-123999546D01*
X151380658Y-123992800D01*
X151391087Y-123986329D01*
X151401735Y-123980133D01*
X151412601Y-123974213D01*
X151423686Y-123968568D01*
X151434990Y-123963199D01*
X151446512Y-123958105D01*
X151458253Y-123953286D01*
X151470213Y-123948743D01*
X151482391Y-123944475D01*
X151494788Y-123940482D01*
X151507404Y-123936765D01*
X151520238Y-123933323D01*
X151533291Y-123930156D01*
X151546563Y-123927265D01*
X151560053Y-123924649D01*
X151573762Y-123922308D01*
X151587690Y-123920243D01*
X151601836Y-123918453D01*
X151616201Y-123916939D01*
X151630785Y-123915700D01*
X151645587Y-123914736D01*
X151660608Y-123914048D01*
X151675848Y-123913635D01*
X151691306Y-123913497D01*
X151706830Y-123913635D01*
X151722134Y-123914048D01*
X151737217Y-123914736D01*
X151752079Y-123915700D01*
X151766720Y-123916939D01*
X151781141Y-123918453D01*
X151795341Y-123920243D01*
X151809320Y-123922308D01*
X151823079Y-123924649D01*
X151836617Y-123927265D01*
X151849934Y-123930156D01*
X151863030Y-123933323D01*
X151875906Y-123936765D01*
X151888561Y-123940482D01*
X151900996Y-123944475D01*
X151913210Y-123948743D01*
X151925203Y-123953286D01*
X151936975Y-123958105D01*
X151948527Y-123963199D01*
X151959858Y-123968568D01*
X151970968Y-123974213D01*
X151981858Y-123980133D01*
X151992527Y-123986329D01*
X152002975Y-123992800D01*
X152013203Y-123999546D01*
X152023210Y-124006568D01*
X152032996Y-124013864D01*
X152042562Y-124021437D01*
X152051907Y-124029284D01*
X152061031Y-124037407D01*
X152069934Y-124045806D01*
X152078617Y-124054479D01*
X152087079Y-124063429D01*
X152094841Y-124072102D01*
X152102378Y-124080988D01*
X152109690Y-124090087D01*
X152116777Y-124099398D01*
X152123639Y-124108921D01*
X152130276Y-124118657D01*
X152136688Y-124128605D01*
X152142875Y-124138765D01*
X152148838Y-124149138D01*
X152154575Y-124159724D01*
X152160087Y-124170521D01*
X152165374Y-124181531D01*
X152170436Y-124192754D01*
X152175273Y-124204189D01*
X152179886Y-124215836D01*
X152184273Y-124227696D01*
X152188435Y-124239768D01*
X152192372Y-124252052D01*
X152196085Y-124264549D01*
X152199572Y-124277258D01*
X152202834Y-124290180D01*
X152205871Y-124303314D01*
X152208684Y-124316660D01*
X152211271Y-124330219D01*
X152213634Y-124343990D01*
X152215771Y-124357974D01*
X152217683Y-124372170D01*
X152219371Y-124386579D01*
X152220833Y-124401199D01*
X152222070Y-124416033D01*
X152223083Y-124431078D01*
X152223870Y-124446336D01*
X152224433Y-124461807D01*
X152224770Y-124477490D01*
X152224883Y-124493385D01*
X152224770Y-124509279D01*
X152224433Y-124524961D01*
X152223870Y-124540431D01*
X152223083Y-124555688D01*
X152222070Y-124570733D01*
X152220833Y-124585565D01*
X152219371Y-124600185D01*
X152217683Y-124614593D01*
X152215771Y-124628789D01*
X152213634Y-124642772D01*
X152211271Y-124656542D01*
X152208684Y-124670100D01*
X152205871Y-124683446D01*
X152202834Y-124696580D01*
X152199572Y-124709501D01*
X152196085Y-124722210D01*
X152192372Y-124734706D01*
X152188435Y-124746990D01*
X152184273Y-124759062D01*
X152179886Y-124770921D01*
X152175273Y-124782568D01*
X152170436Y-124794003D01*
X152165374Y-124805225D01*
X152160087Y-124816235D01*
X152154575Y-124827032D01*
X152148838Y-124837617D01*
X152142875Y-124847990D01*
X152136688Y-124858150D01*
X152130276Y-124868098D01*
X152123639Y-124877834D01*
X152116777Y-124887357D01*
X152109690Y-124896668D01*
X152102378Y-124905766D01*
X152094841Y-124914652D01*
X152087079Y-124923326D01*
X152078617Y-124932275D01*
X152069934Y-124940949D01*
X152061031Y-124949347D01*
X152051907Y-124957470D01*
X152042562Y-124965318D01*
X152032996Y-124972890D01*
X152023210Y-124980187D01*
X152013203Y-124987208D01*
X152002975Y-124993955D01*
X151992527Y-125000426D01*
X151981858Y-125006621D01*
X151970968Y-125012541D01*
X151959858Y-125018186D01*
X151948527Y-125023555D01*
X151936975Y-125028650D01*
X151925203Y-125033468D01*
X151913210Y-125038012D01*
X151900996Y-125042280D01*
X151888561Y-125046272D01*
X151875906Y-125049990D01*
X151863030Y-125053432D01*
X151849934Y-125056598D01*
X151836617Y-125059489D01*
X151823079Y-125062105D01*
X151809320Y-125064446D01*
X151795341Y-125066511D01*
X151781141Y-125068301D01*
X151766720Y-125069815D01*
X151752079Y-125071054D01*
X151737217Y-125072018D01*
X151722134Y-125072707D01*
X151706830Y-125073120D01*
X151691306Y-125073257D01*
X151675848Y-125073120D01*
X151660608Y-125072707D01*
X151645587Y-125072018D01*
X151630785Y-125071054D01*
X151616201Y-125069815D01*
X151601836Y-125068301D01*
X151587690Y-125066511D01*
X151573762Y-125064446D01*
X151560053Y-125062105D01*
X151546563Y-125059489D01*
X151533291Y-125056598D01*
X151520238Y-125053432D01*
X151507404Y-125049990D01*
X151494788Y-125046272D01*
X151482391Y-125042280D01*
X151470213Y-125038012D01*
X151458253Y-125033468D01*
X151446512Y-125028650D01*
X151434990Y-125023555D01*
X151423686Y-125018186D01*
X151412601Y-125012541D01*
X151401735Y-125006621D01*
X151391087Y-125000426D01*
X151380658Y-124993955D01*
X151370447Y-124987208D01*
X151360456Y-124980187D01*
X151350683Y-124972890D01*
X151341128Y-124965318D01*
X151331793Y-124957470D01*
X151322675Y-124949347D01*
X151313777Y-124940949D01*
X151305097Y-124932275D01*
X151296636Y-124923326D01*
X151296636Y-124923326D01*
G37*
G36*
X152515925Y-125055617D02*
X152515925Y-123500098D01*
X152787122Y-123500098D01*
X152787122Y-125055617D01*
X152515925Y-125055617D01*
X152515925Y-125055617D01*
G37*
G36*
X153031862Y-123928940D02*
X153319596Y-123928940D01*
X153572053Y-124714963D01*
X153820100Y-123928940D01*
X154106732Y-123928940D01*
X153677886Y-125083176D01*
X153671633Y-125099940D01*
X153665344Y-125116320D01*
X153659018Y-125132318D01*
X153652655Y-125147933D01*
X153646255Y-125163165D01*
X153639819Y-125178015D01*
X153633346Y-125192481D01*
X153626836Y-125206565D01*
X153620290Y-125220266D01*
X153613707Y-125233585D01*
X153607087Y-125246520D01*
X153600430Y-125259073D01*
X153593737Y-125271243D01*
X153587007Y-125283031D01*
X153580241Y-125294435D01*
X153573437Y-125305457D01*
X153566597Y-125316096D01*
X153559720Y-125326353D01*
X153552807Y-125336226D01*
X153545857Y-125345717D01*
X153538870Y-125354825D01*
X153531846Y-125363551D01*
X153524786Y-125371893D01*
X153517689Y-125379853D01*
X153510555Y-125387430D01*
X153503385Y-125394624D01*
X153496178Y-125401436D01*
X153488934Y-125407865D01*
X153481654Y-125413911D01*
X153469871Y-125423200D01*
X153458040Y-125431958D01*
X153446161Y-125440186D01*
X153434235Y-125447883D01*
X153422262Y-125455049D01*
X153410241Y-125461684D01*
X153398172Y-125467788D01*
X153386055Y-125473362D01*
X153373891Y-125478404D01*
X153361679Y-125482916D01*
X153349420Y-125486897D01*
X153337113Y-125490347D01*
X153324758Y-125493267D01*
X153312356Y-125495656D01*
X153299906Y-125497513D01*
X153287408Y-125498840D01*
X153274863Y-125499637D01*
X153262270Y-125499902D01*
X153249360Y-125499719D01*
X153236412Y-125499171D01*
X153223424Y-125498258D01*
X153210397Y-125496979D01*
X153197331Y-125495335D01*
X153184226Y-125493326D01*
X153171081Y-125490951D01*
X153157898Y-125488211D01*
X153144675Y-125485106D01*
X153131413Y-125481635D01*
X153118112Y-125477799D01*
X153104772Y-125473597D01*
X153091393Y-125469031D01*
X153091393Y-125243027D01*
X153104380Y-125248264D01*
X153117322Y-125252949D01*
X153130221Y-125257083D01*
X153143075Y-125260665D01*
X153155885Y-125263697D01*
X153168652Y-125266177D01*
X153181374Y-125268107D01*
X153194052Y-125269485D01*
X153206685Y-125270311D01*
X153219275Y-125270587D01*
X153227315Y-125270262D01*
X153235315Y-125269287D01*
X153243276Y-125267661D01*
X153251197Y-125265386D01*
X153259079Y-125262460D01*
X153266922Y-125258884D01*
X153274726Y-125254658D01*
X153282490Y-125249781D01*
X153290215Y-125244255D01*
X153297900Y-125238078D01*
X153305547Y-125231251D01*
X153313153Y-125223774D01*
X153320721Y-125215647D01*
X153328249Y-125206869D01*
X153335738Y-125197442D01*
X153343188Y-125187364D01*
X153350598Y-125176636D01*
X153357969Y-125165257D01*
X153365301Y-125153229D01*
X153372593Y-125140551D01*
X153379846Y-125127222D01*
X153387060Y-125113243D01*
X153394234Y-125098614D01*
X153401369Y-125083334D01*
X153408465Y-125067405D01*
X153415521Y-125050825D01*
X153422538Y-125033595D01*
X153429516Y-125015715D01*
X153436454Y-124997185D01*
X153031862Y-123928940D01*
X153031862Y-123928940D01*
G37*
G36*
X154263277Y-124262971D02*
X154263502Y-124248358D01*
X154264177Y-124234046D01*
X154265302Y-124220033D01*
X154266878Y-124206321D01*
X154268904Y-124192909D01*
X154271379Y-124179797D01*
X154274305Y-124166985D01*
X154277681Y-124154472D01*
X154281508Y-124142260D01*
X154285784Y-124130349D01*
X154290510Y-124118737D01*
X154295687Y-124107425D01*
X154301314Y-124096413D01*
X154307391Y-124085701D01*
X154313918Y-124075290D01*
X154320895Y-124065178D01*
X154328322Y-124055367D01*
X154336200Y-124045856D01*
X154344527Y-124036644D01*
X154353305Y-124027733D01*
X154362533Y-124019122D01*
X154372211Y-124010811D01*
X154382339Y-124002800D01*
X154392455Y-123995334D01*
X154402773Y-123988185D01*
X154413294Y-123981354D01*
X154424017Y-123974841D01*
X154434944Y-123968646D01*
X154446074Y-123962768D01*
X154457406Y-123957208D01*
X154468941Y-123951966D01*
X154480680Y-123947042D01*
X154492621Y-123942435D01*
X154504765Y-123938146D01*
X154517112Y-123934175D01*
X154529661Y-123930521D01*
X154542414Y-123927185D01*
X154555369Y-123924167D01*
X154568528Y-123921466D01*
X154581889Y-123919083D01*
X154595453Y-123917018D01*
X154609220Y-123915271D01*
X154623190Y-123913841D01*
X154637363Y-123912729D01*
X154651738Y-123911935D01*
X154666317Y-123911458D01*
X154681098Y-123911300D01*
X154695014Y-123911439D01*
X154708835Y-123911858D01*
X154722560Y-123912557D01*
X154736189Y-123913535D01*
X154749722Y-123914793D01*
X154763160Y-123916330D01*
X154776502Y-123918146D01*
X154789749Y-123920242D01*
X154802899Y-123922617D01*
X154815954Y-123925272D01*
X154828914Y-123928206D01*
X154841777Y-123931420D01*
X154854545Y-123934913D01*
X154867217Y-123938686D01*
X154879794Y-123942738D01*
X154892275Y-123947069D01*
X154904660Y-123951680D01*
X154916949Y-123956571D01*
X154929143Y-123961741D01*
X154941241Y-123967190D01*
X154953243Y-123972919D01*
X154965150Y-123978927D01*
X154976961Y-123985215D01*
X154988676Y-123991782D01*
X154988676Y-124197932D01*
X154977134Y-124192665D01*
X154965437Y-124187668D01*
X154953586Y-124182941D01*
X154941580Y-124178484D01*
X154929421Y-124174298D01*
X154917106Y-124170381D01*
X154904638Y-124166735D01*
X154892015Y-124163358D01*
X154879238Y-124160252D01*
X154866306Y-124157416D01*
X154853221Y-124154850D01*
X154839980Y-124152554D01*
X154826586Y-124150528D01*
X154813037Y-124148773D01*
X154799334Y-124147287D01*
X154785476Y-124146072D01*
X154771464Y-124145126D01*
X154757298Y-124144451D01*
X154742978Y-124144046D01*
X154728503Y-124143911D01*
X154710464Y-124144126D01*
X154693305Y-124144771D01*
X154677026Y-124145846D01*
X154661627Y-124147351D01*
X154647108Y-124149286D01*
X154633469Y-124151651D01*
X154620709Y-124154445D01*
X154608830Y-124157670D01*
X154597831Y-124161325D01*
X154587711Y-124165410D01*
X154578472Y-124169925D01*
X154570113Y-124174870D01*
X154562633Y-124180245D01*
X154556033Y-124186049D01*
X154550314Y-124192284D01*
X154545474Y-124198949D01*
X154541514Y-124206044D01*
X154538435Y-124213568D01*
X154536235Y-124221523D01*
X154534915Y-124229908D01*
X154534475Y-124238722D01*
X154535336Y-124250262D01*
X154537920Y-124261182D01*
X154542226Y-124271481D01*
X154548255Y-124281161D01*
X154556007Y-124290221D01*
X154565481Y-124298661D01*
X154576677Y-124306481D01*
X154589596Y-124313681D01*
X154599819Y-124318446D01*
X154610442Y-124323121D01*
X154621467Y-124327704D01*
X154632892Y-124332197D01*
X154644718Y-124336598D01*
X154656945Y-124340908D01*
X154669573Y-124345128D01*
X154682601Y-124349256D01*
X154696031Y-124353293D01*
X154709862Y-124357239D01*
X154724093Y-124361094D01*
X154737314Y-124364508D01*
X154750521Y-124368136D01*
X154763712Y-124371978D01*
X154776887Y-124376035D01*
X154790047Y-124380307D01*
X154803192Y-124384793D01*
X154816322Y-124389494D01*
X154829436Y-124394409D01*
X154842535Y-124399538D01*
X154855619Y-124404882D01*
X154868687Y-124410441D01*
X154881740Y-124416214D01*
X154892956Y-124421342D01*
X154903924Y-124426966D01*
X154914645Y-124433085D01*
X154925118Y-124439698D01*
X154935343Y-124446807D01*
X154945321Y-124454411D01*
X154955052Y-124462510D01*
X154964535Y-124471103D01*
X154973771Y-124480192D01*
X154982759Y-124489776D01*
X154991500Y-124499855D01*
X154999993Y-124510429D01*
X155008239Y-124521497D01*
X155016237Y-124533061D01*
X155022657Y-124542947D01*
X155028688Y-124553144D01*
X155034330Y-124563655D01*
X155039583Y-124574478D01*
X155044446Y-124585614D01*
X155048921Y-124597063D01*
X155053006Y-124608824D01*
X155056703Y-124620898D01*
X155060010Y-124633285D01*
X155062928Y-124645985D01*
X155065457Y-124658997D01*
X155067597Y-124672322D01*
X155069348Y-124685959D01*
X155070710Y-124699910D01*
X155071683Y-124714173D01*
X155072266Y-124728748D01*
X155072461Y-124743637D01*
X155072198Y-124757071D01*
X155071411Y-124770285D01*
X155070099Y-124783278D01*
X155068261Y-124796052D01*
X155065899Y-124808607D01*
X155063012Y-124820941D01*
X155059599Y-124833055D01*
X155055662Y-124844949D01*
X155051200Y-124856623D01*
X155046213Y-124868078D01*
X155040700Y-124879312D01*
X155034663Y-124890327D01*
X155028101Y-124901121D01*
X155021014Y-124911696D01*
X155013402Y-124922050D01*
X155005265Y-124932185D01*
X154996603Y-124942100D01*
X154987416Y-124951795D01*
X154977704Y-124961270D01*
X154967468Y-124970525D01*
X154956706Y-124979560D01*
X154947021Y-124987205D01*
X154937076Y-124994525D01*
X154926871Y-125001520D01*
X154916406Y-125008189D01*
X154905680Y-125014534D01*
X154894694Y-125020552D01*
X154883448Y-125026246D01*
X154871941Y-125031614D01*
X154860174Y-125036657D01*
X154848147Y-125041374D01*
X154835859Y-125045766D01*
X154823312Y-125049833D01*
X154810504Y-125053574D01*
X154797435Y-125056990D01*
X154784106Y-125060081D01*
X154770517Y-125062846D01*
X154756668Y-125065286D01*
X154742559Y-125067401D01*
X154728189Y-125069191D01*
X154713559Y-125070655D01*
X154698668Y-125071793D01*
X154683517Y-125072607D01*
X154668106Y-125073095D01*
X154652435Y-125073257D01*
X154638615Y-125073139D01*
X154624874Y-125072785D01*
X154611212Y-125072194D01*
X154597628Y-125071368D01*
X154584124Y-125070305D01*
X154570698Y-125069005D01*
X154557350Y-125067470D01*
X154544082Y-125065698D01*
X154530892Y-125063690D01*
X154517781Y-125061446D01*
X154504749Y-125058966D01*
X154491795Y-125056249D01*
X154478920Y-125053297D01*
X154466124Y-125050108D01*
X154453407Y-125046682D01*
X154440768Y-125043021D01*
X154428208Y-125039123D01*
X154415727Y-125034989D01*
X154403325Y-125030619D01*
X154391001Y-125026013D01*
X154378757Y-125021170D01*
X154366590Y-125016092D01*
X154354503Y-125010777D01*
X154342494Y-125005225D01*
X154330565Y-124999438D01*
X154318713Y-124993414D01*
X154306941Y-124987154D01*
X154295247Y-124980658D01*
X154295247Y-124739227D01*
X154307187Y-124747006D01*
X154319194Y-124754467D01*
X154331268Y-124761611D01*
X154343409Y-124768438D01*
X154355617Y-124774946D01*
X154367891Y-124781138D01*
X154380233Y-124787012D01*
X154392642Y-124792568D01*
X154405118Y-124797807D01*
X154417661Y-124802729D01*
X154430271Y-124807332D01*
X154442948Y-124811619D01*
X154455692Y-124815588D01*
X154468504Y-124819239D01*
X154481382Y-124822573D01*
X154494327Y-124825589D01*
X154507339Y-124828288D01*
X154520418Y-124830669D01*
X154533565Y-124832733D01*
X154546778Y-124834480D01*
X154560058Y-124835908D01*
X154573406Y-124837020D01*
X154586820Y-124837813D01*
X154600301Y-124838290D01*
X154613850Y-124838448D01*
X154632760Y-124838265D01*
X154650536Y-124837713D01*
X154667180Y-124836795D01*
X154682690Y-124835508D01*
X154697068Y-124833854D01*
X154710313Y-124831833D01*
X154722424Y-124829444D01*
X154733402Y-124826688D01*
X154743248Y-124823564D01*
X154751960Y-124820073D01*
X154759539Y-124816214D01*
X154765985Y-124811987D01*
X154774253Y-124804684D01*
X154781419Y-124796553D01*
X154787483Y-124787596D01*
X154792444Y-124777812D01*
X154796302Y-124767201D01*
X154799058Y-124755763D01*
X154800712Y-124743498D01*
X154801263Y-124730406D01*
X154800569Y-124719626D01*
X154798487Y-124709337D01*
X154795016Y-124699537D01*
X154790157Y-124690226D01*
X154783910Y-124681406D01*
X154776275Y-124673075D01*
X154767251Y-124665235D01*
X154756839Y-124657884D01*
X154745039Y-124651023D01*
X154734817Y-124645485D01*
X154724193Y-124640093D01*
X154713169Y-124634847D01*
X154701744Y-124629746D01*
X154689918Y-124624791D01*
X154677691Y-124619981D01*
X154665063Y-124615317D01*
X154652034Y-124610798D01*
X154638604Y-124606425D01*
X154624774Y-124602198D01*
X154610543Y-124598115D01*
X154597489Y-124594204D01*
X154584421Y-124590184D01*
X154571337Y-124586058D01*
X154558238Y-124581824D01*
X154545124Y-124577483D01*
X154531994Y-124573035D01*
X154518849Y-124568480D01*
X154505689Y-124563817D01*
X154492514Y-124559047D01*
X154479323Y-124554170D01*
X154466116Y-124549186D01*
X154452895Y-124544094D01*
X154440983Y-124539110D01*
X154429333Y-124533656D01*
X154417943Y-124527733D01*
X154406815Y-124521340D01*
X154395947Y-124514478D01*
X154385340Y-124507146D01*
X154374994Y-124499344D01*
X154364909Y-124491073D01*
X154355085Y-124482333D01*
X154345522Y-124473123D01*
X154336220Y-124463443D01*
X154327179Y-124453294D01*
X154318398Y-124442675D01*
X154311294Y-124432958D01*
X154304679Y-124422918D01*
X154298555Y-124412555D01*
X154292920Y-124401868D01*
X154287775Y-124390858D01*
X154283121Y-124379525D01*
X154278956Y-124367868D01*
X154275281Y-124355888D01*
X154272096Y-124343584D01*
X154269401Y-124330957D01*
X154267197Y-124318006D01*
X154265482Y-124304733D01*
X154264257Y-124291135D01*
X154263522Y-124277215D01*
X154263277Y-124262971D01*
X154263277Y-124262971D01*
G37*
G36*
X155243338Y-124161552D02*
X155243338Y-123928940D01*
X155432956Y-123928940D01*
X155432956Y-123594895D01*
X155704154Y-123594895D01*
X155704154Y-123928940D01*
X155970942Y-123928940D01*
X155970942Y-124161552D01*
X155704154Y-124161552D01*
X155704154Y-124717176D01*
X155704619Y-124734625D01*
X155706014Y-124750593D01*
X155708339Y-124765079D01*
X155711595Y-124778083D01*
X155715781Y-124789606D01*
X155720897Y-124799647D01*
X155726943Y-124808206D01*
X155733919Y-124815284D01*
X155741350Y-124820607D01*
X155749925Y-124825303D01*
X155759643Y-124829374D01*
X155770504Y-124832818D01*
X155782508Y-124835636D01*
X155795655Y-124837828D01*
X155809946Y-124839394D01*
X155825380Y-124840333D01*
X155841958Y-124840646D01*
X155856344Y-124840403D01*
X155870400Y-124839676D01*
X155884125Y-124838464D01*
X155897520Y-124836766D01*
X155910584Y-124834584D01*
X155923317Y-124831917D01*
X155935719Y-124828764D01*
X155947791Y-124825127D01*
X155959532Y-124821005D01*
X155970942Y-124816397D01*
X155970942Y-125040188D01*
X155958646Y-125045080D01*
X155946180Y-125049581D01*
X155933544Y-125053690D01*
X155920739Y-125057408D01*
X155907764Y-125060734D01*
X155894620Y-125063669D01*
X155881306Y-125066213D01*
X155867822Y-125068365D01*
X155854169Y-125070127D01*
X155840346Y-125071496D01*
X155826354Y-125072475D01*
X155812192Y-125073062D01*
X155797860Y-125073257D01*
X155792348Y-125073257D01*
X155777263Y-125073052D01*
X155762473Y-125072437D01*
X155747980Y-125071412D01*
X155733783Y-125069977D01*
X155719882Y-125068132D01*
X155706277Y-125065877D01*
X155692968Y-125063212D01*
X155679955Y-125060137D01*
X155667238Y-125056652D01*
X155654818Y-125052757D01*
X155642693Y-125048452D01*
X155630865Y-125043737D01*
X155619333Y-125038612D01*
X155608097Y-125033077D01*
X155597157Y-125027131D01*
X155586513Y-125020776D01*
X155576165Y-125014011D01*
X155566113Y-125006836D01*
X155556358Y-124999251D01*
X155546898Y-124991256D01*
X155537735Y-124982851D01*
X155528867Y-124974035D01*
X155520709Y-124965267D01*
X155512912Y-124956215D01*
X155505479Y-124946880D01*
X155498408Y-124937261D01*
X155491699Y-124927358D01*
X155485354Y-124917172D01*
X155479371Y-124906703D01*
X155473750Y-124895950D01*
X155468492Y-124884913D01*
X155463597Y-124873593D01*
X155459064Y-124861990D01*
X155454894Y-124850103D01*
X155451087Y-124837932D01*
X155447642Y-124825478D01*
X155444560Y-124812741D01*
X155441840Y-124799719D01*
X155439483Y-124786415D01*
X155437489Y-124772827D01*
X155435857Y-124758955D01*
X155434588Y-124744800D01*
X155433681Y-124730361D01*
X155433137Y-124715639D01*
X155432956Y-124700634D01*
X155432956Y-124161552D01*
X155243338Y-124161552D01*
X155243338Y-124161552D01*
X155243338Y-124161552D01*
G37*
G36*
X156184813Y-124687403D02*
X156452703Y-124653235D01*
X156452975Y-124665919D01*
X156453789Y-124678142D01*
X156455146Y-124689903D01*
X156457046Y-124701203D01*
X156459488Y-124712042D01*
X156462473Y-124722420D01*
X156466001Y-124732337D01*
X156470072Y-124741792D01*
X156474686Y-124750786D01*
X156479842Y-124759319D01*
X156485541Y-124767390D01*
X156491783Y-124775001D01*
X156498568Y-124782150D01*
X156505896Y-124788838D01*
X156513766Y-124795064D01*
X156522179Y-124800830D01*
X156531135Y-124806134D01*
X156540633Y-124810977D01*
X156550675Y-124815358D01*
X156561259Y-124819279D01*
X156572386Y-124822738D01*
X156584056Y-124825736D01*
X156596268Y-124828273D01*
X156609023Y-124830348D01*
X156622322Y-124831963D01*
X156636162Y-124833116D01*
X156650546Y-124833808D01*
X156665472Y-124834038D01*
X156667677Y-124834038D01*
X156682425Y-124833804D01*
X156696616Y-124833101D01*
X156710250Y-124831929D01*
X156723328Y-124830288D01*
X156735850Y-124828178D01*
X156747815Y-124825600D01*
X156759223Y-124822552D01*
X156770075Y-124819036D01*
X156780370Y-124815051D01*
X156790109Y-124810597D01*
X156799292Y-124805675D01*
X156807918Y-124800283D01*
X156815987Y-124794423D01*
X156823500Y-124788094D01*
X156830456Y-124781296D01*
X156836856Y-124774030D01*
X156842699Y-124766294D01*
X156847986Y-124758090D01*
X156852717Y-124749417D01*
X156856890Y-124740275D01*
X156860508Y-124730664D01*
X156863568Y-124720585D01*
X156866073Y-124710036D01*
X156868021Y-124699019D01*
X156869412Y-124687533D01*
X156870247Y-124675578D01*
X156870525Y-124663155D01*
X156870525Y-124520945D01*
X156854915Y-124518822D01*
X156839687Y-124516868D01*
X156824843Y-124515084D01*
X156810381Y-124513469D01*
X156796302Y-124512023D01*
X156782606Y-124510747D01*
X156769293Y-124509640D01*
X156756362Y-124508702D01*
X156743814Y-124507934D01*
X156731649Y-124507335D01*
X156719867Y-124506906D01*
X156708468Y-124506645D01*
X156691206Y-124506820D01*
X156674548Y-124507343D01*
X156658492Y-124508214D01*
X156643040Y-124509435D01*
X156628191Y-124511004D01*
X156613944Y-124512922D01*
X156600301Y-124515188D01*
X156587260Y-124517803D01*
X156574823Y-124520767D01*
X156562989Y-124524079D01*
X156551757Y-124527741D01*
X156541129Y-124531750D01*
X156531103Y-124536109D01*
X156521681Y-124540816D01*
X156512861Y-124545872D01*
X156504645Y-124551276D01*
X156497032Y-124557030D01*
X156490021Y-124563132D01*
X156483614Y-124569582D01*
X156477809Y-124576381D01*
X156472608Y-124583529D01*
X156468009Y-124591026D01*
X156464014Y-124598871D01*
X156460621Y-124607065D01*
X156457832Y-124615608D01*
X156455645Y-124624499D01*
X156454062Y-124633739D01*
X156453081Y-124643328D01*
X156452704Y-124653265D01*
X156452703Y-124653235D01*
X156184813Y-124687403D01*
X156185078Y-124673691D01*
X156185872Y-124659891D01*
X156187194Y-124646001D01*
X156189046Y-124632022D01*
X156191427Y-124617954D01*
X156193745Y-124607199D01*
X156196917Y-124595725D01*
X156200944Y-124583531D01*
X156205827Y-124570616D01*
X156211564Y-124556982D01*
X156218156Y-124542627D01*
X156225603Y-124527552D01*
X156232217Y-124515711D01*
X156239322Y-124504196D01*
X156246916Y-124493008D01*
X156255001Y-124482147D01*
X156263575Y-124471612D01*
X156272640Y-124461405D01*
X156282194Y-124451523D01*
X156292238Y-124441969D01*
X156302773Y-124432741D01*
X156311179Y-124426027D01*
X156320228Y-124419481D01*
X156329920Y-124413104D01*
X156340255Y-124406895D01*
X156351234Y-124400855D01*
X156362855Y-124394983D01*
X156375120Y-124389280D01*
X156388027Y-124383745D01*
X156401578Y-124378379D01*
X156415772Y-124373181D01*
X156430609Y-124368152D01*
X156446089Y-124363292D01*
X156457361Y-124359894D01*
X156468870Y-124356702D01*
X156480615Y-124353716D01*
X156492597Y-124350935D01*
X156504815Y-124348361D01*
X156517270Y-124345993D01*
X156529961Y-124343831D01*
X156542889Y-124341874D01*
X156556053Y-124340124D01*
X156569454Y-124338579D01*
X156583091Y-124337241D01*
X156596965Y-124336108D01*
X156611076Y-124335182D01*
X156625422Y-124334461D01*
X156640006Y-124333946D01*
X156654826Y-124333637D01*
X156669882Y-124333534D01*
X156682288Y-124333603D01*
X156694812Y-124333808D01*
X156707453Y-124334151D01*
X156720212Y-124334631D01*
X156733088Y-124335248D01*
X156746082Y-124336003D01*
X156759194Y-124336894D01*
X156772423Y-124337922D01*
X156785770Y-124339088D01*
X156799234Y-124340391D01*
X156812816Y-124341831D01*
X156826515Y-124343408D01*
X156840333Y-124345122D01*
X156854267Y-124346974D01*
X156868320Y-124348962D01*
X156868100Y-124336262D01*
X156867441Y-124323953D01*
X156866342Y-124312035D01*
X156864805Y-124300507D01*
X156862828Y-124289370D01*
X156860411Y-124278624D01*
X156857555Y-124268269D01*
X156854260Y-124258304D01*
X156850526Y-124248730D01*
X156846352Y-124239547D01*
X156841739Y-124230755D01*
X156836686Y-124222353D01*
X156831194Y-124214343D01*
X156825263Y-124206723D01*
X156818892Y-124199494D01*
X156812082Y-124192655D01*
X156804833Y-124186207D01*
X156797144Y-124180151D01*
X156789016Y-124174484D01*
X156780449Y-124169209D01*
X156771442Y-124164324D01*
X156761996Y-124159831D01*
X156752111Y-124155728D01*
X156741786Y-124152015D01*
X156731022Y-124148694D01*
X156719818Y-124145763D01*
X156708176Y-124143223D01*
X156696093Y-124141074D01*
X156683572Y-124139315D01*
X156670611Y-124137948D01*
X156657211Y-124136971D01*
X156643371Y-124136385D01*
X156629092Y-124136189D01*
X156614002Y-124136281D01*
X156599071Y-124136556D01*
X156584298Y-124137015D01*
X156569684Y-124137657D01*
X156555229Y-124138483D01*
X156540933Y-124139492D01*
X156526795Y-124140684D01*
X156512817Y-124142060D01*
X156498997Y-124143620D01*
X156485335Y-124145362D01*
X156471833Y-124147289D01*
X156458489Y-124149399D01*
X156445304Y-124151692D01*
X156432277Y-124154169D01*
X156419410Y-124156829D01*
X156406701Y-124159673D01*
X156394151Y-124162700D01*
X156381760Y-124165910D01*
X156369527Y-124169304D01*
X156357453Y-124172882D01*
X156345538Y-124176643D01*
X156333782Y-124180588D01*
X156322184Y-124184715D01*
X156310745Y-124189027D01*
X156299465Y-124193522D01*
X156299465Y-123974141D01*
X156311473Y-123969400D01*
X156323582Y-123964845D01*
X156335792Y-123960476D01*
X156348103Y-123956293D01*
X156360515Y-123952295D01*
X156373028Y-123948484D01*
X156385643Y-123944858D01*
X156398358Y-123941419D01*
X156411175Y-123938165D01*
X156424092Y-123935097D01*
X156437111Y-123932216D01*
X156450231Y-123929520D01*
X156463452Y-123927010D01*
X156476774Y-123924686D01*
X156490197Y-123922548D01*
X156503722Y-123920596D01*
X156517347Y-123918829D01*
X156531074Y-123917249D01*
X156544901Y-123915855D01*
X156558830Y-123914646D01*
X156572860Y-123913624D01*
X156586991Y-123912787D01*
X156601223Y-123912136D01*
X156615556Y-123911671D01*
X156629991Y-123911392D01*
X156644526Y-123911300D01*
X156660496Y-123911437D01*
X156676213Y-123911848D01*
X156691677Y-123912534D01*
X156706890Y-123913495D01*
X156721849Y-123914729D01*
X156736557Y-123916238D01*
X156751012Y-123918022D01*
X156765215Y-123920080D01*
X156779166Y-123922412D01*
X156792864Y-123925018D01*
X156806310Y-123927899D01*
X156819504Y-123931055D01*
X156832445Y-123934484D01*
X156845134Y-123938189D01*
X156857571Y-123942167D01*
X156869755Y-123946420D01*
X156881687Y-123950947D01*
X156893367Y-123955749D01*
X156904794Y-123960825D01*
X156915969Y-123966175D01*
X156926892Y-123971800D01*
X156937562Y-123977699D01*
X156947980Y-123983873D01*
X156958146Y-123990321D01*
X156968059Y-123997043D01*
X156977720Y-124004039D01*
X156987129Y-124011310D01*
X156996285Y-124018856D01*
X157005189Y-124026676D01*
X157013840Y-124034770D01*
X157022224Y-124043050D01*
X157030323Y-124051576D01*
X157038138Y-124060347D01*
X157045669Y-124069362D01*
X157052915Y-124078623D01*
X157059878Y-124088128D01*
X157066556Y-124097879D01*
X157072950Y-124107874D01*
X157079060Y-124118114D01*
X157084886Y-124128600D01*
X157090428Y-124139330D01*
X157095685Y-124150305D01*
X157100658Y-124161526D01*
X157105347Y-124172991D01*
X157109752Y-124184701D01*
X157113873Y-124196657D01*
X157117709Y-124208857D01*
X157121261Y-124221302D01*
X157124529Y-124233992D01*
X157127513Y-124246927D01*
X157130213Y-124260108D01*
X157132629Y-124273533D01*
X157134760Y-124287203D01*
X157136607Y-124301118D01*
X157138170Y-124315278D01*
X157139449Y-124329683D01*
X157140444Y-124344333D01*
X157141154Y-124359228D01*
X157141580Y-124374368D01*
X157141722Y-124389753D01*
X157141722Y-124694026D01*
X157141502Y-124707461D01*
X157140839Y-124720734D01*
X157139734Y-124733844D01*
X157138188Y-124746792D01*
X157136200Y-124759577D01*
X157133770Y-124772200D01*
X157130898Y-124784660D01*
X157127585Y-124796958D01*
X157123829Y-124809093D01*
X157119632Y-124821065D01*
X157114993Y-124832875D01*
X157109912Y-124844523D01*
X157104390Y-124856008D01*
X157098425Y-124867330D01*
X157092019Y-124878490D01*
X157085171Y-124889488D01*
X157077881Y-124900322D01*
X157070150Y-124910995D01*
X157061976Y-124921505D01*
X157053361Y-124931852D01*
X157044304Y-124942037D01*
X157034805Y-124952059D01*
X157024865Y-124961919D01*
X157016732Y-124969465D01*
X157008301Y-124976746D01*
X156999570Y-124983763D01*
X156990541Y-124990515D01*
X156981213Y-124997002D01*
X156971586Y-125003224D01*
X156961660Y-125009181D01*
X156951436Y-125014874D01*
X156940912Y-125020302D01*
X156930090Y-125025465D01*
X156918968Y-125030363D01*
X156907548Y-125034997D01*
X156895829Y-125039366D01*
X156883811Y-125043470D01*
X156871494Y-125047309D01*
X156858879Y-125050884D01*
X156845964Y-125054193D01*
X156832751Y-125057238D01*
X156819238Y-125060018D01*
X156805427Y-125062534D01*
X156791317Y-125064784D01*
X156776908Y-125066770D01*
X156762200Y-125068491D01*
X156747194Y-125069948D01*
X156731888Y-125071139D01*
X156716284Y-125072066D01*
X156700380Y-125072728D01*
X156684178Y-125073125D01*
X156667677Y-125073257D01*
X156651285Y-125073132D01*
X156635182Y-125072758D01*
X156619369Y-125072133D01*
X156603844Y-125071258D01*
X156588608Y-125070134D01*
X156573662Y-125068759D01*
X156559004Y-125067135D01*
X156544636Y-125065261D01*
X156530557Y-125063137D01*
X156516767Y-125060763D01*
X156503266Y-125058139D01*
X156490054Y-125055265D01*
X156477131Y-125052141D01*
X156464497Y-125048768D01*
X156452152Y-125045144D01*
X156440096Y-125041271D01*
X156428330Y-125037148D01*
X156416852Y-125032774D01*
X156405664Y-125028151D01*
X156394764Y-125023278D01*
X156384154Y-125018156D01*
X156373833Y-125012783D01*
X156363801Y-125007160D01*
X156354058Y-125001288D01*
X156344604Y-124995165D01*
X156335439Y-124988793D01*
X156326563Y-124982171D01*
X156317976Y-124975299D01*
X156309679Y-124968177D01*
X156301670Y-124960805D01*
X156291730Y-124950936D01*
X156282231Y-124940884D01*
X156273174Y-124930648D01*
X156264559Y-124920229D01*
X156256385Y-124909626D01*
X156248654Y-124898840D01*
X156241364Y-124887870D01*
X156234516Y-124876717D01*
X156228110Y-124865380D01*
X156222145Y-124853860D01*
X156216623Y-124842156D01*
X156211542Y-124830269D01*
X156206903Y-124818199D01*
X156202706Y-124805945D01*
X156198950Y-124793507D01*
X156195637Y-124780887D01*
X156192765Y-124768082D01*
X156190335Y-124755094D01*
X156188347Y-124741923D01*
X156186801Y-124728568D01*
X156185696Y-124715030D01*
X156185034Y-124701308D01*
X156184813Y-124687403D01*
X156184813Y-124687403D01*
X156184813Y-124687403D01*
G37*
G36*
X157379848Y-124493385D02*
X157379961Y-124477366D01*
X157380298Y-124461563D01*
X157380861Y-124445976D01*
X157381648Y-124430605D01*
X157382661Y-124415450D01*
X157383898Y-124400511D01*
X157385360Y-124385787D01*
X157387048Y-124371280D01*
X157388960Y-124356989D01*
X157391097Y-124342914D01*
X157393460Y-124329055D01*
X157396047Y-124315412D01*
X157398859Y-124301985D01*
X157401897Y-124288773D01*
X157405159Y-124275778D01*
X157408646Y-124262999D01*
X157412359Y-124250436D01*
X157416296Y-124238089D01*
X157420458Y-124225957D01*
X157424845Y-124214042D01*
X157429458Y-124202343D01*
X157434295Y-124190859D01*
X157439357Y-124179592D01*
X157444644Y-124168541D01*
X157450156Y-124157705D01*
X157455893Y-124147086D01*
X157461855Y-124136683D01*
X157468043Y-124126495D01*
X157474455Y-124116524D01*
X157481092Y-124106768D01*
X157487954Y-124097229D01*
X157495041Y-124087905D01*
X157502353Y-124078798D01*
X157509890Y-124069907D01*
X157517652Y-124061231D01*
X157526113Y-124052282D01*
X157534793Y-124043608D01*
X157543691Y-124035210D01*
X157552808Y-124027087D01*
X157562144Y-124019239D01*
X157571698Y-124011667D01*
X157581471Y-124004370D01*
X157591463Y-123997348D01*
X157601674Y-123990602D01*
X157612103Y-123984131D01*
X157622750Y-123977936D01*
X157633617Y-123972016D01*
X157644702Y-123966371D01*
X157656005Y-123961001D01*
X157667528Y-123955907D01*
X157679269Y-123951088D01*
X157691229Y-123946545D01*
X157703407Y-123942277D01*
X157715804Y-123938284D01*
X157728420Y-123934567D01*
X157741254Y-123931125D01*
X157754307Y-123927959D01*
X157767579Y-123925067D01*
X157781069Y-123922451D01*
X157794778Y-123920111D01*
X157808706Y-123918046D01*
X157822852Y-123916256D01*
X157837217Y-123914741D01*
X157851801Y-123913502D01*
X157866603Y-123912539D01*
X157881624Y-123911850D01*
X157896864Y-123911437D01*
X157912322Y-123911300D01*
X157926093Y-123911409D01*
X157939845Y-123911736D01*
X157953577Y-123912281D01*
X157967290Y-123913045D01*
X157980985Y-123914027D01*
X157994660Y-123915227D01*
X158008316Y-123916645D01*
X158021953Y-123918282D01*
X158035570Y-123920137D01*
X158049169Y-123922209D01*
X158062748Y-123924501D01*
X158076309Y-123927010D01*
X158089850Y-123929737D01*
X158103372Y-123932683D01*
X158116875Y-123935847D01*
X158130358Y-123939229D01*
X158143823Y-123942829D01*
X158157268Y-123946648D01*
X158170695Y-123950685D01*
X158184102Y-123954939D01*
X158197490Y-123959413D01*
X158210859Y-123964104D01*
X158224209Y-123969013D01*
X158237539Y-123974141D01*
X158237539Y-124200129D01*
X158224805Y-124195107D01*
X158212011Y-124190330D01*
X158199157Y-124185797D01*
X158186242Y-124181510D01*
X158173268Y-124177468D01*
X158160234Y-124173670D01*
X158147140Y-124170118D01*
X158133986Y-124166810D01*
X158120772Y-124163748D01*
X158107497Y-124160931D01*
X158094163Y-124158358D01*
X158080769Y-124156031D01*
X158067315Y-124153948D01*
X158053801Y-124152111D01*
X158040227Y-124150518D01*
X158026592Y-124149171D01*
X158012898Y-124148068D01*
X157999144Y-124147211D01*
X157985330Y-124146598D01*
X157971456Y-124146231D01*
X157957522Y-124146108D01*
X157941379Y-124146307D01*
X157925676Y-124146902D01*
X157910413Y-124147895D01*
X157895590Y-124149285D01*
X157881207Y-124151071D01*
X157867263Y-124153255D01*
X157853759Y-124155835D01*
X157840695Y-124158813D01*
X157828070Y-124162188D01*
X157815885Y-124165959D01*
X157804140Y-124170128D01*
X157792835Y-124174694D01*
X157781970Y-124179656D01*
X157771544Y-124185016D01*
X157761558Y-124190773D01*
X157752012Y-124196927D01*
X157742905Y-124203478D01*
X157734238Y-124210425D01*
X157726011Y-124217770D01*
X157719351Y-124224463D01*
X157713001Y-124231711D01*
X157706960Y-124239516D01*
X157701229Y-124247875D01*
X157695808Y-124256791D01*
X157690697Y-124266262D01*
X157685896Y-124276290D01*
X157681404Y-124286872D01*
X157677222Y-124298011D01*
X157673350Y-124309705D01*
X157669787Y-124321955D01*
X157666535Y-124334761D01*
X157663592Y-124348123D01*
X157660959Y-124362040D01*
X157658636Y-124376513D01*
X157656622Y-124391542D01*
X157654918Y-124407126D01*
X157653524Y-124423266D01*
X157652440Y-124439962D01*
X157651666Y-124457214D01*
X157651201Y-124475022D01*
X157651046Y-124493385D01*
X157651201Y-124511556D01*
X157651666Y-124529189D01*
X157652440Y-124546286D01*
X157653524Y-124562844D01*
X157654918Y-124578865D01*
X157656622Y-124594349D01*
X157658636Y-124609295D01*
X157660959Y-124623703D01*
X157663592Y-124637574D01*
X157666535Y-124650908D01*
X157669787Y-124663704D01*
X157673350Y-124675962D01*
X157677222Y-124687683D01*
X157681404Y-124698867D01*
X157685896Y-124709513D01*
X157690697Y-124719621D01*
X157695808Y-124729192D01*
X157701229Y-124738226D01*
X157706960Y-124746721D01*
X157713001Y-124754680D01*
X157719351Y-124762101D01*
X157726011Y-124768984D01*
X157734238Y-124776329D01*
X157742905Y-124783277D01*
X157752012Y-124789828D01*
X157761558Y-124795981D01*
X157771544Y-124801738D01*
X157781970Y-124807098D01*
X157792835Y-124812061D01*
X157804140Y-124816626D01*
X157815885Y-124820795D01*
X157828070Y-124824567D01*
X157840695Y-124827941D01*
X157853759Y-124830919D01*
X157867263Y-124833500D01*
X157881207Y-124835683D01*
X157895590Y-124837470D01*
X157910413Y-124838859D01*
X157925676Y-124839852D01*
X157941379Y-124840447D01*
X157957522Y-124840646D01*
X157970856Y-124840518D01*
X157984190Y-124840136D01*
X157997524Y-124839499D01*
X158010858Y-124838606D01*
X158024193Y-124837459D01*
X158037527Y-124836057D01*
X158050861Y-124834399D01*
X158064195Y-124832487D01*
X158077529Y-124830320D01*
X158090863Y-124827898D01*
X158104198Y-124825221D01*
X158117532Y-124822289D01*
X158130866Y-124819102D01*
X158144200Y-124815660D01*
X158157534Y-124811963D01*
X158170868Y-124808011D01*
X158184202Y-124803804D01*
X158197537Y-124799342D01*
X158210871Y-124794626D01*
X158224205Y-124789654D01*
X158237539Y-124784427D01*
X158237539Y-125010416D01*
X158224209Y-125015544D01*
X158210859Y-125020453D01*
X158197490Y-125025144D01*
X158184102Y-125029617D01*
X158170695Y-125033872D01*
X158157268Y-125037909D01*
X158143823Y-125041727D01*
X158130358Y-125045328D01*
X158116875Y-125048710D01*
X158103372Y-125051874D01*
X158089850Y-125054819D01*
X158076309Y-125057547D01*
X158062748Y-125060056D01*
X158049169Y-125062347D01*
X158035570Y-125064420D01*
X158021953Y-125066275D01*
X158008316Y-125067911D01*
X157994660Y-125069330D01*
X157980985Y-125070530D01*
X157967290Y-125071512D01*
X157953577Y-125072275D01*
X157939845Y-125072821D01*
X157926093Y-125073148D01*
X157912322Y-125073257D01*
X157896864Y-125073120D01*
X157881624Y-125072707D01*
X157866603Y-125072018D01*
X157851801Y-125071054D01*
X157837217Y-125069815D01*
X157822852Y-125068301D01*
X157808706Y-125066511D01*
X157794778Y-125064446D01*
X157781069Y-125062105D01*
X157767579Y-125059489D01*
X157754307Y-125056598D01*
X157741254Y-125053432D01*
X157728420Y-125049990D01*
X157715804Y-125046272D01*
X157703407Y-125042280D01*
X157691229Y-125038012D01*
X157679269Y-125033468D01*
X157667528Y-125028650D01*
X157656005Y-125023555D01*
X157644702Y-125018186D01*
X157633617Y-125012541D01*
X157622750Y-125006621D01*
X157612103Y-125000426D01*
X157601674Y-124993955D01*
X157591463Y-124987208D01*
X157581471Y-124980187D01*
X157571698Y-124972890D01*
X157562144Y-124965318D01*
X157552808Y-124957470D01*
X157543691Y-124949347D01*
X157534793Y-124940949D01*
X157526113Y-124932275D01*
X157517652Y-124923326D01*
X157509890Y-124914652D01*
X157502353Y-124905766D01*
X157495041Y-124896668D01*
X157487954Y-124887357D01*
X157481092Y-124877834D01*
X157474455Y-124868098D01*
X157468043Y-124858150D01*
X157461855Y-124847990D01*
X157455893Y-124837617D01*
X157450156Y-124827032D01*
X157444644Y-124816235D01*
X157439357Y-124805225D01*
X157434295Y-124794003D01*
X157429458Y-124782568D01*
X157424845Y-124770921D01*
X157420458Y-124759062D01*
X157416296Y-124746990D01*
X157412359Y-124734706D01*
X157408646Y-124722210D01*
X157405159Y-124709501D01*
X157401897Y-124696580D01*
X157398859Y-124683446D01*
X157396047Y-124670100D01*
X157393460Y-124656542D01*
X157391097Y-124642772D01*
X157388960Y-124628789D01*
X157387048Y-124614593D01*
X157385360Y-124600185D01*
X157383898Y-124585565D01*
X157382661Y-124570733D01*
X157381648Y-124555688D01*
X157380861Y-124540431D01*
X157380298Y-124524961D01*
X157379961Y-124509279D01*
X157379848Y-124493385D01*
X157379848Y-124493385D01*
G37*
G36*
X158487791Y-125055617D02*
X158487791Y-123506706D01*
X158758989Y-123506706D01*
X158758989Y-124342354D01*
X159138225Y-123928940D01*
X159497617Y-123928940D01*
X159007036Y-124430543D01*
X159549431Y-125055617D01*
X159206576Y-125055617D01*
X158833954Y-124611346D01*
X158758989Y-124687403D01*
X158758989Y-125055617D01*
X158487791Y-125055617D01*
X158487791Y-125055617D01*
G37*
G36*
X165578753Y-111739545D02*
X165085721Y-111510209D01*
X165087266Y-111498064D01*
X165088664Y-111486152D01*
X165089915Y-111474472D01*
X165091019Y-111463025D01*
X165091976Y-111451811D01*
X165092785Y-111440829D01*
X165093448Y-111430081D01*
X165093963Y-111419565D01*
X165094331Y-111409281D01*
X165094551Y-111399231D01*
X165094625Y-111389413D01*
X165094414Y-111377240D01*
X165093783Y-111365415D01*
X165092730Y-111353937D01*
X165091256Y-111342808D01*
X165089360Y-111332026D01*
X165087044Y-111321592D01*
X165084307Y-111311506D01*
X165081148Y-111301768D01*
X165077568Y-111292378D01*
X165073567Y-111283336D01*
X165069145Y-111274641D01*
X165064301Y-111266295D01*
X165059037Y-111258296D01*
X165053351Y-111250646D01*
X165047244Y-111243343D01*
X165040716Y-111236388D01*
X165033767Y-111229781D01*
X165027962Y-111224845D01*
X165021770Y-111220138D01*
X165015192Y-111215661D01*
X165008227Y-111211414D01*
X165000877Y-111207396D01*
X164993140Y-111203607D01*
X164985017Y-111200048D01*
X164976507Y-111196719D01*
X164967611Y-111193620D01*
X164958329Y-111190750D01*
X164948661Y-111188109D01*
X164938607Y-111185699D01*
X164928166Y-111183517D01*
X164917339Y-111181566D01*
X164906125Y-111179844D01*
X164894526Y-111178352D01*
X164882540Y-111177089D01*
X164870167Y-111176056D01*
X164857409Y-111175252D01*
X164844264Y-111174678D01*
X164830733Y-111174334D01*
X164816816Y-111174219D01*
X164802566Y-111174304D01*
X164788680Y-111174561D01*
X164775159Y-111174990D01*
X164762003Y-111175589D01*
X164749211Y-111176360D01*
X164736783Y-111177302D01*
X164724720Y-111178415D01*
X164713021Y-111179700D01*
X164701687Y-111181156D01*
X164690717Y-111182783D01*
X164680112Y-111184582D01*
X164669871Y-111186551D01*
X164659995Y-111188693D01*
X164650483Y-111191005D01*
X164641336Y-111193489D01*
X164632553Y-111196143D01*
X164624135Y-111198970D01*
X164616081Y-111201967D01*
X164608391Y-111205136D01*
X164601066Y-111208476D01*
X164594106Y-111211988D01*
X164587510Y-111215670D01*
X164579453Y-111220760D01*
X164571884Y-111226278D01*
X164564803Y-111232223D01*
X164558210Y-111238595D01*
X164552106Y-111245394D01*
X164546491Y-111252620D01*
X164541363Y-111260274D01*
X164536724Y-111268355D01*
X164532573Y-111276863D01*
X164528911Y-111285799D01*
X164525737Y-111295161D01*
X164523051Y-111304951D01*
X164520854Y-111315168D01*
X164519144Y-111325813D01*
X164517924Y-111336884D01*
X164517191Y-111348383D01*
X164516947Y-111360309D01*
X164517130Y-111374113D01*
X164517681Y-111387304D01*
X164518598Y-111399882D01*
X164519881Y-111411845D01*
X164521532Y-111423196D01*
X164523549Y-111433932D01*
X164525933Y-111444055D01*
X164528684Y-111453565D01*
X164531802Y-111462461D01*
X164535287Y-111470744D01*
X164539138Y-111478413D01*
X164543356Y-111485468D01*
X164547941Y-111491911D01*
X164552893Y-111497739D01*
X164558212Y-111502954D01*
X164563897Y-111507555D01*
X164569949Y-111511543D01*
X164576368Y-111514918D01*
X164583154Y-111517679D01*
X164590307Y-111519826D01*
X164597826Y-111521360D01*
X164605712Y-111522280D01*
X164613965Y-111522587D01*
X165084040Y-111522587D01*
X165084028Y-111522587D01*
X165085721Y-111510209D01*
X165578753Y-111739545D01*
X164634195Y-111739545D01*
X164623448Y-111739370D01*
X164612835Y-111738845D01*
X164602355Y-111737970D01*
X164592009Y-111736744D01*
X164581795Y-111735169D01*
X164571716Y-111733243D01*
X164561769Y-111730967D01*
X164551956Y-111728342D01*
X164542276Y-111725366D01*
X164532730Y-111722040D01*
X164523316Y-111718364D01*
X164514037Y-111714337D01*
X164504890Y-111709961D01*
X164495877Y-111705234D01*
X164486997Y-111700158D01*
X164478251Y-111694731D01*
X164469638Y-111688954D01*
X164461158Y-111682827D01*
X164452812Y-111676350D01*
X164444599Y-111669523D01*
X164436519Y-111662346D01*
X164428573Y-111654819D01*
X164420760Y-111646941D01*
X164414662Y-111640375D01*
X164408779Y-111633572D01*
X164403109Y-111626533D01*
X164397654Y-111619256D01*
X164392412Y-111611742D01*
X164387385Y-111603991D01*
X164382571Y-111596003D01*
X164377972Y-111587778D01*
X164373586Y-111579317D01*
X164369414Y-111570618D01*
X164365456Y-111561682D01*
X164361712Y-111552509D01*
X164358182Y-111543099D01*
X164354866Y-111533452D01*
X164351764Y-111523568D01*
X164348876Y-111513448D01*
X164346201Y-111503090D01*
X164343741Y-111492495D01*
X164341495Y-111481663D01*
X164339462Y-111470594D01*
X164337644Y-111459288D01*
X164336039Y-111447745D01*
X164334649Y-111435965D01*
X164333472Y-111423949D01*
X164332509Y-111411695D01*
X164331760Y-111399204D01*
X164331226Y-111386476D01*
X164330905Y-111373511D01*
X164330798Y-111360309D01*
X164330909Y-111349078D01*
X164331242Y-111337875D01*
X164331797Y-111326699D01*
X164332574Y-111315550D01*
X164333573Y-111304430D01*
X164334794Y-111293336D01*
X164336237Y-111282271D01*
X164337902Y-111271233D01*
X164339551Y-111262087D01*
X164341657Y-111252641D01*
X164344220Y-111242896D01*
X164347239Y-111232850D01*
X164350714Y-111222505D01*
X164354647Y-111211860D01*
X164359035Y-111200915D01*
X164363881Y-111189670D01*
X164369183Y-111178126D01*
X164374942Y-111166281D01*
X164380063Y-111156261D01*
X164385430Y-111146487D01*
X164391041Y-111136957D01*
X164396897Y-111127672D01*
X164402998Y-111118632D01*
X164409344Y-111109837D01*
X164415935Y-111101287D01*
X164422770Y-111092982D01*
X164429851Y-111084922D01*
X164437176Y-111077107D01*
X164444746Y-111069537D01*
X164452561Y-111062212D01*
X164459111Y-111056501D01*
X164466060Y-111050892D01*
X164473410Y-111045384D01*
X164481159Y-111039979D01*
X164489308Y-111034676D01*
X164497856Y-111029474D01*
X164506805Y-111024374D01*
X164516153Y-111019377D01*
X164525901Y-111014481D01*
X164536049Y-111009687D01*
X164546596Y-111004995D01*
X164557544Y-111000405D01*
X164568891Y-110995917D01*
X164580638Y-110991531D01*
X164592784Y-110987247D01*
X164602029Y-110984151D01*
X164611419Y-110981214D01*
X164620955Y-110978436D01*
X164630637Y-110975817D01*
X164640464Y-110973356D01*
X164650437Y-110971054D01*
X164660555Y-110968911D01*
X164670819Y-110966927D01*
X164681228Y-110965101D01*
X164691783Y-110963434D01*
X164702484Y-110961926D01*
X164713330Y-110960577D01*
X164724322Y-110959386D01*
X164735459Y-110958354D01*
X164746742Y-110957481D01*
X164758171Y-110956767D01*
X164769745Y-110956211D01*
X164781464Y-110955814D01*
X164793330Y-110955576D01*
X164805340Y-110955497D01*
X164818221Y-110955590D01*
X164830925Y-110955872D01*
X164843452Y-110956341D01*
X164855802Y-110956998D01*
X164867975Y-110957843D01*
X164879971Y-110958875D01*
X164891790Y-110960095D01*
X164903432Y-110961502D01*
X164914897Y-110963098D01*
X164926185Y-110964881D01*
X164937297Y-110966851D01*
X164948231Y-110969010D01*
X164958988Y-110971356D01*
X164969568Y-110973889D01*
X164979971Y-110976611D01*
X164990198Y-110979520D01*
X165000247Y-110982616D01*
X165010119Y-110985901D01*
X165019814Y-110989373D01*
X165029333Y-110993033D01*
X165038674Y-110996880D01*
X165047839Y-111000915D01*
X165056826Y-111005138D01*
X165065636Y-111009548D01*
X165074270Y-111014147D01*
X165082726Y-111018932D01*
X165091006Y-111023906D01*
X165099108Y-111029067D01*
X165107034Y-111034416D01*
X165114783Y-111039953D01*
X165122354Y-111045677D01*
X165129749Y-111051589D01*
X165136966Y-111057688D01*
X165144007Y-111063976D01*
X165151061Y-111070636D01*
X165157897Y-111077468D01*
X165164517Y-111084472D01*
X165170919Y-111091647D01*
X165177105Y-111098994D01*
X165183073Y-111106513D01*
X165188825Y-111114204D01*
X165194359Y-111122066D01*
X165199676Y-111130100D01*
X165204777Y-111138305D01*
X165209660Y-111146683D01*
X165214326Y-111155231D01*
X165218775Y-111163952D01*
X165223007Y-111172844D01*
X165227023Y-111181908D01*
X165230821Y-111191144D01*
X165234402Y-111200552D01*
X165237766Y-111210131D01*
X165240913Y-111219881D01*
X165243843Y-111229804D01*
X165246556Y-111239898D01*
X165249052Y-111250164D01*
X165251330Y-111260602D01*
X165253392Y-111271211D01*
X165255237Y-111281992D01*
X165256865Y-111292944D01*
X165258276Y-111304069D01*
X165259469Y-111315365D01*
X165260446Y-111326832D01*
X165261205Y-111338472D01*
X165261748Y-111350283D01*
X165262074Y-111362266D01*
X165262182Y-111374420D01*
X165262101Y-111385238D01*
X165261858Y-111396019D01*
X165261453Y-111406764D01*
X165260887Y-111417473D01*
X165260158Y-111428147D01*
X165259267Y-111438784D01*
X165258214Y-111449385D01*
X165257000Y-111459951D01*
X165255623Y-111470480D01*
X165254085Y-111480973D01*
X165252384Y-111491431D01*
X165250522Y-111501852D01*
X165248498Y-111512238D01*
X165246311Y-111522587D01*
X165578801Y-111522587D01*
X165578801Y-111739545D01*
X165578753Y-111739545D01*
X165578753Y-111739545D01*
G37*
G36*
X165138661Y-110662691D02*
X164644362Y-110540757D01*
X164654479Y-110543188D01*
X164665047Y-110545407D01*
X164676068Y-110547415D01*
X164687540Y-110549212D01*
X164699464Y-110550797D01*
X164711840Y-110552171D01*
X164724668Y-110553334D01*
X164737948Y-110554285D01*
X164751680Y-110555025D01*
X164765864Y-110555553D01*
X164780499Y-110555870D01*
X164795587Y-110555976D01*
X164810596Y-110555870D01*
X164825157Y-110555553D01*
X164839270Y-110555025D01*
X164852935Y-110554285D01*
X164866151Y-110553334D01*
X164878919Y-110552171D01*
X164891239Y-110550797D01*
X164903111Y-110549212D01*
X164914534Y-110547415D01*
X164925509Y-110545407D01*
X164936036Y-110543188D01*
X164946114Y-110540757D01*
X164955744Y-110538115D01*
X164964926Y-110535261D01*
X164973660Y-110532196D01*
X164981945Y-110528920D01*
X164989782Y-110525432D01*
X164997171Y-110521733D01*
X165004112Y-110517823D01*
X165010604Y-110513701D01*
X165016648Y-110509368D01*
X165022244Y-110504823D01*
X165028890Y-110498512D01*
X165035134Y-110491823D01*
X165040975Y-110484755D01*
X165046413Y-110477309D01*
X165051449Y-110469484D01*
X165056081Y-110461281D01*
X165060311Y-110452700D01*
X165064138Y-110443740D01*
X165067562Y-110434402D01*
X165070583Y-110424685D01*
X165073201Y-110414590D01*
X165075417Y-110404116D01*
X165077230Y-110393265D01*
X165078639Y-110382034D01*
X165079646Y-110370426D01*
X165080251Y-110358439D01*
X165080452Y-110346073D01*
X165080251Y-110333710D01*
X165079646Y-110321733D01*
X165078639Y-110310139D01*
X165077230Y-110298930D01*
X165075417Y-110288106D01*
X165073201Y-110277666D01*
X165070583Y-110267610D01*
X165067562Y-110257940D01*
X165064138Y-110248653D01*
X165060311Y-110239751D01*
X165056081Y-110231234D01*
X165051449Y-110223101D01*
X165046413Y-110215353D01*
X165040975Y-110207989D01*
X165035134Y-110201010D01*
X165028890Y-110194415D01*
X165022244Y-110188205D01*
X165016648Y-110183660D01*
X165010604Y-110179327D01*
X165004112Y-110175205D01*
X164997171Y-110171295D01*
X164989782Y-110167596D01*
X164981945Y-110164108D01*
X164973660Y-110160832D01*
X164964926Y-110157767D01*
X164955744Y-110154913D01*
X164946114Y-110152271D01*
X164936036Y-110149840D01*
X164925509Y-110147621D01*
X164914534Y-110145613D01*
X164903111Y-110143816D01*
X164891239Y-110142231D01*
X164878919Y-110140857D01*
X164866151Y-110139694D01*
X164852935Y-110138743D01*
X164839270Y-110138003D01*
X164825157Y-110137475D01*
X164810596Y-110137158D01*
X164795587Y-110137052D01*
X164780499Y-110137158D01*
X164765864Y-110137475D01*
X164751680Y-110138003D01*
X164737948Y-110138743D01*
X164724668Y-110139694D01*
X164711840Y-110140857D01*
X164699464Y-110142231D01*
X164687540Y-110143816D01*
X164676068Y-110145613D01*
X164665047Y-110147621D01*
X164654479Y-110149840D01*
X164644362Y-110152271D01*
X164634697Y-110154913D01*
X164625485Y-110157767D01*
X164616724Y-110160832D01*
X164608415Y-110164108D01*
X164600558Y-110167596D01*
X164593153Y-110171295D01*
X164586199Y-110175205D01*
X164579698Y-110179327D01*
X164573649Y-110183660D01*
X164568051Y-110188205D01*
X164561303Y-110194415D01*
X164554963Y-110201010D01*
X164549033Y-110207989D01*
X164543511Y-110215353D01*
X164538399Y-110223101D01*
X164533695Y-110231234D01*
X164529401Y-110239751D01*
X164525516Y-110248653D01*
X164522039Y-110257940D01*
X164518972Y-110267610D01*
X164516313Y-110277666D01*
X164514064Y-110288106D01*
X164512223Y-110298930D01*
X164510792Y-110310139D01*
X164509769Y-110321733D01*
X164509156Y-110333710D01*
X164508951Y-110346073D01*
X164509156Y-110358439D01*
X164509769Y-110370426D01*
X164510792Y-110382034D01*
X164512223Y-110393265D01*
X164514064Y-110404116D01*
X164516313Y-110414590D01*
X164518972Y-110424685D01*
X164522039Y-110434402D01*
X164525516Y-110443740D01*
X164529401Y-110452700D01*
X164533695Y-110461281D01*
X164538399Y-110469484D01*
X164543511Y-110477309D01*
X164549033Y-110484755D01*
X164554963Y-110491823D01*
X164561303Y-110498512D01*
X164568051Y-110504823D01*
X164573649Y-110509368D01*
X164579698Y-110513701D01*
X164586199Y-110517823D01*
X164593153Y-110521733D01*
X164600558Y-110525432D01*
X164608415Y-110528920D01*
X164616724Y-110532196D01*
X164625485Y-110535261D01*
X164634697Y-110538115D01*
X164644362Y-110540757D01*
X165138661Y-110662691D01*
X165131722Y-110668901D01*
X165124613Y-110674930D01*
X165117334Y-110680780D01*
X165109885Y-110686450D01*
X165102267Y-110691939D01*
X165094478Y-110697249D01*
X165086520Y-110702379D01*
X165078392Y-110707328D01*
X165070094Y-110712098D01*
X165061626Y-110716688D01*
X165052988Y-110721097D01*
X165044180Y-110725327D01*
X165035202Y-110729377D01*
X165026054Y-110733247D01*
X165016737Y-110736936D01*
X165007250Y-110740446D01*
X164997592Y-110743776D01*
X164987765Y-110746926D01*
X164977768Y-110749896D01*
X164967601Y-110752685D01*
X164957264Y-110755295D01*
X164946757Y-110757725D01*
X164936080Y-110759975D01*
X164925234Y-110762045D01*
X164914217Y-110763935D01*
X164903031Y-110765645D01*
X164891675Y-110767174D01*
X164880148Y-110768524D01*
X164868452Y-110769694D01*
X164856586Y-110770684D01*
X164844550Y-110771494D01*
X164832345Y-110772124D01*
X164819969Y-110772574D01*
X164807423Y-110772844D01*
X164794708Y-110772934D01*
X164781992Y-110772844D01*
X164769445Y-110772574D01*
X164757069Y-110772124D01*
X164744863Y-110771494D01*
X164732826Y-110770684D01*
X164720960Y-110769694D01*
X164709263Y-110768524D01*
X164697736Y-110767174D01*
X164686379Y-110765645D01*
X164675192Y-110763935D01*
X164664175Y-110762045D01*
X164653328Y-110759975D01*
X164642651Y-110757725D01*
X164632144Y-110755295D01*
X164621807Y-110752685D01*
X164611639Y-110749896D01*
X164601642Y-110746926D01*
X164591814Y-110743776D01*
X164582156Y-110740446D01*
X164572669Y-110736936D01*
X164563351Y-110733247D01*
X164554203Y-110729377D01*
X164545225Y-110725327D01*
X164536417Y-110721097D01*
X164527779Y-110716688D01*
X164519311Y-110712098D01*
X164511012Y-110707328D01*
X164502884Y-110702379D01*
X164494925Y-110697249D01*
X164487137Y-110691939D01*
X164479518Y-110686450D01*
X164472070Y-110680780D01*
X164464791Y-110674930D01*
X164457682Y-110668901D01*
X164450743Y-110662691D01*
X164443584Y-110655922D01*
X164436645Y-110648978D01*
X164429926Y-110641860D01*
X164423428Y-110634566D01*
X164417149Y-110627097D01*
X164411092Y-110619454D01*
X164405254Y-110611635D01*
X164399637Y-110603642D01*
X164394240Y-110595474D01*
X164389063Y-110587130D01*
X164384107Y-110578612D01*
X164379371Y-110569919D01*
X164374855Y-110561051D01*
X164370559Y-110552008D01*
X164366484Y-110542790D01*
X164362629Y-110533397D01*
X164358994Y-110523830D01*
X164355580Y-110514087D01*
X164352386Y-110504169D01*
X164349412Y-110494077D01*
X164346658Y-110483809D01*
X164344125Y-110473367D01*
X164341812Y-110462750D01*
X164339719Y-110451957D01*
X164337847Y-110440990D01*
X164336195Y-110429848D01*
X164334763Y-110418531D01*
X164333551Y-110407039D01*
X164332560Y-110395372D01*
X164331789Y-110383530D01*
X164331238Y-110371513D01*
X164330908Y-110359322D01*
X164330798Y-110346955D01*
X164330908Y-110334536D01*
X164331238Y-110322293D01*
X164331789Y-110310227D01*
X164332560Y-110298337D01*
X164333551Y-110286624D01*
X164334763Y-110275087D01*
X164336195Y-110263727D01*
X164337847Y-110252544D01*
X164339719Y-110241537D01*
X164341812Y-110230707D01*
X164344125Y-110220053D01*
X164346658Y-110209576D01*
X164349412Y-110199275D01*
X164352386Y-110189151D01*
X164355580Y-110179203D01*
X164358994Y-110169432D01*
X164362629Y-110159838D01*
X164366484Y-110150420D01*
X164370559Y-110141178D01*
X164374855Y-110132114D01*
X164379371Y-110123225D01*
X164384107Y-110114514D01*
X164389063Y-110105978D01*
X164394240Y-110097620D01*
X164399637Y-110089438D01*
X164405254Y-110081432D01*
X164411092Y-110073603D01*
X164417149Y-110065951D01*
X164423428Y-110058475D01*
X164429926Y-110051175D01*
X164436645Y-110044053D01*
X164443584Y-110037106D01*
X164450743Y-110030337D01*
X164457682Y-110024127D01*
X164464791Y-110018098D01*
X164472070Y-110012248D01*
X164479518Y-110006578D01*
X164487137Y-110001089D01*
X164494925Y-109995779D01*
X164502884Y-109990649D01*
X164511012Y-109985700D01*
X164519311Y-109980930D01*
X164527779Y-109976340D01*
X164536417Y-109971930D01*
X164545225Y-109967701D01*
X164554203Y-109963651D01*
X164563351Y-109959781D01*
X164572669Y-109956091D01*
X164582156Y-109952582D01*
X164591814Y-109949252D01*
X164601642Y-109946102D01*
X164611639Y-109943132D01*
X164621807Y-109940342D01*
X164632144Y-109937733D01*
X164642651Y-109935303D01*
X164653328Y-109933053D01*
X164664175Y-109930983D01*
X164675192Y-109929093D01*
X164686379Y-109927383D01*
X164697736Y-109925853D01*
X164709263Y-109924503D01*
X164720960Y-109923334D01*
X164732826Y-109922344D01*
X164744863Y-109921534D01*
X164757069Y-109920904D01*
X164769445Y-109920454D01*
X164781992Y-109920184D01*
X164794708Y-109920094D01*
X164807423Y-109920184D01*
X164819969Y-109920454D01*
X164832345Y-109920904D01*
X164844550Y-109921534D01*
X164856586Y-109922344D01*
X164868452Y-109923334D01*
X164880148Y-109924503D01*
X164891675Y-109925853D01*
X164903031Y-109927383D01*
X164914217Y-109929093D01*
X164925234Y-109930983D01*
X164936080Y-109933053D01*
X164946757Y-109935303D01*
X164957264Y-109937733D01*
X164967601Y-109940342D01*
X164977768Y-109943132D01*
X164987765Y-109946102D01*
X164997592Y-109949252D01*
X165007250Y-109952582D01*
X165016737Y-109956091D01*
X165026054Y-109959781D01*
X165035202Y-109963651D01*
X165044180Y-109967701D01*
X165052988Y-109971930D01*
X165061626Y-109976340D01*
X165070094Y-109980930D01*
X165078392Y-109985700D01*
X165086520Y-109990649D01*
X165094478Y-109995779D01*
X165102267Y-110001089D01*
X165109885Y-110006578D01*
X165117334Y-110012248D01*
X165124613Y-110018098D01*
X165131722Y-110024127D01*
X165138661Y-110030337D01*
X165145820Y-110037106D01*
X165152759Y-110044053D01*
X165159478Y-110051175D01*
X165165976Y-110058475D01*
X165172254Y-110065951D01*
X165178312Y-110073603D01*
X165184149Y-110081432D01*
X165189767Y-110089438D01*
X165195164Y-110097620D01*
X165200340Y-110105978D01*
X165205297Y-110114514D01*
X165210033Y-110123225D01*
X165214549Y-110132114D01*
X165218844Y-110141178D01*
X165222920Y-110150420D01*
X165226775Y-110159838D01*
X165230409Y-110169432D01*
X165233824Y-110179203D01*
X165237018Y-110189151D01*
X165239992Y-110199275D01*
X165242745Y-110209576D01*
X165245279Y-110220053D01*
X165247592Y-110230707D01*
X165249684Y-110241537D01*
X165251557Y-110252544D01*
X165253209Y-110263727D01*
X165254641Y-110275087D01*
X165255852Y-110286624D01*
X165256844Y-110298337D01*
X165257615Y-110310227D01*
X165258165Y-110322293D01*
X165258496Y-110334536D01*
X165258606Y-110346955D01*
X165258496Y-110359322D01*
X165258165Y-110371513D01*
X165257615Y-110383530D01*
X165256844Y-110395372D01*
X165255852Y-110407039D01*
X165254641Y-110418531D01*
X165253209Y-110429848D01*
X165251557Y-110440990D01*
X165249684Y-110451957D01*
X165247592Y-110462750D01*
X165245279Y-110473367D01*
X165242745Y-110483809D01*
X165239992Y-110494077D01*
X165237018Y-110504169D01*
X165233824Y-110514087D01*
X165230409Y-110523830D01*
X165226775Y-110533397D01*
X165222920Y-110542790D01*
X165218844Y-110552008D01*
X165214549Y-110561051D01*
X165210033Y-110569919D01*
X165205297Y-110578612D01*
X165200340Y-110587130D01*
X165195164Y-110595474D01*
X165189767Y-110603642D01*
X165184149Y-110611635D01*
X165178312Y-110619454D01*
X165172254Y-110627097D01*
X165165976Y-110634566D01*
X165159478Y-110641860D01*
X165152759Y-110648978D01*
X165145820Y-110655922D01*
X165138661Y-110662691D01*
X165138661Y-110662691D01*
G37*
G36*
X165244493Y-109687260D02*
X164000078Y-109687260D01*
X164000078Y-109470302D01*
X165244493Y-109470302D01*
X165244493Y-109687260D01*
X165244493Y-109687260D01*
G37*
G36*
X164343152Y-109274510D02*
X164343152Y-109044323D01*
X164971970Y-108842358D01*
X164343152Y-108643920D01*
X164343152Y-108414615D01*
X165266541Y-108757691D01*
X165279952Y-108762693D01*
X165293056Y-108767725D01*
X165305854Y-108772786D01*
X165318346Y-108777876D01*
X165330532Y-108782996D01*
X165342412Y-108788145D01*
X165353985Y-108793323D01*
X165365252Y-108798531D01*
X165376213Y-108803768D01*
X165386868Y-108809035D01*
X165397216Y-108814331D01*
X165407259Y-108819656D01*
X165416995Y-108825010D01*
X165426425Y-108830394D01*
X165435548Y-108835808D01*
X165444366Y-108841250D01*
X165452877Y-108846722D01*
X165461082Y-108852224D01*
X165468981Y-108857754D01*
X165476574Y-108863315D01*
X165483860Y-108868904D01*
X165490841Y-108874523D01*
X165497515Y-108880171D01*
X165503882Y-108885849D01*
X165509944Y-108891556D01*
X165515700Y-108897292D01*
X165521149Y-108903058D01*
X165526292Y-108908853D01*
X165531129Y-108914677D01*
X165538560Y-108924104D01*
X165545567Y-108933568D01*
X165552149Y-108943071D01*
X165558306Y-108952612D01*
X165564039Y-108962191D01*
X165569347Y-108971808D01*
X165574230Y-108981463D01*
X165578689Y-108991156D01*
X165582723Y-109000887D01*
X165586333Y-109010657D01*
X165589518Y-109020464D01*
X165592278Y-109030310D01*
X165594614Y-109040194D01*
X165596524Y-109050115D01*
X165598011Y-109060075D01*
X165599072Y-109070074D01*
X165599709Y-109080110D01*
X165599922Y-109090184D01*
X165599775Y-109100512D01*
X165599337Y-109110871D01*
X165598606Y-109121261D01*
X165597583Y-109131682D01*
X165596268Y-109142135D01*
X165594661Y-109152619D01*
X165592761Y-109163135D01*
X165590569Y-109173682D01*
X165588085Y-109184260D01*
X165585308Y-109194869D01*
X165582239Y-109205510D01*
X165578878Y-109216182D01*
X165575225Y-109226885D01*
X165394422Y-109226885D01*
X165398611Y-109216496D01*
X165402359Y-109206142D01*
X165405666Y-109195823D01*
X165408532Y-109185540D01*
X165410958Y-109175292D01*
X165412942Y-109165079D01*
X165414485Y-109154901D01*
X165415588Y-109144759D01*
X165416249Y-109134652D01*
X165416470Y-109124580D01*
X165416210Y-109118148D01*
X165415429Y-109111748D01*
X165414129Y-109105380D01*
X165412308Y-109099042D01*
X165409968Y-109092737D01*
X165407107Y-109086462D01*
X165403726Y-109080219D01*
X165399825Y-109074008D01*
X165395404Y-109067828D01*
X165390462Y-109061680D01*
X165385001Y-109055563D01*
X165379019Y-109049477D01*
X165372517Y-109043423D01*
X165365495Y-109037401D01*
X165357953Y-109031409D01*
X165349891Y-109025450D01*
X165341309Y-109019522D01*
X165332206Y-109013625D01*
X165322583Y-109007760D01*
X165312440Y-109001926D01*
X165301777Y-108996123D01*
X165290594Y-108990352D01*
X165278891Y-108984613D01*
X165266668Y-108978905D01*
X165253924Y-108973228D01*
X165240660Y-108967583D01*
X165226876Y-108961970D01*
X165212572Y-108956388D01*
X165197748Y-108950837D01*
X164343152Y-109274510D01*
X164343152Y-109274510D01*
G37*
G36*
X164610377Y-108289379D02*
X164598687Y-108289198D01*
X164587237Y-108288658D01*
X164576027Y-108287758D01*
X164565057Y-108286498D01*
X164554327Y-108284877D01*
X164543837Y-108282896D01*
X164533588Y-108280556D01*
X164523578Y-108277855D01*
X164513808Y-108274794D01*
X164504279Y-108271373D01*
X164494989Y-108267592D01*
X164485940Y-108263450D01*
X164477131Y-108258949D01*
X164468561Y-108254087D01*
X164460232Y-108248866D01*
X164452143Y-108243284D01*
X164444294Y-108237342D01*
X164436684Y-108231040D01*
X164429315Y-108224378D01*
X164422186Y-108217356D01*
X164415297Y-108209973D01*
X164408649Y-108202231D01*
X164402240Y-108194128D01*
X164396267Y-108186036D01*
X164390548Y-108177782D01*
X164385083Y-108169365D01*
X164379873Y-108160786D01*
X164374917Y-108152045D01*
X164370215Y-108143141D01*
X164365767Y-108134075D01*
X164361573Y-108124847D01*
X164357633Y-108115456D01*
X164353948Y-108105903D01*
X164350517Y-108096188D01*
X164347340Y-108086311D01*
X164344417Y-108076271D01*
X164341748Y-108066069D01*
X164339333Y-108055705D01*
X164337173Y-108045178D01*
X164335267Y-108034489D01*
X164333615Y-108023638D01*
X164332217Y-108012624D01*
X164331073Y-108001448D01*
X164330183Y-107990110D01*
X164329548Y-107978609D01*
X164329167Y-107966947D01*
X164329040Y-107955122D01*
X164329151Y-107943989D01*
X164329487Y-107932932D01*
X164330046Y-107921952D01*
X164330828Y-107911049D01*
X164331834Y-107900222D01*
X164333064Y-107889472D01*
X164334517Y-107878798D01*
X164336194Y-107868201D01*
X164338094Y-107857680D01*
X164340218Y-107847236D01*
X164342565Y-107836869D01*
X164345136Y-107826578D01*
X164347931Y-107816364D01*
X164350949Y-107806226D01*
X164354190Y-107796165D01*
X164357656Y-107786180D01*
X164361344Y-107776272D01*
X164365257Y-107766441D01*
X164369393Y-107756686D01*
X164373752Y-107747007D01*
X164378335Y-107737405D01*
X164383142Y-107727880D01*
X164388172Y-107718431D01*
X164393425Y-107709059D01*
X164558346Y-107709059D01*
X164554132Y-107718293D01*
X164550134Y-107727650D01*
X164546353Y-107737131D01*
X164542787Y-107746736D01*
X164539438Y-107756464D01*
X164536305Y-107766315D01*
X164533388Y-107776290D01*
X164530687Y-107786388D01*
X164528202Y-107796610D01*
X164525933Y-107806955D01*
X164523880Y-107817423D01*
X164522043Y-107828016D01*
X164520423Y-107838731D01*
X164519018Y-107849570D01*
X164517830Y-107860533D01*
X164516857Y-107871619D01*
X164516101Y-107882828D01*
X164515561Y-107894161D01*
X164515237Y-107905618D01*
X164515129Y-107917198D01*
X164515301Y-107931629D01*
X164515817Y-107945356D01*
X164516677Y-107958379D01*
X164517881Y-107970699D01*
X164519429Y-107982314D01*
X164521320Y-107993225D01*
X164523556Y-108003432D01*
X164526136Y-108012936D01*
X164529060Y-108021735D01*
X164532328Y-108029831D01*
X164535940Y-108037222D01*
X164539896Y-108043910D01*
X164544196Y-108049894D01*
X164548839Y-108055173D01*
X164553827Y-108059749D01*
X164559159Y-108063621D01*
X164564835Y-108066789D01*
X164570855Y-108069252D01*
X164577218Y-108071012D01*
X164583926Y-108072068D01*
X164590978Y-108072420D01*
X164600210Y-108071731D01*
X164608945Y-108069664D01*
X164617185Y-108066219D01*
X164624929Y-108061396D01*
X164632177Y-108055195D01*
X164638929Y-108047615D01*
X164645185Y-108038658D01*
X164650945Y-108028323D01*
X164654757Y-108020145D01*
X164658497Y-108011646D01*
X164662163Y-108002827D01*
X164665757Y-107993687D01*
X164669278Y-107984226D01*
X164672727Y-107974444D01*
X164676102Y-107964342D01*
X164679405Y-107953919D01*
X164682634Y-107943175D01*
X164685791Y-107932111D01*
X164688875Y-107920726D01*
X164691606Y-107910148D01*
X164694509Y-107899583D01*
X164697583Y-107889031D01*
X164700828Y-107878490D01*
X164704246Y-107867962D01*
X164707835Y-107857446D01*
X164711595Y-107846942D01*
X164715527Y-107836451D01*
X164719631Y-107825972D01*
X164723906Y-107815505D01*
X164728353Y-107805050D01*
X164732971Y-107794608D01*
X164737074Y-107785635D01*
X164741573Y-107776861D01*
X164746468Y-107768284D01*
X164751759Y-107759906D01*
X164757446Y-107751725D01*
X164763529Y-107743743D01*
X164770008Y-107735958D01*
X164776883Y-107728372D01*
X164784154Y-107720983D01*
X164791821Y-107713793D01*
X164799884Y-107706800D01*
X164808343Y-107700006D01*
X164817198Y-107693409D01*
X164826449Y-107687010D01*
X164834357Y-107681874D01*
X164842516Y-107677050D01*
X164850924Y-107672536D01*
X164859583Y-107668334D01*
X164868491Y-107664443D01*
X164877650Y-107660863D01*
X164887059Y-107657595D01*
X164896719Y-107654638D01*
X164906628Y-107651992D01*
X164916788Y-107649657D01*
X164927197Y-107647634D01*
X164937857Y-107645922D01*
X164948767Y-107644521D01*
X164959928Y-107643432D01*
X164971338Y-107642654D01*
X164982999Y-107642187D01*
X164994909Y-107642031D01*
X165005656Y-107642241D01*
X165016228Y-107642871D01*
X165026623Y-107643921D01*
X165036842Y-107645391D01*
X165046885Y-107647281D01*
X165056753Y-107649591D01*
X165066444Y-107652321D01*
X165075959Y-107655470D01*
X165085299Y-107659040D01*
X165094462Y-107663030D01*
X165103450Y-107667440D01*
X165112261Y-107672269D01*
X165120897Y-107677519D01*
X165129357Y-107683189D01*
X165137640Y-107689278D01*
X165145748Y-107695788D01*
X165153680Y-107702717D01*
X165161436Y-107710067D01*
X165169016Y-107717836D01*
X165176420Y-107726026D01*
X165183648Y-107734635D01*
X165189764Y-107742383D01*
X165195620Y-107750339D01*
X165201216Y-107758503D01*
X165206552Y-107766875D01*
X165211627Y-107775456D01*
X165216442Y-107784245D01*
X165220997Y-107793242D01*
X165225291Y-107802447D01*
X165229325Y-107811861D01*
X165233099Y-107821482D01*
X165236613Y-107831312D01*
X165239866Y-107841351D01*
X165242859Y-107851597D01*
X165245592Y-107862052D01*
X165248065Y-107872715D01*
X165250277Y-107883586D01*
X165252229Y-107894665D01*
X165253921Y-107905953D01*
X165255352Y-107917449D01*
X165256524Y-107929153D01*
X165257435Y-107941065D01*
X165258085Y-107953186D01*
X165258476Y-107965515D01*
X165258606Y-107978052D01*
X165258511Y-107989108D01*
X165258228Y-108000101D01*
X165257755Y-108011030D01*
X165257094Y-108021897D01*
X165256244Y-108032701D01*
X165255204Y-108043442D01*
X165253976Y-108054120D01*
X165252559Y-108064735D01*
X165250952Y-108075286D01*
X165249157Y-108085775D01*
X165247173Y-108096201D01*
X165244999Y-108106564D01*
X165242637Y-108116864D01*
X165240086Y-108127101D01*
X165237346Y-108137275D01*
X165234417Y-108147385D01*
X165231299Y-108157433D01*
X165227991Y-108167418D01*
X165224495Y-108177340D01*
X165220810Y-108187199D01*
X165216936Y-108196995D01*
X165212873Y-108206728D01*
X165208621Y-108216398D01*
X165204180Y-108226004D01*
X165199550Y-108235548D01*
X165194731Y-108245029D01*
X165189724Y-108254447D01*
X165184527Y-108263802D01*
X164991381Y-108263802D01*
X164997604Y-108254250D01*
X165003574Y-108244645D01*
X165009289Y-108234986D01*
X165014750Y-108225273D01*
X165019957Y-108215507D01*
X165024910Y-108205687D01*
X165029609Y-108195813D01*
X165034055Y-108185886D01*
X165038246Y-108175905D01*
X165042183Y-108165871D01*
X165045866Y-108155783D01*
X165049295Y-108145641D01*
X165052470Y-108135446D01*
X165055391Y-108125197D01*
X165058058Y-108114895D01*
X165060471Y-108104538D01*
X165062630Y-108094129D01*
X165064536Y-108083665D01*
X165066187Y-108073148D01*
X165067584Y-108062578D01*
X165068727Y-108051953D01*
X165069616Y-108041275D01*
X165070251Y-108030544D01*
X165070632Y-108019759D01*
X165070759Y-108008920D01*
X165070612Y-107993792D01*
X165070171Y-107979571D01*
X165069436Y-107966256D01*
X165068407Y-107953848D01*
X165067084Y-107942346D01*
X165065466Y-107931750D01*
X165063555Y-107922061D01*
X165061350Y-107913278D01*
X165058851Y-107905402D01*
X165056058Y-107898432D01*
X165052971Y-107892369D01*
X165049590Y-107887212D01*
X165043747Y-107880597D01*
X165037243Y-107874865D01*
X165030077Y-107870014D01*
X165022250Y-107866045D01*
X165013761Y-107862958D01*
X165004610Y-107860753D01*
X164994798Y-107859431D01*
X164984325Y-107858990D01*
X164975701Y-107859545D01*
X164967469Y-107861211D01*
X164959629Y-107863987D01*
X164952181Y-107867874D01*
X164945125Y-107872872D01*
X164938460Y-107878980D01*
X164932188Y-107886199D01*
X164926307Y-107894529D01*
X164920818Y-107903969D01*
X164916388Y-107912147D01*
X164912075Y-107920646D01*
X164907878Y-107929465D01*
X164903797Y-107938605D01*
X164899833Y-107948066D01*
X164895985Y-107957848D01*
X164892254Y-107967950D01*
X164888639Y-107978373D01*
X164885140Y-107989116D01*
X164881758Y-108000181D01*
X164878492Y-108011566D01*
X164875363Y-108022008D01*
X164872148Y-108032463D01*
X164868846Y-108042930D01*
X164865459Y-108053409D01*
X164861987Y-108063901D01*
X164858428Y-108074404D01*
X164854784Y-108084920D01*
X164851054Y-108095449D01*
X164847238Y-108105989D01*
X164843336Y-108116542D01*
X164839349Y-108127107D01*
X164835276Y-108137684D01*
X164831288Y-108147213D01*
X164826925Y-108156534D01*
X164822187Y-108165645D01*
X164817072Y-108174548D01*
X164811582Y-108183242D01*
X164805717Y-108191728D01*
X164799476Y-108200005D01*
X164792859Y-108208073D01*
X164785866Y-108215932D01*
X164778498Y-108223582D01*
X164770754Y-108231024D01*
X164762635Y-108238257D01*
X164754140Y-108245281D01*
X164746367Y-108250965D01*
X164738335Y-108256257D01*
X164730044Y-108261156D01*
X164721495Y-108265664D01*
X164712687Y-108269780D01*
X164703620Y-108273504D01*
X164694294Y-108276835D01*
X164684710Y-108279775D01*
X164674867Y-108282323D01*
X164664765Y-108284479D01*
X164654405Y-108286243D01*
X164643786Y-108287615D01*
X164632908Y-108288595D01*
X164621772Y-108289183D01*
X164610377Y-108289379D01*
X164610377Y-108289379D01*
G37*
G36*
X164529241Y-107505330D02*
X164343152Y-107505330D01*
X164343152Y-107353635D01*
X164075916Y-107353635D01*
X164075916Y-107136677D01*
X164343152Y-107136677D01*
X164343152Y-106923247D01*
X164529241Y-106923247D01*
X164529241Y-107136677D01*
X164973741Y-107136677D01*
X164987700Y-107136305D01*
X165000474Y-107135189D01*
X165012063Y-107133328D01*
X165022466Y-107130724D01*
X165031684Y-107127375D01*
X165039717Y-107123283D01*
X165046565Y-107118446D01*
X165052227Y-107112865D01*
X165056485Y-107106920D01*
X165060243Y-107100060D01*
X165063499Y-107092286D01*
X165066254Y-107083597D01*
X165068509Y-107073994D01*
X165070262Y-107063476D01*
X165071515Y-107052043D01*
X165072266Y-107039696D01*
X165072517Y-107026434D01*
X165072323Y-107014925D01*
X165071741Y-107003680D01*
X165070771Y-106992700D01*
X165069413Y-106981984D01*
X165067667Y-106971533D01*
X165065533Y-106961347D01*
X165063011Y-106951425D01*
X165060102Y-106941767D01*
X165056804Y-106932375D01*
X165053118Y-106923247D01*
X165232151Y-106923247D01*
X165236064Y-106933084D01*
X165239665Y-106943056D01*
X165242952Y-106953165D01*
X165245926Y-106963409D01*
X165248587Y-106973789D01*
X165250935Y-106984304D01*
X165252970Y-106994955D01*
X165254692Y-107005742D01*
X165256101Y-107016665D01*
X165257197Y-107027723D01*
X165257980Y-107038917D01*
X165258449Y-107050246D01*
X165258606Y-107061712D01*
X165258606Y-107066121D01*
X165258442Y-107078190D01*
X165257950Y-107090021D01*
X165257130Y-107101616D01*
X165255982Y-107112974D01*
X165254506Y-107124095D01*
X165252702Y-107134979D01*
X165250570Y-107145626D01*
X165248110Y-107156036D01*
X165245322Y-107166209D01*
X165242206Y-107176146D01*
X165238761Y-107185845D01*
X165234989Y-107195308D01*
X165230889Y-107204534D01*
X165226461Y-107213523D01*
X165221705Y-107222275D01*
X165216621Y-107230790D01*
X165211209Y-107239068D01*
X165205469Y-107247109D01*
X165199401Y-107254914D01*
X165193005Y-107262482D01*
X165186281Y-107269812D01*
X165179228Y-107276906D01*
X165172214Y-107283433D01*
X165164972Y-107289670D01*
X165157504Y-107295617D01*
X165149809Y-107301274D01*
X165141887Y-107306640D01*
X165133738Y-107311717D01*
X165125362Y-107316504D01*
X165116760Y-107321000D01*
X165107931Y-107325206D01*
X165098875Y-107329123D01*
X165089592Y-107332749D01*
X165080082Y-107336085D01*
X165070346Y-107339131D01*
X165060382Y-107341887D01*
X165050192Y-107344352D01*
X165039776Y-107346528D01*
X165029132Y-107348414D01*
X165018261Y-107350009D01*
X165007164Y-107351315D01*
X164995840Y-107352330D01*
X164984289Y-107353055D01*
X164972511Y-107353490D01*
X164960507Y-107353635D01*
X164529241Y-107353635D01*
X164529241Y-107505330D01*
X164529241Y-107505330D01*
X164529241Y-107505330D01*
G37*
G36*
X164949922Y-106752149D02*
X164922588Y-106537837D01*
X164932735Y-106537620D01*
X164942514Y-106536969D01*
X164951923Y-106535883D01*
X164960963Y-106534364D01*
X164969634Y-106532410D01*
X164977936Y-106530021D01*
X164985869Y-106527199D01*
X164993433Y-106523942D01*
X165000629Y-106520251D01*
X165007455Y-106516126D01*
X165013912Y-106511567D01*
X165020000Y-106506573D01*
X165025720Y-106501146D01*
X165031070Y-106495284D01*
X165036051Y-106488987D01*
X165040664Y-106482257D01*
X165044907Y-106475092D01*
X165048781Y-106467493D01*
X165052287Y-106459460D01*
X165055423Y-106450993D01*
X165058190Y-106442091D01*
X165060589Y-106432755D01*
X165062618Y-106422985D01*
X165064279Y-106412781D01*
X165065570Y-106402143D01*
X165066493Y-106391070D01*
X165067046Y-106379563D01*
X165067231Y-106367622D01*
X165067231Y-106365858D01*
X165067043Y-106354060D01*
X165066480Y-106342707D01*
X165065543Y-106331800D01*
X165064230Y-106321337D01*
X165062542Y-106311320D01*
X165060480Y-106301748D01*
X165058042Y-106292621D01*
X165055229Y-106283940D01*
X165052041Y-106275704D01*
X165048478Y-106267913D01*
X165044540Y-106260567D01*
X165040227Y-106253666D01*
X165035539Y-106247210D01*
X165030475Y-106241200D01*
X165025037Y-106235635D01*
X165019224Y-106230515D01*
X165013035Y-106225840D01*
X165006472Y-106221611D01*
X164999533Y-106217827D01*
X164992220Y-106214488D01*
X164984531Y-106211594D01*
X164976468Y-106209145D01*
X164968029Y-106207142D01*
X164959215Y-106205584D01*
X164950026Y-106204471D01*
X164940463Y-106203803D01*
X164930524Y-106203580D01*
X164816756Y-106203580D01*
X164815057Y-106216068D01*
X164813494Y-106228250D01*
X164812067Y-106240126D01*
X164810775Y-106251695D01*
X164809619Y-106262958D01*
X164808598Y-106273915D01*
X164807712Y-106284566D01*
X164806962Y-106294910D01*
X164806347Y-106304949D01*
X164805868Y-106314681D01*
X164805525Y-106324106D01*
X164805316Y-106333226D01*
X164805456Y-106347035D01*
X164805874Y-106360362D01*
X164806572Y-106373206D01*
X164807548Y-106385568D01*
X164808803Y-106397447D01*
X164810337Y-106408845D01*
X164812150Y-106419759D01*
X164814243Y-106430192D01*
X164816614Y-106440142D01*
X164819264Y-106449609D01*
X164822192Y-106458594D01*
X164825400Y-106467097D01*
X164828887Y-106475117D01*
X164832653Y-106482655D01*
X164836698Y-106489711D01*
X164841021Y-106496284D01*
X164845624Y-106502375D01*
X164850505Y-106507983D01*
X164855666Y-106513109D01*
X164861105Y-106517753D01*
X164866824Y-106521914D01*
X164872821Y-106525593D01*
X164879097Y-106528789D01*
X164885652Y-106531503D01*
X164892486Y-106533735D01*
X164899599Y-106535484D01*
X164906992Y-106536751D01*
X164914662Y-106537535D01*
X164922612Y-106537837D01*
X164922588Y-106537837D01*
X164949922Y-106752149D01*
X164938953Y-106751938D01*
X164927913Y-106751303D01*
X164916801Y-106750244D01*
X164905618Y-106748763D01*
X164894363Y-106746858D01*
X164885760Y-106745004D01*
X164876580Y-106742466D01*
X164866824Y-106739244D01*
X164856493Y-106735339D01*
X164845585Y-106730749D01*
X164834102Y-106725475D01*
X164822042Y-106719518D01*
X164812569Y-106714226D01*
X164803357Y-106708543D01*
X164794407Y-106702467D01*
X164785718Y-106695999D01*
X164777290Y-106689140D01*
X164769124Y-106681888D01*
X164761219Y-106674245D01*
X164753575Y-106666209D01*
X164746193Y-106657782D01*
X164740821Y-106651057D01*
X164735585Y-106643818D01*
X164730483Y-106636064D01*
X164725516Y-106627796D01*
X164720684Y-106619013D01*
X164715987Y-106609716D01*
X164711424Y-106599904D01*
X164706996Y-106589578D01*
X164702703Y-106578737D01*
X164698545Y-106567382D01*
X164694522Y-106555513D01*
X164690633Y-106543129D01*
X164687915Y-106534111D01*
X164685361Y-106524904D01*
X164682972Y-106515508D01*
X164680748Y-106505923D01*
X164678689Y-106496148D01*
X164676794Y-106486184D01*
X164675065Y-106476031D01*
X164673500Y-106465689D01*
X164672099Y-106455157D01*
X164670864Y-106444437D01*
X164669793Y-106433527D01*
X164668887Y-106422428D01*
X164668145Y-106411139D01*
X164667569Y-106399662D01*
X164667157Y-106387995D01*
X164666910Y-106376139D01*
X164666827Y-106364094D01*
X164666882Y-106354169D01*
X164667047Y-106344151D01*
X164667321Y-106334038D01*
X164667705Y-106323831D01*
X164668199Y-106313530D01*
X164668802Y-106303134D01*
X164669515Y-106292645D01*
X164670338Y-106282062D01*
X164671271Y-106271384D01*
X164672313Y-106260613D01*
X164673465Y-106249747D01*
X164674726Y-106238788D01*
X164676098Y-106227734D01*
X164677579Y-106216586D01*
X164679170Y-106205344D01*
X164669010Y-106205520D01*
X164659162Y-106206047D01*
X164649628Y-106206926D01*
X164640406Y-106208156D01*
X164631496Y-106209738D01*
X164622899Y-106211671D01*
X164614615Y-106213956D01*
X164606643Y-106216592D01*
X164598984Y-106219579D01*
X164591638Y-106222918D01*
X164584604Y-106226609D01*
X164577883Y-106230651D01*
X164571474Y-106235045D01*
X164565378Y-106239790D01*
X164559595Y-106244886D01*
X164554124Y-106250334D01*
X164548966Y-106256133D01*
X164544120Y-106262284D01*
X164539588Y-106268787D01*
X164535367Y-106275641D01*
X164531460Y-106282846D01*
X164527865Y-106290403D01*
X164524582Y-106298311D01*
X164521612Y-106306571D01*
X164518955Y-106315182D01*
X164516610Y-106324145D01*
X164514578Y-106333459D01*
X164512859Y-106343125D01*
X164511452Y-106353142D01*
X164510358Y-106363511D01*
X164509577Y-106374231D01*
X164509108Y-106385303D01*
X164508951Y-106396726D01*
X164509025Y-106408798D01*
X164509245Y-106420743D01*
X164509612Y-106432561D01*
X164510126Y-106444252D01*
X164510786Y-106455817D01*
X164511593Y-106467254D01*
X164512547Y-106478564D01*
X164513648Y-106489747D01*
X164514896Y-106500803D01*
X164516290Y-106511732D01*
X164517831Y-106522534D01*
X164519519Y-106533209D01*
X164521354Y-106543757D01*
X164523335Y-106554178D01*
X164525463Y-106564472D01*
X164527738Y-106574639D01*
X164530160Y-106584679D01*
X164532728Y-106594592D01*
X164535444Y-106604378D01*
X164538306Y-106614037D01*
X164541314Y-106623569D01*
X164544470Y-106632975D01*
X164547772Y-106642253D01*
X164551221Y-106651404D01*
X164554817Y-106660428D01*
X164379313Y-106660428D01*
X164375520Y-106650822D01*
X164371876Y-106641135D01*
X164368381Y-106631367D01*
X164365034Y-106621518D01*
X164361836Y-106611588D01*
X164358787Y-106601577D01*
X164355887Y-106591486D01*
X164353135Y-106581314D01*
X164350532Y-106571060D01*
X164348078Y-106560726D01*
X164345773Y-106550311D01*
X164343616Y-106539815D01*
X164341608Y-106529238D01*
X164339749Y-106518581D01*
X164338038Y-106507842D01*
X164336476Y-106497023D01*
X164335063Y-106486122D01*
X164333799Y-106475141D01*
X164332684Y-106464079D01*
X164331717Y-106452936D01*
X164330899Y-106441712D01*
X164330230Y-106430407D01*
X164329709Y-106419021D01*
X164329337Y-106407555D01*
X164329114Y-106396007D01*
X164329040Y-106384379D01*
X164329149Y-106371604D01*
X164329479Y-106359030D01*
X164330027Y-106346658D01*
X164330796Y-106334488D01*
X164331783Y-106322520D01*
X164332991Y-106310754D01*
X164334417Y-106299190D01*
X164336064Y-106287828D01*
X164337929Y-106276667D01*
X164340015Y-106265708D01*
X164342320Y-106254952D01*
X164344844Y-106244397D01*
X164347588Y-106234044D01*
X164350551Y-106223893D01*
X164353734Y-106213943D01*
X164357136Y-106204196D01*
X164360758Y-106194650D01*
X164364599Y-106185307D01*
X164368660Y-106176165D01*
X164372940Y-106167225D01*
X164377440Y-106158487D01*
X164382159Y-106149950D01*
X164387098Y-106141616D01*
X164392256Y-106133483D01*
X164397634Y-106125553D01*
X164403232Y-106117824D01*
X164409048Y-106110297D01*
X164415085Y-106102972D01*
X164421341Y-106095849D01*
X164427816Y-106088928D01*
X164434440Y-106082221D01*
X164441261Y-106075742D01*
X164448277Y-106069490D01*
X164455490Y-106063465D01*
X164462898Y-106057668D01*
X164470502Y-106052098D01*
X164478303Y-106046755D01*
X164486299Y-106041640D01*
X164494491Y-106036752D01*
X164502880Y-106032091D01*
X164511464Y-106027658D01*
X164520244Y-106023452D01*
X164529221Y-106019473D01*
X164538393Y-106015722D01*
X164547761Y-106012198D01*
X164557325Y-106008902D01*
X164567085Y-106005833D01*
X164577042Y-106002991D01*
X164587194Y-106000376D01*
X164597542Y-105997989D01*
X164608086Y-105995830D01*
X164618826Y-105993897D01*
X164629762Y-105992192D01*
X164640894Y-105990714D01*
X164652222Y-105989464D01*
X164663746Y-105988441D01*
X164675466Y-105987645D01*
X164687382Y-105987077D01*
X164699494Y-105986736D01*
X164711802Y-105986622D01*
X164955221Y-105986622D01*
X164965969Y-105986799D01*
X164976587Y-105987329D01*
X164987075Y-105988213D01*
X164997434Y-105989450D01*
X165007662Y-105991040D01*
X165017760Y-105992984D01*
X165027728Y-105995281D01*
X165037566Y-105997932D01*
X165047274Y-106000937D01*
X165056852Y-106004294D01*
X165066300Y-106008005D01*
X165075618Y-106012070D01*
X165084806Y-106016488D01*
X165093864Y-106021260D01*
X165102792Y-106026385D01*
X165111590Y-106031863D01*
X165120258Y-106037695D01*
X165128796Y-106043880D01*
X165137204Y-106050419D01*
X165145482Y-106057311D01*
X165153629Y-106064557D01*
X165161647Y-106072156D01*
X165169535Y-106080108D01*
X165175572Y-106086614D01*
X165181397Y-106093359D01*
X165187010Y-106100344D01*
X165192412Y-106107567D01*
X165197601Y-106115029D01*
X165202579Y-106122731D01*
X165207345Y-106130672D01*
X165211899Y-106138851D01*
X165216242Y-106147270D01*
X165220372Y-106155928D01*
X165224291Y-106164825D01*
X165227998Y-106173961D01*
X165231493Y-106183337D01*
X165234776Y-106192951D01*
X165237847Y-106202804D01*
X165240707Y-106212897D01*
X165243355Y-106223229D01*
X165245791Y-106233799D01*
X165248015Y-106244609D01*
X165250027Y-106255658D01*
X165251828Y-106266946D01*
X165253416Y-106278473D01*
X165254793Y-106290240D01*
X165255958Y-106302245D01*
X165256911Y-106314489D01*
X165257653Y-106326973D01*
X165258182Y-106339696D01*
X165258500Y-106352657D01*
X165258606Y-106365858D01*
X165258506Y-106378972D01*
X165258206Y-106391854D01*
X165257706Y-106404505D01*
X165257007Y-106416925D01*
X165256107Y-106429113D01*
X165255007Y-106441070D01*
X165253708Y-106452796D01*
X165252209Y-106464291D01*
X165250509Y-106475554D01*
X165248610Y-106486587D01*
X165246511Y-106497388D01*
X165244212Y-106507957D01*
X165241713Y-106518295D01*
X165239014Y-106528403D01*
X165236115Y-106538278D01*
X165233017Y-106547923D01*
X165229718Y-106557336D01*
X165226220Y-106566518D01*
X165222521Y-106575469D01*
X165218623Y-106584188D01*
X165214524Y-106592677D01*
X165210226Y-106600934D01*
X165205728Y-106608959D01*
X165201030Y-106616754D01*
X165196132Y-106624317D01*
X165191034Y-106631649D01*
X165185737Y-106638749D01*
X165180239Y-106645619D01*
X165174541Y-106652257D01*
X165168644Y-106658664D01*
X165160749Y-106666616D01*
X165152707Y-106674215D01*
X165144518Y-106681461D01*
X165136183Y-106688353D01*
X165127701Y-106694892D01*
X165119072Y-106701077D01*
X165110296Y-106706909D01*
X165101373Y-106712387D01*
X165092304Y-106717512D01*
X165083088Y-106722284D01*
X165073725Y-106726702D01*
X165064215Y-106730766D01*
X165054559Y-106734478D01*
X165044756Y-106737835D01*
X165034806Y-106740840D01*
X165024709Y-106743490D01*
X165014466Y-106745788D01*
X165004075Y-106747732D01*
X164993538Y-106749322D01*
X164982855Y-106750559D01*
X164972024Y-106751443D01*
X164961047Y-106751973D01*
X164949922Y-106752150D01*
X164949922Y-106752149D01*
X164949922Y-106752149D01*
G37*
G36*
X164794708Y-105796121D02*
X164781893Y-105796031D01*
X164769250Y-105795761D01*
X164756781Y-105795311D01*
X164744484Y-105794682D01*
X164732360Y-105793872D01*
X164720408Y-105792882D01*
X164708630Y-105791712D01*
X164697024Y-105790362D01*
X164685591Y-105788832D01*
X164674331Y-105787122D01*
X164663244Y-105785232D01*
X164652329Y-105783162D01*
X164641588Y-105780912D01*
X164631019Y-105778483D01*
X164620623Y-105775873D01*
X164610399Y-105773083D01*
X164600349Y-105770113D01*
X164590471Y-105766963D01*
X164580766Y-105763634D01*
X164571234Y-105760124D01*
X164561874Y-105756434D01*
X164552688Y-105752564D01*
X164543674Y-105748514D01*
X164534833Y-105744285D01*
X164526164Y-105739875D01*
X164517669Y-105735285D01*
X164509346Y-105730516D01*
X164501196Y-105725566D01*
X164493219Y-105720436D01*
X164485415Y-105715127D01*
X164477783Y-105709637D01*
X164470324Y-105703967D01*
X164463038Y-105698118D01*
X164455925Y-105692088D01*
X164448985Y-105685878D01*
X164441826Y-105679110D01*
X164434887Y-105672166D01*
X164428168Y-105665047D01*
X164421669Y-105657753D01*
X164415391Y-105650285D01*
X164409333Y-105642641D01*
X164403496Y-105634823D01*
X164397879Y-105626829D01*
X164392482Y-105618661D01*
X164387305Y-105610318D01*
X164382349Y-105601800D01*
X164377612Y-105593107D01*
X164373097Y-105584239D01*
X164368801Y-105575196D01*
X164364726Y-105565978D01*
X164360871Y-105556585D01*
X164357236Y-105547017D01*
X164353822Y-105537274D01*
X164350628Y-105527357D01*
X164347654Y-105517264D01*
X164344900Y-105506997D01*
X164342367Y-105496554D01*
X164340054Y-105485937D01*
X164337961Y-105475145D01*
X164336089Y-105464178D01*
X164334437Y-105453035D01*
X164333005Y-105441718D01*
X164331793Y-105430226D01*
X164330802Y-105418559D01*
X164330031Y-105406718D01*
X164329480Y-105394701D01*
X164329150Y-105382509D01*
X164329040Y-105370142D01*
X164329127Y-105359126D01*
X164329389Y-105348124D01*
X164329825Y-105337138D01*
X164330436Y-105326168D01*
X164331222Y-105315212D01*
X164332182Y-105304272D01*
X164333316Y-105293347D01*
X164334626Y-105282438D01*
X164336109Y-105271544D01*
X164337768Y-105260665D01*
X164339600Y-105249801D01*
X164341608Y-105238953D01*
X164343790Y-105228120D01*
X164346146Y-105217303D01*
X164348678Y-105206500D01*
X164351383Y-105195713D01*
X164354263Y-105184942D01*
X164357318Y-105174185D01*
X164360548Y-105163444D01*
X164363952Y-105152718D01*
X164367530Y-105142008D01*
X164371283Y-105131313D01*
X164375211Y-105120633D01*
X164379313Y-105109969D01*
X164560104Y-105109969D01*
X164556086Y-105120156D01*
X164552264Y-105130391D01*
X164548638Y-105140675D01*
X164545208Y-105151006D01*
X164541974Y-105161385D01*
X164538936Y-105171813D01*
X164536094Y-105182288D01*
X164533448Y-105192811D01*
X164530998Y-105203383D01*
X164528744Y-105214002D01*
X164526686Y-105224669D01*
X164524825Y-105235385D01*
X164523159Y-105246148D01*
X164521689Y-105256959D01*
X164520415Y-105267819D01*
X164519337Y-105278726D01*
X164518455Y-105289681D01*
X164517769Y-105300685D01*
X164517279Y-105311736D01*
X164516985Y-105322835D01*
X164516887Y-105333983D01*
X164517046Y-105346897D01*
X164517522Y-105359459D01*
X164518316Y-105371669D01*
X164519428Y-105383528D01*
X164520857Y-105395035D01*
X164522604Y-105406190D01*
X164524668Y-105416993D01*
X164527050Y-105427444D01*
X164529750Y-105437544D01*
X164532767Y-105447292D01*
X164536102Y-105456688D01*
X164539755Y-105465732D01*
X164543725Y-105474424D01*
X164548013Y-105482765D01*
X164552618Y-105490754D01*
X164557541Y-105498391D01*
X164562782Y-105505676D01*
X164568340Y-105512609D01*
X164574216Y-105519191D01*
X164579570Y-105524519D01*
X164585369Y-105529599D01*
X164591612Y-105534432D01*
X164598300Y-105539016D01*
X164605433Y-105543353D01*
X164613010Y-105547442D01*
X164621032Y-105551283D01*
X164629498Y-105554877D01*
X164638409Y-105558222D01*
X164647764Y-105561320D01*
X164657564Y-105564170D01*
X164667809Y-105566772D01*
X164678498Y-105569126D01*
X164689632Y-105571233D01*
X164701210Y-105573092D01*
X164713233Y-105574702D01*
X164725701Y-105576065D01*
X164738613Y-105577181D01*
X164751970Y-105578048D01*
X164765771Y-105578667D01*
X164780017Y-105579039D01*
X164794708Y-105579163D01*
X164809245Y-105579039D01*
X164823352Y-105578667D01*
X164837028Y-105578048D01*
X164850275Y-105577181D01*
X164863092Y-105576065D01*
X164875479Y-105574702D01*
X164887436Y-105573092D01*
X164898963Y-105571233D01*
X164910060Y-105569126D01*
X164920726Y-105566772D01*
X164930963Y-105564170D01*
X164940770Y-105561320D01*
X164950147Y-105558222D01*
X164959093Y-105554877D01*
X164967610Y-105551283D01*
X164975697Y-105547442D01*
X164983354Y-105543353D01*
X164990580Y-105539016D01*
X164997377Y-105534432D01*
X165003744Y-105529599D01*
X165009681Y-105524519D01*
X165015187Y-105519191D01*
X165021063Y-105512609D01*
X165026621Y-105505676D01*
X165031862Y-105498391D01*
X165036785Y-105490754D01*
X165041391Y-105482765D01*
X165045678Y-105474424D01*
X165049649Y-105465732D01*
X165053301Y-105456688D01*
X165056636Y-105447292D01*
X165059653Y-105437544D01*
X165062353Y-105427444D01*
X165064735Y-105416993D01*
X165066800Y-105406190D01*
X165068547Y-105395035D01*
X165069976Y-105383528D01*
X165071088Y-105371669D01*
X165071882Y-105359459D01*
X165072358Y-105346897D01*
X165072517Y-105333983D01*
X165072415Y-105323315D01*
X165072109Y-105312648D01*
X165071599Y-105301981D01*
X165070885Y-105291313D01*
X165069967Y-105280646D01*
X165068845Y-105269979D01*
X165067520Y-105259311D01*
X165065990Y-105248644D01*
X165064256Y-105237977D01*
X165062318Y-105227309D01*
X165060177Y-105216642D01*
X165057831Y-105205975D01*
X165055281Y-105195307D01*
X165052528Y-105184640D01*
X165049570Y-105173973D01*
X165046409Y-105163305D01*
X165043043Y-105152638D01*
X165039474Y-105141971D01*
X165035701Y-105131303D01*
X165031723Y-105120636D01*
X165027542Y-105109969D01*
X165208333Y-105109969D01*
X165212435Y-105120633D01*
X165216362Y-105131313D01*
X165220115Y-105142008D01*
X165223694Y-105152718D01*
X165227098Y-105163444D01*
X165230327Y-105174185D01*
X165233382Y-105184942D01*
X165236262Y-105195713D01*
X165238968Y-105206500D01*
X165241499Y-105217303D01*
X165243856Y-105228120D01*
X165246038Y-105238953D01*
X165248045Y-105249801D01*
X165249878Y-105260665D01*
X165251536Y-105271544D01*
X165253020Y-105282438D01*
X165254329Y-105293347D01*
X165255464Y-105304272D01*
X165256424Y-105315212D01*
X165257209Y-105326168D01*
X165257820Y-105337138D01*
X165258257Y-105348124D01*
X165258519Y-105359126D01*
X165258606Y-105370142D01*
X165258496Y-105382509D01*
X165258165Y-105394701D01*
X165257615Y-105406718D01*
X165256844Y-105418559D01*
X165255852Y-105430226D01*
X165254641Y-105441718D01*
X165253209Y-105453035D01*
X165251557Y-105464178D01*
X165249684Y-105475145D01*
X165247592Y-105485937D01*
X165245279Y-105496554D01*
X165242745Y-105506997D01*
X165239992Y-105517264D01*
X165237018Y-105527357D01*
X165233824Y-105537274D01*
X165230409Y-105547017D01*
X165226775Y-105556585D01*
X165222920Y-105565978D01*
X165218844Y-105575196D01*
X165214549Y-105584239D01*
X165210033Y-105593107D01*
X165205297Y-105601800D01*
X165200340Y-105610318D01*
X165195164Y-105618661D01*
X165189767Y-105626829D01*
X165184149Y-105634823D01*
X165178312Y-105642641D01*
X165172254Y-105650285D01*
X165165976Y-105657753D01*
X165159478Y-105665047D01*
X165152759Y-105672166D01*
X165145820Y-105679110D01*
X165138661Y-105685878D01*
X165131722Y-105692088D01*
X165124613Y-105698118D01*
X165117334Y-105703967D01*
X165109885Y-105709637D01*
X165102267Y-105715127D01*
X165094478Y-105720436D01*
X165086520Y-105725566D01*
X165078392Y-105730516D01*
X165070094Y-105735285D01*
X165061626Y-105739875D01*
X165052988Y-105744285D01*
X165044180Y-105748514D01*
X165035202Y-105752564D01*
X165026054Y-105756434D01*
X165016737Y-105760124D01*
X165007250Y-105763634D01*
X164997592Y-105766963D01*
X164987765Y-105770113D01*
X164977768Y-105773083D01*
X164967601Y-105775873D01*
X164957264Y-105778483D01*
X164946757Y-105780912D01*
X164936080Y-105783162D01*
X164925234Y-105785232D01*
X164914217Y-105787122D01*
X164903031Y-105788832D01*
X164891675Y-105790362D01*
X164880148Y-105791712D01*
X164868452Y-105792882D01*
X164856586Y-105793872D01*
X164844550Y-105794682D01*
X164832345Y-105795311D01*
X164819969Y-105795761D01*
X164807423Y-105796031D01*
X164794708Y-105796121D01*
X164794708Y-105796121D01*
G37*
G36*
X165244493Y-104909767D02*
X164005365Y-104909767D01*
X164005365Y-104692809D01*
X164673884Y-104692809D01*
X164343152Y-104389420D01*
X164343152Y-104101906D01*
X164744435Y-104494371D01*
X165244493Y-104060455D01*
X165244493Y-104334740D01*
X164889077Y-104632837D01*
X164949922Y-104692809D01*
X165244493Y-104692809D01*
X165244493Y-104909767D01*
X165244493Y-104909767D01*
G37*
D12*
X132056667Y-95378571D02*
X131723333Y-95378571D01*
X131723333Y-95902381D02*
X131723333Y-94902381D01*
X132199524Y-94902381D01*
X132532857Y-94997619D02*
X132580476Y-94950000D01*
X132675714Y-94902381D01*
X132913810Y-94902381D01*
X133009048Y-94950000D01*
X133056667Y-94997619D01*
X133104286Y-95092857D01*
X133104286Y-95188095D01*
X133056667Y-95330952D01*
X132485238Y-95902381D01*
X133104286Y-95902381D01*
X162266667Y-120608571D02*
X161933333Y-120608571D01*
X161933333Y-121132381D02*
X161933333Y-120132381D01*
X162409524Y-120132381D01*
X162695238Y-120132381D02*
X163314286Y-120132381D01*
X162980952Y-120513333D01*
X163123810Y-120513333D01*
X163219048Y-120560952D01*
X163266667Y-120608571D01*
X163314286Y-120703810D01*
X163314286Y-120941905D01*
X163266667Y-121037143D01*
X163219048Y-121084762D01*
X163123810Y-121132381D01*
X162838095Y-121132381D01*
X162742857Y-121084762D01*
X162695238Y-121037143D01*
X146457143Y-113766666D02*
X146504762Y-113814285D01*
X146552381Y-113957142D01*
X146552381Y-114052380D01*
X146504762Y-114195238D01*
X146409524Y-114290476D01*
X146314286Y-114338095D01*
X146123810Y-114385714D01*
X145980952Y-114385714D01*
X145790476Y-114338095D01*
X145695238Y-114290476D01*
X145600000Y-114195238D01*
X145552381Y-114052380D01*
X145552381Y-113957142D01*
X145600000Y-113814285D01*
X145647619Y-113766666D01*
X146552381Y-112814285D02*
X146552381Y-113385714D01*
X146552381Y-113100000D02*
X145552381Y-113100000D01*
X145695238Y-113195238D01*
X145790476Y-113290476D01*
X145838095Y-113385714D01*
X135757143Y-113516666D02*
X135804762Y-113564285D01*
X135852381Y-113707142D01*
X135852381Y-113802380D01*
X135804762Y-113945238D01*
X135709524Y-114040476D01*
X135614286Y-114088095D01*
X135423810Y-114135714D01*
X135280952Y-114135714D01*
X135090476Y-114088095D01*
X134995238Y-114040476D01*
X134900000Y-113945238D01*
X134852381Y-113802380D01*
X134852381Y-113707142D01*
X134900000Y-113564285D01*
X134947619Y-113516666D01*
X134947619Y-113135714D02*
X134900000Y-113088095D01*
X134852381Y-112992857D01*
X134852381Y-112754761D01*
X134900000Y-112659523D01*
X134947619Y-112611904D01*
X135042857Y-112564285D01*
X135138095Y-112564285D01*
X135280952Y-112611904D01*
X135852381Y-113183333D01*
X135852381Y-112564285D01*
X139952381Y-118766666D02*
X139476190Y-119100000D01*
X139952381Y-119338095D02*
X138952381Y-119338095D01*
X138952381Y-118957142D01*
X139000000Y-118861904D01*
X139047619Y-118814285D01*
X139142857Y-118766666D01*
X139285714Y-118766666D01*
X139380952Y-118814285D01*
X139428571Y-118861904D01*
X139476190Y-118957142D01*
X139476190Y-119338095D01*
X139952381Y-117814285D02*
X139952381Y-118385714D01*
X139952381Y-118100000D02*
X138952381Y-118100000D01*
X139095238Y-118195238D01*
X139190476Y-118290476D01*
X139238095Y-118385714D01*
X143052381Y-118766666D02*
X142576190Y-119100000D01*
X143052381Y-119338095D02*
X142052381Y-119338095D01*
X142052381Y-118957142D01*
X142100000Y-118861904D01*
X142147619Y-118814285D01*
X142242857Y-118766666D01*
X142385714Y-118766666D01*
X142480952Y-118814285D01*
X142528571Y-118861904D01*
X142576190Y-118957142D01*
X142576190Y-119338095D01*
X142147619Y-118385714D02*
X142100000Y-118338095D01*
X142052381Y-118242857D01*
X142052381Y-118004761D01*
X142100000Y-117909523D01*
X142147619Y-117861904D01*
X142242857Y-117814285D01*
X142338095Y-117814285D01*
X142480952Y-117861904D01*
X143052381Y-118433333D01*
X143052381Y-117814285D01*
X139588095Y-115352381D02*
X139588095Y-116161905D01*
X139635714Y-116257143D01*
X139683333Y-116304762D01*
X139778571Y-116352381D01*
X139969048Y-116352381D01*
X140064286Y-116304762D01*
X140111905Y-116257143D01*
X140159524Y-116161905D01*
X140159524Y-115352381D01*
X141159524Y-116352381D02*
X140588095Y-116352381D01*
X140873809Y-116352381D02*
X140873809Y-115352381D01*
X140778571Y-115495238D01*
X140683333Y-115590476D01*
X140588095Y-115638095D01*
X132386667Y-120708571D02*
X132053333Y-120708571D01*
X132053333Y-121232381D02*
X132053333Y-120232381D01*
X132529524Y-120232381D01*
X133434286Y-121232381D02*
X132862857Y-121232381D01*
X133148571Y-121232381D02*
X133148571Y-120232381D01*
X133053333Y-120375238D01*
X132958095Y-120470476D01*
X132862857Y-120518095D01*
M02*
