G04 #@! TF.FileFunction,Soldermask,Top*
%FSLAX46Y46*%
G04 Gerber Fmt 4.6, Leading zero omitted, Abs format (unit mm)*
G04 Created by KiCad (PCBNEW 4.0.1-stable) date Tuesday, March 08, 2016 'AMt' 11:46:43 AM*
%MOMM*%
G01*
G04 APERTURE LIST*
%ADD10C,0.100000*%
%ADD11C,0.010000*%
%ADD12C,2.000000*%
%ADD13R,1.100000X1.600000*%
%ADD14R,1.400000X1.600000*%
%ADD15R,1.700000X2.300000*%
%ADD16R,1.400000X3.200000*%
%ADD17R,1.400000X1.200000*%
%ADD18R,1.100000X0.600000*%
%ADD19R,1.901140X0.798780*%
%ADD20R,2.000000X2.400000*%
%ADD21R,1.150000X1.600000*%
%ADD22R,1.197560X1.197560*%
%ADD23R,1.300000X1.600000*%
%ADD24R,1.460000X1.050000*%
G04 APERTURE END LIST*
D10*
D11*
G36*
X145619564Y-123687271D02*
X145645508Y-123688488D01*
X145670124Y-123690595D01*
X145694568Y-123693681D01*
X145719999Y-123697837D01*
X145737168Y-123701069D01*
X145762517Y-123706313D01*
X145786699Y-123711924D01*
X145810431Y-123718132D01*
X145834429Y-123725164D01*
X145859412Y-123733250D01*
X145886095Y-123742618D01*
X145915196Y-123753498D01*
X145947433Y-123766118D01*
X145971820Y-123775936D01*
X146004200Y-123789238D01*
X146037073Y-123803047D01*
X146070715Y-123817494D01*
X146105404Y-123832708D01*
X146141417Y-123848820D01*
X146179031Y-123865959D01*
X146218524Y-123884255D01*
X146260172Y-123903839D01*
X146304253Y-123924840D01*
X146351044Y-123947389D01*
X146400822Y-123971615D01*
X146453864Y-123997648D01*
X146510448Y-124025619D01*
X146570850Y-124055657D01*
X146610459Y-124075436D01*
X146666490Y-124103404D01*
X146718559Y-124129279D01*
X146766988Y-124153209D01*
X146812102Y-124175343D01*
X146854224Y-124195830D01*
X146893679Y-124214819D01*
X146930790Y-124232457D01*
X146965881Y-124248895D01*
X146999276Y-124264280D01*
X147031299Y-124278762D01*
X147062273Y-124292489D01*
X147092524Y-124305610D01*
X147122374Y-124318274D01*
X147152148Y-124330629D01*
X147182169Y-124342825D01*
X147212761Y-124355009D01*
X147244249Y-124367331D01*
X147256029Y-124371892D01*
X147272479Y-124378261D01*
X147287757Y-124384205D01*
X147301184Y-124389460D01*
X147312085Y-124393759D01*
X147319780Y-124396837D01*
X147323479Y-124398374D01*
X147330453Y-124401501D01*
X147312374Y-124423146D01*
X147283873Y-124454827D01*
X147251092Y-124486893D01*
X147214528Y-124518967D01*
X147174680Y-124550672D01*
X147132044Y-124581630D01*
X147087117Y-124611464D01*
X147040398Y-124639796D01*
X146992384Y-124666249D01*
X146991143Y-124666898D01*
X146928462Y-124697677D01*
X146861875Y-124726709D01*
X146792059Y-124753797D01*
X146719691Y-124778741D01*
X146645448Y-124801345D01*
X146570008Y-124821410D01*
X146494046Y-124838739D01*
X146418242Y-124853134D01*
X146343271Y-124864396D01*
X146296876Y-124869783D01*
X146283122Y-124870864D01*
X146265842Y-124871713D01*
X146245936Y-124872329D01*
X146224304Y-124872713D01*
X146201847Y-124872865D01*
X146179465Y-124872784D01*
X146158058Y-124872470D01*
X146138527Y-124871924D01*
X146121772Y-124871145D01*
X146108693Y-124870133D01*
X146105771Y-124869803D01*
X146057644Y-124862101D01*
X146013278Y-124851442D01*
X145972693Y-124837833D01*
X145935913Y-124821281D01*
X145902956Y-124801793D01*
X145890357Y-124792808D01*
X145862485Y-124769111D01*
X145838707Y-124742997D01*
X145818783Y-124714136D01*
X145802472Y-124682199D01*
X145794275Y-124661296D01*
X145787956Y-124641987D01*
X145783438Y-124624431D01*
X145780478Y-124607095D01*
X145778830Y-124588448D01*
X145778252Y-124566961D01*
X145778248Y-124560593D01*
X145778385Y-124521576D01*
X145762590Y-124519957D01*
X145746795Y-124518339D01*
X145729736Y-124529946D01*
X145712676Y-124541553D01*
X145711971Y-124564534D01*
X145713042Y-124596744D01*
X145717967Y-124630431D01*
X145726445Y-124664588D01*
X145738179Y-124698208D01*
X145752870Y-124730285D01*
X145769657Y-124758962D01*
X145794193Y-124791774D01*
X145822306Y-124821339D01*
X145853984Y-124847649D01*
X145889212Y-124870697D01*
X145927975Y-124890476D01*
X145970260Y-124906978D01*
X146016051Y-124920197D01*
X146065335Y-124930126D01*
X146118098Y-124936756D01*
X146124165Y-124937288D01*
X146143351Y-124938440D01*
X146166266Y-124939063D01*
X146191833Y-124939181D01*
X146218974Y-124938821D01*
X146246613Y-124938010D01*
X146273672Y-124936773D01*
X146299074Y-124935135D01*
X146321742Y-124933124D01*
X146328696Y-124932353D01*
X146405758Y-124921672D01*
X146483900Y-124907752D01*
X146562359Y-124890807D01*
X146640372Y-124871049D01*
X146717179Y-124848691D01*
X146792018Y-124823945D01*
X146864126Y-124797024D01*
X146932742Y-124768141D01*
X146957519Y-124756800D01*
X147017409Y-124727174D01*
X147074890Y-124695605D01*
X147129644Y-124662323D01*
X147181355Y-124627560D01*
X147229708Y-124591548D01*
X147274385Y-124554519D01*
X147315071Y-124516703D01*
X147351449Y-124478332D01*
X147373167Y-124452539D01*
X147383329Y-124440158D01*
X147390981Y-124431607D01*
X147396308Y-124426697D01*
X147399493Y-124425240D01*
X147399730Y-124425285D01*
X147409725Y-124427780D01*
X147423746Y-124430610D01*
X147441003Y-124433661D01*
X147460705Y-124436818D01*
X147482062Y-124439969D01*
X147504283Y-124442997D01*
X147526576Y-124445789D01*
X147548152Y-124448231D01*
X147568220Y-124450208D01*
X147577762Y-124451012D01*
X147598511Y-124452203D01*
X147621492Y-124452670D01*
X147647009Y-124452395D01*
X147675366Y-124451358D01*
X147706869Y-124449543D01*
X147741823Y-124446929D01*
X147780531Y-124443500D01*
X147823300Y-124439236D01*
X147870433Y-124434119D01*
X147884981Y-124432471D01*
X147952135Y-124424370D01*
X148023732Y-124414916D01*
X148099583Y-124404144D01*
X148179497Y-124392088D01*
X148263283Y-124378784D01*
X148350750Y-124364265D01*
X148441708Y-124348566D01*
X148535966Y-124331722D01*
X148633333Y-124313769D01*
X148733619Y-124294740D01*
X148836632Y-124274670D01*
X148942183Y-124253594D01*
X149050080Y-124231547D01*
X149160133Y-124208564D01*
X149272152Y-124184679D01*
X149385945Y-124159926D01*
X149405352Y-124155657D01*
X149426975Y-124150927D01*
X149447593Y-124146482D01*
X149466624Y-124142445D01*
X149483484Y-124138935D01*
X149497589Y-124136074D01*
X149508356Y-124133982D01*
X149515202Y-124132780D01*
X149516629Y-124132585D01*
X149535403Y-124132642D01*
X149555267Y-124136479D01*
X149574974Y-124143639D01*
X149593279Y-124153666D01*
X149608935Y-124166103D01*
X149609424Y-124166581D01*
X149616801Y-124175057D01*
X149625869Y-124187486D01*
X149636370Y-124203394D01*
X149648044Y-124222306D01*
X149660631Y-124243748D01*
X149673871Y-124267247D01*
X149687504Y-124292328D01*
X149701272Y-124318518D01*
X149714913Y-124345341D01*
X149728169Y-124372324D01*
X149740780Y-124398993D01*
X149752485Y-124424874D01*
X149758472Y-124438666D01*
X149777315Y-124485939D01*
X149792317Y-124530460D01*
X149803473Y-124572204D01*
X149810779Y-124611151D01*
X149814234Y-124647277D01*
X149813833Y-124680560D01*
X149809574Y-124710977D01*
X149801922Y-124737272D01*
X149795352Y-124751166D01*
X149786051Y-124766192D01*
X149775218Y-124780659D01*
X149764050Y-124792874D01*
X149759947Y-124796590D01*
X149749394Y-124804757D01*
X149737999Y-124811968D01*
X149725387Y-124818298D01*
X149711185Y-124823822D01*
X149695021Y-124828616D01*
X149676521Y-124832756D01*
X149655313Y-124836316D01*
X149631022Y-124839373D01*
X149603277Y-124842002D01*
X149571703Y-124844278D01*
X149535928Y-124846277D01*
X149508162Y-124847554D01*
X149494605Y-124848088D01*
X149476894Y-124848715D01*
X149455714Y-124849415D01*
X149431747Y-124850168D01*
X149405677Y-124850951D01*
X149378188Y-124851745D01*
X149349962Y-124852528D01*
X149321684Y-124853281D01*
X149307381Y-124853648D01*
X149234719Y-124855565D01*
X149166484Y-124857528D01*
X149102266Y-124859558D01*
X149041652Y-124861674D01*
X148984233Y-124863897D01*
X148929597Y-124866247D01*
X148877333Y-124868745D01*
X148827031Y-124871410D01*
X148778279Y-124874262D01*
X148730667Y-124877322D01*
X148683783Y-124880611D01*
X148637217Y-124884147D01*
X148590557Y-124887952D01*
X148565943Y-124890059D01*
X148461434Y-124899875D01*
X148360971Y-124910858D01*
X148263873Y-124923149D01*
X148169460Y-124936888D01*
X148077053Y-124952215D01*
X147985972Y-124969270D01*
X147895536Y-124988195D01*
X147805066Y-125009128D01*
X147713882Y-125032210D01*
X147621303Y-125057582D01*
X147526651Y-125085384D01*
X147429245Y-125115757D01*
X147355210Y-125139897D01*
X147316363Y-125152856D01*
X147280412Y-125165038D01*
X147246965Y-125176626D01*
X147215630Y-125187802D01*
X147186014Y-125198748D01*
X147157726Y-125209647D01*
X147130374Y-125220682D01*
X147103565Y-125232035D01*
X147076908Y-125243888D01*
X147050011Y-125256425D01*
X147022481Y-125269827D01*
X146993927Y-125284277D01*
X146963956Y-125299959D01*
X146932176Y-125317053D01*
X146898196Y-125335743D01*
X146861624Y-125356212D01*
X146822066Y-125378641D01*
X146779132Y-125403213D01*
X146734724Y-125428788D01*
X146700306Y-125448624D01*
X146669607Y-125466252D01*
X146642175Y-125481919D01*
X146617562Y-125495873D01*
X146595318Y-125508363D01*
X146574993Y-125519636D01*
X146556136Y-125529941D01*
X146538299Y-125539525D01*
X146521031Y-125548636D01*
X146503882Y-125557523D01*
X146486404Y-125566433D01*
X146471048Y-125574162D01*
X146426259Y-125596051D01*
X146384576Y-125615225D01*
X146345282Y-125631930D01*
X146307658Y-125646415D01*
X146270986Y-125658927D01*
X146234550Y-125669716D01*
X146197629Y-125679028D01*
X146159508Y-125687111D01*
X146126955Y-125692979D01*
X146086308Y-125699412D01*
X146048878Y-125704468D01*
X146013278Y-125708258D01*
X145978120Y-125710896D01*
X145942020Y-125712492D01*
X145903589Y-125713158D01*
X145877171Y-125713149D01*
X145858939Y-125713012D01*
X145841766Y-125712835D01*
X145826402Y-125712630D01*
X145813598Y-125712407D01*
X145804102Y-125712178D01*
X145798667Y-125711955D01*
X145798552Y-125711947D01*
X145736121Y-125705765D01*
X145674537Y-125696409D01*
X145614390Y-125684029D01*
X145556264Y-125668776D01*
X145500747Y-125650800D01*
X145448426Y-125630253D01*
X145408886Y-125611875D01*
X145350028Y-125579716D01*
X145292684Y-125543002D01*
X145236906Y-125501788D01*
X145182747Y-125456130D01*
X145130259Y-125406086D01*
X145079494Y-125351710D01*
X145030504Y-125293060D01*
X144983342Y-125230192D01*
X144938060Y-125163161D01*
X144894710Y-125092024D01*
X144853344Y-125016837D01*
X144850377Y-125011140D01*
X144825001Y-124959703D01*
X144801334Y-124906393D01*
X144779132Y-124850569D01*
X144758147Y-124791594D01*
X144738134Y-124728827D01*
X144726818Y-124690234D01*
X144721630Y-124672002D01*
X144553124Y-124604030D01*
X144526054Y-124593076D01*
X144500329Y-124582600D01*
X144476297Y-124572746D01*
X144454304Y-124563662D01*
X144434699Y-124555491D01*
X144417827Y-124548380D01*
X144404038Y-124542474D01*
X144393676Y-124537918D01*
X144387091Y-124534859D01*
X144384628Y-124533441D01*
X144384619Y-124533409D01*
X144386385Y-124531437D01*
X144391507Y-124526490D01*
X144399724Y-124518808D01*
X144410775Y-124508629D01*
X144424396Y-124496189D01*
X144440327Y-124481728D01*
X144458305Y-124465482D01*
X144478069Y-124447690D01*
X144499357Y-124428590D01*
X144521906Y-124408419D01*
X144539438Y-124392777D01*
X144694257Y-124254794D01*
X144704116Y-124227558D01*
X144723546Y-124179507D01*
X144746344Y-124133631D01*
X144772790Y-124089513D01*
X144803162Y-124046736D01*
X144837739Y-124004883D01*
X144876801Y-123963536D01*
X144888039Y-123952515D01*
X144934198Y-123911250D01*
X144983975Y-123873069D01*
X145037189Y-123838064D01*
X145093659Y-123806324D01*
X145153203Y-123777941D01*
X145215639Y-123753004D01*
X145280785Y-123731605D01*
X145348460Y-123713835D01*
X145380057Y-123706972D01*
X145410501Y-123701050D01*
X145437739Y-123696407D01*
X145463186Y-123692888D01*
X145488256Y-123690335D01*
X145514364Y-123688592D01*
X145542925Y-123687501D01*
X145559067Y-123687143D01*
X145591136Y-123686853D01*
X145619564Y-123687271D01*
X145619564Y-123687271D01*
G37*
X145619564Y-123687271D02*
X145645508Y-123688488D01*
X145670124Y-123690595D01*
X145694568Y-123693681D01*
X145719999Y-123697837D01*
X145737168Y-123701069D01*
X145762517Y-123706313D01*
X145786699Y-123711924D01*
X145810431Y-123718132D01*
X145834429Y-123725164D01*
X145859412Y-123733250D01*
X145886095Y-123742618D01*
X145915196Y-123753498D01*
X145947433Y-123766118D01*
X145971820Y-123775936D01*
X146004200Y-123789238D01*
X146037073Y-123803047D01*
X146070715Y-123817494D01*
X146105404Y-123832708D01*
X146141417Y-123848820D01*
X146179031Y-123865959D01*
X146218524Y-123884255D01*
X146260172Y-123903839D01*
X146304253Y-123924840D01*
X146351044Y-123947389D01*
X146400822Y-123971615D01*
X146453864Y-123997648D01*
X146510448Y-124025619D01*
X146570850Y-124055657D01*
X146610459Y-124075436D01*
X146666490Y-124103404D01*
X146718559Y-124129279D01*
X146766988Y-124153209D01*
X146812102Y-124175343D01*
X146854224Y-124195830D01*
X146893679Y-124214819D01*
X146930790Y-124232457D01*
X146965881Y-124248895D01*
X146999276Y-124264280D01*
X147031299Y-124278762D01*
X147062273Y-124292489D01*
X147092524Y-124305610D01*
X147122374Y-124318274D01*
X147152148Y-124330629D01*
X147182169Y-124342825D01*
X147212761Y-124355009D01*
X147244249Y-124367331D01*
X147256029Y-124371892D01*
X147272479Y-124378261D01*
X147287757Y-124384205D01*
X147301184Y-124389460D01*
X147312085Y-124393759D01*
X147319780Y-124396837D01*
X147323479Y-124398374D01*
X147330453Y-124401501D01*
X147312374Y-124423146D01*
X147283873Y-124454827D01*
X147251092Y-124486893D01*
X147214528Y-124518967D01*
X147174680Y-124550672D01*
X147132044Y-124581630D01*
X147087117Y-124611464D01*
X147040398Y-124639796D01*
X146992384Y-124666249D01*
X146991143Y-124666898D01*
X146928462Y-124697677D01*
X146861875Y-124726709D01*
X146792059Y-124753797D01*
X146719691Y-124778741D01*
X146645448Y-124801345D01*
X146570008Y-124821410D01*
X146494046Y-124838739D01*
X146418242Y-124853134D01*
X146343271Y-124864396D01*
X146296876Y-124869783D01*
X146283122Y-124870864D01*
X146265842Y-124871713D01*
X146245936Y-124872329D01*
X146224304Y-124872713D01*
X146201847Y-124872865D01*
X146179465Y-124872784D01*
X146158058Y-124872470D01*
X146138527Y-124871924D01*
X146121772Y-124871145D01*
X146108693Y-124870133D01*
X146105771Y-124869803D01*
X146057644Y-124862101D01*
X146013278Y-124851442D01*
X145972693Y-124837833D01*
X145935913Y-124821281D01*
X145902956Y-124801793D01*
X145890357Y-124792808D01*
X145862485Y-124769111D01*
X145838707Y-124742997D01*
X145818783Y-124714136D01*
X145802472Y-124682199D01*
X145794275Y-124661296D01*
X145787956Y-124641987D01*
X145783438Y-124624431D01*
X145780478Y-124607095D01*
X145778830Y-124588448D01*
X145778252Y-124566961D01*
X145778248Y-124560593D01*
X145778385Y-124521576D01*
X145762590Y-124519957D01*
X145746795Y-124518339D01*
X145729736Y-124529946D01*
X145712676Y-124541553D01*
X145711971Y-124564534D01*
X145713042Y-124596744D01*
X145717967Y-124630431D01*
X145726445Y-124664588D01*
X145738179Y-124698208D01*
X145752870Y-124730285D01*
X145769657Y-124758962D01*
X145794193Y-124791774D01*
X145822306Y-124821339D01*
X145853984Y-124847649D01*
X145889212Y-124870697D01*
X145927975Y-124890476D01*
X145970260Y-124906978D01*
X146016051Y-124920197D01*
X146065335Y-124930126D01*
X146118098Y-124936756D01*
X146124165Y-124937288D01*
X146143351Y-124938440D01*
X146166266Y-124939063D01*
X146191833Y-124939181D01*
X146218974Y-124938821D01*
X146246613Y-124938010D01*
X146273672Y-124936773D01*
X146299074Y-124935135D01*
X146321742Y-124933124D01*
X146328696Y-124932353D01*
X146405758Y-124921672D01*
X146483900Y-124907752D01*
X146562359Y-124890807D01*
X146640372Y-124871049D01*
X146717179Y-124848691D01*
X146792018Y-124823945D01*
X146864126Y-124797024D01*
X146932742Y-124768141D01*
X146957519Y-124756800D01*
X147017409Y-124727174D01*
X147074890Y-124695605D01*
X147129644Y-124662323D01*
X147181355Y-124627560D01*
X147229708Y-124591548D01*
X147274385Y-124554519D01*
X147315071Y-124516703D01*
X147351449Y-124478332D01*
X147373167Y-124452539D01*
X147383329Y-124440158D01*
X147390981Y-124431607D01*
X147396308Y-124426697D01*
X147399493Y-124425240D01*
X147399730Y-124425285D01*
X147409725Y-124427780D01*
X147423746Y-124430610D01*
X147441003Y-124433661D01*
X147460705Y-124436818D01*
X147482062Y-124439969D01*
X147504283Y-124442997D01*
X147526576Y-124445789D01*
X147548152Y-124448231D01*
X147568220Y-124450208D01*
X147577762Y-124451012D01*
X147598511Y-124452203D01*
X147621492Y-124452670D01*
X147647009Y-124452395D01*
X147675366Y-124451358D01*
X147706869Y-124449543D01*
X147741823Y-124446929D01*
X147780531Y-124443500D01*
X147823300Y-124439236D01*
X147870433Y-124434119D01*
X147884981Y-124432471D01*
X147952135Y-124424370D01*
X148023732Y-124414916D01*
X148099583Y-124404144D01*
X148179497Y-124392088D01*
X148263283Y-124378784D01*
X148350750Y-124364265D01*
X148441708Y-124348566D01*
X148535966Y-124331722D01*
X148633333Y-124313769D01*
X148733619Y-124294740D01*
X148836632Y-124274670D01*
X148942183Y-124253594D01*
X149050080Y-124231547D01*
X149160133Y-124208564D01*
X149272152Y-124184679D01*
X149385945Y-124159926D01*
X149405352Y-124155657D01*
X149426975Y-124150927D01*
X149447593Y-124146482D01*
X149466624Y-124142445D01*
X149483484Y-124138935D01*
X149497589Y-124136074D01*
X149508356Y-124133982D01*
X149515202Y-124132780D01*
X149516629Y-124132585D01*
X149535403Y-124132642D01*
X149555267Y-124136479D01*
X149574974Y-124143639D01*
X149593279Y-124153666D01*
X149608935Y-124166103D01*
X149609424Y-124166581D01*
X149616801Y-124175057D01*
X149625869Y-124187486D01*
X149636370Y-124203394D01*
X149648044Y-124222306D01*
X149660631Y-124243748D01*
X149673871Y-124267247D01*
X149687504Y-124292328D01*
X149701272Y-124318518D01*
X149714913Y-124345341D01*
X149728169Y-124372324D01*
X149740780Y-124398993D01*
X149752485Y-124424874D01*
X149758472Y-124438666D01*
X149777315Y-124485939D01*
X149792317Y-124530460D01*
X149803473Y-124572204D01*
X149810779Y-124611151D01*
X149814234Y-124647277D01*
X149813833Y-124680560D01*
X149809574Y-124710977D01*
X149801922Y-124737272D01*
X149795352Y-124751166D01*
X149786051Y-124766192D01*
X149775218Y-124780659D01*
X149764050Y-124792874D01*
X149759947Y-124796590D01*
X149749394Y-124804757D01*
X149737999Y-124811968D01*
X149725387Y-124818298D01*
X149711185Y-124823822D01*
X149695021Y-124828616D01*
X149676521Y-124832756D01*
X149655313Y-124836316D01*
X149631022Y-124839373D01*
X149603277Y-124842002D01*
X149571703Y-124844278D01*
X149535928Y-124846277D01*
X149508162Y-124847554D01*
X149494605Y-124848088D01*
X149476894Y-124848715D01*
X149455714Y-124849415D01*
X149431747Y-124850168D01*
X149405677Y-124850951D01*
X149378188Y-124851745D01*
X149349962Y-124852528D01*
X149321684Y-124853281D01*
X149307381Y-124853648D01*
X149234719Y-124855565D01*
X149166484Y-124857528D01*
X149102266Y-124859558D01*
X149041652Y-124861674D01*
X148984233Y-124863897D01*
X148929597Y-124866247D01*
X148877333Y-124868745D01*
X148827031Y-124871410D01*
X148778279Y-124874262D01*
X148730667Y-124877322D01*
X148683783Y-124880611D01*
X148637217Y-124884147D01*
X148590557Y-124887952D01*
X148565943Y-124890059D01*
X148461434Y-124899875D01*
X148360971Y-124910858D01*
X148263873Y-124923149D01*
X148169460Y-124936888D01*
X148077053Y-124952215D01*
X147985972Y-124969270D01*
X147895536Y-124988195D01*
X147805066Y-125009128D01*
X147713882Y-125032210D01*
X147621303Y-125057582D01*
X147526651Y-125085384D01*
X147429245Y-125115757D01*
X147355210Y-125139897D01*
X147316363Y-125152856D01*
X147280412Y-125165038D01*
X147246965Y-125176626D01*
X147215630Y-125187802D01*
X147186014Y-125198748D01*
X147157726Y-125209647D01*
X147130374Y-125220682D01*
X147103565Y-125232035D01*
X147076908Y-125243888D01*
X147050011Y-125256425D01*
X147022481Y-125269827D01*
X146993927Y-125284277D01*
X146963956Y-125299959D01*
X146932176Y-125317053D01*
X146898196Y-125335743D01*
X146861624Y-125356212D01*
X146822066Y-125378641D01*
X146779132Y-125403213D01*
X146734724Y-125428788D01*
X146700306Y-125448624D01*
X146669607Y-125466252D01*
X146642175Y-125481919D01*
X146617562Y-125495873D01*
X146595318Y-125508363D01*
X146574993Y-125519636D01*
X146556136Y-125529941D01*
X146538299Y-125539525D01*
X146521031Y-125548636D01*
X146503882Y-125557523D01*
X146486404Y-125566433D01*
X146471048Y-125574162D01*
X146426259Y-125596051D01*
X146384576Y-125615225D01*
X146345282Y-125631930D01*
X146307658Y-125646415D01*
X146270986Y-125658927D01*
X146234550Y-125669716D01*
X146197629Y-125679028D01*
X146159508Y-125687111D01*
X146126955Y-125692979D01*
X146086308Y-125699412D01*
X146048878Y-125704468D01*
X146013278Y-125708258D01*
X145978120Y-125710896D01*
X145942020Y-125712492D01*
X145903589Y-125713158D01*
X145877171Y-125713149D01*
X145858939Y-125713012D01*
X145841766Y-125712835D01*
X145826402Y-125712630D01*
X145813598Y-125712407D01*
X145804102Y-125712178D01*
X145798667Y-125711955D01*
X145798552Y-125711947D01*
X145736121Y-125705765D01*
X145674537Y-125696409D01*
X145614390Y-125684029D01*
X145556264Y-125668776D01*
X145500747Y-125650800D01*
X145448426Y-125630253D01*
X145408886Y-125611875D01*
X145350028Y-125579716D01*
X145292684Y-125543002D01*
X145236906Y-125501788D01*
X145182747Y-125456130D01*
X145130259Y-125406086D01*
X145079494Y-125351710D01*
X145030504Y-125293060D01*
X144983342Y-125230192D01*
X144938060Y-125163161D01*
X144894710Y-125092024D01*
X144853344Y-125016837D01*
X144850377Y-125011140D01*
X144825001Y-124959703D01*
X144801334Y-124906393D01*
X144779132Y-124850569D01*
X144758147Y-124791594D01*
X144738134Y-124728827D01*
X144726818Y-124690234D01*
X144721630Y-124672002D01*
X144553124Y-124604030D01*
X144526054Y-124593076D01*
X144500329Y-124582600D01*
X144476297Y-124572746D01*
X144454304Y-124563662D01*
X144434699Y-124555491D01*
X144417827Y-124548380D01*
X144404038Y-124542474D01*
X144393676Y-124537918D01*
X144387091Y-124534859D01*
X144384628Y-124533441D01*
X144384619Y-124533409D01*
X144386385Y-124531437D01*
X144391507Y-124526490D01*
X144399724Y-124518808D01*
X144410775Y-124508629D01*
X144424396Y-124496189D01*
X144440327Y-124481728D01*
X144458305Y-124465482D01*
X144478069Y-124447690D01*
X144499357Y-124428590D01*
X144521906Y-124408419D01*
X144539438Y-124392777D01*
X144694257Y-124254794D01*
X144704116Y-124227558D01*
X144723546Y-124179507D01*
X144746344Y-124133631D01*
X144772790Y-124089513D01*
X144803162Y-124046736D01*
X144837739Y-124004883D01*
X144876801Y-123963536D01*
X144888039Y-123952515D01*
X144934198Y-123911250D01*
X144983975Y-123873069D01*
X145037189Y-123838064D01*
X145093659Y-123806324D01*
X145153203Y-123777941D01*
X145215639Y-123753004D01*
X145280785Y-123731605D01*
X145348460Y-123713835D01*
X145380057Y-123706972D01*
X145410501Y-123701050D01*
X145437739Y-123696407D01*
X145463186Y-123692888D01*
X145488256Y-123690335D01*
X145514364Y-123688592D01*
X145542925Y-123687501D01*
X145559067Y-123687143D01*
X145591136Y-123686853D01*
X145619564Y-123687271D01*
D12*
X134250000Y-95420000D03*
X164460000Y-120650000D03*
D13*
X141800000Y-107475000D03*
X142900000Y-107475000D03*
X144000000Y-107475000D03*
X145100000Y-107475000D03*
X146200000Y-107475000D03*
X147300000Y-107475000D03*
X148400000Y-107475000D03*
X149500000Y-107475000D03*
X150450000Y-107475000D03*
D14*
X140250000Y-107475000D03*
D15*
X137900000Y-92375000D03*
D16*
X151400000Y-92825000D03*
D17*
X151400000Y-96975000D03*
D14*
X151400000Y-103175000D03*
D18*
X161190000Y-100200000D03*
X161190000Y-100600000D03*
X161190000Y-101000000D03*
X161190000Y-101400000D03*
X161190000Y-101800000D03*
X161190000Y-102200000D03*
X161190000Y-102600000D03*
X161190000Y-103000000D03*
X161190000Y-103400000D03*
X161190000Y-103800000D03*
X161190000Y-107800000D03*
X161190000Y-107400000D03*
X161190000Y-107000000D03*
X161190000Y-106600000D03*
X161190000Y-106200000D03*
X161190000Y-105800000D03*
X161190000Y-105400000D03*
X161190000Y-105000000D03*
X161190000Y-104600000D03*
X161190000Y-104200000D03*
X161190000Y-108200000D03*
X161190000Y-108600000D03*
X161190000Y-109000000D03*
X161190000Y-109400000D03*
X161190000Y-109800000D03*
X161190000Y-110200000D03*
X161190000Y-110600000D03*
X161190000Y-111000000D03*
X161190000Y-111400000D03*
X161190000Y-111800000D03*
X161190000Y-115800000D03*
X161190000Y-115400000D03*
X161190000Y-115000000D03*
X161190000Y-114600000D03*
X161190000Y-114200000D03*
X161190000Y-113800000D03*
X161190000Y-113400000D03*
X161190000Y-113000000D03*
X161190000Y-112600000D03*
X161190000Y-112200000D03*
X158110000Y-112200000D03*
X158110000Y-112600000D03*
X158110000Y-113000000D03*
X158110000Y-113400000D03*
X158110000Y-113800000D03*
X158110000Y-114200000D03*
X158110000Y-114600000D03*
X158110000Y-115000000D03*
X158110000Y-115400000D03*
X158110000Y-115800000D03*
X158110000Y-111800000D03*
X158110000Y-111400000D03*
X158110000Y-111000000D03*
X158110000Y-110600000D03*
X158110000Y-110200000D03*
X158110000Y-109800000D03*
X158110000Y-109400000D03*
X158110000Y-109000000D03*
X158110000Y-108600000D03*
X158110000Y-108200000D03*
X158110000Y-104200000D03*
X158110000Y-104600000D03*
X158110000Y-105000000D03*
X158110000Y-105400000D03*
X158110000Y-105800000D03*
X158110000Y-106200000D03*
X158110000Y-106600000D03*
X158110000Y-107000000D03*
X158110000Y-107400000D03*
X158110000Y-107800000D03*
X158110000Y-103800000D03*
X158110000Y-103400000D03*
X158110000Y-103000000D03*
X158110000Y-102600000D03*
X158110000Y-102200000D03*
X158110000Y-101800000D03*
X158110000Y-101400000D03*
X158110000Y-101000000D03*
X158110000Y-100600000D03*
X158110000Y-100200000D03*
D19*
X158461920Y-94250000D03*
X158461920Y-93599760D03*
X158461920Y-92949520D03*
X155800000Y-92949520D03*
X155800000Y-93599760D03*
X155800000Y-94250000D03*
X164300000Y-98250000D03*
X164300000Y-97599760D03*
X164300000Y-96949520D03*
X161638080Y-96949520D03*
X161638080Y-97599760D03*
X161638080Y-98250000D03*
X158611920Y-96700000D03*
X158611920Y-96049760D03*
X158611920Y-95399520D03*
X155950000Y-95399520D03*
X155950000Y-96049760D03*
X155950000Y-96700000D03*
D20*
X143800000Y-111600000D03*
X143800000Y-115600000D03*
D21*
X137300000Y-114300000D03*
X137300000Y-112400000D03*
D22*
X138000000Y-124749300D03*
X138000000Y-123250700D03*
X141000000Y-124749300D03*
X141000000Y-123250700D03*
D23*
X138000000Y-121100000D03*
X138000000Y-118900000D03*
X141000000Y-121200000D03*
X141000000Y-119000000D03*
D24*
X141400000Y-114300000D03*
X141400000Y-113350000D03*
X141400000Y-112400000D03*
X139200000Y-112400000D03*
X139200000Y-114300000D03*
D12*
X134580000Y-120750000D03*
M02*
