G04 #@! TF.FileFunction,Soldermask,Top*
%FSLAX46Y46*%
G04 Gerber Fmt 4.6, Leading zero omitted, Abs format (unit mm)*
G04 Created by KiCad (PCBNEW 4.0.1-stable) date Tuesday, May 31, 2016 'PMt' 10:55:08 PM*
%MOMM*%
G01*
G04 APERTURE LIST*
%ADD10C,0.100000*%
%ADD11C,0.010000*%
%ADD12R,0.852400X1.352400*%
%ADD13R,1.152400X1.352400*%
%ADD14R,1.452400X2.052400*%
%ADD15R,1.152400X2.952400*%
%ADD16R,1.152400X0.952400*%
%ADD17C,2.000000*%
%ADD18R,0.852400X0.352400*%
%ADD19R,1.653540X0.551180*%
%ADD20R,1.752400X2.152400*%
%ADD21R,0.902400X1.352400*%
%ADD22R,0.949960X0.949960*%
%ADD23R,1.052400X1.352400*%
%ADD24R,1.212400X0.802400*%
G04 APERTURE END LIST*
D10*
D11*
G36*
X144859564Y-123637271D02*
X144885508Y-123638488D01*
X144910124Y-123640595D01*
X144934568Y-123643681D01*
X144959999Y-123647837D01*
X144977168Y-123651069D01*
X145002517Y-123656313D01*
X145026699Y-123661924D01*
X145050431Y-123668132D01*
X145074429Y-123675164D01*
X145099412Y-123683250D01*
X145126095Y-123692618D01*
X145155196Y-123703498D01*
X145187433Y-123716118D01*
X145211820Y-123725936D01*
X145244200Y-123739238D01*
X145277073Y-123753047D01*
X145310715Y-123767494D01*
X145345404Y-123782708D01*
X145381417Y-123798820D01*
X145419031Y-123815959D01*
X145458524Y-123834255D01*
X145500172Y-123853839D01*
X145544253Y-123874840D01*
X145591044Y-123897389D01*
X145640822Y-123921615D01*
X145693864Y-123947648D01*
X145750448Y-123975619D01*
X145810850Y-124005657D01*
X145850459Y-124025436D01*
X145906490Y-124053404D01*
X145958559Y-124079279D01*
X146006988Y-124103209D01*
X146052102Y-124125343D01*
X146094224Y-124145830D01*
X146133679Y-124164819D01*
X146170790Y-124182457D01*
X146205881Y-124198895D01*
X146239276Y-124214280D01*
X146271299Y-124228762D01*
X146302273Y-124242489D01*
X146332524Y-124255610D01*
X146362374Y-124268274D01*
X146392148Y-124280629D01*
X146422169Y-124292825D01*
X146452761Y-124305009D01*
X146484249Y-124317331D01*
X146496029Y-124321892D01*
X146512479Y-124328261D01*
X146527757Y-124334205D01*
X146541184Y-124339460D01*
X146552085Y-124343759D01*
X146559780Y-124346837D01*
X146563479Y-124348374D01*
X146570453Y-124351501D01*
X146552374Y-124373146D01*
X146523873Y-124404827D01*
X146491092Y-124436893D01*
X146454528Y-124468967D01*
X146414680Y-124500672D01*
X146372044Y-124531630D01*
X146327117Y-124561464D01*
X146280398Y-124589796D01*
X146232384Y-124616249D01*
X146231143Y-124616898D01*
X146168462Y-124647677D01*
X146101875Y-124676709D01*
X146032059Y-124703797D01*
X145959691Y-124728741D01*
X145885448Y-124751345D01*
X145810008Y-124771410D01*
X145734046Y-124788739D01*
X145658242Y-124803134D01*
X145583271Y-124814396D01*
X145536876Y-124819783D01*
X145523122Y-124820864D01*
X145505842Y-124821713D01*
X145485936Y-124822329D01*
X145464304Y-124822713D01*
X145441847Y-124822865D01*
X145419465Y-124822784D01*
X145398058Y-124822470D01*
X145378527Y-124821924D01*
X145361772Y-124821145D01*
X145348693Y-124820133D01*
X145345771Y-124819803D01*
X145297644Y-124812101D01*
X145253278Y-124801442D01*
X145212693Y-124787833D01*
X145175913Y-124771281D01*
X145142956Y-124751793D01*
X145130357Y-124742808D01*
X145102485Y-124719111D01*
X145078707Y-124692997D01*
X145058783Y-124664136D01*
X145042472Y-124632199D01*
X145034275Y-124611296D01*
X145027956Y-124591987D01*
X145023438Y-124574431D01*
X145020478Y-124557095D01*
X145018830Y-124538448D01*
X145018252Y-124516961D01*
X145018248Y-124510593D01*
X145018385Y-124471576D01*
X145002590Y-124469957D01*
X144986795Y-124468339D01*
X144969736Y-124479946D01*
X144952676Y-124491553D01*
X144951971Y-124514534D01*
X144953042Y-124546744D01*
X144957967Y-124580431D01*
X144966445Y-124614588D01*
X144978179Y-124648208D01*
X144992870Y-124680285D01*
X145009657Y-124708962D01*
X145034193Y-124741774D01*
X145062306Y-124771339D01*
X145093984Y-124797649D01*
X145129212Y-124820697D01*
X145167975Y-124840476D01*
X145210260Y-124856978D01*
X145256051Y-124870197D01*
X145305335Y-124880126D01*
X145358098Y-124886756D01*
X145364165Y-124887288D01*
X145383351Y-124888440D01*
X145406266Y-124889063D01*
X145431833Y-124889181D01*
X145458974Y-124888821D01*
X145486613Y-124888010D01*
X145513672Y-124886773D01*
X145539074Y-124885135D01*
X145561742Y-124883124D01*
X145568696Y-124882353D01*
X145645758Y-124871672D01*
X145723900Y-124857752D01*
X145802359Y-124840807D01*
X145880372Y-124821049D01*
X145957179Y-124798691D01*
X146032018Y-124773945D01*
X146104126Y-124747024D01*
X146172742Y-124718141D01*
X146197519Y-124706800D01*
X146257409Y-124677174D01*
X146314890Y-124645605D01*
X146369644Y-124612323D01*
X146421355Y-124577560D01*
X146469708Y-124541548D01*
X146514385Y-124504519D01*
X146555071Y-124466703D01*
X146591449Y-124428332D01*
X146613167Y-124402539D01*
X146623329Y-124390158D01*
X146630981Y-124381607D01*
X146636308Y-124376697D01*
X146639493Y-124375240D01*
X146639730Y-124375285D01*
X146649725Y-124377780D01*
X146663746Y-124380610D01*
X146681003Y-124383661D01*
X146700705Y-124386818D01*
X146722062Y-124389969D01*
X146744283Y-124392997D01*
X146766576Y-124395789D01*
X146788152Y-124398231D01*
X146808220Y-124400208D01*
X146817762Y-124401012D01*
X146838511Y-124402203D01*
X146861492Y-124402670D01*
X146887009Y-124402395D01*
X146915366Y-124401358D01*
X146946869Y-124399543D01*
X146981823Y-124396929D01*
X147020531Y-124393500D01*
X147063300Y-124389236D01*
X147110433Y-124384119D01*
X147124981Y-124382471D01*
X147192135Y-124374370D01*
X147263732Y-124364916D01*
X147339583Y-124354144D01*
X147419497Y-124342088D01*
X147503283Y-124328784D01*
X147590750Y-124314265D01*
X147681708Y-124298566D01*
X147775966Y-124281722D01*
X147873333Y-124263769D01*
X147973619Y-124244740D01*
X148076632Y-124224670D01*
X148182183Y-124203594D01*
X148290080Y-124181547D01*
X148400133Y-124158564D01*
X148512152Y-124134679D01*
X148625945Y-124109926D01*
X148645352Y-124105657D01*
X148666975Y-124100927D01*
X148687593Y-124096482D01*
X148706624Y-124092445D01*
X148723484Y-124088935D01*
X148737589Y-124086074D01*
X148748356Y-124083982D01*
X148755202Y-124082780D01*
X148756629Y-124082585D01*
X148775403Y-124082642D01*
X148795267Y-124086479D01*
X148814974Y-124093639D01*
X148833279Y-124103666D01*
X148848935Y-124116103D01*
X148849424Y-124116581D01*
X148856801Y-124125057D01*
X148865869Y-124137486D01*
X148876370Y-124153394D01*
X148888044Y-124172306D01*
X148900631Y-124193748D01*
X148913871Y-124217247D01*
X148927504Y-124242328D01*
X148941272Y-124268518D01*
X148954913Y-124295341D01*
X148968169Y-124322324D01*
X148980780Y-124348993D01*
X148992485Y-124374874D01*
X148998472Y-124388666D01*
X149017315Y-124435939D01*
X149032317Y-124480460D01*
X149043473Y-124522204D01*
X149050779Y-124561151D01*
X149054234Y-124597277D01*
X149053833Y-124630560D01*
X149049574Y-124660977D01*
X149041922Y-124687272D01*
X149035352Y-124701166D01*
X149026051Y-124716192D01*
X149015218Y-124730659D01*
X149004050Y-124742874D01*
X148999947Y-124746590D01*
X148989394Y-124754757D01*
X148977999Y-124761968D01*
X148965387Y-124768298D01*
X148951185Y-124773822D01*
X148935021Y-124778616D01*
X148916521Y-124782756D01*
X148895313Y-124786316D01*
X148871022Y-124789373D01*
X148843277Y-124792002D01*
X148811703Y-124794278D01*
X148775928Y-124796277D01*
X148748162Y-124797554D01*
X148734605Y-124798088D01*
X148716894Y-124798715D01*
X148695714Y-124799415D01*
X148671747Y-124800168D01*
X148645677Y-124800951D01*
X148618188Y-124801745D01*
X148589962Y-124802528D01*
X148561684Y-124803281D01*
X148547381Y-124803648D01*
X148474719Y-124805565D01*
X148406484Y-124807528D01*
X148342266Y-124809558D01*
X148281652Y-124811674D01*
X148224233Y-124813897D01*
X148169597Y-124816247D01*
X148117333Y-124818745D01*
X148067031Y-124821410D01*
X148018279Y-124824262D01*
X147970667Y-124827322D01*
X147923783Y-124830611D01*
X147877217Y-124834147D01*
X147830557Y-124837952D01*
X147805943Y-124840059D01*
X147701434Y-124849875D01*
X147600971Y-124860858D01*
X147503873Y-124873149D01*
X147409460Y-124886888D01*
X147317053Y-124902215D01*
X147225972Y-124919270D01*
X147135536Y-124938195D01*
X147045066Y-124959128D01*
X146953882Y-124982210D01*
X146861303Y-125007582D01*
X146766651Y-125035384D01*
X146669245Y-125065757D01*
X146595210Y-125089897D01*
X146556363Y-125102856D01*
X146520412Y-125115038D01*
X146486965Y-125126626D01*
X146455630Y-125137802D01*
X146426014Y-125148748D01*
X146397726Y-125159647D01*
X146370374Y-125170682D01*
X146343565Y-125182035D01*
X146316908Y-125193888D01*
X146290011Y-125206425D01*
X146262481Y-125219827D01*
X146233927Y-125234277D01*
X146203956Y-125249959D01*
X146172176Y-125267053D01*
X146138196Y-125285743D01*
X146101624Y-125306212D01*
X146062066Y-125328641D01*
X146019132Y-125353213D01*
X145974724Y-125378788D01*
X145940306Y-125398624D01*
X145909607Y-125416252D01*
X145882175Y-125431919D01*
X145857562Y-125445873D01*
X145835318Y-125458363D01*
X145814993Y-125469636D01*
X145796136Y-125479941D01*
X145778299Y-125489525D01*
X145761031Y-125498636D01*
X145743882Y-125507523D01*
X145726404Y-125516433D01*
X145711048Y-125524162D01*
X145666259Y-125546051D01*
X145624576Y-125565225D01*
X145585282Y-125581930D01*
X145547658Y-125596415D01*
X145510986Y-125608927D01*
X145474550Y-125619716D01*
X145437629Y-125629028D01*
X145399508Y-125637111D01*
X145366955Y-125642979D01*
X145326308Y-125649412D01*
X145288878Y-125654468D01*
X145253278Y-125658258D01*
X145218120Y-125660896D01*
X145182020Y-125662492D01*
X145143589Y-125663158D01*
X145117171Y-125663149D01*
X145098939Y-125663012D01*
X145081766Y-125662835D01*
X145066402Y-125662630D01*
X145053598Y-125662407D01*
X145044102Y-125662178D01*
X145038667Y-125661955D01*
X145038552Y-125661947D01*
X144976121Y-125655765D01*
X144914537Y-125646409D01*
X144854390Y-125634029D01*
X144796264Y-125618776D01*
X144740747Y-125600800D01*
X144688426Y-125580253D01*
X144648886Y-125561875D01*
X144590028Y-125529716D01*
X144532684Y-125493002D01*
X144476906Y-125451788D01*
X144422747Y-125406130D01*
X144370259Y-125356086D01*
X144319494Y-125301710D01*
X144270504Y-125243060D01*
X144223342Y-125180192D01*
X144178060Y-125113161D01*
X144134710Y-125042024D01*
X144093344Y-124966837D01*
X144090377Y-124961140D01*
X144065001Y-124909703D01*
X144041334Y-124856393D01*
X144019132Y-124800569D01*
X143998147Y-124741594D01*
X143978134Y-124678827D01*
X143966818Y-124640234D01*
X143961630Y-124622002D01*
X143793124Y-124554030D01*
X143766054Y-124543076D01*
X143740329Y-124532600D01*
X143716297Y-124522746D01*
X143694304Y-124513662D01*
X143674699Y-124505491D01*
X143657827Y-124498380D01*
X143644038Y-124492474D01*
X143633676Y-124487918D01*
X143627091Y-124484859D01*
X143624628Y-124483441D01*
X143624619Y-124483409D01*
X143626385Y-124481437D01*
X143631507Y-124476490D01*
X143639724Y-124468808D01*
X143650775Y-124458629D01*
X143664396Y-124446189D01*
X143680327Y-124431728D01*
X143698305Y-124415482D01*
X143718069Y-124397690D01*
X143739357Y-124378590D01*
X143761906Y-124358419D01*
X143779438Y-124342777D01*
X143934257Y-124204794D01*
X143944116Y-124177558D01*
X143963546Y-124129507D01*
X143986344Y-124083631D01*
X144012790Y-124039513D01*
X144043162Y-123996736D01*
X144077739Y-123954883D01*
X144116801Y-123913536D01*
X144128039Y-123902515D01*
X144174198Y-123861250D01*
X144223975Y-123823069D01*
X144277189Y-123788064D01*
X144333659Y-123756324D01*
X144393203Y-123727941D01*
X144455639Y-123703004D01*
X144520785Y-123681605D01*
X144588460Y-123663835D01*
X144620057Y-123656972D01*
X144650501Y-123651050D01*
X144677739Y-123646407D01*
X144703186Y-123642888D01*
X144728256Y-123640335D01*
X144754364Y-123638592D01*
X144782925Y-123637501D01*
X144799067Y-123637143D01*
X144831136Y-123636853D01*
X144859564Y-123637271D01*
X144859564Y-123637271D01*
G37*
X144859564Y-123637271D02*
X144885508Y-123638488D01*
X144910124Y-123640595D01*
X144934568Y-123643681D01*
X144959999Y-123647837D01*
X144977168Y-123651069D01*
X145002517Y-123656313D01*
X145026699Y-123661924D01*
X145050431Y-123668132D01*
X145074429Y-123675164D01*
X145099412Y-123683250D01*
X145126095Y-123692618D01*
X145155196Y-123703498D01*
X145187433Y-123716118D01*
X145211820Y-123725936D01*
X145244200Y-123739238D01*
X145277073Y-123753047D01*
X145310715Y-123767494D01*
X145345404Y-123782708D01*
X145381417Y-123798820D01*
X145419031Y-123815959D01*
X145458524Y-123834255D01*
X145500172Y-123853839D01*
X145544253Y-123874840D01*
X145591044Y-123897389D01*
X145640822Y-123921615D01*
X145693864Y-123947648D01*
X145750448Y-123975619D01*
X145810850Y-124005657D01*
X145850459Y-124025436D01*
X145906490Y-124053404D01*
X145958559Y-124079279D01*
X146006988Y-124103209D01*
X146052102Y-124125343D01*
X146094224Y-124145830D01*
X146133679Y-124164819D01*
X146170790Y-124182457D01*
X146205881Y-124198895D01*
X146239276Y-124214280D01*
X146271299Y-124228762D01*
X146302273Y-124242489D01*
X146332524Y-124255610D01*
X146362374Y-124268274D01*
X146392148Y-124280629D01*
X146422169Y-124292825D01*
X146452761Y-124305009D01*
X146484249Y-124317331D01*
X146496029Y-124321892D01*
X146512479Y-124328261D01*
X146527757Y-124334205D01*
X146541184Y-124339460D01*
X146552085Y-124343759D01*
X146559780Y-124346837D01*
X146563479Y-124348374D01*
X146570453Y-124351501D01*
X146552374Y-124373146D01*
X146523873Y-124404827D01*
X146491092Y-124436893D01*
X146454528Y-124468967D01*
X146414680Y-124500672D01*
X146372044Y-124531630D01*
X146327117Y-124561464D01*
X146280398Y-124589796D01*
X146232384Y-124616249D01*
X146231143Y-124616898D01*
X146168462Y-124647677D01*
X146101875Y-124676709D01*
X146032059Y-124703797D01*
X145959691Y-124728741D01*
X145885448Y-124751345D01*
X145810008Y-124771410D01*
X145734046Y-124788739D01*
X145658242Y-124803134D01*
X145583271Y-124814396D01*
X145536876Y-124819783D01*
X145523122Y-124820864D01*
X145505842Y-124821713D01*
X145485936Y-124822329D01*
X145464304Y-124822713D01*
X145441847Y-124822865D01*
X145419465Y-124822784D01*
X145398058Y-124822470D01*
X145378527Y-124821924D01*
X145361772Y-124821145D01*
X145348693Y-124820133D01*
X145345771Y-124819803D01*
X145297644Y-124812101D01*
X145253278Y-124801442D01*
X145212693Y-124787833D01*
X145175913Y-124771281D01*
X145142956Y-124751793D01*
X145130357Y-124742808D01*
X145102485Y-124719111D01*
X145078707Y-124692997D01*
X145058783Y-124664136D01*
X145042472Y-124632199D01*
X145034275Y-124611296D01*
X145027956Y-124591987D01*
X145023438Y-124574431D01*
X145020478Y-124557095D01*
X145018830Y-124538448D01*
X145018252Y-124516961D01*
X145018248Y-124510593D01*
X145018385Y-124471576D01*
X145002590Y-124469957D01*
X144986795Y-124468339D01*
X144969736Y-124479946D01*
X144952676Y-124491553D01*
X144951971Y-124514534D01*
X144953042Y-124546744D01*
X144957967Y-124580431D01*
X144966445Y-124614588D01*
X144978179Y-124648208D01*
X144992870Y-124680285D01*
X145009657Y-124708962D01*
X145034193Y-124741774D01*
X145062306Y-124771339D01*
X145093984Y-124797649D01*
X145129212Y-124820697D01*
X145167975Y-124840476D01*
X145210260Y-124856978D01*
X145256051Y-124870197D01*
X145305335Y-124880126D01*
X145358098Y-124886756D01*
X145364165Y-124887288D01*
X145383351Y-124888440D01*
X145406266Y-124889063D01*
X145431833Y-124889181D01*
X145458974Y-124888821D01*
X145486613Y-124888010D01*
X145513672Y-124886773D01*
X145539074Y-124885135D01*
X145561742Y-124883124D01*
X145568696Y-124882353D01*
X145645758Y-124871672D01*
X145723900Y-124857752D01*
X145802359Y-124840807D01*
X145880372Y-124821049D01*
X145957179Y-124798691D01*
X146032018Y-124773945D01*
X146104126Y-124747024D01*
X146172742Y-124718141D01*
X146197519Y-124706800D01*
X146257409Y-124677174D01*
X146314890Y-124645605D01*
X146369644Y-124612323D01*
X146421355Y-124577560D01*
X146469708Y-124541548D01*
X146514385Y-124504519D01*
X146555071Y-124466703D01*
X146591449Y-124428332D01*
X146613167Y-124402539D01*
X146623329Y-124390158D01*
X146630981Y-124381607D01*
X146636308Y-124376697D01*
X146639493Y-124375240D01*
X146639730Y-124375285D01*
X146649725Y-124377780D01*
X146663746Y-124380610D01*
X146681003Y-124383661D01*
X146700705Y-124386818D01*
X146722062Y-124389969D01*
X146744283Y-124392997D01*
X146766576Y-124395789D01*
X146788152Y-124398231D01*
X146808220Y-124400208D01*
X146817762Y-124401012D01*
X146838511Y-124402203D01*
X146861492Y-124402670D01*
X146887009Y-124402395D01*
X146915366Y-124401358D01*
X146946869Y-124399543D01*
X146981823Y-124396929D01*
X147020531Y-124393500D01*
X147063300Y-124389236D01*
X147110433Y-124384119D01*
X147124981Y-124382471D01*
X147192135Y-124374370D01*
X147263732Y-124364916D01*
X147339583Y-124354144D01*
X147419497Y-124342088D01*
X147503283Y-124328784D01*
X147590750Y-124314265D01*
X147681708Y-124298566D01*
X147775966Y-124281722D01*
X147873333Y-124263769D01*
X147973619Y-124244740D01*
X148076632Y-124224670D01*
X148182183Y-124203594D01*
X148290080Y-124181547D01*
X148400133Y-124158564D01*
X148512152Y-124134679D01*
X148625945Y-124109926D01*
X148645352Y-124105657D01*
X148666975Y-124100927D01*
X148687593Y-124096482D01*
X148706624Y-124092445D01*
X148723484Y-124088935D01*
X148737589Y-124086074D01*
X148748356Y-124083982D01*
X148755202Y-124082780D01*
X148756629Y-124082585D01*
X148775403Y-124082642D01*
X148795267Y-124086479D01*
X148814974Y-124093639D01*
X148833279Y-124103666D01*
X148848935Y-124116103D01*
X148849424Y-124116581D01*
X148856801Y-124125057D01*
X148865869Y-124137486D01*
X148876370Y-124153394D01*
X148888044Y-124172306D01*
X148900631Y-124193748D01*
X148913871Y-124217247D01*
X148927504Y-124242328D01*
X148941272Y-124268518D01*
X148954913Y-124295341D01*
X148968169Y-124322324D01*
X148980780Y-124348993D01*
X148992485Y-124374874D01*
X148998472Y-124388666D01*
X149017315Y-124435939D01*
X149032317Y-124480460D01*
X149043473Y-124522204D01*
X149050779Y-124561151D01*
X149054234Y-124597277D01*
X149053833Y-124630560D01*
X149049574Y-124660977D01*
X149041922Y-124687272D01*
X149035352Y-124701166D01*
X149026051Y-124716192D01*
X149015218Y-124730659D01*
X149004050Y-124742874D01*
X148999947Y-124746590D01*
X148989394Y-124754757D01*
X148977999Y-124761968D01*
X148965387Y-124768298D01*
X148951185Y-124773822D01*
X148935021Y-124778616D01*
X148916521Y-124782756D01*
X148895313Y-124786316D01*
X148871022Y-124789373D01*
X148843277Y-124792002D01*
X148811703Y-124794278D01*
X148775928Y-124796277D01*
X148748162Y-124797554D01*
X148734605Y-124798088D01*
X148716894Y-124798715D01*
X148695714Y-124799415D01*
X148671747Y-124800168D01*
X148645677Y-124800951D01*
X148618188Y-124801745D01*
X148589962Y-124802528D01*
X148561684Y-124803281D01*
X148547381Y-124803648D01*
X148474719Y-124805565D01*
X148406484Y-124807528D01*
X148342266Y-124809558D01*
X148281652Y-124811674D01*
X148224233Y-124813897D01*
X148169597Y-124816247D01*
X148117333Y-124818745D01*
X148067031Y-124821410D01*
X148018279Y-124824262D01*
X147970667Y-124827322D01*
X147923783Y-124830611D01*
X147877217Y-124834147D01*
X147830557Y-124837952D01*
X147805943Y-124840059D01*
X147701434Y-124849875D01*
X147600971Y-124860858D01*
X147503873Y-124873149D01*
X147409460Y-124886888D01*
X147317053Y-124902215D01*
X147225972Y-124919270D01*
X147135536Y-124938195D01*
X147045066Y-124959128D01*
X146953882Y-124982210D01*
X146861303Y-125007582D01*
X146766651Y-125035384D01*
X146669245Y-125065757D01*
X146595210Y-125089897D01*
X146556363Y-125102856D01*
X146520412Y-125115038D01*
X146486965Y-125126626D01*
X146455630Y-125137802D01*
X146426014Y-125148748D01*
X146397726Y-125159647D01*
X146370374Y-125170682D01*
X146343565Y-125182035D01*
X146316908Y-125193888D01*
X146290011Y-125206425D01*
X146262481Y-125219827D01*
X146233927Y-125234277D01*
X146203956Y-125249959D01*
X146172176Y-125267053D01*
X146138196Y-125285743D01*
X146101624Y-125306212D01*
X146062066Y-125328641D01*
X146019132Y-125353213D01*
X145974724Y-125378788D01*
X145940306Y-125398624D01*
X145909607Y-125416252D01*
X145882175Y-125431919D01*
X145857562Y-125445873D01*
X145835318Y-125458363D01*
X145814993Y-125469636D01*
X145796136Y-125479941D01*
X145778299Y-125489525D01*
X145761031Y-125498636D01*
X145743882Y-125507523D01*
X145726404Y-125516433D01*
X145711048Y-125524162D01*
X145666259Y-125546051D01*
X145624576Y-125565225D01*
X145585282Y-125581930D01*
X145547658Y-125596415D01*
X145510986Y-125608927D01*
X145474550Y-125619716D01*
X145437629Y-125629028D01*
X145399508Y-125637111D01*
X145366955Y-125642979D01*
X145326308Y-125649412D01*
X145288878Y-125654468D01*
X145253278Y-125658258D01*
X145218120Y-125660896D01*
X145182020Y-125662492D01*
X145143589Y-125663158D01*
X145117171Y-125663149D01*
X145098939Y-125663012D01*
X145081766Y-125662835D01*
X145066402Y-125662630D01*
X145053598Y-125662407D01*
X145044102Y-125662178D01*
X145038667Y-125661955D01*
X145038552Y-125661947D01*
X144976121Y-125655765D01*
X144914537Y-125646409D01*
X144854390Y-125634029D01*
X144796264Y-125618776D01*
X144740747Y-125600800D01*
X144688426Y-125580253D01*
X144648886Y-125561875D01*
X144590028Y-125529716D01*
X144532684Y-125493002D01*
X144476906Y-125451788D01*
X144422747Y-125406130D01*
X144370259Y-125356086D01*
X144319494Y-125301710D01*
X144270504Y-125243060D01*
X144223342Y-125180192D01*
X144178060Y-125113161D01*
X144134710Y-125042024D01*
X144093344Y-124966837D01*
X144090377Y-124961140D01*
X144065001Y-124909703D01*
X144041334Y-124856393D01*
X144019132Y-124800569D01*
X143998147Y-124741594D01*
X143978134Y-124678827D01*
X143966818Y-124640234D01*
X143961630Y-124622002D01*
X143793124Y-124554030D01*
X143766054Y-124543076D01*
X143740329Y-124532600D01*
X143716297Y-124522746D01*
X143694304Y-124513662D01*
X143674699Y-124505491D01*
X143657827Y-124498380D01*
X143644038Y-124492474D01*
X143633676Y-124487918D01*
X143627091Y-124484859D01*
X143624628Y-124483441D01*
X143624619Y-124483409D01*
X143626385Y-124481437D01*
X143631507Y-124476490D01*
X143639724Y-124468808D01*
X143650775Y-124458629D01*
X143664396Y-124446189D01*
X143680327Y-124431728D01*
X143698305Y-124415482D01*
X143718069Y-124397690D01*
X143739357Y-124378590D01*
X143761906Y-124358419D01*
X143779438Y-124342777D01*
X143934257Y-124204794D01*
X143944116Y-124177558D01*
X143963546Y-124129507D01*
X143986344Y-124083631D01*
X144012790Y-124039513D01*
X144043162Y-123996736D01*
X144077739Y-123954883D01*
X144116801Y-123913536D01*
X144128039Y-123902515D01*
X144174198Y-123861250D01*
X144223975Y-123823069D01*
X144277189Y-123788064D01*
X144333659Y-123756324D01*
X144393203Y-123727941D01*
X144455639Y-123703004D01*
X144520785Y-123681605D01*
X144588460Y-123663835D01*
X144620057Y-123656972D01*
X144650501Y-123651050D01*
X144677739Y-123646407D01*
X144703186Y-123642888D01*
X144728256Y-123640335D01*
X144754364Y-123638592D01*
X144782925Y-123637501D01*
X144799067Y-123637143D01*
X144831136Y-123636853D01*
X144859564Y-123637271D01*
D12*
X141800000Y-107475000D03*
X142900000Y-107475000D03*
X144000000Y-107475000D03*
X145100000Y-107475000D03*
X146200000Y-107475000D03*
X147300000Y-107475000D03*
X148400000Y-107475000D03*
X149500000Y-107475000D03*
X150450000Y-107475000D03*
D13*
X140250000Y-107475000D03*
D14*
X137900000Y-92375000D03*
D15*
X151400000Y-92825000D03*
D16*
X151400000Y-96975000D03*
D13*
X151400000Y-103175000D03*
D17*
X134250000Y-95420000D03*
X164460000Y-120650000D03*
D18*
X161190000Y-100200000D03*
X161190000Y-100600000D03*
X161190000Y-101000000D03*
X161190000Y-101400000D03*
X161190000Y-101800000D03*
X161190000Y-102200000D03*
X161190000Y-102600000D03*
X161190000Y-103000000D03*
X161190000Y-103400000D03*
X161190000Y-103800000D03*
X161190000Y-107800000D03*
X161190000Y-107400000D03*
X161190000Y-107000000D03*
X161190000Y-106600000D03*
X161190000Y-106200000D03*
X161190000Y-105800000D03*
X161190000Y-105400000D03*
X161190000Y-105000000D03*
X161190000Y-104600000D03*
X161190000Y-104200000D03*
X161190000Y-108200000D03*
X161190000Y-108600000D03*
X161190000Y-109000000D03*
X161190000Y-109400000D03*
X161190000Y-109800000D03*
X161190000Y-110200000D03*
X161190000Y-110600000D03*
X161190000Y-111000000D03*
X161190000Y-111400000D03*
X161190000Y-111800000D03*
X161190000Y-115800000D03*
X161190000Y-115400000D03*
X161190000Y-115000000D03*
X161190000Y-114600000D03*
X161190000Y-114200000D03*
X161190000Y-113800000D03*
X161190000Y-113400000D03*
X161190000Y-113000000D03*
X161190000Y-112600000D03*
X161190000Y-112200000D03*
X158110000Y-112200000D03*
X158110000Y-112600000D03*
X158110000Y-113000000D03*
X158110000Y-113400000D03*
X158110000Y-113800000D03*
X158110000Y-114200000D03*
X158110000Y-114600000D03*
X158110000Y-115000000D03*
X158110000Y-115400000D03*
X158110000Y-115800000D03*
X158110000Y-111800000D03*
X158110000Y-111400000D03*
X158110000Y-111000000D03*
X158110000Y-110600000D03*
X158110000Y-110200000D03*
X158110000Y-109800000D03*
X158110000Y-109400000D03*
X158110000Y-109000000D03*
X158110000Y-108600000D03*
X158110000Y-108200000D03*
X158110000Y-104200000D03*
X158110000Y-104600000D03*
X158110000Y-105000000D03*
X158110000Y-105400000D03*
X158110000Y-105800000D03*
X158110000Y-106200000D03*
X158110000Y-106600000D03*
X158110000Y-107000000D03*
X158110000Y-107400000D03*
X158110000Y-107800000D03*
X158110000Y-103800000D03*
X158110000Y-103400000D03*
X158110000Y-103000000D03*
X158110000Y-102600000D03*
X158110000Y-102200000D03*
X158110000Y-101800000D03*
X158110000Y-101400000D03*
X158110000Y-101000000D03*
X158110000Y-100600000D03*
X158110000Y-100200000D03*
D19*
X158461920Y-94250000D03*
X158461920Y-93599760D03*
X158461920Y-92949520D03*
X155800000Y-92949520D03*
X155800000Y-93599760D03*
X155800000Y-94250000D03*
X164300000Y-98250000D03*
X164300000Y-97599760D03*
X164300000Y-96949520D03*
X161638080Y-96949520D03*
X161638080Y-97599760D03*
X161638080Y-98250000D03*
X158611920Y-96700000D03*
X158611920Y-96049760D03*
X158611920Y-95399520D03*
X155950000Y-95399520D03*
X155950000Y-96049760D03*
X155950000Y-96700000D03*
D20*
X143800000Y-111600000D03*
X143800000Y-115600000D03*
D21*
X137300000Y-114300000D03*
X137300000Y-112400000D03*
D22*
X138000000Y-124749300D03*
X138000000Y-123250700D03*
X141000000Y-124749300D03*
X141000000Y-123250700D03*
D23*
X138000000Y-121100000D03*
X138000000Y-118900000D03*
X141000000Y-121200000D03*
X141000000Y-119000000D03*
D24*
X141400000Y-114300000D03*
X141400000Y-113350000D03*
X141400000Y-112400000D03*
X139200000Y-112400000D03*
X139200000Y-114300000D03*
D17*
X134580000Y-120750000D03*
M02*
