G04 #@! TF.FileFunction,Legend,Top*
%FSLAX46Y46*%
G04 Gerber Fmt 4.6, Leading zero omitted, Abs format (unit mm)*
G04 Created by KiCad (PCBNEW 4.0.1-stable) date Wednesday, April 13, 2016 'AMt' 11:34:57 AM*
%MOMM*%
G01*
G04 APERTURE LIST*
%ADD10C,0.100000*%
%ADD11C,0.200000*%
%ADD12C,0.150000*%
%ADD13C,0.010000*%
G04 APERTURE END LIST*
D10*
D11*
X130994048Y-99263095D02*
X130934524Y-99144048D01*
X130934524Y-98905952D01*
X130994048Y-98786905D01*
X131053571Y-98727381D01*
X131172619Y-98667857D01*
X131529762Y-98667857D01*
X131648810Y-98727381D01*
X131708333Y-98786905D01*
X131767857Y-98905952D01*
X131767857Y-99144048D01*
X131708333Y-99263095D01*
X130934524Y-99798810D02*
X132184524Y-99798810D01*
X131410714Y-99917858D02*
X130934524Y-100275001D01*
X131767857Y-100275001D02*
X131291667Y-99798810D01*
X130934524Y-101346429D02*
X132184524Y-101346429D01*
X130994048Y-101346429D02*
X130934524Y-101227382D01*
X130934524Y-100989286D01*
X130994048Y-100870239D01*
X131053571Y-100810715D01*
X131172619Y-100751191D01*
X131529762Y-100751191D01*
X131648810Y-100810715D01*
X131708333Y-100870239D01*
X131767857Y-100989286D01*
X131767857Y-101227382D01*
X131708333Y-101346429D01*
X131053571Y-101941667D02*
X130994048Y-102001191D01*
X130934524Y-101941667D01*
X130994048Y-101882143D01*
X131053571Y-101941667D01*
X130934524Y-101941667D01*
X131767857Y-102358334D02*
X131767857Y-102834524D01*
X132184524Y-102536905D02*
X131113095Y-102536905D01*
X130994048Y-102596429D01*
X130934524Y-102715476D01*
X130934524Y-102834524D01*
X130994048Y-103727382D02*
X130934524Y-103608334D01*
X130934524Y-103370239D01*
X130994048Y-103251191D01*
X131113095Y-103191667D01*
X131589286Y-103191667D01*
X131708333Y-103251191D01*
X131767857Y-103370239D01*
X131767857Y-103608334D01*
X131708333Y-103727382D01*
X131589286Y-103786905D01*
X131470238Y-103786905D01*
X131351190Y-103191667D01*
X130994048Y-104858334D02*
X130934524Y-104739287D01*
X130934524Y-104501191D01*
X130994048Y-104382144D01*
X131053571Y-104322620D01*
X131172619Y-104263096D01*
X131529762Y-104263096D01*
X131648810Y-104322620D01*
X131708333Y-104382144D01*
X131767857Y-104501191D01*
X131767857Y-104739287D01*
X131708333Y-104858334D01*
X130934524Y-105394049D02*
X132184524Y-105394049D01*
X130934524Y-105929763D02*
X131589286Y-105929763D01*
X131708333Y-105870240D01*
X131767857Y-105751192D01*
X131767857Y-105572620D01*
X131708333Y-105453573D01*
X131648810Y-105394049D01*
X132244048Y-107417858D02*
X130636905Y-106346430D01*
X131767857Y-108370239D02*
X130934524Y-108370239D01*
X131767857Y-107834525D02*
X131113095Y-107834525D01*
X130994048Y-107894049D01*
X130934524Y-108013096D01*
X130934524Y-108191668D01*
X130994048Y-108310716D01*
X131053571Y-108370239D01*
X130994048Y-108905953D02*
X130934524Y-109084525D01*
X130934524Y-109382144D01*
X130994048Y-109501191D01*
X131053571Y-109560715D01*
X131172619Y-109620239D01*
X131291667Y-109620239D01*
X131410714Y-109560715D01*
X131470238Y-109501191D01*
X131529762Y-109382144D01*
X131589286Y-109144048D01*
X131648810Y-109025001D01*
X131708333Y-108965477D01*
X131827381Y-108905953D01*
X131946429Y-108905953D01*
X132065476Y-108965477D01*
X132125000Y-109025001D01*
X132184524Y-109144048D01*
X132184524Y-109441668D01*
X132125000Y-109620239D01*
X130934524Y-110155953D02*
X132184524Y-110155953D01*
X132184524Y-110453572D01*
X132125000Y-110632144D01*
X132005952Y-110751191D01*
X131886905Y-110810715D01*
X131648810Y-110870239D01*
X131470238Y-110870239D01*
X131232143Y-110810715D01*
X131113095Y-110751191D01*
X130994048Y-110632144D01*
X130934524Y-110453572D01*
X130934524Y-110155953D01*
X131410714Y-111405953D02*
X131410714Y-112358334D01*
X130934524Y-112953572D02*
X132184524Y-112953572D01*
X131708333Y-112953572D02*
X131767857Y-113072620D01*
X131767857Y-113310715D01*
X131708333Y-113429763D01*
X131648810Y-113489286D01*
X131529762Y-113548810D01*
X131172619Y-113548810D01*
X131053571Y-113489286D01*
X130994048Y-113429763D01*
X130934524Y-113310715D01*
X130934524Y-113072620D01*
X130994048Y-112953572D01*
X130934524Y-114084524D02*
X132184524Y-114084524D01*
X131708333Y-114084524D02*
X131767857Y-114203572D01*
X131767857Y-114441667D01*
X131708333Y-114560715D01*
X131648810Y-114620238D01*
X131529762Y-114679762D01*
X131172619Y-114679762D01*
X131053571Y-114620238D01*
X130994048Y-114560715D01*
X130934524Y-114441667D01*
X130934524Y-114203572D01*
X130994048Y-114084524D01*
X132244048Y-116108333D02*
X130636905Y-115036905D01*
X131767857Y-116405952D02*
X130934524Y-116703571D01*
X131767857Y-117001191D01*
X132184524Y-117358333D02*
X132184524Y-118132143D01*
X131708333Y-117715476D01*
X131708333Y-117894048D01*
X131648810Y-118013095D01*
X131589286Y-118072619D01*
X131470238Y-118132143D01*
X131172619Y-118132143D01*
X131053571Y-118072619D01*
X130994048Y-118013095D01*
X130934524Y-117894048D01*
X130934524Y-117536905D01*
X130994048Y-117417857D01*
X131053571Y-117358333D01*
D12*
X142904762Y-125676191D02*
X142952381Y-125533334D01*
X142952381Y-125295238D01*
X142904762Y-125200000D01*
X142857143Y-125152381D01*
X142761905Y-125104762D01*
X142666667Y-125104762D01*
X142571429Y-125152381D01*
X142523810Y-125200000D01*
X142476190Y-125295238D01*
X142428571Y-125485715D01*
X142380952Y-125580953D01*
X142333333Y-125628572D01*
X142238095Y-125676191D01*
X142142857Y-125676191D01*
X142047619Y-125628572D01*
X142000000Y-125580953D01*
X141952381Y-125485715D01*
X141952381Y-125247619D01*
X142000000Y-125104762D01*
X141952381Y-124819048D02*
X141952381Y-124247619D01*
X142952381Y-124533334D02*
X141952381Y-124533334D01*
X142666667Y-123961905D02*
X142666667Y-123485714D01*
X142952381Y-124057143D02*
X141952381Y-123723810D01*
X142952381Y-123390476D01*
X141952381Y-123200000D02*
X141952381Y-122628571D01*
X142952381Y-122914286D02*
X141952381Y-122914286D01*
X141952381Y-122295238D02*
X142761905Y-122295238D01*
X142857143Y-122247619D01*
X142904762Y-122200000D01*
X142952381Y-122104762D01*
X142952381Y-121914285D01*
X142904762Y-121819047D01*
X142857143Y-121771428D01*
X142761905Y-121723809D01*
X141952381Y-121723809D01*
X142904762Y-121295238D02*
X142952381Y-121152381D01*
X142952381Y-120914285D01*
X142904762Y-120819047D01*
X142857143Y-120771428D01*
X142761905Y-120723809D01*
X142666667Y-120723809D01*
X142571429Y-120771428D01*
X142523810Y-120819047D01*
X142476190Y-120914285D01*
X142428571Y-121104762D01*
X142380952Y-121200000D01*
X142333333Y-121247619D01*
X142238095Y-121295238D01*
X142142857Y-121295238D01*
X142047619Y-121247619D01*
X142000000Y-121200000D01*
X141952381Y-121104762D01*
X141952381Y-120866666D01*
X142000000Y-120723809D01*
X139952381Y-125333333D02*
X138952381Y-125333333D01*
X138952381Y-124952380D01*
X139000000Y-124857142D01*
X139047619Y-124809523D01*
X139142857Y-124761904D01*
X139285714Y-124761904D01*
X139380952Y-124809523D01*
X139428571Y-124857142D01*
X139476190Y-124952380D01*
X139476190Y-125333333D01*
X138952381Y-124428571D02*
X139952381Y-124190476D01*
X139238095Y-123999999D01*
X139952381Y-123809523D01*
X138952381Y-123571428D01*
X139952381Y-122619047D02*
X139476190Y-122952381D01*
X139952381Y-123190476D02*
X138952381Y-123190476D01*
X138952381Y-122809523D01*
X139000000Y-122714285D01*
X139047619Y-122666666D01*
X139142857Y-122619047D01*
X139285714Y-122619047D01*
X139380952Y-122666666D01*
X139428571Y-122714285D01*
X139476190Y-122809523D01*
X139476190Y-123190476D01*
X157119048Y-117752381D02*
X157738096Y-117752381D01*
X157404762Y-118133333D01*
X157547620Y-118133333D01*
X157642858Y-118180952D01*
X157690477Y-118228571D01*
X157738096Y-118323810D01*
X157738096Y-118561905D01*
X157690477Y-118657143D01*
X157642858Y-118704762D01*
X157547620Y-118752381D01*
X157261905Y-118752381D01*
X157166667Y-118704762D01*
X157119048Y-118657143D01*
X158166667Y-118657143D02*
X158214286Y-118704762D01*
X158166667Y-118752381D01*
X158119048Y-118704762D01*
X158166667Y-118657143D01*
X158166667Y-118752381D01*
X159119048Y-117752381D02*
X158642857Y-117752381D01*
X158595238Y-118228571D01*
X158642857Y-118180952D01*
X158738095Y-118133333D01*
X158976191Y-118133333D01*
X159071429Y-118180952D01*
X159119048Y-118228571D01*
X159166667Y-118323810D01*
X159166667Y-118561905D01*
X159119048Y-118657143D01*
X159071429Y-118704762D01*
X158976191Y-118752381D01*
X158738095Y-118752381D01*
X158642857Y-118704762D01*
X158595238Y-118657143D01*
X159595238Y-118752381D02*
X159595238Y-118085714D01*
X159595238Y-118180952D02*
X159642857Y-118133333D01*
X159738095Y-118085714D01*
X159880953Y-118085714D01*
X159976191Y-118133333D01*
X160023810Y-118228571D01*
X160023810Y-118752381D01*
X160023810Y-118228571D02*
X160071429Y-118133333D01*
X160166667Y-118085714D01*
X160309524Y-118085714D01*
X160404762Y-118133333D01*
X160452381Y-118228571D01*
X160452381Y-118752381D01*
X160928571Y-118752381D02*
X160928571Y-118085714D01*
X160928571Y-118180952D02*
X160976190Y-118133333D01*
X161071428Y-118085714D01*
X161214286Y-118085714D01*
X161309524Y-118133333D01*
X161357143Y-118228571D01*
X161357143Y-118752381D01*
X161357143Y-118228571D02*
X161404762Y-118133333D01*
X161500000Y-118085714D01*
X161642857Y-118085714D01*
X161738095Y-118133333D01*
X161785714Y-118228571D01*
X161785714Y-118752381D01*
X159109620Y-94920560D02*
X159678580Y-94920560D01*
X159678580Y-94920560D02*
X159678580Y-94509080D01*
X164947700Y-98920560D02*
X165516660Y-98920560D01*
X165516660Y-98920560D02*
X165516660Y-98509080D01*
X159259620Y-97370560D02*
X159828580Y-97370560D01*
X159828580Y-97370560D02*
X159828580Y-96959080D01*
X144825000Y-114600000D02*
X144825000Y-112600000D01*
X142775000Y-112600000D02*
X142775000Y-114600000D01*
X136700000Y-113700000D02*
X136700000Y-113000000D01*
X137900000Y-113000000D02*
X137900000Y-113700000D01*
X137450000Y-122900000D02*
X137450000Y-124800000D01*
X138550000Y-122900000D02*
X138550000Y-124800000D01*
X138000000Y-123800000D02*
X138000000Y-124250000D01*
X138250000Y-123750000D02*
X137750000Y-123750000D01*
X138000000Y-123750000D02*
X138250000Y-124000000D01*
X138250000Y-124000000D02*
X137750000Y-124000000D01*
X137750000Y-124000000D02*
X138000000Y-123750000D01*
X140450000Y-122900000D02*
X140450000Y-124800000D01*
X141550000Y-122900000D02*
X141550000Y-124800000D01*
X141000000Y-123800000D02*
X141000000Y-124250000D01*
X141250000Y-123750000D02*
X140750000Y-123750000D01*
X141000000Y-123750000D02*
X141250000Y-124000000D01*
X141250000Y-124000000D02*
X140750000Y-124000000D01*
X140750000Y-124000000D02*
X141000000Y-123750000D01*
X138675000Y-119500000D02*
X138675000Y-120500000D01*
X137325000Y-120500000D02*
X137325000Y-119500000D01*
X141675000Y-119600000D02*
X141675000Y-120600000D01*
X140325000Y-120600000D02*
X140325000Y-119600000D01*
X140700000Y-115050000D02*
G75*
G03X140700000Y-115050000I-100000J0D01*
G01*
X140050000Y-114800000D02*
X140550000Y-114800000D01*
X140050000Y-111900000D02*
X140050000Y-114800000D01*
X140550000Y-111900000D02*
X140050000Y-111900000D01*
X140550000Y-114800000D02*
X140550000Y-111900000D01*
D13*
G36*
X141954710Y-94519742D02*
X141988065Y-94520711D01*
X142011653Y-94522228D01*
X142091789Y-94531955D01*
X142173758Y-94547253D01*
X142255701Y-94567681D01*
X142335758Y-94592796D01*
X142383541Y-94610493D01*
X142426347Y-94627482D01*
X142468596Y-94644539D01*
X142510667Y-94661839D01*
X142552939Y-94679558D01*
X142595789Y-94697874D01*
X142639595Y-94716961D01*
X142684736Y-94736995D01*
X142731589Y-94758154D01*
X142780533Y-94780612D01*
X142831945Y-94804546D01*
X142886204Y-94830132D01*
X142943687Y-94857546D01*
X143004774Y-94886964D01*
X143069841Y-94918562D01*
X143139268Y-94952517D01*
X143213431Y-94989003D01*
X143292710Y-95028198D01*
X143377481Y-95070277D01*
X143468124Y-95115417D01*
X143472153Y-95117426D01*
X143551946Y-95157125D01*
X143626001Y-95193758D01*
X143694816Y-95227553D01*
X143758891Y-95258740D01*
X143818725Y-95287551D01*
X143874817Y-95314213D01*
X143927666Y-95338957D01*
X143977772Y-95362014D01*
X144025634Y-95383612D01*
X144071750Y-95403982D01*
X144116621Y-95423354D01*
X144160745Y-95441956D01*
X144204621Y-95460021D01*
X144248749Y-95477776D01*
X144290598Y-95494269D01*
X144314243Y-95503530D01*
X144335881Y-95512058D01*
X144354594Y-95519487D01*
X144369464Y-95525450D01*
X144379573Y-95529583D01*
X144383972Y-95531501D01*
X144384988Y-95533865D01*
X144382632Y-95538645D01*
X144376411Y-95546483D01*
X144365837Y-95558023D01*
X144355750Y-95568474D01*
X144298555Y-95622600D01*
X144234755Y-95674757D01*
X144164551Y-95724846D01*
X144088140Y-95772769D01*
X144005723Y-95818425D01*
X143917498Y-95861717D01*
X143823665Y-95902546D01*
X143724422Y-95940812D01*
X143619969Y-95976417D01*
X143510504Y-96009262D01*
X143419236Y-96033540D01*
X143311653Y-96059136D01*
X143209570Y-96080398D01*
X143112918Y-96097325D01*
X143021629Y-96109916D01*
X142935636Y-96118170D01*
X142854870Y-96122088D01*
X142779264Y-96121668D01*
X142708748Y-96116910D01*
X142643256Y-96107814D01*
X142582719Y-96094378D01*
X142527069Y-96076602D01*
X142476237Y-96054486D01*
X142430157Y-96028029D01*
X142425283Y-96024792D01*
X142406567Y-96010712D01*
X142385977Y-95992815D01*
X142365462Y-95972989D01*
X142346975Y-95953121D01*
X142332467Y-95935098D01*
X142332249Y-95934796D01*
X142310643Y-95899690D01*
X142292364Y-95859925D01*
X142278068Y-95817369D01*
X142268407Y-95773891D01*
X142264563Y-95741322D01*
X142262125Y-95706075D01*
X142196861Y-95700151D01*
X142175600Y-95698247D01*
X142156304Y-95696565D01*
X142140259Y-95695215D01*
X142128751Y-95694305D01*
X142123228Y-95693947D01*
X142117499Y-95693127D01*
X142117862Y-95690173D01*
X142119700Y-95687780D01*
X142122206Y-95684046D01*
X142120247Y-95683062D01*
X142112652Y-95684302D01*
X142112195Y-95684395D01*
X142083402Y-95690018D01*
X142049443Y-95696305D01*
X142012141Y-95702942D01*
X141973316Y-95709618D01*
X141934791Y-95716019D01*
X141898388Y-95721832D01*
X141865929Y-95726745D01*
X141863486Y-95727100D01*
X141782912Y-95737996D01*
X141708021Y-95746419D01*
X141637880Y-95752343D01*
X141571555Y-95755744D01*
X141508112Y-95756596D01*
X141446617Y-95754874D01*
X141386137Y-95750552D01*
X141325738Y-95743606D01*
X141264486Y-95734011D01*
X141201447Y-95721741D01*
X141139022Y-95707576D01*
X141118781Y-95702551D01*
X141096071Y-95696658D01*
X141071883Y-95690181D01*
X141047209Y-95683404D01*
X141023040Y-95676608D01*
X141000368Y-95670079D01*
X140980185Y-95664099D01*
X140963483Y-95658952D01*
X140951254Y-95654921D01*
X140944488Y-95652289D01*
X140943566Y-95651724D01*
X140942791Y-95647976D01*
X140941361Y-95638155D01*
X140939385Y-95623201D01*
X140936971Y-95604055D01*
X140934230Y-95581658D01*
X140931271Y-95556950D01*
X140928203Y-95530871D01*
X140925135Y-95504363D01*
X140922177Y-95478366D01*
X140919438Y-95453821D01*
X140917027Y-95431668D01*
X140915053Y-95412848D01*
X140913626Y-95398301D01*
X140912856Y-95388969D01*
X140912750Y-95386513D01*
X140915981Y-95384892D01*
X140924738Y-95382314D01*
X140937621Y-95379158D01*
X140950674Y-95376320D01*
X141062843Y-95352094D01*
X141170877Y-95326570D01*
X141274350Y-95299870D01*
X141372836Y-95272119D01*
X141465907Y-95243443D01*
X141553136Y-95213966D01*
X141634097Y-95183812D01*
X141694873Y-95158941D01*
X141791354Y-95114433D01*
X141882826Y-95065507D01*
X141970180Y-95011614D01*
X142054308Y-94952202D01*
X142136008Y-94886801D01*
X142152297Y-94872731D01*
X142169777Y-94857209D01*
X142187670Y-94840973D01*
X142205197Y-94824760D01*
X142221580Y-94809307D01*
X142236041Y-94795349D01*
X142247800Y-94783625D01*
X142256080Y-94774870D01*
X142260101Y-94769822D01*
X142260361Y-94769115D01*
X142257110Y-94766617D01*
X142248072Y-94762803D01*
X142234325Y-94758001D01*
X142216944Y-94752535D01*
X142197005Y-94746732D01*
X142175586Y-94740917D01*
X142153761Y-94735417D01*
X142134184Y-94730901D01*
X142064960Y-94717922D01*
X141998054Y-94709990D01*
X141931839Y-94707067D01*
X141864685Y-94709115D01*
X141794963Y-94716096D01*
X141754493Y-94722096D01*
X141658180Y-94740856D01*
X141566411Y-94764807D01*
X141479248Y-94793917D01*
X141396756Y-94828158D01*
X141318996Y-94867499D01*
X141246032Y-94911909D01*
X141177926Y-94961359D01*
X141114742Y-95015818D01*
X141089139Y-95040731D01*
X141038494Y-95096095D01*
X140994450Y-95153280D01*
X140957101Y-95212148D01*
X140926539Y-95272560D01*
X140912795Y-95306028D01*
X140901307Y-95336432D01*
X140755263Y-95474996D01*
X140728489Y-95500468D01*
X140703372Y-95524499D01*
X140680360Y-95546652D01*
X140659900Y-95566490D01*
X140642438Y-95583575D01*
X140628421Y-95597472D01*
X140618298Y-95607742D01*
X140612514Y-95613950D01*
X140611302Y-95615690D01*
X140614842Y-95617513D01*
X140624198Y-95621927D01*
X140638740Y-95628645D01*
X140657842Y-95637381D01*
X140680876Y-95647849D01*
X140707212Y-95659763D01*
X140736225Y-95672837D01*
X140767286Y-95686784D01*
X140770834Y-95688375D01*
X140928283Y-95758931D01*
X140948397Y-95829486D01*
X140962426Y-95877561D01*
X140976124Y-95921940D01*
X140990476Y-95965693D01*
X141006469Y-96011894D01*
X141011638Y-96026422D01*
X141018304Y-96044496D01*
X141023501Y-96056977D01*
X141027837Y-96065013D01*
X141031920Y-96069755D01*
X141035801Y-96072121D01*
X141042334Y-96073374D01*
X141054938Y-96074399D01*
X141072632Y-96075198D01*
X141094436Y-96075771D01*
X141119368Y-96076120D01*
X141146448Y-96076246D01*
X141174694Y-96076150D01*
X141203127Y-96075833D01*
X141230765Y-96075297D01*
X141256627Y-96074542D01*
X141279733Y-96073570D01*
X141299101Y-96072382D01*
X141306098Y-96071800D01*
X141348615Y-96067639D01*
X141392437Y-96062920D01*
X141436678Y-96057767D01*
X141480449Y-96052304D01*
X141522864Y-96046654D01*
X141563037Y-96040940D01*
X141600079Y-96035287D01*
X141633105Y-96029818D01*
X141661228Y-96024657D01*
X141683560Y-96019927D01*
X141690625Y-96018196D01*
X141747051Y-96000188D01*
X141803259Y-95975555D01*
X141858619Y-95944716D01*
X141912503Y-95908088D01*
X141964283Y-95866091D01*
X142013331Y-95819142D01*
X142049231Y-95779419D01*
X142060382Y-95766365D01*
X142067812Y-95758129D01*
X142072317Y-95754108D01*
X142074696Y-95753703D01*
X142075744Y-95756312D01*
X142076076Y-95759177D01*
X142084928Y-95821029D01*
X142100125Y-95881195D01*
X142121367Y-95939025D01*
X142148355Y-95993868D01*
X142180792Y-96045075D01*
X142218378Y-96091994D01*
X142238870Y-96113506D01*
X142286020Y-96155375D01*
X142337880Y-96192239D01*
X142394477Y-96224103D01*
X142455836Y-96250972D01*
X142521984Y-96272847D01*
X142592947Y-96289735D01*
X142668750Y-96301639D01*
X142749419Y-96308562D01*
X142834981Y-96310510D01*
X142925460Y-96307486D01*
X143020884Y-96299493D01*
X143121277Y-96286537D01*
X143226666Y-96268621D01*
X143228736Y-96268229D01*
X143362040Y-96240715D01*
X143490610Y-96209678D01*
X143614222Y-96175198D01*
X143732650Y-96137354D01*
X143845672Y-96096225D01*
X143953063Y-96051891D01*
X144054597Y-96004429D01*
X144150052Y-95953920D01*
X144196556Y-95926871D01*
X144268432Y-95881622D01*
X144333929Y-95835957D01*
X144393722Y-95789299D01*
X144448486Y-95741071D01*
X144498895Y-95690694D01*
X144545624Y-95637593D01*
X144569292Y-95607935D01*
X144576348Y-95598793D01*
X144609885Y-95605455D01*
X144714889Y-95622936D01*
X144819330Y-95633496D01*
X144923815Y-95637171D01*
X145028949Y-95633997D01*
X145054361Y-95632219D01*
X145143685Y-95624517D01*
X145239546Y-95614773D01*
X145341740Y-95603024D01*
X145450062Y-95589304D01*
X145564307Y-95573649D01*
X145684270Y-95556094D01*
X145809745Y-95536676D01*
X145940528Y-95515428D01*
X146076414Y-95492388D01*
X146217197Y-95467589D01*
X146362673Y-95441068D01*
X146512636Y-95412860D01*
X146666882Y-95383000D01*
X146825205Y-95351525D01*
X146987401Y-95318468D01*
X147153264Y-95283866D01*
X147322589Y-95247754D01*
X147487083Y-95211946D01*
X147522540Y-95204219D01*
X147556328Y-95196982D01*
X147587744Y-95190378D01*
X147616082Y-95184550D01*
X147640639Y-95179638D01*
X147660711Y-95175785D01*
X147675595Y-95173134D01*
X147684586Y-95171825D01*
X147686402Y-95171710D01*
X147710853Y-95175325D01*
X147733020Y-95185489D01*
X147752465Y-95201940D01*
X147765298Y-95218714D01*
X147781220Y-95244601D01*
X147799408Y-95275862D01*
X147819273Y-95311421D01*
X147840229Y-95350199D01*
X147861687Y-95391119D01*
X147883058Y-95433103D01*
X147890724Y-95448486D01*
X147920533Y-95510291D01*
X147946152Y-95567008D01*
X147967736Y-95619113D01*
X147985437Y-95667077D01*
X147999410Y-95711376D01*
X148009807Y-95752481D01*
X148016783Y-95790868D01*
X148020490Y-95827009D01*
X148021223Y-95851017D01*
X148019855Y-95885658D01*
X148015603Y-95914824D01*
X148008245Y-95939574D01*
X147998407Y-95959576D01*
X147985372Y-95978408D01*
X147971151Y-95992507D01*
X147953422Y-96004103D01*
X147950516Y-96005661D01*
X147940170Y-96010668D01*
X147928802Y-96015256D01*
X147916049Y-96019454D01*
X147901542Y-96023295D01*
X147884918Y-96026806D01*
X147865811Y-96030019D01*
X147843854Y-96032964D01*
X147818682Y-96035671D01*
X147789929Y-96038170D01*
X147757230Y-96040491D01*
X147720219Y-96042664D01*
X147678530Y-96044720D01*
X147631798Y-96046689D01*
X147579657Y-96048601D01*
X147521742Y-96050486D01*
X147457685Y-96052374D01*
X147387123Y-96054296D01*
X147349181Y-96055282D01*
X147229555Y-96058512D01*
X147116447Y-96061915D01*
X147009322Y-96065525D01*
X146907645Y-96069372D01*
X146810878Y-96073490D01*
X146718487Y-96077910D01*
X146629937Y-96082664D01*
X146544690Y-96087786D01*
X146462212Y-96093306D01*
X146381967Y-96099258D01*
X146303420Y-96105673D01*
X146226033Y-96112583D01*
X146149273Y-96120022D01*
X146072603Y-96128020D01*
X145995487Y-96136611D01*
X145994514Y-96136723D01*
X145856765Y-96153667D01*
X145723516Y-96172414D01*
X145593549Y-96193216D01*
X145465649Y-96216325D01*
X145338599Y-96241993D01*
X145211181Y-96270474D01*
X145082181Y-96302018D01*
X144950381Y-96336880D01*
X144814564Y-96375310D01*
X144744101Y-96396143D01*
X144716987Y-96404416D01*
X144685101Y-96414394D01*
X144649282Y-96425799D01*
X144610367Y-96438350D01*
X144569195Y-96451768D01*
X144526606Y-96465772D01*
X144483438Y-96480082D01*
X144440530Y-96494419D01*
X144398720Y-96508503D01*
X144358847Y-96522054D01*
X144321751Y-96534791D01*
X144288268Y-96546436D01*
X144259239Y-96556707D01*
X144235502Y-96565326D01*
X144222325Y-96570287D01*
X144175900Y-96588714D01*
X144129052Y-96608455D01*
X144081172Y-96629814D01*
X144031650Y-96653099D01*
X143979877Y-96678614D01*
X143925244Y-96706665D01*
X143867142Y-96737558D01*
X143804962Y-96771598D01*
X143738093Y-96809091D01*
X143678528Y-96843090D01*
X143646877Y-96861282D01*
X143611373Y-96881686D01*
X143573969Y-96903181D01*
X143536618Y-96924643D01*
X143501271Y-96944953D01*
X143469882Y-96962987D01*
X143466861Y-96964722D01*
X143392151Y-97007228D01*
X143322611Y-97045860D01*
X143257666Y-97080832D01*
X143196738Y-97112361D01*
X143139249Y-97140662D01*
X143084623Y-97165950D01*
X143032282Y-97188442D01*
X142981649Y-97208353D01*
X142932146Y-97225898D01*
X142883197Y-97241294D01*
X142834224Y-97254755D01*
X142784649Y-97266498D01*
X142733896Y-97276738D01*
X142681387Y-97285691D01*
X142626545Y-97293573D01*
X142568792Y-97300598D01*
X142567278Y-97300768D01*
X142548693Y-97302405D01*
X142524406Y-97303872D01*
X142495621Y-97305152D01*
X142463537Y-97306227D01*
X142429357Y-97307078D01*
X142394282Y-97307688D01*
X142359513Y-97308037D01*
X142326253Y-97308108D01*
X142295702Y-97307882D01*
X142269062Y-97307342D01*
X142247534Y-97306469D01*
X142237431Y-97305766D01*
X142141437Y-97294796D01*
X142048591Y-97278944D01*
X141959357Y-97258340D01*
X141874199Y-97233112D01*
X141793580Y-97203390D01*
X141717963Y-97169303D01*
X141683570Y-97151423D01*
X141599499Y-97101747D01*
X141518006Y-97045614D01*
X141439071Y-96983003D01*
X141362676Y-96913893D01*
X141288800Y-96838264D01*
X141217424Y-96756095D01*
X141148528Y-96667366D01*
X141082092Y-96572057D01*
X141018098Y-96470145D01*
X140994143Y-96429208D01*
X140944336Y-96337801D01*
X140899157Y-96244995D01*
X140858144Y-96149669D01*
X140820834Y-96050702D01*
X140786764Y-95946973D01*
X140766318Y-95877111D01*
X140748063Y-95811847D01*
X140623150Y-95761265D01*
X140590801Y-95748164D01*
X140556720Y-95734360D01*
X140522371Y-95720446D01*
X140489218Y-95707013D01*
X140458725Y-95694657D01*
X140432356Y-95683970D01*
X140418125Y-95678200D01*
X140338013Y-95645719D01*
X140712699Y-95310903D01*
X140727975Y-95265042D01*
X140747971Y-95212558D01*
X140773359Y-95158304D01*
X140803290Y-95103803D01*
X140836916Y-95050580D01*
X140873391Y-95000159D01*
X140880077Y-94991644D01*
X140895188Y-94973691D01*
X140914455Y-94952394D01*
X140936654Y-94928976D01*
X140960561Y-94904659D01*
X140984953Y-94880663D01*
X141008606Y-94858213D01*
X141030297Y-94838529D01*
X141048802Y-94822834D01*
X141050334Y-94821608D01*
X141126271Y-94765687D01*
X141206675Y-94715202D01*
X141291488Y-94670177D01*
X141380648Y-94630636D01*
X141474097Y-94596603D01*
X141571776Y-94568101D01*
X141673624Y-94545155D01*
X141779582Y-94527789D01*
X141780584Y-94527654D01*
X141809559Y-94524531D01*
X141843508Y-94522131D01*
X141880383Y-94520500D01*
X141918133Y-94519688D01*
X141954710Y-94519742D01*
X141954710Y-94519742D01*
G37*
X141954710Y-94519742D02*
X141988065Y-94520711D01*
X142011653Y-94522228D01*
X142091789Y-94531955D01*
X142173758Y-94547253D01*
X142255701Y-94567681D01*
X142335758Y-94592796D01*
X142383541Y-94610493D01*
X142426347Y-94627482D01*
X142468596Y-94644539D01*
X142510667Y-94661839D01*
X142552939Y-94679558D01*
X142595789Y-94697874D01*
X142639595Y-94716961D01*
X142684736Y-94736995D01*
X142731589Y-94758154D01*
X142780533Y-94780612D01*
X142831945Y-94804546D01*
X142886204Y-94830132D01*
X142943687Y-94857546D01*
X143004774Y-94886964D01*
X143069841Y-94918562D01*
X143139268Y-94952517D01*
X143213431Y-94989003D01*
X143292710Y-95028198D01*
X143377481Y-95070277D01*
X143468124Y-95115417D01*
X143472153Y-95117426D01*
X143551946Y-95157125D01*
X143626001Y-95193758D01*
X143694816Y-95227553D01*
X143758891Y-95258740D01*
X143818725Y-95287551D01*
X143874817Y-95314213D01*
X143927666Y-95338957D01*
X143977772Y-95362014D01*
X144025634Y-95383612D01*
X144071750Y-95403982D01*
X144116621Y-95423354D01*
X144160745Y-95441956D01*
X144204621Y-95460021D01*
X144248749Y-95477776D01*
X144290598Y-95494269D01*
X144314243Y-95503530D01*
X144335881Y-95512058D01*
X144354594Y-95519487D01*
X144369464Y-95525450D01*
X144379573Y-95529583D01*
X144383972Y-95531501D01*
X144384988Y-95533865D01*
X144382632Y-95538645D01*
X144376411Y-95546483D01*
X144365837Y-95558023D01*
X144355750Y-95568474D01*
X144298555Y-95622600D01*
X144234755Y-95674757D01*
X144164551Y-95724846D01*
X144088140Y-95772769D01*
X144005723Y-95818425D01*
X143917498Y-95861717D01*
X143823665Y-95902546D01*
X143724422Y-95940812D01*
X143619969Y-95976417D01*
X143510504Y-96009262D01*
X143419236Y-96033540D01*
X143311653Y-96059136D01*
X143209570Y-96080398D01*
X143112918Y-96097325D01*
X143021629Y-96109916D01*
X142935636Y-96118170D01*
X142854870Y-96122088D01*
X142779264Y-96121668D01*
X142708748Y-96116910D01*
X142643256Y-96107814D01*
X142582719Y-96094378D01*
X142527069Y-96076602D01*
X142476237Y-96054486D01*
X142430157Y-96028029D01*
X142425283Y-96024792D01*
X142406567Y-96010712D01*
X142385977Y-95992815D01*
X142365462Y-95972989D01*
X142346975Y-95953121D01*
X142332467Y-95935098D01*
X142332249Y-95934796D01*
X142310643Y-95899690D01*
X142292364Y-95859925D01*
X142278068Y-95817369D01*
X142268407Y-95773891D01*
X142264563Y-95741322D01*
X142262125Y-95706075D01*
X142196861Y-95700151D01*
X142175600Y-95698247D01*
X142156304Y-95696565D01*
X142140259Y-95695215D01*
X142128751Y-95694305D01*
X142123228Y-95693947D01*
X142117499Y-95693127D01*
X142117862Y-95690173D01*
X142119700Y-95687780D01*
X142122206Y-95684046D01*
X142120247Y-95683062D01*
X142112652Y-95684302D01*
X142112195Y-95684395D01*
X142083402Y-95690018D01*
X142049443Y-95696305D01*
X142012141Y-95702942D01*
X141973316Y-95709618D01*
X141934791Y-95716019D01*
X141898388Y-95721832D01*
X141865929Y-95726745D01*
X141863486Y-95727100D01*
X141782912Y-95737996D01*
X141708021Y-95746419D01*
X141637880Y-95752343D01*
X141571555Y-95755744D01*
X141508112Y-95756596D01*
X141446617Y-95754874D01*
X141386137Y-95750552D01*
X141325738Y-95743606D01*
X141264486Y-95734011D01*
X141201447Y-95721741D01*
X141139022Y-95707576D01*
X141118781Y-95702551D01*
X141096071Y-95696658D01*
X141071883Y-95690181D01*
X141047209Y-95683404D01*
X141023040Y-95676608D01*
X141000368Y-95670079D01*
X140980185Y-95664099D01*
X140963483Y-95658952D01*
X140951254Y-95654921D01*
X140944488Y-95652289D01*
X140943566Y-95651724D01*
X140942791Y-95647976D01*
X140941361Y-95638155D01*
X140939385Y-95623201D01*
X140936971Y-95604055D01*
X140934230Y-95581658D01*
X140931271Y-95556950D01*
X140928203Y-95530871D01*
X140925135Y-95504363D01*
X140922177Y-95478366D01*
X140919438Y-95453821D01*
X140917027Y-95431668D01*
X140915053Y-95412848D01*
X140913626Y-95398301D01*
X140912856Y-95388969D01*
X140912750Y-95386513D01*
X140915981Y-95384892D01*
X140924738Y-95382314D01*
X140937621Y-95379158D01*
X140950674Y-95376320D01*
X141062843Y-95352094D01*
X141170877Y-95326570D01*
X141274350Y-95299870D01*
X141372836Y-95272119D01*
X141465907Y-95243443D01*
X141553136Y-95213966D01*
X141634097Y-95183812D01*
X141694873Y-95158941D01*
X141791354Y-95114433D01*
X141882826Y-95065507D01*
X141970180Y-95011614D01*
X142054308Y-94952202D01*
X142136008Y-94886801D01*
X142152297Y-94872731D01*
X142169777Y-94857209D01*
X142187670Y-94840973D01*
X142205197Y-94824760D01*
X142221580Y-94809307D01*
X142236041Y-94795349D01*
X142247800Y-94783625D01*
X142256080Y-94774870D01*
X142260101Y-94769822D01*
X142260361Y-94769115D01*
X142257110Y-94766617D01*
X142248072Y-94762803D01*
X142234325Y-94758001D01*
X142216944Y-94752535D01*
X142197005Y-94746732D01*
X142175586Y-94740917D01*
X142153761Y-94735417D01*
X142134184Y-94730901D01*
X142064960Y-94717922D01*
X141998054Y-94709990D01*
X141931839Y-94707067D01*
X141864685Y-94709115D01*
X141794963Y-94716096D01*
X141754493Y-94722096D01*
X141658180Y-94740856D01*
X141566411Y-94764807D01*
X141479248Y-94793917D01*
X141396756Y-94828158D01*
X141318996Y-94867499D01*
X141246032Y-94911909D01*
X141177926Y-94961359D01*
X141114742Y-95015818D01*
X141089139Y-95040731D01*
X141038494Y-95096095D01*
X140994450Y-95153280D01*
X140957101Y-95212148D01*
X140926539Y-95272560D01*
X140912795Y-95306028D01*
X140901307Y-95336432D01*
X140755263Y-95474996D01*
X140728489Y-95500468D01*
X140703372Y-95524499D01*
X140680360Y-95546652D01*
X140659900Y-95566490D01*
X140642438Y-95583575D01*
X140628421Y-95597472D01*
X140618298Y-95607742D01*
X140612514Y-95613950D01*
X140611302Y-95615690D01*
X140614842Y-95617513D01*
X140624198Y-95621927D01*
X140638740Y-95628645D01*
X140657842Y-95637381D01*
X140680876Y-95647849D01*
X140707212Y-95659763D01*
X140736225Y-95672837D01*
X140767286Y-95686784D01*
X140770834Y-95688375D01*
X140928283Y-95758931D01*
X140948397Y-95829486D01*
X140962426Y-95877561D01*
X140976124Y-95921940D01*
X140990476Y-95965693D01*
X141006469Y-96011894D01*
X141011638Y-96026422D01*
X141018304Y-96044496D01*
X141023501Y-96056977D01*
X141027837Y-96065013D01*
X141031920Y-96069755D01*
X141035801Y-96072121D01*
X141042334Y-96073374D01*
X141054938Y-96074399D01*
X141072632Y-96075198D01*
X141094436Y-96075771D01*
X141119368Y-96076120D01*
X141146448Y-96076246D01*
X141174694Y-96076150D01*
X141203127Y-96075833D01*
X141230765Y-96075297D01*
X141256627Y-96074542D01*
X141279733Y-96073570D01*
X141299101Y-96072382D01*
X141306098Y-96071800D01*
X141348615Y-96067639D01*
X141392437Y-96062920D01*
X141436678Y-96057767D01*
X141480449Y-96052304D01*
X141522864Y-96046654D01*
X141563037Y-96040940D01*
X141600079Y-96035287D01*
X141633105Y-96029818D01*
X141661228Y-96024657D01*
X141683560Y-96019927D01*
X141690625Y-96018196D01*
X141747051Y-96000188D01*
X141803259Y-95975555D01*
X141858619Y-95944716D01*
X141912503Y-95908088D01*
X141964283Y-95866091D01*
X142013331Y-95819142D01*
X142049231Y-95779419D01*
X142060382Y-95766365D01*
X142067812Y-95758129D01*
X142072317Y-95754108D01*
X142074696Y-95753703D01*
X142075744Y-95756312D01*
X142076076Y-95759177D01*
X142084928Y-95821029D01*
X142100125Y-95881195D01*
X142121367Y-95939025D01*
X142148355Y-95993868D01*
X142180792Y-96045075D01*
X142218378Y-96091994D01*
X142238870Y-96113506D01*
X142286020Y-96155375D01*
X142337880Y-96192239D01*
X142394477Y-96224103D01*
X142455836Y-96250972D01*
X142521984Y-96272847D01*
X142592947Y-96289735D01*
X142668750Y-96301639D01*
X142749419Y-96308562D01*
X142834981Y-96310510D01*
X142925460Y-96307486D01*
X143020884Y-96299493D01*
X143121277Y-96286537D01*
X143226666Y-96268621D01*
X143228736Y-96268229D01*
X143362040Y-96240715D01*
X143490610Y-96209678D01*
X143614222Y-96175198D01*
X143732650Y-96137354D01*
X143845672Y-96096225D01*
X143953063Y-96051891D01*
X144054597Y-96004429D01*
X144150052Y-95953920D01*
X144196556Y-95926871D01*
X144268432Y-95881622D01*
X144333929Y-95835957D01*
X144393722Y-95789299D01*
X144448486Y-95741071D01*
X144498895Y-95690694D01*
X144545624Y-95637593D01*
X144569292Y-95607935D01*
X144576348Y-95598793D01*
X144609885Y-95605455D01*
X144714889Y-95622936D01*
X144819330Y-95633496D01*
X144923815Y-95637171D01*
X145028949Y-95633997D01*
X145054361Y-95632219D01*
X145143685Y-95624517D01*
X145239546Y-95614773D01*
X145341740Y-95603024D01*
X145450062Y-95589304D01*
X145564307Y-95573649D01*
X145684270Y-95556094D01*
X145809745Y-95536676D01*
X145940528Y-95515428D01*
X146076414Y-95492388D01*
X146217197Y-95467589D01*
X146362673Y-95441068D01*
X146512636Y-95412860D01*
X146666882Y-95383000D01*
X146825205Y-95351525D01*
X146987401Y-95318468D01*
X147153264Y-95283866D01*
X147322589Y-95247754D01*
X147487083Y-95211946D01*
X147522540Y-95204219D01*
X147556328Y-95196982D01*
X147587744Y-95190378D01*
X147616082Y-95184550D01*
X147640639Y-95179638D01*
X147660711Y-95175785D01*
X147675595Y-95173134D01*
X147684586Y-95171825D01*
X147686402Y-95171710D01*
X147710853Y-95175325D01*
X147733020Y-95185489D01*
X147752465Y-95201940D01*
X147765298Y-95218714D01*
X147781220Y-95244601D01*
X147799408Y-95275862D01*
X147819273Y-95311421D01*
X147840229Y-95350199D01*
X147861687Y-95391119D01*
X147883058Y-95433103D01*
X147890724Y-95448486D01*
X147920533Y-95510291D01*
X147946152Y-95567008D01*
X147967736Y-95619113D01*
X147985437Y-95667077D01*
X147999410Y-95711376D01*
X148009807Y-95752481D01*
X148016783Y-95790868D01*
X148020490Y-95827009D01*
X148021223Y-95851017D01*
X148019855Y-95885658D01*
X148015603Y-95914824D01*
X148008245Y-95939574D01*
X147998407Y-95959576D01*
X147985372Y-95978408D01*
X147971151Y-95992507D01*
X147953422Y-96004103D01*
X147950516Y-96005661D01*
X147940170Y-96010668D01*
X147928802Y-96015256D01*
X147916049Y-96019454D01*
X147901542Y-96023295D01*
X147884918Y-96026806D01*
X147865811Y-96030019D01*
X147843854Y-96032964D01*
X147818682Y-96035671D01*
X147789929Y-96038170D01*
X147757230Y-96040491D01*
X147720219Y-96042664D01*
X147678530Y-96044720D01*
X147631798Y-96046689D01*
X147579657Y-96048601D01*
X147521742Y-96050486D01*
X147457685Y-96052374D01*
X147387123Y-96054296D01*
X147349181Y-96055282D01*
X147229555Y-96058512D01*
X147116447Y-96061915D01*
X147009322Y-96065525D01*
X146907645Y-96069372D01*
X146810878Y-96073490D01*
X146718487Y-96077910D01*
X146629937Y-96082664D01*
X146544690Y-96087786D01*
X146462212Y-96093306D01*
X146381967Y-96099258D01*
X146303420Y-96105673D01*
X146226033Y-96112583D01*
X146149273Y-96120022D01*
X146072603Y-96128020D01*
X145995487Y-96136611D01*
X145994514Y-96136723D01*
X145856765Y-96153667D01*
X145723516Y-96172414D01*
X145593549Y-96193216D01*
X145465649Y-96216325D01*
X145338599Y-96241993D01*
X145211181Y-96270474D01*
X145082181Y-96302018D01*
X144950381Y-96336880D01*
X144814564Y-96375310D01*
X144744101Y-96396143D01*
X144716987Y-96404416D01*
X144685101Y-96414394D01*
X144649282Y-96425799D01*
X144610367Y-96438350D01*
X144569195Y-96451768D01*
X144526606Y-96465772D01*
X144483438Y-96480082D01*
X144440530Y-96494419D01*
X144398720Y-96508503D01*
X144358847Y-96522054D01*
X144321751Y-96534791D01*
X144288268Y-96546436D01*
X144259239Y-96556707D01*
X144235502Y-96565326D01*
X144222325Y-96570287D01*
X144175900Y-96588714D01*
X144129052Y-96608455D01*
X144081172Y-96629814D01*
X144031650Y-96653099D01*
X143979877Y-96678614D01*
X143925244Y-96706665D01*
X143867142Y-96737558D01*
X143804962Y-96771598D01*
X143738093Y-96809091D01*
X143678528Y-96843090D01*
X143646877Y-96861282D01*
X143611373Y-96881686D01*
X143573969Y-96903181D01*
X143536618Y-96924643D01*
X143501271Y-96944953D01*
X143469882Y-96962987D01*
X143466861Y-96964722D01*
X143392151Y-97007228D01*
X143322611Y-97045860D01*
X143257666Y-97080832D01*
X143196738Y-97112361D01*
X143139249Y-97140662D01*
X143084623Y-97165950D01*
X143032282Y-97188442D01*
X142981649Y-97208353D01*
X142932146Y-97225898D01*
X142883197Y-97241294D01*
X142834224Y-97254755D01*
X142784649Y-97266498D01*
X142733896Y-97276738D01*
X142681387Y-97285691D01*
X142626545Y-97293573D01*
X142568792Y-97300598D01*
X142567278Y-97300768D01*
X142548693Y-97302405D01*
X142524406Y-97303872D01*
X142495621Y-97305152D01*
X142463537Y-97306227D01*
X142429357Y-97307078D01*
X142394282Y-97307688D01*
X142359513Y-97308037D01*
X142326253Y-97308108D01*
X142295702Y-97307882D01*
X142269062Y-97307342D01*
X142247534Y-97306469D01*
X142237431Y-97305766D01*
X142141437Y-97294796D01*
X142048591Y-97278944D01*
X141959357Y-97258340D01*
X141874199Y-97233112D01*
X141793580Y-97203390D01*
X141717963Y-97169303D01*
X141683570Y-97151423D01*
X141599499Y-97101747D01*
X141518006Y-97045614D01*
X141439071Y-96983003D01*
X141362676Y-96913893D01*
X141288800Y-96838264D01*
X141217424Y-96756095D01*
X141148528Y-96667366D01*
X141082092Y-96572057D01*
X141018098Y-96470145D01*
X140994143Y-96429208D01*
X140944336Y-96337801D01*
X140899157Y-96244995D01*
X140858144Y-96149669D01*
X140820834Y-96050702D01*
X140786764Y-95946973D01*
X140766318Y-95877111D01*
X140748063Y-95811847D01*
X140623150Y-95761265D01*
X140590801Y-95748164D01*
X140556720Y-95734360D01*
X140522371Y-95720446D01*
X140489218Y-95707013D01*
X140458725Y-95694657D01*
X140432356Y-95683970D01*
X140418125Y-95678200D01*
X140338013Y-95645719D01*
X140712699Y-95310903D01*
X140727975Y-95265042D01*
X140747971Y-95212558D01*
X140773359Y-95158304D01*
X140803290Y-95103803D01*
X140836916Y-95050580D01*
X140873391Y-95000159D01*
X140880077Y-94991644D01*
X140895188Y-94973691D01*
X140914455Y-94952394D01*
X140936654Y-94928976D01*
X140960561Y-94904659D01*
X140984953Y-94880663D01*
X141008606Y-94858213D01*
X141030297Y-94838529D01*
X141048802Y-94822834D01*
X141050334Y-94821608D01*
X141126271Y-94765687D01*
X141206675Y-94715202D01*
X141291488Y-94670177D01*
X141380648Y-94630636D01*
X141474097Y-94596603D01*
X141571776Y-94568101D01*
X141673624Y-94545155D01*
X141779582Y-94527789D01*
X141780584Y-94527654D01*
X141809559Y-94524531D01*
X141843508Y-94522131D01*
X141880383Y-94520500D01*
X141918133Y-94519688D01*
X141954710Y-94519742D01*
D10*
G36*
X165687579Y-111654438D02*
X164719203Y-111654438D01*
X164601191Y-111426039D01*
X164605263Y-111433186D01*
X164609616Y-111439900D01*
X164614249Y-111446181D01*
X164619164Y-111452029D01*
X164624359Y-111457444D01*
X164629835Y-111462425D01*
X164635592Y-111466973D01*
X164641630Y-111471089D01*
X164647948Y-111474771D01*
X164654548Y-111478019D01*
X164661428Y-111480835D01*
X164668589Y-111483217D01*
X164676031Y-111485167D01*
X164683754Y-111486683D01*
X164691757Y-111487766D01*
X164700041Y-111488415D01*
X164708607Y-111488632D01*
X165174275Y-111488632D01*
X165174263Y-111488632D01*
X165178169Y-111478231D01*
X165181852Y-111467803D01*
X165185312Y-111457347D01*
X165188548Y-111446865D01*
X165191562Y-111436355D01*
X165194352Y-111425818D01*
X165196919Y-111415254D01*
X165199263Y-111404662D01*
X165201383Y-111394043D01*
X165203281Y-111383398D01*
X165204955Y-111372724D01*
X165206406Y-111362024D01*
X165207633Y-111351296D01*
X165208638Y-111340542D01*
X165209419Y-111329760D01*
X165209977Y-111318950D01*
X165210312Y-111308114D01*
X165210423Y-111297250D01*
X165210293Y-111285110D01*
X165209900Y-111273383D01*
X165209246Y-111262070D01*
X165208330Y-111251171D01*
X165207153Y-111240686D01*
X165205714Y-111230614D01*
X165204013Y-111220956D01*
X165202051Y-111211712D01*
X165199827Y-111202882D01*
X165196875Y-111192988D01*
X165193318Y-111183149D01*
X165189155Y-111173364D01*
X165184387Y-111163635D01*
X165179013Y-111153962D01*
X165173034Y-111144343D01*
X165166449Y-111134779D01*
X165159259Y-111125271D01*
X165153529Y-111118529D01*
X165147244Y-111112093D01*
X165140406Y-111105963D01*
X165133015Y-111100139D01*
X165125069Y-111094622D01*
X165116570Y-111089410D01*
X165107517Y-111084505D01*
X165097911Y-111079905D01*
X165087751Y-111075612D01*
X165077037Y-111071625D01*
X165065769Y-111067945D01*
X165057035Y-111065330D01*
X165048004Y-111062896D01*
X165038674Y-111060642D01*
X165029047Y-111058568D01*
X165019122Y-111056675D01*
X165008899Y-111054962D01*
X164998378Y-111053430D01*
X164987559Y-111052077D01*
X164976442Y-111050905D01*
X164965027Y-111049914D01*
X164953315Y-111049102D01*
X164941304Y-111048471D01*
X164928996Y-111048020D01*
X164916390Y-111047750D01*
X164903486Y-111047660D01*
X164890510Y-111047739D01*
X164877815Y-111047977D01*
X164865404Y-111048373D01*
X164853275Y-111048928D01*
X164841428Y-111049641D01*
X164829863Y-111050512D01*
X164818581Y-111051542D01*
X164807582Y-111052731D01*
X164796864Y-111054078D01*
X164786430Y-111055584D01*
X164776277Y-111057247D01*
X164766407Y-111059070D01*
X164756820Y-111061051D01*
X164747515Y-111063190D01*
X164738492Y-111065488D01*
X164729752Y-111067945D01*
X164717395Y-111071618D01*
X164705666Y-111075583D01*
X164694564Y-111079840D01*
X164684089Y-111084388D01*
X164674242Y-111089228D01*
X164665021Y-111094359D01*
X164656428Y-111099782D01*
X164648462Y-111105496D01*
X164641123Y-111111502D01*
X164634411Y-111117800D01*
X164628326Y-111124389D01*
X164620705Y-111133636D01*
X164613718Y-111142855D01*
X164607364Y-111152046D01*
X164601645Y-111161210D01*
X164596560Y-111170347D01*
X164592109Y-111179455D01*
X164588292Y-111188537D01*
X164585109Y-111197590D01*
X164582428Y-111206796D01*
X164580105Y-111216332D01*
X164578138Y-111226198D01*
X164576530Y-111236396D01*
X164575279Y-111246924D01*
X164574385Y-111257783D01*
X164573849Y-111268973D01*
X164573670Y-111280493D01*
X164573810Y-111293705D01*
X164574231Y-111306483D01*
X164574934Y-111318829D01*
X164575916Y-111330741D01*
X164577180Y-111342220D01*
X164578725Y-111353266D01*
X164580550Y-111363879D01*
X164582656Y-111374058D01*
X164585043Y-111383805D01*
X164587711Y-111393118D01*
X164590660Y-111401998D01*
X164593889Y-111410445D01*
X164597400Y-111418458D01*
X164601191Y-111426039D01*
X164719203Y-111654438D01*
X164709526Y-111654291D01*
X164699898Y-111653850D01*
X164690319Y-111653115D01*
X164680788Y-111652086D01*
X164671307Y-111650763D01*
X164661874Y-111649146D01*
X164653252Y-111647310D01*
X164644019Y-111644826D01*
X164634174Y-111641694D01*
X164623716Y-111637915D01*
X164612647Y-111633487D01*
X164600966Y-111628411D01*
X164588674Y-111622688D01*
X164579005Y-111617603D01*
X164569598Y-111612148D01*
X164560452Y-111606323D01*
X164551568Y-111600127D01*
X164542945Y-111593562D01*
X164534583Y-111586626D01*
X164526483Y-111579320D01*
X164518644Y-111571644D01*
X164511066Y-111563597D01*
X164505546Y-111557166D01*
X164500162Y-111550221D01*
X164494912Y-111542761D01*
X164489797Y-111534787D01*
X164484817Y-111526298D01*
X164479972Y-111517295D01*
X164475262Y-111507778D01*
X164470687Y-111497745D01*
X164466247Y-111487199D01*
X164461942Y-111476138D01*
X164457772Y-111464562D01*
X164453737Y-111452472D01*
X164450746Y-111443119D01*
X164447948Y-111433579D01*
X164445344Y-111423854D01*
X164442932Y-111413942D01*
X164440713Y-111403845D01*
X164438687Y-111393561D01*
X164436854Y-111383092D01*
X164435214Y-111372436D01*
X164433767Y-111361594D01*
X164432513Y-111350566D01*
X164431451Y-111339353D01*
X164430583Y-111327953D01*
X164429908Y-111316367D01*
X164429425Y-111304595D01*
X164429136Y-111292637D01*
X164429040Y-111280493D01*
X164429148Y-111269355D01*
X164429474Y-111258281D01*
X164430016Y-111247273D01*
X164430776Y-111236331D01*
X164431753Y-111225453D01*
X164432946Y-111214641D01*
X164434357Y-111203895D01*
X164435985Y-111193213D01*
X164437830Y-111182597D01*
X164439611Y-111173712D01*
X164441757Y-111164696D01*
X164444269Y-111155549D01*
X164447146Y-111146270D01*
X164450389Y-111136860D01*
X164453997Y-111127319D01*
X164457970Y-111117647D01*
X164462309Y-111107843D01*
X164467014Y-111097909D01*
X164472083Y-111087843D01*
X164477519Y-111077646D01*
X164482793Y-111068202D01*
X164488324Y-111058978D01*
X164494113Y-111049975D01*
X164500158Y-111041192D01*
X164506460Y-111032630D01*
X164513020Y-111024288D01*
X164519836Y-111016167D01*
X164526910Y-111008266D01*
X164534241Y-111000586D01*
X164541828Y-110993126D01*
X164549673Y-110985887D01*
X164557775Y-110978868D01*
X164564541Y-110973404D01*
X164571668Y-110968065D01*
X164579155Y-110962852D01*
X164587003Y-110957764D01*
X164595212Y-110952802D01*
X164603781Y-110947965D01*
X164612711Y-110943253D01*
X164622001Y-110938667D01*
X164631652Y-110934206D01*
X164641664Y-110929871D01*
X164652036Y-110925661D01*
X164662769Y-110921577D01*
X164673863Y-110917618D01*
X164685317Y-110913785D01*
X164697131Y-110910076D01*
X164706585Y-110907184D01*
X164716196Y-110904448D01*
X164725962Y-110901868D01*
X164735886Y-110899444D01*
X164745965Y-110897177D01*
X164756201Y-110895066D01*
X164766593Y-110893112D01*
X164777142Y-110891314D01*
X164787847Y-110889672D01*
X164798709Y-110888187D01*
X164809726Y-110886858D01*
X164820900Y-110885685D01*
X164832231Y-110884669D01*
X164843718Y-110883809D01*
X164855361Y-110883105D01*
X164867161Y-110882558D01*
X164879117Y-110882167D01*
X164891229Y-110881932D01*
X164903498Y-110881854D01*
X164916177Y-110881938D01*
X164928681Y-110882190D01*
X164941008Y-110882610D01*
X164953160Y-110883198D01*
X164965135Y-110883954D01*
X164976934Y-110884878D01*
X164988558Y-110885970D01*
X165000005Y-110887230D01*
X165011276Y-110888658D01*
X165022372Y-110890254D01*
X165033291Y-110892018D01*
X165044034Y-110893950D01*
X165054602Y-110896049D01*
X165064993Y-110898317D01*
X165075208Y-110900753D01*
X165085248Y-110903357D01*
X165095111Y-110906129D01*
X165104798Y-110909069D01*
X165114309Y-110912176D01*
X165123645Y-110915452D01*
X165132804Y-110918896D01*
X165144411Y-110923526D01*
X165155638Y-110928377D01*
X165166487Y-110933448D01*
X165176957Y-110938740D01*
X165187048Y-110944252D01*
X165196760Y-110949984D01*
X165206093Y-110955938D01*
X165215047Y-110962111D01*
X165223623Y-110968505D01*
X165231819Y-110975120D01*
X165239636Y-110981955D01*
X165247075Y-110989010D01*
X165254134Y-110996287D01*
X165260815Y-111003783D01*
X165267116Y-111011500D01*
X165273039Y-111019438D01*
X165279459Y-111028648D01*
X165285618Y-111037886D01*
X165291517Y-111047151D01*
X165297154Y-111056443D01*
X165302531Y-111065762D01*
X165307647Y-111075108D01*
X165312502Y-111084481D01*
X165317096Y-111093881D01*
X165321429Y-111103308D01*
X165325502Y-111112762D01*
X165329313Y-111122243D01*
X165332864Y-111131750D01*
X165336154Y-111141285D01*
X165339183Y-111150847D01*
X165341855Y-111160369D01*
X165344330Y-111170034D01*
X165346606Y-111179843D01*
X165348684Y-111189797D01*
X165350565Y-111199894D01*
X165352247Y-111210136D01*
X165353732Y-111220521D01*
X165355019Y-111231050D01*
X165356107Y-111241724D01*
X165356998Y-111252541D01*
X165357691Y-111263502D01*
X165358186Y-111274608D01*
X165358483Y-111285857D01*
X165358582Y-111297250D01*
X165358500Y-111308299D01*
X165358255Y-111319299D01*
X165357847Y-111330249D01*
X165357275Y-111341151D01*
X165356540Y-111352004D01*
X165355642Y-111362808D01*
X165354581Y-111373563D01*
X165353356Y-111384269D01*
X165351968Y-111394925D01*
X165350417Y-111405533D01*
X165348702Y-111416092D01*
X165346824Y-111426602D01*
X165344783Y-111437063D01*
X165342578Y-111447475D01*
X165340210Y-111457837D01*
X165337679Y-111468151D01*
X165334984Y-111478416D01*
X165332127Y-111488632D01*
X165687555Y-111488632D01*
X165687555Y-111654438D01*
X165687579Y-111654438D01*
X165687579Y-111654438D01*
G37*
G36*
X165128421Y-110656958D02*
X164728018Y-110508792D01*
X164736317Y-110511141D01*
X164744899Y-110513339D01*
X164753763Y-110515386D01*
X164762910Y-110517280D01*
X164772339Y-110519024D01*
X164782051Y-110520615D01*
X164792046Y-110522055D01*
X164802323Y-110523344D01*
X164812882Y-110524481D01*
X164823724Y-110525466D01*
X164834848Y-110526300D01*
X164846255Y-110526982D01*
X164857945Y-110527512D01*
X164869916Y-110527891D01*
X164882171Y-110528119D01*
X164894708Y-110528194D01*
X164907248Y-110528119D01*
X164919513Y-110527891D01*
X164931502Y-110527512D01*
X164943215Y-110526982D01*
X164954653Y-110526300D01*
X164965815Y-110525466D01*
X164976702Y-110524481D01*
X164987313Y-110523344D01*
X164997648Y-110522055D01*
X165007708Y-110520615D01*
X165017492Y-110519024D01*
X165027000Y-110517280D01*
X165036233Y-110515386D01*
X165045190Y-110513339D01*
X165053871Y-110511141D01*
X165062277Y-110508792D01*
X165073866Y-110504943D01*
X165084902Y-110500774D01*
X165095383Y-110496284D01*
X165105311Y-110491473D01*
X165114685Y-110486342D01*
X165123505Y-110480890D01*
X165131771Y-110475117D01*
X165139483Y-110469024D01*
X165146641Y-110462610D01*
X165153245Y-110455875D01*
X165159295Y-110448819D01*
X165166088Y-110439989D01*
X165172358Y-110431137D01*
X165178105Y-110422263D01*
X165183331Y-110413367D01*
X165188033Y-110404450D01*
X165192214Y-110395511D01*
X165195872Y-110386550D01*
X165199008Y-110377567D01*
X165201621Y-110368562D01*
X165203845Y-110359340D01*
X165205807Y-110349704D01*
X165207508Y-110339654D01*
X165208947Y-110329191D01*
X165210124Y-110318313D01*
X165211040Y-110307022D01*
X165211694Y-110295318D01*
X165212087Y-110283199D01*
X165212218Y-110270667D01*
X165212087Y-110257949D01*
X165211694Y-110245667D01*
X165211040Y-110233821D01*
X165210124Y-110222410D01*
X165208947Y-110211435D01*
X165207508Y-110200895D01*
X165205807Y-110190791D01*
X165203845Y-110181122D01*
X165201621Y-110171889D01*
X165199005Y-110162884D01*
X165195868Y-110153902D01*
X165192209Y-110144941D01*
X165188028Y-110136001D01*
X165183325Y-110127084D01*
X165178100Y-110118188D01*
X165172354Y-110109314D01*
X165166085Y-110100462D01*
X165159295Y-110091632D01*
X165153245Y-110084584D01*
X165146641Y-110077871D01*
X165139483Y-110071493D01*
X165131771Y-110065451D01*
X165123505Y-110059743D01*
X165114685Y-110054372D01*
X165105311Y-110049335D01*
X165095383Y-110044634D01*
X165084902Y-110040268D01*
X165073866Y-110036237D01*
X165062277Y-110032542D01*
X165053871Y-110030085D01*
X165045190Y-110027787D01*
X165036233Y-110025648D01*
X165027000Y-110023667D01*
X165017492Y-110021845D01*
X165007708Y-110020181D01*
X164997648Y-110018675D01*
X164987313Y-110017328D01*
X164976702Y-110016140D01*
X164965815Y-110015109D01*
X164954653Y-110014238D01*
X164943215Y-110013525D01*
X164931502Y-110012970D01*
X164919513Y-110012574D01*
X164907248Y-110012336D01*
X164894708Y-110012257D01*
X164882171Y-110012336D01*
X164869916Y-110012574D01*
X164857945Y-110012970D01*
X164846255Y-110013525D01*
X164834848Y-110014238D01*
X164823724Y-110015109D01*
X164812882Y-110016140D01*
X164802323Y-110017328D01*
X164792046Y-110018675D01*
X164782051Y-110020181D01*
X164772339Y-110021845D01*
X164762910Y-110023667D01*
X164753763Y-110025648D01*
X164744899Y-110027787D01*
X164736317Y-110030085D01*
X164728018Y-110032542D01*
X164716276Y-110036237D01*
X164705102Y-110040268D01*
X164694497Y-110044634D01*
X164684460Y-110049335D01*
X164674992Y-110054372D01*
X164666092Y-110059743D01*
X164657761Y-110065451D01*
X164649998Y-110071493D01*
X164642804Y-110077871D01*
X164636178Y-110084584D01*
X164630120Y-110091632D01*
X164623328Y-110100462D01*
X164617058Y-110109314D01*
X164611310Y-110118188D01*
X164606085Y-110127084D01*
X164601382Y-110136001D01*
X164597202Y-110144941D01*
X164593543Y-110153902D01*
X164590408Y-110162884D01*
X164587794Y-110171889D01*
X164585571Y-110181122D01*
X164583608Y-110190791D01*
X164581908Y-110200895D01*
X164580469Y-110211435D01*
X164579291Y-110222410D01*
X164578375Y-110233821D01*
X164577721Y-110245667D01*
X164577329Y-110257949D01*
X164577198Y-110270667D01*
X164577329Y-110283199D01*
X164577721Y-110295318D01*
X164578375Y-110307022D01*
X164579291Y-110318313D01*
X164580469Y-110329191D01*
X164581908Y-110339654D01*
X164583608Y-110349704D01*
X164585571Y-110359340D01*
X164587794Y-110368562D01*
X164590410Y-110377567D01*
X164593548Y-110386550D01*
X164597207Y-110395511D01*
X164601388Y-110404450D01*
X164606091Y-110413367D01*
X164611316Y-110422263D01*
X164617062Y-110431137D01*
X164623330Y-110439989D01*
X164630120Y-110448819D01*
X164636178Y-110455875D01*
X164642804Y-110462610D01*
X164649998Y-110469024D01*
X164657761Y-110475117D01*
X164666092Y-110480890D01*
X164674992Y-110486342D01*
X164684460Y-110491473D01*
X164694497Y-110496284D01*
X164705102Y-110500774D01*
X164716276Y-110504943D01*
X164728018Y-110508792D01*
X165128421Y-110656958D01*
X165119596Y-110660328D01*
X165110601Y-110663540D01*
X165101433Y-110666596D01*
X165092095Y-110669495D01*
X165082585Y-110672237D01*
X165072904Y-110674823D01*
X165063052Y-110677252D01*
X165053028Y-110679524D01*
X165042833Y-110681640D01*
X165032467Y-110683599D01*
X165021929Y-110685401D01*
X165011220Y-110687046D01*
X165000340Y-110688535D01*
X164989288Y-110689867D01*
X164978065Y-110691043D01*
X164966671Y-110692061D01*
X164955105Y-110692923D01*
X164943368Y-110693628D01*
X164931460Y-110694177D01*
X164919381Y-110694569D01*
X164907130Y-110694804D01*
X164894708Y-110694882D01*
X164882287Y-110694804D01*
X164870042Y-110694569D01*
X164857972Y-110694177D01*
X164846076Y-110693628D01*
X164834356Y-110692923D01*
X164822810Y-110692061D01*
X164811439Y-110691043D01*
X164800244Y-110689867D01*
X164789223Y-110688535D01*
X164778377Y-110687046D01*
X164767706Y-110685401D01*
X164757210Y-110683599D01*
X164746889Y-110681640D01*
X164736743Y-110679524D01*
X164726772Y-110677252D01*
X164716976Y-110674823D01*
X164707355Y-110672237D01*
X164697909Y-110669495D01*
X164688638Y-110666596D01*
X164679541Y-110663540D01*
X164670620Y-110660328D01*
X164661874Y-110656958D01*
X164650732Y-110652402D01*
X164639927Y-110647657D01*
X164629457Y-110642722D01*
X164619322Y-110637598D01*
X164609523Y-110632285D01*
X164600060Y-110626783D01*
X164590932Y-110621092D01*
X164582140Y-110615211D01*
X164573683Y-110609141D01*
X164565562Y-110602882D01*
X164557776Y-110596434D01*
X164550326Y-110589796D01*
X164543212Y-110582970D01*
X164536433Y-110575954D01*
X164529990Y-110568749D01*
X164523882Y-110561354D01*
X164518110Y-110553771D01*
X164511451Y-110544434D01*
X164505080Y-110535070D01*
X164498996Y-110525679D01*
X164493201Y-110516261D01*
X164487693Y-110506816D01*
X164482474Y-110497344D01*
X164477543Y-110487845D01*
X164472899Y-110478320D01*
X164468544Y-110468767D01*
X164464477Y-110459187D01*
X164460697Y-110449580D01*
X164457206Y-110439946D01*
X164454003Y-110430285D01*
X164451088Y-110420597D01*
X164448294Y-110410707D01*
X164445708Y-110400690D01*
X164443328Y-110390548D01*
X164441156Y-110380280D01*
X164439190Y-110369885D01*
X164437431Y-110359365D01*
X164435879Y-110348719D01*
X164434534Y-110337946D01*
X164433396Y-110327048D01*
X164432465Y-110316024D01*
X164431741Y-110304874D01*
X164431224Y-110293597D01*
X164430913Y-110282195D01*
X164430810Y-110270667D01*
X164430913Y-110259021D01*
X164431224Y-110247520D01*
X164431741Y-110236163D01*
X164432465Y-110224950D01*
X164433396Y-110213880D01*
X164434534Y-110202955D01*
X164435879Y-110192174D01*
X164437431Y-110181536D01*
X164439190Y-110171043D01*
X164441156Y-110160694D01*
X164443328Y-110150488D01*
X164445708Y-110140427D01*
X164448294Y-110130510D01*
X164451088Y-110120736D01*
X164454003Y-110110927D01*
X164457206Y-110101153D01*
X164460697Y-110091416D01*
X164464477Y-110081715D01*
X164468544Y-110072049D01*
X164472899Y-110062420D01*
X164477543Y-110052826D01*
X164482474Y-110043269D01*
X164487693Y-110033748D01*
X164493201Y-110024262D01*
X164498996Y-110014813D01*
X164505080Y-110005399D01*
X164511451Y-109996022D01*
X164518110Y-109986681D01*
X164523882Y-109979097D01*
X164529990Y-109971703D01*
X164536433Y-109964498D01*
X164543212Y-109957482D01*
X164550326Y-109950655D01*
X164557776Y-109944018D01*
X164565562Y-109937569D01*
X164573683Y-109931310D01*
X164582140Y-109925240D01*
X164590932Y-109919360D01*
X164600060Y-109913668D01*
X164609523Y-109908166D01*
X164619322Y-109902853D01*
X164629457Y-109897729D01*
X164639927Y-109892795D01*
X164650732Y-109888049D01*
X164661874Y-109883493D01*
X164670620Y-109880124D01*
X164679541Y-109876911D01*
X164688638Y-109873855D01*
X164697909Y-109870956D01*
X164707355Y-109868214D01*
X164716976Y-109865628D01*
X164726772Y-109863199D01*
X164736743Y-109860927D01*
X164746889Y-109858811D01*
X164757210Y-109856853D01*
X164767706Y-109855050D01*
X164778377Y-109853405D01*
X164789223Y-109851916D01*
X164800244Y-109850584D01*
X164811439Y-109849409D01*
X164822810Y-109848390D01*
X164834356Y-109847528D01*
X164846076Y-109846823D01*
X164857972Y-109846275D01*
X164870042Y-109845883D01*
X164882287Y-109845648D01*
X164894708Y-109845569D01*
X164907130Y-109845648D01*
X164919381Y-109845883D01*
X164931460Y-109846275D01*
X164943368Y-109846823D01*
X164955105Y-109847528D01*
X164966671Y-109848390D01*
X164978065Y-109849409D01*
X164989288Y-109850584D01*
X165000340Y-109851916D01*
X165011220Y-109853405D01*
X165021929Y-109855050D01*
X165032467Y-109856853D01*
X165042833Y-109858811D01*
X165053028Y-109860927D01*
X165063052Y-109863199D01*
X165072904Y-109865628D01*
X165082585Y-109868214D01*
X165092095Y-109870956D01*
X165101433Y-109873855D01*
X165110601Y-109876911D01*
X165119596Y-109880124D01*
X165128421Y-109883493D01*
X165139462Y-109888049D01*
X165150173Y-109892795D01*
X165160555Y-109897729D01*
X165170607Y-109902853D01*
X165180329Y-109908166D01*
X165189722Y-109913668D01*
X165198786Y-109919360D01*
X165207520Y-109925240D01*
X165215924Y-109931310D01*
X165223999Y-109937569D01*
X165231744Y-109944018D01*
X165239159Y-109950655D01*
X165246245Y-109957482D01*
X165253001Y-109964498D01*
X165259428Y-109971703D01*
X165265525Y-109979097D01*
X165271293Y-109986681D01*
X165277957Y-109996022D01*
X165284342Y-110005399D01*
X165290448Y-110014813D01*
X165296275Y-110024262D01*
X165301824Y-110033748D01*
X165307093Y-110043269D01*
X165312084Y-110052826D01*
X165316795Y-110062420D01*
X165321228Y-110072049D01*
X165325381Y-110081715D01*
X165329256Y-110091416D01*
X165332852Y-110101153D01*
X165336169Y-110110927D01*
X165339207Y-110120736D01*
X165341879Y-110130510D01*
X165344354Y-110140427D01*
X165346630Y-110150488D01*
X165348708Y-110160694D01*
X165350589Y-110171043D01*
X165352272Y-110181536D01*
X165353756Y-110192174D01*
X165355043Y-110202955D01*
X165356131Y-110213880D01*
X165357022Y-110224950D01*
X165357715Y-110236163D01*
X165358210Y-110247520D01*
X165358507Y-110259021D01*
X165358606Y-110270667D01*
X165358507Y-110282195D01*
X165358210Y-110293597D01*
X165357715Y-110304874D01*
X165357022Y-110316024D01*
X165356131Y-110327048D01*
X165355043Y-110337946D01*
X165353756Y-110348719D01*
X165352272Y-110359365D01*
X165350589Y-110369885D01*
X165348708Y-110380280D01*
X165346630Y-110390548D01*
X165344354Y-110400690D01*
X165341879Y-110410707D01*
X165339207Y-110420597D01*
X165336169Y-110430285D01*
X165332852Y-110439946D01*
X165329256Y-110449580D01*
X165325381Y-110459187D01*
X165321228Y-110468767D01*
X165316795Y-110478320D01*
X165312084Y-110487845D01*
X165307093Y-110497344D01*
X165301824Y-110506816D01*
X165296275Y-110516261D01*
X165290448Y-110525679D01*
X165284342Y-110535070D01*
X165277957Y-110544434D01*
X165271293Y-110553771D01*
X165265525Y-110561354D01*
X165259428Y-110568749D01*
X165253001Y-110575954D01*
X165246245Y-110582970D01*
X165239159Y-110589796D01*
X165231744Y-110596434D01*
X165223999Y-110602882D01*
X165215924Y-110609141D01*
X165207520Y-110615211D01*
X165198786Y-110621092D01*
X165189722Y-110626783D01*
X165180329Y-110632285D01*
X165170607Y-110637598D01*
X165160555Y-110642722D01*
X165150173Y-110647657D01*
X165139462Y-110652402D01*
X165128421Y-110656958D01*
X165128421Y-110656958D01*
G37*
G36*
X165344493Y-109605681D02*
X164100078Y-109605681D01*
X164100078Y-109439875D01*
X165344493Y-109439875D01*
X165344493Y-109605681D01*
X165344493Y-109605681D01*
G37*
G36*
X164443152Y-109242319D02*
X164443152Y-109065049D01*
X165118715Y-108822514D01*
X164443152Y-108584389D01*
X164443152Y-108407118D01*
X165440632Y-108777535D01*
X165453126Y-108782276D01*
X165465312Y-108787121D01*
X165477189Y-108792070D01*
X165488757Y-108797123D01*
X165500018Y-108802280D01*
X165510969Y-108807541D01*
X165521612Y-108812905D01*
X165531947Y-108818374D01*
X165541973Y-108823946D01*
X165551690Y-108829622D01*
X165561099Y-108835403D01*
X165570200Y-108841287D01*
X165578992Y-108847274D01*
X165587476Y-108853366D01*
X165595651Y-108859562D01*
X165603517Y-108865861D01*
X165611075Y-108872265D01*
X165618325Y-108878772D01*
X165625266Y-108885383D01*
X165631899Y-108892098D01*
X165638223Y-108898917D01*
X165644238Y-108905840D01*
X165649946Y-108912867D01*
X165655344Y-108919997D01*
X165660434Y-108927232D01*
X165665216Y-108934570D01*
X165669689Y-108942012D01*
X165673854Y-108949558D01*
X165677710Y-108957208D01*
X165681258Y-108964962D01*
X165684497Y-108972820D01*
X165687428Y-108980782D01*
X165690050Y-108988847D01*
X165692364Y-108997017D01*
X165694369Y-109005290D01*
X165696065Y-109013667D01*
X165697454Y-109022148D01*
X165698533Y-109030733D01*
X165699305Y-109039422D01*
X165699767Y-109048215D01*
X165699922Y-109057111D01*
X165699922Y-109057990D01*
X165699824Y-109068028D01*
X165699530Y-109078152D01*
X165699040Y-109088362D01*
X165698354Y-109098658D01*
X165697472Y-109109039D01*
X165696393Y-109119506D01*
X165695119Y-109130058D01*
X165693649Y-109140697D01*
X165691983Y-109151421D01*
X165690121Y-109162231D01*
X165688063Y-109173127D01*
X165685809Y-109184108D01*
X165537639Y-109184108D01*
X165540329Y-109173410D01*
X165542755Y-109162836D01*
X165544916Y-109152385D01*
X165546813Y-109142057D01*
X165548446Y-109131853D01*
X165549814Y-109121772D01*
X165550918Y-109111815D01*
X165551757Y-109101982D01*
X165552332Y-109092271D01*
X165552642Y-109082685D01*
X165552411Y-109075265D01*
X165551717Y-109067942D01*
X165550561Y-109060715D01*
X165548942Y-109053584D01*
X165546860Y-109046549D01*
X165544316Y-109039610D01*
X165541310Y-109032768D01*
X165537841Y-109026021D01*
X165533909Y-109019370D01*
X165529515Y-109012815D01*
X165524658Y-109006356D01*
X165519338Y-108999994D01*
X165513556Y-108993727D01*
X165507312Y-108987556D01*
X165500605Y-108981482D01*
X165493435Y-108975503D01*
X165485803Y-108969620D01*
X165477709Y-108963834D01*
X165469151Y-108958143D01*
X165460132Y-108952549D01*
X165450649Y-108947050D01*
X165440704Y-108941648D01*
X165430297Y-108936342D01*
X165419427Y-108931131D01*
X165408094Y-108926017D01*
X165396299Y-108920999D01*
X165384042Y-108916077D01*
X165371321Y-108911250D01*
X165358139Y-108906520D01*
X165344493Y-108901886D01*
X164443152Y-109242317D01*
X164443152Y-109242319D01*
X164443152Y-109242319D01*
G37*
G36*
X164698034Y-108287174D02*
X164686917Y-108286975D01*
X164675968Y-108286380D01*
X164665186Y-108285388D01*
X164654571Y-108283999D01*
X164644125Y-108282213D01*
X164633845Y-108280030D01*
X164623734Y-108277450D01*
X164613790Y-108274474D01*
X164604014Y-108271100D01*
X164594405Y-108267330D01*
X164584964Y-108263163D01*
X164575691Y-108258599D01*
X164566585Y-108253638D01*
X164557647Y-108248280D01*
X164548876Y-108242525D01*
X164540274Y-108236374D01*
X164531838Y-108229825D01*
X164523571Y-108222880D01*
X164515470Y-108215538D01*
X164507538Y-108207799D01*
X164501384Y-108201244D01*
X164495481Y-108194421D01*
X164489829Y-108187330D01*
X164484428Y-108179971D01*
X164479279Y-108172344D01*
X164474380Y-108164449D01*
X164469733Y-108156286D01*
X164465337Y-108147855D01*
X164461193Y-108139155D01*
X164457299Y-108130187D01*
X164453657Y-108120952D01*
X164450266Y-108111448D01*
X164447126Y-108101676D01*
X164444237Y-108091636D01*
X164441599Y-108081328D01*
X164439213Y-108070752D01*
X164437078Y-108059907D01*
X164435194Y-108048795D01*
X164433561Y-108037414D01*
X164432180Y-108025765D01*
X164431049Y-108013848D01*
X164430170Y-108001664D01*
X164429542Y-107989210D01*
X164429165Y-107976489D01*
X164429040Y-107963500D01*
X164429151Y-107952847D01*
X164429486Y-107942207D01*
X164430045Y-107931580D01*
X164430827Y-107920967D01*
X164431832Y-107910367D01*
X164433061Y-107899780D01*
X164434513Y-107889207D01*
X164436188Y-107878647D01*
X164438087Y-107868100D01*
X164440209Y-107857567D01*
X164442555Y-107847047D01*
X164445124Y-107836540D01*
X164447916Y-107826047D01*
X164450932Y-107815567D01*
X164454171Y-107805100D01*
X164457634Y-107794647D01*
X164461320Y-107784207D01*
X164465229Y-107773780D01*
X164469362Y-107763367D01*
X164473718Y-107752967D01*
X164478298Y-107742580D01*
X164483101Y-107732207D01*
X164488127Y-107721847D01*
X164630999Y-107721847D01*
X164625999Y-107732989D01*
X164621242Y-107744070D01*
X164616729Y-107755091D01*
X164612460Y-107766052D01*
X164608435Y-107776954D01*
X164604654Y-107787795D01*
X164601116Y-107798576D01*
X164597823Y-107809298D01*
X164594774Y-107819959D01*
X164591969Y-107830560D01*
X164589407Y-107841102D01*
X164587090Y-107851583D01*
X164585016Y-107862004D01*
X164583187Y-107872366D01*
X164581601Y-107882667D01*
X164580259Y-107892908D01*
X164579162Y-107903090D01*
X164578308Y-107913211D01*
X164577698Y-107923273D01*
X164577332Y-107933274D01*
X164577210Y-107943215D01*
X164577369Y-107956232D01*
X164577844Y-107968757D01*
X164578636Y-107980790D01*
X164579746Y-107992333D01*
X164581172Y-108003385D01*
X164582915Y-108013945D01*
X164584975Y-108024014D01*
X164587352Y-108033592D01*
X164590046Y-108042679D01*
X164593057Y-108051275D01*
X164596385Y-108059379D01*
X164600030Y-108066992D01*
X164603992Y-108074114D01*
X164608271Y-108080745D01*
X164612866Y-108086885D01*
X164617779Y-108092534D01*
X164623008Y-108097691D01*
X164628555Y-108102357D01*
X164634418Y-108106532D01*
X164640599Y-108110216D01*
X164647096Y-108113409D01*
X164653910Y-108116110D01*
X164661042Y-108118321D01*
X164668490Y-108120040D01*
X164676255Y-108121268D01*
X164684337Y-108122004D01*
X164692736Y-108122250D01*
X164701013Y-108121662D01*
X164708984Y-108119898D01*
X164716650Y-108116958D01*
X164724012Y-108112843D01*
X164731068Y-108107551D01*
X164737819Y-108101083D01*
X164744266Y-108093440D01*
X164750407Y-108084620D01*
X164756243Y-108074625D01*
X164760689Y-108065806D01*
X164765048Y-108056665D01*
X164769320Y-108047205D01*
X164773504Y-108037423D01*
X164777600Y-108027321D01*
X164781609Y-108016898D01*
X164785530Y-108006154D01*
X164789363Y-107995090D01*
X164793109Y-107983705D01*
X164796768Y-107971999D01*
X164800339Y-107959972D01*
X164803240Y-107949660D01*
X164806246Y-107939348D01*
X164809356Y-107929036D01*
X164812571Y-107918724D01*
X164815890Y-107908412D01*
X164819314Y-107898100D01*
X164822842Y-107887788D01*
X164826475Y-107877476D01*
X164830212Y-107867165D01*
X164834053Y-107856853D01*
X164837999Y-107846541D01*
X164842050Y-107836229D01*
X164846205Y-107825917D01*
X164850173Y-107816319D01*
X164854519Y-107806928D01*
X164859243Y-107797744D01*
X164864346Y-107788767D01*
X164869826Y-107779997D01*
X164875684Y-107771434D01*
X164881920Y-107763078D01*
X164888534Y-107754929D01*
X164895526Y-107746987D01*
X164902895Y-107739252D01*
X164910643Y-107731724D01*
X164918769Y-107724403D01*
X164927273Y-107717289D01*
X164936155Y-107710382D01*
X164944210Y-107704508D01*
X164952500Y-107699013D01*
X164961023Y-107693897D01*
X164969781Y-107689160D01*
X164978773Y-107684802D01*
X164987999Y-107680823D01*
X164997460Y-107677223D01*
X165007154Y-107674002D01*
X165017083Y-107671159D01*
X165027246Y-107668696D01*
X165037642Y-107666612D01*
X165048274Y-107664907D01*
X165059139Y-107663580D01*
X165070238Y-107662633D01*
X165081572Y-107662064D01*
X165093139Y-107661875D01*
X165103913Y-107662080D01*
X165114536Y-107662695D01*
X165125009Y-107663720D01*
X165135333Y-107665156D01*
X165145506Y-107667001D01*
X165155530Y-107669257D01*
X165165404Y-107671923D01*
X165175127Y-107674998D01*
X165184701Y-107678484D01*
X165194125Y-107682380D01*
X165203399Y-107686686D01*
X165212523Y-107691402D01*
X165221498Y-107696529D01*
X165230322Y-107702065D01*
X165238996Y-107708012D01*
X165247521Y-107714368D01*
X165255895Y-107721135D01*
X165264120Y-107728312D01*
X165272195Y-107735899D01*
X165280119Y-107743896D01*
X165286041Y-107750338D01*
X165291730Y-107757047D01*
X165297187Y-107764021D01*
X165302411Y-107771262D01*
X165307404Y-107778769D01*
X165312164Y-107786542D01*
X165316692Y-107794582D01*
X165320988Y-107802887D01*
X165325052Y-107811458D01*
X165328883Y-107820296D01*
X165332482Y-107829400D01*
X165335849Y-107838770D01*
X165338984Y-107848406D01*
X165341887Y-107858309D01*
X165344557Y-107868477D01*
X165346995Y-107878912D01*
X165349201Y-107889612D01*
X165351175Y-107900579D01*
X165352917Y-107911812D01*
X165354426Y-107923311D01*
X165355703Y-107935077D01*
X165356748Y-107947108D01*
X165357561Y-107959406D01*
X165358141Y-107971970D01*
X165358490Y-107984800D01*
X165358606Y-107997896D01*
X165358506Y-108009420D01*
X165358205Y-108020852D01*
X165357704Y-108032190D01*
X165357003Y-108043435D01*
X165356101Y-108054587D01*
X165354999Y-108065646D01*
X165353697Y-108076612D01*
X165352194Y-108087484D01*
X165350491Y-108098264D01*
X165348587Y-108108950D01*
X165346483Y-108119543D01*
X165344179Y-108130044D01*
X165341675Y-108140450D01*
X165338970Y-108150764D01*
X165336064Y-108160985D01*
X165332958Y-108171113D01*
X165329652Y-108181147D01*
X165326146Y-108191088D01*
X165322439Y-108200936D01*
X165318532Y-108210691D01*
X165314424Y-108220353D01*
X165310116Y-108229922D01*
X165305608Y-108239398D01*
X165300899Y-108248780D01*
X165295990Y-108258069D01*
X165146062Y-108258069D01*
X165151459Y-108248269D01*
X165156626Y-108238416D01*
X165161564Y-108228511D01*
X165166272Y-108218553D01*
X165170751Y-108208544D01*
X165175000Y-108198483D01*
X165179019Y-108188370D01*
X165182808Y-108178204D01*
X165186368Y-108167987D01*
X165189698Y-108157718D01*
X165192799Y-108147396D01*
X165195670Y-108137023D01*
X165198311Y-108126597D01*
X165200722Y-108116119D01*
X165202904Y-108105590D01*
X165204856Y-108095008D01*
X165206579Y-108084374D01*
X165208072Y-108073688D01*
X165209335Y-108062950D01*
X165210368Y-108052160D01*
X165211172Y-108041318D01*
X165211746Y-108030424D01*
X165212091Y-108019477D01*
X165212206Y-108008479D01*
X165212206Y-108004951D01*
X165212023Y-107991899D01*
X165211475Y-107979338D01*
X165210562Y-107967267D01*
X165209284Y-107955687D01*
X165207640Y-107944598D01*
X165205631Y-107933999D01*
X165203257Y-107923890D01*
X165200518Y-107914273D01*
X165197414Y-107905145D01*
X165193944Y-107896508D01*
X165190109Y-107888362D01*
X165185909Y-107880706D01*
X165181343Y-107873541D01*
X165174825Y-107864828D01*
X165167972Y-107857031D01*
X165160784Y-107850152D01*
X165153261Y-107844190D01*
X165145402Y-107839145D01*
X165137209Y-107835018D01*
X165128681Y-107831808D01*
X165119818Y-107829515D01*
X165110620Y-107828139D01*
X165101087Y-107827680D01*
X165091165Y-107828074D01*
X165081608Y-107829255D01*
X165072416Y-107831223D01*
X165063588Y-107833978D01*
X165055125Y-107837520D01*
X165047027Y-107841850D01*
X165039293Y-107846966D01*
X165031924Y-107852870D01*
X165024919Y-107859561D01*
X165018279Y-107867040D01*
X165012004Y-107875305D01*
X165006382Y-107883243D01*
X165000981Y-107891474D01*
X164995801Y-107900000D01*
X164990840Y-107908819D01*
X164986100Y-107917933D01*
X164981581Y-107927340D01*
X164977282Y-107937041D01*
X164973204Y-107947037D01*
X164969345Y-107957326D01*
X164965708Y-107967909D01*
X164962290Y-107978787D01*
X164959094Y-107989958D01*
X164956086Y-108000406D01*
X164953038Y-108010853D01*
X164949947Y-108021301D01*
X164946816Y-108031749D01*
X164943642Y-108042196D01*
X164940427Y-108052644D01*
X164937170Y-108063091D01*
X164933872Y-108073539D01*
X164930532Y-108083987D01*
X164927150Y-108094434D01*
X164923727Y-108104882D01*
X164920262Y-108115330D01*
X164916756Y-108125777D01*
X164912914Y-108135975D01*
X164908718Y-108145942D01*
X164904167Y-108155680D01*
X164899261Y-108165188D01*
X164894001Y-108174467D01*
X164888385Y-108183516D01*
X164882416Y-108192336D01*
X164876091Y-108200925D01*
X164869412Y-108209286D01*
X164862378Y-108217416D01*
X164854990Y-108225317D01*
X164847246Y-108232988D01*
X164839148Y-108240430D01*
X164831717Y-108246455D01*
X164824002Y-108252064D01*
X164816006Y-108257258D01*
X164807727Y-108262036D01*
X164799167Y-108266399D01*
X164790324Y-108270346D01*
X164781198Y-108273877D01*
X164771791Y-108276994D01*
X164762101Y-108279694D01*
X164752129Y-108281980D01*
X164741874Y-108283849D01*
X164731338Y-108285303D01*
X164720519Y-108286342D01*
X164709418Y-108286965D01*
X164698034Y-108287173D01*
X164698034Y-108287174D01*
X164698034Y-108287174D01*
G37*
G36*
X164582496Y-107533111D02*
X164443152Y-107533111D01*
X164443152Y-107376125D01*
X164174158Y-107376125D01*
X164174158Y-107211201D01*
X164443152Y-107211201D01*
X164443152Y-106971312D01*
X164582496Y-106971312D01*
X164582496Y-107211201D01*
X165106373Y-107211201D01*
X165115775Y-107210926D01*
X165124741Y-107210101D01*
X165133268Y-107208725D01*
X165141359Y-107206799D01*
X165149012Y-107204323D01*
X165156228Y-107201296D01*
X165163006Y-107197719D01*
X165169348Y-107193592D01*
X165175252Y-107188914D01*
X165180718Y-107183686D01*
X165185747Y-107177908D01*
X165190339Y-107171579D01*
X165194494Y-107164701D01*
X165198211Y-107157272D01*
X165201491Y-107149292D01*
X165204334Y-107140762D01*
X165206739Y-107131682D01*
X165208707Y-107122052D01*
X165210238Y-107111871D01*
X165211331Y-107101140D01*
X165211987Y-107089859D01*
X165212206Y-107078028D01*
X165212206Y-107076264D01*
X165211941Y-107064102D01*
X165211147Y-107052310D01*
X165209825Y-107040889D01*
X165207973Y-107029838D01*
X165205592Y-107019158D01*
X165202682Y-107008848D01*
X165199242Y-106998908D01*
X165195274Y-106989339D01*
X165190777Y-106980140D01*
X165185750Y-106971312D01*
X165333921Y-106971312D01*
X165337864Y-106981602D01*
X165341463Y-106991891D01*
X165344721Y-107002180D01*
X165347635Y-107012470D01*
X165350206Y-107022759D01*
X165352435Y-107033048D01*
X165354320Y-107043338D01*
X165355863Y-107053627D01*
X165357063Y-107063916D01*
X165357920Y-107074206D01*
X165358434Y-107084495D01*
X165358606Y-107094784D01*
X165358606Y-107099194D01*
X165358444Y-107108607D01*
X165357957Y-107118201D01*
X165357146Y-107127974D01*
X165356011Y-107137928D01*
X165354551Y-107148061D01*
X165352767Y-107158374D01*
X165350658Y-107168868D01*
X165348708Y-107177284D01*
X165346387Y-107186071D01*
X165343697Y-107195228D01*
X165340638Y-107204755D01*
X165337208Y-107214653D01*
X165333410Y-107224920D01*
X165329241Y-107235558D01*
X165324704Y-107246566D01*
X165319796Y-107257944D01*
X165315189Y-107267099D01*
X165310027Y-107275962D01*
X165304312Y-107284534D01*
X165298043Y-107292814D01*
X165291220Y-107300802D01*
X165283842Y-107308499D01*
X165275912Y-107315905D01*
X165267427Y-107323018D01*
X165258388Y-107329841D01*
X165248795Y-107336372D01*
X165238649Y-107342611D01*
X165230194Y-107347227D01*
X165221460Y-107351502D01*
X165212447Y-107355435D01*
X165203155Y-107359026D01*
X165193585Y-107362274D01*
X165183735Y-107365181D01*
X165173607Y-107367746D01*
X165163199Y-107369969D01*
X165152513Y-107371850D01*
X165141548Y-107373389D01*
X165130303Y-107374586D01*
X165118780Y-107375441D01*
X165106978Y-107375954D01*
X165094897Y-107376125D01*
X164582484Y-107376125D01*
X164582484Y-107533111D01*
X164582496Y-107533111D01*
X164582496Y-107533111D01*
G37*
G36*
X165060507Y-106804625D02*
X165058713Y-106640584D01*
X165067872Y-106640385D01*
X165076750Y-106639787D01*
X165085346Y-106638791D01*
X165093660Y-106637396D01*
X165101692Y-106635603D01*
X165109442Y-106633412D01*
X165116911Y-106630822D01*
X165124097Y-106627833D01*
X165131002Y-106624447D01*
X165137625Y-106620661D01*
X165143966Y-106616477D01*
X165150026Y-106611895D01*
X165155803Y-106606915D01*
X165161299Y-106601535D01*
X165166513Y-106595758D01*
X165171445Y-106589582D01*
X165176095Y-106583007D01*
X165180463Y-106576034D01*
X165184550Y-106568663D01*
X165188355Y-106560893D01*
X165191878Y-106552725D01*
X165195119Y-106544158D01*
X165198078Y-106535193D01*
X165200755Y-106525829D01*
X165203151Y-106516067D01*
X165205265Y-106505906D01*
X165207096Y-106495347D01*
X165208647Y-106484390D01*
X165209915Y-106473034D01*
X165210901Y-106461279D01*
X165211606Y-106449127D01*
X165212028Y-106436575D01*
X165212169Y-106423626D01*
X165212169Y-106420980D01*
X165212026Y-106408392D01*
X165211594Y-106396203D01*
X165210875Y-106384414D01*
X165209868Y-106373024D01*
X165208574Y-106362034D01*
X165206992Y-106351444D01*
X165205122Y-106341254D01*
X165202964Y-106331463D01*
X165200519Y-106322071D01*
X165197787Y-106313080D01*
X165194766Y-106304488D01*
X165191458Y-106296295D01*
X165187863Y-106288502D01*
X165183979Y-106281109D01*
X165179808Y-106274116D01*
X165175350Y-106267522D01*
X165170603Y-106261327D01*
X165165569Y-106255533D01*
X165160248Y-106250138D01*
X165154638Y-106245142D01*
X165148741Y-106240547D01*
X165142557Y-106236351D01*
X165136085Y-106232554D01*
X165129325Y-106229157D01*
X165122277Y-106226160D01*
X165114942Y-106223562D01*
X165107319Y-106221364D01*
X165099409Y-106219566D01*
X165091210Y-106218167D01*
X165082725Y-106217168D01*
X165073951Y-106216569D01*
X165064890Y-106216369D01*
X164918478Y-106216369D01*
X164917014Y-106225827D01*
X164915649Y-106235556D01*
X164914384Y-106245554D01*
X164913219Y-106255823D01*
X164912153Y-106266361D01*
X164911186Y-106277169D01*
X164910320Y-106288247D01*
X164909552Y-106299596D01*
X164908884Y-106311214D01*
X164908316Y-106323102D01*
X164907847Y-106335260D01*
X164907478Y-106347689D01*
X164907208Y-106360387D01*
X164907038Y-106373355D01*
X164907183Y-106383758D01*
X164907618Y-106394306D01*
X164908343Y-106404997D01*
X164909358Y-106415832D01*
X164910663Y-106426812D01*
X164912258Y-106437935D01*
X164914143Y-106449202D01*
X164915803Y-106459221D01*
X164917714Y-106469432D01*
X164919875Y-106479836D01*
X164922286Y-106490433D01*
X164924947Y-106501223D01*
X164927859Y-106512206D01*
X164931021Y-106523382D01*
X164934433Y-106534751D01*
X164937797Y-106544746D01*
X164941619Y-106554350D01*
X164945899Y-106563561D01*
X164950635Y-106572381D01*
X164955829Y-106580808D01*
X164961480Y-106588843D01*
X164967589Y-106596487D01*
X164974155Y-106603739D01*
X164981178Y-106610598D01*
X164989529Y-106617626D01*
X164998265Y-106623717D01*
X165007388Y-106628871D01*
X165016896Y-106633088D01*
X165026789Y-106636367D01*
X165037069Y-106638710D01*
X165047734Y-106640116D01*
X165058785Y-106640584D01*
X165058713Y-106640584D01*
X165060507Y-106804625D01*
X165049439Y-106804429D01*
X165038576Y-106803841D01*
X165027919Y-106802861D01*
X165017466Y-106801489D01*
X165007219Y-106799725D01*
X164997176Y-106797569D01*
X164987339Y-106795022D01*
X164977707Y-106792082D01*
X164968280Y-106788750D01*
X164959058Y-106785026D01*
X164950042Y-106780910D01*
X164941230Y-106776403D01*
X164932624Y-106771503D01*
X164924222Y-106766211D01*
X164916026Y-106760528D01*
X164908035Y-106754452D01*
X164900249Y-106747984D01*
X164892668Y-106741125D01*
X164885293Y-106733873D01*
X164878122Y-106726230D01*
X164871157Y-106718194D01*
X164864396Y-106709767D01*
X164857841Y-106700947D01*
X164851491Y-106691736D01*
X164846519Y-106684115D01*
X164841715Y-106676304D01*
X164837080Y-106668303D01*
X164832613Y-106660111D01*
X164828315Y-106651730D01*
X164824185Y-106643159D01*
X164820224Y-106634397D01*
X164816432Y-106625445D01*
X164812808Y-106616303D01*
X164809352Y-106606971D01*
X164806066Y-106597449D01*
X164802947Y-106587737D01*
X164799998Y-106577835D01*
X164797217Y-106567742D01*
X164794604Y-106557460D01*
X164792160Y-106546987D01*
X164789884Y-106536325D01*
X164787777Y-106525472D01*
X164785839Y-106514429D01*
X164784069Y-106503196D01*
X164782468Y-106491773D01*
X164781035Y-106480160D01*
X164779771Y-106468356D01*
X164778676Y-106456363D01*
X164777749Y-106444179D01*
X164776990Y-106431805D01*
X164776400Y-106419242D01*
X164775979Y-106406488D01*
X164775726Y-106393544D01*
X164775642Y-106380410D01*
X164775689Y-106369144D01*
X164775830Y-106357926D01*
X164776065Y-106346755D01*
X164776395Y-106335630D01*
X164776819Y-106324553D01*
X164777337Y-106313523D01*
X164777949Y-106302540D01*
X164778656Y-106291604D01*
X164779456Y-106280715D01*
X164780351Y-106269873D01*
X164781340Y-106259078D01*
X164782423Y-106248330D01*
X164783601Y-106237629D01*
X164784872Y-106226975D01*
X164786238Y-106216368D01*
X164773076Y-106217171D01*
X164760360Y-106218333D01*
X164748089Y-106219856D01*
X164736264Y-106221739D01*
X164724884Y-106223982D01*
X164713950Y-106226585D01*
X164703461Y-106229549D01*
X164693418Y-106232872D01*
X164683820Y-106236555D01*
X164674668Y-106240599D01*
X164665961Y-106245002D01*
X164657700Y-106249766D01*
X164649884Y-106254890D01*
X164642514Y-106260374D01*
X164635589Y-106266218D01*
X164629110Y-106272422D01*
X164623076Y-106278986D01*
X164618015Y-106285130D01*
X164613227Y-106291680D01*
X164608713Y-106298636D01*
X164604472Y-106305997D01*
X164600505Y-106313763D01*
X164596812Y-106321935D01*
X164593392Y-106330513D01*
X164590246Y-106339496D01*
X164587373Y-106348884D01*
X164584774Y-106358679D01*
X164582449Y-106368878D01*
X164580397Y-106379484D01*
X164578618Y-106390495D01*
X164577114Y-106401911D01*
X164575883Y-106413733D01*
X164574925Y-106425960D01*
X164574241Y-106438594D01*
X164573831Y-106451632D01*
X164573694Y-106465076D01*
X164573779Y-106475305D01*
X164574034Y-106485589D01*
X164574459Y-106495931D01*
X164575054Y-106506329D01*
X164575819Y-106516784D01*
X164576755Y-106527296D01*
X164577860Y-106537864D01*
X164579135Y-106548489D01*
X164580580Y-106559171D01*
X164582196Y-106569909D01*
X164583981Y-106580704D01*
X164585937Y-106591556D01*
X164588062Y-106602465D01*
X164590358Y-106613430D01*
X164592823Y-106624452D01*
X164595459Y-106635530D01*
X164598264Y-106646665D01*
X164601240Y-106657857D01*
X164604386Y-106669106D01*
X164607701Y-106680411D01*
X164611187Y-106691773D01*
X164614843Y-106703191D01*
X164618669Y-106714667D01*
X164477555Y-106714667D01*
X164473752Y-106704409D01*
X164470105Y-106694098D01*
X164466612Y-106683734D01*
X164463275Y-106673315D01*
X164460094Y-106662844D01*
X164457067Y-106652318D01*
X164454196Y-106641739D01*
X164451479Y-106631106D01*
X164448919Y-106620420D01*
X164446513Y-106609680D01*
X164444262Y-106598886D01*
X164442167Y-106588039D01*
X164440227Y-106577138D01*
X164438442Y-106566184D01*
X164436812Y-106555176D01*
X164435338Y-106544114D01*
X164434018Y-106532999D01*
X164432854Y-106521830D01*
X164431845Y-106510607D01*
X164430992Y-106499331D01*
X164430293Y-106488001D01*
X164429750Y-106476618D01*
X164429362Y-106465181D01*
X164429129Y-106453690D01*
X164429052Y-106442146D01*
X164429160Y-106429717D01*
X164429487Y-106417479D01*
X164430031Y-106405430D01*
X164430792Y-106393572D01*
X164431771Y-106381904D01*
X164432968Y-106370426D01*
X164434382Y-106359138D01*
X164436013Y-106348040D01*
X164437862Y-106337133D01*
X164439929Y-106326415D01*
X164442213Y-106315888D01*
X164444715Y-106305550D01*
X164447435Y-106295403D01*
X164450371Y-106285446D01*
X164453526Y-106275679D01*
X164456898Y-106266102D01*
X164460488Y-106256715D01*
X164464295Y-106247518D01*
X164468319Y-106238512D01*
X164472562Y-106229695D01*
X164477021Y-106221069D01*
X164481699Y-106212633D01*
X164486593Y-106204386D01*
X164491706Y-106196330D01*
X164497036Y-106188464D01*
X164502583Y-106180788D01*
X164508348Y-106173303D01*
X164514331Y-106166007D01*
X164520531Y-106158902D01*
X164526949Y-106151986D01*
X164533742Y-106145052D01*
X164540738Y-106138362D01*
X164547937Y-106131914D01*
X164555340Y-106125710D01*
X164562946Y-106119749D01*
X164570756Y-106114032D01*
X164578769Y-106108558D01*
X164586986Y-106103327D01*
X164595406Y-106098340D01*
X164604030Y-106093595D01*
X164612856Y-106089094D01*
X164621887Y-106084837D01*
X164631121Y-106080822D01*
X164640558Y-106077051D01*
X164650199Y-106073523D01*
X164660043Y-106070239D01*
X164670090Y-106067198D01*
X164680341Y-106064400D01*
X164690795Y-106061845D01*
X164701453Y-106059534D01*
X164712315Y-106057466D01*
X164723379Y-106055641D01*
X164734647Y-106054060D01*
X164746119Y-106052722D01*
X164757794Y-106051627D01*
X164769672Y-106050775D01*
X164781754Y-106050167D01*
X164794039Y-106049802D01*
X164806528Y-106049680D01*
X165066696Y-106049680D01*
X165076398Y-106049852D01*
X165086099Y-106050366D01*
X165095801Y-106051224D01*
X165105502Y-106052424D01*
X165115203Y-106053968D01*
X165124905Y-106055854D01*
X165133311Y-106057708D01*
X165142401Y-106060246D01*
X165152174Y-106063468D01*
X165162631Y-106067374D01*
X165173772Y-106071963D01*
X165185597Y-106077237D01*
X165198105Y-106083194D01*
X165207960Y-106088094D01*
X165217532Y-106093386D01*
X165226821Y-106099069D01*
X165235827Y-106105145D01*
X165244549Y-106111613D01*
X165252987Y-106118472D01*
X165261143Y-106125724D01*
X165269015Y-106133367D01*
X165276603Y-106141403D01*
X165282127Y-106147834D01*
X165287529Y-106154779D01*
X165292808Y-106162239D01*
X165297965Y-106170213D01*
X165302999Y-106178702D01*
X165307911Y-106187705D01*
X165312701Y-106197222D01*
X165317368Y-106207255D01*
X165321912Y-106217801D01*
X165326335Y-106228862D01*
X165330634Y-106240438D01*
X165334812Y-106252528D01*
X165337695Y-106261878D01*
X165340391Y-106271407D01*
X165342902Y-106281115D01*
X165345227Y-106291003D01*
X165347366Y-106301069D01*
X165349319Y-106311315D01*
X165351086Y-106321740D01*
X165352666Y-106332344D01*
X165354061Y-106343127D01*
X165355270Y-106354089D01*
X165356293Y-106365231D01*
X165357130Y-106376551D01*
X165357781Y-106388051D01*
X165358246Y-106399730D01*
X165358525Y-106411588D01*
X165358618Y-106423625D01*
X165358521Y-106435986D01*
X165358232Y-106448154D01*
X165357750Y-106460129D01*
X165357075Y-106471911D01*
X165356207Y-106483501D01*
X165355147Y-106494897D01*
X165353893Y-106506101D01*
X165352447Y-106517111D01*
X165350807Y-106527929D01*
X165348975Y-106538553D01*
X165346950Y-106548985D01*
X165344733Y-106559224D01*
X165342322Y-106569270D01*
X165339718Y-106579123D01*
X165336922Y-106588783D01*
X165333933Y-106598250D01*
X165329613Y-106610487D01*
X165325183Y-106622209D01*
X165320644Y-106633417D01*
X165315994Y-106644111D01*
X165311234Y-106654290D01*
X165306364Y-106663955D01*
X165301384Y-106673105D01*
X165296294Y-106681741D01*
X165291094Y-106689862D01*
X165285784Y-106697469D01*
X165280363Y-106704561D01*
X165274833Y-106711139D01*
X165268007Y-106718574D01*
X165260934Y-106725709D01*
X165253614Y-106732544D01*
X165246047Y-106739079D01*
X165238233Y-106745314D01*
X165230172Y-106751250D01*
X165221863Y-106756885D01*
X165213308Y-106762221D01*
X165204505Y-106767257D01*
X165195456Y-106771993D01*
X165184240Y-106777243D01*
X165173521Y-106781970D01*
X165163297Y-106786173D01*
X165153570Y-106789852D01*
X165144338Y-106793008D01*
X165135602Y-106795640D01*
X165127362Y-106797749D01*
X165119619Y-106799333D01*
X165109645Y-106800950D01*
X165099721Y-106802273D01*
X165089846Y-106803302D01*
X165080021Y-106804037D01*
X165070245Y-106804479D01*
X165060519Y-106804626D01*
X165060507Y-106804625D01*
X165060507Y-106804625D01*
G37*
G36*
X165238661Y-105753347D02*
X165231720Y-105759507D01*
X165224607Y-105765489D01*
X165217321Y-105771291D01*
X165209862Y-105776916D01*
X165202231Y-105782361D01*
X165194426Y-105787629D01*
X165186449Y-105792717D01*
X165178299Y-105797627D01*
X165169977Y-105802359D01*
X165161481Y-105806912D01*
X165152813Y-105811286D01*
X165143972Y-105815482D01*
X165134958Y-105819500D01*
X165125771Y-105823338D01*
X165116412Y-105826999D01*
X165106880Y-105830480D01*
X165097175Y-105833783D01*
X165087297Y-105836908D01*
X165077246Y-105839854D01*
X165067023Y-105842622D01*
X165056627Y-105845211D01*
X165046058Y-105847621D01*
X165035316Y-105849853D01*
X165024401Y-105851906D01*
X165013314Y-105853781D01*
X165002054Y-105855477D01*
X164990621Y-105856995D01*
X164979015Y-105858334D01*
X164967237Y-105859494D01*
X164955286Y-105860476D01*
X164943162Y-105861280D01*
X164930865Y-105861905D01*
X164918395Y-105862351D01*
X164905753Y-105862619D01*
X164892938Y-105862708D01*
X164880123Y-105862619D01*
X164867483Y-105862351D01*
X164855017Y-105861905D01*
X164842725Y-105861280D01*
X164830608Y-105860476D01*
X164818665Y-105859494D01*
X164806896Y-105858334D01*
X164795301Y-105856995D01*
X164783880Y-105855477D01*
X164772634Y-105853781D01*
X164761562Y-105851906D01*
X164750664Y-105849853D01*
X164739941Y-105847621D01*
X164729391Y-105845211D01*
X164719016Y-105842622D01*
X164708815Y-105839854D01*
X164698789Y-105836908D01*
X164688936Y-105833783D01*
X164679258Y-105830480D01*
X164669754Y-105826999D01*
X164660425Y-105823338D01*
X164651269Y-105819500D01*
X164642288Y-105815482D01*
X164633481Y-105811286D01*
X164624849Y-105806912D01*
X164616390Y-105802359D01*
X164608106Y-105797627D01*
X164599996Y-105792717D01*
X164592061Y-105787629D01*
X164584299Y-105782361D01*
X164576712Y-105776916D01*
X164569299Y-105771291D01*
X164562060Y-105765489D01*
X164554996Y-105759507D01*
X164548106Y-105753347D01*
X164540999Y-105746631D01*
X164534111Y-105739738D01*
X164527441Y-105732669D01*
X164520991Y-105725423D01*
X164514759Y-105718001D01*
X164508745Y-105710402D01*
X164502950Y-105702626D01*
X164497374Y-105694674D01*
X164492017Y-105686545D01*
X164486878Y-105678240D01*
X164481958Y-105669758D01*
X164477256Y-105661100D01*
X164472774Y-105652265D01*
X164468510Y-105643254D01*
X164464464Y-105634066D01*
X164460638Y-105624702D01*
X164457029Y-105615161D01*
X164453640Y-105605443D01*
X164450469Y-105595549D01*
X164447517Y-105585478D01*
X164444784Y-105575231D01*
X164442269Y-105564807D01*
X164439973Y-105554207D01*
X164437896Y-105543430D01*
X164436037Y-105532476D01*
X164434397Y-105521346D01*
X164432976Y-105510040D01*
X164431773Y-105498557D01*
X164430789Y-105486897D01*
X164430024Y-105475061D01*
X164429477Y-105463048D01*
X164429149Y-105450859D01*
X164429040Y-105438493D01*
X164429120Y-105427502D01*
X164429361Y-105416542D01*
X164429764Y-105405613D01*
X164430327Y-105394715D01*
X164431051Y-105383848D01*
X164431935Y-105373012D01*
X164432981Y-105362207D01*
X164434188Y-105351433D01*
X164435555Y-105340690D01*
X164437083Y-105329979D01*
X164438772Y-105319298D01*
X164440623Y-105308648D01*
X164442633Y-105298030D01*
X164444805Y-105287442D01*
X164447138Y-105276885D01*
X164449632Y-105266360D01*
X164452286Y-105255866D01*
X164455101Y-105245402D01*
X164458077Y-105234970D01*
X164461214Y-105224569D01*
X164464512Y-105214198D01*
X164467971Y-105203859D01*
X164471591Y-105193551D01*
X164475371Y-105183274D01*
X164479313Y-105173028D01*
X164636298Y-105173028D01*
X164631476Y-105183248D01*
X164626860Y-105193478D01*
X164622449Y-105203717D01*
X164618243Y-105213965D01*
X164614242Y-105224222D01*
X164610447Y-105234488D01*
X164606856Y-105244764D01*
X164603471Y-105255049D01*
X164600291Y-105265342D01*
X164597316Y-105275646D01*
X164594546Y-105285958D01*
X164591982Y-105296279D01*
X164589623Y-105306610D01*
X164587468Y-105316950D01*
X164585519Y-105327299D01*
X164583775Y-105337657D01*
X164582237Y-105348025D01*
X164580903Y-105358401D01*
X164579775Y-105368787D01*
X164578851Y-105379182D01*
X164578133Y-105389586D01*
X164577620Y-105400000D01*
X164577313Y-105410422D01*
X164577210Y-105420854D01*
X164577210Y-105424382D01*
X164577371Y-105436683D01*
X164577854Y-105448715D01*
X164578658Y-105460478D01*
X164579785Y-105471972D01*
X164581233Y-105483197D01*
X164583004Y-105494153D01*
X164585096Y-105504840D01*
X164587510Y-105515258D01*
X164590246Y-105525407D01*
X164593303Y-105535287D01*
X164596683Y-105544898D01*
X164600385Y-105554240D01*
X164604408Y-105563313D01*
X164608753Y-105572117D01*
X164613420Y-105580652D01*
X164618409Y-105588918D01*
X164623720Y-105596915D01*
X164629353Y-105604643D01*
X164635307Y-105612102D01*
X164641584Y-105619292D01*
X164646653Y-105624615D01*
X164652090Y-105629729D01*
X164657895Y-105634635D01*
X164664067Y-105639331D01*
X164670608Y-105643819D01*
X164677516Y-105648099D01*
X164684793Y-105652169D01*
X164692437Y-105656031D01*
X164700449Y-105659684D01*
X164708829Y-105663128D01*
X164717576Y-105666364D01*
X164726692Y-105669391D01*
X164736176Y-105672209D01*
X164746027Y-105674818D01*
X164756246Y-105677218D01*
X164766833Y-105679410D01*
X164777788Y-105681393D01*
X164789111Y-105683168D01*
X164800802Y-105684733D01*
X164812861Y-105686090D01*
X164825287Y-105687238D01*
X164838082Y-105688178D01*
X164851244Y-105688908D01*
X164864774Y-105689430D01*
X164878672Y-105689743D01*
X164892938Y-105689848D01*
X164906078Y-105689757D01*
X164918920Y-105689487D01*
X164931464Y-105689036D01*
X164943710Y-105688405D01*
X164955658Y-105687594D01*
X164967308Y-105686602D01*
X164978660Y-105685430D01*
X164989714Y-105684078D01*
X165000470Y-105682545D01*
X165010928Y-105680832D01*
X165021088Y-105678939D01*
X165030950Y-105676865D01*
X165040515Y-105674611D01*
X165049781Y-105672177D01*
X165058749Y-105669563D01*
X165070338Y-105665554D01*
X165081374Y-105661224D01*
X165091855Y-105656574D01*
X165101783Y-105651603D01*
X165111157Y-105646312D01*
X165119977Y-105640699D01*
X165128242Y-105634766D01*
X165135954Y-105628512D01*
X165143113Y-105621938D01*
X165149717Y-105615043D01*
X165155767Y-105607827D01*
X165162560Y-105598615D01*
X165168830Y-105589404D01*
X165174577Y-105580192D01*
X165179802Y-105570981D01*
X165184505Y-105561770D01*
X165188686Y-105552558D01*
X165192344Y-105543347D01*
X165195480Y-105534135D01*
X165198093Y-105524924D01*
X165200106Y-105516298D01*
X165201908Y-105507356D01*
X165203497Y-105498095D01*
X165204875Y-105488517D01*
X165206040Y-105478622D01*
X165206994Y-105468409D01*
X165207736Y-105457879D01*
X165208266Y-105447031D01*
X165208583Y-105435865D01*
X165208689Y-105424382D01*
X165208590Y-105413592D01*
X165208291Y-105402830D01*
X165207794Y-105392095D01*
X165207097Y-105381387D01*
X165206201Y-105370708D01*
X165205106Y-105360055D01*
X165203812Y-105349431D01*
X165202319Y-105338834D01*
X165200627Y-105328264D01*
X165198736Y-105317722D01*
X165196646Y-105307208D01*
X165194357Y-105296721D01*
X165191869Y-105286261D01*
X165189181Y-105275830D01*
X165186295Y-105265426D01*
X165183210Y-105255049D01*
X165179925Y-105244700D01*
X165176442Y-105234378D01*
X165172759Y-105224084D01*
X165168877Y-105213818D01*
X165164796Y-105203579D01*
X165160517Y-105193368D01*
X165156038Y-105183184D01*
X165151360Y-105173028D01*
X165308345Y-105173028D01*
X165312286Y-105183274D01*
X165316067Y-105193551D01*
X165319686Y-105203859D01*
X165323145Y-105214199D01*
X165326443Y-105224569D01*
X165329580Y-105234970D01*
X165332556Y-105245403D01*
X165335372Y-105255866D01*
X165338026Y-105266360D01*
X165340520Y-105276886D01*
X165342852Y-105287442D01*
X165345024Y-105298030D01*
X165347035Y-105308649D01*
X165348885Y-105319298D01*
X165350574Y-105329979D01*
X165352102Y-105340691D01*
X165353470Y-105351433D01*
X165354676Y-105362207D01*
X165355722Y-105373012D01*
X165356607Y-105383848D01*
X165357331Y-105394715D01*
X165357894Y-105405613D01*
X165358296Y-105416542D01*
X165358537Y-105427502D01*
X165358618Y-105438493D01*
X165358508Y-105450859D01*
X165358177Y-105463049D01*
X165357627Y-105475061D01*
X165356856Y-105486897D01*
X165355864Y-105498557D01*
X165354653Y-105510040D01*
X165353221Y-105521347D01*
X165351569Y-105532477D01*
X165349696Y-105543430D01*
X165347604Y-105554207D01*
X165345291Y-105564807D01*
X165342757Y-105575231D01*
X165340004Y-105585478D01*
X165337030Y-105595549D01*
X165333836Y-105605443D01*
X165330421Y-105615161D01*
X165326787Y-105624702D01*
X165322932Y-105634066D01*
X165318856Y-105643254D01*
X165314561Y-105652266D01*
X165310045Y-105661101D01*
X165305309Y-105669759D01*
X165300352Y-105678241D01*
X165295176Y-105686546D01*
X165289779Y-105694674D01*
X165284162Y-105702626D01*
X165278324Y-105710402D01*
X165272266Y-105718001D01*
X165265988Y-105725423D01*
X165259490Y-105732669D01*
X165252771Y-105739739D01*
X165245832Y-105746631D01*
X165238673Y-105753348D01*
X165238661Y-105753347D01*
X165238661Y-105753347D01*
G37*
G36*
X165344493Y-104976354D02*
X164100078Y-104976354D01*
X164100078Y-104811430D01*
X164820629Y-104811430D01*
X164443152Y-104421611D01*
X164443152Y-104197597D01*
X164818858Y-104589180D01*
X165344493Y-104145562D01*
X165344493Y-104365167D01*
X164925570Y-104699423D01*
X165034052Y-104811430D01*
X165344493Y-104811430D01*
X165344493Y-104976354D01*
X165344493Y-104976354D01*
G37*
G36*
X150056953Y-125484474D02*
X150056953Y-124274004D01*
X150342452Y-124126488D01*
X150333517Y-124131578D01*
X150325125Y-124137019D01*
X150317273Y-124142811D01*
X150309964Y-124148955D01*
X150303195Y-124155449D01*
X150296969Y-124162294D01*
X150291283Y-124169490D01*
X150286139Y-124177037D01*
X150281537Y-124184935D01*
X150277476Y-124193185D01*
X150273956Y-124201785D01*
X150270978Y-124210736D01*
X150268542Y-124220039D01*
X150266647Y-124229692D01*
X150265293Y-124239696D01*
X150264481Y-124250052D01*
X150264210Y-124260758D01*
X150264210Y-124842844D01*
X150264210Y-124842828D01*
X150277211Y-124847711D01*
X150290246Y-124852315D01*
X150303316Y-124856640D01*
X150316419Y-124860686D01*
X150329556Y-124864452D01*
X150342728Y-124867940D01*
X150355933Y-124871149D01*
X150369172Y-124874078D01*
X150382446Y-124876729D01*
X150395753Y-124879101D01*
X150409095Y-124881193D01*
X150422470Y-124883007D01*
X150435880Y-124884541D01*
X150449323Y-124885797D01*
X150462801Y-124886774D01*
X150476312Y-124887471D01*
X150489858Y-124887890D01*
X150503437Y-124888029D01*
X150518613Y-124887866D01*
X150533271Y-124887375D01*
X150547412Y-124886557D01*
X150561036Y-124885413D01*
X150574143Y-124883941D01*
X150586732Y-124882142D01*
X150598804Y-124880016D01*
X150610360Y-124877564D01*
X150621397Y-124874784D01*
X150633765Y-124871094D01*
X150646064Y-124866647D01*
X150658294Y-124861444D01*
X150670456Y-124855483D01*
X150682548Y-124848766D01*
X150694571Y-124841292D01*
X150706526Y-124833061D01*
X150718411Y-124824074D01*
X150726839Y-124816911D01*
X150734884Y-124809055D01*
X150742546Y-124800508D01*
X150749826Y-124791268D01*
X150756723Y-124781337D01*
X150763237Y-124770713D01*
X150769369Y-124759397D01*
X150775118Y-124747389D01*
X150780485Y-124734688D01*
X150785468Y-124721296D01*
X150790069Y-124707211D01*
X150793337Y-124696294D01*
X150796380Y-124685005D01*
X150799197Y-124673343D01*
X150801789Y-124661309D01*
X150804156Y-124648902D01*
X150806297Y-124636123D01*
X150808213Y-124622972D01*
X150809903Y-124609448D01*
X150811368Y-124595552D01*
X150812608Y-124581284D01*
X150813622Y-124566644D01*
X150814411Y-124551631D01*
X150814974Y-124536245D01*
X150815313Y-124520488D01*
X150815425Y-124504358D01*
X150815326Y-124488137D01*
X150815029Y-124472269D01*
X150814534Y-124456755D01*
X150813841Y-124441593D01*
X150812949Y-124426785D01*
X150811860Y-124412329D01*
X150810572Y-124398227D01*
X150809086Y-124384477D01*
X150807402Y-124371081D01*
X150805521Y-124358037D01*
X150803441Y-124345347D01*
X150801163Y-124333009D01*
X150798686Y-124321025D01*
X150796012Y-124309393D01*
X150793140Y-124298115D01*
X150790069Y-124287189D01*
X150785477Y-124271744D01*
X150780521Y-124257083D01*
X150775200Y-124243205D01*
X150769515Y-124230112D01*
X150763465Y-124217802D01*
X150757051Y-124206277D01*
X150750273Y-124195535D01*
X150743129Y-124185577D01*
X150735622Y-124176403D01*
X150727750Y-124168014D01*
X150719514Y-124160408D01*
X150707955Y-124150881D01*
X150696432Y-124142147D01*
X150684942Y-124134205D01*
X150673487Y-124127057D01*
X150662067Y-124120700D01*
X150650681Y-124115136D01*
X150639329Y-124110365D01*
X150628012Y-124106387D01*
X150616505Y-124103035D01*
X150604585Y-124100131D01*
X150592252Y-124097673D01*
X150579505Y-124095662D01*
X150566345Y-124094098D01*
X150552771Y-124092981D01*
X150538784Y-124092311D01*
X150524384Y-124092087D01*
X150507869Y-124092263D01*
X150491896Y-124092789D01*
X150476464Y-124093667D01*
X150461574Y-124094896D01*
X150447225Y-124096475D01*
X150433418Y-124098406D01*
X150420152Y-124100688D01*
X150407427Y-124103320D01*
X150395244Y-124106304D01*
X150383603Y-124109639D01*
X150372503Y-124113325D01*
X150361944Y-124117362D01*
X150351927Y-124121750D01*
X150342452Y-124126488D01*
X150056953Y-124274004D01*
X150057137Y-124261908D01*
X150057688Y-124249873D01*
X150058607Y-124237898D01*
X150059893Y-124225985D01*
X150061546Y-124214133D01*
X150063568Y-124202342D01*
X150065862Y-124191565D01*
X150068967Y-124180024D01*
X150072882Y-124167717D01*
X150077607Y-124154646D01*
X150083141Y-124140809D01*
X150089486Y-124126208D01*
X150096641Y-124110842D01*
X150102997Y-124098756D01*
X150109815Y-124086998D01*
X150117097Y-124075565D01*
X150124841Y-124064460D01*
X150133048Y-124053681D01*
X150141718Y-124043229D01*
X150150850Y-124033104D01*
X150160445Y-124023305D01*
X150170503Y-124013833D01*
X150178542Y-124006933D01*
X150187224Y-124000202D01*
X150196548Y-123993640D01*
X150206516Y-123987246D01*
X150217127Y-123981021D01*
X150228381Y-123974965D01*
X150240278Y-123969078D01*
X150252818Y-123963359D01*
X150266001Y-123957809D01*
X150279828Y-123952427D01*
X150294297Y-123947215D01*
X150309410Y-123942171D01*
X150321101Y-123938433D01*
X150333026Y-123934935D01*
X150345183Y-123931679D01*
X150357572Y-123928665D01*
X150370194Y-123925891D01*
X150383049Y-123923359D01*
X150396136Y-123921067D01*
X150409455Y-123919017D01*
X150423007Y-123917208D01*
X150436792Y-123915641D01*
X150450809Y-123914314D01*
X150465059Y-123913229D01*
X150479541Y-123912385D01*
X150494256Y-123911782D01*
X150509204Y-123911420D01*
X150524384Y-123911300D01*
X150538307Y-123911435D01*
X150552148Y-123911842D01*
X150565908Y-123912520D01*
X150579587Y-123913470D01*
X150593183Y-123914691D01*
X150606698Y-123916183D01*
X150620132Y-123917946D01*
X150633483Y-123919981D01*
X150646753Y-123922287D01*
X150657860Y-123924514D01*
X150669130Y-123927197D01*
X150680564Y-123930336D01*
X150692163Y-123933933D01*
X150703925Y-123937986D01*
X150715851Y-123942496D01*
X150727941Y-123947463D01*
X150740196Y-123952887D01*
X150752614Y-123958767D01*
X150765196Y-123965104D01*
X150777943Y-123971898D01*
X150789748Y-123978491D01*
X150801277Y-123985405D01*
X150812531Y-123992641D01*
X150823510Y-124000197D01*
X150834213Y-124008075D01*
X150844640Y-124016275D01*
X150854791Y-124024796D01*
X150864667Y-124033638D01*
X150874267Y-124042801D01*
X150883592Y-124052286D01*
X150892641Y-124062092D01*
X150901415Y-124072219D01*
X150908245Y-124080677D01*
X150914918Y-124089585D01*
X150921435Y-124098944D01*
X150927795Y-124108754D01*
X150933998Y-124119015D01*
X150940044Y-124129727D01*
X150945933Y-124140889D01*
X150951666Y-124152502D01*
X150957242Y-124164566D01*
X150962661Y-124177080D01*
X150967923Y-124190045D01*
X150973029Y-124203461D01*
X150977977Y-124217328D01*
X150982769Y-124231646D01*
X150987404Y-124246414D01*
X150991020Y-124258232D01*
X150994440Y-124270245D01*
X150997665Y-124282453D01*
X151000695Y-124294857D01*
X151003529Y-124307456D01*
X151006167Y-124320251D01*
X151008610Y-124333242D01*
X151010858Y-124346428D01*
X151012910Y-124359809D01*
X151014767Y-124373386D01*
X151016428Y-124387158D01*
X151017894Y-124401126D01*
X151019164Y-124415289D01*
X151020239Y-124429647D01*
X151021119Y-124444202D01*
X151021803Y-124458951D01*
X151022291Y-124473896D01*
X151022584Y-124489037D01*
X151022682Y-124504373D01*
X151022577Y-124520222D01*
X151022262Y-124535851D01*
X151021737Y-124551260D01*
X151021002Y-124566450D01*
X151020057Y-124581419D01*
X151018902Y-124596168D01*
X151017537Y-124610697D01*
X151015963Y-124625006D01*
X151014178Y-124639096D01*
X151012183Y-124652965D01*
X151009978Y-124666614D01*
X151007563Y-124680043D01*
X151004938Y-124693252D01*
X151002103Y-124706241D01*
X150999059Y-124719010D01*
X150995804Y-124731560D01*
X150992339Y-124743889D01*
X150988664Y-124755998D01*
X150984780Y-124767887D01*
X150980685Y-124779556D01*
X150976380Y-124791005D01*
X150970592Y-124805513D01*
X150964529Y-124819548D01*
X150958190Y-124833109D01*
X150951575Y-124846196D01*
X150944685Y-124858810D01*
X150937519Y-124870950D01*
X150930078Y-124882616D01*
X150922361Y-124893809D01*
X150914368Y-124904528D01*
X150906100Y-124914774D01*
X150897556Y-124924545D01*
X150888737Y-124933843D01*
X150879642Y-124942668D01*
X150870271Y-124951018D01*
X150860625Y-124958895D01*
X150850703Y-124966299D01*
X150839189Y-124974324D01*
X150827642Y-124982023D01*
X150816061Y-124989396D01*
X150804446Y-124996443D01*
X150792797Y-125003164D01*
X150781115Y-125009559D01*
X150769399Y-125015628D01*
X150757649Y-125021370D01*
X150745865Y-125026787D01*
X150734048Y-125031877D01*
X150722197Y-125036642D01*
X150710312Y-125041080D01*
X150698393Y-125045192D01*
X150686441Y-125048979D01*
X150674539Y-125052319D01*
X150662457Y-125055412D01*
X150650196Y-125058257D01*
X150637754Y-125060855D01*
X150625132Y-125063206D01*
X150612331Y-125065309D01*
X150599349Y-125067165D01*
X150586187Y-125068773D01*
X150572846Y-125070134D01*
X150559324Y-125071248D01*
X150545622Y-125072114D01*
X150531741Y-125072732D01*
X150517679Y-125073103D01*
X150503437Y-125073227D01*
X150489626Y-125073125D01*
X150475877Y-125072819D01*
X150462188Y-125072309D01*
X150448561Y-125071594D01*
X150434995Y-125070676D01*
X150421490Y-125069553D01*
X150408047Y-125068226D01*
X150394664Y-125066695D01*
X150381343Y-125064960D01*
X150368083Y-125063021D01*
X150354885Y-125060877D01*
X150341748Y-125058530D01*
X150328672Y-125055978D01*
X150315657Y-125053223D01*
X150302703Y-125050263D01*
X150289811Y-125047099D01*
X150276980Y-125043731D01*
X150264210Y-125040158D01*
X150264210Y-125484444D01*
X150056953Y-125484444D01*
X150056953Y-125484474D01*
X150056953Y-125484474D01*
G37*
G36*
X151303802Y-124785526D02*
X151489010Y-124285022D01*
X151486073Y-124295396D01*
X151483326Y-124306123D01*
X151480768Y-124317204D01*
X151478400Y-124328637D01*
X151476220Y-124340424D01*
X151474231Y-124352564D01*
X151472431Y-124365057D01*
X151470820Y-124377903D01*
X151469399Y-124391102D01*
X151468168Y-124404655D01*
X151467125Y-124418560D01*
X151466273Y-124432819D01*
X151465610Y-124447431D01*
X151465136Y-124462396D01*
X151464852Y-124477714D01*
X151464757Y-124493385D01*
X151464852Y-124509060D01*
X151465136Y-124524391D01*
X151465610Y-124539377D01*
X151466273Y-124554019D01*
X151467125Y-124568316D01*
X151468168Y-124582269D01*
X151469399Y-124595877D01*
X151470820Y-124609141D01*
X151472431Y-124622060D01*
X151474231Y-124634635D01*
X151476220Y-124646865D01*
X151478400Y-124658750D01*
X151480768Y-124670291D01*
X151483326Y-124681487D01*
X151486073Y-124692339D01*
X151489010Y-124702846D01*
X151493821Y-124717333D01*
X151499033Y-124731127D01*
X151504645Y-124744229D01*
X151510658Y-124756639D01*
X151517072Y-124768356D01*
X151523887Y-124779381D01*
X151531103Y-124789713D01*
X151538720Y-124799353D01*
X151546738Y-124808301D01*
X151555156Y-124816556D01*
X151563976Y-124824119D01*
X151575014Y-124832610D01*
X151586079Y-124840447D01*
X151597171Y-124847632D01*
X151608291Y-124854163D01*
X151619438Y-124860042D01*
X151630612Y-124865267D01*
X151641813Y-124869840D01*
X151653041Y-124873760D01*
X151664297Y-124877026D01*
X151675825Y-124879806D01*
X151687870Y-124882259D01*
X151700432Y-124884385D01*
X151713512Y-124886184D01*
X151727108Y-124887656D01*
X151741222Y-124888800D01*
X151755853Y-124889618D01*
X151771001Y-124890108D01*
X151786667Y-124890272D01*
X151802563Y-124890108D01*
X151817916Y-124889618D01*
X151832724Y-124888800D01*
X151846987Y-124887656D01*
X151860706Y-124886184D01*
X151873881Y-124884385D01*
X151886511Y-124882259D01*
X151898597Y-124879806D01*
X151910139Y-124877026D01*
X151921394Y-124873757D01*
X151932623Y-124869835D01*
X151943824Y-124865261D01*
X151954998Y-124860034D01*
X151966145Y-124854156D01*
X151977265Y-124847625D01*
X151988357Y-124840442D01*
X151999422Y-124832607D01*
X152010460Y-124824119D01*
X152019270Y-124816556D01*
X152027662Y-124808301D01*
X152035634Y-124799353D01*
X152043187Y-124789713D01*
X152050321Y-124779381D01*
X152057035Y-124768356D01*
X152063331Y-124756639D01*
X152069208Y-124744229D01*
X152074665Y-124731127D01*
X152079704Y-124717333D01*
X152084323Y-124702846D01*
X152087393Y-124692339D01*
X152090266Y-124681487D01*
X152092940Y-124670291D01*
X152095416Y-124658750D01*
X152097694Y-124646865D01*
X152099774Y-124634635D01*
X152101656Y-124622060D01*
X152103340Y-124609141D01*
X152104826Y-124595877D01*
X152106113Y-124582269D01*
X152107203Y-124568316D01*
X152108094Y-124554019D01*
X152108787Y-124539377D01*
X152109283Y-124524391D01*
X152109580Y-124509060D01*
X152109679Y-124493385D01*
X152109580Y-124477714D01*
X152109283Y-124462396D01*
X152108787Y-124447431D01*
X152108094Y-124432819D01*
X152107203Y-124418560D01*
X152106113Y-124404655D01*
X152104826Y-124391102D01*
X152103340Y-124377903D01*
X152101656Y-124365057D01*
X152099774Y-124352564D01*
X152097694Y-124340424D01*
X152095416Y-124328637D01*
X152092940Y-124317204D01*
X152090266Y-124306123D01*
X152087393Y-124295396D01*
X152084323Y-124285022D01*
X152079704Y-124270345D01*
X152074665Y-124256378D01*
X152069208Y-124243121D01*
X152063331Y-124230576D01*
X152057035Y-124218740D01*
X152050321Y-124207616D01*
X152043187Y-124197201D01*
X152035634Y-124187498D01*
X152027662Y-124178505D01*
X152019270Y-124170222D01*
X152010460Y-124162650D01*
X151999422Y-124154160D01*
X151988357Y-124146322D01*
X151977265Y-124139138D01*
X151966145Y-124132606D01*
X151954998Y-124126728D01*
X151943824Y-124121502D01*
X151932623Y-124116929D01*
X151921394Y-124113010D01*
X151910139Y-124109743D01*
X151898597Y-124106963D01*
X151886511Y-124104510D01*
X151873881Y-124102384D01*
X151860706Y-124100586D01*
X151846987Y-124099114D01*
X151832724Y-124097969D01*
X151817916Y-124097152D01*
X151802563Y-124096661D01*
X151786667Y-124096497D01*
X151771001Y-124096661D01*
X151755853Y-124097152D01*
X151741222Y-124097969D01*
X151727108Y-124099114D01*
X151713512Y-124100586D01*
X151700432Y-124102384D01*
X151687870Y-124104510D01*
X151675825Y-124106963D01*
X151664297Y-124109743D01*
X151653041Y-124113013D01*
X151641813Y-124116935D01*
X151630612Y-124121509D01*
X151619438Y-124126735D01*
X151608291Y-124132614D01*
X151597171Y-124139144D01*
X151586079Y-124146327D01*
X151575014Y-124154163D01*
X151563976Y-124162650D01*
X151555156Y-124170222D01*
X151546738Y-124178505D01*
X151538720Y-124187498D01*
X151531103Y-124197201D01*
X151523887Y-124207616D01*
X151517072Y-124218740D01*
X151510658Y-124230576D01*
X151504645Y-124243121D01*
X151499033Y-124256378D01*
X151493821Y-124270345D01*
X151489010Y-124285022D01*
X151303802Y-124785526D01*
X151299590Y-124774495D01*
X151295575Y-124763251D01*
X151291755Y-124751792D01*
X151288131Y-124740119D01*
X151284703Y-124728232D01*
X151281471Y-124716130D01*
X151278435Y-124703815D01*
X151275594Y-124691285D01*
X151272950Y-124678541D01*
X151270501Y-124665583D01*
X151268249Y-124652411D01*
X151266192Y-124639025D01*
X151264331Y-124625425D01*
X151262666Y-124611610D01*
X151261197Y-124597581D01*
X151259924Y-124583339D01*
X151258846Y-124568882D01*
X151257965Y-124554211D01*
X151257279Y-124539325D01*
X151256789Y-124524226D01*
X151256496Y-124508912D01*
X151256398Y-124493385D01*
X151256496Y-124477859D01*
X151256789Y-124462553D01*
X151257279Y-124447464D01*
X151257965Y-124432595D01*
X151258846Y-124417944D01*
X151259924Y-124403512D01*
X151261197Y-124389299D01*
X151262666Y-124375305D01*
X151264331Y-124361529D01*
X151266192Y-124347971D01*
X151268249Y-124334633D01*
X151270501Y-124321513D01*
X151272950Y-124308612D01*
X151275594Y-124295929D01*
X151278435Y-124283465D01*
X151281471Y-124271220D01*
X151284703Y-124259194D01*
X151288131Y-124247386D01*
X151291755Y-124235797D01*
X151295575Y-124224427D01*
X151299590Y-124213275D01*
X151303802Y-124202342D01*
X151309497Y-124188416D01*
X151315429Y-124174908D01*
X151321597Y-124161821D01*
X151328002Y-124149153D01*
X151334643Y-124136904D01*
X151341521Y-124125075D01*
X151348635Y-124113665D01*
X151355986Y-124102674D01*
X151363574Y-124092104D01*
X151371397Y-124081952D01*
X151379458Y-124072220D01*
X151387755Y-124062908D01*
X151396288Y-124054015D01*
X151405058Y-124045542D01*
X151414064Y-124037488D01*
X151423307Y-124029853D01*
X151432786Y-124022638D01*
X151444458Y-124014314D01*
X151456162Y-124006349D01*
X151467901Y-123998745D01*
X151479674Y-123991501D01*
X151491480Y-123984617D01*
X151503320Y-123978093D01*
X151515193Y-123971928D01*
X151527101Y-123966124D01*
X151539042Y-123960680D01*
X151551017Y-123955596D01*
X151563025Y-123950872D01*
X151575068Y-123946508D01*
X151587144Y-123942504D01*
X151599253Y-123938859D01*
X151611616Y-123935368D01*
X151624137Y-123932135D01*
X151636815Y-123929160D01*
X151649650Y-123926444D01*
X151662643Y-123923987D01*
X151675794Y-123921789D01*
X151689102Y-123919849D01*
X151702567Y-123918168D01*
X151716190Y-123916745D01*
X151729970Y-123915581D01*
X151743908Y-123914676D01*
X151758003Y-123914029D01*
X151772256Y-123913641D01*
X151786667Y-123913512D01*
X151801223Y-123913641D01*
X151815600Y-123914029D01*
X151829796Y-123914676D01*
X151843813Y-123915581D01*
X151857650Y-123916745D01*
X151871306Y-123918168D01*
X151884783Y-123919849D01*
X151898080Y-123921789D01*
X151911196Y-123923987D01*
X151924133Y-123926444D01*
X151936890Y-123929160D01*
X151949466Y-123932135D01*
X151961863Y-123935368D01*
X151974080Y-123938859D01*
X151986342Y-123942504D01*
X151998558Y-123946508D01*
X152010730Y-123950872D01*
X152022857Y-123955596D01*
X152034938Y-123960680D01*
X152046975Y-123966124D01*
X152058967Y-123971928D01*
X152070914Y-123978093D01*
X152082815Y-123984617D01*
X152094672Y-123991501D01*
X152106484Y-123998745D01*
X152118251Y-124006349D01*
X152129972Y-124014314D01*
X152141649Y-124022638D01*
X152151129Y-124029853D01*
X152160372Y-124037488D01*
X152169378Y-124045542D01*
X152178148Y-124054015D01*
X152186681Y-124062908D01*
X152194978Y-124072220D01*
X152203038Y-124081952D01*
X152210862Y-124092104D01*
X152218449Y-124102674D01*
X152225800Y-124113665D01*
X152232915Y-124125075D01*
X152239792Y-124136904D01*
X152246434Y-124149153D01*
X152252838Y-124161821D01*
X152259007Y-124174908D01*
X152264938Y-124188416D01*
X152270634Y-124202342D01*
X152274845Y-124213275D01*
X152278861Y-124224427D01*
X152282681Y-124235797D01*
X152286305Y-124247386D01*
X152289733Y-124259194D01*
X152292965Y-124271220D01*
X152296001Y-124283465D01*
X152298841Y-124295929D01*
X152301486Y-124308612D01*
X152303934Y-124321513D01*
X152306187Y-124334633D01*
X152308244Y-124347971D01*
X152310105Y-124361529D01*
X152311770Y-124375305D01*
X152313239Y-124389299D01*
X152314512Y-124403512D01*
X152315590Y-124417944D01*
X152316471Y-124432595D01*
X152317157Y-124447464D01*
X152317646Y-124462553D01*
X152317940Y-124477859D01*
X152318038Y-124493385D01*
X152317940Y-124508912D01*
X152317646Y-124524226D01*
X152317157Y-124539325D01*
X152316471Y-124554211D01*
X152315590Y-124568882D01*
X152314512Y-124583339D01*
X152313239Y-124597581D01*
X152311770Y-124611610D01*
X152310105Y-124625425D01*
X152308244Y-124639025D01*
X152306187Y-124652411D01*
X152303934Y-124665583D01*
X152301486Y-124678541D01*
X152298841Y-124691285D01*
X152296001Y-124703815D01*
X152292965Y-124716130D01*
X152289733Y-124728232D01*
X152286305Y-124740119D01*
X152282681Y-124751792D01*
X152278861Y-124763251D01*
X152274845Y-124774495D01*
X152270634Y-124785526D01*
X152264938Y-124799327D01*
X152259007Y-124812716D01*
X152252838Y-124825693D01*
X152246434Y-124838259D01*
X152239792Y-124850412D01*
X152232915Y-124862153D01*
X152225800Y-124873482D01*
X152218449Y-124884400D01*
X152210862Y-124894905D01*
X152203038Y-124904998D01*
X152194978Y-124914680D01*
X152186681Y-124923949D01*
X152178148Y-124932806D01*
X152169378Y-124941252D01*
X152160372Y-124949285D01*
X152151129Y-124956907D01*
X152141649Y-124964116D01*
X152129972Y-124972446D01*
X152118251Y-124980428D01*
X152106484Y-124988060D01*
X152094672Y-124995344D01*
X152082815Y-125002280D01*
X152070914Y-125008866D01*
X152058967Y-125015104D01*
X152046975Y-125020994D01*
X152034938Y-125026535D01*
X152022857Y-125031727D01*
X152010730Y-125036570D01*
X151998558Y-125041065D01*
X151986342Y-125045211D01*
X151974080Y-125049009D01*
X151961863Y-125052349D01*
X151949466Y-125055442D01*
X151936890Y-125058288D01*
X151924133Y-125060886D01*
X151911196Y-125063236D01*
X151898080Y-125065339D01*
X151884783Y-125067195D01*
X151871306Y-125068803D01*
X151857650Y-125070164D01*
X151843813Y-125071278D01*
X151829796Y-125072144D01*
X151815600Y-125072762D01*
X151801223Y-125073134D01*
X151786667Y-125073257D01*
X151772256Y-125073134D01*
X151758003Y-125072762D01*
X151743908Y-125072144D01*
X151729970Y-125071278D01*
X151716190Y-125070164D01*
X151702567Y-125068803D01*
X151689102Y-125067195D01*
X151675794Y-125065339D01*
X151662643Y-125063236D01*
X151649650Y-125060886D01*
X151636815Y-125058288D01*
X151624137Y-125055442D01*
X151611616Y-125052349D01*
X151599253Y-125049009D01*
X151587144Y-125045211D01*
X151575068Y-125041065D01*
X151563025Y-125036570D01*
X151551017Y-125031727D01*
X151539042Y-125026535D01*
X151527101Y-125020994D01*
X151515193Y-125015104D01*
X151503320Y-125008866D01*
X151491480Y-125002280D01*
X151479674Y-124995344D01*
X151467901Y-124988060D01*
X151456162Y-124980428D01*
X151444458Y-124972446D01*
X151432786Y-124964116D01*
X151423307Y-124956907D01*
X151414064Y-124949285D01*
X151405058Y-124941252D01*
X151396288Y-124932806D01*
X151387755Y-124923949D01*
X151379458Y-124914680D01*
X151371397Y-124904998D01*
X151363574Y-124894905D01*
X151355986Y-124884400D01*
X151348635Y-124873482D01*
X151341521Y-124862153D01*
X151334643Y-124850412D01*
X151328002Y-124838259D01*
X151321597Y-124825693D01*
X151315429Y-124812716D01*
X151309497Y-124799327D01*
X151303802Y-124785526D01*
X151303802Y-124785526D01*
G37*
G36*
X152617899Y-125055617D02*
X152617899Y-123500098D01*
X152825156Y-123500098D01*
X152825156Y-125055617D01*
X152617899Y-125055617D01*
X152617899Y-125055617D01*
G37*
G36*
X153072101Y-123928940D02*
X153293689Y-123928940D01*
X153596858Y-124773394D01*
X153894514Y-123928940D01*
X154116102Y-123928940D01*
X153653082Y-125175791D01*
X153647155Y-125191408D01*
X153641098Y-125206640D01*
X153634912Y-125221486D01*
X153628596Y-125235947D01*
X153622150Y-125250022D01*
X153615574Y-125263711D01*
X153608868Y-125277015D01*
X153602033Y-125289933D01*
X153595067Y-125302466D01*
X153587972Y-125314613D01*
X153580747Y-125326374D01*
X153573392Y-125337750D01*
X153565907Y-125348740D01*
X153558292Y-125359344D01*
X153550548Y-125369563D01*
X153542673Y-125379397D01*
X153534669Y-125388844D01*
X153526535Y-125397906D01*
X153518271Y-125406583D01*
X153509877Y-125414873D01*
X153501353Y-125422779D01*
X153492700Y-125430298D01*
X153483917Y-125437432D01*
X153475003Y-125444180D01*
X153465960Y-125450543D01*
X153456787Y-125456520D01*
X153447485Y-125462112D01*
X153438052Y-125467317D01*
X153428489Y-125472138D01*
X153418797Y-125476572D01*
X153408975Y-125480621D01*
X153399023Y-125484285D01*
X153388941Y-125487562D01*
X153378729Y-125490454D01*
X153368388Y-125492961D01*
X153357916Y-125495082D01*
X153347315Y-125496817D01*
X153336584Y-125498167D01*
X153325723Y-125499131D01*
X153314732Y-125499709D01*
X153303611Y-125499902D01*
X153302512Y-125499902D01*
X153289965Y-125499780D01*
X153277310Y-125499412D01*
X153264547Y-125498799D01*
X153251678Y-125497942D01*
X153238701Y-125496839D01*
X153225618Y-125495492D01*
X153212427Y-125493899D01*
X153199129Y-125492062D01*
X153185724Y-125489979D01*
X153172211Y-125487651D01*
X153158591Y-125485079D01*
X153144865Y-125482261D01*
X153144865Y-125297048D01*
X153158237Y-125300411D01*
X153171455Y-125303443D01*
X153184519Y-125306145D01*
X153197429Y-125308517D01*
X153210184Y-125310557D01*
X153222785Y-125312267D01*
X153235231Y-125313647D01*
X153247523Y-125314696D01*
X153259661Y-125315415D01*
X153271644Y-125315803D01*
X153280918Y-125315514D01*
X153290072Y-125314646D01*
X153299106Y-125313201D01*
X153308020Y-125311177D01*
X153316813Y-125308575D01*
X153325487Y-125305395D01*
X153334041Y-125301637D01*
X153342474Y-125297301D01*
X153350788Y-125292386D01*
X153358981Y-125286893D01*
X153367055Y-125280822D01*
X153375008Y-125274173D01*
X153382841Y-125266946D01*
X153390555Y-125259140D01*
X153398148Y-125250756D01*
X153405621Y-125241794D01*
X153412975Y-125232254D01*
X153420208Y-125222136D01*
X153427321Y-125211439D01*
X153434314Y-125200164D01*
X153441187Y-125188312D01*
X153447940Y-125175880D01*
X153454573Y-125162871D01*
X153461086Y-125149284D01*
X153467479Y-125135118D01*
X153473752Y-125120374D01*
X153479904Y-125105052D01*
X153485937Y-125089152D01*
X153491850Y-125072673D01*
X153497642Y-125055617D01*
X153072104Y-123928940D01*
X153072101Y-123928940D01*
X153072101Y-123928940D01*
G37*
G36*
X154266033Y-124247543D02*
X154266281Y-124233646D01*
X154267025Y-124219959D01*
X154268265Y-124206482D01*
X154270002Y-124193214D01*
X154272234Y-124180156D01*
X154274963Y-124167307D01*
X154278187Y-124154667D01*
X154281908Y-124142238D01*
X154286125Y-124130017D01*
X154290838Y-124118007D01*
X154296047Y-124106205D01*
X154301752Y-124094614D01*
X154307953Y-124083231D01*
X154314650Y-124072059D01*
X154321844Y-124061096D01*
X154329533Y-124050342D01*
X154337719Y-124039798D01*
X154346400Y-124029463D01*
X154355578Y-124019338D01*
X154365252Y-124009423D01*
X154373445Y-124001730D01*
X154381973Y-123994351D01*
X154390837Y-123987286D01*
X154400036Y-123980535D01*
X154409569Y-123974098D01*
X154419438Y-123967975D01*
X154429643Y-123962166D01*
X154440182Y-123956672D01*
X154451056Y-123951491D01*
X154462266Y-123946624D01*
X154473810Y-123942071D01*
X154485690Y-123937832D01*
X154497905Y-123933907D01*
X154510455Y-123930296D01*
X154523340Y-123926999D01*
X154536561Y-123924016D01*
X154550116Y-123921347D01*
X154564007Y-123918992D01*
X154578232Y-123916951D01*
X154592793Y-123915224D01*
X154607689Y-123913811D01*
X154622921Y-123912712D01*
X154638487Y-123911927D01*
X154654388Y-123911457D01*
X154670625Y-123911300D01*
X154683942Y-123911439D01*
X154697242Y-123911858D01*
X154710525Y-123912556D01*
X154723792Y-123913533D01*
X154737042Y-123914790D01*
X154750275Y-123916326D01*
X154763492Y-123918141D01*
X154776692Y-123920235D01*
X154789875Y-123922609D01*
X154803042Y-123925262D01*
X154816192Y-123928194D01*
X154829325Y-123931405D01*
X154842442Y-123934895D01*
X154855542Y-123938665D01*
X154868625Y-123942714D01*
X154881692Y-123947042D01*
X154894741Y-123951650D01*
X154907775Y-123956537D01*
X154920791Y-123961703D01*
X154933791Y-123967148D01*
X154946775Y-123972872D01*
X154959741Y-123978876D01*
X154972691Y-123985159D01*
X154972691Y-124163749D01*
X154958764Y-124157498D01*
X154944913Y-124151552D01*
X154931136Y-124145911D01*
X154917434Y-124140575D01*
X154903808Y-124135543D01*
X154890256Y-124130817D01*
X154876780Y-124126395D01*
X154863378Y-124122279D01*
X154850051Y-124118467D01*
X154836800Y-124114961D01*
X154823623Y-124111759D01*
X154810521Y-124108862D01*
X154797495Y-124106270D01*
X154784543Y-124103983D01*
X154771666Y-124102001D01*
X154758864Y-124100324D01*
X154746138Y-124098952D01*
X154733486Y-124097885D01*
X154720909Y-124097122D01*
X154708408Y-124096665D01*
X154695981Y-124096513D01*
X154679711Y-124096711D01*
X154664054Y-124097305D01*
X154649012Y-124098295D01*
X154634584Y-124099682D01*
X154620769Y-124101465D01*
X154607569Y-124103644D01*
X154594982Y-124106219D01*
X154583010Y-124109190D01*
X154571651Y-124112558D01*
X154560907Y-124116322D01*
X154550776Y-124120481D01*
X154541260Y-124125037D01*
X154532357Y-124129990D01*
X154524068Y-124135338D01*
X154516394Y-124141083D01*
X154509333Y-124147224D01*
X154502886Y-124153760D01*
X154497053Y-124160694D01*
X154491835Y-124168023D01*
X154487230Y-124175748D01*
X154483239Y-124183870D01*
X154479862Y-124192388D01*
X154477099Y-124201302D01*
X154474950Y-124210612D01*
X154473416Y-124220319D01*
X154472495Y-124230421D01*
X154472188Y-124240920D01*
X154472923Y-124251266D01*
X154475127Y-124261230D01*
X154478802Y-124270813D01*
X154483947Y-124280015D01*
X154490561Y-124288835D01*
X154498646Y-124297274D01*
X154508200Y-124305332D01*
X154519225Y-124313008D01*
X154531719Y-124320303D01*
X154542743Y-124325862D01*
X154554168Y-124331310D01*
X154565994Y-124336650D01*
X154578221Y-124341880D01*
X154590849Y-124347000D01*
X154603878Y-124352011D01*
X154617307Y-124356912D01*
X154631138Y-124361704D01*
X154645369Y-124366387D01*
X154660002Y-124370960D01*
X154675035Y-124375423D01*
X154687925Y-124379050D01*
X154700815Y-124382807D01*
X154713705Y-124386695D01*
X154726595Y-124390714D01*
X154739485Y-124394863D01*
X154752375Y-124399143D01*
X154765264Y-124403553D01*
X154778154Y-124408094D01*
X154791044Y-124412765D01*
X154803934Y-124417567D01*
X154816824Y-124422499D01*
X154829714Y-124427562D01*
X154842604Y-124432756D01*
X154854602Y-124437716D01*
X154866340Y-124443149D01*
X154877820Y-124449054D01*
X154889041Y-124455432D01*
X154900004Y-124462282D01*
X154910707Y-124469605D01*
X154921152Y-124477400D01*
X154931339Y-124485667D01*
X154941266Y-124494407D01*
X154950935Y-124503619D01*
X154960345Y-124513304D01*
X154969496Y-124523461D01*
X154978389Y-124534091D01*
X154987023Y-124545193D01*
X154994365Y-124555262D01*
X155001234Y-124565624D01*
X155007629Y-124576279D01*
X155013550Y-124587226D01*
X155018997Y-124598466D01*
X155023971Y-124609999D01*
X155028471Y-124621825D01*
X155032498Y-124633943D01*
X155036051Y-124646353D01*
X155039130Y-124659057D01*
X155041735Y-124672053D01*
X155043867Y-124685342D01*
X155045525Y-124698923D01*
X155046709Y-124712798D01*
X155047419Y-124726965D01*
X155047656Y-124741424D01*
X155047400Y-124754891D01*
X155046631Y-124768170D01*
X155045349Y-124781262D01*
X155043555Y-124794166D01*
X155041248Y-124806883D01*
X155038429Y-124819412D01*
X155035097Y-124831754D01*
X155031252Y-124843909D01*
X155026895Y-124855877D01*
X155022025Y-124867657D01*
X155016642Y-124879249D01*
X155010747Y-124890654D01*
X155004339Y-124901872D01*
X154997419Y-124912902D01*
X154989985Y-124923745D01*
X154982040Y-124934401D01*
X154973581Y-124944869D01*
X154964610Y-124955150D01*
X154955127Y-124965243D01*
X154945130Y-124975149D01*
X154937077Y-124982551D01*
X154928692Y-124989662D01*
X154919973Y-124996483D01*
X154910922Y-125003014D01*
X154901539Y-125009255D01*
X154891822Y-125015205D01*
X154881773Y-125020865D01*
X154871391Y-125026235D01*
X154860677Y-125031315D01*
X154849630Y-125036104D01*
X154838250Y-125040603D01*
X154826537Y-125044812D01*
X154814492Y-125048730D01*
X154802114Y-125052359D01*
X154789404Y-125055697D01*
X154776361Y-125058744D01*
X154762985Y-125061502D01*
X154749276Y-125063969D01*
X154735235Y-125066146D01*
X154720861Y-125068033D01*
X154706154Y-125069629D01*
X154691115Y-125070935D01*
X154675743Y-125071951D01*
X154660038Y-125072677D01*
X154644000Y-125073112D01*
X154627630Y-125073257D01*
X154613225Y-125073132D01*
X154598935Y-125072756D01*
X154584762Y-125072130D01*
X154570706Y-125071254D01*
X154556766Y-125070127D01*
X154542942Y-125068749D01*
X154529235Y-125067121D01*
X154515644Y-125065242D01*
X154502170Y-125063114D01*
X154488812Y-125060734D01*
X154475571Y-125058104D01*
X154462446Y-125055224D01*
X154449437Y-125052093D01*
X154436545Y-125048712D01*
X154423769Y-125045080D01*
X154411109Y-125041198D01*
X154398566Y-125037065D01*
X154386140Y-125032682D01*
X154373830Y-125028049D01*
X154361636Y-125023165D01*
X154349558Y-125018030D01*
X154337598Y-125012645D01*
X154325753Y-125007010D01*
X154314025Y-125001124D01*
X154302413Y-124994988D01*
X154302413Y-124807577D01*
X154314664Y-124814324D01*
X154326981Y-124820783D01*
X154339362Y-124826955D01*
X154351808Y-124832840D01*
X154364320Y-124838438D01*
X154376896Y-124843749D01*
X154389538Y-124848773D01*
X154402244Y-124853510D01*
X154415016Y-124857960D01*
X154427853Y-124862123D01*
X154440755Y-124865998D01*
X154453722Y-124869587D01*
X154466754Y-124872888D01*
X154479851Y-124875903D01*
X154493013Y-124878630D01*
X154506240Y-124881070D01*
X154519533Y-124883223D01*
X154532890Y-124885089D01*
X154546313Y-124886668D01*
X154559800Y-124887960D01*
X154573353Y-124888965D01*
X154586970Y-124889683D01*
X154600653Y-124890113D01*
X154614401Y-124890257D01*
X154618811Y-124890257D01*
X154635126Y-124890029D01*
X154650827Y-124889344D01*
X154665916Y-124888202D01*
X154680391Y-124886605D01*
X154694253Y-124884550D01*
X154707501Y-124882039D01*
X154720137Y-124879072D01*
X154732159Y-124875648D01*
X154743568Y-124871767D01*
X154754364Y-124867430D01*
X154764547Y-124862636D01*
X154774117Y-124857386D01*
X154783073Y-124851679D01*
X154793965Y-124843531D01*
X154803711Y-124834965D01*
X154812310Y-124825980D01*
X154819762Y-124816576D01*
X154826068Y-124806753D01*
X154831228Y-124796512D01*
X154835240Y-124785851D01*
X154838107Y-124774772D01*
X154839827Y-124763275D01*
X154840400Y-124751358D01*
X154839908Y-124738956D01*
X154838432Y-124727010D01*
X154835972Y-124715520D01*
X154832528Y-124704485D01*
X154828100Y-124693906D01*
X154822688Y-124683783D01*
X154816292Y-124674116D01*
X154808912Y-124664905D01*
X154800548Y-124656149D01*
X154791200Y-124647849D01*
X154780869Y-124640005D01*
X154770947Y-124632978D01*
X154760657Y-124626226D01*
X154750000Y-124619751D01*
X154738976Y-124613550D01*
X154727584Y-124607626D01*
X154715825Y-124601976D01*
X154703698Y-124596603D01*
X154691204Y-124591504D01*
X154678343Y-124586682D01*
X154665113Y-124582135D01*
X154651517Y-124577863D01*
X154637553Y-124573867D01*
X154624493Y-124570108D01*
X154611433Y-124566297D01*
X154598374Y-124562434D01*
X154585314Y-124558519D01*
X154572255Y-124554552D01*
X154559195Y-124550534D01*
X154546136Y-124546463D01*
X154533076Y-124542340D01*
X154520017Y-124538165D01*
X154506957Y-124533938D01*
X154493897Y-124529659D01*
X154480838Y-124525328D01*
X154467778Y-124520945D01*
X154455032Y-124516143D01*
X154442572Y-124510897D01*
X154430400Y-124505208D01*
X154418515Y-124499076D01*
X154406916Y-124492501D01*
X154395605Y-124485482D01*
X154384581Y-124478020D01*
X154373843Y-124470114D01*
X154363393Y-124461765D01*
X154353230Y-124452973D01*
X154343354Y-124443737D01*
X154333764Y-124434058D01*
X154324462Y-124423935D01*
X154316931Y-124414646D01*
X154309920Y-124405003D01*
X154303428Y-124395008D01*
X154297455Y-124384659D01*
X154292002Y-124373958D01*
X154287068Y-124362904D01*
X154282653Y-124351498D01*
X154278758Y-124339738D01*
X154275382Y-124327626D01*
X154272526Y-124315161D01*
X154270188Y-124302343D01*
X154268371Y-124289172D01*
X154267072Y-124275648D01*
X154266293Y-124261772D01*
X154266033Y-124247543D01*
X154266033Y-124247543D01*
X154266033Y-124247543D01*
G37*
G36*
X155208611Y-124103120D02*
X155208611Y-123928940D01*
X155404844Y-123928940D01*
X155404844Y-123592697D01*
X155610998Y-123592697D01*
X155610998Y-123928940D01*
X155910859Y-123928940D01*
X155910859Y-124103120D01*
X155610998Y-124103120D01*
X155610998Y-124757966D01*
X155611342Y-124769719D01*
X155612374Y-124780926D01*
X155614094Y-124791585D01*
X155616501Y-124801699D01*
X155619597Y-124811265D01*
X155623380Y-124820285D01*
X155627851Y-124828758D01*
X155633011Y-124836685D01*
X155638857Y-124844064D01*
X155645392Y-124850898D01*
X155652615Y-124857184D01*
X155660526Y-124862924D01*
X155669124Y-124868117D01*
X155678411Y-124872764D01*
X155688385Y-124876864D01*
X155699047Y-124880417D01*
X155710397Y-124883424D01*
X155722435Y-124885884D01*
X155735161Y-124887797D01*
X155748574Y-124889164D01*
X155762676Y-124889984D01*
X155777465Y-124890257D01*
X155779670Y-124890257D01*
X155794873Y-124889926D01*
X155809613Y-124888934D01*
X155823889Y-124887281D01*
X155837702Y-124884966D01*
X155851053Y-124881990D01*
X155863940Y-124878352D01*
X155876365Y-124874053D01*
X155888326Y-124869093D01*
X155899824Y-124863471D01*
X155910860Y-124857188D01*
X155910860Y-125042401D01*
X155897998Y-125047329D01*
X155885136Y-125051829D01*
X155872275Y-125055901D01*
X155859413Y-125059543D01*
X155846551Y-125062758D01*
X155833690Y-125065543D01*
X155820828Y-125067900D01*
X155807966Y-125069829D01*
X155795105Y-125071329D01*
X155782243Y-125072400D01*
X155769381Y-125073043D01*
X155756520Y-125073257D01*
X155751008Y-125073257D01*
X155739241Y-125073055D01*
X155727249Y-125072446D01*
X155715032Y-125071433D01*
X155702590Y-125070013D01*
X155689924Y-125068189D01*
X155677032Y-125065959D01*
X155663915Y-125063323D01*
X155653395Y-125060884D01*
X155642411Y-125057984D01*
X155630965Y-125054621D01*
X155619056Y-125050797D01*
X155606684Y-125046511D01*
X155593850Y-125041762D01*
X155580553Y-125036552D01*
X155566793Y-125030879D01*
X155552570Y-125024745D01*
X155541126Y-125018986D01*
X155530048Y-125012534D01*
X155519333Y-125005390D01*
X155508983Y-124997553D01*
X155498997Y-124989024D01*
X155489376Y-124979803D01*
X155480119Y-124969889D01*
X155471227Y-124959283D01*
X155462699Y-124947985D01*
X155454536Y-124935994D01*
X155446737Y-124923311D01*
X155440966Y-124912742D01*
X155435622Y-124901825D01*
X155430706Y-124890559D01*
X155426218Y-124878944D01*
X155422157Y-124866981D01*
X155418523Y-124854669D01*
X155415317Y-124842008D01*
X155412539Y-124828999D01*
X155410188Y-124815641D01*
X155408264Y-124801934D01*
X155406768Y-124787879D01*
X155405699Y-124773475D01*
X155405058Y-124758723D01*
X155404844Y-124743622D01*
X155404844Y-124103105D01*
X155208612Y-124103105D01*
X155208611Y-124103120D01*
X155208611Y-124103120D01*
G37*
G36*
X156119219Y-124700634D02*
X156324270Y-124698391D01*
X156324519Y-124709840D01*
X156325266Y-124720937D01*
X156326511Y-124731682D01*
X156328255Y-124742075D01*
X156330496Y-124752115D01*
X156333235Y-124761803D01*
X156336473Y-124771138D01*
X156340208Y-124780122D01*
X156344442Y-124788753D01*
X156349173Y-124797032D01*
X156354403Y-124804958D01*
X156360131Y-124812532D01*
X156366357Y-124819754D01*
X156373081Y-124826624D01*
X156380303Y-124833141D01*
X156388023Y-124839306D01*
X156396241Y-124845119D01*
X156404957Y-124850579D01*
X156414171Y-124855688D01*
X156423884Y-124860443D01*
X156434094Y-124864847D01*
X156444803Y-124868898D01*
X156456009Y-124872597D01*
X156467714Y-124875944D01*
X156479916Y-124878939D01*
X156492617Y-124881581D01*
X156505816Y-124883871D01*
X156519513Y-124885808D01*
X156533708Y-124887393D01*
X156548401Y-124888626D01*
X156563592Y-124889507D01*
X156579281Y-124890036D01*
X156595468Y-124890212D01*
X156598775Y-124890212D01*
X156614510Y-124890032D01*
X156629746Y-124889493D01*
X156644483Y-124888594D01*
X156658720Y-124887335D01*
X156672457Y-124885717D01*
X156685695Y-124883739D01*
X156698433Y-124881402D01*
X156710672Y-124878706D01*
X156722411Y-124875649D01*
X156733650Y-124872233D01*
X156744390Y-124868458D01*
X156754631Y-124864323D01*
X156764372Y-124859828D01*
X156773613Y-124854974D01*
X156782355Y-124849760D01*
X156790598Y-124844187D01*
X156798341Y-124838254D01*
X156805584Y-124831962D01*
X156812328Y-124825310D01*
X156818572Y-124818298D01*
X156824317Y-124810927D01*
X156829562Y-124803196D01*
X156834307Y-124795106D01*
X156838553Y-124786656D01*
X156842300Y-124777846D01*
X156845547Y-124768677D01*
X156848294Y-124759149D01*
X156850542Y-124749261D01*
X156852291Y-124739013D01*
X156853540Y-124728406D01*
X156854289Y-124717439D01*
X156854539Y-124706113D01*
X156854539Y-124523097D01*
X156842716Y-124521267D01*
X156830555Y-124519561D01*
X156818057Y-124517980D01*
X156805222Y-124516523D01*
X156792049Y-124515191D01*
X156778539Y-124513983D01*
X156764691Y-124512899D01*
X156750505Y-124511940D01*
X156735983Y-124511106D01*
X156721122Y-124510395D01*
X156705924Y-124509809D01*
X156690389Y-124509348D01*
X156674516Y-124509011D01*
X156658306Y-124508798D01*
X156645302Y-124508979D01*
X156632118Y-124509523D01*
X156618754Y-124510429D01*
X156605210Y-124511698D01*
X156591485Y-124513329D01*
X156577581Y-124515322D01*
X156563497Y-124517678D01*
X156550974Y-124519754D01*
X156538210Y-124522142D01*
X156525205Y-124524843D01*
X156511959Y-124527857D01*
X156498471Y-124531184D01*
X156484742Y-124534823D01*
X156470772Y-124538776D01*
X156456561Y-124543041D01*
X156444067Y-124547247D01*
X156432063Y-124552024D01*
X156420549Y-124557373D01*
X156409524Y-124563294D01*
X156398990Y-124569787D01*
X156388946Y-124576851D01*
X156379391Y-124584486D01*
X156370327Y-124592693D01*
X156361752Y-124601472D01*
X156352967Y-124611911D01*
X156345354Y-124622832D01*
X156338911Y-124634235D01*
X156333640Y-124646120D01*
X156329541Y-124658487D01*
X156326612Y-124671336D01*
X156324855Y-124684668D01*
X156324270Y-124698481D01*
X156324270Y-124698391D01*
X156119219Y-124700634D01*
X156119464Y-124686799D01*
X156120199Y-124673220D01*
X156121424Y-124659898D01*
X156123139Y-124646832D01*
X156125343Y-124634023D01*
X156128038Y-124621470D01*
X156131223Y-124609174D01*
X156134898Y-124597134D01*
X156139063Y-124585350D01*
X156143717Y-124573823D01*
X156148862Y-124562552D01*
X156154497Y-124551538D01*
X156160621Y-124540779D01*
X156167236Y-124530278D01*
X156174340Y-124520033D01*
X156181935Y-124510044D01*
X156190019Y-124500311D01*
X156198594Y-124490835D01*
X156207658Y-124481616D01*
X156217213Y-124472652D01*
X156227257Y-124463946D01*
X156237791Y-124455495D01*
X156248816Y-124447301D01*
X156260330Y-124439364D01*
X156269856Y-124433148D01*
X156279620Y-124427143D01*
X156289622Y-124421349D01*
X156299861Y-124415766D01*
X156310337Y-124410393D01*
X156321052Y-124405231D01*
X156332004Y-124400280D01*
X156343194Y-124395540D01*
X156354621Y-124391010D01*
X156366286Y-124386690D01*
X156378188Y-124382582D01*
X156390329Y-124378684D01*
X156402706Y-124374997D01*
X156415322Y-124371521D01*
X156428175Y-124368255D01*
X156441266Y-124365200D01*
X156454594Y-124362356D01*
X156468160Y-124359722D01*
X156481964Y-124357299D01*
X156496005Y-124355087D01*
X156510284Y-124353085D01*
X156524801Y-124351294D01*
X156539555Y-124349714D01*
X156554547Y-124348344D01*
X156569776Y-124347186D01*
X156585243Y-124346238D01*
X156600948Y-124345500D01*
X156616890Y-124344973D01*
X156633070Y-124344657D01*
X156649488Y-124344552D01*
X156663570Y-124344611D01*
X156677593Y-124344787D01*
X156691557Y-124345082D01*
X156705462Y-124345494D01*
X156719309Y-124346024D01*
X156733096Y-124346671D01*
X156746825Y-124347437D01*
X156760495Y-124348320D01*
X156774107Y-124349320D01*
X156787659Y-124350439D01*
X156801153Y-124351675D01*
X156814588Y-124353029D01*
X156827964Y-124354501D01*
X156841281Y-124356090D01*
X156854540Y-124357798D01*
X156853537Y-124341345D01*
X156852083Y-124325450D01*
X156850180Y-124310112D01*
X156847826Y-124295330D01*
X156845022Y-124281106D01*
X156841768Y-124267438D01*
X156838064Y-124254327D01*
X156833910Y-124241773D01*
X156829306Y-124229776D01*
X156824251Y-124218335D01*
X156818747Y-124207452D01*
X156812792Y-124197125D01*
X156806388Y-124187355D01*
X156799533Y-124178142D01*
X156792228Y-124169486D01*
X156784473Y-124161387D01*
X156776267Y-124153845D01*
X156768587Y-124147518D01*
X156760400Y-124141534D01*
X156751706Y-124135891D01*
X156742504Y-124130590D01*
X156732796Y-124125632D01*
X156722581Y-124121015D01*
X156711859Y-124116740D01*
X156700630Y-124112807D01*
X156688894Y-124109216D01*
X156676652Y-124105968D01*
X156663902Y-124103061D01*
X156650645Y-124100496D01*
X156636882Y-124098273D01*
X156622611Y-124096392D01*
X156607834Y-124094853D01*
X156592549Y-124093656D01*
X156576758Y-124092801D01*
X156560460Y-124092288D01*
X156543655Y-124092117D01*
X156530869Y-124092224D01*
X156518013Y-124092542D01*
X156505086Y-124093074D01*
X156492088Y-124093818D01*
X156479020Y-124094774D01*
X156465880Y-124095943D01*
X156452670Y-124097325D01*
X156439388Y-124098919D01*
X156426036Y-124100726D01*
X156412613Y-124102745D01*
X156399120Y-124104976D01*
X156385555Y-124107421D01*
X156371919Y-124110078D01*
X156358213Y-124112947D01*
X156344436Y-124116029D01*
X156330587Y-124119323D01*
X156316669Y-124122830D01*
X156302679Y-124126550D01*
X156288618Y-124130482D01*
X156274486Y-124134627D01*
X156260284Y-124138984D01*
X156246011Y-124143554D01*
X156231667Y-124148336D01*
X156231667Y-123971943D01*
X156244488Y-123967190D01*
X156257377Y-123962631D01*
X156270333Y-123958266D01*
X156283356Y-123954094D01*
X156296446Y-123950117D01*
X156309602Y-123946334D01*
X156322826Y-123942745D01*
X156336117Y-123939349D01*
X156349475Y-123936148D01*
X156362900Y-123933141D01*
X156376392Y-123930328D01*
X156389951Y-123927709D01*
X156403577Y-123925283D01*
X156417270Y-123923052D01*
X156431030Y-123921015D01*
X156444857Y-123919172D01*
X156458752Y-123917523D01*
X156472713Y-123916068D01*
X156486741Y-123914807D01*
X156500836Y-123913740D01*
X156514998Y-123912867D01*
X156529228Y-123912188D01*
X156543524Y-123911703D01*
X156557887Y-123911412D01*
X156572318Y-123911315D01*
X156587853Y-123911451D01*
X156603151Y-123911858D01*
X156618212Y-123912538D01*
X156633035Y-123913490D01*
X156647620Y-123914714D01*
X156661967Y-123916209D01*
X156676077Y-123917977D01*
X156689950Y-123920017D01*
X156703584Y-123922328D01*
X156716981Y-123924911D01*
X156730140Y-123927767D01*
X156743062Y-123930894D01*
X156755746Y-123934293D01*
X156768193Y-123937964D01*
X156780402Y-123941907D01*
X156792373Y-123946122D01*
X156804106Y-123950609D01*
X156815602Y-123955368D01*
X156826860Y-123960399D01*
X156837881Y-123965702D01*
X156848664Y-123971277D01*
X156859209Y-123977123D01*
X156869517Y-123983242D01*
X156879587Y-123989632D01*
X156889420Y-123996295D01*
X156899014Y-124003229D01*
X156908372Y-124010436D01*
X156917491Y-124017914D01*
X156926373Y-124025664D01*
X156935017Y-124033686D01*
X156943685Y-124042177D01*
X156952048Y-124050922D01*
X156960107Y-124059921D01*
X156967862Y-124069175D01*
X156975313Y-124078683D01*
X156982460Y-124088445D01*
X156989303Y-124098462D01*
X156995841Y-124108732D01*
X157002076Y-124119258D01*
X157008006Y-124130037D01*
X157013632Y-124141071D01*
X157018954Y-124152359D01*
X157023972Y-124163901D01*
X157028686Y-124175697D01*
X157033096Y-124187748D01*
X157037201Y-124200053D01*
X157041003Y-124212613D01*
X157044500Y-124225426D01*
X157047693Y-124238494D01*
X157050583Y-124251817D01*
X157053168Y-124265393D01*
X157055448Y-124279224D01*
X157057425Y-124293309D01*
X157059098Y-124307649D01*
X157060466Y-124322242D01*
X157061531Y-124337090D01*
X157062291Y-124352193D01*
X157062747Y-124367549D01*
X157062899Y-124383160D01*
X157062899Y-124708370D01*
X157062685Y-124720497D01*
X157062042Y-124732624D01*
X157060970Y-124744751D01*
X157059470Y-124756877D01*
X157057540Y-124769004D01*
X157055182Y-124781131D01*
X157052865Y-124791639D01*
X157049692Y-124803001D01*
X157045665Y-124815218D01*
X157040783Y-124828289D01*
X157035046Y-124842215D01*
X157028454Y-124856996D01*
X157021007Y-124872631D01*
X157014882Y-124884950D01*
X157008268Y-124896916D01*
X157001163Y-124908526D01*
X156993569Y-124919783D01*
X156985484Y-124930686D01*
X156976910Y-124941234D01*
X156967845Y-124951428D01*
X156958291Y-124961268D01*
X156948247Y-124970754D01*
X156940208Y-124977659D01*
X156931526Y-124984411D01*
X156922202Y-124991010D01*
X156912234Y-124997456D01*
X156901623Y-125003749D01*
X156890369Y-125009889D01*
X156878472Y-125015876D01*
X156865932Y-125021710D01*
X156852749Y-125027391D01*
X156838922Y-125032918D01*
X156824453Y-125038293D01*
X156809340Y-125043515D01*
X156797653Y-125047118D01*
X156785741Y-125050489D01*
X156773606Y-125053628D01*
X156761247Y-125056534D01*
X156748664Y-125059207D01*
X156735856Y-125061648D01*
X156722825Y-125063857D01*
X156709570Y-125065833D01*
X156696091Y-125067577D01*
X156682389Y-125069088D01*
X156668462Y-125070366D01*
X156654311Y-125071412D01*
X156639936Y-125072226D01*
X156625338Y-125072807D01*
X156610515Y-125073156D01*
X156595469Y-125073272D01*
X156580018Y-125073152D01*
X156564807Y-125072790D01*
X156549839Y-125072188D01*
X156535111Y-125071344D01*
X156520624Y-125070259D01*
X156506379Y-125068933D01*
X156492374Y-125067366D01*
X156478611Y-125065558D01*
X156465089Y-125063509D01*
X156451808Y-125061219D01*
X156438769Y-125058688D01*
X156425970Y-125055916D01*
X156413413Y-125052902D01*
X156401097Y-125049648D01*
X156389021Y-125046153D01*
X156377188Y-125042416D01*
X156361891Y-125037016D01*
X156347238Y-125031479D01*
X156333228Y-125025804D01*
X156319861Y-125019992D01*
X156307137Y-125014042D01*
X156295056Y-125007955D01*
X156283619Y-125001730D01*
X156272824Y-124995367D01*
X156262673Y-124988867D01*
X156253164Y-124982230D01*
X156244299Y-124975454D01*
X156236076Y-124968542D01*
X156226783Y-124960009D01*
X156217864Y-124951168D01*
X156209320Y-124942018D01*
X156201151Y-124932559D01*
X156193357Y-124922791D01*
X156185938Y-124912715D01*
X156178893Y-124902329D01*
X156172224Y-124891635D01*
X156165929Y-124880632D01*
X156160009Y-124869320D01*
X156153446Y-124855300D01*
X156147538Y-124841901D01*
X156142284Y-124829121D01*
X156137685Y-124816962D01*
X156133740Y-124805422D01*
X156130450Y-124794503D01*
X156127814Y-124784203D01*
X156125833Y-124774523D01*
X156123812Y-124762056D01*
X156122158Y-124749651D01*
X156120872Y-124737307D01*
X156119953Y-124725026D01*
X156119402Y-124712806D01*
X156119218Y-124700649D01*
X156119219Y-124700634D01*
X156119219Y-124700634D01*
G37*
G36*
X157433316Y-124923326D02*
X157425616Y-124914650D01*
X157418139Y-124905759D01*
X157410886Y-124896651D01*
X157403855Y-124887328D01*
X157397048Y-124877788D01*
X157390464Y-124868033D01*
X157384104Y-124858062D01*
X157377966Y-124847874D01*
X157372051Y-124837471D01*
X157366360Y-124826851D01*
X157360892Y-124816016D01*
X157355647Y-124804965D01*
X157350626Y-124793697D01*
X157345827Y-124782214D01*
X157341252Y-124770515D01*
X157336900Y-124758600D01*
X157332771Y-124746468D01*
X157328865Y-124734121D01*
X157325182Y-124721558D01*
X157321723Y-124708779D01*
X157318487Y-124695783D01*
X157315474Y-124682572D01*
X157312684Y-124669145D01*
X157310117Y-124655502D01*
X157307774Y-124641643D01*
X157305654Y-124627568D01*
X157303757Y-124613276D01*
X157302083Y-124598769D01*
X157300632Y-124584046D01*
X157299404Y-124569107D01*
X157298400Y-124553952D01*
X157297619Y-124538581D01*
X157297061Y-124522994D01*
X157296726Y-124507191D01*
X157296615Y-124491172D01*
X157296726Y-124475154D01*
X157297061Y-124459354D01*
X157297619Y-124443771D01*
X157298400Y-124428407D01*
X157299404Y-124413260D01*
X157300632Y-124398331D01*
X157302083Y-124383619D01*
X157303757Y-124369126D01*
X157305654Y-124354850D01*
X157307774Y-124340792D01*
X157310117Y-124326952D01*
X157312684Y-124313330D01*
X157315474Y-124299926D01*
X157318487Y-124286739D01*
X157321723Y-124273770D01*
X157325182Y-124261019D01*
X157328865Y-124248486D01*
X157332771Y-124236171D01*
X157336900Y-124224073D01*
X157341252Y-124212193D01*
X157345827Y-124200531D01*
X157350626Y-124189087D01*
X157355647Y-124177860D01*
X157360892Y-124166852D01*
X157366360Y-124156061D01*
X157372051Y-124145488D01*
X157377966Y-124135133D01*
X157384104Y-124124995D01*
X157390464Y-124115076D01*
X157397048Y-124105374D01*
X157403855Y-124095890D01*
X157410886Y-124086624D01*
X157418139Y-124077576D01*
X157425616Y-124068745D01*
X157433316Y-124060132D01*
X157441711Y-124051249D01*
X157450327Y-124042639D01*
X157459164Y-124034302D01*
X157468221Y-124026238D01*
X157477499Y-124018448D01*
X157486998Y-124010931D01*
X157496717Y-124003688D01*
X157506657Y-123996718D01*
X157516818Y-123990021D01*
X157527200Y-123983597D01*
X157537802Y-123977447D01*
X157548625Y-123971571D01*
X157559668Y-123965967D01*
X157570933Y-123960637D01*
X157582417Y-123955580D01*
X157594123Y-123950797D01*
X157606049Y-123946287D01*
X157618196Y-123942050D01*
X157630564Y-123938087D01*
X157643152Y-123934397D01*
X157655961Y-123930980D01*
X157668991Y-123927836D01*
X157682242Y-123924966D01*
X157695713Y-123922370D01*
X157709404Y-123920046D01*
X157723317Y-123917996D01*
X157737450Y-123916220D01*
X157751804Y-123914716D01*
X157766379Y-123913486D01*
X157781174Y-123912530D01*
X157796190Y-123911846D01*
X157811426Y-123911436D01*
X157826884Y-123911300D01*
X157840623Y-123911400D01*
X157854323Y-123911702D01*
X157867984Y-123912204D01*
X157881607Y-123912908D01*
X157895190Y-123913813D01*
X157908735Y-123914919D01*
X157922241Y-123916226D01*
X157935709Y-123917734D01*
X157949137Y-123919444D01*
X157962527Y-123921354D01*
X157975878Y-123923466D01*
X157989190Y-123925778D01*
X158002463Y-123928292D01*
X158015698Y-123931007D01*
X158028893Y-123933922D01*
X158042050Y-123937039D01*
X158055168Y-123940357D01*
X158068247Y-123943877D01*
X158081288Y-123947597D01*
X158094289Y-123951518D01*
X158107252Y-123955640D01*
X158120176Y-123959964D01*
X158133061Y-123964489D01*
X158145908Y-123969214D01*
X158158715Y-123974141D01*
X158158715Y-124170372D01*
X158145940Y-124164345D01*
X158133153Y-124158575D01*
X158120354Y-124153061D01*
X158107544Y-124147804D01*
X158094723Y-124142803D01*
X158081890Y-124138058D01*
X158069045Y-124133570D01*
X158056189Y-124129339D01*
X158043322Y-124125364D01*
X158030443Y-124121645D01*
X158017553Y-124118183D01*
X158004651Y-124114977D01*
X157991737Y-124112028D01*
X157978812Y-124109335D01*
X157965876Y-124106899D01*
X157952928Y-124104719D01*
X157939969Y-124102796D01*
X157926998Y-124101129D01*
X157914016Y-124099718D01*
X157901022Y-124098564D01*
X157888017Y-124097667D01*
X157875000Y-124097025D01*
X157861972Y-124096641D01*
X157848932Y-124096513D01*
X157844522Y-124096513D01*
X157829146Y-124096714D01*
X157814106Y-124097317D01*
X157799402Y-124098323D01*
X157785035Y-124099731D01*
X157771004Y-124101542D01*
X157757309Y-124103755D01*
X157743950Y-124106370D01*
X157730928Y-124109387D01*
X157718242Y-124112807D01*
X157705892Y-124116629D01*
X157693878Y-124120854D01*
X157682200Y-124125481D01*
X157670859Y-124130510D01*
X157659854Y-124135941D01*
X157649185Y-124141775D01*
X157638853Y-124148012D01*
X157628857Y-124154650D01*
X157619196Y-124161691D01*
X157609873Y-124169134D01*
X157600885Y-124176980D01*
X157594231Y-124183316D01*
X157587839Y-124190112D01*
X157581707Y-124197368D01*
X157575836Y-124205084D01*
X157570226Y-124213260D01*
X157564877Y-124221895D01*
X157559789Y-124230991D01*
X157554961Y-124240546D01*
X157550395Y-124250561D01*
X157546090Y-124261036D01*
X157542045Y-124271971D01*
X157538262Y-124283365D01*
X157534739Y-124295220D01*
X157531478Y-124307534D01*
X157528477Y-124320308D01*
X157525737Y-124333542D01*
X157523258Y-124347236D01*
X157521040Y-124361389D01*
X157519083Y-124376003D01*
X157517387Y-124391076D01*
X157515952Y-124406609D01*
X157514778Y-124422602D01*
X157513865Y-124439055D01*
X157513212Y-124455967D01*
X157512821Y-124473340D01*
X157512691Y-124491172D01*
X157512803Y-124507597D01*
X157513141Y-124523650D01*
X157513705Y-124539330D01*
X157514494Y-124554637D01*
X157515508Y-124569572D01*
X157516748Y-124584135D01*
X157518213Y-124598325D01*
X157519903Y-124612142D01*
X157521819Y-124625588D01*
X157523960Y-124638660D01*
X157526326Y-124651360D01*
X157528918Y-124663688D01*
X157531736Y-124675643D01*
X157534778Y-124687226D01*
X157538046Y-124698436D01*
X157543058Y-124712923D01*
X157548469Y-124726717D01*
X157554282Y-124739819D01*
X157560496Y-124752229D01*
X157567111Y-124763946D01*
X157574126Y-124774971D01*
X157581542Y-124785303D01*
X157589360Y-124794943D01*
X157597578Y-124803891D01*
X157606197Y-124812146D01*
X157615217Y-124819709D01*
X157626731Y-124828199D01*
X157638245Y-124836037D01*
X157649759Y-124843222D01*
X157661274Y-124849753D01*
X157672788Y-124855632D01*
X157684302Y-124860857D01*
X157695817Y-124865430D01*
X157707331Y-124869349D01*
X157718845Y-124872616D01*
X157729627Y-124875133D01*
X157740806Y-124877385D01*
X157752381Y-124879371D01*
X157764353Y-124881093D01*
X157776723Y-124882550D01*
X157789489Y-124883742D01*
X157802652Y-124884670D01*
X157816212Y-124885332D01*
X157830169Y-124885729D01*
X157844522Y-124885862D01*
X157858010Y-124885737D01*
X157871463Y-124885364D01*
X157884882Y-124884742D01*
X157898266Y-124883871D01*
X157911615Y-124882751D01*
X157924931Y-124881383D01*
X157938212Y-124879766D01*
X157951458Y-124877899D01*
X157964670Y-124875784D01*
X157977847Y-124873420D01*
X157990990Y-124870808D01*
X158004099Y-124867946D01*
X158017173Y-124864836D01*
X158030213Y-124861477D01*
X158043218Y-124857869D01*
X158056189Y-124854012D01*
X158069125Y-124849906D01*
X158082027Y-124845552D01*
X158094894Y-124840949D01*
X158107727Y-124836097D01*
X158120526Y-124830996D01*
X158133290Y-124825646D01*
X158146020Y-124820047D01*
X158158715Y-124814200D01*
X158158715Y-125010431D01*
X158145907Y-125015358D01*
X158133061Y-125020083D01*
X158120176Y-125024608D01*
X158107252Y-125028931D01*
X158094289Y-125033054D01*
X158081287Y-125036975D01*
X158068247Y-125040695D01*
X158055168Y-125044214D01*
X158042050Y-125047532D01*
X158028893Y-125050649D01*
X158015697Y-125053565D01*
X158002463Y-125056280D01*
X157989189Y-125058794D01*
X157975877Y-125061106D01*
X157962526Y-125063218D01*
X157949137Y-125065128D01*
X157935708Y-125066837D01*
X157922241Y-125068346D01*
X157908735Y-125069653D01*
X157895190Y-125070759D01*
X157881606Y-125071664D01*
X157867984Y-125072367D01*
X157854322Y-125072870D01*
X157840622Y-125073172D01*
X157826883Y-125073272D01*
X157811426Y-125073135D01*
X157796189Y-125072722D01*
X157781173Y-125072033D01*
X157766378Y-125071069D01*
X157751804Y-125069830D01*
X157737450Y-125068316D01*
X157723317Y-125066526D01*
X157709404Y-125064461D01*
X157695712Y-125062120D01*
X157682241Y-125059505D01*
X157668991Y-125056613D01*
X157655961Y-125053447D01*
X157643152Y-125050005D01*
X157630564Y-125046287D01*
X157618196Y-125042295D01*
X157606049Y-125038027D01*
X157594123Y-125033483D01*
X157582417Y-125028665D01*
X157570932Y-125023571D01*
X157559668Y-125018201D01*
X157548624Y-125012556D01*
X157537801Y-125006636D01*
X157527199Y-125000441D01*
X157516818Y-124993970D01*
X157506657Y-124987224D01*
X157496717Y-124980202D01*
X157486998Y-124972905D01*
X157477499Y-124965333D01*
X157468221Y-124957485D01*
X157459163Y-124949362D01*
X157450327Y-124940964D01*
X157441711Y-124932290D01*
X157433316Y-124923341D01*
X157433316Y-124923326D01*
X157433316Y-124923326D01*
G37*
G36*
X158404557Y-125055617D02*
X158404557Y-123500098D01*
X158610712Y-123500098D01*
X158610712Y-124400786D01*
X159097986Y-123928940D01*
X159378004Y-123928940D01*
X158888524Y-124398573D01*
X159443047Y-125055617D01*
X159168542Y-125055617D01*
X158750721Y-124531963D01*
X158610712Y-124667565D01*
X158610712Y-125055617D01*
X158404557Y-125055617D01*
X158404557Y-125055617D01*
G37*
D12*
X132056667Y-95378571D02*
X131723333Y-95378571D01*
X131723333Y-95902381D02*
X131723333Y-94902381D01*
X132199524Y-94902381D01*
X132532857Y-94997619D02*
X132580476Y-94950000D01*
X132675714Y-94902381D01*
X132913810Y-94902381D01*
X133009048Y-94950000D01*
X133056667Y-94997619D01*
X133104286Y-95092857D01*
X133104286Y-95188095D01*
X133056667Y-95330952D01*
X132485238Y-95902381D01*
X133104286Y-95902381D01*
X162266667Y-120608571D02*
X161933333Y-120608571D01*
X161933333Y-121132381D02*
X161933333Y-120132381D01*
X162409524Y-120132381D01*
X162695238Y-120132381D02*
X163314286Y-120132381D01*
X162980952Y-120513333D01*
X163123810Y-120513333D01*
X163219048Y-120560952D01*
X163266667Y-120608571D01*
X163314286Y-120703810D01*
X163314286Y-120941905D01*
X163266667Y-121037143D01*
X163219048Y-121084762D01*
X163123810Y-121132381D01*
X162838095Y-121132381D01*
X162742857Y-121084762D01*
X162695238Y-121037143D01*
X146457143Y-113766666D02*
X146504762Y-113814285D01*
X146552381Y-113957142D01*
X146552381Y-114052380D01*
X146504762Y-114195238D01*
X146409524Y-114290476D01*
X146314286Y-114338095D01*
X146123810Y-114385714D01*
X145980952Y-114385714D01*
X145790476Y-114338095D01*
X145695238Y-114290476D01*
X145600000Y-114195238D01*
X145552381Y-114052380D01*
X145552381Y-113957142D01*
X145600000Y-113814285D01*
X145647619Y-113766666D01*
X146552381Y-112814285D02*
X146552381Y-113385714D01*
X146552381Y-113100000D02*
X145552381Y-113100000D01*
X145695238Y-113195238D01*
X145790476Y-113290476D01*
X145838095Y-113385714D01*
X135757143Y-113516666D02*
X135804762Y-113564285D01*
X135852381Y-113707142D01*
X135852381Y-113802380D01*
X135804762Y-113945238D01*
X135709524Y-114040476D01*
X135614286Y-114088095D01*
X135423810Y-114135714D01*
X135280952Y-114135714D01*
X135090476Y-114088095D01*
X134995238Y-114040476D01*
X134900000Y-113945238D01*
X134852381Y-113802380D01*
X134852381Y-113707142D01*
X134900000Y-113564285D01*
X134947619Y-113516666D01*
X134947619Y-113135714D02*
X134900000Y-113088095D01*
X134852381Y-112992857D01*
X134852381Y-112754761D01*
X134900000Y-112659523D01*
X134947619Y-112611904D01*
X135042857Y-112564285D01*
X135138095Y-112564285D01*
X135280952Y-112611904D01*
X135852381Y-113183333D01*
X135852381Y-112564285D01*
X139952381Y-118766666D02*
X139476190Y-119100000D01*
X139952381Y-119338095D02*
X138952381Y-119338095D01*
X138952381Y-118957142D01*
X139000000Y-118861904D01*
X139047619Y-118814285D01*
X139142857Y-118766666D01*
X139285714Y-118766666D01*
X139380952Y-118814285D01*
X139428571Y-118861904D01*
X139476190Y-118957142D01*
X139476190Y-119338095D01*
X139952381Y-117814285D02*
X139952381Y-118385714D01*
X139952381Y-118100000D02*
X138952381Y-118100000D01*
X139095238Y-118195238D01*
X139190476Y-118290476D01*
X139238095Y-118385714D01*
X143052381Y-118766666D02*
X142576190Y-119100000D01*
X143052381Y-119338095D02*
X142052381Y-119338095D01*
X142052381Y-118957142D01*
X142100000Y-118861904D01*
X142147619Y-118814285D01*
X142242857Y-118766666D01*
X142385714Y-118766666D01*
X142480952Y-118814285D01*
X142528571Y-118861904D01*
X142576190Y-118957142D01*
X142576190Y-119338095D01*
X142147619Y-118385714D02*
X142100000Y-118338095D01*
X142052381Y-118242857D01*
X142052381Y-118004761D01*
X142100000Y-117909523D01*
X142147619Y-117861904D01*
X142242857Y-117814285D01*
X142338095Y-117814285D01*
X142480952Y-117861904D01*
X143052381Y-118433333D01*
X143052381Y-117814285D01*
X139588095Y-115352381D02*
X139588095Y-116161905D01*
X139635714Y-116257143D01*
X139683333Y-116304762D01*
X139778571Y-116352381D01*
X139969048Y-116352381D01*
X140064286Y-116304762D01*
X140111905Y-116257143D01*
X140159524Y-116161905D01*
X140159524Y-115352381D01*
X141159524Y-116352381D02*
X140588095Y-116352381D01*
X140873809Y-116352381D02*
X140873809Y-115352381D01*
X140778571Y-115495238D01*
X140683333Y-115590476D01*
X140588095Y-115638095D01*
X132386667Y-120708571D02*
X132053333Y-120708571D01*
X132053333Y-121232381D02*
X132053333Y-120232381D01*
X132529524Y-120232381D01*
X133434286Y-121232381D02*
X132862857Y-121232381D01*
X133148571Y-121232381D02*
X133148571Y-120232381D01*
X133053333Y-120375238D01*
X132958095Y-120470476D01*
X132862857Y-120518095D01*
M02*
