G04 #@! TF.FileFunction,Copper,L1,Top,Signal*
%FSLAX46Y46*%
G04 Gerber Fmt 4.6, Leading zero omitted, Abs format (unit mm)*
G04 Created by KiCad (PCBNEW 4.0.1-stable) date Wednesday, April 13, 2016 'AMt' 11:34:57 AM*
%MOMM*%
G01*
G04 APERTURE LIST*
%ADD10C,0.100000*%
%ADD11C,0.010000*%
%ADD12R,0.700000X1.200000*%
%ADD13R,1.000000X1.200000*%
%ADD14R,1.300000X1.900000*%
%ADD15R,1.000000X2.800000*%
%ADD16R,1.000000X0.800000*%
%ADD17C,1.000000*%
%ADD18R,0.700000X0.200000*%
%ADD19R,1.501140X0.398780*%
%ADD20R,1.600000X2.000000*%
%ADD21R,0.750000X1.200000*%
%ADD22R,0.797560X0.797560*%
%ADD23R,0.900000X1.200000*%
%ADD24R,1.060000X0.650000*%
%ADD25C,0.685800*%
%ADD26C,0.685801*%
%ADD27C,0.152400*%
%ADD28C,0.254000*%
G04 APERTURE END LIST*
D10*
D11*
G36*
X145597890Y-123743476D02*
X145619607Y-123743821D01*
X145638555Y-123744540D01*
X145655765Y-123745719D01*
X145672270Y-123747441D01*
X145689101Y-123749790D01*
X145707292Y-123752850D01*
X145722352Y-123755645D01*
X145762711Y-123764396D01*
X145804606Y-123775414D01*
X145846059Y-123788125D01*
X145885093Y-123801957D01*
X145892895Y-123804990D01*
X145922503Y-123816780D01*
X145951560Y-123828531D01*
X145980332Y-123840368D01*
X146009083Y-123852414D01*
X146038081Y-123864793D01*
X146067591Y-123877628D01*
X146097879Y-123891043D01*
X146129210Y-123905162D01*
X146161851Y-123920109D01*
X146196067Y-123936008D01*
X146232124Y-123952981D01*
X146270288Y-123971153D01*
X146310824Y-123990648D01*
X146353999Y-124011589D01*
X146400078Y-124034100D01*
X146449327Y-124058305D01*
X146502013Y-124084327D01*
X146558399Y-124112290D01*
X146618754Y-124142318D01*
X146634333Y-124150083D01*
X146686341Y-124175963D01*
X146734400Y-124199774D01*
X146778855Y-124221675D01*
X146820050Y-124241825D01*
X146858331Y-124260383D01*
X146894043Y-124277509D01*
X146927531Y-124293361D01*
X146959140Y-124308099D01*
X146989214Y-124321882D01*
X147018099Y-124334869D01*
X147046140Y-124347221D01*
X147073682Y-124359095D01*
X147101069Y-124370651D01*
X147128648Y-124382048D01*
X147156761Y-124393446D01*
X147185756Y-124405004D01*
X147191784Y-124407386D01*
X147209241Y-124414341D01*
X147225202Y-124420833D01*
X147239121Y-124426627D01*
X147250450Y-124431492D01*
X147258645Y-124435195D01*
X147263158Y-124437503D01*
X147263869Y-124438075D01*
X147262563Y-124440832D01*
X147258180Y-124446251D01*
X147251270Y-124453795D01*
X147242385Y-124462924D01*
X147232075Y-124473099D01*
X147220890Y-124483782D01*
X147209380Y-124494433D01*
X147198096Y-124504515D01*
X147187588Y-124513487D01*
X147183204Y-124517062D01*
X147132211Y-124555188D01*
X147076855Y-124591379D01*
X147017225Y-124625598D01*
X146953406Y-124657810D01*
X146885487Y-124687978D01*
X146813555Y-124716066D01*
X146737696Y-124742040D01*
X146657998Y-124765862D01*
X146574549Y-124787496D01*
X146487435Y-124806907D01*
X146473467Y-124809744D01*
X146413669Y-124820927D01*
X146357688Y-124829711D01*
X146305154Y-124836122D01*
X146255698Y-124840187D01*
X146208950Y-124841931D01*
X146164542Y-124841382D01*
X146122103Y-124838567D01*
X146102375Y-124836425D01*
X146057479Y-124829163D01*
X146016093Y-124818835D01*
X145978274Y-124805475D01*
X145944079Y-124789116D01*
X145913565Y-124769792D01*
X145886788Y-124747535D01*
X145863805Y-124722379D01*
X145844673Y-124694357D01*
X145837520Y-124681186D01*
X145828869Y-124662070D01*
X145821870Y-124641992D01*
X145816258Y-124619947D01*
X145811770Y-124594928D01*
X145808778Y-124571810D01*
X145807017Y-124556104D01*
X145759847Y-124551992D01*
X145745104Y-124550714D01*
X145731916Y-124549583D01*
X145721079Y-124548667D01*
X145713388Y-124548033D01*
X145709639Y-124547747D01*
X145709510Y-124547741D01*
X145707469Y-124546313D01*
X145707773Y-124545286D01*
X145706528Y-124544251D01*
X145701914Y-124543987D01*
X145695321Y-124544379D01*
X145688137Y-124545312D01*
X145681751Y-124546672D01*
X145678810Y-124547675D01*
X145675033Y-124548715D01*
X145667280Y-124550402D01*
X145656345Y-124552577D01*
X145643022Y-124555085D01*
X145628107Y-124557768D01*
X145624381Y-124558420D01*
X145568505Y-124567682D01*
X145515420Y-124575481D01*
X145463382Y-124582048D01*
X145410652Y-124587618D01*
X145394571Y-124589116D01*
X145379191Y-124590209D01*
X145360536Y-124591055D01*
X145339533Y-124591653D01*
X145317109Y-124592003D01*
X145294192Y-124592105D01*
X145271706Y-124591958D01*
X145250581Y-124591562D01*
X145231741Y-124590917D01*
X145216114Y-124590022D01*
X145207095Y-124589190D01*
X145157156Y-124582570D01*
X145108568Y-124574418D01*
X145060046Y-124564468D01*
X145010304Y-124552450D01*
X144958055Y-124538096D01*
X144947445Y-124534996D01*
X144931948Y-124530341D01*
X144920529Y-124526674D01*
X144912586Y-124523756D01*
X144907514Y-124521346D01*
X144904714Y-124519204D01*
X144903722Y-124517578D01*
X144903066Y-124514072D01*
X144901989Y-124506328D01*
X144900557Y-124494920D01*
X144898841Y-124480422D01*
X144896906Y-124463409D01*
X144894823Y-124444456D01*
X144892704Y-124424582D01*
X144890241Y-124400806D01*
X144888316Y-124381429D01*
X144886901Y-124366043D01*
X144885968Y-124354244D01*
X144885489Y-124345623D01*
X144885436Y-124339776D01*
X144885783Y-124336294D01*
X144886500Y-124334773D01*
X144886565Y-124334728D01*
X144890819Y-124333159D01*
X144897571Y-124331623D01*
X144899605Y-124331280D01*
X144907317Y-124329889D01*
X144919009Y-124327518D01*
X144933961Y-124324332D01*
X144951451Y-124320495D01*
X144970760Y-124316171D01*
X144991165Y-124311523D01*
X145011946Y-124306716D01*
X145032383Y-124301914D01*
X145051754Y-124297280D01*
X145069339Y-124292979D01*
X145082514Y-124289664D01*
X145152888Y-124270903D01*
X145218710Y-124251815D01*
X145280260Y-124232305D01*
X145337819Y-124212280D01*
X145391666Y-124191646D01*
X145442082Y-124170309D01*
X145450210Y-124166661D01*
X145498672Y-124143036D01*
X145548023Y-124115787D01*
X145597083Y-124085663D01*
X145644673Y-124053417D01*
X145689616Y-124019797D01*
X145719933Y-123994939D01*
X145732045Y-123984405D01*
X145744616Y-123973151D01*
X145757155Y-123961653D01*
X145769170Y-123950384D01*
X145780171Y-123939818D01*
X145789665Y-123930429D01*
X145797161Y-123922691D01*
X145802168Y-123917077D01*
X145804194Y-123914062D01*
X145804151Y-123913738D01*
X145800610Y-123911991D01*
X145793091Y-123909332D01*
X145782321Y-123905973D01*
X145769025Y-123902129D01*
X145753931Y-123898015D01*
X145737765Y-123893845D01*
X145730819Y-123892125D01*
X145682885Y-123882245D01*
X145634747Y-123876066D01*
X145585937Y-123873600D01*
X145535987Y-123874860D01*
X145484427Y-123879857D01*
X145430790Y-123888605D01*
X145374605Y-123901115D01*
X145373269Y-123901449D01*
X145316150Y-123917728D01*
X145261384Y-123937221D01*
X145209173Y-123959771D01*
X145159722Y-123985220D01*
X145113232Y-124013411D01*
X145069907Y-124044186D01*
X145029950Y-124077388D01*
X144993562Y-124112858D01*
X144960948Y-124150440D01*
X144932311Y-124189977D01*
X144907852Y-124231309D01*
X144887775Y-124274281D01*
X144885373Y-124280296D01*
X144877804Y-124299648D01*
X144776354Y-124396202D01*
X144757831Y-124413846D01*
X144740380Y-124430497D01*
X144724311Y-124445857D01*
X144709936Y-124459627D01*
X144697566Y-124471508D01*
X144687512Y-124481202D01*
X144680085Y-124488409D01*
X144675596Y-124492832D01*
X144674324Y-124494174D01*
X144676351Y-124495404D01*
X144682387Y-124498401D01*
X144692016Y-124502971D01*
X144704824Y-124508924D01*
X144720395Y-124516069D01*
X144738314Y-124524213D01*
X144758164Y-124533165D01*
X144779531Y-124542735D01*
X144784640Y-124545013D01*
X144895536Y-124594436D01*
X144907083Y-124635728D01*
X144912641Y-124654900D01*
X144919390Y-124677059D01*
X144926912Y-124700919D01*
X144934791Y-124725195D01*
X144942611Y-124748602D01*
X144949953Y-124769855D01*
X144956122Y-124786919D01*
X144959858Y-124796304D01*
X144962957Y-124802115D01*
X144966150Y-124805417D01*
X144970055Y-124807241D01*
X144975062Y-124808040D01*
X144984196Y-124808683D01*
X144996750Y-124809172D01*
X145012014Y-124809507D01*
X145029280Y-124809690D01*
X145047842Y-124809724D01*
X145066989Y-124809608D01*
X145086014Y-124809345D01*
X145104209Y-124808937D01*
X145120866Y-124808384D01*
X145135276Y-124807689D01*
X145146619Y-124806863D01*
X145258351Y-124794774D01*
X145326838Y-124785603D01*
X145356132Y-124781189D01*
X145381379Y-124776868D01*
X145403360Y-124772428D01*
X145422857Y-124767653D01*
X145440651Y-124762331D01*
X145457523Y-124756246D01*
X145474255Y-124749184D01*
X145491628Y-124740933D01*
X145493752Y-124739873D01*
X145532076Y-124718252D01*
X145569659Y-124692307D01*
X145605869Y-124662553D01*
X145640073Y-124629502D01*
X145667363Y-124598880D01*
X145680019Y-124583635D01*
X145680019Y-124591987D01*
X145680712Y-124602188D01*
X145682625Y-124615800D01*
X145685512Y-124631624D01*
X145689127Y-124648462D01*
X145693222Y-124665114D01*
X145697550Y-124680381D01*
X145699405Y-124686173D01*
X145715445Y-124726904D01*
X145735322Y-124764716D01*
X145758978Y-124799558D01*
X145786350Y-124831374D01*
X145817380Y-124860111D01*
X145852006Y-124885717D01*
X145890168Y-124908137D01*
X145931805Y-124927319D01*
X145976857Y-124943209D01*
X145996914Y-124948923D01*
X146032741Y-124957339D01*
X146069615Y-124963721D01*
X146108407Y-124968166D01*
X146149988Y-124970775D01*
X146195228Y-124971646D01*
X146196486Y-124971647D01*
X146231578Y-124971229D01*
X146265663Y-124969929D01*
X146299533Y-124967658D01*
X146333982Y-124964326D01*
X146369803Y-124959845D01*
X146407790Y-124954126D01*
X146448735Y-124947080D01*
X146493433Y-124938618D01*
X146496448Y-124938025D01*
X146581094Y-124919934D01*
X146663037Y-124899615D01*
X146742112Y-124877142D01*
X146818153Y-124852591D01*
X146890995Y-124826036D01*
X146960474Y-124797553D01*
X147026424Y-124767216D01*
X147088680Y-124735101D01*
X147147077Y-124701282D01*
X147201450Y-124665834D01*
X147251633Y-124628833D01*
X147297462Y-124590352D01*
X147329810Y-124559632D01*
X147340875Y-124548214D01*
X147352189Y-124536029D01*
X147362638Y-124524311D01*
X147371104Y-124514294D01*
X147373352Y-124511469D01*
X147380273Y-124502594D01*
X147386408Y-124494754D01*
X147390943Y-124488989D01*
X147392705Y-124486775D01*
X147394587Y-124484749D01*
X147396870Y-124483686D01*
X147400577Y-124483591D01*
X147406727Y-124484470D01*
X147416345Y-124486329D01*
X147419314Y-124486929D01*
X147490473Y-124498886D01*
X147562069Y-124506051D01*
X147634224Y-124508432D01*
X147707057Y-124506035D01*
X147718067Y-124505262D01*
X147775880Y-124500415D01*
X147838159Y-124494221D01*
X147904730Y-124486710D01*
X147975420Y-124477912D01*
X148050056Y-124467858D01*
X148128464Y-124456576D01*
X148210473Y-124444097D01*
X148295908Y-124430450D01*
X148384598Y-124415667D01*
X148476368Y-124399776D01*
X148571045Y-124382808D01*
X148668458Y-124364792D01*
X148768432Y-124345758D01*
X148870795Y-124325737D01*
X148975373Y-124304759D01*
X149081995Y-124282852D01*
X149190485Y-124260048D01*
X149300672Y-124236376D01*
X149405352Y-124213423D01*
X149435862Y-124206666D01*
X149462069Y-124200983D01*
X149484406Y-124196466D01*
X149503307Y-124193208D01*
X149519208Y-124191300D01*
X149532541Y-124190835D01*
X149543740Y-124191905D01*
X149553240Y-124194603D01*
X149561475Y-124199020D01*
X149568879Y-124205249D01*
X149575886Y-124213382D01*
X149582929Y-124223511D01*
X149590443Y-124235729D01*
X149598862Y-124250128D01*
X149601797Y-124255174D01*
X149627352Y-124300278D01*
X149651306Y-124345021D01*
X149673386Y-124388833D01*
X149693323Y-124431142D01*
X149710844Y-124471379D01*
X149725680Y-124508973D01*
X149735187Y-124536018D01*
X149745789Y-124571958D01*
X149753137Y-124605498D01*
X149757251Y-124636481D01*
X149758150Y-124664750D01*
X149755853Y-124690150D01*
X149750378Y-124712523D01*
X149741744Y-124731713D01*
X149729969Y-124747563D01*
X149715074Y-124759917D01*
X149707857Y-124764043D01*
X149700908Y-124767306D01*
X149693331Y-124770302D01*
X149684879Y-124773051D01*
X149675307Y-124775572D01*
X149664372Y-124777884D01*
X149651826Y-124780007D01*
X149637427Y-124781960D01*
X149620927Y-124783761D01*
X149602084Y-124785431D01*
X149580650Y-124786989D01*
X149556383Y-124788454D01*
X149529035Y-124789845D01*
X149498363Y-124791181D01*
X149464121Y-124792483D01*
X149426065Y-124793769D01*
X149383949Y-124795058D01*
X149337529Y-124796370D01*
X149286558Y-124797724D01*
X149277143Y-124797967D01*
X149193433Y-124800256D01*
X149114179Y-124802711D01*
X149038999Y-124805352D01*
X148967513Y-124808202D01*
X148899340Y-124811281D01*
X148834099Y-124814609D01*
X148771411Y-124818209D01*
X148710893Y-124822101D01*
X148652165Y-124826306D01*
X148594847Y-124830846D01*
X148538558Y-124835740D01*
X148482917Y-124841011D01*
X148464343Y-124842866D01*
X148376092Y-124852350D01*
X148290744Y-124862702D01*
X148207787Y-124874038D01*
X148126707Y-124886474D01*
X148046991Y-124900127D01*
X147968125Y-124915112D01*
X147889598Y-124931546D01*
X147810894Y-124949545D01*
X147731502Y-124969225D01*
X147650908Y-124990703D01*
X147568599Y-125014095D01*
X147484062Y-125039516D01*
X147396783Y-125067083D01*
X147306249Y-125096912D01*
X147234257Y-125121406D01*
X147200067Y-125133412D01*
X147167474Y-125145361D01*
X147136018Y-125157474D01*
X147105241Y-125169971D01*
X147074683Y-125183070D01*
X147043886Y-125196991D01*
X147012390Y-125211955D01*
X146979736Y-125228180D01*
X146945466Y-125245887D01*
X146909120Y-125265295D01*
X146870239Y-125286623D01*
X146828365Y-125310092D01*
X146783038Y-125335920D01*
X146768590Y-125344224D01*
X146728393Y-125367353D01*
X146692070Y-125388218D01*
X146659315Y-125406989D01*
X146629820Y-125423834D01*
X146603279Y-125438923D01*
X146579386Y-125452425D01*
X146557832Y-125464510D01*
X146538311Y-125475347D01*
X146520516Y-125485105D01*
X146504140Y-125493953D01*
X146488876Y-125502061D01*
X146474417Y-125509598D01*
X146460457Y-125516734D01*
X146446687Y-125523637D01*
X146432802Y-125530478D01*
X146418494Y-125537425D01*
X146417239Y-125538031D01*
X146370995Y-125559588D01*
X146327371Y-125578276D01*
X146285428Y-125594365D01*
X146244223Y-125608123D01*
X146202818Y-125619819D01*
X146160270Y-125629722D01*
X146115639Y-125638101D01*
X146067985Y-125645226D01*
X146023524Y-125650592D01*
X145995419Y-125653170D01*
X145963913Y-125655200D01*
X145930417Y-125656643D01*
X145896340Y-125657463D01*
X145863094Y-125657622D01*
X145832088Y-125657082D01*
X145811857Y-125656234D01*
X145757311Y-125651679D01*
X145702141Y-125644053D01*
X145647162Y-125633561D01*
X145593189Y-125620409D01*
X145541036Y-125604801D01*
X145491518Y-125586941D01*
X145445451Y-125567036D01*
X145433034Y-125561000D01*
X145377505Y-125530655D01*
X145323181Y-125495709D01*
X145270159Y-125456270D01*
X145218534Y-125412446D01*
X145168402Y-125364345D01*
X145119859Y-125312076D01*
X145073001Y-125255746D01*
X145027924Y-125195465D01*
X144984723Y-125131339D01*
X144943495Y-125063477D01*
X144904335Y-124991987D01*
X144873415Y-124929852D01*
X144860840Y-124902482D01*
X144848757Y-124874118D01*
X144836818Y-124843873D01*
X144824676Y-124810861D01*
X144811984Y-124774197D01*
X144809005Y-124765315D01*
X144803746Y-124749237D01*
X144798189Y-124731690D01*
X144792577Y-124713490D01*
X144787149Y-124695456D01*
X144782149Y-124678405D01*
X144777818Y-124663156D01*
X144774397Y-124650525D01*
X144772129Y-124641330D01*
X144771573Y-124638669D01*
X144770086Y-124630741D01*
X144629779Y-124574122D01*
X144605107Y-124564148D01*
X144581788Y-124554687D01*
X144560205Y-124545897D01*
X144540741Y-124537934D01*
X144523781Y-124530958D01*
X144509707Y-124525125D01*
X144498904Y-124520595D01*
X144491754Y-124517524D01*
X144488641Y-124516070D01*
X144488539Y-124515993D01*
X144490144Y-124514176D01*
X144495082Y-124509406D01*
X144503071Y-124501941D01*
X144513825Y-124492039D01*
X144527061Y-124479960D01*
X144542494Y-124465962D01*
X144559841Y-124450303D01*
X144578816Y-124433243D01*
X144599137Y-124415039D01*
X144616539Y-124399499D01*
X144641236Y-124377467D01*
X144662571Y-124358409D01*
X144680798Y-124342080D01*
X144696170Y-124328239D01*
X144708940Y-124316642D01*
X144719361Y-124307046D01*
X144727686Y-124299209D01*
X144734169Y-124292887D01*
X144739062Y-124287839D01*
X144742619Y-124283820D01*
X144745092Y-124280588D01*
X144746736Y-124277901D01*
X144747802Y-124275515D01*
X144748545Y-124273187D01*
X144748671Y-124272730D01*
X144753066Y-124258639D01*
X144759307Y-124241530D01*
X144766899Y-124222617D01*
X144775342Y-124203114D01*
X144784141Y-124184235D01*
X144788663Y-124175123D01*
X144810913Y-124135208D01*
X144836441Y-124096722D01*
X144865714Y-124059028D01*
X144899199Y-124021488D01*
X144908212Y-124012125D01*
X144946275Y-123975413D01*
X144985552Y-123942167D01*
X145026870Y-123911793D01*
X145071052Y-123883696D01*
X145118924Y-123857283D01*
X145133314Y-123850002D01*
X145179980Y-123828147D01*
X145226618Y-123809060D01*
X145274071Y-123792485D01*
X145323182Y-123778166D01*
X145374792Y-123765846D01*
X145429745Y-123755269D01*
X145461609Y-123750116D01*
X145475211Y-123748114D01*
X145487093Y-123746560D01*
X145498213Y-123745397D01*
X145509528Y-123744566D01*
X145521995Y-123744011D01*
X145536570Y-123743672D01*
X145554211Y-123743493D01*
X145572371Y-123743423D01*
X145597890Y-123743476D01*
X145597890Y-123743476D01*
G37*
X145597890Y-123743476D02*
X145619607Y-123743821D01*
X145638555Y-123744540D01*
X145655765Y-123745719D01*
X145672270Y-123747441D01*
X145689101Y-123749790D01*
X145707292Y-123752850D01*
X145722352Y-123755645D01*
X145762711Y-123764396D01*
X145804606Y-123775414D01*
X145846059Y-123788125D01*
X145885093Y-123801957D01*
X145892895Y-123804990D01*
X145922503Y-123816780D01*
X145951560Y-123828531D01*
X145980332Y-123840368D01*
X146009083Y-123852414D01*
X146038081Y-123864793D01*
X146067591Y-123877628D01*
X146097879Y-123891043D01*
X146129210Y-123905162D01*
X146161851Y-123920109D01*
X146196067Y-123936008D01*
X146232124Y-123952981D01*
X146270288Y-123971153D01*
X146310824Y-123990648D01*
X146353999Y-124011589D01*
X146400078Y-124034100D01*
X146449327Y-124058305D01*
X146502013Y-124084327D01*
X146558399Y-124112290D01*
X146618754Y-124142318D01*
X146634333Y-124150083D01*
X146686341Y-124175963D01*
X146734400Y-124199774D01*
X146778855Y-124221675D01*
X146820050Y-124241825D01*
X146858331Y-124260383D01*
X146894043Y-124277509D01*
X146927531Y-124293361D01*
X146959140Y-124308099D01*
X146989214Y-124321882D01*
X147018099Y-124334869D01*
X147046140Y-124347221D01*
X147073682Y-124359095D01*
X147101069Y-124370651D01*
X147128648Y-124382048D01*
X147156761Y-124393446D01*
X147185756Y-124405004D01*
X147191784Y-124407386D01*
X147209241Y-124414341D01*
X147225202Y-124420833D01*
X147239121Y-124426627D01*
X147250450Y-124431492D01*
X147258645Y-124435195D01*
X147263158Y-124437503D01*
X147263869Y-124438075D01*
X147262563Y-124440832D01*
X147258180Y-124446251D01*
X147251270Y-124453795D01*
X147242385Y-124462924D01*
X147232075Y-124473099D01*
X147220890Y-124483782D01*
X147209380Y-124494433D01*
X147198096Y-124504515D01*
X147187588Y-124513487D01*
X147183204Y-124517062D01*
X147132211Y-124555188D01*
X147076855Y-124591379D01*
X147017225Y-124625598D01*
X146953406Y-124657810D01*
X146885487Y-124687978D01*
X146813555Y-124716066D01*
X146737696Y-124742040D01*
X146657998Y-124765862D01*
X146574549Y-124787496D01*
X146487435Y-124806907D01*
X146473467Y-124809744D01*
X146413669Y-124820927D01*
X146357688Y-124829711D01*
X146305154Y-124836122D01*
X146255698Y-124840187D01*
X146208950Y-124841931D01*
X146164542Y-124841382D01*
X146122103Y-124838567D01*
X146102375Y-124836425D01*
X146057479Y-124829163D01*
X146016093Y-124818835D01*
X145978274Y-124805475D01*
X145944079Y-124789116D01*
X145913565Y-124769792D01*
X145886788Y-124747535D01*
X145863805Y-124722379D01*
X145844673Y-124694357D01*
X145837520Y-124681186D01*
X145828869Y-124662070D01*
X145821870Y-124641992D01*
X145816258Y-124619947D01*
X145811770Y-124594928D01*
X145808778Y-124571810D01*
X145807017Y-124556104D01*
X145759847Y-124551992D01*
X145745104Y-124550714D01*
X145731916Y-124549583D01*
X145721079Y-124548667D01*
X145713388Y-124548033D01*
X145709639Y-124547747D01*
X145709510Y-124547741D01*
X145707469Y-124546313D01*
X145707773Y-124545286D01*
X145706528Y-124544251D01*
X145701914Y-124543987D01*
X145695321Y-124544379D01*
X145688137Y-124545312D01*
X145681751Y-124546672D01*
X145678810Y-124547675D01*
X145675033Y-124548715D01*
X145667280Y-124550402D01*
X145656345Y-124552577D01*
X145643022Y-124555085D01*
X145628107Y-124557768D01*
X145624381Y-124558420D01*
X145568505Y-124567682D01*
X145515420Y-124575481D01*
X145463382Y-124582048D01*
X145410652Y-124587618D01*
X145394571Y-124589116D01*
X145379191Y-124590209D01*
X145360536Y-124591055D01*
X145339533Y-124591653D01*
X145317109Y-124592003D01*
X145294192Y-124592105D01*
X145271706Y-124591958D01*
X145250581Y-124591562D01*
X145231741Y-124590917D01*
X145216114Y-124590022D01*
X145207095Y-124589190D01*
X145157156Y-124582570D01*
X145108568Y-124574418D01*
X145060046Y-124564468D01*
X145010304Y-124552450D01*
X144958055Y-124538096D01*
X144947445Y-124534996D01*
X144931948Y-124530341D01*
X144920529Y-124526674D01*
X144912586Y-124523756D01*
X144907514Y-124521346D01*
X144904714Y-124519204D01*
X144903722Y-124517578D01*
X144903066Y-124514072D01*
X144901989Y-124506328D01*
X144900557Y-124494920D01*
X144898841Y-124480422D01*
X144896906Y-124463409D01*
X144894823Y-124444456D01*
X144892704Y-124424582D01*
X144890241Y-124400806D01*
X144888316Y-124381429D01*
X144886901Y-124366043D01*
X144885968Y-124354244D01*
X144885489Y-124345623D01*
X144885436Y-124339776D01*
X144885783Y-124336294D01*
X144886500Y-124334773D01*
X144886565Y-124334728D01*
X144890819Y-124333159D01*
X144897571Y-124331623D01*
X144899605Y-124331280D01*
X144907317Y-124329889D01*
X144919009Y-124327518D01*
X144933961Y-124324332D01*
X144951451Y-124320495D01*
X144970760Y-124316171D01*
X144991165Y-124311523D01*
X145011946Y-124306716D01*
X145032383Y-124301914D01*
X145051754Y-124297280D01*
X145069339Y-124292979D01*
X145082514Y-124289664D01*
X145152888Y-124270903D01*
X145218710Y-124251815D01*
X145280260Y-124232305D01*
X145337819Y-124212280D01*
X145391666Y-124191646D01*
X145442082Y-124170309D01*
X145450210Y-124166661D01*
X145498672Y-124143036D01*
X145548023Y-124115787D01*
X145597083Y-124085663D01*
X145644673Y-124053417D01*
X145689616Y-124019797D01*
X145719933Y-123994939D01*
X145732045Y-123984405D01*
X145744616Y-123973151D01*
X145757155Y-123961653D01*
X145769170Y-123950384D01*
X145780171Y-123939818D01*
X145789665Y-123930429D01*
X145797161Y-123922691D01*
X145802168Y-123917077D01*
X145804194Y-123914062D01*
X145804151Y-123913738D01*
X145800610Y-123911991D01*
X145793091Y-123909332D01*
X145782321Y-123905973D01*
X145769025Y-123902129D01*
X145753931Y-123898015D01*
X145737765Y-123893845D01*
X145730819Y-123892125D01*
X145682885Y-123882245D01*
X145634747Y-123876066D01*
X145585937Y-123873600D01*
X145535987Y-123874860D01*
X145484427Y-123879857D01*
X145430790Y-123888605D01*
X145374605Y-123901115D01*
X145373269Y-123901449D01*
X145316150Y-123917728D01*
X145261384Y-123937221D01*
X145209173Y-123959771D01*
X145159722Y-123985220D01*
X145113232Y-124013411D01*
X145069907Y-124044186D01*
X145029950Y-124077388D01*
X144993562Y-124112858D01*
X144960948Y-124150440D01*
X144932311Y-124189977D01*
X144907852Y-124231309D01*
X144887775Y-124274281D01*
X144885373Y-124280296D01*
X144877804Y-124299648D01*
X144776354Y-124396202D01*
X144757831Y-124413846D01*
X144740380Y-124430497D01*
X144724311Y-124445857D01*
X144709936Y-124459627D01*
X144697566Y-124471508D01*
X144687512Y-124481202D01*
X144680085Y-124488409D01*
X144675596Y-124492832D01*
X144674324Y-124494174D01*
X144676351Y-124495404D01*
X144682387Y-124498401D01*
X144692016Y-124502971D01*
X144704824Y-124508924D01*
X144720395Y-124516069D01*
X144738314Y-124524213D01*
X144758164Y-124533165D01*
X144779531Y-124542735D01*
X144784640Y-124545013D01*
X144895536Y-124594436D01*
X144907083Y-124635728D01*
X144912641Y-124654900D01*
X144919390Y-124677059D01*
X144926912Y-124700919D01*
X144934791Y-124725195D01*
X144942611Y-124748602D01*
X144949953Y-124769855D01*
X144956122Y-124786919D01*
X144959858Y-124796304D01*
X144962957Y-124802115D01*
X144966150Y-124805417D01*
X144970055Y-124807241D01*
X144975062Y-124808040D01*
X144984196Y-124808683D01*
X144996750Y-124809172D01*
X145012014Y-124809507D01*
X145029280Y-124809690D01*
X145047842Y-124809724D01*
X145066989Y-124809608D01*
X145086014Y-124809345D01*
X145104209Y-124808937D01*
X145120866Y-124808384D01*
X145135276Y-124807689D01*
X145146619Y-124806863D01*
X145258351Y-124794774D01*
X145326838Y-124785603D01*
X145356132Y-124781189D01*
X145381379Y-124776868D01*
X145403360Y-124772428D01*
X145422857Y-124767653D01*
X145440651Y-124762331D01*
X145457523Y-124756246D01*
X145474255Y-124749184D01*
X145491628Y-124740933D01*
X145493752Y-124739873D01*
X145532076Y-124718252D01*
X145569659Y-124692307D01*
X145605869Y-124662553D01*
X145640073Y-124629502D01*
X145667363Y-124598880D01*
X145680019Y-124583635D01*
X145680019Y-124591987D01*
X145680712Y-124602188D01*
X145682625Y-124615800D01*
X145685512Y-124631624D01*
X145689127Y-124648462D01*
X145693222Y-124665114D01*
X145697550Y-124680381D01*
X145699405Y-124686173D01*
X145715445Y-124726904D01*
X145735322Y-124764716D01*
X145758978Y-124799558D01*
X145786350Y-124831374D01*
X145817380Y-124860111D01*
X145852006Y-124885717D01*
X145890168Y-124908137D01*
X145931805Y-124927319D01*
X145976857Y-124943209D01*
X145996914Y-124948923D01*
X146032741Y-124957339D01*
X146069615Y-124963721D01*
X146108407Y-124968166D01*
X146149988Y-124970775D01*
X146195228Y-124971646D01*
X146196486Y-124971647D01*
X146231578Y-124971229D01*
X146265663Y-124969929D01*
X146299533Y-124967658D01*
X146333982Y-124964326D01*
X146369803Y-124959845D01*
X146407790Y-124954126D01*
X146448735Y-124947080D01*
X146493433Y-124938618D01*
X146496448Y-124938025D01*
X146581094Y-124919934D01*
X146663037Y-124899615D01*
X146742112Y-124877142D01*
X146818153Y-124852591D01*
X146890995Y-124826036D01*
X146960474Y-124797553D01*
X147026424Y-124767216D01*
X147088680Y-124735101D01*
X147147077Y-124701282D01*
X147201450Y-124665834D01*
X147251633Y-124628833D01*
X147297462Y-124590352D01*
X147329810Y-124559632D01*
X147340875Y-124548214D01*
X147352189Y-124536029D01*
X147362638Y-124524311D01*
X147371104Y-124514294D01*
X147373352Y-124511469D01*
X147380273Y-124502594D01*
X147386408Y-124494754D01*
X147390943Y-124488989D01*
X147392705Y-124486775D01*
X147394587Y-124484749D01*
X147396870Y-124483686D01*
X147400577Y-124483591D01*
X147406727Y-124484470D01*
X147416345Y-124486329D01*
X147419314Y-124486929D01*
X147490473Y-124498886D01*
X147562069Y-124506051D01*
X147634224Y-124508432D01*
X147707057Y-124506035D01*
X147718067Y-124505262D01*
X147775880Y-124500415D01*
X147838159Y-124494221D01*
X147904730Y-124486710D01*
X147975420Y-124477912D01*
X148050056Y-124467858D01*
X148128464Y-124456576D01*
X148210473Y-124444097D01*
X148295908Y-124430450D01*
X148384598Y-124415667D01*
X148476368Y-124399776D01*
X148571045Y-124382808D01*
X148668458Y-124364792D01*
X148768432Y-124345758D01*
X148870795Y-124325737D01*
X148975373Y-124304759D01*
X149081995Y-124282852D01*
X149190485Y-124260048D01*
X149300672Y-124236376D01*
X149405352Y-124213423D01*
X149435862Y-124206666D01*
X149462069Y-124200983D01*
X149484406Y-124196466D01*
X149503307Y-124193208D01*
X149519208Y-124191300D01*
X149532541Y-124190835D01*
X149543740Y-124191905D01*
X149553240Y-124194603D01*
X149561475Y-124199020D01*
X149568879Y-124205249D01*
X149575886Y-124213382D01*
X149582929Y-124223511D01*
X149590443Y-124235729D01*
X149598862Y-124250128D01*
X149601797Y-124255174D01*
X149627352Y-124300278D01*
X149651306Y-124345021D01*
X149673386Y-124388833D01*
X149693323Y-124431142D01*
X149710844Y-124471379D01*
X149725680Y-124508973D01*
X149735187Y-124536018D01*
X149745789Y-124571958D01*
X149753137Y-124605498D01*
X149757251Y-124636481D01*
X149758150Y-124664750D01*
X149755853Y-124690150D01*
X149750378Y-124712523D01*
X149741744Y-124731713D01*
X149729969Y-124747563D01*
X149715074Y-124759917D01*
X149707857Y-124764043D01*
X149700908Y-124767306D01*
X149693331Y-124770302D01*
X149684879Y-124773051D01*
X149675307Y-124775572D01*
X149664372Y-124777884D01*
X149651826Y-124780007D01*
X149637427Y-124781960D01*
X149620927Y-124783761D01*
X149602084Y-124785431D01*
X149580650Y-124786989D01*
X149556383Y-124788454D01*
X149529035Y-124789845D01*
X149498363Y-124791181D01*
X149464121Y-124792483D01*
X149426065Y-124793769D01*
X149383949Y-124795058D01*
X149337529Y-124796370D01*
X149286558Y-124797724D01*
X149277143Y-124797967D01*
X149193433Y-124800256D01*
X149114179Y-124802711D01*
X149038999Y-124805352D01*
X148967513Y-124808202D01*
X148899340Y-124811281D01*
X148834099Y-124814609D01*
X148771411Y-124818209D01*
X148710893Y-124822101D01*
X148652165Y-124826306D01*
X148594847Y-124830846D01*
X148538558Y-124835740D01*
X148482917Y-124841011D01*
X148464343Y-124842866D01*
X148376092Y-124852350D01*
X148290744Y-124862702D01*
X148207787Y-124874038D01*
X148126707Y-124886474D01*
X148046991Y-124900127D01*
X147968125Y-124915112D01*
X147889598Y-124931546D01*
X147810894Y-124949545D01*
X147731502Y-124969225D01*
X147650908Y-124990703D01*
X147568599Y-125014095D01*
X147484062Y-125039516D01*
X147396783Y-125067083D01*
X147306249Y-125096912D01*
X147234257Y-125121406D01*
X147200067Y-125133412D01*
X147167474Y-125145361D01*
X147136018Y-125157474D01*
X147105241Y-125169971D01*
X147074683Y-125183070D01*
X147043886Y-125196991D01*
X147012390Y-125211955D01*
X146979736Y-125228180D01*
X146945466Y-125245887D01*
X146909120Y-125265295D01*
X146870239Y-125286623D01*
X146828365Y-125310092D01*
X146783038Y-125335920D01*
X146768590Y-125344224D01*
X146728393Y-125367353D01*
X146692070Y-125388218D01*
X146659315Y-125406989D01*
X146629820Y-125423834D01*
X146603279Y-125438923D01*
X146579386Y-125452425D01*
X146557832Y-125464510D01*
X146538311Y-125475347D01*
X146520516Y-125485105D01*
X146504140Y-125493953D01*
X146488876Y-125502061D01*
X146474417Y-125509598D01*
X146460457Y-125516734D01*
X146446687Y-125523637D01*
X146432802Y-125530478D01*
X146418494Y-125537425D01*
X146417239Y-125538031D01*
X146370995Y-125559588D01*
X146327371Y-125578276D01*
X146285428Y-125594365D01*
X146244223Y-125608123D01*
X146202818Y-125619819D01*
X146160270Y-125629722D01*
X146115639Y-125638101D01*
X146067985Y-125645226D01*
X146023524Y-125650592D01*
X145995419Y-125653170D01*
X145963913Y-125655200D01*
X145930417Y-125656643D01*
X145896340Y-125657463D01*
X145863094Y-125657622D01*
X145832088Y-125657082D01*
X145811857Y-125656234D01*
X145757311Y-125651679D01*
X145702141Y-125644053D01*
X145647162Y-125633561D01*
X145593189Y-125620409D01*
X145541036Y-125604801D01*
X145491518Y-125586941D01*
X145445451Y-125567036D01*
X145433034Y-125561000D01*
X145377505Y-125530655D01*
X145323181Y-125495709D01*
X145270159Y-125456270D01*
X145218534Y-125412446D01*
X145168402Y-125364345D01*
X145119859Y-125312076D01*
X145073001Y-125255746D01*
X145027924Y-125195465D01*
X144984723Y-125131339D01*
X144943495Y-125063477D01*
X144904335Y-124991987D01*
X144873415Y-124929852D01*
X144860840Y-124902482D01*
X144848757Y-124874118D01*
X144836818Y-124843873D01*
X144824676Y-124810861D01*
X144811984Y-124774197D01*
X144809005Y-124765315D01*
X144803746Y-124749237D01*
X144798189Y-124731690D01*
X144792577Y-124713490D01*
X144787149Y-124695456D01*
X144782149Y-124678405D01*
X144777818Y-124663156D01*
X144774397Y-124650525D01*
X144772129Y-124641330D01*
X144771573Y-124638669D01*
X144770086Y-124630741D01*
X144629779Y-124574122D01*
X144605107Y-124564148D01*
X144581788Y-124554687D01*
X144560205Y-124545897D01*
X144540741Y-124537934D01*
X144523781Y-124530958D01*
X144509707Y-124525125D01*
X144498904Y-124520595D01*
X144491754Y-124517524D01*
X144488641Y-124516070D01*
X144488539Y-124515993D01*
X144490144Y-124514176D01*
X144495082Y-124509406D01*
X144503071Y-124501941D01*
X144513825Y-124492039D01*
X144527061Y-124479960D01*
X144542494Y-124465962D01*
X144559841Y-124450303D01*
X144578816Y-124433243D01*
X144599137Y-124415039D01*
X144616539Y-124399499D01*
X144641236Y-124377467D01*
X144662571Y-124358409D01*
X144680798Y-124342080D01*
X144696170Y-124328239D01*
X144708940Y-124316642D01*
X144719361Y-124307046D01*
X144727686Y-124299209D01*
X144734169Y-124292887D01*
X144739062Y-124287839D01*
X144742619Y-124283820D01*
X144745092Y-124280588D01*
X144746736Y-124277901D01*
X144747802Y-124275515D01*
X144748545Y-124273187D01*
X144748671Y-124272730D01*
X144753066Y-124258639D01*
X144759307Y-124241530D01*
X144766899Y-124222617D01*
X144775342Y-124203114D01*
X144784141Y-124184235D01*
X144788663Y-124175123D01*
X144810913Y-124135208D01*
X144836441Y-124096722D01*
X144865714Y-124059028D01*
X144899199Y-124021488D01*
X144908212Y-124012125D01*
X144946275Y-123975413D01*
X144985552Y-123942167D01*
X145026870Y-123911793D01*
X145071052Y-123883696D01*
X145118924Y-123857283D01*
X145133314Y-123850002D01*
X145179980Y-123828147D01*
X145226618Y-123809060D01*
X145274071Y-123792485D01*
X145323182Y-123778166D01*
X145374792Y-123765846D01*
X145429745Y-123755269D01*
X145461609Y-123750116D01*
X145475211Y-123748114D01*
X145487093Y-123746560D01*
X145498213Y-123745397D01*
X145509528Y-123744566D01*
X145521995Y-123744011D01*
X145536570Y-123743672D01*
X145554211Y-123743493D01*
X145572371Y-123743423D01*
X145597890Y-123743476D01*
G36*
X157211912Y-119689328D02*
X157249087Y-119689340D01*
X157281821Y-119689366D01*
X157310406Y-119689411D01*
X157335137Y-119689481D01*
X157356306Y-119689581D01*
X157374208Y-119689715D01*
X157389136Y-119689889D01*
X157401384Y-119690109D01*
X157411247Y-119690379D01*
X157419017Y-119690705D01*
X157424988Y-119691092D01*
X157429454Y-119691544D01*
X157432709Y-119692067D01*
X157435046Y-119692667D01*
X157436760Y-119693349D01*
X157438032Y-119694048D01*
X157444217Y-119699369D01*
X157448517Y-119705738D01*
X157448618Y-119705984D01*
X157449468Y-119709432D01*
X157451162Y-119717481D01*
X157453633Y-119729785D01*
X157456816Y-119745999D01*
X157460644Y-119765777D01*
X157465052Y-119788772D01*
X157469972Y-119814640D01*
X157475339Y-119843034D01*
X157481087Y-119873609D01*
X157487150Y-119906019D01*
X157493461Y-119939918D01*
X157496888Y-119958396D01*
X157503321Y-119993102D01*
X157509535Y-120026614D01*
X157515466Y-120058574D01*
X157521046Y-120088625D01*
X157526209Y-120116411D01*
X157530889Y-120141572D01*
X157535018Y-120163753D01*
X157538531Y-120182596D01*
X157541362Y-120197743D01*
X157543443Y-120208837D01*
X157544708Y-120215522D01*
X157545013Y-120217096D01*
X157545885Y-120221591D01*
X157546785Y-120225572D01*
X157548016Y-120229199D01*
X157549879Y-120232631D01*
X157552678Y-120236027D01*
X157556715Y-120239546D01*
X157562292Y-120243349D01*
X157569712Y-120247593D01*
X157579277Y-120252440D01*
X157591290Y-120258046D01*
X157606054Y-120264573D01*
X157623871Y-120272180D01*
X157645043Y-120281025D01*
X157669873Y-120291268D01*
X157698663Y-120303068D01*
X157731716Y-120316586D01*
X157741628Y-120320639D01*
X157776076Y-120334740D01*
X157806188Y-120347060D01*
X157832294Y-120357692D01*
X157854727Y-120366727D01*
X157873816Y-120374258D01*
X157889894Y-120380378D01*
X157903292Y-120385177D01*
X157914341Y-120388748D01*
X157923372Y-120391184D01*
X157930717Y-120392576D01*
X157936707Y-120393017D01*
X157941673Y-120392599D01*
X157945947Y-120391413D01*
X157949860Y-120389553D01*
X157953743Y-120387110D01*
X157957927Y-120384176D01*
X157961390Y-120381759D01*
X157965895Y-120378675D01*
X157974234Y-120372960D01*
X157986094Y-120364828D01*
X158001161Y-120354496D01*
X158019123Y-120342176D01*
X158039666Y-120328085D01*
X158062477Y-120312437D01*
X158087244Y-120295447D01*
X158113652Y-120277329D01*
X158141388Y-120258299D01*
X158170140Y-120238571D01*
X158181367Y-120230867D01*
X158214967Y-120207819D01*
X158244678Y-120187457D01*
X158270756Y-120169616D01*
X158293454Y-120154130D01*
X158313028Y-120140833D01*
X158329732Y-120129561D01*
X158343819Y-120120146D01*
X158355546Y-120112424D01*
X158365166Y-120106229D01*
X158372934Y-120101394D01*
X158379104Y-120097754D01*
X158383931Y-120095144D01*
X158387669Y-120093398D01*
X158390573Y-120092350D01*
X158392897Y-120091833D01*
X158394895Y-120091684D01*
X158395110Y-120091683D01*
X158406011Y-120091683D01*
X158592758Y-120278429D01*
X158622582Y-120308256D01*
X158649048Y-120334738D01*
X158672358Y-120358086D01*
X158692712Y-120378513D01*
X158710310Y-120396229D01*
X158725352Y-120411445D01*
X158738040Y-120424372D01*
X158748573Y-120435223D01*
X158757152Y-120444207D01*
X158763977Y-120451537D01*
X158769249Y-120457423D01*
X158773168Y-120462076D01*
X158775935Y-120465708D01*
X158777749Y-120468530D01*
X158778812Y-120470754D01*
X158779323Y-120472589D01*
X158779484Y-120474249D01*
X158779495Y-120475217D01*
X158778249Y-120484021D01*
X158775215Y-120492217D01*
X158774773Y-120492985D01*
X158772686Y-120496153D01*
X158767958Y-120503162D01*
X158760798Y-120513709D01*
X158751414Y-120527491D01*
X158740012Y-120544203D01*
X158726801Y-120563542D01*
X158711987Y-120585204D01*
X158695780Y-120608884D01*
X158678385Y-120634279D01*
X158660012Y-120661086D01*
X158640866Y-120688999D01*
X158638179Y-120692916D01*
X158618759Y-120721219D01*
X158599948Y-120748639D01*
X158581966Y-120774850D01*
X158565037Y-120799529D01*
X158549383Y-120822353D01*
X158535226Y-120842997D01*
X158522787Y-120861137D01*
X158512289Y-120876450D01*
X158503954Y-120888611D01*
X158498005Y-120897297D01*
X158494663Y-120902184D01*
X158494525Y-120902386D01*
X158491271Y-120907029D01*
X158488436Y-120911113D01*
X158486117Y-120914966D01*
X158484410Y-120918916D01*
X158483412Y-120923290D01*
X158483218Y-120928418D01*
X158483927Y-120934628D01*
X158485635Y-120942247D01*
X158488437Y-120951604D01*
X158492431Y-120963027D01*
X158497713Y-120976845D01*
X158504381Y-120993385D01*
X158512529Y-121012975D01*
X158522256Y-121035945D01*
X158533657Y-121062621D01*
X158546830Y-121093333D01*
X158559234Y-121122256D01*
X158571459Y-121150761D01*
X158583181Y-121178056D01*
X158594240Y-121203768D01*
X158604475Y-121227524D01*
X158613723Y-121248952D01*
X158621825Y-121267678D01*
X158628620Y-121283330D01*
X158633945Y-121295536D01*
X158637640Y-121303921D01*
X158639544Y-121308114D01*
X158639671Y-121308370D01*
X158644634Y-121315307D01*
X158651041Y-121321298D01*
X158651084Y-121321329D01*
X158652257Y-121322180D01*
X158653418Y-121322962D01*
X158654835Y-121323728D01*
X158656774Y-121324531D01*
X158659505Y-121325425D01*
X158663294Y-121326463D01*
X158668410Y-121327699D01*
X158675119Y-121329185D01*
X158683691Y-121330974D01*
X158694392Y-121333121D01*
X158707490Y-121335678D01*
X158723253Y-121338699D01*
X158741948Y-121342236D01*
X158763845Y-121346344D01*
X158789209Y-121351075D01*
X158818308Y-121356483D01*
X158851412Y-121362621D01*
X158888786Y-121369543D01*
X158930700Y-121377300D01*
X158954287Y-121381666D01*
X158984902Y-121387339D01*
X159014300Y-121392800D01*
X159042076Y-121397972D01*
X159067820Y-121402779D01*
X159091124Y-121407143D01*
X159111580Y-121410989D01*
X159128782Y-121414240D01*
X159142319Y-121416819D01*
X159151786Y-121418650D01*
X159156773Y-121419656D01*
X159157099Y-121419729D01*
X159165862Y-121422846D01*
X159173200Y-121427326D01*
X159174703Y-121428716D01*
X159180623Y-121435018D01*
X159181262Y-121698246D01*
X159181362Y-121740381D01*
X159181443Y-121777778D01*
X159181500Y-121810730D01*
X159181528Y-121839530D01*
X159181523Y-121864469D01*
X159181481Y-121885841D01*
X159181396Y-121903938D01*
X159181265Y-121919052D01*
X159181083Y-121931475D01*
X159180845Y-121941500D01*
X159180546Y-121949419D01*
X159180183Y-121955525D01*
X159179751Y-121960110D01*
X159179245Y-121963466D01*
X159178660Y-121965886D01*
X159177993Y-121967663D01*
X159177238Y-121969088D01*
X159177056Y-121969389D01*
X159170775Y-121976182D01*
X159163843Y-121980019D01*
X159159972Y-121980937D01*
X159151590Y-121982681D01*
X159139132Y-121985167D01*
X159123035Y-121988312D01*
X159103733Y-121992032D01*
X159081662Y-121996243D01*
X159057258Y-122000861D01*
X159030957Y-122005803D01*
X159003193Y-122010984D01*
X158992010Y-122013062D01*
X158946078Y-122021585D01*
X158904833Y-122029241D01*
X158868017Y-122036081D01*
X158835370Y-122042152D01*
X158806635Y-122047503D01*
X158781553Y-122052184D01*
X158759865Y-122056244D01*
X158741313Y-122059731D01*
X158725637Y-122062695D01*
X158712580Y-122065184D01*
X158701883Y-122067248D01*
X158693287Y-122068935D01*
X158686533Y-122070294D01*
X158681364Y-122071375D01*
X158677520Y-122072226D01*
X158674743Y-122072896D01*
X158672774Y-122073435D01*
X158672077Y-122073649D01*
X158664794Y-122077446D01*
X158658208Y-122083110D01*
X158657927Y-122083437D01*
X158656055Y-122086873D01*
X158652476Y-122094645D01*
X158647329Y-122106416D01*
X158640757Y-122121844D01*
X158632901Y-122140589D01*
X158623901Y-122162313D01*
X158613899Y-122186674D01*
X158603037Y-122213333D01*
X158591454Y-122241951D01*
X158579294Y-122272186D01*
X158573193Y-122287423D01*
X158559259Y-122322282D01*
X158547081Y-122352781D01*
X158536543Y-122379233D01*
X158527533Y-122401948D01*
X158519936Y-122421239D01*
X158513639Y-122437415D01*
X158508527Y-122450787D01*
X158504487Y-122461668D01*
X158501406Y-122470367D01*
X158499168Y-122477196D01*
X158497661Y-122482467D01*
X158496770Y-122486489D01*
X158496381Y-122489575D01*
X158496382Y-122492035D01*
X158496657Y-122494180D01*
X158496961Y-122495703D01*
X158497914Y-122498459D01*
X158499976Y-122502672D01*
X158503294Y-122508563D01*
X158508016Y-122516354D01*
X158514288Y-122526268D01*
X158522257Y-122538525D01*
X158532070Y-122553349D01*
X158543875Y-122570961D01*
X158557818Y-122591583D01*
X158574045Y-122615436D01*
X158592705Y-122642743D01*
X158613943Y-122673726D01*
X158637907Y-122708606D01*
X158638620Y-122709643D01*
X158658339Y-122738371D01*
X158677248Y-122766022D01*
X158695151Y-122792303D01*
X158711851Y-122816922D01*
X158727151Y-122839585D01*
X158740857Y-122860000D01*
X158752771Y-122877874D01*
X158762698Y-122892914D01*
X158770441Y-122904828D01*
X158775804Y-122913324D01*
X158778590Y-122918107D01*
X158778951Y-122918972D01*
X158779189Y-122926912D01*
X158778379Y-122932804D01*
X158776445Y-122935722D01*
X158771277Y-122941774D01*
X158762837Y-122951002D01*
X158751086Y-122963444D01*
X158735985Y-122979142D01*
X158717494Y-122998136D01*
X158695575Y-123020466D01*
X158670189Y-123046172D01*
X158641296Y-123075294D01*
X158608858Y-123107873D01*
X158595143Y-123121619D01*
X158569929Y-123146847D01*
X158545621Y-123171107D01*
X158522468Y-123194157D01*
X158500714Y-123215753D01*
X158480608Y-123235654D01*
X158462395Y-123253615D01*
X158446321Y-123269396D01*
X158432634Y-123282752D01*
X158421579Y-123293442D01*
X158413404Y-123301223D01*
X158408354Y-123305851D01*
X158406803Y-123307089D01*
X158396833Y-123310352D01*
X158386612Y-123309312D01*
X158375289Y-123303848D01*
X158373010Y-123302346D01*
X158369136Y-123299695D01*
X158361436Y-123294419D01*
X158350229Y-123286737D01*
X158335836Y-123276870D01*
X158318578Y-123265037D01*
X158298776Y-123251458D01*
X158276749Y-123236352D01*
X158252818Y-123219940D01*
X158227305Y-123202442D01*
X158200529Y-123184077D01*
X158175940Y-123167211D01*
X158148417Y-123148348D01*
X158121938Y-123130232D01*
X158096816Y-123113074D01*
X158073363Y-123097087D01*
X158051892Y-123082482D01*
X158032716Y-123069473D01*
X158016147Y-123058271D01*
X158002498Y-123049088D01*
X157992082Y-123042136D01*
X157985212Y-123037629D01*
X157982297Y-123035825D01*
X157970483Y-123032294D01*
X157964107Y-123032398D01*
X157959402Y-123033917D01*
X157950635Y-123037726D01*
X157938135Y-123043662D01*
X157922231Y-123051562D01*
X157903253Y-123061264D01*
X157881529Y-123072606D01*
X157864559Y-123081596D01*
X157840834Y-123094199D01*
X157821102Y-123104565D01*
X157804942Y-123112860D01*
X157791927Y-123119252D01*
X157781636Y-123123908D01*
X157773644Y-123126995D01*
X157767526Y-123128680D01*
X157762861Y-123129131D01*
X157759223Y-123128513D01*
X157756189Y-123126994D01*
X157753889Y-123125222D01*
X157752309Y-123122374D01*
X157748885Y-123115011D01*
X157743675Y-123103274D01*
X157736737Y-123087305D01*
X157728133Y-123067245D01*
X157717920Y-123043234D01*
X157706159Y-123015413D01*
X157692908Y-122983924D01*
X157678227Y-122948906D01*
X157662175Y-122910501D01*
X157644812Y-122868850D01*
X157626196Y-122824094D01*
X157606388Y-122776374D01*
X157585446Y-122725830D01*
X157568588Y-122685080D01*
X157546707Y-122632154D01*
X157526672Y-122583674D01*
X157508403Y-122539444D01*
X157491821Y-122499263D01*
X157476845Y-122462932D01*
X157463396Y-122430253D01*
X157451395Y-122401026D01*
X157440763Y-122375052D01*
X157431419Y-122352131D01*
X157423285Y-122332066D01*
X157416280Y-122314657D01*
X157410325Y-122299704D01*
X157405342Y-122287009D01*
X157401249Y-122276373D01*
X157397968Y-122267595D01*
X157395419Y-122260478D01*
X157393522Y-122254823D01*
X157392199Y-122250429D01*
X157391369Y-122247099D01*
X157390953Y-122244632D01*
X157390871Y-122242830D01*
X157391045Y-122241494D01*
X157391199Y-122240950D01*
X157393599Y-122235298D01*
X157397242Y-122230243D01*
X157402912Y-122225085D01*
X157411395Y-122219125D01*
X157423475Y-122211663D01*
X157425257Y-122210602D01*
X157437135Y-122203219D01*
X157450052Y-122194680D01*
X157461491Y-122186656D01*
X157462980Y-122185558D01*
X157472649Y-122178368D01*
X157484572Y-122169506D01*
X157496963Y-122160299D01*
X157504475Y-122154719D01*
X157545725Y-122120988D01*
X157583516Y-122083697D01*
X157617598Y-122043121D01*
X157647724Y-121999533D01*
X157653524Y-121990024D01*
X157676301Y-121947314D01*
X157695628Y-121901638D01*
X157711173Y-121853973D01*
X157722607Y-121805300D01*
X157728232Y-121769155D01*
X157729830Y-121750627D01*
X157730694Y-121728600D01*
X157730850Y-121704549D01*
X157730321Y-121679948D01*
X157729129Y-121656271D01*
X157727300Y-121634991D01*
X157725914Y-121624045D01*
X157715747Y-121571737D01*
X157700996Y-121521214D01*
X157681839Y-121472723D01*
X157658456Y-121426508D01*
X157631024Y-121382817D01*
X157599724Y-121341897D01*
X157564732Y-121303992D01*
X157526229Y-121269350D01*
X157484393Y-121238217D01*
X157439403Y-121210840D01*
X157417977Y-121199712D01*
X157370646Y-121178956D01*
X157322462Y-121162984D01*
X157273044Y-121151707D01*
X157222010Y-121145039D01*
X157170000Y-121142891D01*
X157124843Y-121144365D01*
X157082475Y-121148928D01*
X157041562Y-121156788D01*
X157000769Y-121168152D01*
X156993960Y-121170378D01*
X156944705Y-121189370D01*
X156897852Y-121212596D01*
X156853643Y-121239815D01*
X156812319Y-121270788D01*
X156774122Y-121305275D01*
X156739295Y-121343036D01*
X156708078Y-121383832D01*
X156680714Y-121427422D01*
X156657445Y-121473567D01*
X156638512Y-121522026D01*
X156638074Y-121523329D01*
X156626907Y-121560050D01*
X156618666Y-121595126D01*
X156613102Y-121630130D01*
X156609965Y-121666637D01*
X156609004Y-121706084D01*
X156609990Y-121743824D01*
X156613057Y-121778572D01*
X156618476Y-121812030D01*
X156626521Y-121845900D01*
X156636756Y-121879742D01*
X156655700Y-121929412D01*
X156678995Y-121976635D01*
X156706490Y-122021205D01*
X156738038Y-122062917D01*
X156773490Y-122101564D01*
X156812697Y-122136943D01*
X156835524Y-122154723D01*
X156846681Y-122162991D01*
X156857963Y-122171394D01*
X156867838Y-122178788D01*
X156873247Y-122182869D01*
X156881470Y-122188763D01*
X156892332Y-122196081D01*
X156904134Y-122203693D01*
X156910970Y-122207937D01*
X156924169Y-122216145D01*
X156933686Y-122222542D01*
X156940241Y-122227755D01*
X156944550Y-122232410D01*
X156947333Y-122237134D01*
X156948805Y-122240963D01*
X156949075Y-122242144D01*
X156949131Y-122243689D01*
X156948892Y-122245799D01*
X156948280Y-122248672D01*
X156947214Y-122252506D01*
X156945615Y-122257503D01*
X156943404Y-122263860D01*
X156940501Y-122271776D01*
X156936826Y-122281451D01*
X156932300Y-122293084D01*
X156926844Y-122306874D01*
X156920377Y-122323020D01*
X156912821Y-122341722D01*
X156904096Y-122363177D01*
X156894121Y-122387586D01*
X156882819Y-122415148D01*
X156870108Y-122446061D01*
X156855911Y-122480526D01*
X156840146Y-122518740D01*
X156822735Y-122560903D01*
X156803598Y-122607214D01*
X156782655Y-122657873D01*
X156771400Y-122685093D01*
X156749840Y-122737188D01*
X156729326Y-122786673D01*
X156709918Y-122833400D01*
X156691680Y-122877222D01*
X156674674Y-122917990D01*
X156658960Y-122955558D01*
X156644603Y-122989776D01*
X156631664Y-123020499D01*
X156620205Y-123047577D01*
X156610288Y-123070864D01*
X156601976Y-123090211D01*
X156595331Y-123105471D01*
X156590415Y-123116495D01*
X156587290Y-123123138D01*
X156586094Y-123125222D01*
X156579755Y-123128499D01*
X156573425Y-123129623D01*
X156568868Y-123128370D01*
X156560014Y-123124631D01*
X156546924Y-123118434D01*
X156529655Y-123109809D01*
X156508269Y-123098785D01*
X156482823Y-123085390D01*
X156476253Y-123081898D01*
X156456434Y-123071410D01*
X156437737Y-123061640D01*
X156420684Y-123052852D01*
X156405798Y-123045310D01*
X156393603Y-123039279D01*
X156384622Y-123035022D01*
X156379377Y-123032804D01*
X156378575Y-123032569D01*
X156370146Y-123032265D01*
X156362779Y-123033666D01*
X156359584Y-123035468D01*
X156352560Y-123039915D01*
X156342019Y-123046797D01*
X156328271Y-123055905D01*
X156311630Y-123067028D01*
X156292407Y-123079958D01*
X156270914Y-123094484D01*
X156247463Y-123110396D01*
X156222365Y-123127486D01*
X156195933Y-123145542D01*
X156172155Y-123161834D01*
X156144535Y-123180782D01*
X156117794Y-123199127D01*
X156092265Y-123216639D01*
X156068281Y-123233089D01*
X156046177Y-123248249D01*
X156026285Y-123261890D01*
X156008940Y-123273784D01*
X155994475Y-123283700D01*
X155983223Y-123291411D01*
X155975520Y-123296688D01*
X155972143Y-123298997D01*
X155960080Y-123306348D01*
X155950284Y-123310042D01*
X155941756Y-123310249D01*
X155933499Y-123307140D01*
X155931435Y-123305912D01*
X155928636Y-123303496D01*
X155922539Y-123297759D01*
X155913394Y-123288946D01*
X155901448Y-123277303D01*
X155886951Y-123263076D01*
X155870151Y-123246510D01*
X155851297Y-123227851D01*
X155830638Y-123207345D01*
X155808423Y-123185237D01*
X155784900Y-123161772D01*
X155760318Y-123137196D01*
X155743599Y-123120451D01*
X155709864Y-123086593D01*
X155679690Y-123056208D01*
X155653039Y-123029257D01*
X155629874Y-123005702D01*
X155610155Y-122985503D01*
X155593845Y-122968619D01*
X155580905Y-122955013D01*
X155571297Y-122944645D01*
X155564984Y-122937474D01*
X155561926Y-122933463D01*
X155561620Y-122932804D01*
X155560720Y-122924838D01*
X155561035Y-122918972D01*
X155562592Y-122915961D01*
X155566814Y-122909106D01*
X155573504Y-122898700D01*
X155582468Y-122885035D01*
X155593508Y-122868405D01*
X155606428Y-122849102D01*
X155621032Y-122827418D01*
X155637124Y-122803647D01*
X155654507Y-122778081D01*
X155672986Y-122751013D01*
X155692364Y-122722735D01*
X155701360Y-122709643D01*
X155725411Y-122674639D01*
X155746733Y-122643539D01*
X155765470Y-122616121D01*
X155781771Y-122592165D01*
X155795781Y-122571447D01*
X155807648Y-122553747D01*
X155817518Y-122538844D01*
X155825539Y-122526515D01*
X155831856Y-122516539D01*
X155836616Y-122508694D01*
X155839967Y-122502759D01*
X155842054Y-122498513D01*
X155843025Y-122495733D01*
X155843032Y-122495703D01*
X155843436Y-122493591D01*
X155843648Y-122491390D01*
X155843553Y-122488789D01*
X155843037Y-122485475D01*
X155841987Y-122481139D01*
X155840289Y-122475468D01*
X155837829Y-122468151D01*
X155834492Y-122458877D01*
X155830166Y-122447335D01*
X155824736Y-122433213D01*
X155818087Y-122416201D01*
X155810107Y-122395986D01*
X155800682Y-122372258D01*
X155789696Y-122344705D01*
X155777038Y-122313017D01*
X155766905Y-122287669D01*
X155754860Y-122257618D01*
X155743256Y-122228812D01*
X155732239Y-122201606D01*
X155721957Y-122176358D01*
X155712556Y-122153425D01*
X155704185Y-122133164D01*
X155696989Y-122115931D01*
X155691117Y-122102083D01*
X155686716Y-122091977D01*
X155683932Y-122085970D01*
X155683088Y-122084467D01*
X155676838Y-122078611D01*
X155670097Y-122074588D01*
X155666559Y-122073678D01*
X155658425Y-122071925D01*
X155646048Y-122069397D01*
X155629779Y-122066162D01*
X155609970Y-122062289D01*
X155586973Y-122057844D01*
X155561139Y-122052896D01*
X155532820Y-122047512D01*
X155502367Y-122041761D01*
X155470133Y-122035710D01*
X155436468Y-122029427D01*
X155423435Y-122027004D01*
X155389307Y-122020655D01*
X155356465Y-122014523D01*
X155325261Y-122008675D01*
X155296049Y-122003179D01*
X155269181Y-121998101D01*
X155245011Y-121993509D01*
X155223890Y-121989469D01*
X155206171Y-121986049D01*
X155192208Y-121983316D01*
X155182352Y-121981337D01*
X155176958Y-121980179D01*
X155176157Y-121979970D01*
X155168245Y-121975394D01*
X155162943Y-121969389D01*
X155162168Y-121968002D01*
X155161481Y-121966330D01*
X155160879Y-121964080D01*
X155160355Y-121960959D01*
X155159907Y-121956675D01*
X155159529Y-121950936D01*
X155159216Y-121943449D01*
X155158965Y-121933921D01*
X155158771Y-121922061D01*
X155158628Y-121907577D01*
X155158534Y-121890175D01*
X155158482Y-121869563D01*
X155158470Y-121845449D01*
X155158491Y-121817540D01*
X155158541Y-121785545D01*
X155158617Y-121749170D01*
X155158713Y-121708123D01*
X155158737Y-121698246D01*
X155159376Y-121435018D01*
X155165371Y-121428637D01*
X155166249Y-121427558D01*
X155166863Y-121426630D01*
X155167492Y-121425794D01*
X155168412Y-121424993D01*
X155169901Y-121424170D01*
X155172235Y-121423267D01*
X155175692Y-121422228D01*
X155180550Y-121420993D01*
X155187085Y-121419507D01*
X155195575Y-121417712D01*
X155206297Y-121415550D01*
X155219528Y-121412964D01*
X155235546Y-121409897D01*
X155254627Y-121406290D01*
X155277049Y-121402087D01*
X155303089Y-121397231D01*
X155333025Y-121391663D01*
X155367133Y-121385327D01*
X155405691Y-121378165D01*
X155439033Y-121371969D01*
X155479894Y-121364373D01*
X155516104Y-121357633D01*
X155547952Y-121351678D01*
X155575730Y-121346438D01*
X155599729Y-121341841D01*
X155620240Y-121337816D01*
X155637555Y-121334294D01*
X155651964Y-121331202D01*
X155663759Y-121328470D01*
X155673232Y-121326027D01*
X155680672Y-121323802D01*
X155686372Y-121321724D01*
X155690622Y-121319723D01*
X155693714Y-121317728D01*
X155695938Y-121315667D01*
X155697587Y-121313470D01*
X155698951Y-121311066D01*
X155700321Y-121308384D01*
X155700328Y-121308370D01*
X155701932Y-121304878D01*
X155705354Y-121297134D01*
X155710431Y-121285510D01*
X155717002Y-121270381D01*
X155724907Y-121252119D01*
X155733985Y-121231096D01*
X155744073Y-121207685D01*
X155755012Y-121182259D01*
X155766640Y-121155190D01*
X155778795Y-121126853D01*
X155780765Y-121122256D01*
X155795488Y-121087931D01*
X155808358Y-121057914D01*
X155819474Y-121031878D01*
X155828931Y-121009494D01*
X155836826Y-120990435D01*
X155843256Y-120974371D01*
X155848317Y-120960975D01*
X155852107Y-120949918D01*
X155854721Y-120940873D01*
X155856256Y-120933511D01*
X155856809Y-120927503D01*
X155856477Y-120922522D01*
X155855356Y-120918240D01*
X155853543Y-120914328D01*
X155851134Y-120910457D01*
X155848226Y-120906301D01*
X155845494Y-120902386D01*
X155842369Y-120897811D01*
X155836618Y-120889410D01*
X155828463Y-120877505D01*
X155818122Y-120862415D01*
X155805816Y-120844463D01*
X155791766Y-120823969D01*
X155776191Y-120801255D01*
X155759312Y-120776642D01*
X155741348Y-120750451D01*
X155722521Y-120723003D01*
X155703050Y-120694620D01*
X155700030Y-120690217D01*
X155680707Y-120662039D01*
X155662160Y-120634966D01*
X155644592Y-120609298D01*
X155628206Y-120585329D01*
X155613202Y-120563359D01*
X155599785Y-120543683D01*
X155588157Y-120526599D01*
X155578520Y-120512404D01*
X155571077Y-120501394D01*
X155566030Y-120493867D01*
X155563582Y-120490120D01*
X155563407Y-120489823D01*
X155561443Y-120483596D01*
X155560507Y-120475669D01*
X155560495Y-120474753D01*
X155560576Y-120473141D01*
X155560955Y-120471404D01*
X155561831Y-120469332D01*
X155563405Y-120466714D01*
X155565877Y-120463339D01*
X155569448Y-120458996D01*
X155574318Y-120453476D01*
X155580686Y-120446567D01*
X155588754Y-120438059D01*
X155598723Y-120427740D01*
X155610791Y-120415402D01*
X155625160Y-120400832D01*
X155642031Y-120383820D01*
X155661602Y-120364155D01*
X155684076Y-120341628D01*
X155709652Y-120316027D01*
X155738530Y-120287141D01*
X155747241Y-120278429D01*
X155933988Y-120091683D01*
X155944972Y-120091683D01*
X155946369Y-120091594D01*
X155947491Y-120091417D01*
X155948543Y-120091286D01*
X155949727Y-120091335D01*
X155951247Y-120091700D01*
X155953305Y-120092514D01*
X155956105Y-120093912D01*
X155959851Y-120096028D01*
X155964744Y-120098997D01*
X155970989Y-120102953D01*
X155978789Y-120108030D01*
X155988346Y-120114364D01*
X155999864Y-120122087D01*
X156013546Y-120131336D01*
X156029595Y-120142243D01*
X156048215Y-120154944D01*
X156069608Y-120169574D01*
X156093978Y-120186265D01*
X156121528Y-120205153D01*
X156152460Y-120226373D01*
X156186979Y-120250058D01*
X156225287Y-120276344D01*
X156258033Y-120298809D01*
X156285331Y-120317530D01*
X156308804Y-120333605D01*
X156328772Y-120347235D01*
X156345556Y-120358622D01*
X156359475Y-120367967D01*
X156370851Y-120375472D01*
X156380003Y-120381339D01*
X156387253Y-120385769D01*
X156392919Y-120388963D01*
X156397323Y-120391124D01*
X156400786Y-120392454D01*
X156403627Y-120393152D01*
X156406166Y-120393422D01*
X156408451Y-120393465D01*
X156411406Y-120393229D01*
X156415398Y-120392441D01*
X156420742Y-120390979D01*
X156427755Y-120388723D01*
X156436754Y-120385553D01*
X156448054Y-120381347D01*
X156461972Y-120375985D01*
X156478824Y-120369345D01*
X156498927Y-120361308D01*
X156522596Y-120351752D01*
X156550148Y-120340556D01*
X156581900Y-120327600D01*
X156596141Y-120321777D01*
X156624446Y-120310172D01*
X156651495Y-120299031D01*
X156676912Y-120288511D01*
X156700319Y-120278772D01*
X156721341Y-120269970D01*
X156739601Y-120262266D01*
X156754722Y-120255816D01*
X156766327Y-120250779D01*
X156774041Y-120247313D01*
X156777486Y-120245577D01*
X156777527Y-120245547D01*
X156779785Y-120243863D01*
X156781830Y-120242155D01*
X156783729Y-120240136D01*
X156785547Y-120237517D01*
X156787351Y-120234014D01*
X156789207Y-120229338D01*
X156791181Y-120223203D01*
X156793339Y-120215322D01*
X156795747Y-120205407D01*
X156798471Y-120193173D01*
X156801577Y-120178331D01*
X156805131Y-120160596D01*
X156809200Y-120139680D01*
X156813849Y-120115296D01*
X156819144Y-120087158D01*
X156825152Y-120054977D01*
X156831939Y-120018468D01*
X156839570Y-119977344D01*
X156840771Y-119970869D01*
X156847357Y-119935447D01*
X156853728Y-119901329D01*
X156859819Y-119868850D01*
X156865567Y-119838348D01*
X156870907Y-119810159D01*
X156875774Y-119784620D01*
X156880105Y-119762068D01*
X156883834Y-119742838D01*
X156886898Y-119727269D01*
X156889233Y-119715695D01*
X156890773Y-119708455D01*
X156891400Y-119705984D01*
X156895549Y-119699638D01*
X156901701Y-119694214D01*
X156901968Y-119694048D01*
X156903368Y-119693288D01*
X156905123Y-119692614D01*
X156907526Y-119692020D01*
X156910872Y-119691503D01*
X156915454Y-119691056D01*
X156921565Y-119690675D01*
X156929501Y-119690354D01*
X156939553Y-119690089D01*
X156952017Y-119689873D01*
X156967185Y-119689702D01*
X156985351Y-119689571D01*
X157006810Y-119689474D01*
X157031855Y-119689406D01*
X157060779Y-119689363D01*
X157093876Y-119689338D01*
X157131441Y-119689328D01*
X157170000Y-119689325D01*
X157211912Y-119689328D01*
X157211912Y-119689328D01*
G37*
X157211912Y-119689328D02*
X157249087Y-119689340D01*
X157281821Y-119689366D01*
X157310406Y-119689411D01*
X157335137Y-119689481D01*
X157356306Y-119689581D01*
X157374208Y-119689715D01*
X157389136Y-119689889D01*
X157401384Y-119690109D01*
X157411247Y-119690379D01*
X157419017Y-119690705D01*
X157424988Y-119691092D01*
X157429454Y-119691544D01*
X157432709Y-119692067D01*
X157435046Y-119692667D01*
X157436760Y-119693349D01*
X157438032Y-119694048D01*
X157444217Y-119699369D01*
X157448517Y-119705738D01*
X157448618Y-119705984D01*
X157449468Y-119709432D01*
X157451162Y-119717481D01*
X157453633Y-119729785D01*
X157456816Y-119745999D01*
X157460644Y-119765777D01*
X157465052Y-119788772D01*
X157469972Y-119814640D01*
X157475339Y-119843034D01*
X157481087Y-119873609D01*
X157487150Y-119906019D01*
X157493461Y-119939918D01*
X157496888Y-119958396D01*
X157503321Y-119993102D01*
X157509535Y-120026614D01*
X157515466Y-120058574D01*
X157521046Y-120088625D01*
X157526209Y-120116411D01*
X157530889Y-120141572D01*
X157535018Y-120163753D01*
X157538531Y-120182596D01*
X157541362Y-120197743D01*
X157543443Y-120208837D01*
X157544708Y-120215522D01*
X157545013Y-120217096D01*
X157545885Y-120221591D01*
X157546785Y-120225572D01*
X157548016Y-120229199D01*
X157549879Y-120232631D01*
X157552678Y-120236027D01*
X157556715Y-120239546D01*
X157562292Y-120243349D01*
X157569712Y-120247593D01*
X157579277Y-120252440D01*
X157591290Y-120258046D01*
X157606054Y-120264573D01*
X157623871Y-120272180D01*
X157645043Y-120281025D01*
X157669873Y-120291268D01*
X157698663Y-120303068D01*
X157731716Y-120316586D01*
X157741628Y-120320639D01*
X157776076Y-120334740D01*
X157806188Y-120347060D01*
X157832294Y-120357692D01*
X157854727Y-120366727D01*
X157873816Y-120374258D01*
X157889894Y-120380378D01*
X157903292Y-120385177D01*
X157914341Y-120388748D01*
X157923372Y-120391184D01*
X157930717Y-120392576D01*
X157936707Y-120393017D01*
X157941673Y-120392599D01*
X157945947Y-120391413D01*
X157949860Y-120389553D01*
X157953743Y-120387110D01*
X157957927Y-120384176D01*
X157961390Y-120381759D01*
X157965895Y-120378675D01*
X157974234Y-120372960D01*
X157986094Y-120364828D01*
X158001161Y-120354496D01*
X158019123Y-120342176D01*
X158039666Y-120328085D01*
X158062477Y-120312437D01*
X158087244Y-120295447D01*
X158113652Y-120277329D01*
X158141388Y-120258299D01*
X158170140Y-120238571D01*
X158181367Y-120230867D01*
X158214967Y-120207819D01*
X158244678Y-120187457D01*
X158270756Y-120169616D01*
X158293454Y-120154130D01*
X158313028Y-120140833D01*
X158329732Y-120129561D01*
X158343819Y-120120146D01*
X158355546Y-120112424D01*
X158365166Y-120106229D01*
X158372934Y-120101394D01*
X158379104Y-120097754D01*
X158383931Y-120095144D01*
X158387669Y-120093398D01*
X158390573Y-120092350D01*
X158392897Y-120091833D01*
X158394895Y-120091684D01*
X158395110Y-120091683D01*
X158406011Y-120091683D01*
X158592758Y-120278429D01*
X158622582Y-120308256D01*
X158649048Y-120334738D01*
X158672358Y-120358086D01*
X158692712Y-120378513D01*
X158710310Y-120396229D01*
X158725352Y-120411445D01*
X158738040Y-120424372D01*
X158748573Y-120435223D01*
X158757152Y-120444207D01*
X158763977Y-120451537D01*
X158769249Y-120457423D01*
X158773168Y-120462076D01*
X158775935Y-120465708D01*
X158777749Y-120468530D01*
X158778812Y-120470754D01*
X158779323Y-120472589D01*
X158779484Y-120474249D01*
X158779495Y-120475217D01*
X158778249Y-120484021D01*
X158775215Y-120492217D01*
X158774773Y-120492985D01*
X158772686Y-120496153D01*
X158767958Y-120503162D01*
X158760798Y-120513709D01*
X158751414Y-120527491D01*
X158740012Y-120544203D01*
X158726801Y-120563542D01*
X158711987Y-120585204D01*
X158695780Y-120608884D01*
X158678385Y-120634279D01*
X158660012Y-120661086D01*
X158640866Y-120688999D01*
X158638179Y-120692916D01*
X158618759Y-120721219D01*
X158599948Y-120748639D01*
X158581966Y-120774850D01*
X158565037Y-120799529D01*
X158549383Y-120822353D01*
X158535226Y-120842997D01*
X158522787Y-120861137D01*
X158512289Y-120876450D01*
X158503954Y-120888611D01*
X158498005Y-120897297D01*
X158494663Y-120902184D01*
X158494525Y-120902386D01*
X158491271Y-120907029D01*
X158488436Y-120911113D01*
X158486117Y-120914966D01*
X158484410Y-120918916D01*
X158483412Y-120923290D01*
X158483218Y-120928418D01*
X158483927Y-120934628D01*
X158485635Y-120942247D01*
X158488437Y-120951604D01*
X158492431Y-120963027D01*
X158497713Y-120976845D01*
X158504381Y-120993385D01*
X158512529Y-121012975D01*
X158522256Y-121035945D01*
X158533657Y-121062621D01*
X158546830Y-121093333D01*
X158559234Y-121122256D01*
X158571459Y-121150761D01*
X158583181Y-121178056D01*
X158594240Y-121203768D01*
X158604475Y-121227524D01*
X158613723Y-121248952D01*
X158621825Y-121267678D01*
X158628620Y-121283330D01*
X158633945Y-121295536D01*
X158637640Y-121303921D01*
X158639544Y-121308114D01*
X158639671Y-121308370D01*
X158644634Y-121315307D01*
X158651041Y-121321298D01*
X158651084Y-121321329D01*
X158652257Y-121322180D01*
X158653418Y-121322962D01*
X158654835Y-121323728D01*
X158656774Y-121324531D01*
X158659505Y-121325425D01*
X158663294Y-121326463D01*
X158668410Y-121327699D01*
X158675119Y-121329185D01*
X158683691Y-121330974D01*
X158694392Y-121333121D01*
X158707490Y-121335678D01*
X158723253Y-121338699D01*
X158741948Y-121342236D01*
X158763845Y-121346344D01*
X158789209Y-121351075D01*
X158818308Y-121356483D01*
X158851412Y-121362621D01*
X158888786Y-121369543D01*
X158930700Y-121377300D01*
X158954287Y-121381666D01*
X158984902Y-121387339D01*
X159014300Y-121392800D01*
X159042076Y-121397972D01*
X159067820Y-121402779D01*
X159091124Y-121407143D01*
X159111580Y-121410989D01*
X159128782Y-121414240D01*
X159142319Y-121416819D01*
X159151786Y-121418650D01*
X159156773Y-121419656D01*
X159157099Y-121419729D01*
X159165862Y-121422846D01*
X159173200Y-121427326D01*
X159174703Y-121428716D01*
X159180623Y-121435018D01*
X159181262Y-121698246D01*
X159181362Y-121740381D01*
X159181443Y-121777778D01*
X159181500Y-121810730D01*
X159181528Y-121839530D01*
X159181523Y-121864469D01*
X159181481Y-121885841D01*
X159181396Y-121903938D01*
X159181265Y-121919052D01*
X159181083Y-121931475D01*
X159180845Y-121941500D01*
X159180546Y-121949419D01*
X159180183Y-121955525D01*
X159179751Y-121960110D01*
X159179245Y-121963466D01*
X159178660Y-121965886D01*
X159177993Y-121967663D01*
X159177238Y-121969088D01*
X159177056Y-121969389D01*
X159170775Y-121976182D01*
X159163843Y-121980019D01*
X159159972Y-121980937D01*
X159151590Y-121982681D01*
X159139132Y-121985167D01*
X159123035Y-121988312D01*
X159103733Y-121992032D01*
X159081662Y-121996243D01*
X159057258Y-122000861D01*
X159030957Y-122005803D01*
X159003193Y-122010984D01*
X158992010Y-122013062D01*
X158946078Y-122021585D01*
X158904833Y-122029241D01*
X158868017Y-122036081D01*
X158835370Y-122042152D01*
X158806635Y-122047503D01*
X158781553Y-122052184D01*
X158759865Y-122056244D01*
X158741313Y-122059731D01*
X158725637Y-122062695D01*
X158712580Y-122065184D01*
X158701883Y-122067248D01*
X158693287Y-122068935D01*
X158686533Y-122070294D01*
X158681364Y-122071375D01*
X158677520Y-122072226D01*
X158674743Y-122072896D01*
X158672774Y-122073435D01*
X158672077Y-122073649D01*
X158664794Y-122077446D01*
X158658208Y-122083110D01*
X158657927Y-122083437D01*
X158656055Y-122086873D01*
X158652476Y-122094645D01*
X158647329Y-122106416D01*
X158640757Y-122121844D01*
X158632901Y-122140589D01*
X158623901Y-122162313D01*
X158613899Y-122186674D01*
X158603037Y-122213333D01*
X158591454Y-122241951D01*
X158579294Y-122272186D01*
X158573193Y-122287423D01*
X158559259Y-122322282D01*
X158547081Y-122352781D01*
X158536543Y-122379233D01*
X158527533Y-122401948D01*
X158519936Y-122421239D01*
X158513639Y-122437415D01*
X158508527Y-122450787D01*
X158504487Y-122461668D01*
X158501406Y-122470367D01*
X158499168Y-122477196D01*
X158497661Y-122482467D01*
X158496770Y-122486489D01*
X158496381Y-122489575D01*
X158496382Y-122492035D01*
X158496657Y-122494180D01*
X158496961Y-122495703D01*
X158497914Y-122498459D01*
X158499976Y-122502672D01*
X158503294Y-122508563D01*
X158508016Y-122516354D01*
X158514288Y-122526268D01*
X158522257Y-122538525D01*
X158532070Y-122553349D01*
X158543875Y-122570961D01*
X158557818Y-122591583D01*
X158574045Y-122615436D01*
X158592705Y-122642743D01*
X158613943Y-122673726D01*
X158637907Y-122708606D01*
X158638620Y-122709643D01*
X158658339Y-122738371D01*
X158677248Y-122766022D01*
X158695151Y-122792303D01*
X158711851Y-122816922D01*
X158727151Y-122839585D01*
X158740857Y-122860000D01*
X158752771Y-122877874D01*
X158762698Y-122892914D01*
X158770441Y-122904828D01*
X158775804Y-122913324D01*
X158778590Y-122918107D01*
X158778951Y-122918972D01*
X158779189Y-122926912D01*
X158778379Y-122932804D01*
X158776445Y-122935722D01*
X158771277Y-122941774D01*
X158762837Y-122951002D01*
X158751086Y-122963444D01*
X158735985Y-122979142D01*
X158717494Y-122998136D01*
X158695575Y-123020466D01*
X158670189Y-123046172D01*
X158641296Y-123075294D01*
X158608858Y-123107873D01*
X158595143Y-123121619D01*
X158569929Y-123146847D01*
X158545621Y-123171107D01*
X158522468Y-123194157D01*
X158500714Y-123215753D01*
X158480608Y-123235654D01*
X158462395Y-123253615D01*
X158446321Y-123269396D01*
X158432634Y-123282752D01*
X158421579Y-123293442D01*
X158413404Y-123301223D01*
X158408354Y-123305851D01*
X158406803Y-123307089D01*
X158396833Y-123310352D01*
X158386612Y-123309312D01*
X158375289Y-123303848D01*
X158373010Y-123302346D01*
X158369136Y-123299695D01*
X158361436Y-123294419D01*
X158350229Y-123286737D01*
X158335836Y-123276870D01*
X158318578Y-123265037D01*
X158298776Y-123251458D01*
X158276749Y-123236352D01*
X158252818Y-123219940D01*
X158227305Y-123202442D01*
X158200529Y-123184077D01*
X158175940Y-123167211D01*
X158148417Y-123148348D01*
X158121938Y-123130232D01*
X158096816Y-123113074D01*
X158073363Y-123097087D01*
X158051892Y-123082482D01*
X158032716Y-123069473D01*
X158016147Y-123058271D01*
X158002498Y-123049088D01*
X157992082Y-123042136D01*
X157985212Y-123037629D01*
X157982297Y-123035825D01*
X157970483Y-123032294D01*
X157964107Y-123032398D01*
X157959402Y-123033917D01*
X157950635Y-123037726D01*
X157938135Y-123043662D01*
X157922231Y-123051562D01*
X157903253Y-123061264D01*
X157881529Y-123072606D01*
X157864559Y-123081596D01*
X157840834Y-123094199D01*
X157821102Y-123104565D01*
X157804942Y-123112860D01*
X157791927Y-123119252D01*
X157781636Y-123123908D01*
X157773644Y-123126995D01*
X157767526Y-123128680D01*
X157762861Y-123129131D01*
X157759223Y-123128513D01*
X157756189Y-123126994D01*
X157753889Y-123125222D01*
X157752309Y-123122374D01*
X157748885Y-123115011D01*
X157743675Y-123103274D01*
X157736737Y-123087305D01*
X157728133Y-123067245D01*
X157717920Y-123043234D01*
X157706159Y-123015413D01*
X157692908Y-122983924D01*
X157678227Y-122948906D01*
X157662175Y-122910501D01*
X157644812Y-122868850D01*
X157626196Y-122824094D01*
X157606388Y-122776374D01*
X157585446Y-122725830D01*
X157568588Y-122685080D01*
X157546707Y-122632154D01*
X157526672Y-122583674D01*
X157508403Y-122539444D01*
X157491821Y-122499263D01*
X157476845Y-122462932D01*
X157463396Y-122430253D01*
X157451395Y-122401026D01*
X157440763Y-122375052D01*
X157431419Y-122352131D01*
X157423285Y-122332066D01*
X157416280Y-122314657D01*
X157410325Y-122299704D01*
X157405342Y-122287009D01*
X157401249Y-122276373D01*
X157397968Y-122267595D01*
X157395419Y-122260478D01*
X157393522Y-122254823D01*
X157392199Y-122250429D01*
X157391369Y-122247099D01*
X157390953Y-122244632D01*
X157390871Y-122242830D01*
X157391045Y-122241494D01*
X157391199Y-122240950D01*
X157393599Y-122235298D01*
X157397242Y-122230243D01*
X157402912Y-122225085D01*
X157411395Y-122219125D01*
X157423475Y-122211663D01*
X157425257Y-122210602D01*
X157437135Y-122203219D01*
X157450052Y-122194680D01*
X157461491Y-122186656D01*
X157462980Y-122185558D01*
X157472649Y-122178368D01*
X157484572Y-122169506D01*
X157496963Y-122160299D01*
X157504475Y-122154719D01*
X157545725Y-122120988D01*
X157583516Y-122083697D01*
X157617598Y-122043121D01*
X157647724Y-121999533D01*
X157653524Y-121990024D01*
X157676301Y-121947314D01*
X157695628Y-121901638D01*
X157711173Y-121853973D01*
X157722607Y-121805300D01*
X157728232Y-121769155D01*
X157729830Y-121750627D01*
X157730694Y-121728600D01*
X157730850Y-121704549D01*
X157730321Y-121679948D01*
X157729129Y-121656271D01*
X157727300Y-121634991D01*
X157725914Y-121624045D01*
X157715747Y-121571737D01*
X157700996Y-121521214D01*
X157681839Y-121472723D01*
X157658456Y-121426508D01*
X157631024Y-121382817D01*
X157599724Y-121341897D01*
X157564732Y-121303992D01*
X157526229Y-121269350D01*
X157484393Y-121238217D01*
X157439403Y-121210840D01*
X157417977Y-121199712D01*
X157370646Y-121178956D01*
X157322462Y-121162984D01*
X157273044Y-121151707D01*
X157222010Y-121145039D01*
X157170000Y-121142891D01*
X157124843Y-121144365D01*
X157082475Y-121148928D01*
X157041562Y-121156788D01*
X157000769Y-121168152D01*
X156993960Y-121170378D01*
X156944705Y-121189370D01*
X156897852Y-121212596D01*
X156853643Y-121239815D01*
X156812319Y-121270788D01*
X156774122Y-121305275D01*
X156739295Y-121343036D01*
X156708078Y-121383832D01*
X156680714Y-121427422D01*
X156657445Y-121473567D01*
X156638512Y-121522026D01*
X156638074Y-121523329D01*
X156626907Y-121560050D01*
X156618666Y-121595126D01*
X156613102Y-121630130D01*
X156609965Y-121666637D01*
X156609004Y-121706084D01*
X156609990Y-121743824D01*
X156613057Y-121778572D01*
X156618476Y-121812030D01*
X156626521Y-121845900D01*
X156636756Y-121879742D01*
X156655700Y-121929412D01*
X156678995Y-121976635D01*
X156706490Y-122021205D01*
X156738038Y-122062917D01*
X156773490Y-122101564D01*
X156812697Y-122136943D01*
X156835524Y-122154723D01*
X156846681Y-122162991D01*
X156857963Y-122171394D01*
X156867838Y-122178788D01*
X156873247Y-122182869D01*
X156881470Y-122188763D01*
X156892332Y-122196081D01*
X156904134Y-122203693D01*
X156910970Y-122207937D01*
X156924169Y-122216145D01*
X156933686Y-122222542D01*
X156940241Y-122227755D01*
X156944550Y-122232410D01*
X156947333Y-122237134D01*
X156948805Y-122240963D01*
X156949075Y-122242144D01*
X156949131Y-122243689D01*
X156948892Y-122245799D01*
X156948280Y-122248672D01*
X156947214Y-122252506D01*
X156945615Y-122257503D01*
X156943404Y-122263860D01*
X156940501Y-122271776D01*
X156936826Y-122281451D01*
X156932300Y-122293084D01*
X156926844Y-122306874D01*
X156920377Y-122323020D01*
X156912821Y-122341722D01*
X156904096Y-122363177D01*
X156894121Y-122387586D01*
X156882819Y-122415148D01*
X156870108Y-122446061D01*
X156855911Y-122480526D01*
X156840146Y-122518740D01*
X156822735Y-122560903D01*
X156803598Y-122607214D01*
X156782655Y-122657873D01*
X156771400Y-122685093D01*
X156749840Y-122737188D01*
X156729326Y-122786673D01*
X156709918Y-122833400D01*
X156691680Y-122877222D01*
X156674674Y-122917990D01*
X156658960Y-122955558D01*
X156644603Y-122989776D01*
X156631664Y-123020499D01*
X156620205Y-123047577D01*
X156610288Y-123070864D01*
X156601976Y-123090211D01*
X156595331Y-123105471D01*
X156590415Y-123116495D01*
X156587290Y-123123138D01*
X156586094Y-123125222D01*
X156579755Y-123128499D01*
X156573425Y-123129623D01*
X156568868Y-123128370D01*
X156560014Y-123124631D01*
X156546924Y-123118434D01*
X156529655Y-123109809D01*
X156508269Y-123098785D01*
X156482823Y-123085390D01*
X156476253Y-123081898D01*
X156456434Y-123071410D01*
X156437737Y-123061640D01*
X156420684Y-123052852D01*
X156405798Y-123045310D01*
X156393603Y-123039279D01*
X156384622Y-123035022D01*
X156379377Y-123032804D01*
X156378575Y-123032569D01*
X156370146Y-123032265D01*
X156362779Y-123033666D01*
X156359584Y-123035468D01*
X156352560Y-123039915D01*
X156342019Y-123046797D01*
X156328271Y-123055905D01*
X156311630Y-123067028D01*
X156292407Y-123079958D01*
X156270914Y-123094484D01*
X156247463Y-123110396D01*
X156222365Y-123127486D01*
X156195933Y-123145542D01*
X156172155Y-123161834D01*
X156144535Y-123180782D01*
X156117794Y-123199127D01*
X156092265Y-123216639D01*
X156068281Y-123233089D01*
X156046177Y-123248249D01*
X156026285Y-123261890D01*
X156008940Y-123273784D01*
X155994475Y-123283700D01*
X155983223Y-123291411D01*
X155975520Y-123296688D01*
X155972143Y-123298997D01*
X155960080Y-123306348D01*
X155950284Y-123310042D01*
X155941756Y-123310249D01*
X155933499Y-123307140D01*
X155931435Y-123305912D01*
X155928636Y-123303496D01*
X155922539Y-123297759D01*
X155913394Y-123288946D01*
X155901448Y-123277303D01*
X155886951Y-123263076D01*
X155870151Y-123246510D01*
X155851297Y-123227851D01*
X155830638Y-123207345D01*
X155808423Y-123185237D01*
X155784900Y-123161772D01*
X155760318Y-123137196D01*
X155743599Y-123120451D01*
X155709864Y-123086593D01*
X155679690Y-123056208D01*
X155653039Y-123029257D01*
X155629874Y-123005702D01*
X155610155Y-122985503D01*
X155593845Y-122968619D01*
X155580905Y-122955013D01*
X155571297Y-122944645D01*
X155564984Y-122937474D01*
X155561926Y-122933463D01*
X155561620Y-122932804D01*
X155560720Y-122924838D01*
X155561035Y-122918972D01*
X155562592Y-122915961D01*
X155566814Y-122909106D01*
X155573504Y-122898700D01*
X155582468Y-122885035D01*
X155593508Y-122868405D01*
X155606428Y-122849102D01*
X155621032Y-122827418D01*
X155637124Y-122803647D01*
X155654507Y-122778081D01*
X155672986Y-122751013D01*
X155692364Y-122722735D01*
X155701360Y-122709643D01*
X155725411Y-122674639D01*
X155746733Y-122643539D01*
X155765470Y-122616121D01*
X155781771Y-122592165D01*
X155795781Y-122571447D01*
X155807648Y-122553747D01*
X155817518Y-122538844D01*
X155825539Y-122526515D01*
X155831856Y-122516539D01*
X155836616Y-122508694D01*
X155839967Y-122502759D01*
X155842054Y-122498513D01*
X155843025Y-122495733D01*
X155843032Y-122495703D01*
X155843436Y-122493591D01*
X155843648Y-122491390D01*
X155843553Y-122488789D01*
X155843037Y-122485475D01*
X155841987Y-122481139D01*
X155840289Y-122475468D01*
X155837829Y-122468151D01*
X155834492Y-122458877D01*
X155830166Y-122447335D01*
X155824736Y-122433213D01*
X155818087Y-122416201D01*
X155810107Y-122395986D01*
X155800682Y-122372258D01*
X155789696Y-122344705D01*
X155777038Y-122313017D01*
X155766905Y-122287669D01*
X155754860Y-122257618D01*
X155743256Y-122228812D01*
X155732239Y-122201606D01*
X155721957Y-122176358D01*
X155712556Y-122153425D01*
X155704185Y-122133164D01*
X155696989Y-122115931D01*
X155691117Y-122102083D01*
X155686716Y-122091977D01*
X155683932Y-122085970D01*
X155683088Y-122084467D01*
X155676838Y-122078611D01*
X155670097Y-122074588D01*
X155666559Y-122073678D01*
X155658425Y-122071925D01*
X155646048Y-122069397D01*
X155629779Y-122066162D01*
X155609970Y-122062289D01*
X155586973Y-122057844D01*
X155561139Y-122052896D01*
X155532820Y-122047512D01*
X155502367Y-122041761D01*
X155470133Y-122035710D01*
X155436468Y-122029427D01*
X155423435Y-122027004D01*
X155389307Y-122020655D01*
X155356465Y-122014523D01*
X155325261Y-122008675D01*
X155296049Y-122003179D01*
X155269181Y-121998101D01*
X155245011Y-121993509D01*
X155223890Y-121989469D01*
X155206171Y-121986049D01*
X155192208Y-121983316D01*
X155182352Y-121981337D01*
X155176958Y-121980179D01*
X155176157Y-121979970D01*
X155168245Y-121975394D01*
X155162943Y-121969389D01*
X155162168Y-121968002D01*
X155161481Y-121966330D01*
X155160879Y-121964080D01*
X155160355Y-121960959D01*
X155159907Y-121956675D01*
X155159529Y-121950936D01*
X155159216Y-121943449D01*
X155158965Y-121933921D01*
X155158771Y-121922061D01*
X155158628Y-121907577D01*
X155158534Y-121890175D01*
X155158482Y-121869563D01*
X155158470Y-121845449D01*
X155158491Y-121817540D01*
X155158541Y-121785545D01*
X155158617Y-121749170D01*
X155158713Y-121708123D01*
X155158737Y-121698246D01*
X155159376Y-121435018D01*
X155165371Y-121428637D01*
X155166249Y-121427558D01*
X155166863Y-121426630D01*
X155167492Y-121425794D01*
X155168412Y-121424993D01*
X155169901Y-121424170D01*
X155172235Y-121423267D01*
X155175692Y-121422228D01*
X155180550Y-121420993D01*
X155187085Y-121419507D01*
X155195575Y-121417712D01*
X155206297Y-121415550D01*
X155219528Y-121412964D01*
X155235546Y-121409897D01*
X155254627Y-121406290D01*
X155277049Y-121402087D01*
X155303089Y-121397231D01*
X155333025Y-121391663D01*
X155367133Y-121385327D01*
X155405691Y-121378165D01*
X155439033Y-121371969D01*
X155479894Y-121364373D01*
X155516104Y-121357633D01*
X155547952Y-121351678D01*
X155575730Y-121346438D01*
X155599729Y-121341841D01*
X155620240Y-121337816D01*
X155637555Y-121334294D01*
X155651964Y-121331202D01*
X155663759Y-121328470D01*
X155673232Y-121326027D01*
X155680672Y-121323802D01*
X155686372Y-121321724D01*
X155690622Y-121319723D01*
X155693714Y-121317728D01*
X155695938Y-121315667D01*
X155697587Y-121313470D01*
X155698951Y-121311066D01*
X155700321Y-121308384D01*
X155700328Y-121308370D01*
X155701932Y-121304878D01*
X155705354Y-121297134D01*
X155710431Y-121285510D01*
X155717002Y-121270381D01*
X155724907Y-121252119D01*
X155733985Y-121231096D01*
X155744073Y-121207685D01*
X155755012Y-121182259D01*
X155766640Y-121155190D01*
X155778795Y-121126853D01*
X155780765Y-121122256D01*
X155795488Y-121087931D01*
X155808358Y-121057914D01*
X155819474Y-121031878D01*
X155828931Y-121009494D01*
X155836826Y-120990435D01*
X155843256Y-120974371D01*
X155848317Y-120960975D01*
X155852107Y-120949918D01*
X155854721Y-120940873D01*
X155856256Y-120933511D01*
X155856809Y-120927503D01*
X155856477Y-120922522D01*
X155855356Y-120918240D01*
X155853543Y-120914328D01*
X155851134Y-120910457D01*
X155848226Y-120906301D01*
X155845494Y-120902386D01*
X155842369Y-120897811D01*
X155836618Y-120889410D01*
X155828463Y-120877505D01*
X155818122Y-120862415D01*
X155805816Y-120844463D01*
X155791766Y-120823969D01*
X155776191Y-120801255D01*
X155759312Y-120776642D01*
X155741348Y-120750451D01*
X155722521Y-120723003D01*
X155703050Y-120694620D01*
X155700030Y-120690217D01*
X155680707Y-120662039D01*
X155662160Y-120634966D01*
X155644592Y-120609298D01*
X155628206Y-120585329D01*
X155613202Y-120563359D01*
X155599785Y-120543683D01*
X155588157Y-120526599D01*
X155578520Y-120512404D01*
X155571077Y-120501394D01*
X155566030Y-120493867D01*
X155563582Y-120490120D01*
X155563407Y-120489823D01*
X155561443Y-120483596D01*
X155560507Y-120475669D01*
X155560495Y-120474753D01*
X155560576Y-120473141D01*
X155560955Y-120471404D01*
X155561831Y-120469332D01*
X155563405Y-120466714D01*
X155565877Y-120463339D01*
X155569448Y-120458996D01*
X155574318Y-120453476D01*
X155580686Y-120446567D01*
X155588754Y-120438059D01*
X155598723Y-120427740D01*
X155610791Y-120415402D01*
X155625160Y-120400832D01*
X155642031Y-120383820D01*
X155661602Y-120364155D01*
X155684076Y-120341628D01*
X155709652Y-120316027D01*
X155738530Y-120287141D01*
X155747241Y-120278429D01*
X155933988Y-120091683D01*
X155944972Y-120091683D01*
X155946369Y-120091594D01*
X155947491Y-120091417D01*
X155948543Y-120091286D01*
X155949727Y-120091335D01*
X155951247Y-120091700D01*
X155953305Y-120092514D01*
X155956105Y-120093912D01*
X155959851Y-120096028D01*
X155964744Y-120098997D01*
X155970989Y-120102953D01*
X155978789Y-120108030D01*
X155988346Y-120114364D01*
X155999864Y-120122087D01*
X156013546Y-120131336D01*
X156029595Y-120142243D01*
X156048215Y-120154944D01*
X156069608Y-120169574D01*
X156093978Y-120186265D01*
X156121528Y-120205153D01*
X156152460Y-120226373D01*
X156186979Y-120250058D01*
X156225287Y-120276344D01*
X156258033Y-120298809D01*
X156285331Y-120317530D01*
X156308804Y-120333605D01*
X156328772Y-120347235D01*
X156345556Y-120358622D01*
X156359475Y-120367967D01*
X156370851Y-120375472D01*
X156380003Y-120381339D01*
X156387253Y-120385769D01*
X156392919Y-120388963D01*
X156397323Y-120391124D01*
X156400786Y-120392454D01*
X156403627Y-120393152D01*
X156406166Y-120393422D01*
X156408451Y-120393465D01*
X156411406Y-120393229D01*
X156415398Y-120392441D01*
X156420742Y-120390979D01*
X156427755Y-120388723D01*
X156436754Y-120385553D01*
X156448054Y-120381347D01*
X156461972Y-120375985D01*
X156478824Y-120369345D01*
X156498927Y-120361308D01*
X156522596Y-120351752D01*
X156550148Y-120340556D01*
X156581900Y-120327600D01*
X156596141Y-120321777D01*
X156624446Y-120310172D01*
X156651495Y-120299031D01*
X156676912Y-120288511D01*
X156700319Y-120278772D01*
X156721341Y-120269970D01*
X156739601Y-120262266D01*
X156754722Y-120255816D01*
X156766327Y-120250779D01*
X156774041Y-120247313D01*
X156777486Y-120245577D01*
X156777527Y-120245547D01*
X156779785Y-120243863D01*
X156781830Y-120242155D01*
X156783729Y-120240136D01*
X156785547Y-120237517D01*
X156787351Y-120234014D01*
X156789207Y-120229338D01*
X156791181Y-120223203D01*
X156793339Y-120215322D01*
X156795747Y-120205407D01*
X156798471Y-120193173D01*
X156801577Y-120178331D01*
X156805131Y-120160596D01*
X156809200Y-120139680D01*
X156813849Y-120115296D01*
X156819144Y-120087158D01*
X156825152Y-120054977D01*
X156831939Y-120018468D01*
X156839570Y-119977344D01*
X156840771Y-119970869D01*
X156847357Y-119935447D01*
X156853728Y-119901329D01*
X156859819Y-119868850D01*
X156865567Y-119838348D01*
X156870907Y-119810159D01*
X156875774Y-119784620D01*
X156880105Y-119762068D01*
X156883834Y-119742838D01*
X156886898Y-119727269D01*
X156889233Y-119715695D01*
X156890773Y-119708455D01*
X156891400Y-119705984D01*
X156895549Y-119699638D01*
X156901701Y-119694214D01*
X156901968Y-119694048D01*
X156903368Y-119693288D01*
X156905123Y-119692614D01*
X156907526Y-119692020D01*
X156910872Y-119691503D01*
X156915454Y-119691056D01*
X156921565Y-119690675D01*
X156929501Y-119690354D01*
X156939553Y-119690089D01*
X156952017Y-119689873D01*
X156967185Y-119689702D01*
X156985351Y-119689571D01*
X157006810Y-119689474D01*
X157031855Y-119689406D01*
X157060779Y-119689363D01*
X157093876Y-119689338D01*
X157131441Y-119689328D01*
X157170000Y-119689325D01*
X157211912Y-119689328D01*
D12*
X141800000Y-107475000D03*
X142900000Y-107475000D03*
X144000000Y-107475000D03*
X145100000Y-107475000D03*
X146200000Y-107475000D03*
X147300000Y-107475000D03*
X148400000Y-107475000D03*
X149500000Y-107475000D03*
X150450000Y-107475000D03*
D13*
X140250000Y-107475000D03*
D14*
X137900000Y-92375000D03*
D15*
X151400000Y-92825000D03*
D16*
X151400000Y-96975000D03*
D13*
X151400000Y-103175000D03*
D17*
X134250000Y-95420000D03*
X164460000Y-120650000D03*
D18*
X161190000Y-100200000D03*
X161190000Y-100600000D03*
X161190000Y-101000000D03*
X161190000Y-101400000D03*
X161190000Y-101800000D03*
X161190000Y-102200000D03*
X161190000Y-102600000D03*
X161190000Y-103000000D03*
X161190000Y-103400000D03*
X161190000Y-103800000D03*
X161190000Y-107800000D03*
X161190000Y-107400000D03*
X161190000Y-107000000D03*
X161190000Y-106600000D03*
X161190000Y-106200000D03*
X161190000Y-105800000D03*
X161190000Y-105400000D03*
X161190000Y-105000000D03*
X161190000Y-104600000D03*
X161190000Y-104200000D03*
X161190000Y-108200000D03*
X161190000Y-108600000D03*
X161190000Y-109000000D03*
X161190000Y-109400000D03*
X161190000Y-109800000D03*
X161190000Y-110200000D03*
X161190000Y-110600000D03*
X161190000Y-111000000D03*
X161190000Y-111400000D03*
X161190000Y-111800000D03*
X161190000Y-115800000D03*
X161190000Y-115400000D03*
X161190000Y-115000000D03*
X161190000Y-114600000D03*
X161190000Y-114200000D03*
X161190000Y-113800000D03*
X161190000Y-113400000D03*
X161190000Y-113000000D03*
X161190000Y-112600000D03*
X161190000Y-112200000D03*
X158110000Y-112200000D03*
X158110000Y-112600000D03*
X158110000Y-113000000D03*
X158110000Y-113400000D03*
X158110000Y-113800000D03*
X158110000Y-114200000D03*
X158110000Y-114600000D03*
X158110000Y-115000000D03*
X158110000Y-115400000D03*
X158110000Y-115800000D03*
X158110000Y-111800000D03*
X158110000Y-111400000D03*
X158110000Y-111000000D03*
X158110000Y-110600000D03*
X158110000Y-110200000D03*
X158110000Y-109800000D03*
X158110000Y-109400000D03*
X158110000Y-109000000D03*
X158110000Y-108600000D03*
X158110000Y-108200000D03*
X158110000Y-104200000D03*
X158110000Y-104600000D03*
X158110000Y-105000000D03*
X158110000Y-105400000D03*
X158110000Y-105800000D03*
X158110000Y-106200000D03*
X158110000Y-106600000D03*
X158110000Y-107000000D03*
X158110000Y-107400000D03*
X158110000Y-107800000D03*
X158110000Y-103800000D03*
X158110000Y-103400000D03*
X158110000Y-103000000D03*
X158110000Y-102600000D03*
X158110000Y-102200000D03*
X158110000Y-101800000D03*
X158110000Y-101400000D03*
X158110000Y-101000000D03*
X158110000Y-100600000D03*
X158110000Y-100200000D03*
D19*
X158461920Y-94250000D03*
X158461920Y-93599760D03*
X158461920Y-92949520D03*
X155800000Y-92949520D03*
X155800000Y-93599760D03*
X155800000Y-94250000D03*
X164300000Y-98250000D03*
X164300000Y-97599760D03*
X164300000Y-96949520D03*
X161638080Y-96949520D03*
X161638080Y-97599760D03*
X161638080Y-98250000D03*
X158611920Y-96700000D03*
X158611920Y-96049760D03*
X158611920Y-95399520D03*
X155950000Y-95399520D03*
X155950000Y-96049760D03*
X155950000Y-96700000D03*
D20*
X143800000Y-111600000D03*
X143800000Y-115600000D03*
D21*
X137300000Y-114300000D03*
X137300000Y-112400000D03*
D22*
X138000000Y-124749300D03*
X138000000Y-123250700D03*
X141000000Y-124749300D03*
X141000000Y-123250700D03*
D23*
X138000000Y-121100000D03*
X138000000Y-118900000D03*
X141000000Y-121200000D03*
X141000000Y-119000000D03*
D24*
X141400000Y-114300000D03*
X141400000Y-113350000D03*
X141400000Y-112400000D03*
X139200000Y-112400000D03*
X139200000Y-114300000D03*
D17*
X134580000Y-120750000D03*
D25*
X162950000Y-97849974D03*
X162500000Y-95300000D03*
X142980000Y-104300000D03*
X137900000Y-94200000D03*
X152600000Y-92800000D03*
X138000000Y-117600000D03*
X143700000Y-113600000D03*
X138400000Y-109400000D03*
X144800000Y-104300000D03*
D26*
X163335170Y-106128721D03*
X162579214Y-106491109D03*
X162993938Y-107218712D03*
X162237982Y-107581100D03*
X162237982Y-108419301D03*
X162993938Y-108781689D03*
X162579214Y-109509292D03*
X163335170Y-109871680D03*
D25*
X164264956Y-95352566D03*
X160500000Y-95450000D03*
X157300000Y-95000000D03*
X159100000Y-98150000D03*
X159950000Y-93400000D03*
X154500000Y-92950000D03*
X153600000Y-93750000D03*
X154325068Y-92130246D03*
X160303087Y-96914049D03*
X157300000Y-97100000D03*
X156750000Y-92200000D03*
X154650000Y-94900000D03*
D26*
X156380187Y-105401118D03*
D25*
X160729126Y-94320874D03*
X145300000Y-112100000D03*
X149900000Y-111000000D03*
D26*
X156306694Y-107218712D03*
X157062650Y-107581100D03*
X157062650Y-108419301D03*
X156306694Y-108781689D03*
X156721418Y-109509292D03*
X155965462Y-109871680D03*
D25*
X145100000Y-105800000D03*
X143600000Y-109000000D03*
D26*
X154941767Y-102858749D03*
X155697723Y-103221137D03*
D25*
X160900000Y-117100000D03*
D26*
X158255617Y-116945501D03*
X161045015Y-99054899D03*
X158255617Y-99054899D03*
X158255617Y-99054899D03*
D25*
X149495270Y-110121206D03*
X148692632Y-110972641D03*
X161794374Y-116868470D03*
X161926514Y-117720151D03*
X147000000Y-110700000D03*
X148531177Y-109668852D03*
X162800000Y-118300000D03*
X163738213Y-117600000D03*
D26*
X164626605Y-116049236D03*
X165041329Y-115321633D03*
X164285373Y-114959245D03*
X164700097Y-114231642D03*
X163944142Y-113869254D03*
X164358866Y-113141651D03*
X163602910Y-112779264D03*
X164017634Y-112051661D03*
X163261678Y-111689273D03*
X163676402Y-110961670D03*
X162920446Y-110599282D03*
X162920446Y-105401118D03*
X163676402Y-105038731D03*
X163261678Y-104311128D03*
X164017634Y-103948740D03*
X163602910Y-103221137D03*
X164358866Y-102858749D03*
X163944142Y-102131146D03*
X164700097Y-101768759D03*
X164285373Y-101041156D03*
X165041329Y-100678768D03*
X164626605Y-99951165D03*
X163642567Y-99005000D03*
X163166374Y-99692120D03*
X162511810Y-99165956D03*
X162035617Y-99853076D03*
X157265015Y-99853076D03*
X156788823Y-99165956D03*
X156134258Y-99692120D03*
D25*
X153856097Y-98376510D03*
X150200000Y-108900000D03*
X145712765Y-111096015D03*
X153230000Y-98930000D03*
X151290000Y-98290000D03*
D26*
X154259303Y-100678768D03*
X155015259Y-101041156D03*
X154600535Y-101768759D03*
X155356491Y-102131146D03*
X155965462Y-106128721D03*
X156721418Y-106491109D03*
X156380187Y-110599282D03*
X155624231Y-110961670D03*
X156038955Y-111689273D03*
X155282999Y-112051661D03*
X155697723Y-112779264D03*
X154941767Y-113141651D03*
X155356491Y-113869254D03*
X154600535Y-114231642D03*
X155015259Y-114959245D03*
X154259303Y-115321633D03*
X154674027Y-116049236D03*
X155658066Y-116995401D03*
X156134258Y-116308281D03*
X156788823Y-116834445D03*
X157265015Y-116147324D03*
D27*
X162950000Y-97849974D02*
X162950000Y-96450000D01*
X162950000Y-96450000D02*
X162850000Y-96350000D01*
X162950000Y-97849974D02*
X163350266Y-98250240D01*
X163350266Y-98250240D02*
X163350506Y-98250000D01*
X163350506Y-98250000D02*
X164300000Y-98250000D01*
X162850000Y-96350000D02*
X162550000Y-96050000D01*
X158461920Y-94250000D02*
X158461920Y-95249520D01*
X158461920Y-95249520D02*
X158611920Y-95399520D01*
X159353696Y-95399520D02*
X159975678Y-96021502D01*
X158611920Y-95399520D02*
X159353696Y-95399520D01*
X160771502Y-96021502D02*
X160528498Y-96021502D01*
X162550000Y-96050000D02*
X160800000Y-96050000D01*
X160800000Y-96050000D02*
X160771502Y-96021502D01*
X160528498Y-96021502D02*
X159914476Y-96021502D01*
X159235978Y-96700000D02*
X158611920Y-96700000D01*
X159975678Y-96021502D02*
X160528498Y-96021502D01*
X159914476Y-96021502D02*
X159235978Y-96700000D01*
X162500000Y-96000000D02*
X162500000Y-95784933D01*
X162550000Y-96050000D02*
X162500000Y-96000000D01*
X162500000Y-95784933D02*
X162500000Y-95300000D01*
X158611920Y-94261920D02*
X158600000Y-94250000D01*
X143325000Y-104300000D02*
X142980000Y-104300000D01*
X150450000Y-107475000D02*
X151915000Y-107475000D01*
X152660000Y-103782600D02*
X152052400Y-103175000D01*
X152052400Y-103175000D02*
X151400000Y-103175000D01*
X151915000Y-107475000D02*
X152660000Y-106730000D01*
X152660000Y-106730000D02*
X152660000Y-103782600D01*
X137900000Y-92375000D02*
X137900000Y-94200000D01*
X151400000Y-92825000D02*
X152575000Y-92825000D01*
X152575000Y-92825000D02*
X152600000Y-92800000D01*
X138000000Y-118900000D02*
X138000000Y-117600000D01*
X143700000Y-113600000D02*
X143700000Y-115500000D01*
X143700000Y-115500000D02*
X143800000Y-115600000D01*
X141400000Y-113350000D02*
X143450000Y-113350000D01*
X143450000Y-113350000D02*
X143700000Y-113600000D01*
X138400000Y-109400000D02*
X140250000Y-107550000D01*
X140250000Y-107550000D02*
X140250000Y-107475000D01*
X137300000Y-112400000D02*
X137300000Y-110500000D01*
X137300000Y-110500000D02*
X138400000Y-109400000D01*
X151400000Y-103175000D02*
X145925000Y-103175000D01*
X145925000Y-103175000D02*
X144800000Y-104300000D01*
X144800000Y-104300000D02*
X145142899Y-104642899D01*
X145142899Y-104642899D02*
X145220299Y-104642899D01*
X145220299Y-104642899D02*
X147300000Y-106722600D01*
X147300000Y-106722600D02*
X147300000Y-107475000D01*
X140250000Y-107475000D02*
X140250000Y-107375000D01*
X140250000Y-107375000D02*
X143325000Y-104300000D01*
X143325000Y-104300000D02*
X143425000Y-104300000D01*
X143425000Y-104300000D02*
X144800000Y-104300000D01*
X161190316Y-106624000D02*
X161540316Y-106624000D01*
X161540316Y-106624000D02*
X162460992Y-105841578D01*
X162460992Y-105841578D02*
X162749830Y-105946114D01*
X162749830Y-105946114D02*
X163335170Y-106128721D01*
X161190316Y-107024000D02*
X161540316Y-107024000D01*
X161540316Y-107024000D02*
X162406505Y-106287883D01*
X162406505Y-106287883D02*
X162579214Y-106491109D01*
X161190316Y-107424000D02*
X161540316Y-107424000D01*
X161540316Y-107424000D02*
X162119760Y-106931569D01*
X162119760Y-106931569D02*
X162408598Y-107036104D01*
X162408598Y-107036104D02*
X162993938Y-107218712D01*
X161190316Y-107824000D02*
X161540316Y-107824000D01*
X161540316Y-107824000D02*
X162065274Y-107377873D01*
X162065274Y-107377873D02*
X162237982Y-107581100D01*
X161190316Y-108176401D02*
X161540316Y-108176401D01*
X161540316Y-108176401D02*
X162065274Y-108622527D01*
X162065274Y-108622527D02*
X162237982Y-108419301D01*
X161190316Y-108576401D02*
X161540316Y-108576401D01*
X161540316Y-108576401D02*
X162119760Y-109068832D01*
X162119760Y-109068832D02*
X162408598Y-108964297D01*
X162408598Y-108964297D02*
X162993938Y-108781689D01*
X161190316Y-108976401D02*
X161540316Y-108976401D01*
X161540316Y-108976401D02*
X162406505Y-109712518D01*
X162406505Y-109712518D02*
X162579214Y-109509292D01*
X161190316Y-109376401D02*
X161540316Y-109376401D01*
X161540316Y-109376401D02*
X162460992Y-110158823D01*
X162460992Y-110158823D02*
X162749830Y-110054287D01*
X162749830Y-110054287D02*
X163335170Y-109871680D01*
X165202970Y-96290580D02*
X164607855Y-95695465D01*
X163412390Y-94500000D02*
X163922057Y-95009667D01*
X164851180Y-96949520D02*
X165202970Y-96597730D01*
X164300000Y-96949520D02*
X164851180Y-96949520D01*
X160500000Y-95450000D02*
X161450000Y-94500000D01*
X163922057Y-95009667D02*
X164264956Y-95352566D01*
X165202970Y-96597730D02*
X165202970Y-96290580D01*
X161450000Y-94500000D02*
X163412390Y-94500000D01*
X164607855Y-95695465D02*
X164264956Y-95352566D01*
X164300000Y-97599760D02*
X164300000Y-96949520D01*
X160500000Y-95450000D02*
X160500000Y-94965067D01*
X160500000Y-94965067D02*
X159134693Y-93599760D01*
X159134693Y-93599760D02*
X158461920Y-93599760D01*
X158611920Y-96049760D02*
X157708950Y-96049760D01*
X157708950Y-96049760D02*
X157300000Y-95640810D01*
X157300000Y-95640810D02*
X157300000Y-95000000D01*
X159502970Y-92949520D02*
X158461920Y-92949520D01*
X158265067Y-97800000D02*
X156698210Y-97800000D01*
X155950000Y-97051790D02*
X155950000Y-96700000D01*
X156698210Y-97800000D02*
X155950000Y-97051790D01*
X159100000Y-98150000D02*
X158615067Y-98150000D01*
X158615067Y-98150000D02*
X158265067Y-97800000D01*
X159950000Y-93396550D02*
X159950000Y-93400000D01*
X159502970Y-92949520D02*
X159950000Y-93396550D01*
X156470220Y-96800240D02*
X155919040Y-96800240D01*
X157607600Y-105000000D02*
X158110000Y-105000000D01*
X154598740Y-103948740D02*
X156495045Y-103948740D01*
X154425059Y-98994479D02*
X153600000Y-99819538D01*
X153600000Y-102950000D02*
X154598740Y-103948740D01*
X156903232Y-104295632D02*
X157607600Y-105000000D01*
X153600000Y-97278348D02*
X154425059Y-98103407D01*
X153600000Y-93750000D02*
X153600000Y-97278348D01*
X154425059Y-98103407D02*
X154425059Y-98994479D01*
X153600000Y-99819538D02*
X153600000Y-102950000D01*
X156495045Y-103948740D02*
X156903232Y-104295632D01*
X155800000Y-92949520D02*
X154500480Y-92949520D01*
X154500480Y-92949520D02*
X154500000Y-92950000D01*
X155938080Y-92949520D02*
X155937600Y-92950000D01*
X161638080Y-98250000D02*
X160346552Y-98250000D01*
X160346552Y-98250000D02*
X160303087Y-98206535D01*
X160303087Y-98206535D02*
X160303087Y-97700000D01*
X160303087Y-97700000D02*
X160303087Y-97398982D01*
X161638080Y-97599760D02*
X160735110Y-97599760D01*
X160735110Y-97599760D02*
X160634870Y-97700000D01*
X160634870Y-97700000D02*
X160303087Y-97700000D01*
X158110000Y-106200000D02*
X159531067Y-106200000D01*
X154650000Y-93945822D02*
X154650000Y-93846790D01*
X154650000Y-93846790D02*
X154897030Y-93599760D01*
X154897030Y-93599760D02*
X155800000Y-93599760D01*
X154650000Y-94900000D02*
X154650000Y-93945822D01*
X154650000Y-93945822D02*
X153928499Y-93224321D01*
X153928499Y-93224321D02*
X153928499Y-92526815D01*
X153928499Y-92526815D02*
X153982169Y-92473145D01*
X153982169Y-92473145D02*
X154325068Y-92130246D01*
X154394822Y-92200000D02*
X154325068Y-92130246D01*
X156750000Y-92200000D02*
X154394822Y-92200000D01*
X160303087Y-97398982D02*
X160303087Y-96914049D01*
X160239234Y-98270388D02*
X160303087Y-98206535D01*
X156957101Y-96757101D02*
X156957101Y-96153891D01*
X157300000Y-97100000D02*
X156957101Y-96757101D01*
X156957101Y-96153891D02*
X156852970Y-96049760D01*
X156852970Y-96049760D02*
X155950000Y-96049760D01*
X160054811Y-98454811D02*
X160239234Y-98270388D01*
X160054811Y-98454811D02*
X160050000Y-98450000D01*
X160059620Y-104997487D02*
X160054811Y-104992678D01*
X159531067Y-106200000D02*
X160059620Y-105671447D01*
X160054811Y-104992678D02*
X160054811Y-98454811D01*
X160059620Y-105671447D02*
X160059620Y-104997487D01*
X158110316Y-106224000D02*
X157760316Y-106224000D01*
X157760316Y-106224000D02*
X156552895Y-105197892D01*
X156552895Y-105197892D02*
X156380187Y-105401118D01*
X160729126Y-94320874D02*
X160729126Y-92679126D01*
X160729126Y-92679126D02*
X160500000Y-92450000D01*
X156917251Y-93032749D02*
X156917251Y-94173799D01*
X156917251Y-94173799D02*
X156841050Y-94250000D01*
X156841050Y-94250000D02*
X155800000Y-94250000D01*
X160500000Y-92450000D02*
X157500000Y-92450000D01*
X157500000Y-92450000D02*
X156917251Y-93032749D01*
X159450000Y-105800000D02*
X158110000Y-105800000D01*
X159750000Y-105500000D02*
X159450000Y-105800000D01*
X159700000Y-96671314D02*
X159700000Y-99250000D01*
X159750000Y-99300000D02*
X159750000Y-105500000D01*
X159700000Y-99250000D02*
X159750000Y-99300000D01*
X159885657Y-96485657D02*
X159700000Y-96671314D01*
X161638080Y-96949520D02*
X160874588Y-96949520D01*
X160874588Y-96949520D02*
X160874588Y-96639728D01*
X160874588Y-96639728D02*
X160577408Y-96342548D01*
X160577408Y-96342548D02*
X160028766Y-96342548D01*
X160028766Y-96342548D02*
X159885657Y-96485657D01*
X158110000Y-105400000D02*
X159350000Y-105400000D01*
X155146302Y-95399520D02*
X155950000Y-95399520D01*
X159445190Y-99426256D02*
X158452433Y-98433499D01*
X159350000Y-105400000D02*
X159445190Y-105304810D01*
X159445190Y-105304810D02*
X159445190Y-99426256D01*
X158452433Y-98433499D02*
X154733499Y-98433499D01*
X154733499Y-98433499D02*
X154733499Y-95812323D01*
X154733499Y-95812323D02*
X155146302Y-95399520D01*
X156721418Y-109509292D02*
X156327850Y-109509292D01*
X156327850Y-109509292D02*
X155965462Y-109871680D01*
X156306694Y-107793306D02*
X156518900Y-107581100D01*
X156518900Y-107581100D02*
X157062650Y-107581100D01*
X156306694Y-107218712D02*
X156306694Y-107793306D01*
X141400000Y-114300000D02*
X140717600Y-114300000D01*
X140717600Y-114300000D02*
X140300000Y-113882400D01*
X140300000Y-113882400D02*
X140300000Y-112817600D01*
X140300000Y-112817600D02*
X140717600Y-112400000D01*
X140717600Y-112400000D02*
X141400000Y-112400000D01*
X141400000Y-112400000D02*
X143000000Y-112400000D01*
X143000000Y-112400000D02*
X143800000Y-111600000D01*
X145300000Y-112100000D02*
X144800000Y-111600000D01*
X144800000Y-111600000D02*
X143800000Y-111600000D01*
X155965462Y-109871680D02*
X151028320Y-109871680D01*
X151028320Y-109871680D02*
X149900000Y-111000000D01*
X158110316Y-107424000D02*
X157760316Y-107424000D01*
X157760316Y-107424000D02*
X157180872Y-106931569D01*
X157180872Y-106931569D02*
X156892034Y-107036104D01*
X156892034Y-107036104D02*
X156306694Y-107218712D01*
X158110316Y-107824000D02*
X157760316Y-107824000D01*
X157760316Y-107824000D02*
X157235359Y-107377873D01*
X157235359Y-107377873D02*
X157062650Y-107581100D01*
X158110316Y-108176401D02*
X157760316Y-108176401D01*
X157760316Y-108176401D02*
X157235359Y-108622527D01*
X157235359Y-108622527D02*
X157062650Y-108419301D01*
X158110316Y-108576401D02*
X157760316Y-108576401D01*
X157760316Y-108576401D02*
X157180872Y-109068832D01*
X157180872Y-109068832D02*
X156892034Y-108964297D01*
X156892034Y-108964297D02*
X156306694Y-108781689D01*
X158110316Y-108976401D02*
X157760316Y-108976401D01*
X157760316Y-108976401D02*
X156894127Y-109712518D01*
X156894127Y-109712518D02*
X156721418Y-109509292D01*
X158110316Y-109376401D02*
X157760316Y-109376401D01*
X157760316Y-109376401D02*
X156839640Y-110158823D01*
X156839640Y-110158823D02*
X156550802Y-110054287D01*
X156550802Y-110054287D02*
X155965462Y-109871680D01*
X145100000Y-105800000D02*
X145100000Y-107475000D01*
X138300000Y-113827400D02*
X139039082Y-113827400D01*
X139039082Y-113827400D02*
X139958601Y-112907881D01*
X139958601Y-112907881D02*
X139958601Y-112641399D01*
X139958601Y-112641399D02*
X143600000Y-109000000D01*
X137300000Y-114300000D02*
X137827400Y-114300000D01*
X137827400Y-114300000D02*
X138300000Y-113827400D01*
X137300000Y-114300000D02*
X139200000Y-114300000D01*
X139200000Y-124100480D02*
X139848820Y-124749300D01*
X139848820Y-124749300D02*
X141000000Y-124749300D01*
X139200000Y-114300000D02*
X139200000Y-124100480D01*
X139200000Y-124100480D02*
X138551180Y-124749300D01*
X138551180Y-124749300D02*
X138000000Y-124749300D01*
X138000000Y-123250700D02*
X138000000Y-121100000D01*
X141000000Y-121200000D02*
X141000000Y-123250700D01*
X158110316Y-104224000D02*
X157760316Y-104224000D01*
X155815945Y-102571606D02*
X155527107Y-102676142D01*
X157760316Y-104224000D02*
X155815945Y-102571606D01*
X155527107Y-102676142D02*
X154941767Y-102858749D01*
X155870431Y-103017911D02*
X155697723Y-103221137D01*
X157760316Y-104624000D02*
X155870431Y-103017911D01*
X158110316Y-104624000D02*
X157760316Y-104624000D01*
X148966953Y-110401140D02*
X149264133Y-110698320D01*
X148455214Y-110401140D02*
X148966953Y-110401140D01*
X149264133Y-111570935D02*
X155478765Y-117785567D01*
X160214433Y-117785567D02*
X160557101Y-117442899D01*
X155478765Y-117785567D02*
X160214433Y-117785567D01*
X149264133Y-110698320D02*
X149264133Y-111570935D01*
X147978447Y-109924373D02*
X148455214Y-110401140D01*
X146199373Y-109924373D02*
X147978447Y-109924373D01*
X160557101Y-117442899D02*
X160900000Y-117100000D01*
X144000000Y-107725000D02*
X146199373Y-109924373D01*
X144000000Y-107475000D02*
X144000000Y-107725000D01*
X158255617Y-115800200D02*
X158255617Y-116945501D01*
X161045015Y-100200200D02*
X161045015Y-99054899D01*
X158255617Y-100200200D02*
X158255617Y-99054899D01*
X158255617Y-100200200D02*
X158255617Y-99054899D01*
X148692632Y-111457574D02*
X148692632Y-110972641D01*
X155325436Y-118090378D02*
X148692632Y-111457574D01*
X161794374Y-116868470D02*
X161471501Y-117191343D01*
X161471501Y-117374321D02*
X160755444Y-118090378D01*
X160755444Y-118090378D02*
X155325436Y-118090378D01*
X161471501Y-117191343D02*
X161471501Y-117374321D01*
X149495270Y-108820270D02*
X149495270Y-109636273D01*
X148400000Y-107725000D02*
X149495270Y-108820270D01*
X148400000Y-107475000D02*
X148400000Y-107725000D01*
X149495270Y-109636273D02*
X149495270Y-110121206D01*
X161251476Y-118395189D02*
X161583615Y-118063050D01*
X154695189Y-118395189D02*
X161251476Y-118395189D01*
X161583615Y-118063050D02*
X161926514Y-117720151D01*
X147000000Y-110700000D02*
X154695189Y-118395189D01*
X146200000Y-107475000D02*
X146200000Y-107725000D01*
X146200000Y-107725000D02*
X147800953Y-109325953D01*
X147800953Y-109325953D02*
X148188278Y-109325953D01*
X148188278Y-109325953D02*
X148531177Y-109668852D01*
X154125000Y-118700000D02*
X162400000Y-118700000D01*
X162400000Y-118700000D02*
X162457101Y-118642899D01*
X146796502Y-111371502D02*
X154125000Y-118700000D01*
X146328498Y-111074322D02*
X146625678Y-111371502D01*
X142900000Y-107725000D02*
X143478601Y-108303601D01*
X146328498Y-110903498D02*
X146328498Y-111074322D01*
X146625678Y-111371502D02*
X146796502Y-111371502D01*
X142900000Y-107475000D02*
X142900000Y-107725000D01*
X143478601Y-108303601D02*
X143728601Y-108303601D01*
X162457101Y-118642899D02*
X162800000Y-118300000D01*
X143728601Y-108303601D02*
X146328498Y-110903498D01*
X163738213Y-117600000D02*
X163363915Y-117600000D01*
X163363915Y-117600000D02*
X161540316Y-115776401D01*
X161190316Y-115776401D02*
X161540316Y-115776401D01*
X163647342Y-117028499D02*
X164283706Y-116392135D01*
X161540316Y-115376401D02*
X163484339Y-117028499D01*
X161190316Y-115376401D02*
X161540316Y-115376401D01*
X164283706Y-116392135D02*
X164626605Y-116049236D01*
X163484339Y-117028499D02*
X163647342Y-117028499D01*
X161190316Y-114976401D02*
X161540316Y-114976401D01*
X161540316Y-114976401D02*
X163377626Y-116537810D01*
X163377626Y-116537810D02*
X164167151Y-115608776D01*
X164167151Y-115608776D02*
X164455989Y-115504240D01*
X164455989Y-115504240D02*
X165041329Y-115321633D01*
X161190316Y-114576401D02*
X161540316Y-114576401D01*
X161540316Y-114576401D02*
X163323139Y-116091505D01*
X163323139Y-116091505D02*
X164112665Y-115162471D01*
X164112665Y-115162471D02*
X164285373Y-114959245D01*
X161190316Y-114176401D02*
X161540316Y-114176401D01*
X161540316Y-114176401D02*
X163036394Y-115447819D01*
X163036394Y-115447819D02*
X163825920Y-114518785D01*
X163825920Y-114518785D02*
X164114757Y-114414250D01*
X164114757Y-114414250D02*
X164700097Y-114231642D01*
X161190316Y-113776401D02*
X161540316Y-113776401D01*
X161540316Y-113776401D02*
X162981908Y-115001515D01*
X162981908Y-115001515D02*
X163771433Y-114072481D01*
X163771433Y-114072481D02*
X163944142Y-113869254D01*
X161190316Y-113376401D02*
X161540316Y-113376401D01*
X161540316Y-113376401D02*
X162695162Y-114357829D01*
X162695162Y-114357829D02*
X163484688Y-113428795D01*
X163484688Y-113428795D02*
X163773526Y-113324259D01*
X163773526Y-113324259D02*
X164358866Y-113141651D01*
X161190316Y-112976401D02*
X161540316Y-112976401D01*
X161540316Y-112976401D02*
X162640676Y-113911524D01*
X162640676Y-113911524D02*
X163430201Y-112982490D01*
X163430201Y-112982490D02*
X163602910Y-112779264D01*
X161190316Y-110976401D02*
X161540316Y-110976401D01*
X161540316Y-110976401D02*
X163143456Y-112338804D01*
X163143456Y-112338804D02*
X163432294Y-112234268D01*
X163432294Y-112234268D02*
X164017634Y-112051661D01*
X161190316Y-110576401D02*
X161540316Y-110576401D01*
X161540316Y-110576401D02*
X163088969Y-111892499D01*
X163088969Y-111892499D02*
X163261678Y-111689273D01*
X161190316Y-110176401D02*
X161540316Y-110176401D01*
X161540316Y-110176401D02*
X162802224Y-111248813D01*
X162802224Y-111248813D02*
X163091062Y-111144278D01*
X163091062Y-111144278D02*
X163676402Y-110961670D01*
X161190316Y-109776401D02*
X161540316Y-109776401D01*
X161540316Y-109776401D02*
X162747737Y-110802509D01*
X162747737Y-110802509D02*
X162920446Y-110599282D01*
X161190316Y-106224000D02*
X161540316Y-106224000D01*
X161540316Y-106224000D02*
X162747737Y-105197892D01*
X162747737Y-105197892D02*
X162920446Y-105401118D01*
X161190316Y-105824000D02*
X161540316Y-105824000D01*
X161540316Y-105824000D02*
X162802224Y-104751587D01*
X162802224Y-104751587D02*
X163091062Y-104856123D01*
X163091062Y-104856123D02*
X163676402Y-105038731D01*
X161190316Y-105424000D02*
X161540316Y-105424000D01*
X161540316Y-105424000D02*
X163088969Y-104107901D01*
X163088969Y-104107901D02*
X163261678Y-104311128D01*
X161190316Y-105024000D02*
X161540316Y-105024000D01*
X161540316Y-105024000D02*
X163143456Y-103661597D01*
X163143456Y-103661597D02*
X163432294Y-103766132D01*
X163432294Y-103766132D02*
X164017634Y-103948740D01*
X161190316Y-104624000D02*
X161540316Y-104624000D01*
X161540316Y-104624000D02*
X163430201Y-103017911D01*
X163430201Y-103017911D02*
X163602910Y-103221137D01*
X161190316Y-104224000D02*
X161540316Y-104224000D01*
X161540316Y-104224000D02*
X163484688Y-102571606D01*
X163484688Y-102571606D02*
X163773526Y-102676142D01*
X163773526Y-102676142D02*
X164358866Y-102858749D01*
X161190316Y-103824000D02*
X161540316Y-103824000D01*
X161540316Y-103824000D02*
X163771433Y-101927920D01*
X163771433Y-101927920D02*
X163944142Y-102131146D01*
X161190316Y-103424000D02*
X161540316Y-103424000D01*
X161540316Y-103424000D02*
X163825920Y-101481616D01*
X163825920Y-101481616D02*
X164114757Y-101586151D01*
X164114757Y-101586151D02*
X164700097Y-101768759D01*
X161190316Y-103024000D02*
X161540316Y-103024000D01*
X161540316Y-103024000D02*
X164112665Y-100837930D01*
X164112665Y-100837930D02*
X164285373Y-101041156D01*
X161190316Y-102624000D02*
X161540316Y-102624000D01*
X161540316Y-102624000D02*
X164167151Y-100391625D01*
X164167151Y-100391625D02*
X164455989Y-100496161D01*
X164455989Y-100496161D02*
X165041329Y-100678768D01*
X161190316Y-102224000D02*
X161540316Y-102224000D01*
X161540316Y-102224000D02*
X164453897Y-99747939D01*
X164453897Y-99747939D02*
X164626605Y-99951165D01*
X161190316Y-101824000D02*
X161540316Y-101824000D01*
X161540316Y-101824000D02*
X163788332Y-99913558D01*
X163788332Y-99913558D02*
X163731753Y-99611642D01*
X163731753Y-99611642D02*
X163642567Y-99005000D01*
X161190316Y-101424000D02*
X161540316Y-101424000D01*
X161540316Y-101424000D02*
X163339083Y-99895346D01*
X163339083Y-99895346D02*
X163166374Y-99692120D01*
X161190316Y-101024000D02*
X161540316Y-101024000D01*
X161540316Y-101024000D02*
X162657575Y-100074515D01*
X162657575Y-100074515D02*
X162600996Y-99772598D01*
X162600996Y-99772598D02*
X162511810Y-99165956D01*
X161190316Y-100624000D02*
X161540316Y-100624000D01*
X161540316Y-100624000D02*
X162208326Y-100056303D01*
X162208326Y-100056303D02*
X162035617Y-99853076D01*
X158110316Y-100624000D02*
X157760316Y-100624000D01*
X157760316Y-100624000D02*
X157092307Y-100056303D01*
X157092307Y-100056303D02*
X157265015Y-99853076D01*
X156699637Y-99772598D02*
X156788823Y-99165956D01*
X156648403Y-100045978D02*
X156699637Y-99772598D01*
X156868693Y-100266269D02*
X156648403Y-100045978D01*
X157760316Y-101024000D02*
X156868693Y-100266269D01*
X158110316Y-101024000D02*
X157760316Y-101024000D01*
X156685720Y-100510771D02*
X156134258Y-99959309D01*
X157760318Y-101424000D02*
X157760316Y-101423998D01*
X158110316Y-101424000D02*
X157760318Y-101424000D01*
X157760316Y-101423998D02*
X156685720Y-100510771D01*
X156134258Y-99959309D02*
X156134258Y-99692120D01*
X151031066Y-108900000D02*
X152962271Y-106968795D01*
X153856097Y-98861443D02*
X153856097Y-98376510D01*
X153856097Y-99135966D02*
X153856097Y-98861443D01*
X152962271Y-100029792D02*
X153856097Y-99135966D01*
X150200000Y-108900000D02*
X151031066Y-108900000D01*
X152962271Y-106968795D02*
X152962271Y-100029792D01*
X146055664Y-112190158D02*
X146055664Y-111438914D01*
X145712765Y-112533057D02*
X146055664Y-112190158D01*
X145712765Y-115872168D02*
X145712765Y-112533057D01*
X141000000Y-119000000D02*
X142584933Y-119000000D01*
X146055664Y-111438914D02*
X145712765Y-111096015D01*
X142584933Y-119000000D02*
X145712765Y-115872168D01*
X153230000Y-98930000D02*
X152590000Y-98290000D01*
X152590000Y-98290000D02*
X151290000Y-98290000D01*
X151290000Y-98290000D02*
X151290000Y-97085000D01*
X151290000Y-97085000D02*
X151400000Y-96975000D01*
X151400000Y-97527400D02*
X151400000Y-96975000D01*
X157571475Y-101824000D02*
X158110316Y-101824000D01*
X156050876Y-100303400D02*
X157571475Y-101824000D01*
X154634671Y-100303400D02*
X156050876Y-100303400D01*
X154259303Y-100678768D02*
X154634671Y-100303400D01*
X157544001Y-102224000D02*
X157760316Y-102224000D01*
X155015259Y-101041156D02*
X155385349Y-100605671D01*
X155385349Y-100605671D02*
X155925672Y-100605671D01*
X155925672Y-100605671D02*
X157544001Y-102224000D01*
X157760316Y-102224000D02*
X158110316Y-102224000D01*
X155672094Y-101249357D02*
X156141884Y-101249357D01*
X156141884Y-101249357D02*
X157516527Y-102624000D01*
X157516527Y-102624000D02*
X157760316Y-102624000D01*
X155185875Y-101586151D02*
X154600535Y-101768759D01*
X155474713Y-101481616D02*
X155185875Y-101586151D01*
X155672094Y-101249357D02*
X155474713Y-101481616D01*
X158110316Y-102624000D02*
X157760316Y-102624000D01*
X155356491Y-102131146D02*
X155726581Y-101695662D01*
X155726581Y-101695662D02*
X156075662Y-101695662D01*
X156075662Y-101695662D02*
X157404000Y-103024000D01*
X157404000Y-103024000D02*
X157760316Y-103024000D01*
X157760316Y-103024000D02*
X158110316Y-103024000D01*
X158110316Y-106624000D02*
X157760316Y-106624000D01*
X157760316Y-106624000D02*
X156839640Y-105841578D01*
X156839640Y-105841578D02*
X156550802Y-105946114D01*
X156550802Y-105946114D02*
X155965462Y-106128721D01*
X158110316Y-107024000D02*
X157760316Y-107024000D01*
X157760316Y-107024000D02*
X156894127Y-106287883D01*
X156894127Y-106287883D02*
X156721418Y-106491109D01*
X158110316Y-109776401D02*
X157760316Y-109776401D01*
X157760316Y-109776401D02*
X156552895Y-110802509D01*
X156552895Y-110802509D02*
X156380187Y-110599282D01*
X158110316Y-110176401D02*
X157760316Y-110176401D01*
X157760316Y-110176401D02*
X156498409Y-111248813D01*
X156498409Y-111248813D02*
X156209571Y-111144278D01*
X156209571Y-111144278D02*
X155624231Y-110961670D01*
X158110316Y-110576401D02*
X157760316Y-110576401D01*
X157760316Y-110576401D02*
X156211663Y-111892499D01*
X156211663Y-111892499D02*
X156038955Y-111689273D01*
X158110316Y-110976401D02*
X157760316Y-110976401D01*
X157760316Y-110976401D02*
X156157177Y-112338804D01*
X156157177Y-112338804D02*
X155868339Y-112234268D01*
X155868339Y-112234268D02*
X155282999Y-112051661D01*
X158110316Y-111376401D02*
X157760316Y-111376401D01*
X157760316Y-111376401D02*
X155870431Y-112982490D01*
X155870431Y-112982490D02*
X155697723Y-112779264D01*
X158110316Y-111776401D02*
X157760316Y-111776401D01*
X157760316Y-111776401D02*
X155815945Y-113428795D01*
X155815945Y-113428795D02*
X155527107Y-113324259D01*
X155527107Y-113324259D02*
X154941767Y-113141651D01*
X158110316Y-112176401D02*
X157760316Y-112176401D01*
X157760316Y-112176401D02*
X155529200Y-114072481D01*
X155529200Y-114072481D02*
X155356491Y-113869254D01*
X158110316Y-112576401D02*
X157760316Y-112576401D01*
X157760316Y-112576401D02*
X155474713Y-114518785D01*
X155474713Y-114518785D02*
X155185875Y-114414250D01*
X155185875Y-114414250D02*
X154600535Y-114231642D01*
X158110316Y-112976401D02*
X157760316Y-112976401D01*
X157760316Y-112976401D02*
X155187968Y-115162471D01*
X155187968Y-115162471D02*
X155015259Y-114959245D01*
X158110316Y-113376401D02*
X157760316Y-113376401D01*
X157760316Y-113376401D02*
X155133481Y-115608776D01*
X155133481Y-115608776D02*
X154844643Y-115504240D01*
X154844643Y-115504240D02*
X154259303Y-115321633D01*
X158110316Y-113776401D02*
X157760316Y-113776401D01*
X157760316Y-113776401D02*
X154846736Y-116252462D01*
X154846736Y-116252462D02*
X154674027Y-116049236D01*
X158110316Y-114176401D02*
X157760316Y-114176401D01*
X157760316Y-114176401D02*
X155512300Y-116086842D01*
X155512300Y-116086842D02*
X155568880Y-116388759D01*
X155568880Y-116388759D02*
X155658066Y-116995401D01*
X158110316Y-114576401D02*
X157760316Y-114576401D01*
X157760316Y-114576401D02*
X155961549Y-116105055D01*
X155961549Y-116105055D02*
X156134258Y-116308281D01*
X158110316Y-114976401D02*
X157760316Y-114976401D01*
X157760316Y-114976401D02*
X156643057Y-115925886D01*
X156643057Y-115925886D02*
X156699637Y-116227803D01*
X156699637Y-116227803D02*
X156788823Y-116834445D01*
X158110316Y-115376401D02*
X157760316Y-115376401D01*
X157760316Y-115376401D02*
X157092307Y-115944098D01*
X157092307Y-115944098D02*
X157265015Y-116147324D01*
D28*
G36*
X155770092Y-107106451D02*
X155954093Y-107106611D01*
X156166759Y-107319649D01*
X156526048Y-107468839D01*
X156915081Y-107469178D01*
X157087567Y-107397909D01*
X157125000Y-107622510D01*
X157125000Y-107626310D01*
X157126060Y-107628869D01*
X157166737Y-107872929D01*
X157125000Y-107973690D01*
X157125000Y-107991250D01*
X157133750Y-108000000D01*
X157125000Y-108008750D01*
X157125000Y-108026310D01*
X157196945Y-108200000D01*
X157125000Y-108373690D01*
X157125000Y-108391250D01*
X157133750Y-108400000D01*
X157125000Y-108408750D01*
X157125000Y-108426310D01*
X157196945Y-108600000D01*
X157125000Y-108773690D01*
X157125000Y-108791250D01*
X157133750Y-108800000D01*
X157125000Y-108808750D01*
X157125000Y-108826310D01*
X157174556Y-108945949D01*
X157126563Y-109169917D01*
X157125000Y-109173690D01*
X157125000Y-109177210D01*
X157071088Y-109428799D01*
X156756074Y-109696509D01*
X156575557Y-109621552D01*
X156186524Y-109621213D01*
X155826975Y-109769775D01*
X155612706Y-109983671D01*
X155530015Y-107006762D01*
X155770092Y-107106451D01*
X155770092Y-107106451D01*
G37*
X155770092Y-107106451D02*
X155954093Y-107106611D01*
X156166759Y-107319649D01*
X156526048Y-107468839D01*
X156915081Y-107469178D01*
X157087567Y-107397909D01*
X157125000Y-107622510D01*
X157125000Y-107626310D01*
X157126060Y-107628869D01*
X157166737Y-107872929D01*
X157125000Y-107973690D01*
X157125000Y-107991250D01*
X157133750Y-108000000D01*
X157125000Y-108008750D01*
X157125000Y-108026310D01*
X157196945Y-108200000D01*
X157125000Y-108373690D01*
X157125000Y-108391250D01*
X157133750Y-108400000D01*
X157125000Y-108408750D01*
X157125000Y-108426310D01*
X157196945Y-108600000D01*
X157125000Y-108773690D01*
X157125000Y-108791250D01*
X157133750Y-108800000D01*
X157125000Y-108808750D01*
X157125000Y-108826310D01*
X157174556Y-108945949D01*
X157126563Y-109169917D01*
X157125000Y-109173690D01*
X157125000Y-109177210D01*
X157071088Y-109428799D01*
X156756074Y-109696509D01*
X156575557Y-109621552D01*
X156186524Y-109621213D01*
X155826975Y-109769775D01*
X155612706Y-109983671D01*
X155530015Y-107006762D01*
X155770092Y-107106451D01*
M02*
