G04 #@! TF.FileFunction,Copper,L1,Top,Signal*
%FSLAX46Y46*%
G04 Gerber Fmt 4.6, Leading zero omitted, Abs format (unit mm)*
G04 Created by KiCad (PCBNEW 4.0.1-stable) date Tuesday, January 19, 2016 'PMt' 05:37:16 PM*
%MOMM*%
G01*
G04 APERTURE LIST*
%ADD10C,0.100000*%
%ADD11C,0.010000*%
%ADD12R,0.700000X0.200000*%
%ADD13R,1.501140X0.398780*%
%ADD14R,1.600000X2.000000*%
%ADD15R,0.750000X1.200000*%
%ADD16R,0.797560X0.797560*%
%ADD17R,0.900000X1.200000*%
%ADD18R,1.060000X0.650000*%
%ADD19R,0.700000X1.200000*%
%ADD20R,1.000000X1.200000*%
%ADD21R,1.300000X1.900000*%
%ADD22R,1.000000X2.800000*%
%ADD23R,1.000000X0.800000*%
%ADD24C,0.685800*%
%ADD25C,0.685801*%
%ADD26C,0.152400*%
%ADD27C,0.254000*%
G04 APERTURE END LIST*
D10*
D11*
G36*
X145597890Y-123743476D02*
X145619607Y-123743821D01*
X145638555Y-123744540D01*
X145655765Y-123745719D01*
X145672270Y-123747441D01*
X145689101Y-123749790D01*
X145707292Y-123752850D01*
X145722352Y-123755645D01*
X145762711Y-123764396D01*
X145804606Y-123775414D01*
X145846059Y-123788125D01*
X145885093Y-123801957D01*
X145892895Y-123804990D01*
X145922503Y-123816780D01*
X145951560Y-123828531D01*
X145980332Y-123840368D01*
X146009083Y-123852414D01*
X146038081Y-123864793D01*
X146067591Y-123877628D01*
X146097879Y-123891043D01*
X146129210Y-123905162D01*
X146161851Y-123920109D01*
X146196067Y-123936008D01*
X146232124Y-123952981D01*
X146270288Y-123971153D01*
X146310824Y-123990648D01*
X146353999Y-124011589D01*
X146400078Y-124034100D01*
X146449327Y-124058305D01*
X146502013Y-124084327D01*
X146558399Y-124112290D01*
X146618754Y-124142318D01*
X146634333Y-124150083D01*
X146686341Y-124175963D01*
X146734400Y-124199774D01*
X146778855Y-124221675D01*
X146820050Y-124241825D01*
X146858331Y-124260383D01*
X146894043Y-124277509D01*
X146927531Y-124293361D01*
X146959140Y-124308099D01*
X146989214Y-124321882D01*
X147018099Y-124334869D01*
X147046140Y-124347221D01*
X147073682Y-124359095D01*
X147101069Y-124370651D01*
X147128648Y-124382048D01*
X147156761Y-124393446D01*
X147185756Y-124405004D01*
X147191784Y-124407386D01*
X147209241Y-124414341D01*
X147225202Y-124420833D01*
X147239121Y-124426627D01*
X147250450Y-124431492D01*
X147258645Y-124435195D01*
X147263158Y-124437503D01*
X147263869Y-124438075D01*
X147262563Y-124440832D01*
X147258180Y-124446251D01*
X147251270Y-124453795D01*
X147242385Y-124462924D01*
X147232075Y-124473099D01*
X147220890Y-124483782D01*
X147209380Y-124494433D01*
X147198096Y-124504515D01*
X147187588Y-124513487D01*
X147183204Y-124517062D01*
X147132211Y-124555188D01*
X147076855Y-124591379D01*
X147017225Y-124625598D01*
X146953406Y-124657810D01*
X146885487Y-124687978D01*
X146813555Y-124716066D01*
X146737696Y-124742040D01*
X146657998Y-124765862D01*
X146574549Y-124787496D01*
X146487435Y-124806907D01*
X146473467Y-124809744D01*
X146413669Y-124820927D01*
X146357688Y-124829711D01*
X146305154Y-124836122D01*
X146255698Y-124840187D01*
X146208950Y-124841931D01*
X146164542Y-124841382D01*
X146122103Y-124838567D01*
X146102375Y-124836425D01*
X146057479Y-124829163D01*
X146016093Y-124818835D01*
X145978274Y-124805475D01*
X145944079Y-124789116D01*
X145913565Y-124769792D01*
X145886788Y-124747535D01*
X145863805Y-124722379D01*
X145844673Y-124694357D01*
X145837520Y-124681186D01*
X145828869Y-124662070D01*
X145821870Y-124641992D01*
X145816258Y-124619947D01*
X145811770Y-124594928D01*
X145808778Y-124571810D01*
X145807017Y-124556104D01*
X145759847Y-124551992D01*
X145745104Y-124550714D01*
X145731916Y-124549583D01*
X145721079Y-124548667D01*
X145713388Y-124548033D01*
X145709639Y-124547747D01*
X145709510Y-124547741D01*
X145707469Y-124546313D01*
X145707773Y-124545286D01*
X145706528Y-124544251D01*
X145701914Y-124543987D01*
X145695321Y-124544379D01*
X145688137Y-124545312D01*
X145681751Y-124546672D01*
X145678810Y-124547675D01*
X145675033Y-124548715D01*
X145667280Y-124550402D01*
X145656345Y-124552577D01*
X145643022Y-124555085D01*
X145628107Y-124557768D01*
X145624381Y-124558420D01*
X145568505Y-124567682D01*
X145515420Y-124575481D01*
X145463382Y-124582048D01*
X145410652Y-124587618D01*
X145394571Y-124589116D01*
X145379191Y-124590209D01*
X145360536Y-124591055D01*
X145339533Y-124591653D01*
X145317109Y-124592003D01*
X145294192Y-124592105D01*
X145271706Y-124591958D01*
X145250581Y-124591562D01*
X145231741Y-124590917D01*
X145216114Y-124590022D01*
X145207095Y-124589190D01*
X145157156Y-124582570D01*
X145108568Y-124574418D01*
X145060046Y-124564468D01*
X145010304Y-124552450D01*
X144958055Y-124538096D01*
X144947445Y-124534996D01*
X144931948Y-124530341D01*
X144920529Y-124526674D01*
X144912586Y-124523756D01*
X144907514Y-124521346D01*
X144904714Y-124519204D01*
X144903722Y-124517578D01*
X144903066Y-124514072D01*
X144901989Y-124506328D01*
X144900557Y-124494920D01*
X144898841Y-124480422D01*
X144896906Y-124463409D01*
X144894823Y-124444456D01*
X144892704Y-124424582D01*
X144890241Y-124400806D01*
X144888316Y-124381429D01*
X144886901Y-124366043D01*
X144885968Y-124354244D01*
X144885489Y-124345623D01*
X144885436Y-124339776D01*
X144885783Y-124336294D01*
X144886500Y-124334773D01*
X144886565Y-124334728D01*
X144890819Y-124333159D01*
X144897571Y-124331623D01*
X144899605Y-124331280D01*
X144907317Y-124329889D01*
X144919009Y-124327518D01*
X144933961Y-124324332D01*
X144951451Y-124320495D01*
X144970760Y-124316171D01*
X144991165Y-124311523D01*
X145011946Y-124306716D01*
X145032383Y-124301914D01*
X145051754Y-124297280D01*
X145069339Y-124292979D01*
X145082514Y-124289664D01*
X145152888Y-124270903D01*
X145218710Y-124251815D01*
X145280260Y-124232305D01*
X145337819Y-124212280D01*
X145391666Y-124191646D01*
X145442082Y-124170309D01*
X145450210Y-124166661D01*
X145498672Y-124143036D01*
X145548023Y-124115787D01*
X145597083Y-124085663D01*
X145644673Y-124053417D01*
X145689616Y-124019797D01*
X145719933Y-123994939D01*
X145732045Y-123984405D01*
X145744616Y-123973151D01*
X145757155Y-123961653D01*
X145769170Y-123950384D01*
X145780171Y-123939818D01*
X145789665Y-123930429D01*
X145797161Y-123922691D01*
X145802168Y-123917077D01*
X145804194Y-123914062D01*
X145804151Y-123913738D01*
X145800610Y-123911991D01*
X145793091Y-123909332D01*
X145782321Y-123905973D01*
X145769025Y-123902129D01*
X145753931Y-123898015D01*
X145737765Y-123893845D01*
X145730819Y-123892125D01*
X145682885Y-123882245D01*
X145634747Y-123876066D01*
X145585937Y-123873600D01*
X145535987Y-123874860D01*
X145484427Y-123879857D01*
X145430790Y-123888605D01*
X145374605Y-123901115D01*
X145373269Y-123901449D01*
X145316150Y-123917728D01*
X145261384Y-123937221D01*
X145209173Y-123959771D01*
X145159722Y-123985220D01*
X145113232Y-124013411D01*
X145069907Y-124044186D01*
X145029950Y-124077388D01*
X144993562Y-124112858D01*
X144960948Y-124150440D01*
X144932311Y-124189977D01*
X144907852Y-124231309D01*
X144887775Y-124274281D01*
X144885373Y-124280296D01*
X144877804Y-124299648D01*
X144776354Y-124396202D01*
X144757831Y-124413846D01*
X144740380Y-124430497D01*
X144724311Y-124445857D01*
X144709936Y-124459627D01*
X144697566Y-124471508D01*
X144687512Y-124481202D01*
X144680085Y-124488409D01*
X144675596Y-124492832D01*
X144674324Y-124494174D01*
X144676351Y-124495404D01*
X144682387Y-124498401D01*
X144692016Y-124502971D01*
X144704824Y-124508924D01*
X144720395Y-124516069D01*
X144738314Y-124524213D01*
X144758164Y-124533165D01*
X144779531Y-124542735D01*
X144784640Y-124545013D01*
X144895536Y-124594436D01*
X144907083Y-124635728D01*
X144912641Y-124654900D01*
X144919390Y-124677059D01*
X144926912Y-124700919D01*
X144934791Y-124725195D01*
X144942611Y-124748602D01*
X144949953Y-124769855D01*
X144956122Y-124786919D01*
X144959858Y-124796304D01*
X144962957Y-124802115D01*
X144966150Y-124805417D01*
X144970055Y-124807241D01*
X144975062Y-124808040D01*
X144984196Y-124808683D01*
X144996750Y-124809172D01*
X145012014Y-124809507D01*
X145029280Y-124809690D01*
X145047842Y-124809724D01*
X145066989Y-124809608D01*
X145086014Y-124809345D01*
X145104209Y-124808937D01*
X145120866Y-124808384D01*
X145135276Y-124807689D01*
X145146619Y-124806863D01*
X145258351Y-124794774D01*
X145326838Y-124785603D01*
X145356132Y-124781189D01*
X145381379Y-124776868D01*
X145403360Y-124772428D01*
X145422857Y-124767653D01*
X145440651Y-124762331D01*
X145457523Y-124756246D01*
X145474255Y-124749184D01*
X145491628Y-124740933D01*
X145493752Y-124739873D01*
X145532076Y-124718252D01*
X145569659Y-124692307D01*
X145605869Y-124662553D01*
X145640073Y-124629502D01*
X145667363Y-124598880D01*
X145680019Y-124583635D01*
X145680019Y-124591987D01*
X145680712Y-124602188D01*
X145682625Y-124615800D01*
X145685512Y-124631624D01*
X145689127Y-124648462D01*
X145693222Y-124665114D01*
X145697550Y-124680381D01*
X145699405Y-124686173D01*
X145715445Y-124726904D01*
X145735322Y-124764716D01*
X145758978Y-124799558D01*
X145786350Y-124831374D01*
X145817380Y-124860111D01*
X145852006Y-124885717D01*
X145890168Y-124908137D01*
X145931805Y-124927319D01*
X145976857Y-124943209D01*
X145996914Y-124948923D01*
X146032741Y-124957339D01*
X146069615Y-124963721D01*
X146108407Y-124968166D01*
X146149988Y-124970775D01*
X146195228Y-124971646D01*
X146196486Y-124971647D01*
X146231578Y-124971229D01*
X146265663Y-124969929D01*
X146299533Y-124967658D01*
X146333982Y-124964326D01*
X146369803Y-124959845D01*
X146407790Y-124954126D01*
X146448735Y-124947080D01*
X146493433Y-124938618D01*
X146496448Y-124938025D01*
X146581094Y-124919934D01*
X146663037Y-124899615D01*
X146742112Y-124877142D01*
X146818153Y-124852591D01*
X146890995Y-124826036D01*
X146960474Y-124797553D01*
X147026424Y-124767216D01*
X147088680Y-124735101D01*
X147147077Y-124701282D01*
X147201450Y-124665834D01*
X147251633Y-124628833D01*
X147297462Y-124590352D01*
X147329810Y-124559632D01*
X147340875Y-124548214D01*
X147352189Y-124536029D01*
X147362638Y-124524311D01*
X147371104Y-124514294D01*
X147373352Y-124511469D01*
X147380273Y-124502594D01*
X147386408Y-124494754D01*
X147390943Y-124488989D01*
X147392705Y-124486775D01*
X147394587Y-124484749D01*
X147396870Y-124483686D01*
X147400577Y-124483591D01*
X147406727Y-124484470D01*
X147416345Y-124486329D01*
X147419314Y-124486929D01*
X147490473Y-124498886D01*
X147562069Y-124506051D01*
X147634224Y-124508432D01*
X147707057Y-124506035D01*
X147718067Y-124505262D01*
X147775880Y-124500415D01*
X147838159Y-124494221D01*
X147904730Y-124486710D01*
X147975420Y-124477912D01*
X148050056Y-124467858D01*
X148128464Y-124456576D01*
X148210473Y-124444097D01*
X148295908Y-124430450D01*
X148384598Y-124415667D01*
X148476368Y-124399776D01*
X148571045Y-124382808D01*
X148668458Y-124364792D01*
X148768432Y-124345758D01*
X148870795Y-124325737D01*
X148975373Y-124304759D01*
X149081995Y-124282852D01*
X149190485Y-124260048D01*
X149300672Y-124236376D01*
X149405352Y-124213423D01*
X149435862Y-124206666D01*
X149462069Y-124200983D01*
X149484406Y-124196466D01*
X149503307Y-124193208D01*
X149519208Y-124191300D01*
X149532541Y-124190835D01*
X149543740Y-124191905D01*
X149553240Y-124194603D01*
X149561475Y-124199020D01*
X149568879Y-124205249D01*
X149575886Y-124213382D01*
X149582929Y-124223511D01*
X149590443Y-124235729D01*
X149598862Y-124250128D01*
X149601797Y-124255174D01*
X149627352Y-124300278D01*
X149651306Y-124345021D01*
X149673386Y-124388833D01*
X149693323Y-124431142D01*
X149710844Y-124471379D01*
X149725680Y-124508973D01*
X149735187Y-124536018D01*
X149745789Y-124571958D01*
X149753137Y-124605498D01*
X149757251Y-124636481D01*
X149758150Y-124664750D01*
X149755853Y-124690150D01*
X149750378Y-124712523D01*
X149741744Y-124731713D01*
X149729969Y-124747563D01*
X149715074Y-124759917D01*
X149707857Y-124764043D01*
X149700908Y-124767306D01*
X149693331Y-124770302D01*
X149684879Y-124773051D01*
X149675307Y-124775572D01*
X149664372Y-124777884D01*
X149651826Y-124780007D01*
X149637427Y-124781960D01*
X149620927Y-124783761D01*
X149602084Y-124785431D01*
X149580650Y-124786989D01*
X149556383Y-124788454D01*
X149529035Y-124789845D01*
X149498363Y-124791181D01*
X149464121Y-124792483D01*
X149426065Y-124793769D01*
X149383949Y-124795058D01*
X149337529Y-124796370D01*
X149286558Y-124797724D01*
X149277143Y-124797967D01*
X149193433Y-124800256D01*
X149114179Y-124802711D01*
X149038999Y-124805352D01*
X148967513Y-124808202D01*
X148899340Y-124811281D01*
X148834099Y-124814609D01*
X148771411Y-124818209D01*
X148710893Y-124822101D01*
X148652165Y-124826306D01*
X148594847Y-124830846D01*
X148538558Y-124835740D01*
X148482917Y-124841011D01*
X148464343Y-124842866D01*
X148376092Y-124852350D01*
X148290744Y-124862702D01*
X148207787Y-124874038D01*
X148126707Y-124886474D01*
X148046991Y-124900127D01*
X147968125Y-124915112D01*
X147889598Y-124931546D01*
X147810894Y-124949545D01*
X147731502Y-124969225D01*
X147650908Y-124990703D01*
X147568599Y-125014095D01*
X147484062Y-125039516D01*
X147396783Y-125067083D01*
X147306249Y-125096912D01*
X147234257Y-125121406D01*
X147200067Y-125133412D01*
X147167474Y-125145361D01*
X147136018Y-125157474D01*
X147105241Y-125169971D01*
X147074683Y-125183070D01*
X147043886Y-125196991D01*
X147012390Y-125211955D01*
X146979736Y-125228180D01*
X146945466Y-125245887D01*
X146909120Y-125265295D01*
X146870239Y-125286623D01*
X146828365Y-125310092D01*
X146783038Y-125335920D01*
X146768590Y-125344224D01*
X146728393Y-125367353D01*
X146692070Y-125388218D01*
X146659315Y-125406989D01*
X146629820Y-125423834D01*
X146603279Y-125438923D01*
X146579386Y-125452425D01*
X146557832Y-125464510D01*
X146538311Y-125475347D01*
X146520516Y-125485105D01*
X146504140Y-125493953D01*
X146488876Y-125502061D01*
X146474417Y-125509598D01*
X146460457Y-125516734D01*
X146446687Y-125523637D01*
X146432802Y-125530478D01*
X146418494Y-125537425D01*
X146417239Y-125538031D01*
X146370995Y-125559588D01*
X146327371Y-125578276D01*
X146285428Y-125594365D01*
X146244223Y-125608123D01*
X146202818Y-125619819D01*
X146160270Y-125629722D01*
X146115639Y-125638101D01*
X146067985Y-125645226D01*
X146023524Y-125650592D01*
X145995419Y-125653170D01*
X145963913Y-125655200D01*
X145930417Y-125656643D01*
X145896340Y-125657463D01*
X145863094Y-125657622D01*
X145832088Y-125657082D01*
X145811857Y-125656234D01*
X145757311Y-125651679D01*
X145702141Y-125644053D01*
X145647162Y-125633561D01*
X145593189Y-125620409D01*
X145541036Y-125604801D01*
X145491518Y-125586941D01*
X145445451Y-125567036D01*
X145433034Y-125561000D01*
X145377505Y-125530655D01*
X145323181Y-125495709D01*
X145270159Y-125456270D01*
X145218534Y-125412446D01*
X145168402Y-125364345D01*
X145119859Y-125312076D01*
X145073001Y-125255746D01*
X145027924Y-125195465D01*
X144984723Y-125131339D01*
X144943495Y-125063477D01*
X144904335Y-124991987D01*
X144873415Y-124929852D01*
X144860840Y-124902482D01*
X144848757Y-124874118D01*
X144836818Y-124843873D01*
X144824676Y-124810861D01*
X144811984Y-124774197D01*
X144809005Y-124765315D01*
X144803746Y-124749237D01*
X144798189Y-124731690D01*
X144792577Y-124713490D01*
X144787149Y-124695456D01*
X144782149Y-124678405D01*
X144777818Y-124663156D01*
X144774397Y-124650525D01*
X144772129Y-124641330D01*
X144771573Y-124638669D01*
X144770086Y-124630741D01*
X144629779Y-124574122D01*
X144605107Y-124564148D01*
X144581788Y-124554687D01*
X144560205Y-124545897D01*
X144540741Y-124537934D01*
X144523781Y-124530958D01*
X144509707Y-124525125D01*
X144498904Y-124520595D01*
X144491754Y-124517524D01*
X144488641Y-124516070D01*
X144488539Y-124515993D01*
X144490144Y-124514176D01*
X144495082Y-124509406D01*
X144503071Y-124501941D01*
X144513825Y-124492039D01*
X144527061Y-124479960D01*
X144542494Y-124465962D01*
X144559841Y-124450303D01*
X144578816Y-124433243D01*
X144599137Y-124415039D01*
X144616539Y-124399499D01*
X144641236Y-124377467D01*
X144662571Y-124358409D01*
X144680798Y-124342080D01*
X144696170Y-124328239D01*
X144708940Y-124316642D01*
X144719361Y-124307046D01*
X144727686Y-124299209D01*
X144734169Y-124292887D01*
X144739062Y-124287839D01*
X144742619Y-124283820D01*
X144745092Y-124280588D01*
X144746736Y-124277901D01*
X144747802Y-124275515D01*
X144748545Y-124273187D01*
X144748671Y-124272730D01*
X144753066Y-124258639D01*
X144759307Y-124241530D01*
X144766899Y-124222617D01*
X144775342Y-124203114D01*
X144784141Y-124184235D01*
X144788663Y-124175123D01*
X144810913Y-124135208D01*
X144836441Y-124096722D01*
X144865714Y-124059028D01*
X144899199Y-124021488D01*
X144908212Y-124012125D01*
X144946275Y-123975413D01*
X144985552Y-123942167D01*
X145026870Y-123911793D01*
X145071052Y-123883696D01*
X145118924Y-123857283D01*
X145133314Y-123850002D01*
X145179980Y-123828147D01*
X145226618Y-123809060D01*
X145274071Y-123792485D01*
X145323182Y-123778166D01*
X145374792Y-123765846D01*
X145429745Y-123755269D01*
X145461609Y-123750116D01*
X145475211Y-123748114D01*
X145487093Y-123746560D01*
X145498213Y-123745397D01*
X145509528Y-123744566D01*
X145521995Y-123744011D01*
X145536570Y-123743672D01*
X145554211Y-123743493D01*
X145572371Y-123743423D01*
X145597890Y-123743476D01*
X145597890Y-123743476D01*
G37*
X145597890Y-123743476D02*
X145619607Y-123743821D01*
X145638555Y-123744540D01*
X145655765Y-123745719D01*
X145672270Y-123747441D01*
X145689101Y-123749790D01*
X145707292Y-123752850D01*
X145722352Y-123755645D01*
X145762711Y-123764396D01*
X145804606Y-123775414D01*
X145846059Y-123788125D01*
X145885093Y-123801957D01*
X145892895Y-123804990D01*
X145922503Y-123816780D01*
X145951560Y-123828531D01*
X145980332Y-123840368D01*
X146009083Y-123852414D01*
X146038081Y-123864793D01*
X146067591Y-123877628D01*
X146097879Y-123891043D01*
X146129210Y-123905162D01*
X146161851Y-123920109D01*
X146196067Y-123936008D01*
X146232124Y-123952981D01*
X146270288Y-123971153D01*
X146310824Y-123990648D01*
X146353999Y-124011589D01*
X146400078Y-124034100D01*
X146449327Y-124058305D01*
X146502013Y-124084327D01*
X146558399Y-124112290D01*
X146618754Y-124142318D01*
X146634333Y-124150083D01*
X146686341Y-124175963D01*
X146734400Y-124199774D01*
X146778855Y-124221675D01*
X146820050Y-124241825D01*
X146858331Y-124260383D01*
X146894043Y-124277509D01*
X146927531Y-124293361D01*
X146959140Y-124308099D01*
X146989214Y-124321882D01*
X147018099Y-124334869D01*
X147046140Y-124347221D01*
X147073682Y-124359095D01*
X147101069Y-124370651D01*
X147128648Y-124382048D01*
X147156761Y-124393446D01*
X147185756Y-124405004D01*
X147191784Y-124407386D01*
X147209241Y-124414341D01*
X147225202Y-124420833D01*
X147239121Y-124426627D01*
X147250450Y-124431492D01*
X147258645Y-124435195D01*
X147263158Y-124437503D01*
X147263869Y-124438075D01*
X147262563Y-124440832D01*
X147258180Y-124446251D01*
X147251270Y-124453795D01*
X147242385Y-124462924D01*
X147232075Y-124473099D01*
X147220890Y-124483782D01*
X147209380Y-124494433D01*
X147198096Y-124504515D01*
X147187588Y-124513487D01*
X147183204Y-124517062D01*
X147132211Y-124555188D01*
X147076855Y-124591379D01*
X147017225Y-124625598D01*
X146953406Y-124657810D01*
X146885487Y-124687978D01*
X146813555Y-124716066D01*
X146737696Y-124742040D01*
X146657998Y-124765862D01*
X146574549Y-124787496D01*
X146487435Y-124806907D01*
X146473467Y-124809744D01*
X146413669Y-124820927D01*
X146357688Y-124829711D01*
X146305154Y-124836122D01*
X146255698Y-124840187D01*
X146208950Y-124841931D01*
X146164542Y-124841382D01*
X146122103Y-124838567D01*
X146102375Y-124836425D01*
X146057479Y-124829163D01*
X146016093Y-124818835D01*
X145978274Y-124805475D01*
X145944079Y-124789116D01*
X145913565Y-124769792D01*
X145886788Y-124747535D01*
X145863805Y-124722379D01*
X145844673Y-124694357D01*
X145837520Y-124681186D01*
X145828869Y-124662070D01*
X145821870Y-124641992D01*
X145816258Y-124619947D01*
X145811770Y-124594928D01*
X145808778Y-124571810D01*
X145807017Y-124556104D01*
X145759847Y-124551992D01*
X145745104Y-124550714D01*
X145731916Y-124549583D01*
X145721079Y-124548667D01*
X145713388Y-124548033D01*
X145709639Y-124547747D01*
X145709510Y-124547741D01*
X145707469Y-124546313D01*
X145707773Y-124545286D01*
X145706528Y-124544251D01*
X145701914Y-124543987D01*
X145695321Y-124544379D01*
X145688137Y-124545312D01*
X145681751Y-124546672D01*
X145678810Y-124547675D01*
X145675033Y-124548715D01*
X145667280Y-124550402D01*
X145656345Y-124552577D01*
X145643022Y-124555085D01*
X145628107Y-124557768D01*
X145624381Y-124558420D01*
X145568505Y-124567682D01*
X145515420Y-124575481D01*
X145463382Y-124582048D01*
X145410652Y-124587618D01*
X145394571Y-124589116D01*
X145379191Y-124590209D01*
X145360536Y-124591055D01*
X145339533Y-124591653D01*
X145317109Y-124592003D01*
X145294192Y-124592105D01*
X145271706Y-124591958D01*
X145250581Y-124591562D01*
X145231741Y-124590917D01*
X145216114Y-124590022D01*
X145207095Y-124589190D01*
X145157156Y-124582570D01*
X145108568Y-124574418D01*
X145060046Y-124564468D01*
X145010304Y-124552450D01*
X144958055Y-124538096D01*
X144947445Y-124534996D01*
X144931948Y-124530341D01*
X144920529Y-124526674D01*
X144912586Y-124523756D01*
X144907514Y-124521346D01*
X144904714Y-124519204D01*
X144903722Y-124517578D01*
X144903066Y-124514072D01*
X144901989Y-124506328D01*
X144900557Y-124494920D01*
X144898841Y-124480422D01*
X144896906Y-124463409D01*
X144894823Y-124444456D01*
X144892704Y-124424582D01*
X144890241Y-124400806D01*
X144888316Y-124381429D01*
X144886901Y-124366043D01*
X144885968Y-124354244D01*
X144885489Y-124345623D01*
X144885436Y-124339776D01*
X144885783Y-124336294D01*
X144886500Y-124334773D01*
X144886565Y-124334728D01*
X144890819Y-124333159D01*
X144897571Y-124331623D01*
X144899605Y-124331280D01*
X144907317Y-124329889D01*
X144919009Y-124327518D01*
X144933961Y-124324332D01*
X144951451Y-124320495D01*
X144970760Y-124316171D01*
X144991165Y-124311523D01*
X145011946Y-124306716D01*
X145032383Y-124301914D01*
X145051754Y-124297280D01*
X145069339Y-124292979D01*
X145082514Y-124289664D01*
X145152888Y-124270903D01*
X145218710Y-124251815D01*
X145280260Y-124232305D01*
X145337819Y-124212280D01*
X145391666Y-124191646D01*
X145442082Y-124170309D01*
X145450210Y-124166661D01*
X145498672Y-124143036D01*
X145548023Y-124115787D01*
X145597083Y-124085663D01*
X145644673Y-124053417D01*
X145689616Y-124019797D01*
X145719933Y-123994939D01*
X145732045Y-123984405D01*
X145744616Y-123973151D01*
X145757155Y-123961653D01*
X145769170Y-123950384D01*
X145780171Y-123939818D01*
X145789665Y-123930429D01*
X145797161Y-123922691D01*
X145802168Y-123917077D01*
X145804194Y-123914062D01*
X145804151Y-123913738D01*
X145800610Y-123911991D01*
X145793091Y-123909332D01*
X145782321Y-123905973D01*
X145769025Y-123902129D01*
X145753931Y-123898015D01*
X145737765Y-123893845D01*
X145730819Y-123892125D01*
X145682885Y-123882245D01*
X145634747Y-123876066D01*
X145585937Y-123873600D01*
X145535987Y-123874860D01*
X145484427Y-123879857D01*
X145430790Y-123888605D01*
X145374605Y-123901115D01*
X145373269Y-123901449D01*
X145316150Y-123917728D01*
X145261384Y-123937221D01*
X145209173Y-123959771D01*
X145159722Y-123985220D01*
X145113232Y-124013411D01*
X145069907Y-124044186D01*
X145029950Y-124077388D01*
X144993562Y-124112858D01*
X144960948Y-124150440D01*
X144932311Y-124189977D01*
X144907852Y-124231309D01*
X144887775Y-124274281D01*
X144885373Y-124280296D01*
X144877804Y-124299648D01*
X144776354Y-124396202D01*
X144757831Y-124413846D01*
X144740380Y-124430497D01*
X144724311Y-124445857D01*
X144709936Y-124459627D01*
X144697566Y-124471508D01*
X144687512Y-124481202D01*
X144680085Y-124488409D01*
X144675596Y-124492832D01*
X144674324Y-124494174D01*
X144676351Y-124495404D01*
X144682387Y-124498401D01*
X144692016Y-124502971D01*
X144704824Y-124508924D01*
X144720395Y-124516069D01*
X144738314Y-124524213D01*
X144758164Y-124533165D01*
X144779531Y-124542735D01*
X144784640Y-124545013D01*
X144895536Y-124594436D01*
X144907083Y-124635728D01*
X144912641Y-124654900D01*
X144919390Y-124677059D01*
X144926912Y-124700919D01*
X144934791Y-124725195D01*
X144942611Y-124748602D01*
X144949953Y-124769855D01*
X144956122Y-124786919D01*
X144959858Y-124796304D01*
X144962957Y-124802115D01*
X144966150Y-124805417D01*
X144970055Y-124807241D01*
X144975062Y-124808040D01*
X144984196Y-124808683D01*
X144996750Y-124809172D01*
X145012014Y-124809507D01*
X145029280Y-124809690D01*
X145047842Y-124809724D01*
X145066989Y-124809608D01*
X145086014Y-124809345D01*
X145104209Y-124808937D01*
X145120866Y-124808384D01*
X145135276Y-124807689D01*
X145146619Y-124806863D01*
X145258351Y-124794774D01*
X145326838Y-124785603D01*
X145356132Y-124781189D01*
X145381379Y-124776868D01*
X145403360Y-124772428D01*
X145422857Y-124767653D01*
X145440651Y-124762331D01*
X145457523Y-124756246D01*
X145474255Y-124749184D01*
X145491628Y-124740933D01*
X145493752Y-124739873D01*
X145532076Y-124718252D01*
X145569659Y-124692307D01*
X145605869Y-124662553D01*
X145640073Y-124629502D01*
X145667363Y-124598880D01*
X145680019Y-124583635D01*
X145680019Y-124591987D01*
X145680712Y-124602188D01*
X145682625Y-124615800D01*
X145685512Y-124631624D01*
X145689127Y-124648462D01*
X145693222Y-124665114D01*
X145697550Y-124680381D01*
X145699405Y-124686173D01*
X145715445Y-124726904D01*
X145735322Y-124764716D01*
X145758978Y-124799558D01*
X145786350Y-124831374D01*
X145817380Y-124860111D01*
X145852006Y-124885717D01*
X145890168Y-124908137D01*
X145931805Y-124927319D01*
X145976857Y-124943209D01*
X145996914Y-124948923D01*
X146032741Y-124957339D01*
X146069615Y-124963721D01*
X146108407Y-124968166D01*
X146149988Y-124970775D01*
X146195228Y-124971646D01*
X146196486Y-124971647D01*
X146231578Y-124971229D01*
X146265663Y-124969929D01*
X146299533Y-124967658D01*
X146333982Y-124964326D01*
X146369803Y-124959845D01*
X146407790Y-124954126D01*
X146448735Y-124947080D01*
X146493433Y-124938618D01*
X146496448Y-124938025D01*
X146581094Y-124919934D01*
X146663037Y-124899615D01*
X146742112Y-124877142D01*
X146818153Y-124852591D01*
X146890995Y-124826036D01*
X146960474Y-124797553D01*
X147026424Y-124767216D01*
X147088680Y-124735101D01*
X147147077Y-124701282D01*
X147201450Y-124665834D01*
X147251633Y-124628833D01*
X147297462Y-124590352D01*
X147329810Y-124559632D01*
X147340875Y-124548214D01*
X147352189Y-124536029D01*
X147362638Y-124524311D01*
X147371104Y-124514294D01*
X147373352Y-124511469D01*
X147380273Y-124502594D01*
X147386408Y-124494754D01*
X147390943Y-124488989D01*
X147392705Y-124486775D01*
X147394587Y-124484749D01*
X147396870Y-124483686D01*
X147400577Y-124483591D01*
X147406727Y-124484470D01*
X147416345Y-124486329D01*
X147419314Y-124486929D01*
X147490473Y-124498886D01*
X147562069Y-124506051D01*
X147634224Y-124508432D01*
X147707057Y-124506035D01*
X147718067Y-124505262D01*
X147775880Y-124500415D01*
X147838159Y-124494221D01*
X147904730Y-124486710D01*
X147975420Y-124477912D01*
X148050056Y-124467858D01*
X148128464Y-124456576D01*
X148210473Y-124444097D01*
X148295908Y-124430450D01*
X148384598Y-124415667D01*
X148476368Y-124399776D01*
X148571045Y-124382808D01*
X148668458Y-124364792D01*
X148768432Y-124345758D01*
X148870795Y-124325737D01*
X148975373Y-124304759D01*
X149081995Y-124282852D01*
X149190485Y-124260048D01*
X149300672Y-124236376D01*
X149405352Y-124213423D01*
X149435862Y-124206666D01*
X149462069Y-124200983D01*
X149484406Y-124196466D01*
X149503307Y-124193208D01*
X149519208Y-124191300D01*
X149532541Y-124190835D01*
X149543740Y-124191905D01*
X149553240Y-124194603D01*
X149561475Y-124199020D01*
X149568879Y-124205249D01*
X149575886Y-124213382D01*
X149582929Y-124223511D01*
X149590443Y-124235729D01*
X149598862Y-124250128D01*
X149601797Y-124255174D01*
X149627352Y-124300278D01*
X149651306Y-124345021D01*
X149673386Y-124388833D01*
X149693323Y-124431142D01*
X149710844Y-124471379D01*
X149725680Y-124508973D01*
X149735187Y-124536018D01*
X149745789Y-124571958D01*
X149753137Y-124605498D01*
X149757251Y-124636481D01*
X149758150Y-124664750D01*
X149755853Y-124690150D01*
X149750378Y-124712523D01*
X149741744Y-124731713D01*
X149729969Y-124747563D01*
X149715074Y-124759917D01*
X149707857Y-124764043D01*
X149700908Y-124767306D01*
X149693331Y-124770302D01*
X149684879Y-124773051D01*
X149675307Y-124775572D01*
X149664372Y-124777884D01*
X149651826Y-124780007D01*
X149637427Y-124781960D01*
X149620927Y-124783761D01*
X149602084Y-124785431D01*
X149580650Y-124786989D01*
X149556383Y-124788454D01*
X149529035Y-124789845D01*
X149498363Y-124791181D01*
X149464121Y-124792483D01*
X149426065Y-124793769D01*
X149383949Y-124795058D01*
X149337529Y-124796370D01*
X149286558Y-124797724D01*
X149277143Y-124797967D01*
X149193433Y-124800256D01*
X149114179Y-124802711D01*
X149038999Y-124805352D01*
X148967513Y-124808202D01*
X148899340Y-124811281D01*
X148834099Y-124814609D01*
X148771411Y-124818209D01*
X148710893Y-124822101D01*
X148652165Y-124826306D01*
X148594847Y-124830846D01*
X148538558Y-124835740D01*
X148482917Y-124841011D01*
X148464343Y-124842866D01*
X148376092Y-124852350D01*
X148290744Y-124862702D01*
X148207787Y-124874038D01*
X148126707Y-124886474D01*
X148046991Y-124900127D01*
X147968125Y-124915112D01*
X147889598Y-124931546D01*
X147810894Y-124949545D01*
X147731502Y-124969225D01*
X147650908Y-124990703D01*
X147568599Y-125014095D01*
X147484062Y-125039516D01*
X147396783Y-125067083D01*
X147306249Y-125096912D01*
X147234257Y-125121406D01*
X147200067Y-125133412D01*
X147167474Y-125145361D01*
X147136018Y-125157474D01*
X147105241Y-125169971D01*
X147074683Y-125183070D01*
X147043886Y-125196991D01*
X147012390Y-125211955D01*
X146979736Y-125228180D01*
X146945466Y-125245887D01*
X146909120Y-125265295D01*
X146870239Y-125286623D01*
X146828365Y-125310092D01*
X146783038Y-125335920D01*
X146768590Y-125344224D01*
X146728393Y-125367353D01*
X146692070Y-125388218D01*
X146659315Y-125406989D01*
X146629820Y-125423834D01*
X146603279Y-125438923D01*
X146579386Y-125452425D01*
X146557832Y-125464510D01*
X146538311Y-125475347D01*
X146520516Y-125485105D01*
X146504140Y-125493953D01*
X146488876Y-125502061D01*
X146474417Y-125509598D01*
X146460457Y-125516734D01*
X146446687Y-125523637D01*
X146432802Y-125530478D01*
X146418494Y-125537425D01*
X146417239Y-125538031D01*
X146370995Y-125559588D01*
X146327371Y-125578276D01*
X146285428Y-125594365D01*
X146244223Y-125608123D01*
X146202818Y-125619819D01*
X146160270Y-125629722D01*
X146115639Y-125638101D01*
X146067985Y-125645226D01*
X146023524Y-125650592D01*
X145995419Y-125653170D01*
X145963913Y-125655200D01*
X145930417Y-125656643D01*
X145896340Y-125657463D01*
X145863094Y-125657622D01*
X145832088Y-125657082D01*
X145811857Y-125656234D01*
X145757311Y-125651679D01*
X145702141Y-125644053D01*
X145647162Y-125633561D01*
X145593189Y-125620409D01*
X145541036Y-125604801D01*
X145491518Y-125586941D01*
X145445451Y-125567036D01*
X145433034Y-125561000D01*
X145377505Y-125530655D01*
X145323181Y-125495709D01*
X145270159Y-125456270D01*
X145218534Y-125412446D01*
X145168402Y-125364345D01*
X145119859Y-125312076D01*
X145073001Y-125255746D01*
X145027924Y-125195465D01*
X144984723Y-125131339D01*
X144943495Y-125063477D01*
X144904335Y-124991987D01*
X144873415Y-124929852D01*
X144860840Y-124902482D01*
X144848757Y-124874118D01*
X144836818Y-124843873D01*
X144824676Y-124810861D01*
X144811984Y-124774197D01*
X144809005Y-124765315D01*
X144803746Y-124749237D01*
X144798189Y-124731690D01*
X144792577Y-124713490D01*
X144787149Y-124695456D01*
X144782149Y-124678405D01*
X144777818Y-124663156D01*
X144774397Y-124650525D01*
X144772129Y-124641330D01*
X144771573Y-124638669D01*
X144770086Y-124630741D01*
X144629779Y-124574122D01*
X144605107Y-124564148D01*
X144581788Y-124554687D01*
X144560205Y-124545897D01*
X144540741Y-124537934D01*
X144523781Y-124530958D01*
X144509707Y-124525125D01*
X144498904Y-124520595D01*
X144491754Y-124517524D01*
X144488641Y-124516070D01*
X144488539Y-124515993D01*
X144490144Y-124514176D01*
X144495082Y-124509406D01*
X144503071Y-124501941D01*
X144513825Y-124492039D01*
X144527061Y-124479960D01*
X144542494Y-124465962D01*
X144559841Y-124450303D01*
X144578816Y-124433243D01*
X144599137Y-124415039D01*
X144616539Y-124399499D01*
X144641236Y-124377467D01*
X144662571Y-124358409D01*
X144680798Y-124342080D01*
X144696170Y-124328239D01*
X144708940Y-124316642D01*
X144719361Y-124307046D01*
X144727686Y-124299209D01*
X144734169Y-124292887D01*
X144739062Y-124287839D01*
X144742619Y-124283820D01*
X144745092Y-124280588D01*
X144746736Y-124277901D01*
X144747802Y-124275515D01*
X144748545Y-124273187D01*
X144748671Y-124272730D01*
X144753066Y-124258639D01*
X144759307Y-124241530D01*
X144766899Y-124222617D01*
X144775342Y-124203114D01*
X144784141Y-124184235D01*
X144788663Y-124175123D01*
X144810913Y-124135208D01*
X144836441Y-124096722D01*
X144865714Y-124059028D01*
X144899199Y-124021488D01*
X144908212Y-124012125D01*
X144946275Y-123975413D01*
X144985552Y-123942167D01*
X145026870Y-123911793D01*
X145071052Y-123883696D01*
X145118924Y-123857283D01*
X145133314Y-123850002D01*
X145179980Y-123828147D01*
X145226618Y-123809060D01*
X145274071Y-123792485D01*
X145323182Y-123778166D01*
X145374792Y-123765846D01*
X145429745Y-123755269D01*
X145461609Y-123750116D01*
X145475211Y-123748114D01*
X145487093Y-123746560D01*
X145498213Y-123745397D01*
X145509528Y-123744566D01*
X145521995Y-123744011D01*
X145536570Y-123743672D01*
X145554211Y-123743493D01*
X145572371Y-123743423D01*
X145597890Y-123743476D01*
D12*
X161190000Y-100200000D03*
X161190000Y-100600000D03*
X161190000Y-101000000D03*
X161190000Y-101400000D03*
X161190000Y-101800000D03*
X161190000Y-102200000D03*
X161190000Y-102600000D03*
X161190000Y-103000000D03*
X161190000Y-103400000D03*
X161190000Y-103800000D03*
X161190000Y-107800000D03*
X161190000Y-107400000D03*
X161190000Y-107000000D03*
X161190000Y-106600000D03*
X161190000Y-106200000D03*
X161190000Y-105800000D03*
X161190000Y-105400000D03*
X161190000Y-105000000D03*
X161190000Y-104600000D03*
X161190000Y-104200000D03*
X161190000Y-108200000D03*
X161190000Y-108600000D03*
X161190000Y-109000000D03*
X161190000Y-109400000D03*
X161190000Y-109800000D03*
X161190000Y-110200000D03*
X161190000Y-110600000D03*
X161190000Y-111000000D03*
X161190000Y-111400000D03*
X161190000Y-111800000D03*
X161190000Y-115800000D03*
X161190000Y-115400000D03*
X161190000Y-115000000D03*
X161190000Y-114600000D03*
X161190000Y-114200000D03*
X161190000Y-113800000D03*
X161190000Y-113400000D03*
X161190000Y-113000000D03*
X161190000Y-112600000D03*
X161190000Y-112200000D03*
X158110000Y-112200000D03*
X158110000Y-112600000D03*
X158110000Y-113000000D03*
X158110000Y-113400000D03*
X158110000Y-113800000D03*
X158110000Y-114200000D03*
X158110000Y-114600000D03*
X158110000Y-115000000D03*
X158110000Y-115400000D03*
X158110000Y-115800000D03*
X158110000Y-111800000D03*
X158110000Y-111400000D03*
X158110000Y-111000000D03*
X158110000Y-110600000D03*
X158110000Y-110200000D03*
X158110000Y-109800000D03*
X158110000Y-109400000D03*
X158110000Y-109000000D03*
X158110000Y-108600000D03*
X158110000Y-108200000D03*
X158110000Y-104200000D03*
X158110000Y-104600000D03*
X158110000Y-105000000D03*
X158110000Y-105400000D03*
X158110000Y-105800000D03*
X158110000Y-106200000D03*
X158110000Y-106600000D03*
X158110000Y-107000000D03*
X158110000Y-107400000D03*
X158110000Y-107800000D03*
X158110000Y-103800000D03*
X158110000Y-103400000D03*
X158110000Y-103000000D03*
X158110000Y-102600000D03*
X158110000Y-102200000D03*
X158110000Y-101800000D03*
X158110000Y-101400000D03*
X158110000Y-101000000D03*
X158110000Y-100600000D03*
X158110000Y-100200000D03*
D13*
X158461920Y-94250000D03*
X158461920Y-93599760D03*
X158461920Y-92949520D03*
X155800000Y-92949520D03*
X155800000Y-93599760D03*
X155800000Y-94250000D03*
X164300000Y-98250000D03*
X164300000Y-97599760D03*
X164300000Y-96949520D03*
X161638080Y-96949520D03*
X161638080Y-97599760D03*
X161638080Y-98250000D03*
X158611920Y-96700000D03*
X158611920Y-96049760D03*
X158611920Y-95399520D03*
X155950000Y-95399520D03*
X155950000Y-96049760D03*
X155950000Y-96700000D03*
D14*
X143800000Y-111600000D03*
X143800000Y-115600000D03*
D15*
X137300000Y-114300000D03*
X137300000Y-112400000D03*
D16*
X138000000Y-124749300D03*
X138000000Y-123250700D03*
X141000000Y-124749300D03*
X141000000Y-123250700D03*
D17*
X138000000Y-121100000D03*
X138000000Y-118900000D03*
X141000000Y-121200000D03*
X141000000Y-119000000D03*
D18*
X141400000Y-114300000D03*
X141400000Y-113350000D03*
X141400000Y-112400000D03*
X139200000Y-112400000D03*
X139200000Y-114300000D03*
D19*
X141800000Y-107475000D03*
X142900000Y-107475000D03*
X144000000Y-107475000D03*
X145100000Y-107475000D03*
X146200000Y-107475000D03*
X147300000Y-107475000D03*
X148400000Y-107475000D03*
X149500000Y-107475000D03*
X150450000Y-107475000D03*
D20*
X140250000Y-107475000D03*
D21*
X137900000Y-92375000D03*
D22*
X151400000Y-92825000D03*
D23*
X151400000Y-96975000D03*
D20*
X151400000Y-103175000D03*
D24*
X162950000Y-97849974D03*
X162500000Y-95300000D03*
X137900000Y-94200000D03*
X152600000Y-92800000D03*
X138000000Y-117600000D03*
X143700000Y-113600000D03*
X138400000Y-109400000D03*
X144800000Y-104300000D03*
D25*
X163335170Y-106128721D03*
X162579214Y-106491109D03*
X162993938Y-107218712D03*
X162237982Y-107581100D03*
X162237982Y-108419301D03*
X162993938Y-108781689D03*
X162579214Y-109509292D03*
X163335170Y-109871680D03*
D24*
X164264956Y-95352566D03*
X160500000Y-95450000D03*
X157300000Y-95000000D03*
X159100000Y-98150000D03*
X159950000Y-93400000D03*
X154500000Y-92950000D03*
X153600000Y-93750000D03*
X154325068Y-92130246D03*
X160303087Y-96914049D03*
X157300000Y-97100000D03*
X156750000Y-92200000D03*
X154650000Y-94900000D03*
D25*
X156380187Y-105401118D03*
D24*
X160729126Y-94320874D03*
X145300000Y-112100000D03*
X149900000Y-111000000D03*
D25*
X156306694Y-107218712D03*
X157062650Y-107581100D03*
X157062650Y-108419301D03*
X156306694Y-108781689D03*
X156721418Y-109509292D03*
X155965462Y-109871680D03*
D24*
X145100000Y-105800000D03*
X143600000Y-109000000D03*
D25*
X154941767Y-102858749D03*
X155697723Y-103221137D03*
D24*
X160900000Y-117100000D03*
D25*
X158255617Y-116945501D03*
X161045015Y-99054899D03*
X158255617Y-99054899D03*
X158255617Y-99054899D03*
D24*
X149495270Y-110121206D03*
X148692632Y-110972641D03*
X161794374Y-116868470D03*
X161926514Y-117720151D03*
X147000000Y-110700000D03*
X148531177Y-109668852D03*
X162800000Y-118300000D03*
X163738213Y-117600000D03*
D25*
X164626605Y-116049236D03*
X165041329Y-115321633D03*
X164285373Y-114959245D03*
X164700097Y-114231642D03*
X163944142Y-113869254D03*
X164358866Y-113141651D03*
X163602910Y-112779264D03*
X164017634Y-112051661D03*
X163261678Y-111689273D03*
X163676402Y-110961670D03*
X162920446Y-110599282D03*
X162920446Y-105401118D03*
X163676402Y-105038731D03*
X163261678Y-104311128D03*
X164017634Y-103948740D03*
X163602910Y-103221137D03*
X164358866Y-102858749D03*
X163944142Y-102131146D03*
X164700097Y-101768759D03*
X164285373Y-101041156D03*
X165041329Y-100678768D03*
X164626605Y-99951165D03*
X163642567Y-99005000D03*
X163166374Y-99692120D03*
X162511810Y-99165956D03*
X162035617Y-99853076D03*
X157265015Y-99853076D03*
X156788823Y-99165956D03*
X156134258Y-99692120D03*
D24*
X150200000Y-108900000D03*
X145712765Y-111096015D03*
X153300000Y-99000000D03*
D25*
X154674027Y-99951165D03*
X154259303Y-100678768D03*
X155015259Y-101041156D03*
X154600535Y-101768759D03*
X155356491Y-102131146D03*
X155965462Y-106128721D03*
X156721418Y-106491109D03*
X156380187Y-110599282D03*
X155624231Y-110961670D03*
X156038955Y-111689273D03*
X155282999Y-112051661D03*
X155697723Y-112779264D03*
X154941767Y-113141651D03*
X155356491Y-113869254D03*
X154600535Y-114231642D03*
X155015259Y-114959245D03*
X154259303Y-115321633D03*
X154674027Y-116049236D03*
X155658066Y-116995401D03*
X156134258Y-116308281D03*
X156788823Y-116834445D03*
X157265015Y-116147324D03*
D26*
X162950000Y-97849974D02*
X162950000Y-96450000D01*
X162950000Y-96450000D02*
X162850000Y-96350000D01*
X162950000Y-97849974D02*
X163350266Y-98250240D01*
X163350266Y-98250240D02*
X163350506Y-98250000D01*
X163350506Y-98250000D02*
X164300000Y-98250000D01*
X162850000Y-96350000D02*
X162550000Y-96050000D01*
X158461920Y-94250000D02*
X158461920Y-95249520D01*
X158461920Y-95249520D02*
X158611920Y-95399520D01*
X159353696Y-95399520D02*
X159975678Y-96021502D01*
X158611920Y-95399520D02*
X159353696Y-95399520D01*
X160771502Y-96021502D02*
X160528498Y-96021502D01*
X162550000Y-96050000D02*
X160800000Y-96050000D01*
X160800000Y-96050000D02*
X160771502Y-96021502D01*
X160528498Y-96021502D02*
X159914476Y-96021502D01*
X159235978Y-96700000D02*
X158611920Y-96700000D01*
X159975678Y-96021502D02*
X160528498Y-96021502D01*
X159914476Y-96021502D02*
X159235978Y-96700000D01*
X162500000Y-96000000D02*
X162500000Y-95784933D01*
X162550000Y-96050000D02*
X162500000Y-96000000D01*
X162500000Y-95784933D02*
X162500000Y-95300000D01*
X158611920Y-94261920D02*
X158600000Y-94250000D01*
X137900000Y-92375000D02*
X137900000Y-94200000D01*
X151400000Y-92825000D02*
X152575000Y-92825000D01*
X152575000Y-92825000D02*
X152600000Y-92800000D01*
X138000000Y-118900000D02*
X138000000Y-117600000D01*
X143700000Y-113600000D02*
X143700000Y-115500000D01*
X143700000Y-115500000D02*
X143800000Y-115600000D01*
X141400000Y-113350000D02*
X143450000Y-113350000D01*
X143450000Y-113350000D02*
X143700000Y-113600000D01*
X138400000Y-109400000D02*
X140250000Y-107550000D01*
X140250000Y-107550000D02*
X140250000Y-107475000D01*
X137300000Y-112400000D02*
X137300000Y-110500000D01*
X137300000Y-110500000D02*
X138400000Y-109400000D01*
X151400000Y-103175000D02*
X145925000Y-103175000D01*
X145925000Y-103175000D02*
X144800000Y-104300000D01*
X144800000Y-104300000D02*
X145142899Y-104642899D01*
X145142899Y-104642899D02*
X145220299Y-104642899D01*
X145220299Y-104642899D02*
X147300000Y-106722600D01*
X147300000Y-106722600D02*
X147300000Y-107475000D01*
X140250000Y-107475000D02*
X140250000Y-107375000D01*
X140250000Y-107375000D02*
X143325000Y-104300000D01*
X143325000Y-104300000D02*
X143425000Y-104300000D01*
X143425000Y-104300000D02*
X144800000Y-104300000D01*
X161190316Y-106624000D02*
X161540316Y-106624000D01*
X161540316Y-106624000D02*
X162460992Y-105841578D01*
X162460992Y-105841578D02*
X162749830Y-105946114D01*
X162749830Y-105946114D02*
X163335170Y-106128721D01*
X161190316Y-107024000D02*
X161540316Y-107024000D01*
X161540316Y-107024000D02*
X162406505Y-106287883D01*
X162406505Y-106287883D02*
X162579214Y-106491109D01*
X161190316Y-107424000D02*
X161540316Y-107424000D01*
X161540316Y-107424000D02*
X162119760Y-106931569D01*
X162119760Y-106931569D02*
X162408598Y-107036104D01*
X162408598Y-107036104D02*
X162993938Y-107218712D01*
X161190316Y-107824000D02*
X161540316Y-107824000D01*
X161540316Y-107824000D02*
X162065274Y-107377873D01*
X162065274Y-107377873D02*
X162237982Y-107581100D01*
X161190316Y-108176401D02*
X161540316Y-108176401D01*
X161540316Y-108176401D02*
X162065274Y-108622527D01*
X162065274Y-108622527D02*
X162237982Y-108419301D01*
X161190316Y-108576401D02*
X161540316Y-108576401D01*
X161540316Y-108576401D02*
X162119760Y-109068832D01*
X162119760Y-109068832D02*
X162408598Y-108964297D01*
X162408598Y-108964297D02*
X162993938Y-108781689D01*
X161190316Y-108976401D02*
X161540316Y-108976401D01*
X161540316Y-108976401D02*
X162406505Y-109712518D01*
X162406505Y-109712518D02*
X162579214Y-109509292D01*
X161190316Y-109376401D02*
X161540316Y-109376401D01*
X161540316Y-109376401D02*
X162460992Y-110158823D01*
X162460992Y-110158823D02*
X162749830Y-110054287D01*
X162749830Y-110054287D02*
X163335170Y-109871680D01*
X165202970Y-96290580D02*
X164607855Y-95695465D01*
X163412390Y-94500000D02*
X163922057Y-95009667D01*
X164851180Y-96949520D02*
X165202970Y-96597730D01*
X164300000Y-96949520D02*
X164851180Y-96949520D01*
X160500000Y-95450000D02*
X161450000Y-94500000D01*
X163922057Y-95009667D02*
X164264956Y-95352566D01*
X165202970Y-96597730D02*
X165202970Y-96290580D01*
X161450000Y-94500000D02*
X163412390Y-94500000D01*
X164607855Y-95695465D02*
X164264956Y-95352566D01*
X164300000Y-97599760D02*
X164300000Y-96949520D01*
X160500000Y-95450000D02*
X160500000Y-94965067D01*
X160500000Y-94965067D02*
X159134693Y-93599760D01*
X159134693Y-93599760D02*
X158461920Y-93599760D01*
X157300000Y-93996790D02*
X157300000Y-94515067D01*
X157300000Y-94515067D02*
X157300000Y-95000000D01*
X158611920Y-96049760D02*
X157708950Y-96049760D01*
X157708950Y-96049760D02*
X157300000Y-95640810D01*
X157300000Y-95640810D02*
X157300000Y-95000000D01*
X159502970Y-92949520D02*
X158461920Y-92949520D01*
X158265067Y-97800000D02*
X156698210Y-97800000D01*
X155950000Y-97051790D02*
X155950000Y-96700000D01*
X156698210Y-97800000D02*
X155950000Y-97051790D01*
X159100000Y-98150000D02*
X158615067Y-98150000D01*
X158615067Y-98150000D02*
X158265067Y-97800000D01*
X159950000Y-93396550D02*
X159950000Y-93400000D01*
X159502970Y-92949520D02*
X159950000Y-93396550D01*
X156470220Y-96800240D02*
X155919040Y-96800240D01*
X156495045Y-103948740D02*
X156903232Y-104295632D01*
X153942899Y-99202923D02*
X153600000Y-99545822D01*
X153600000Y-99545822D02*
X153600000Y-102950000D01*
X157607600Y-105000000D02*
X158110000Y-105000000D01*
X153600000Y-102950000D02*
X154598740Y-103948740D01*
X153600000Y-93750000D02*
X153942899Y-94092899D01*
X153942899Y-94092899D02*
X153942899Y-99202923D01*
X154598740Y-103948740D02*
X156495045Y-103948740D01*
X156903232Y-104295632D02*
X157607600Y-105000000D01*
X155800000Y-92949520D02*
X154500480Y-92949520D01*
X154500480Y-92949520D02*
X154500000Y-92950000D01*
X155938080Y-92949520D02*
X155937600Y-92950000D01*
X161638080Y-98250000D02*
X160346552Y-98250000D01*
X160346552Y-98250000D02*
X160303087Y-98206535D01*
X160303087Y-98206535D02*
X160303087Y-97700000D01*
X160303087Y-97700000D02*
X160303087Y-97398982D01*
X161638080Y-97599760D02*
X160735110Y-97599760D01*
X160735110Y-97599760D02*
X160634870Y-97700000D01*
X160634870Y-97700000D02*
X160303087Y-97700000D01*
X158110000Y-106200000D02*
X159531067Y-106200000D01*
X154650000Y-93945822D02*
X154650000Y-93846790D01*
X154650000Y-93846790D02*
X154897030Y-93599760D01*
X154897030Y-93599760D02*
X155800000Y-93599760D01*
X154650000Y-94900000D02*
X154650000Y-93945822D01*
X154650000Y-93945822D02*
X153928499Y-93224321D01*
X153928499Y-93224321D02*
X153928499Y-92526815D01*
X153928499Y-92526815D02*
X153982169Y-92473145D01*
X153982169Y-92473145D02*
X154325068Y-92130246D01*
X154394822Y-92200000D02*
X154325068Y-92130246D01*
X156750000Y-92200000D02*
X154394822Y-92200000D01*
X160303087Y-97398982D02*
X160303087Y-96914049D01*
X160239234Y-98270388D02*
X160303087Y-98206535D01*
X156957101Y-96757101D02*
X156957101Y-96153891D01*
X157300000Y-97100000D02*
X156957101Y-96757101D01*
X156957101Y-96153891D02*
X156852970Y-96049760D01*
X156852970Y-96049760D02*
X155950000Y-96049760D01*
X160054811Y-98454811D02*
X160239234Y-98270388D01*
X160054811Y-98454811D02*
X160050000Y-98450000D01*
X160059620Y-104997487D02*
X160054811Y-104992678D01*
X159531067Y-106200000D02*
X160059620Y-105671447D01*
X160054811Y-104992678D02*
X160054811Y-98454811D01*
X160059620Y-105671447D02*
X160059620Y-104997487D01*
X158110316Y-106224000D02*
X157760316Y-106224000D01*
X157760316Y-106224000D02*
X156552895Y-105197892D01*
X156552895Y-105197892D02*
X156380187Y-105401118D01*
X160729126Y-94320874D02*
X160729126Y-92679126D01*
X160729126Y-92679126D02*
X160500000Y-92450000D01*
X156917251Y-93032749D02*
X156917251Y-94173799D01*
X156917251Y-94173799D02*
X156841050Y-94250000D01*
X156841050Y-94250000D02*
X155800000Y-94250000D01*
X160500000Y-92450000D02*
X157500000Y-92450000D01*
X157500000Y-92450000D02*
X156917251Y-93032749D01*
X159450000Y-105800000D02*
X158110000Y-105800000D01*
X159750000Y-105500000D02*
X159450000Y-105800000D01*
X159700000Y-96671314D02*
X159700000Y-99250000D01*
X159750000Y-99300000D02*
X159750000Y-105500000D01*
X159700000Y-99250000D02*
X159750000Y-99300000D01*
X159885657Y-96485657D02*
X159700000Y-96671314D01*
X161638080Y-96949520D02*
X160874588Y-96949520D01*
X160874588Y-96949520D02*
X160874588Y-96639728D01*
X160874588Y-96639728D02*
X160577408Y-96342548D01*
X160577408Y-96342548D02*
X160028766Y-96342548D01*
X160028766Y-96342548D02*
X159885657Y-96485657D01*
X158110000Y-105400000D02*
X159350000Y-105400000D01*
X155146302Y-95399520D02*
X155950000Y-95399520D01*
X159445190Y-99426256D02*
X158452433Y-98433499D01*
X159350000Y-105400000D02*
X159445190Y-105304810D01*
X159445190Y-105304810D02*
X159445190Y-99426256D01*
X158452433Y-98433499D02*
X154733499Y-98433499D01*
X154733499Y-98433499D02*
X154733499Y-95812323D01*
X154733499Y-95812323D02*
X155146302Y-95399520D01*
X156721418Y-109509292D02*
X156327850Y-109509292D01*
X156327850Y-109509292D02*
X155965462Y-109871680D01*
X156306694Y-107793306D02*
X156518900Y-107581100D01*
X156518900Y-107581100D02*
X157062650Y-107581100D01*
X156306694Y-107218712D02*
X156306694Y-107793306D01*
X141400000Y-114300000D02*
X140717600Y-114300000D01*
X140717600Y-114300000D02*
X140300000Y-113882400D01*
X140300000Y-113882400D02*
X140300000Y-112817600D01*
X140300000Y-112817600D02*
X140717600Y-112400000D01*
X140717600Y-112400000D02*
X141400000Y-112400000D01*
X141400000Y-112400000D02*
X143000000Y-112400000D01*
X143000000Y-112400000D02*
X143800000Y-111600000D01*
X145300000Y-112100000D02*
X144800000Y-111600000D01*
X144800000Y-111600000D02*
X143800000Y-111600000D01*
X155965462Y-109871680D02*
X151028320Y-109871680D01*
X151028320Y-109871680D02*
X149900000Y-111000000D01*
X158110316Y-107424000D02*
X157760316Y-107424000D01*
X157760316Y-107424000D02*
X157180872Y-106931569D01*
X157180872Y-106931569D02*
X156892034Y-107036104D01*
X156892034Y-107036104D02*
X156306694Y-107218712D01*
X158110316Y-107824000D02*
X157760316Y-107824000D01*
X157760316Y-107824000D02*
X157235359Y-107377873D01*
X157235359Y-107377873D02*
X157062650Y-107581100D01*
X158110316Y-108176401D02*
X157760316Y-108176401D01*
X157760316Y-108176401D02*
X157235359Y-108622527D01*
X157235359Y-108622527D02*
X157062650Y-108419301D01*
X158110316Y-108576401D02*
X157760316Y-108576401D01*
X157760316Y-108576401D02*
X157180872Y-109068832D01*
X157180872Y-109068832D02*
X156892034Y-108964297D01*
X156892034Y-108964297D02*
X156306694Y-108781689D01*
X158110316Y-108976401D02*
X157760316Y-108976401D01*
X157760316Y-108976401D02*
X156894127Y-109712518D01*
X156894127Y-109712518D02*
X156721418Y-109509292D01*
X158110316Y-109376401D02*
X157760316Y-109376401D01*
X157760316Y-109376401D02*
X156839640Y-110158823D01*
X156839640Y-110158823D02*
X156550802Y-110054287D01*
X156550802Y-110054287D02*
X155965462Y-109871680D01*
X145100000Y-105800000D02*
X145100000Y-107475000D01*
X138300000Y-113827400D02*
X139039082Y-113827400D01*
X139039082Y-113827400D02*
X139958601Y-112907881D01*
X139958601Y-112907881D02*
X139958601Y-112641399D01*
X139958601Y-112641399D02*
X143600000Y-109000000D01*
X137300000Y-114300000D02*
X137827400Y-114300000D01*
X137827400Y-114300000D02*
X138300000Y-113827400D01*
X137300000Y-114300000D02*
X139200000Y-114300000D01*
X139200000Y-124100480D02*
X139848820Y-124749300D01*
X139848820Y-124749300D02*
X141000000Y-124749300D01*
X139200000Y-114300000D02*
X139200000Y-124100480D01*
X139200000Y-124100480D02*
X138551180Y-124749300D01*
X138551180Y-124749300D02*
X138000000Y-124749300D01*
X138000000Y-123250700D02*
X138000000Y-121100000D01*
X141000000Y-121200000D02*
X141000000Y-123250700D01*
X158110316Y-104224000D02*
X157760316Y-104224000D01*
X157760316Y-104224000D02*
X155815945Y-102571606D01*
X155815945Y-102571606D02*
X155527107Y-102676142D01*
X155527107Y-102676142D02*
X154941767Y-102858749D01*
X158110316Y-104624000D02*
X157760316Y-104624000D01*
X157760316Y-104624000D02*
X155870431Y-103017911D01*
X155870431Y-103017911D02*
X155697723Y-103221137D01*
X148966953Y-110401140D02*
X149264133Y-110698320D01*
X148455214Y-110401140D02*
X148966953Y-110401140D01*
X149264133Y-111570935D02*
X155478765Y-117785567D01*
X160214433Y-117785567D02*
X160557101Y-117442899D01*
X155478765Y-117785567D02*
X160214433Y-117785567D01*
X149264133Y-110698320D02*
X149264133Y-111570935D01*
X147978447Y-109924373D02*
X148455214Y-110401140D01*
X146199373Y-109924373D02*
X147978447Y-109924373D01*
X160557101Y-117442899D02*
X160900000Y-117100000D01*
X144000000Y-107725000D02*
X146199373Y-109924373D01*
X144000000Y-107475000D02*
X144000000Y-107725000D01*
X158255617Y-115800200D02*
X158255617Y-116945501D01*
X161045015Y-100200200D02*
X161045015Y-99054899D01*
X158255617Y-100200200D02*
X158255617Y-99054899D01*
X158255617Y-100200200D02*
X158255617Y-99054899D01*
X148692632Y-111457574D02*
X148692632Y-110972641D01*
X155325436Y-118090378D02*
X148692632Y-111457574D01*
X161794374Y-116868470D02*
X161471501Y-117191343D01*
X161471501Y-117374321D02*
X160755444Y-118090378D01*
X160755444Y-118090378D02*
X155325436Y-118090378D01*
X161471501Y-117191343D02*
X161471501Y-117374321D01*
X149495270Y-108820270D02*
X149495270Y-109636273D01*
X148400000Y-107725000D02*
X149495270Y-108820270D01*
X148400000Y-107475000D02*
X148400000Y-107725000D01*
X149495270Y-109636273D02*
X149495270Y-110121206D01*
X161251476Y-118395189D02*
X161583615Y-118063050D01*
X154695189Y-118395189D02*
X161251476Y-118395189D01*
X161583615Y-118063050D02*
X161926514Y-117720151D01*
X147000000Y-110700000D02*
X154695189Y-118395189D01*
X146200000Y-107475000D02*
X146200000Y-107725000D01*
X146200000Y-107725000D02*
X147800953Y-109325953D01*
X147800953Y-109325953D02*
X148188278Y-109325953D01*
X148188278Y-109325953D02*
X148531177Y-109668852D01*
X154125000Y-118700000D02*
X162400000Y-118700000D01*
X162400000Y-118700000D02*
X162457101Y-118642899D01*
X146796502Y-111371502D02*
X154125000Y-118700000D01*
X146328498Y-111074322D02*
X146625678Y-111371502D01*
X142900000Y-107725000D02*
X143478601Y-108303601D01*
X146328498Y-110903498D02*
X146328498Y-111074322D01*
X146625678Y-111371502D02*
X146796502Y-111371502D01*
X142900000Y-107475000D02*
X142900000Y-107725000D01*
X143478601Y-108303601D02*
X143728601Y-108303601D01*
X162457101Y-118642899D02*
X162800000Y-118300000D01*
X143728601Y-108303601D02*
X146328498Y-110903498D01*
X163738213Y-117600000D02*
X163363915Y-117600000D01*
X163363915Y-117600000D02*
X161540316Y-115776401D01*
X161190316Y-115776401D02*
X161540316Y-115776401D01*
X163647342Y-117028499D02*
X164283706Y-116392135D01*
X161540316Y-115376401D02*
X163484339Y-117028499D01*
X161190316Y-115376401D02*
X161540316Y-115376401D01*
X164283706Y-116392135D02*
X164626605Y-116049236D01*
X163484339Y-117028499D02*
X163647342Y-117028499D01*
X161190316Y-114976401D02*
X161540316Y-114976401D01*
X161540316Y-114976401D02*
X163377626Y-116537810D01*
X163377626Y-116537810D02*
X164167151Y-115608776D01*
X164167151Y-115608776D02*
X164455989Y-115504240D01*
X164455989Y-115504240D02*
X165041329Y-115321633D01*
X161190316Y-114576401D02*
X161540316Y-114576401D01*
X161540316Y-114576401D02*
X163323139Y-116091505D01*
X163323139Y-116091505D02*
X164112665Y-115162471D01*
X164112665Y-115162471D02*
X164285373Y-114959245D01*
X161190316Y-114176401D02*
X161540316Y-114176401D01*
X161540316Y-114176401D02*
X163036394Y-115447819D01*
X163036394Y-115447819D02*
X163825920Y-114518785D01*
X163825920Y-114518785D02*
X164114757Y-114414250D01*
X164114757Y-114414250D02*
X164700097Y-114231642D01*
X161190316Y-113776401D02*
X161540316Y-113776401D01*
X161540316Y-113776401D02*
X162981908Y-115001515D01*
X162981908Y-115001515D02*
X163771433Y-114072481D01*
X163771433Y-114072481D02*
X163944142Y-113869254D01*
X161190316Y-113376401D02*
X161540316Y-113376401D01*
X161540316Y-113376401D02*
X162695162Y-114357829D01*
X162695162Y-114357829D02*
X163484688Y-113428795D01*
X163484688Y-113428795D02*
X163773526Y-113324259D01*
X163773526Y-113324259D02*
X164358866Y-113141651D01*
X161190316Y-112976401D02*
X161540316Y-112976401D01*
X161540316Y-112976401D02*
X162640676Y-113911524D01*
X162640676Y-113911524D02*
X163430201Y-112982490D01*
X163430201Y-112982490D02*
X163602910Y-112779264D01*
X161190316Y-110976401D02*
X161540316Y-110976401D01*
X161540316Y-110976401D02*
X163143456Y-112338804D01*
X163143456Y-112338804D02*
X163432294Y-112234268D01*
X163432294Y-112234268D02*
X164017634Y-112051661D01*
X161190316Y-110576401D02*
X161540316Y-110576401D01*
X161540316Y-110576401D02*
X163088969Y-111892499D01*
X163088969Y-111892499D02*
X163261678Y-111689273D01*
X161190316Y-110176401D02*
X161540316Y-110176401D01*
X161540316Y-110176401D02*
X162802224Y-111248813D01*
X162802224Y-111248813D02*
X163091062Y-111144278D01*
X163091062Y-111144278D02*
X163676402Y-110961670D01*
X161190316Y-109776401D02*
X161540316Y-109776401D01*
X161540316Y-109776401D02*
X162747737Y-110802509D01*
X162747737Y-110802509D02*
X162920446Y-110599282D01*
X161190316Y-106224000D02*
X161540316Y-106224000D01*
X161540316Y-106224000D02*
X162747737Y-105197892D01*
X162747737Y-105197892D02*
X162920446Y-105401118D01*
X161190316Y-105824000D02*
X161540316Y-105824000D01*
X161540316Y-105824000D02*
X162802224Y-104751587D01*
X162802224Y-104751587D02*
X163091062Y-104856123D01*
X163091062Y-104856123D02*
X163676402Y-105038731D01*
X161190316Y-105424000D02*
X161540316Y-105424000D01*
X161540316Y-105424000D02*
X163088969Y-104107901D01*
X163088969Y-104107901D02*
X163261678Y-104311128D01*
X161190316Y-105024000D02*
X161540316Y-105024000D01*
X161540316Y-105024000D02*
X163143456Y-103661597D01*
X163143456Y-103661597D02*
X163432294Y-103766132D01*
X163432294Y-103766132D02*
X164017634Y-103948740D01*
X161190316Y-104624000D02*
X161540316Y-104624000D01*
X161540316Y-104624000D02*
X163430201Y-103017911D01*
X163430201Y-103017911D02*
X163602910Y-103221137D01*
X161190316Y-104224000D02*
X161540316Y-104224000D01*
X161540316Y-104224000D02*
X163484688Y-102571606D01*
X163484688Y-102571606D02*
X163773526Y-102676142D01*
X163773526Y-102676142D02*
X164358866Y-102858749D01*
X161190316Y-103824000D02*
X161540316Y-103824000D01*
X161540316Y-103824000D02*
X163771433Y-101927920D01*
X163771433Y-101927920D02*
X163944142Y-102131146D01*
X161190316Y-103424000D02*
X161540316Y-103424000D01*
X161540316Y-103424000D02*
X163825920Y-101481616D01*
X163825920Y-101481616D02*
X164114757Y-101586151D01*
X164114757Y-101586151D02*
X164700097Y-101768759D01*
X161190316Y-103024000D02*
X161540316Y-103024000D01*
X161540316Y-103024000D02*
X164112665Y-100837930D01*
X164112665Y-100837930D02*
X164285373Y-101041156D01*
X161190316Y-102624000D02*
X161540316Y-102624000D01*
X161540316Y-102624000D02*
X164167151Y-100391625D01*
X164167151Y-100391625D02*
X164455989Y-100496161D01*
X164455989Y-100496161D02*
X165041329Y-100678768D01*
X161190316Y-102224000D02*
X161540316Y-102224000D01*
X161540316Y-102224000D02*
X164453897Y-99747939D01*
X164453897Y-99747939D02*
X164626605Y-99951165D01*
X161190316Y-101824000D02*
X161540316Y-101824000D01*
X161540316Y-101824000D02*
X163788332Y-99913558D01*
X163788332Y-99913558D02*
X163731753Y-99611642D01*
X163731753Y-99611642D02*
X163642567Y-99005000D01*
X161190316Y-101424000D02*
X161540316Y-101424000D01*
X161540316Y-101424000D02*
X163339083Y-99895346D01*
X163339083Y-99895346D02*
X163166374Y-99692120D01*
X161190316Y-101024000D02*
X161540316Y-101024000D01*
X161540316Y-101024000D02*
X162657575Y-100074515D01*
X162657575Y-100074515D02*
X162600996Y-99772598D01*
X162600996Y-99772598D02*
X162511810Y-99165956D01*
X161190316Y-100624000D02*
X161540316Y-100624000D01*
X161540316Y-100624000D02*
X162208326Y-100056303D01*
X162208326Y-100056303D02*
X162035617Y-99853076D01*
X158110316Y-100624000D02*
X157760316Y-100624000D01*
X157760316Y-100624000D02*
X157092307Y-100056303D01*
X157092307Y-100056303D02*
X157265015Y-99853076D01*
X158110316Y-101024000D02*
X157760316Y-101024000D01*
X157760316Y-101024000D02*
X156643057Y-100074515D01*
X156643057Y-100074515D02*
X156699637Y-99772598D01*
X156699637Y-99772598D02*
X156788823Y-99165956D01*
X158110316Y-101424000D02*
X157760316Y-101424000D01*
X157760316Y-101424000D02*
X155961549Y-99895346D01*
X155961549Y-99895346D02*
X156134258Y-99692120D01*
X150684933Y-108900000D02*
X150200000Y-108900000D01*
X151031066Y-108900000D02*
X150684933Y-108900000D01*
X152957101Y-106973965D02*
X151031066Y-108900000D01*
X152957101Y-99342899D02*
X152957101Y-106973965D01*
X153300000Y-99000000D02*
X152957101Y-99342899D01*
X146055664Y-112190158D02*
X146055664Y-111438914D01*
X145712765Y-112533057D02*
X146055664Y-112190158D01*
X145712765Y-115872168D02*
X145712765Y-112533057D01*
X141000000Y-119000000D02*
X142584933Y-119000000D01*
X146055664Y-111438914D02*
X145712765Y-111096015D01*
X142584933Y-119000000D02*
X145712765Y-115872168D01*
X158110316Y-101824000D02*
X157760316Y-101824000D01*
X157760316Y-101824000D02*
X155044117Y-99515680D01*
X155044117Y-99515680D02*
X154846736Y-99747939D01*
X154846736Y-99747939D02*
X154674027Y-99951165D01*
X158110316Y-102224000D02*
X157760316Y-102224000D01*
X157760316Y-102224000D02*
X155330862Y-100159366D01*
X155330862Y-100159366D02*
X155133481Y-100391625D01*
X155133481Y-100391625D02*
X154844643Y-100496161D01*
X154844643Y-100496161D02*
X154259303Y-100678768D01*
X158110316Y-102624000D02*
X157760316Y-102624000D01*
X157760316Y-102624000D02*
X155385349Y-100605671D01*
X155385349Y-100605671D02*
X155187968Y-100837930D01*
X155187968Y-100837930D02*
X155015259Y-101041156D01*
X158110316Y-103024000D02*
X157760316Y-103024000D01*
X157760316Y-103024000D02*
X155672094Y-101249357D01*
X155672094Y-101249357D02*
X155474713Y-101481616D01*
X155474713Y-101481616D02*
X155185875Y-101586151D01*
X155185875Y-101586151D02*
X154600535Y-101768759D01*
X158110316Y-103424000D02*
X157760316Y-103424000D01*
X157760316Y-103424000D02*
X155726581Y-101695662D01*
X155726581Y-101695662D02*
X155529200Y-101927920D01*
X155529200Y-101927920D02*
X155356491Y-102131146D01*
X158110316Y-106624000D02*
X157760316Y-106624000D01*
X157760316Y-106624000D02*
X156839640Y-105841578D01*
X156839640Y-105841578D02*
X156550802Y-105946114D01*
X156550802Y-105946114D02*
X155965462Y-106128721D01*
X158110316Y-107024000D02*
X157760316Y-107024000D01*
X157760316Y-107024000D02*
X156894127Y-106287883D01*
X156894127Y-106287883D02*
X156721418Y-106491109D01*
X158110316Y-109776401D02*
X157760316Y-109776401D01*
X157760316Y-109776401D02*
X156552895Y-110802509D01*
X156552895Y-110802509D02*
X156380187Y-110599282D01*
X158110316Y-110176401D02*
X157760316Y-110176401D01*
X157760316Y-110176401D02*
X156498409Y-111248813D01*
X156498409Y-111248813D02*
X156209571Y-111144278D01*
X156209571Y-111144278D02*
X155624231Y-110961670D01*
X158110316Y-110576401D02*
X157760316Y-110576401D01*
X157760316Y-110576401D02*
X156211663Y-111892499D01*
X156211663Y-111892499D02*
X156038955Y-111689273D01*
X158110316Y-110976401D02*
X157760316Y-110976401D01*
X157760316Y-110976401D02*
X156157177Y-112338804D01*
X156157177Y-112338804D02*
X155868339Y-112234268D01*
X155868339Y-112234268D02*
X155282999Y-112051661D01*
X158110316Y-111376401D02*
X157760316Y-111376401D01*
X157760316Y-111376401D02*
X155870431Y-112982490D01*
X155870431Y-112982490D02*
X155697723Y-112779264D01*
X158110316Y-111776401D02*
X157760316Y-111776401D01*
X157760316Y-111776401D02*
X155815945Y-113428795D01*
X155815945Y-113428795D02*
X155527107Y-113324259D01*
X155527107Y-113324259D02*
X154941767Y-113141651D01*
X158110316Y-112176401D02*
X157760316Y-112176401D01*
X157760316Y-112176401D02*
X155529200Y-114072481D01*
X155529200Y-114072481D02*
X155356491Y-113869254D01*
X158110316Y-112576401D02*
X157760316Y-112576401D01*
X157760316Y-112576401D02*
X155474713Y-114518785D01*
X155474713Y-114518785D02*
X155185875Y-114414250D01*
X155185875Y-114414250D02*
X154600535Y-114231642D01*
X158110316Y-112976401D02*
X157760316Y-112976401D01*
X157760316Y-112976401D02*
X155187968Y-115162471D01*
X155187968Y-115162471D02*
X155015259Y-114959245D01*
X158110316Y-113376401D02*
X157760316Y-113376401D01*
X157760316Y-113376401D02*
X155133481Y-115608776D01*
X155133481Y-115608776D02*
X154844643Y-115504240D01*
X154844643Y-115504240D02*
X154259303Y-115321633D01*
X158110316Y-113776401D02*
X157760316Y-113776401D01*
X157760316Y-113776401D02*
X154846736Y-116252462D01*
X154846736Y-116252462D02*
X154674027Y-116049236D01*
X158110316Y-114176401D02*
X157760316Y-114176401D01*
X157760316Y-114176401D02*
X155512300Y-116086842D01*
X155512300Y-116086842D02*
X155568880Y-116388759D01*
X155568880Y-116388759D02*
X155658066Y-116995401D01*
X158110316Y-114576401D02*
X157760316Y-114576401D01*
X157760316Y-114576401D02*
X155961549Y-116105055D01*
X155961549Y-116105055D02*
X156134258Y-116308281D01*
X158110316Y-114976401D02*
X157760316Y-114976401D01*
X157760316Y-114976401D02*
X156643057Y-115925886D01*
X156643057Y-115925886D02*
X156699637Y-116227803D01*
X156699637Y-116227803D02*
X156788823Y-116834445D01*
X158110316Y-115376401D02*
X157760316Y-115376401D01*
X157760316Y-115376401D02*
X157092307Y-115944098D01*
X157092307Y-115944098D02*
X157265015Y-116147324D01*
X150450000Y-107475000D02*
X152025000Y-107475000D01*
X152025000Y-107475000D02*
X152600000Y-106900000D01*
X152600000Y-106900000D02*
X152600000Y-98727400D01*
X152600000Y-98727400D02*
X151400000Y-97527400D01*
X151400000Y-97527400D02*
X151400000Y-96975000D01*
D27*
G36*
X155770092Y-107106451D02*
X155954093Y-107106611D01*
X156166759Y-107319649D01*
X156526048Y-107468839D01*
X156915081Y-107469178D01*
X157087567Y-107397909D01*
X157125000Y-107622510D01*
X157125000Y-107626310D01*
X157126060Y-107628869D01*
X157166737Y-107872929D01*
X157125000Y-107973690D01*
X157125000Y-107991250D01*
X157133750Y-108000000D01*
X157125000Y-108008750D01*
X157125000Y-108026310D01*
X157196945Y-108200000D01*
X157125000Y-108373690D01*
X157125000Y-108391250D01*
X157133750Y-108400000D01*
X157125000Y-108408750D01*
X157125000Y-108426310D01*
X157196945Y-108600000D01*
X157125000Y-108773690D01*
X157125000Y-108791250D01*
X157133750Y-108800000D01*
X157125000Y-108808750D01*
X157125000Y-108826310D01*
X157174556Y-108945949D01*
X157126563Y-109169917D01*
X157125000Y-109173690D01*
X157125000Y-109177210D01*
X157071088Y-109428799D01*
X156756074Y-109696509D01*
X156575557Y-109621552D01*
X156186524Y-109621213D01*
X155826975Y-109769775D01*
X155612706Y-109983671D01*
X155530015Y-107006762D01*
X155770092Y-107106451D01*
X155770092Y-107106451D01*
G37*
X155770092Y-107106451D02*
X155954093Y-107106611D01*
X156166759Y-107319649D01*
X156526048Y-107468839D01*
X156915081Y-107469178D01*
X157087567Y-107397909D01*
X157125000Y-107622510D01*
X157125000Y-107626310D01*
X157126060Y-107628869D01*
X157166737Y-107872929D01*
X157125000Y-107973690D01*
X157125000Y-107991250D01*
X157133750Y-108000000D01*
X157125000Y-108008750D01*
X157125000Y-108026310D01*
X157196945Y-108200000D01*
X157125000Y-108373690D01*
X157125000Y-108391250D01*
X157133750Y-108400000D01*
X157125000Y-108408750D01*
X157125000Y-108426310D01*
X157196945Y-108600000D01*
X157125000Y-108773690D01*
X157125000Y-108791250D01*
X157133750Y-108800000D01*
X157125000Y-108808750D01*
X157125000Y-108826310D01*
X157174556Y-108945949D01*
X157126563Y-109169917D01*
X157125000Y-109173690D01*
X157125000Y-109177210D01*
X157071088Y-109428799D01*
X156756074Y-109696509D01*
X156575557Y-109621552D01*
X156186524Y-109621213D01*
X155826975Y-109769775D01*
X155612706Y-109983671D01*
X155530015Y-107006762D01*
X155770092Y-107106451D01*
M02*
