G04 #@! TF.FileFunction,Copper,L1,Top,Signal*
%FSLAX46Y46*%
G04 Gerber Fmt 4.6, Leading zero omitted, Abs format (unit mm)*
G04 Created by KiCad (PCBNEW 4.0.1-stable) date Tuesday, May 31, 2016 'PMt' 10:55:08 PM*
%MOMM*%
G01*
G04 APERTURE LIST*
%ADD10C,0.100000*%
%ADD11C,0.010000*%
%ADD12R,0.700000X1.200000*%
%ADD13R,1.000000X1.200000*%
%ADD14R,1.300000X1.900000*%
%ADD15R,1.000000X2.800000*%
%ADD16R,1.000000X0.800000*%
%ADD17C,1.000000*%
%ADD18R,0.700000X0.200000*%
%ADD19R,1.501140X0.398780*%
%ADD20R,1.600000X2.000000*%
%ADD21R,0.750000X1.200000*%
%ADD22R,0.797560X0.797560*%
%ADD23R,0.900000X1.200000*%
%ADD24R,1.060000X0.650000*%
%ADD25C,0.685800*%
%ADD26C,0.685801*%
%ADD27C,0.152400*%
%ADD28C,0.254000*%
G04 APERTURE END LIST*
D10*
D11*
G36*
X144837890Y-123693476D02*
X144859607Y-123693821D01*
X144878555Y-123694540D01*
X144895765Y-123695719D01*
X144912270Y-123697441D01*
X144929101Y-123699790D01*
X144947292Y-123702850D01*
X144962352Y-123705645D01*
X145002711Y-123714396D01*
X145044606Y-123725414D01*
X145086059Y-123738125D01*
X145125093Y-123751957D01*
X145132895Y-123754990D01*
X145162503Y-123766780D01*
X145191560Y-123778531D01*
X145220332Y-123790368D01*
X145249083Y-123802414D01*
X145278081Y-123814793D01*
X145307591Y-123827628D01*
X145337879Y-123841043D01*
X145369210Y-123855162D01*
X145401851Y-123870109D01*
X145436067Y-123886008D01*
X145472124Y-123902981D01*
X145510288Y-123921153D01*
X145550824Y-123940648D01*
X145593999Y-123961589D01*
X145640078Y-123984100D01*
X145689327Y-124008305D01*
X145742013Y-124034327D01*
X145798399Y-124062290D01*
X145858754Y-124092318D01*
X145874333Y-124100083D01*
X145926341Y-124125963D01*
X145974400Y-124149774D01*
X146018855Y-124171675D01*
X146060050Y-124191825D01*
X146098331Y-124210383D01*
X146134043Y-124227509D01*
X146167531Y-124243361D01*
X146199140Y-124258099D01*
X146229214Y-124271882D01*
X146258099Y-124284869D01*
X146286140Y-124297221D01*
X146313682Y-124309095D01*
X146341069Y-124320651D01*
X146368648Y-124332048D01*
X146396761Y-124343446D01*
X146425756Y-124355004D01*
X146431784Y-124357386D01*
X146449241Y-124364341D01*
X146465202Y-124370833D01*
X146479121Y-124376627D01*
X146490450Y-124381492D01*
X146498645Y-124385195D01*
X146503158Y-124387503D01*
X146503869Y-124388075D01*
X146502563Y-124390832D01*
X146498180Y-124396251D01*
X146491270Y-124403795D01*
X146482385Y-124412924D01*
X146472075Y-124423099D01*
X146460890Y-124433782D01*
X146449380Y-124444433D01*
X146438096Y-124454515D01*
X146427588Y-124463487D01*
X146423204Y-124467062D01*
X146372211Y-124505188D01*
X146316855Y-124541379D01*
X146257225Y-124575598D01*
X146193406Y-124607810D01*
X146125487Y-124637978D01*
X146053555Y-124666066D01*
X145977696Y-124692040D01*
X145897998Y-124715862D01*
X145814549Y-124737496D01*
X145727435Y-124756907D01*
X145713467Y-124759744D01*
X145653669Y-124770927D01*
X145597688Y-124779711D01*
X145545154Y-124786122D01*
X145495698Y-124790187D01*
X145448950Y-124791931D01*
X145404542Y-124791382D01*
X145362103Y-124788567D01*
X145342375Y-124786425D01*
X145297479Y-124779163D01*
X145256093Y-124768835D01*
X145218274Y-124755475D01*
X145184079Y-124739116D01*
X145153565Y-124719792D01*
X145126788Y-124697535D01*
X145103805Y-124672379D01*
X145084673Y-124644357D01*
X145077520Y-124631186D01*
X145068869Y-124612070D01*
X145061870Y-124591992D01*
X145056258Y-124569947D01*
X145051770Y-124544928D01*
X145048778Y-124521810D01*
X145047017Y-124506104D01*
X144999847Y-124501992D01*
X144985104Y-124500714D01*
X144971916Y-124499583D01*
X144961079Y-124498667D01*
X144953388Y-124498033D01*
X144949639Y-124497747D01*
X144949510Y-124497741D01*
X144947469Y-124496313D01*
X144947773Y-124495286D01*
X144946528Y-124494251D01*
X144941914Y-124493987D01*
X144935321Y-124494379D01*
X144928137Y-124495312D01*
X144921751Y-124496672D01*
X144918810Y-124497675D01*
X144915033Y-124498715D01*
X144907280Y-124500402D01*
X144896345Y-124502577D01*
X144883022Y-124505085D01*
X144868107Y-124507768D01*
X144864381Y-124508420D01*
X144808505Y-124517682D01*
X144755420Y-124525481D01*
X144703382Y-124532048D01*
X144650652Y-124537618D01*
X144634571Y-124539116D01*
X144619191Y-124540209D01*
X144600536Y-124541055D01*
X144579533Y-124541653D01*
X144557109Y-124542003D01*
X144534192Y-124542105D01*
X144511706Y-124541958D01*
X144490581Y-124541562D01*
X144471741Y-124540917D01*
X144456114Y-124540022D01*
X144447095Y-124539190D01*
X144397156Y-124532570D01*
X144348568Y-124524418D01*
X144300046Y-124514468D01*
X144250304Y-124502450D01*
X144198055Y-124488096D01*
X144187445Y-124484996D01*
X144171948Y-124480341D01*
X144160529Y-124476674D01*
X144152586Y-124473756D01*
X144147514Y-124471346D01*
X144144714Y-124469204D01*
X144143722Y-124467578D01*
X144143066Y-124464072D01*
X144141989Y-124456328D01*
X144140557Y-124444920D01*
X144138841Y-124430422D01*
X144136906Y-124413409D01*
X144134823Y-124394456D01*
X144132704Y-124374582D01*
X144130241Y-124350806D01*
X144128316Y-124331429D01*
X144126901Y-124316043D01*
X144125968Y-124304244D01*
X144125489Y-124295623D01*
X144125436Y-124289776D01*
X144125783Y-124286294D01*
X144126500Y-124284773D01*
X144126565Y-124284728D01*
X144130819Y-124283159D01*
X144137571Y-124281623D01*
X144139605Y-124281280D01*
X144147317Y-124279889D01*
X144159009Y-124277518D01*
X144173961Y-124274332D01*
X144191451Y-124270495D01*
X144210760Y-124266171D01*
X144231165Y-124261523D01*
X144251946Y-124256716D01*
X144272383Y-124251914D01*
X144291754Y-124247280D01*
X144309339Y-124242979D01*
X144322514Y-124239664D01*
X144392888Y-124220903D01*
X144458710Y-124201815D01*
X144520260Y-124182305D01*
X144577819Y-124162280D01*
X144631666Y-124141646D01*
X144682082Y-124120309D01*
X144690210Y-124116661D01*
X144738672Y-124093036D01*
X144788023Y-124065787D01*
X144837083Y-124035663D01*
X144884673Y-124003417D01*
X144929616Y-123969797D01*
X144959933Y-123944939D01*
X144972045Y-123934405D01*
X144984616Y-123923151D01*
X144997155Y-123911653D01*
X145009170Y-123900384D01*
X145020171Y-123889818D01*
X145029665Y-123880429D01*
X145037161Y-123872691D01*
X145042168Y-123867077D01*
X145044194Y-123864062D01*
X145044151Y-123863738D01*
X145040610Y-123861991D01*
X145033091Y-123859332D01*
X145022321Y-123855973D01*
X145009025Y-123852129D01*
X144993931Y-123848015D01*
X144977765Y-123843845D01*
X144970819Y-123842125D01*
X144922885Y-123832245D01*
X144874747Y-123826066D01*
X144825937Y-123823600D01*
X144775987Y-123824860D01*
X144724427Y-123829857D01*
X144670790Y-123838605D01*
X144614605Y-123851115D01*
X144613269Y-123851449D01*
X144556150Y-123867728D01*
X144501384Y-123887221D01*
X144449173Y-123909771D01*
X144399722Y-123935220D01*
X144353232Y-123963411D01*
X144309907Y-123994186D01*
X144269950Y-124027388D01*
X144233562Y-124062858D01*
X144200948Y-124100440D01*
X144172311Y-124139977D01*
X144147852Y-124181309D01*
X144127775Y-124224281D01*
X144125373Y-124230296D01*
X144117804Y-124249648D01*
X144016354Y-124346202D01*
X143997831Y-124363846D01*
X143980380Y-124380497D01*
X143964311Y-124395857D01*
X143949936Y-124409627D01*
X143937566Y-124421508D01*
X143927512Y-124431202D01*
X143920085Y-124438409D01*
X143915596Y-124442832D01*
X143914324Y-124444174D01*
X143916351Y-124445404D01*
X143922387Y-124448401D01*
X143932016Y-124452971D01*
X143944824Y-124458924D01*
X143960395Y-124466069D01*
X143978314Y-124474213D01*
X143998164Y-124483165D01*
X144019531Y-124492735D01*
X144024640Y-124495013D01*
X144135536Y-124544436D01*
X144147083Y-124585728D01*
X144152641Y-124604900D01*
X144159390Y-124627059D01*
X144166912Y-124650919D01*
X144174791Y-124675195D01*
X144182611Y-124698602D01*
X144189953Y-124719855D01*
X144196122Y-124736919D01*
X144199858Y-124746304D01*
X144202957Y-124752115D01*
X144206150Y-124755417D01*
X144210055Y-124757241D01*
X144215062Y-124758040D01*
X144224196Y-124758683D01*
X144236750Y-124759172D01*
X144252014Y-124759507D01*
X144269280Y-124759690D01*
X144287842Y-124759724D01*
X144306989Y-124759608D01*
X144326014Y-124759345D01*
X144344209Y-124758937D01*
X144360866Y-124758384D01*
X144375276Y-124757689D01*
X144386619Y-124756863D01*
X144498351Y-124744774D01*
X144566838Y-124735603D01*
X144596132Y-124731189D01*
X144621379Y-124726868D01*
X144643360Y-124722428D01*
X144662857Y-124717653D01*
X144680651Y-124712331D01*
X144697523Y-124706246D01*
X144714255Y-124699184D01*
X144731628Y-124690933D01*
X144733752Y-124689873D01*
X144772076Y-124668252D01*
X144809659Y-124642307D01*
X144845869Y-124612553D01*
X144880073Y-124579502D01*
X144907363Y-124548880D01*
X144920019Y-124533635D01*
X144920019Y-124541987D01*
X144920712Y-124552188D01*
X144922625Y-124565800D01*
X144925512Y-124581624D01*
X144929127Y-124598462D01*
X144933222Y-124615114D01*
X144937550Y-124630381D01*
X144939405Y-124636173D01*
X144955445Y-124676904D01*
X144975322Y-124714716D01*
X144998978Y-124749558D01*
X145026350Y-124781374D01*
X145057380Y-124810111D01*
X145092006Y-124835717D01*
X145130168Y-124858137D01*
X145171805Y-124877319D01*
X145216857Y-124893209D01*
X145236914Y-124898923D01*
X145272741Y-124907339D01*
X145309615Y-124913721D01*
X145348407Y-124918166D01*
X145389988Y-124920775D01*
X145435228Y-124921646D01*
X145436486Y-124921647D01*
X145471578Y-124921229D01*
X145505663Y-124919929D01*
X145539533Y-124917658D01*
X145573982Y-124914326D01*
X145609803Y-124909845D01*
X145647790Y-124904126D01*
X145688735Y-124897080D01*
X145733433Y-124888618D01*
X145736448Y-124888025D01*
X145821094Y-124869934D01*
X145903037Y-124849615D01*
X145982112Y-124827142D01*
X146058153Y-124802591D01*
X146130995Y-124776036D01*
X146200474Y-124747553D01*
X146266424Y-124717216D01*
X146328680Y-124685101D01*
X146387077Y-124651282D01*
X146441450Y-124615834D01*
X146491633Y-124578833D01*
X146537462Y-124540352D01*
X146569810Y-124509632D01*
X146580875Y-124498214D01*
X146592189Y-124486029D01*
X146602638Y-124474311D01*
X146611104Y-124464294D01*
X146613352Y-124461469D01*
X146620273Y-124452594D01*
X146626408Y-124444754D01*
X146630943Y-124438989D01*
X146632705Y-124436775D01*
X146634587Y-124434749D01*
X146636870Y-124433686D01*
X146640577Y-124433591D01*
X146646727Y-124434470D01*
X146656345Y-124436329D01*
X146659314Y-124436929D01*
X146730473Y-124448886D01*
X146802069Y-124456051D01*
X146874224Y-124458432D01*
X146947057Y-124456035D01*
X146958067Y-124455262D01*
X147015880Y-124450415D01*
X147078159Y-124444221D01*
X147144730Y-124436710D01*
X147215420Y-124427912D01*
X147290056Y-124417858D01*
X147368464Y-124406576D01*
X147450473Y-124394097D01*
X147535908Y-124380450D01*
X147624598Y-124365667D01*
X147716368Y-124349776D01*
X147811045Y-124332808D01*
X147908458Y-124314792D01*
X148008432Y-124295758D01*
X148110795Y-124275737D01*
X148215373Y-124254759D01*
X148321995Y-124232852D01*
X148430485Y-124210048D01*
X148540672Y-124186376D01*
X148645352Y-124163423D01*
X148675862Y-124156666D01*
X148702069Y-124150983D01*
X148724406Y-124146466D01*
X148743307Y-124143208D01*
X148759208Y-124141300D01*
X148772541Y-124140835D01*
X148783740Y-124141905D01*
X148793240Y-124144603D01*
X148801475Y-124149020D01*
X148808879Y-124155249D01*
X148815886Y-124163382D01*
X148822929Y-124173511D01*
X148830443Y-124185729D01*
X148838862Y-124200128D01*
X148841797Y-124205174D01*
X148867352Y-124250278D01*
X148891306Y-124295021D01*
X148913386Y-124338833D01*
X148933323Y-124381142D01*
X148950844Y-124421379D01*
X148965680Y-124458973D01*
X148975187Y-124486018D01*
X148985789Y-124521958D01*
X148993137Y-124555498D01*
X148997251Y-124586481D01*
X148998150Y-124614750D01*
X148995853Y-124640150D01*
X148990378Y-124662523D01*
X148981744Y-124681713D01*
X148969969Y-124697563D01*
X148955074Y-124709917D01*
X148947857Y-124714043D01*
X148940908Y-124717306D01*
X148933331Y-124720302D01*
X148924879Y-124723051D01*
X148915307Y-124725572D01*
X148904372Y-124727884D01*
X148891826Y-124730007D01*
X148877427Y-124731960D01*
X148860927Y-124733761D01*
X148842084Y-124735431D01*
X148820650Y-124736989D01*
X148796383Y-124738454D01*
X148769035Y-124739845D01*
X148738363Y-124741181D01*
X148704121Y-124742483D01*
X148666065Y-124743769D01*
X148623949Y-124745058D01*
X148577529Y-124746370D01*
X148526558Y-124747724D01*
X148517143Y-124747967D01*
X148433433Y-124750256D01*
X148354179Y-124752711D01*
X148278999Y-124755352D01*
X148207513Y-124758202D01*
X148139340Y-124761281D01*
X148074099Y-124764609D01*
X148011411Y-124768209D01*
X147950893Y-124772101D01*
X147892165Y-124776306D01*
X147834847Y-124780846D01*
X147778558Y-124785740D01*
X147722917Y-124791011D01*
X147704343Y-124792866D01*
X147616092Y-124802350D01*
X147530744Y-124812702D01*
X147447787Y-124824038D01*
X147366707Y-124836474D01*
X147286991Y-124850127D01*
X147208125Y-124865112D01*
X147129598Y-124881546D01*
X147050894Y-124899545D01*
X146971502Y-124919225D01*
X146890908Y-124940703D01*
X146808599Y-124964095D01*
X146724062Y-124989516D01*
X146636783Y-125017083D01*
X146546249Y-125046912D01*
X146474257Y-125071406D01*
X146440067Y-125083412D01*
X146407474Y-125095361D01*
X146376018Y-125107474D01*
X146345241Y-125119971D01*
X146314683Y-125133070D01*
X146283886Y-125146991D01*
X146252390Y-125161955D01*
X146219736Y-125178180D01*
X146185466Y-125195887D01*
X146149120Y-125215295D01*
X146110239Y-125236623D01*
X146068365Y-125260092D01*
X146023038Y-125285920D01*
X146008590Y-125294224D01*
X145968393Y-125317353D01*
X145932070Y-125338218D01*
X145899315Y-125356989D01*
X145869820Y-125373834D01*
X145843279Y-125388923D01*
X145819386Y-125402425D01*
X145797832Y-125414510D01*
X145778311Y-125425347D01*
X145760516Y-125435105D01*
X145744140Y-125443953D01*
X145728876Y-125452061D01*
X145714417Y-125459598D01*
X145700457Y-125466734D01*
X145686687Y-125473637D01*
X145672802Y-125480478D01*
X145658494Y-125487425D01*
X145657239Y-125488031D01*
X145610995Y-125509588D01*
X145567371Y-125528276D01*
X145525428Y-125544365D01*
X145484223Y-125558123D01*
X145442818Y-125569819D01*
X145400270Y-125579722D01*
X145355639Y-125588101D01*
X145307985Y-125595226D01*
X145263524Y-125600592D01*
X145235419Y-125603170D01*
X145203913Y-125605200D01*
X145170417Y-125606643D01*
X145136340Y-125607463D01*
X145103094Y-125607622D01*
X145072088Y-125607082D01*
X145051857Y-125606234D01*
X144997311Y-125601679D01*
X144942141Y-125594053D01*
X144887162Y-125583561D01*
X144833189Y-125570409D01*
X144781036Y-125554801D01*
X144731518Y-125536941D01*
X144685451Y-125517036D01*
X144673034Y-125511000D01*
X144617505Y-125480655D01*
X144563181Y-125445709D01*
X144510159Y-125406270D01*
X144458534Y-125362446D01*
X144408402Y-125314345D01*
X144359859Y-125262076D01*
X144313001Y-125205746D01*
X144267924Y-125145465D01*
X144224723Y-125081339D01*
X144183495Y-125013477D01*
X144144335Y-124941987D01*
X144113415Y-124879852D01*
X144100840Y-124852482D01*
X144088757Y-124824118D01*
X144076818Y-124793873D01*
X144064676Y-124760861D01*
X144051984Y-124724197D01*
X144049005Y-124715315D01*
X144043746Y-124699237D01*
X144038189Y-124681690D01*
X144032577Y-124663490D01*
X144027149Y-124645456D01*
X144022149Y-124628405D01*
X144017818Y-124613156D01*
X144014397Y-124600525D01*
X144012129Y-124591330D01*
X144011573Y-124588669D01*
X144010086Y-124580741D01*
X143869779Y-124524122D01*
X143845107Y-124514148D01*
X143821788Y-124504687D01*
X143800205Y-124495897D01*
X143780741Y-124487934D01*
X143763781Y-124480958D01*
X143749707Y-124475125D01*
X143738904Y-124470595D01*
X143731754Y-124467524D01*
X143728641Y-124466070D01*
X143728539Y-124465993D01*
X143730144Y-124464176D01*
X143735082Y-124459406D01*
X143743071Y-124451941D01*
X143753825Y-124442039D01*
X143767061Y-124429960D01*
X143782494Y-124415962D01*
X143799841Y-124400303D01*
X143818816Y-124383243D01*
X143839137Y-124365039D01*
X143856539Y-124349499D01*
X143881236Y-124327467D01*
X143902571Y-124308409D01*
X143920798Y-124292080D01*
X143936170Y-124278239D01*
X143948940Y-124266642D01*
X143959361Y-124257046D01*
X143967686Y-124249209D01*
X143974169Y-124242887D01*
X143979062Y-124237839D01*
X143982619Y-124233820D01*
X143985092Y-124230588D01*
X143986736Y-124227901D01*
X143987802Y-124225515D01*
X143988545Y-124223187D01*
X143988671Y-124222730D01*
X143993066Y-124208639D01*
X143999307Y-124191530D01*
X144006899Y-124172617D01*
X144015342Y-124153114D01*
X144024141Y-124134235D01*
X144028663Y-124125123D01*
X144050913Y-124085208D01*
X144076441Y-124046722D01*
X144105714Y-124009028D01*
X144139199Y-123971488D01*
X144148212Y-123962125D01*
X144186275Y-123925413D01*
X144225552Y-123892167D01*
X144266870Y-123861793D01*
X144311052Y-123833696D01*
X144358924Y-123807283D01*
X144373314Y-123800002D01*
X144419980Y-123778147D01*
X144466618Y-123759060D01*
X144514071Y-123742485D01*
X144563182Y-123728166D01*
X144614792Y-123715846D01*
X144669745Y-123705269D01*
X144701609Y-123700116D01*
X144715211Y-123698114D01*
X144727093Y-123696560D01*
X144738213Y-123695397D01*
X144749528Y-123694566D01*
X144761995Y-123694011D01*
X144776570Y-123693672D01*
X144794211Y-123693493D01*
X144812371Y-123693423D01*
X144837890Y-123693476D01*
X144837890Y-123693476D01*
G37*
X144837890Y-123693476D02*
X144859607Y-123693821D01*
X144878555Y-123694540D01*
X144895765Y-123695719D01*
X144912270Y-123697441D01*
X144929101Y-123699790D01*
X144947292Y-123702850D01*
X144962352Y-123705645D01*
X145002711Y-123714396D01*
X145044606Y-123725414D01*
X145086059Y-123738125D01*
X145125093Y-123751957D01*
X145132895Y-123754990D01*
X145162503Y-123766780D01*
X145191560Y-123778531D01*
X145220332Y-123790368D01*
X145249083Y-123802414D01*
X145278081Y-123814793D01*
X145307591Y-123827628D01*
X145337879Y-123841043D01*
X145369210Y-123855162D01*
X145401851Y-123870109D01*
X145436067Y-123886008D01*
X145472124Y-123902981D01*
X145510288Y-123921153D01*
X145550824Y-123940648D01*
X145593999Y-123961589D01*
X145640078Y-123984100D01*
X145689327Y-124008305D01*
X145742013Y-124034327D01*
X145798399Y-124062290D01*
X145858754Y-124092318D01*
X145874333Y-124100083D01*
X145926341Y-124125963D01*
X145974400Y-124149774D01*
X146018855Y-124171675D01*
X146060050Y-124191825D01*
X146098331Y-124210383D01*
X146134043Y-124227509D01*
X146167531Y-124243361D01*
X146199140Y-124258099D01*
X146229214Y-124271882D01*
X146258099Y-124284869D01*
X146286140Y-124297221D01*
X146313682Y-124309095D01*
X146341069Y-124320651D01*
X146368648Y-124332048D01*
X146396761Y-124343446D01*
X146425756Y-124355004D01*
X146431784Y-124357386D01*
X146449241Y-124364341D01*
X146465202Y-124370833D01*
X146479121Y-124376627D01*
X146490450Y-124381492D01*
X146498645Y-124385195D01*
X146503158Y-124387503D01*
X146503869Y-124388075D01*
X146502563Y-124390832D01*
X146498180Y-124396251D01*
X146491270Y-124403795D01*
X146482385Y-124412924D01*
X146472075Y-124423099D01*
X146460890Y-124433782D01*
X146449380Y-124444433D01*
X146438096Y-124454515D01*
X146427588Y-124463487D01*
X146423204Y-124467062D01*
X146372211Y-124505188D01*
X146316855Y-124541379D01*
X146257225Y-124575598D01*
X146193406Y-124607810D01*
X146125487Y-124637978D01*
X146053555Y-124666066D01*
X145977696Y-124692040D01*
X145897998Y-124715862D01*
X145814549Y-124737496D01*
X145727435Y-124756907D01*
X145713467Y-124759744D01*
X145653669Y-124770927D01*
X145597688Y-124779711D01*
X145545154Y-124786122D01*
X145495698Y-124790187D01*
X145448950Y-124791931D01*
X145404542Y-124791382D01*
X145362103Y-124788567D01*
X145342375Y-124786425D01*
X145297479Y-124779163D01*
X145256093Y-124768835D01*
X145218274Y-124755475D01*
X145184079Y-124739116D01*
X145153565Y-124719792D01*
X145126788Y-124697535D01*
X145103805Y-124672379D01*
X145084673Y-124644357D01*
X145077520Y-124631186D01*
X145068869Y-124612070D01*
X145061870Y-124591992D01*
X145056258Y-124569947D01*
X145051770Y-124544928D01*
X145048778Y-124521810D01*
X145047017Y-124506104D01*
X144999847Y-124501992D01*
X144985104Y-124500714D01*
X144971916Y-124499583D01*
X144961079Y-124498667D01*
X144953388Y-124498033D01*
X144949639Y-124497747D01*
X144949510Y-124497741D01*
X144947469Y-124496313D01*
X144947773Y-124495286D01*
X144946528Y-124494251D01*
X144941914Y-124493987D01*
X144935321Y-124494379D01*
X144928137Y-124495312D01*
X144921751Y-124496672D01*
X144918810Y-124497675D01*
X144915033Y-124498715D01*
X144907280Y-124500402D01*
X144896345Y-124502577D01*
X144883022Y-124505085D01*
X144868107Y-124507768D01*
X144864381Y-124508420D01*
X144808505Y-124517682D01*
X144755420Y-124525481D01*
X144703382Y-124532048D01*
X144650652Y-124537618D01*
X144634571Y-124539116D01*
X144619191Y-124540209D01*
X144600536Y-124541055D01*
X144579533Y-124541653D01*
X144557109Y-124542003D01*
X144534192Y-124542105D01*
X144511706Y-124541958D01*
X144490581Y-124541562D01*
X144471741Y-124540917D01*
X144456114Y-124540022D01*
X144447095Y-124539190D01*
X144397156Y-124532570D01*
X144348568Y-124524418D01*
X144300046Y-124514468D01*
X144250304Y-124502450D01*
X144198055Y-124488096D01*
X144187445Y-124484996D01*
X144171948Y-124480341D01*
X144160529Y-124476674D01*
X144152586Y-124473756D01*
X144147514Y-124471346D01*
X144144714Y-124469204D01*
X144143722Y-124467578D01*
X144143066Y-124464072D01*
X144141989Y-124456328D01*
X144140557Y-124444920D01*
X144138841Y-124430422D01*
X144136906Y-124413409D01*
X144134823Y-124394456D01*
X144132704Y-124374582D01*
X144130241Y-124350806D01*
X144128316Y-124331429D01*
X144126901Y-124316043D01*
X144125968Y-124304244D01*
X144125489Y-124295623D01*
X144125436Y-124289776D01*
X144125783Y-124286294D01*
X144126500Y-124284773D01*
X144126565Y-124284728D01*
X144130819Y-124283159D01*
X144137571Y-124281623D01*
X144139605Y-124281280D01*
X144147317Y-124279889D01*
X144159009Y-124277518D01*
X144173961Y-124274332D01*
X144191451Y-124270495D01*
X144210760Y-124266171D01*
X144231165Y-124261523D01*
X144251946Y-124256716D01*
X144272383Y-124251914D01*
X144291754Y-124247280D01*
X144309339Y-124242979D01*
X144322514Y-124239664D01*
X144392888Y-124220903D01*
X144458710Y-124201815D01*
X144520260Y-124182305D01*
X144577819Y-124162280D01*
X144631666Y-124141646D01*
X144682082Y-124120309D01*
X144690210Y-124116661D01*
X144738672Y-124093036D01*
X144788023Y-124065787D01*
X144837083Y-124035663D01*
X144884673Y-124003417D01*
X144929616Y-123969797D01*
X144959933Y-123944939D01*
X144972045Y-123934405D01*
X144984616Y-123923151D01*
X144997155Y-123911653D01*
X145009170Y-123900384D01*
X145020171Y-123889818D01*
X145029665Y-123880429D01*
X145037161Y-123872691D01*
X145042168Y-123867077D01*
X145044194Y-123864062D01*
X145044151Y-123863738D01*
X145040610Y-123861991D01*
X145033091Y-123859332D01*
X145022321Y-123855973D01*
X145009025Y-123852129D01*
X144993931Y-123848015D01*
X144977765Y-123843845D01*
X144970819Y-123842125D01*
X144922885Y-123832245D01*
X144874747Y-123826066D01*
X144825937Y-123823600D01*
X144775987Y-123824860D01*
X144724427Y-123829857D01*
X144670790Y-123838605D01*
X144614605Y-123851115D01*
X144613269Y-123851449D01*
X144556150Y-123867728D01*
X144501384Y-123887221D01*
X144449173Y-123909771D01*
X144399722Y-123935220D01*
X144353232Y-123963411D01*
X144309907Y-123994186D01*
X144269950Y-124027388D01*
X144233562Y-124062858D01*
X144200948Y-124100440D01*
X144172311Y-124139977D01*
X144147852Y-124181309D01*
X144127775Y-124224281D01*
X144125373Y-124230296D01*
X144117804Y-124249648D01*
X144016354Y-124346202D01*
X143997831Y-124363846D01*
X143980380Y-124380497D01*
X143964311Y-124395857D01*
X143949936Y-124409627D01*
X143937566Y-124421508D01*
X143927512Y-124431202D01*
X143920085Y-124438409D01*
X143915596Y-124442832D01*
X143914324Y-124444174D01*
X143916351Y-124445404D01*
X143922387Y-124448401D01*
X143932016Y-124452971D01*
X143944824Y-124458924D01*
X143960395Y-124466069D01*
X143978314Y-124474213D01*
X143998164Y-124483165D01*
X144019531Y-124492735D01*
X144024640Y-124495013D01*
X144135536Y-124544436D01*
X144147083Y-124585728D01*
X144152641Y-124604900D01*
X144159390Y-124627059D01*
X144166912Y-124650919D01*
X144174791Y-124675195D01*
X144182611Y-124698602D01*
X144189953Y-124719855D01*
X144196122Y-124736919D01*
X144199858Y-124746304D01*
X144202957Y-124752115D01*
X144206150Y-124755417D01*
X144210055Y-124757241D01*
X144215062Y-124758040D01*
X144224196Y-124758683D01*
X144236750Y-124759172D01*
X144252014Y-124759507D01*
X144269280Y-124759690D01*
X144287842Y-124759724D01*
X144306989Y-124759608D01*
X144326014Y-124759345D01*
X144344209Y-124758937D01*
X144360866Y-124758384D01*
X144375276Y-124757689D01*
X144386619Y-124756863D01*
X144498351Y-124744774D01*
X144566838Y-124735603D01*
X144596132Y-124731189D01*
X144621379Y-124726868D01*
X144643360Y-124722428D01*
X144662857Y-124717653D01*
X144680651Y-124712331D01*
X144697523Y-124706246D01*
X144714255Y-124699184D01*
X144731628Y-124690933D01*
X144733752Y-124689873D01*
X144772076Y-124668252D01*
X144809659Y-124642307D01*
X144845869Y-124612553D01*
X144880073Y-124579502D01*
X144907363Y-124548880D01*
X144920019Y-124533635D01*
X144920019Y-124541987D01*
X144920712Y-124552188D01*
X144922625Y-124565800D01*
X144925512Y-124581624D01*
X144929127Y-124598462D01*
X144933222Y-124615114D01*
X144937550Y-124630381D01*
X144939405Y-124636173D01*
X144955445Y-124676904D01*
X144975322Y-124714716D01*
X144998978Y-124749558D01*
X145026350Y-124781374D01*
X145057380Y-124810111D01*
X145092006Y-124835717D01*
X145130168Y-124858137D01*
X145171805Y-124877319D01*
X145216857Y-124893209D01*
X145236914Y-124898923D01*
X145272741Y-124907339D01*
X145309615Y-124913721D01*
X145348407Y-124918166D01*
X145389988Y-124920775D01*
X145435228Y-124921646D01*
X145436486Y-124921647D01*
X145471578Y-124921229D01*
X145505663Y-124919929D01*
X145539533Y-124917658D01*
X145573982Y-124914326D01*
X145609803Y-124909845D01*
X145647790Y-124904126D01*
X145688735Y-124897080D01*
X145733433Y-124888618D01*
X145736448Y-124888025D01*
X145821094Y-124869934D01*
X145903037Y-124849615D01*
X145982112Y-124827142D01*
X146058153Y-124802591D01*
X146130995Y-124776036D01*
X146200474Y-124747553D01*
X146266424Y-124717216D01*
X146328680Y-124685101D01*
X146387077Y-124651282D01*
X146441450Y-124615834D01*
X146491633Y-124578833D01*
X146537462Y-124540352D01*
X146569810Y-124509632D01*
X146580875Y-124498214D01*
X146592189Y-124486029D01*
X146602638Y-124474311D01*
X146611104Y-124464294D01*
X146613352Y-124461469D01*
X146620273Y-124452594D01*
X146626408Y-124444754D01*
X146630943Y-124438989D01*
X146632705Y-124436775D01*
X146634587Y-124434749D01*
X146636870Y-124433686D01*
X146640577Y-124433591D01*
X146646727Y-124434470D01*
X146656345Y-124436329D01*
X146659314Y-124436929D01*
X146730473Y-124448886D01*
X146802069Y-124456051D01*
X146874224Y-124458432D01*
X146947057Y-124456035D01*
X146958067Y-124455262D01*
X147015880Y-124450415D01*
X147078159Y-124444221D01*
X147144730Y-124436710D01*
X147215420Y-124427912D01*
X147290056Y-124417858D01*
X147368464Y-124406576D01*
X147450473Y-124394097D01*
X147535908Y-124380450D01*
X147624598Y-124365667D01*
X147716368Y-124349776D01*
X147811045Y-124332808D01*
X147908458Y-124314792D01*
X148008432Y-124295758D01*
X148110795Y-124275737D01*
X148215373Y-124254759D01*
X148321995Y-124232852D01*
X148430485Y-124210048D01*
X148540672Y-124186376D01*
X148645352Y-124163423D01*
X148675862Y-124156666D01*
X148702069Y-124150983D01*
X148724406Y-124146466D01*
X148743307Y-124143208D01*
X148759208Y-124141300D01*
X148772541Y-124140835D01*
X148783740Y-124141905D01*
X148793240Y-124144603D01*
X148801475Y-124149020D01*
X148808879Y-124155249D01*
X148815886Y-124163382D01*
X148822929Y-124173511D01*
X148830443Y-124185729D01*
X148838862Y-124200128D01*
X148841797Y-124205174D01*
X148867352Y-124250278D01*
X148891306Y-124295021D01*
X148913386Y-124338833D01*
X148933323Y-124381142D01*
X148950844Y-124421379D01*
X148965680Y-124458973D01*
X148975187Y-124486018D01*
X148985789Y-124521958D01*
X148993137Y-124555498D01*
X148997251Y-124586481D01*
X148998150Y-124614750D01*
X148995853Y-124640150D01*
X148990378Y-124662523D01*
X148981744Y-124681713D01*
X148969969Y-124697563D01*
X148955074Y-124709917D01*
X148947857Y-124714043D01*
X148940908Y-124717306D01*
X148933331Y-124720302D01*
X148924879Y-124723051D01*
X148915307Y-124725572D01*
X148904372Y-124727884D01*
X148891826Y-124730007D01*
X148877427Y-124731960D01*
X148860927Y-124733761D01*
X148842084Y-124735431D01*
X148820650Y-124736989D01*
X148796383Y-124738454D01*
X148769035Y-124739845D01*
X148738363Y-124741181D01*
X148704121Y-124742483D01*
X148666065Y-124743769D01*
X148623949Y-124745058D01*
X148577529Y-124746370D01*
X148526558Y-124747724D01*
X148517143Y-124747967D01*
X148433433Y-124750256D01*
X148354179Y-124752711D01*
X148278999Y-124755352D01*
X148207513Y-124758202D01*
X148139340Y-124761281D01*
X148074099Y-124764609D01*
X148011411Y-124768209D01*
X147950893Y-124772101D01*
X147892165Y-124776306D01*
X147834847Y-124780846D01*
X147778558Y-124785740D01*
X147722917Y-124791011D01*
X147704343Y-124792866D01*
X147616092Y-124802350D01*
X147530744Y-124812702D01*
X147447787Y-124824038D01*
X147366707Y-124836474D01*
X147286991Y-124850127D01*
X147208125Y-124865112D01*
X147129598Y-124881546D01*
X147050894Y-124899545D01*
X146971502Y-124919225D01*
X146890908Y-124940703D01*
X146808599Y-124964095D01*
X146724062Y-124989516D01*
X146636783Y-125017083D01*
X146546249Y-125046912D01*
X146474257Y-125071406D01*
X146440067Y-125083412D01*
X146407474Y-125095361D01*
X146376018Y-125107474D01*
X146345241Y-125119971D01*
X146314683Y-125133070D01*
X146283886Y-125146991D01*
X146252390Y-125161955D01*
X146219736Y-125178180D01*
X146185466Y-125195887D01*
X146149120Y-125215295D01*
X146110239Y-125236623D01*
X146068365Y-125260092D01*
X146023038Y-125285920D01*
X146008590Y-125294224D01*
X145968393Y-125317353D01*
X145932070Y-125338218D01*
X145899315Y-125356989D01*
X145869820Y-125373834D01*
X145843279Y-125388923D01*
X145819386Y-125402425D01*
X145797832Y-125414510D01*
X145778311Y-125425347D01*
X145760516Y-125435105D01*
X145744140Y-125443953D01*
X145728876Y-125452061D01*
X145714417Y-125459598D01*
X145700457Y-125466734D01*
X145686687Y-125473637D01*
X145672802Y-125480478D01*
X145658494Y-125487425D01*
X145657239Y-125488031D01*
X145610995Y-125509588D01*
X145567371Y-125528276D01*
X145525428Y-125544365D01*
X145484223Y-125558123D01*
X145442818Y-125569819D01*
X145400270Y-125579722D01*
X145355639Y-125588101D01*
X145307985Y-125595226D01*
X145263524Y-125600592D01*
X145235419Y-125603170D01*
X145203913Y-125605200D01*
X145170417Y-125606643D01*
X145136340Y-125607463D01*
X145103094Y-125607622D01*
X145072088Y-125607082D01*
X145051857Y-125606234D01*
X144997311Y-125601679D01*
X144942141Y-125594053D01*
X144887162Y-125583561D01*
X144833189Y-125570409D01*
X144781036Y-125554801D01*
X144731518Y-125536941D01*
X144685451Y-125517036D01*
X144673034Y-125511000D01*
X144617505Y-125480655D01*
X144563181Y-125445709D01*
X144510159Y-125406270D01*
X144458534Y-125362446D01*
X144408402Y-125314345D01*
X144359859Y-125262076D01*
X144313001Y-125205746D01*
X144267924Y-125145465D01*
X144224723Y-125081339D01*
X144183495Y-125013477D01*
X144144335Y-124941987D01*
X144113415Y-124879852D01*
X144100840Y-124852482D01*
X144088757Y-124824118D01*
X144076818Y-124793873D01*
X144064676Y-124760861D01*
X144051984Y-124724197D01*
X144049005Y-124715315D01*
X144043746Y-124699237D01*
X144038189Y-124681690D01*
X144032577Y-124663490D01*
X144027149Y-124645456D01*
X144022149Y-124628405D01*
X144017818Y-124613156D01*
X144014397Y-124600525D01*
X144012129Y-124591330D01*
X144011573Y-124588669D01*
X144010086Y-124580741D01*
X143869779Y-124524122D01*
X143845107Y-124514148D01*
X143821788Y-124504687D01*
X143800205Y-124495897D01*
X143780741Y-124487934D01*
X143763781Y-124480958D01*
X143749707Y-124475125D01*
X143738904Y-124470595D01*
X143731754Y-124467524D01*
X143728641Y-124466070D01*
X143728539Y-124465993D01*
X143730144Y-124464176D01*
X143735082Y-124459406D01*
X143743071Y-124451941D01*
X143753825Y-124442039D01*
X143767061Y-124429960D01*
X143782494Y-124415962D01*
X143799841Y-124400303D01*
X143818816Y-124383243D01*
X143839137Y-124365039D01*
X143856539Y-124349499D01*
X143881236Y-124327467D01*
X143902571Y-124308409D01*
X143920798Y-124292080D01*
X143936170Y-124278239D01*
X143948940Y-124266642D01*
X143959361Y-124257046D01*
X143967686Y-124249209D01*
X143974169Y-124242887D01*
X143979062Y-124237839D01*
X143982619Y-124233820D01*
X143985092Y-124230588D01*
X143986736Y-124227901D01*
X143987802Y-124225515D01*
X143988545Y-124223187D01*
X143988671Y-124222730D01*
X143993066Y-124208639D01*
X143999307Y-124191530D01*
X144006899Y-124172617D01*
X144015342Y-124153114D01*
X144024141Y-124134235D01*
X144028663Y-124125123D01*
X144050913Y-124085208D01*
X144076441Y-124046722D01*
X144105714Y-124009028D01*
X144139199Y-123971488D01*
X144148212Y-123962125D01*
X144186275Y-123925413D01*
X144225552Y-123892167D01*
X144266870Y-123861793D01*
X144311052Y-123833696D01*
X144358924Y-123807283D01*
X144373314Y-123800002D01*
X144419980Y-123778147D01*
X144466618Y-123759060D01*
X144514071Y-123742485D01*
X144563182Y-123728166D01*
X144614792Y-123715846D01*
X144669745Y-123705269D01*
X144701609Y-123700116D01*
X144715211Y-123698114D01*
X144727093Y-123696560D01*
X144738213Y-123695397D01*
X144749528Y-123694566D01*
X144761995Y-123694011D01*
X144776570Y-123693672D01*
X144794211Y-123693493D01*
X144812371Y-123693423D01*
X144837890Y-123693476D01*
G36*
X157211912Y-119689328D02*
X157249087Y-119689340D01*
X157281821Y-119689366D01*
X157310406Y-119689411D01*
X157335137Y-119689481D01*
X157356306Y-119689581D01*
X157374208Y-119689715D01*
X157389136Y-119689889D01*
X157401384Y-119690109D01*
X157411247Y-119690379D01*
X157419017Y-119690705D01*
X157424988Y-119691092D01*
X157429454Y-119691544D01*
X157432709Y-119692067D01*
X157435046Y-119692667D01*
X157436760Y-119693349D01*
X157438032Y-119694048D01*
X157444217Y-119699369D01*
X157448517Y-119705738D01*
X157448618Y-119705984D01*
X157449468Y-119709432D01*
X157451162Y-119717481D01*
X157453633Y-119729785D01*
X157456816Y-119745999D01*
X157460644Y-119765777D01*
X157465052Y-119788772D01*
X157469972Y-119814640D01*
X157475339Y-119843034D01*
X157481087Y-119873609D01*
X157487150Y-119906019D01*
X157493461Y-119939918D01*
X157496888Y-119958396D01*
X157503321Y-119993102D01*
X157509535Y-120026614D01*
X157515466Y-120058574D01*
X157521046Y-120088625D01*
X157526209Y-120116411D01*
X157530889Y-120141572D01*
X157535018Y-120163753D01*
X157538531Y-120182596D01*
X157541362Y-120197743D01*
X157543443Y-120208837D01*
X157544708Y-120215522D01*
X157545013Y-120217096D01*
X157545885Y-120221591D01*
X157546785Y-120225572D01*
X157548016Y-120229199D01*
X157549879Y-120232631D01*
X157552678Y-120236027D01*
X157556715Y-120239546D01*
X157562292Y-120243349D01*
X157569712Y-120247593D01*
X157579277Y-120252440D01*
X157591290Y-120258046D01*
X157606054Y-120264573D01*
X157623871Y-120272180D01*
X157645043Y-120281025D01*
X157669873Y-120291268D01*
X157698663Y-120303068D01*
X157731716Y-120316586D01*
X157741628Y-120320639D01*
X157776076Y-120334740D01*
X157806188Y-120347060D01*
X157832294Y-120357692D01*
X157854727Y-120366727D01*
X157873816Y-120374258D01*
X157889894Y-120380378D01*
X157903292Y-120385177D01*
X157914341Y-120388748D01*
X157923372Y-120391184D01*
X157930717Y-120392576D01*
X157936707Y-120393017D01*
X157941673Y-120392599D01*
X157945947Y-120391413D01*
X157949860Y-120389553D01*
X157953743Y-120387110D01*
X157957927Y-120384176D01*
X157961390Y-120381759D01*
X157965895Y-120378675D01*
X157974234Y-120372960D01*
X157986094Y-120364828D01*
X158001161Y-120354496D01*
X158019123Y-120342176D01*
X158039666Y-120328085D01*
X158062477Y-120312437D01*
X158087244Y-120295447D01*
X158113652Y-120277329D01*
X158141388Y-120258299D01*
X158170140Y-120238571D01*
X158181367Y-120230867D01*
X158214967Y-120207819D01*
X158244678Y-120187457D01*
X158270756Y-120169616D01*
X158293454Y-120154130D01*
X158313028Y-120140833D01*
X158329732Y-120129561D01*
X158343819Y-120120146D01*
X158355546Y-120112424D01*
X158365166Y-120106229D01*
X158372934Y-120101394D01*
X158379104Y-120097754D01*
X158383931Y-120095144D01*
X158387669Y-120093398D01*
X158390573Y-120092350D01*
X158392897Y-120091833D01*
X158394895Y-120091684D01*
X158395110Y-120091683D01*
X158406011Y-120091683D01*
X158592758Y-120278429D01*
X158622582Y-120308256D01*
X158649048Y-120334738D01*
X158672358Y-120358086D01*
X158692712Y-120378513D01*
X158710310Y-120396229D01*
X158725352Y-120411445D01*
X158738040Y-120424372D01*
X158748573Y-120435223D01*
X158757152Y-120444207D01*
X158763977Y-120451537D01*
X158769249Y-120457423D01*
X158773168Y-120462076D01*
X158775935Y-120465708D01*
X158777749Y-120468530D01*
X158778812Y-120470754D01*
X158779323Y-120472589D01*
X158779484Y-120474249D01*
X158779495Y-120475217D01*
X158778249Y-120484021D01*
X158775215Y-120492217D01*
X158774773Y-120492985D01*
X158772686Y-120496153D01*
X158767958Y-120503162D01*
X158760798Y-120513709D01*
X158751414Y-120527491D01*
X158740012Y-120544203D01*
X158726801Y-120563542D01*
X158711987Y-120585204D01*
X158695780Y-120608884D01*
X158678385Y-120634279D01*
X158660012Y-120661086D01*
X158640866Y-120688999D01*
X158638179Y-120692916D01*
X158618759Y-120721219D01*
X158599948Y-120748639D01*
X158581966Y-120774850D01*
X158565037Y-120799529D01*
X158549383Y-120822353D01*
X158535226Y-120842997D01*
X158522787Y-120861137D01*
X158512289Y-120876450D01*
X158503954Y-120888611D01*
X158498005Y-120897297D01*
X158494663Y-120902184D01*
X158494525Y-120902386D01*
X158491271Y-120907029D01*
X158488436Y-120911113D01*
X158486117Y-120914966D01*
X158484410Y-120918916D01*
X158483412Y-120923290D01*
X158483218Y-120928418D01*
X158483927Y-120934628D01*
X158485635Y-120942247D01*
X158488437Y-120951604D01*
X158492431Y-120963027D01*
X158497713Y-120976845D01*
X158504381Y-120993385D01*
X158512529Y-121012975D01*
X158522256Y-121035945D01*
X158533657Y-121062621D01*
X158546830Y-121093333D01*
X158559234Y-121122256D01*
X158571459Y-121150761D01*
X158583181Y-121178056D01*
X158594240Y-121203768D01*
X158604475Y-121227524D01*
X158613723Y-121248952D01*
X158621825Y-121267678D01*
X158628620Y-121283330D01*
X158633945Y-121295536D01*
X158637640Y-121303921D01*
X158639544Y-121308114D01*
X158639671Y-121308370D01*
X158644634Y-121315307D01*
X158651041Y-121321298D01*
X158651084Y-121321329D01*
X158652257Y-121322180D01*
X158653418Y-121322962D01*
X158654835Y-121323728D01*
X158656774Y-121324531D01*
X158659505Y-121325425D01*
X158663294Y-121326463D01*
X158668410Y-121327699D01*
X158675119Y-121329185D01*
X158683691Y-121330974D01*
X158694392Y-121333121D01*
X158707490Y-121335678D01*
X158723253Y-121338699D01*
X158741948Y-121342236D01*
X158763845Y-121346344D01*
X158789209Y-121351075D01*
X158818308Y-121356483D01*
X158851412Y-121362621D01*
X158888786Y-121369543D01*
X158930700Y-121377300D01*
X158954287Y-121381666D01*
X158984902Y-121387339D01*
X159014300Y-121392800D01*
X159042076Y-121397972D01*
X159067820Y-121402779D01*
X159091124Y-121407143D01*
X159111580Y-121410989D01*
X159128782Y-121414240D01*
X159142319Y-121416819D01*
X159151786Y-121418650D01*
X159156773Y-121419656D01*
X159157099Y-121419729D01*
X159165862Y-121422846D01*
X159173200Y-121427326D01*
X159174703Y-121428716D01*
X159180623Y-121435018D01*
X159181262Y-121698246D01*
X159181362Y-121740381D01*
X159181443Y-121777778D01*
X159181500Y-121810730D01*
X159181528Y-121839530D01*
X159181523Y-121864469D01*
X159181481Y-121885841D01*
X159181396Y-121903938D01*
X159181265Y-121919052D01*
X159181083Y-121931475D01*
X159180845Y-121941500D01*
X159180546Y-121949419D01*
X159180183Y-121955525D01*
X159179751Y-121960110D01*
X159179245Y-121963466D01*
X159178660Y-121965886D01*
X159177993Y-121967663D01*
X159177238Y-121969088D01*
X159177056Y-121969389D01*
X159170775Y-121976182D01*
X159163843Y-121980019D01*
X159159972Y-121980937D01*
X159151590Y-121982681D01*
X159139132Y-121985167D01*
X159123035Y-121988312D01*
X159103733Y-121992032D01*
X159081662Y-121996243D01*
X159057258Y-122000861D01*
X159030957Y-122005803D01*
X159003193Y-122010984D01*
X158992010Y-122013062D01*
X158946078Y-122021585D01*
X158904833Y-122029241D01*
X158868017Y-122036081D01*
X158835370Y-122042152D01*
X158806635Y-122047503D01*
X158781553Y-122052184D01*
X158759865Y-122056244D01*
X158741313Y-122059731D01*
X158725637Y-122062695D01*
X158712580Y-122065184D01*
X158701883Y-122067248D01*
X158693287Y-122068935D01*
X158686533Y-122070294D01*
X158681364Y-122071375D01*
X158677520Y-122072226D01*
X158674743Y-122072896D01*
X158672774Y-122073435D01*
X158672077Y-122073649D01*
X158664794Y-122077446D01*
X158658208Y-122083110D01*
X158657927Y-122083437D01*
X158656055Y-122086873D01*
X158652476Y-122094645D01*
X158647329Y-122106416D01*
X158640757Y-122121844D01*
X158632901Y-122140589D01*
X158623901Y-122162313D01*
X158613899Y-122186674D01*
X158603037Y-122213333D01*
X158591454Y-122241951D01*
X158579294Y-122272186D01*
X158573193Y-122287423D01*
X158559259Y-122322282D01*
X158547081Y-122352781D01*
X158536543Y-122379233D01*
X158527533Y-122401948D01*
X158519936Y-122421239D01*
X158513639Y-122437415D01*
X158508527Y-122450787D01*
X158504487Y-122461668D01*
X158501406Y-122470367D01*
X158499168Y-122477196D01*
X158497661Y-122482467D01*
X158496770Y-122486489D01*
X158496381Y-122489575D01*
X158496382Y-122492035D01*
X158496657Y-122494180D01*
X158496961Y-122495703D01*
X158497914Y-122498459D01*
X158499976Y-122502672D01*
X158503294Y-122508563D01*
X158508016Y-122516354D01*
X158514288Y-122526268D01*
X158522257Y-122538525D01*
X158532070Y-122553349D01*
X158543875Y-122570961D01*
X158557818Y-122591583D01*
X158574045Y-122615436D01*
X158592705Y-122642743D01*
X158613943Y-122673726D01*
X158637907Y-122708606D01*
X158638620Y-122709643D01*
X158658339Y-122738371D01*
X158677248Y-122766022D01*
X158695151Y-122792303D01*
X158711851Y-122816922D01*
X158727151Y-122839585D01*
X158740857Y-122860000D01*
X158752771Y-122877874D01*
X158762698Y-122892914D01*
X158770441Y-122904828D01*
X158775804Y-122913324D01*
X158778590Y-122918107D01*
X158778951Y-122918972D01*
X158779189Y-122926912D01*
X158778379Y-122932804D01*
X158776445Y-122935722D01*
X158771277Y-122941774D01*
X158762837Y-122951002D01*
X158751086Y-122963444D01*
X158735985Y-122979142D01*
X158717494Y-122998136D01*
X158695575Y-123020466D01*
X158670189Y-123046172D01*
X158641296Y-123075294D01*
X158608858Y-123107873D01*
X158595143Y-123121619D01*
X158569929Y-123146847D01*
X158545621Y-123171107D01*
X158522468Y-123194157D01*
X158500714Y-123215753D01*
X158480608Y-123235654D01*
X158462395Y-123253615D01*
X158446321Y-123269396D01*
X158432634Y-123282752D01*
X158421579Y-123293442D01*
X158413404Y-123301223D01*
X158408354Y-123305851D01*
X158406803Y-123307089D01*
X158396833Y-123310352D01*
X158386612Y-123309312D01*
X158375289Y-123303848D01*
X158373010Y-123302346D01*
X158369136Y-123299695D01*
X158361436Y-123294419D01*
X158350229Y-123286737D01*
X158335836Y-123276870D01*
X158318578Y-123265037D01*
X158298776Y-123251458D01*
X158276749Y-123236352D01*
X158252818Y-123219940D01*
X158227305Y-123202442D01*
X158200529Y-123184077D01*
X158175940Y-123167211D01*
X158148417Y-123148348D01*
X158121938Y-123130232D01*
X158096816Y-123113074D01*
X158073363Y-123097087D01*
X158051892Y-123082482D01*
X158032716Y-123069473D01*
X158016147Y-123058271D01*
X158002498Y-123049088D01*
X157992082Y-123042136D01*
X157985212Y-123037629D01*
X157982297Y-123035825D01*
X157970483Y-123032294D01*
X157964107Y-123032398D01*
X157959402Y-123033917D01*
X157950635Y-123037726D01*
X157938135Y-123043662D01*
X157922231Y-123051562D01*
X157903253Y-123061264D01*
X157881529Y-123072606D01*
X157864559Y-123081596D01*
X157840834Y-123094199D01*
X157821102Y-123104565D01*
X157804942Y-123112860D01*
X157791927Y-123119252D01*
X157781636Y-123123908D01*
X157773644Y-123126995D01*
X157767526Y-123128680D01*
X157762861Y-123129131D01*
X157759223Y-123128513D01*
X157756189Y-123126994D01*
X157753889Y-123125222D01*
X157752309Y-123122374D01*
X157748885Y-123115011D01*
X157743675Y-123103274D01*
X157736737Y-123087305D01*
X157728133Y-123067245D01*
X157717920Y-123043234D01*
X157706159Y-123015413D01*
X157692908Y-122983924D01*
X157678227Y-122948906D01*
X157662175Y-122910501D01*
X157644812Y-122868850D01*
X157626196Y-122824094D01*
X157606388Y-122776374D01*
X157585446Y-122725830D01*
X157568588Y-122685080D01*
X157546707Y-122632154D01*
X157526672Y-122583674D01*
X157508403Y-122539444D01*
X157491821Y-122499263D01*
X157476845Y-122462932D01*
X157463396Y-122430253D01*
X157451395Y-122401026D01*
X157440763Y-122375052D01*
X157431419Y-122352131D01*
X157423285Y-122332066D01*
X157416280Y-122314657D01*
X157410325Y-122299704D01*
X157405342Y-122287009D01*
X157401249Y-122276373D01*
X157397968Y-122267595D01*
X157395419Y-122260478D01*
X157393522Y-122254823D01*
X157392199Y-122250429D01*
X157391369Y-122247099D01*
X157390953Y-122244632D01*
X157390871Y-122242830D01*
X157391045Y-122241494D01*
X157391199Y-122240950D01*
X157393599Y-122235298D01*
X157397242Y-122230243D01*
X157402912Y-122225085D01*
X157411395Y-122219125D01*
X157423475Y-122211663D01*
X157425257Y-122210602D01*
X157437135Y-122203219D01*
X157450052Y-122194680D01*
X157461491Y-122186656D01*
X157462980Y-122185558D01*
X157472649Y-122178368D01*
X157484572Y-122169506D01*
X157496963Y-122160299D01*
X157504475Y-122154719D01*
X157545725Y-122120988D01*
X157583516Y-122083697D01*
X157617598Y-122043121D01*
X157647724Y-121999533D01*
X157653524Y-121990024D01*
X157676301Y-121947314D01*
X157695628Y-121901638D01*
X157711173Y-121853973D01*
X157722607Y-121805300D01*
X157728232Y-121769155D01*
X157729830Y-121750627D01*
X157730694Y-121728600D01*
X157730850Y-121704549D01*
X157730321Y-121679948D01*
X157729129Y-121656271D01*
X157727300Y-121634991D01*
X157725914Y-121624045D01*
X157715747Y-121571737D01*
X157700996Y-121521214D01*
X157681839Y-121472723D01*
X157658456Y-121426508D01*
X157631024Y-121382817D01*
X157599724Y-121341897D01*
X157564732Y-121303992D01*
X157526229Y-121269350D01*
X157484393Y-121238217D01*
X157439403Y-121210840D01*
X157417977Y-121199712D01*
X157370646Y-121178956D01*
X157322462Y-121162984D01*
X157273044Y-121151707D01*
X157222010Y-121145039D01*
X157170000Y-121142891D01*
X157124843Y-121144365D01*
X157082475Y-121148928D01*
X157041562Y-121156788D01*
X157000769Y-121168152D01*
X156993960Y-121170378D01*
X156944705Y-121189370D01*
X156897852Y-121212596D01*
X156853643Y-121239815D01*
X156812319Y-121270788D01*
X156774122Y-121305275D01*
X156739295Y-121343036D01*
X156708078Y-121383832D01*
X156680714Y-121427422D01*
X156657445Y-121473567D01*
X156638512Y-121522026D01*
X156638074Y-121523329D01*
X156626907Y-121560050D01*
X156618666Y-121595126D01*
X156613102Y-121630130D01*
X156609965Y-121666637D01*
X156609004Y-121706084D01*
X156609990Y-121743824D01*
X156613057Y-121778572D01*
X156618476Y-121812030D01*
X156626521Y-121845900D01*
X156636756Y-121879742D01*
X156655700Y-121929412D01*
X156678995Y-121976635D01*
X156706490Y-122021205D01*
X156738038Y-122062917D01*
X156773490Y-122101564D01*
X156812697Y-122136943D01*
X156835524Y-122154723D01*
X156846681Y-122162991D01*
X156857963Y-122171394D01*
X156867838Y-122178788D01*
X156873247Y-122182869D01*
X156881470Y-122188763D01*
X156892332Y-122196081D01*
X156904134Y-122203693D01*
X156910970Y-122207937D01*
X156924169Y-122216145D01*
X156933686Y-122222542D01*
X156940241Y-122227755D01*
X156944550Y-122232410D01*
X156947333Y-122237134D01*
X156948805Y-122240963D01*
X156949075Y-122242144D01*
X156949131Y-122243689D01*
X156948892Y-122245799D01*
X156948280Y-122248672D01*
X156947214Y-122252506D01*
X156945615Y-122257503D01*
X156943404Y-122263860D01*
X156940501Y-122271776D01*
X156936826Y-122281451D01*
X156932300Y-122293084D01*
X156926844Y-122306874D01*
X156920377Y-122323020D01*
X156912821Y-122341722D01*
X156904096Y-122363177D01*
X156894121Y-122387586D01*
X156882819Y-122415148D01*
X156870108Y-122446061D01*
X156855911Y-122480526D01*
X156840146Y-122518740D01*
X156822735Y-122560903D01*
X156803598Y-122607214D01*
X156782655Y-122657873D01*
X156771400Y-122685093D01*
X156749840Y-122737188D01*
X156729326Y-122786673D01*
X156709918Y-122833400D01*
X156691680Y-122877222D01*
X156674674Y-122917990D01*
X156658960Y-122955558D01*
X156644603Y-122989776D01*
X156631664Y-123020499D01*
X156620205Y-123047577D01*
X156610288Y-123070864D01*
X156601976Y-123090211D01*
X156595331Y-123105471D01*
X156590415Y-123116495D01*
X156587290Y-123123138D01*
X156586094Y-123125222D01*
X156579755Y-123128499D01*
X156573425Y-123129623D01*
X156568868Y-123128370D01*
X156560014Y-123124631D01*
X156546924Y-123118434D01*
X156529655Y-123109809D01*
X156508269Y-123098785D01*
X156482823Y-123085390D01*
X156476253Y-123081898D01*
X156456434Y-123071410D01*
X156437737Y-123061640D01*
X156420684Y-123052852D01*
X156405798Y-123045310D01*
X156393603Y-123039279D01*
X156384622Y-123035022D01*
X156379377Y-123032804D01*
X156378575Y-123032569D01*
X156370146Y-123032265D01*
X156362779Y-123033666D01*
X156359584Y-123035468D01*
X156352560Y-123039915D01*
X156342019Y-123046797D01*
X156328271Y-123055905D01*
X156311630Y-123067028D01*
X156292407Y-123079958D01*
X156270914Y-123094484D01*
X156247463Y-123110396D01*
X156222365Y-123127486D01*
X156195933Y-123145542D01*
X156172155Y-123161834D01*
X156144535Y-123180782D01*
X156117794Y-123199127D01*
X156092265Y-123216639D01*
X156068281Y-123233089D01*
X156046177Y-123248249D01*
X156026285Y-123261890D01*
X156008940Y-123273784D01*
X155994475Y-123283700D01*
X155983223Y-123291411D01*
X155975520Y-123296688D01*
X155972143Y-123298997D01*
X155960080Y-123306348D01*
X155950284Y-123310042D01*
X155941756Y-123310249D01*
X155933499Y-123307140D01*
X155931435Y-123305912D01*
X155928636Y-123303496D01*
X155922539Y-123297759D01*
X155913394Y-123288946D01*
X155901448Y-123277303D01*
X155886951Y-123263076D01*
X155870151Y-123246510D01*
X155851297Y-123227851D01*
X155830638Y-123207345D01*
X155808423Y-123185237D01*
X155784900Y-123161772D01*
X155760318Y-123137196D01*
X155743599Y-123120451D01*
X155709864Y-123086593D01*
X155679690Y-123056208D01*
X155653039Y-123029257D01*
X155629874Y-123005702D01*
X155610155Y-122985503D01*
X155593845Y-122968619D01*
X155580905Y-122955013D01*
X155571297Y-122944645D01*
X155564984Y-122937474D01*
X155561926Y-122933463D01*
X155561620Y-122932804D01*
X155560720Y-122924838D01*
X155561035Y-122918972D01*
X155562592Y-122915961D01*
X155566814Y-122909106D01*
X155573504Y-122898700D01*
X155582468Y-122885035D01*
X155593508Y-122868405D01*
X155606428Y-122849102D01*
X155621032Y-122827418D01*
X155637124Y-122803647D01*
X155654507Y-122778081D01*
X155672986Y-122751013D01*
X155692364Y-122722735D01*
X155701360Y-122709643D01*
X155725411Y-122674639D01*
X155746733Y-122643539D01*
X155765470Y-122616121D01*
X155781771Y-122592165D01*
X155795781Y-122571447D01*
X155807648Y-122553747D01*
X155817518Y-122538844D01*
X155825539Y-122526515D01*
X155831856Y-122516539D01*
X155836616Y-122508694D01*
X155839967Y-122502759D01*
X155842054Y-122498513D01*
X155843025Y-122495733D01*
X155843032Y-122495703D01*
X155843436Y-122493591D01*
X155843648Y-122491390D01*
X155843553Y-122488789D01*
X155843037Y-122485475D01*
X155841987Y-122481139D01*
X155840289Y-122475468D01*
X155837829Y-122468151D01*
X155834492Y-122458877D01*
X155830166Y-122447335D01*
X155824736Y-122433213D01*
X155818087Y-122416201D01*
X155810107Y-122395986D01*
X155800682Y-122372258D01*
X155789696Y-122344705D01*
X155777038Y-122313017D01*
X155766905Y-122287669D01*
X155754860Y-122257618D01*
X155743256Y-122228812D01*
X155732239Y-122201606D01*
X155721957Y-122176358D01*
X155712556Y-122153425D01*
X155704185Y-122133164D01*
X155696989Y-122115931D01*
X155691117Y-122102083D01*
X155686716Y-122091977D01*
X155683932Y-122085970D01*
X155683088Y-122084467D01*
X155676838Y-122078611D01*
X155670097Y-122074588D01*
X155666559Y-122073678D01*
X155658425Y-122071925D01*
X155646048Y-122069397D01*
X155629779Y-122066162D01*
X155609970Y-122062289D01*
X155586973Y-122057844D01*
X155561139Y-122052896D01*
X155532820Y-122047512D01*
X155502367Y-122041761D01*
X155470133Y-122035710D01*
X155436468Y-122029427D01*
X155423435Y-122027004D01*
X155389307Y-122020655D01*
X155356465Y-122014523D01*
X155325261Y-122008675D01*
X155296049Y-122003179D01*
X155269181Y-121998101D01*
X155245011Y-121993509D01*
X155223890Y-121989469D01*
X155206171Y-121986049D01*
X155192208Y-121983316D01*
X155182352Y-121981337D01*
X155176958Y-121980179D01*
X155176157Y-121979970D01*
X155168245Y-121975394D01*
X155162943Y-121969389D01*
X155162168Y-121968002D01*
X155161481Y-121966330D01*
X155160879Y-121964080D01*
X155160355Y-121960959D01*
X155159907Y-121956675D01*
X155159529Y-121950936D01*
X155159216Y-121943449D01*
X155158965Y-121933921D01*
X155158771Y-121922061D01*
X155158628Y-121907577D01*
X155158534Y-121890175D01*
X155158482Y-121869563D01*
X155158470Y-121845449D01*
X155158491Y-121817540D01*
X155158541Y-121785545D01*
X155158617Y-121749170D01*
X155158713Y-121708123D01*
X155158737Y-121698246D01*
X155159376Y-121435018D01*
X155165371Y-121428637D01*
X155166249Y-121427558D01*
X155166863Y-121426630D01*
X155167492Y-121425794D01*
X155168412Y-121424993D01*
X155169901Y-121424170D01*
X155172235Y-121423267D01*
X155175692Y-121422228D01*
X155180550Y-121420993D01*
X155187085Y-121419507D01*
X155195575Y-121417712D01*
X155206297Y-121415550D01*
X155219528Y-121412964D01*
X155235546Y-121409897D01*
X155254627Y-121406290D01*
X155277049Y-121402087D01*
X155303089Y-121397231D01*
X155333025Y-121391663D01*
X155367133Y-121385327D01*
X155405691Y-121378165D01*
X155439033Y-121371969D01*
X155479894Y-121364373D01*
X155516104Y-121357633D01*
X155547952Y-121351678D01*
X155575730Y-121346438D01*
X155599729Y-121341841D01*
X155620240Y-121337816D01*
X155637555Y-121334294D01*
X155651964Y-121331202D01*
X155663759Y-121328470D01*
X155673232Y-121326027D01*
X155680672Y-121323802D01*
X155686372Y-121321724D01*
X155690622Y-121319723D01*
X155693714Y-121317728D01*
X155695938Y-121315667D01*
X155697587Y-121313470D01*
X155698951Y-121311066D01*
X155700321Y-121308384D01*
X155700328Y-121308370D01*
X155701932Y-121304878D01*
X155705354Y-121297134D01*
X155710431Y-121285510D01*
X155717002Y-121270381D01*
X155724907Y-121252119D01*
X155733985Y-121231096D01*
X155744073Y-121207685D01*
X155755012Y-121182259D01*
X155766640Y-121155190D01*
X155778795Y-121126853D01*
X155780765Y-121122256D01*
X155795488Y-121087931D01*
X155808358Y-121057914D01*
X155819474Y-121031878D01*
X155828931Y-121009494D01*
X155836826Y-120990435D01*
X155843256Y-120974371D01*
X155848317Y-120960975D01*
X155852107Y-120949918D01*
X155854721Y-120940873D01*
X155856256Y-120933511D01*
X155856809Y-120927503D01*
X155856477Y-120922522D01*
X155855356Y-120918240D01*
X155853543Y-120914328D01*
X155851134Y-120910457D01*
X155848226Y-120906301D01*
X155845494Y-120902386D01*
X155842369Y-120897811D01*
X155836618Y-120889410D01*
X155828463Y-120877505D01*
X155818122Y-120862415D01*
X155805816Y-120844463D01*
X155791766Y-120823969D01*
X155776191Y-120801255D01*
X155759312Y-120776642D01*
X155741348Y-120750451D01*
X155722521Y-120723003D01*
X155703050Y-120694620D01*
X155700030Y-120690217D01*
X155680707Y-120662039D01*
X155662160Y-120634966D01*
X155644592Y-120609298D01*
X155628206Y-120585329D01*
X155613202Y-120563359D01*
X155599785Y-120543683D01*
X155588157Y-120526599D01*
X155578520Y-120512404D01*
X155571077Y-120501394D01*
X155566030Y-120493867D01*
X155563582Y-120490120D01*
X155563407Y-120489823D01*
X155561443Y-120483596D01*
X155560507Y-120475669D01*
X155560495Y-120474753D01*
X155560576Y-120473141D01*
X155560955Y-120471404D01*
X155561831Y-120469332D01*
X155563405Y-120466714D01*
X155565877Y-120463339D01*
X155569448Y-120458996D01*
X155574318Y-120453476D01*
X155580686Y-120446567D01*
X155588754Y-120438059D01*
X155598723Y-120427740D01*
X155610791Y-120415402D01*
X155625160Y-120400832D01*
X155642031Y-120383820D01*
X155661602Y-120364155D01*
X155684076Y-120341628D01*
X155709652Y-120316027D01*
X155738530Y-120287141D01*
X155747241Y-120278429D01*
X155933988Y-120091683D01*
X155944972Y-120091683D01*
X155946369Y-120091594D01*
X155947491Y-120091417D01*
X155948543Y-120091286D01*
X155949727Y-120091335D01*
X155951247Y-120091700D01*
X155953305Y-120092514D01*
X155956105Y-120093912D01*
X155959851Y-120096028D01*
X155964744Y-120098997D01*
X155970989Y-120102953D01*
X155978789Y-120108030D01*
X155988346Y-120114364D01*
X155999864Y-120122087D01*
X156013546Y-120131336D01*
X156029595Y-120142243D01*
X156048215Y-120154944D01*
X156069608Y-120169574D01*
X156093978Y-120186265D01*
X156121528Y-120205153D01*
X156152460Y-120226373D01*
X156186979Y-120250058D01*
X156225287Y-120276344D01*
X156258033Y-120298809D01*
X156285331Y-120317530D01*
X156308804Y-120333605D01*
X156328772Y-120347235D01*
X156345556Y-120358622D01*
X156359475Y-120367967D01*
X156370851Y-120375472D01*
X156380003Y-120381339D01*
X156387253Y-120385769D01*
X156392919Y-120388963D01*
X156397323Y-120391124D01*
X156400786Y-120392454D01*
X156403627Y-120393152D01*
X156406166Y-120393422D01*
X156408451Y-120393465D01*
X156411406Y-120393229D01*
X156415398Y-120392441D01*
X156420742Y-120390979D01*
X156427755Y-120388723D01*
X156436754Y-120385553D01*
X156448054Y-120381347D01*
X156461972Y-120375985D01*
X156478824Y-120369345D01*
X156498927Y-120361308D01*
X156522596Y-120351752D01*
X156550148Y-120340556D01*
X156581900Y-120327600D01*
X156596141Y-120321777D01*
X156624446Y-120310172D01*
X156651495Y-120299031D01*
X156676912Y-120288511D01*
X156700319Y-120278772D01*
X156721341Y-120269970D01*
X156739601Y-120262266D01*
X156754722Y-120255816D01*
X156766327Y-120250779D01*
X156774041Y-120247313D01*
X156777486Y-120245577D01*
X156777527Y-120245547D01*
X156779785Y-120243863D01*
X156781830Y-120242155D01*
X156783729Y-120240136D01*
X156785547Y-120237517D01*
X156787351Y-120234014D01*
X156789207Y-120229338D01*
X156791181Y-120223203D01*
X156793339Y-120215322D01*
X156795747Y-120205407D01*
X156798471Y-120193173D01*
X156801577Y-120178331D01*
X156805131Y-120160596D01*
X156809200Y-120139680D01*
X156813849Y-120115296D01*
X156819144Y-120087158D01*
X156825152Y-120054977D01*
X156831939Y-120018468D01*
X156839570Y-119977344D01*
X156840771Y-119970869D01*
X156847357Y-119935447D01*
X156853728Y-119901329D01*
X156859819Y-119868850D01*
X156865567Y-119838348D01*
X156870907Y-119810159D01*
X156875774Y-119784620D01*
X156880105Y-119762068D01*
X156883834Y-119742838D01*
X156886898Y-119727269D01*
X156889233Y-119715695D01*
X156890773Y-119708455D01*
X156891400Y-119705984D01*
X156895549Y-119699638D01*
X156901701Y-119694214D01*
X156901968Y-119694048D01*
X156903368Y-119693288D01*
X156905123Y-119692614D01*
X156907526Y-119692020D01*
X156910872Y-119691503D01*
X156915454Y-119691056D01*
X156921565Y-119690675D01*
X156929501Y-119690354D01*
X156939553Y-119690089D01*
X156952017Y-119689873D01*
X156967185Y-119689702D01*
X156985351Y-119689571D01*
X157006810Y-119689474D01*
X157031855Y-119689406D01*
X157060779Y-119689363D01*
X157093876Y-119689338D01*
X157131441Y-119689328D01*
X157170000Y-119689325D01*
X157211912Y-119689328D01*
X157211912Y-119689328D01*
G37*
X157211912Y-119689328D02*
X157249087Y-119689340D01*
X157281821Y-119689366D01*
X157310406Y-119689411D01*
X157335137Y-119689481D01*
X157356306Y-119689581D01*
X157374208Y-119689715D01*
X157389136Y-119689889D01*
X157401384Y-119690109D01*
X157411247Y-119690379D01*
X157419017Y-119690705D01*
X157424988Y-119691092D01*
X157429454Y-119691544D01*
X157432709Y-119692067D01*
X157435046Y-119692667D01*
X157436760Y-119693349D01*
X157438032Y-119694048D01*
X157444217Y-119699369D01*
X157448517Y-119705738D01*
X157448618Y-119705984D01*
X157449468Y-119709432D01*
X157451162Y-119717481D01*
X157453633Y-119729785D01*
X157456816Y-119745999D01*
X157460644Y-119765777D01*
X157465052Y-119788772D01*
X157469972Y-119814640D01*
X157475339Y-119843034D01*
X157481087Y-119873609D01*
X157487150Y-119906019D01*
X157493461Y-119939918D01*
X157496888Y-119958396D01*
X157503321Y-119993102D01*
X157509535Y-120026614D01*
X157515466Y-120058574D01*
X157521046Y-120088625D01*
X157526209Y-120116411D01*
X157530889Y-120141572D01*
X157535018Y-120163753D01*
X157538531Y-120182596D01*
X157541362Y-120197743D01*
X157543443Y-120208837D01*
X157544708Y-120215522D01*
X157545013Y-120217096D01*
X157545885Y-120221591D01*
X157546785Y-120225572D01*
X157548016Y-120229199D01*
X157549879Y-120232631D01*
X157552678Y-120236027D01*
X157556715Y-120239546D01*
X157562292Y-120243349D01*
X157569712Y-120247593D01*
X157579277Y-120252440D01*
X157591290Y-120258046D01*
X157606054Y-120264573D01*
X157623871Y-120272180D01*
X157645043Y-120281025D01*
X157669873Y-120291268D01*
X157698663Y-120303068D01*
X157731716Y-120316586D01*
X157741628Y-120320639D01*
X157776076Y-120334740D01*
X157806188Y-120347060D01*
X157832294Y-120357692D01*
X157854727Y-120366727D01*
X157873816Y-120374258D01*
X157889894Y-120380378D01*
X157903292Y-120385177D01*
X157914341Y-120388748D01*
X157923372Y-120391184D01*
X157930717Y-120392576D01*
X157936707Y-120393017D01*
X157941673Y-120392599D01*
X157945947Y-120391413D01*
X157949860Y-120389553D01*
X157953743Y-120387110D01*
X157957927Y-120384176D01*
X157961390Y-120381759D01*
X157965895Y-120378675D01*
X157974234Y-120372960D01*
X157986094Y-120364828D01*
X158001161Y-120354496D01*
X158019123Y-120342176D01*
X158039666Y-120328085D01*
X158062477Y-120312437D01*
X158087244Y-120295447D01*
X158113652Y-120277329D01*
X158141388Y-120258299D01*
X158170140Y-120238571D01*
X158181367Y-120230867D01*
X158214967Y-120207819D01*
X158244678Y-120187457D01*
X158270756Y-120169616D01*
X158293454Y-120154130D01*
X158313028Y-120140833D01*
X158329732Y-120129561D01*
X158343819Y-120120146D01*
X158355546Y-120112424D01*
X158365166Y-120106229D01*
X158372934Y-120101394D01*
X158379104Y-120097754D01*
X158383931Y-120095144D01*
X158387669Y-120093398D01*
X158390573Y-120092350D01*
X158392897Y-120091833D01*
X158394895Y-120091684D01*
X158395110Y-120091683D01*
X158406011Y-120091683D01*
X158592758Y-120278429D01*
X158622582Y-120308256D01*
X158649048Y-120334738D01*
X158672358Y-120358086D01*
X158692712Y-120378513D01*
X158710310Y-120396229D01*
X158725352Y-120411445D01*
X158738040Y-120424372D01*
X158748573Y-120435223D01*
X158757152Y-120444207D01*
X158763977Y-120451537D01*
X158769249Y-120457423D01*
X158773168Y-120462076D01*
X158775935Y-120465708D01*
X158777749Y-120468530D01*
X158778812Y-120470754D01*
X158779323Y-120472589D01*
X158779484Y-120474249D01*
X158779495Y-120475217D01*
X158778249Y-120484021D01*
X158775215Y-120492217D01*
X158774773Y-120492985D01*
X158772686Y-120496153D01*
X158767958Y-120503162D01*
X158760798Y-120513709D01*
X158751414Y-120527491D01*
X158740012Y-120544203D01*
X158726801Y-120563542D01*
X158711987Y-120585204D01*
X158695780Y-120608884D01*
X158678385Y-120634279D01*
X158660012Y-120661086D01*
X158640866Y-120688999D01*
X158638179Y-120692916D01*
X158618759Y-120721219D01*
X158599948Y-120748639D01*
X158581966Y-120774850D01*
X158565037Y-120799529D01*
X158549383Y-120822353D01*
X158535226Y-120842997D01*
X158522787Y-120861137D01*
X158512289Y-120876450D01*
X158503954Y-120888611D01*
X158498005Y-120897297D01*
X158494663Y-120902184D01*
X158494525Y-120902386D01*
X158491271Y-120907029D01*
X158488436Y-120911113D01*
X158486117Y-120914966D01*
X158484410Y-120918916D01*
X158483412Y-120923290D01*
X158483218Y-120928418D01*
X158483927Y-120934628D01*
X158485635Y-120942247D01*
X158488437Y-120951604D01*
X158492431Y-120963027D01*
X158497713Y-120976845D01*
X158504381Y-120993385D01*
X158512529Y-121012975D01*
X158522256Y-121035945D01*
X158533657Y-121062621D01*
X158546830Y-121093333D01*
X158559234Y-121122256D01*
X158571459Y-121150761D01*
X158583181Y-121178056D01*
X158594240Y-121203768D01*
X158604475Y-121227524D01*
X158613723Y-121248952D01*
X158621825Y-121267678D01*
X158628620Y-121283330D01*
X158633945Y-121295536D01*
X158637640Y-121303921D01*
X158639544Y-121308114D01*
X158639671Y-121308370D01*
X158644634Y-121315307D01*
X158651041Y-121321298D01*
X158651084Y-121321329D01*
X158652257Y-121322180D01*
X158653418Y-121322962D01*
X158654835Y-121323728D01*
X158656774Y-121324531D01*
X158659505Y-121325425D01*
X158663294Y-121326463D01*
X158668410Y-121327699D01*
X158675119Y-121329185D01*
X158683691Y-121330974D01*
X158694392Y-121333121D01*
X158707490Y-121335678D01*
X158723253Y-121338699D01*
X158741948Y-121342236D01*
X158763845Y-121346344D01*
X158789209Y-121351075D01*
X158818308Y-121356483D01*
X158851412Y-121362621D01*
X158888786Y-121369543D01*
X158930700Y-121377300D01*
X158954287Y-121381666D01*
X158984902Y-121387339D01*
X159014300Y-121392800D01*
X159042076Y-121397972D01*
X159067820Y-121402779D01*
X159091124Y-121407143D01*
X159111580Y-121410989D01*
X159128782Y-121414240D01*
X159142319Y-121416819D01*
X159151786Y-121418650D01*
X159156773Y-121419656D01*
X159157099Y-121419729D01*
X159165862Y-121422846D01*
X159173200Y-121427326D01*
X159174703Y-121428716D01*
X159180623Y-121435018D01*
X159181262Y-121698246D01*
X159181362Y-121740381D01*
X159181443Y-121777778D01*
X159181500Y-121810730D01*
X159181528Y-121839530D01*
X159181523Y-121864469D01*
X159181481Y-121885841D01*
X159181396Y-121903938D01*
X159181265Y-121919052D01*
X159181083Y-121931475D01*
X159180845Y-121941500D01*
X159180546Y-121949419D01*
X159180183Y-121955525D01*
X159179751Y-121960110D01*
X159179245Y-121963466D01*
X159178660Y-121965886D01*
X159177993Y-121967663D01*
X159177238Y-121969088D01*
X159177056Y-121969389D01*
X159170775Y-121976182D01*
X159163843Y-121980019D01*
X159159972Y-121980937D01*
X159151590Y-121982681D01*
X159139132Y-121985167D01*
X159123035Y-121988312D01*
X159103733Y-121992032D01*
X159081662Y-121996243D01*
X159057258Y-122000861D01*
X159030957Y-122005803D01*
X159003193Y-122010984D01*
X158992010Y-122013062D01*
X158946078Y-122021585D01*
X158904833Y-122029241D01*
X158868017Y-122036081D01*
X158835370Y-122042152D01*
X158806635Y-122047503D01*
X158781553Y-122052184D01*
X158759865Y-122056244D01*
X158741313Y-122059731D01*
X158725637Y-122062695D01*
X158712580Y-122065184D01*
X158701883Y-122067248D01*
X158693287Y-122068935D01*
X158686533Y-122070294D01*
X158681364Y-122071375D01*
X158677520Y-122072226D01*
X158674743Y-122072896D01*
X158672774Y-122073435D01*
X158672077Y-122073649D01*
X158664794Y-122077446D01*
X158658208Y-122083110D01*
X158657927Y-122083437D01*
X158656055Y-122086873D01*
X158652476Y-122094645D01*
X158647329Y-122106416D01*
X158640757Y-122121844D01*
X158632901Y-122140589D01*
X158623901Y-122162313D01*
X158613899Y-122186674D01*
X158603037Y-122213333D01*
X158591454Y-122241951D01*
X158579294Y-122272186D01*
X158573193Y-122287423D01*
X158559259Y-122322282D01*
X158547081Y-122352781D01*
X158536543Y-122379233D01*
X158527533Y-122401948D01*
X158519936Y-122421239D01*
X158513639Y-122437415D01*
X158508527Y-122450787D01*
X158504487Y-122461668D01*
X158501406Y-122470367D01*
X158499168Y-122477196D01*
X158497661Y-122482467D01*
X158496770Y-122486489D01*
X158496381Y-122489575D01*
X158496382Y-122492035D01*
X158496657Y-122494180D01*
X158496961Y-122495703D01*
X158497914Y-122498459D01*
X158499976Y-122502672D01*
X158503294Y-122508563D01*
X158508016Y-122516354D01*
X158514288Y-122526268D01*
X158522257Y-122538525D01*
X158532070Y-122553349D01*
X158543875Y-122570961D01*
X158557818Y-122591583D01*
X158574045Y-122615436D01*
X158592705Y-122642743D01*
X158613943Y-122673726D01*
X158637907Y-122708606D01*
X158638620Y-122709643D01*
X158658339Y-122738371D01*
X158677248Y-122766022D01*
X158695151Y-122792303D01*
X158711851Y-122816922D01*
X158727151Y-122839585D01*
X158740857Y-122860000D01*
X158752771Y-122877874D01*
X158762698Y-122892914D01*
X158770441Y-122904828D01*
X158775804Y-122913324D01*
X158778590Y-122918107D01*
X158778951Y-122918972D01*
X158779189Y-122926912D01*
X158778379Y-122932804D01*
X158776445Y-122935722D01*
X158771277Y-122941774D01*
X158762837Y-122951002D01*
X158751086Y-122963444D01*
X158735985Y-122979142D01*
X158717494Y-122998136D01*
X158695575Y-123020466D01*
X158670189Y-123046172D01*
X158641296Y-123075294D01*
X158608858Y-123107873D01*
X158595143Y-123121619D01*
X158569929Y-123146847D01*
X158545621Y-123171107D01*
X158522468Y-123194157D01*
X158500714Y-123215753D01*
X158480608Y-123235654D01*
X158462395Y-123253615D01*
X158446321Y-123269396D01*
X158432634Y-123282752D01*
X158421579Y-123293442D01*
X158413404Y-123301223D01*
X158408354Y-123305851D01*
X158406803Y-123307089D01*
X158396833Y-123310352D01*
X158386612Y-123309312D01*
X158375289Y-123303848D01*
X158373010Y-123302346D01*
X158369136Y-123299695D01*
X158361436Y-123294419D01*
X158350229Y-123286737D01*
X158335836Y-123276870D01*
X158318578Y-123265037D01*
X158298776Y-123251458D01*
X158276749Y-123236352D01*
X158252818Y-123219940D01*
X158227305Y-123202442D01*
X158200529Y-123184077D01*
X158175940Y-123167211D01*
X158148417Y-123148348D01*
X158121938Y-123130232D01*
X158096816Y-123113074D01*
X158073363Y-123097087D01*
X158051892Y-123082482D01*
X158032716Y-123069473D01*
X158016147Y-123058271D01*
X158002498Y-123049088D01*
X157992082Y-123042136D01*
X157985212Y-123037629D01*
X157982297Y-123035825D01*
X157970483Y-123032294D01*
X157964107Y-123032398D01*
X157959402Y-123033917D01*
X157950635Y-123037726D01*
X157938135Y-123043662D01*
X157922231Y-123051562D01*
X157903253Y-123061264D01*
X157881529Y-123072606D01*
X157864559Y-123081596D01*
X157840834Y-123094199D01*
X157821102Y-123104565D01*
X157804942Y-123112860D01*
X157791927Y-123119252D01*
X157781636Y-123123908D01*
X157773644Y-123126995D01*
X157767526Y-123128680D01*
X157762861Y-123129131D01*
X157759223Y-123128513D01*
X157756189Y-123126994D01*
X157753889Y-123125222D01*
X157752309Y-123122374D01*
X157748885Y-123115011D01*
X157743675Y-123103274D01*
X157736737Y-123087305D01*
X157728133Y-123067245D01*
X157717920Y-123043234D01*
X157706159Y-123015413D01*
X157692908Y-122983924D01*
X157678227Y-122948906D01*
X157662175Y-122910501D01*
X157644812Y-122868850D01*
X157626196Y-122824094D01*
X157606388Y-122776374D01*
X157585446Y-122725830D01*
X157568588Y-122685080D01*
X157546707Y-122632154D01*
X157526672Y-122583674D01*
X157508403Y-122539444D01*
X157491821Y-122499263D01*
X157476845Y-122462932D01*
X157463396Y-122430253D01*
X157451395Y-122401026D01*
X157440763Y-122375052D01*
X157431419Y-122352131D01*
X157423285Y-122332066D01*
X157416280Y-122314657D01*
X157410325Y-122299704D01*
X157405342Y-122287009D01*
X157401249Y-122276373D01*
X157397968Y-122267595D01*
X157395419Y-122260478D01*
X157393522Y-122254823D01*
X157392199Y-122250429D01*
X157391369Y-122247099D01*
X157390953Y-122244632D01*
X157390871Y-122242830D01*
X157391045Y-122241494D01*
X157391199Y-122240950D01*
X157393599Y-122235298D01*
X157397242Y-122230243D01*
X157402912Y-122225085D01*
X157411395Y-122219125D01*
X157423475Y-122211663D01*
X157425257Y-122210602D01*
X157437135Y-122203219D01*
X157450052Y-122194680D01*
X157461491Y-122186656D01*
X157462980Y-122185558D01*
X157472649Y-122178368D01*
X157484572Y-122169506D01*
X157496963Y-122160299D01*
X157504475Y-122154719D01*
X157545725Y-122120988D01*
X157583516Y-122083697D01*
X157617598Y-122043121D01*
X157647724Y-121999533D01*
X157653524Y-121990024D01*
X157676301Y-121947314D01*
X157695628Y-121901638D01*
X157711173Y-121853973D01*
X157722607Y-121805300D01*
X157728232Y-121769155D01*
X157729830Y-121750627D01*
X157730694Y-121728600D01*
X157730850Y-121704549D01*
X157730321Y-121679948D01*
X157729129Y-121656271D01*
X157727300Y-121634991D01*
X157725914Y-121624045D01*
X157715747Y-121571737D01*
X157700996Y-121521214D01*
X157681839Y-121472723D01*
X157658456Y-121426508D01*
X157631024Y-121382817D01*
X157599724Y-121341897D01*
X157564732Y-121303992D01*
X157526229Y-121269350D01*
X157484393Y-121238217D01*
X157439403Y-121210840D01*
X157417977Y-121199712D01*
X157370646Y-121178956D01*
X157322462Y-121162984D01*
X157273044Y-121151707D01*
X157222010Y-121145039D01*
X157170000Y-121142891D01*
X157124843Y-121144365D01*
X157082475Y-121148928D01*
X157041562Y-121156788D01*
X157000769Y-121168152D01*
X156993960Y-121170378D01*
X156944705Y-121189370D01*
X156897852Y-121212596D01*
X156853643Y-121239815D01*
X156812319Y-121270788D01*
X156774122Y-121305275D01*
X156739295Y-121343036D01*
X156708078Y-121383832D01*
X156680714Y-121427422D01*
X156657445Y-121473567D01*
X156638512Y-121522026D01*
X156638074Y-121523329D01*
X156626907Y-121560050D01*
X156618666Y-121595126D01*
X156613102Y-121630130D01*
X156609965Y-121666637D01*
X156609004Y-121706084D01*
X156609990Y-121743824D01*
X156613057Y-121778572D01*
X156618476Y-121812030D01*
X156626521Y-121845900D01*
X156636756Y-121879742D01*
X156655700Y-121929412D01*
X156678995Y-121976635D01*
X156706490Y-122021205D01*
X156738038Y-122062917D01*
X156773490Y-122101564D01*
X156812697Y-122136943D01*
X156835524Y-122154723D01*
X156846681Y-122162991D01*
X156857963Y-122171394D01*
X156867838Y-122178788D01*
X156873247Y-122182869D01*
X156881470Y-122188763D01*
X156892332Y-122196081D01*
X156904134Y-122203693D01*
X156910970Y-122207937D01*
X156924169Y-122216145D01*
X156933686Y-122222542D01*
X156940241Y-122227755D01*
X156944550Y-122232410D01*
X156947333Y-122237134D01*
X156948805Y-122240963D01*
X156949075Y-122242144D01*
X156949131Y-122243689D01*
X156948892Y-122245799D01*
X156948280Y-122248672D01*
X156947214Y-122252506D01*
X156945615Y-122257503D01*
X156943404Y-122263860D01*
X156940501Y-122271776D01*
X156936826Y-122281451D01*
X156932300Y-122293084D01*
X156926844Y-122306874D01*
X156920377Y-122323020D01*
X156912821Y-122341722D01*
X156904096Y-122363177D01*
X156894121Y-122387586D01*
X156882819Y-122415148D01*
X156870108Y-122446061D01*
X156855911Y-122480526D01*
X156840146Y-122518740D01*
X156822735Y-122560903D01*
X156803598Y-122607214D01*
X156782655Y-122657873D01*
X156771400Y-122685093D01*
X156749840Y-122737188D01*
X156729326Y-122786673D01*
X156709918Y-122833400D01*
X156691680Y-122877222D01*
X156674674Y-122917990D01*
X156658960Y-122955558D01*
X156644603Y-122989776D01*
X156631664Y-123020499D01*
X156620205Y-123047577D01*
X156610288Y-123070864D01*
X156601976Y-123090211D01*
X156595331Y-123105471D01*
X156590415Y-123116495D01*
X156587290Y-123123138D01*
X156586094Y-123125222D01*
X156579755Y-123128499D01*
X156573425Y-123129623D01*
X156568868Y-123128370D01*
X156560014Y-123124631D01*
X156546924Y-123118434D01*
X156529655Y-123109809D01*
X156508269Y-123098785D01*
X156482823Y-123085390D01*
X156476253Y-123081898D01*
X156456434Y-123071410D01*
X156437737Y-123061640D01*
X156420684Y-123052852D01*
X156405798Y-123045310D01*
X156393603Y-123039279D01*
X156384622Y-123035022D01*
X156379377Y-123032804D01*
X156378575Y-123032569D01*
X156370146Y-123032265D01*
X156362779Y-123033666D01*
X156359584Y-123035468D01*
X156352560Y-123039915D01*
X156342019Y-123046797D01*
X156328271Y-123055905D01*
X156311630Y-123067028D01*
X156292407Y-123079958D01*
X156270914Y-123094484D01*
X156247463Y-123110396D01*
X156222365Y-123127486D01*
X156195933Y-123145542D01*
X156172155Y-123161834D01*
X156144535Y-123180782D01*
X156117794Y-123199127D01*
X156092265Y-123216639D01*
X156068281Y-123233089D01*
X156046177Y-123248249D01*
X156026285Y-123261890D01*
X156008940Y-123273784D01*
X155994475Y-123283700D01*
X155983223Y-123291411D01*
X155975520Y-123296688D01*
X155972143Y-123298997D01*
X155960080Y-123306348D01*
X155950284Y-123310042D01*
X155941756Y-123310249D01*
X155933499Y-123307140D01*
X155931435Y-123305912D01*
X155928636Y-123303496D01*
X155922539Y-123297759D01*
X155913394Y-123288946D01*
X155901448Y-123277303D01*
X155886951Y-123263076D01*
X155870151Y-123246510D01*
X155851297Y-123227851D01*
X155830638Y-123207345D01*
X155808423Y-123185237D01*
X155784900Y-123161772D01*
X155760318Y-123137196D01*
X155743599Y-123120451D01*
X155709864Y-123086593D01*
X155679690Y-123056208D01*
X155653039Y-123029257D01*
X155629874Y-123005702D01*
X155610155Y-122985503D01*
X155593845Y-122968619D01*
X155580905Y-122955013D01*
X155571297Y-122944645D01*
X155564984Y-122937474D01*
X155561926Y-122933463D01*
X155561620Y-122932804D01*
X155560720Y-122924838D01*
X155561035Y-122918972D01*
X155562592Y-122915961D01*
X155566814Y-122909106D01*
X155573504Y-122898700D01*
X155582468Y-122885035D01*
X155593508Y-122868405D01*
X155606428Y-122849102D01*
X155621032Y-122827418D01*
X155637124Y-122803647D01*
X155654507Y-122778081D01*
X155672986Y-122751013D01*
X155692364Y-122722735D01*
X155701360Y-122709643D01*
X155725411Y-122674639D01*
X155746733Y-122643539D01*
X155765470Y-122616121D01*
X155781771Y-122592165D01*
X155795781Y-122571447D01*
X155807648Y-122553747D01*
X155817518Y-122538844D01*
X155825539Y-122526515D01*
X155831856Y-122516539D01*
X155836616Y-122508694D01*
X155839967Y-122502759D01*
X155842054Y-122498513D01*
X155843025Y-122495733D01*
X155843032Y-122495703D01*
X155843436Y-122493591D01*
X155843648Y-122491390D01*
X155843553Y-122488789D01*
X155843037Y-122485475D01*
X155841987Y-122481139D01*
X155840289Y-122475468D01*
X155837829Y-122468151D01*
X155834492Y-122458877D01*
X155830166Y-122447335D01*
X155824736Y-122433213D01*
X155818087Y-122416201D01*
X155810107Y-122395986D01*
X155800682Y-122372258D01*
X155789696Y-122344705D01*
X155777038Y-122313017D01*
X155766905Y-122287669D01*
X155754860Y-122257618D01*
X155743256Y-122228812D01*
X155732239Y-122201606D01*
X155721957Y-122176358D01*
X155712556Y-122153425D01*
X155704185Y-122133164D01*
X155696989Y-122115931D01*
X155691117Y-122102083D01*
X155686716Y-122091977D01*
X155683932Y-122085970D01*
X155683088Y-122084467D01*
X155676838Y-122078611D01*
X155670097Y-122074588D01*
X155666559Y-122073678D01*
X155658425Y-122071925D01*
X155646048Y-122069397D01*
X155629779Y-122066162D01*
X155609970Y-122062289D01*
X155586973Y-122057844D01*
X155561139Y-122052896D01*
X155532820Y-122047512D01*
X155502367Y-122041761D01*
X155470133Y-122035710D01*
X155436468Y-122029427D01*
X155423435Y-122027004D01*
X155389307Y-122020655D01*
X155356465Y-122014523D01*
X155325261Y-122008675D01*
X155296049Y-122003179D01*
X155269181Y-121998101D01*
X155245011Y-121993509D01*
X155223890Y-121989469D01*
X155206171Y-121986049D01*
X155192208Y-121983316D01*
X155182352Y-121981337D01*
X155176958Y-121980179D01*
X155176157Y-121979970D01*
X155168245Y-121975394D01*
X155162943Y-121969389D01*
X155162168Y-121968002D01*
X155161481Y-121966330D01*
X155160879Y-121964080D01*
X155160355Y-121960959D01*
X155159907Y-121956675D01*
X155159529Y-121950936D01*
X155159216Y-121943449D01*
X155158965Y-121933921D01*
X155158771Y-121922061D01*
X155158628Y-121907577D01*
X155158534Y-121890175D01*
X155158482Y-121869563D01*
X155158470Y-121845449D01*
X155158491Y-121817540D01*
X155158541Y-121785545D01*
X155158617Y-121749170D01*
X155158713Y-121708123D01*
X155158737Y-121698246D01*
X155159376Y-121435018D01*
X155165371Y-121428637D01*
X155166249Y-121427558D01*
X155166863Y-121426630D01*
X155167492Y-121425794D01*
X155168412Y-121424993D01*
X155169901Y-121424170D01*
X155172235Y-121423267D01*
X155175692Y-121422228D01*
X155180550Y-121420993D01*
X155187085Y-121419507D01*
X155195575Y-121417712D01*
X155206297Y-121415550D01*
X155219528Y-121412964D01*
X155235546Y-121409897D01*
X155254627Y-121406290D01*
X155277049Y-121402087D01*
X155303089Y-121397231D01*
X155333025Y-121391663D01*
X155367133Y-121385327D01*
X155405691Y-121378165D01*
X155439033Y-121371969D01*
X155479894Y-121364373D01*
X155516104Y-121357633D01*
X155547952Y-121351678D01*
X155575730Y-121346438D01*
X155599729Y-121341841D01*
X155620240Y-121337816D01*
X155637555Y-121334294D01*
X155651964Y-121331202D01*
X155663759Y-121328470D01*
X155673232Y-121326027D01*
X155680672Y-121323802D01*
X155686372Y-121321724D01*
X155690622Y-121319723D01*
X155693714Y-121317728D01*
X155695938Y-121315667D01*
X155697587Y-121313470D01*
X155698951Y-121311066D01*
X155700321Y-121308384D01*
X155700328Y-121308370D01*
X155701932Y-121304878D01*
X155705354Y-121297134D01*
X155710431Y-121285510D01*
X155717002Y-121270381D01*
X155724907Y-121252119D01*
X155733985Y-121231096D01*
X155744073Y-121207685D01*
X155755012Y-121182259D01*
X155766640Y-121155190D01*
X155778795Y-121126853D01*
X155780765Y-121122256D01*
X155795488Y-121087931D01*
X155808358Y-121057914D01*
X155819474Y-121031878D01*
X155828931Y-121009494D01*
X155836826Y-120990435D01*
X155843256Y-120974371D01*
X155848317Y-120960975D01*
X155852107Y-120949918D01*
X155854721Y-120940873D01*
X155856256Y-120933511D01*
X155856809Y-120927503D01*
X155856477Y-120922522D01*
X155855356Y-120918240D01*
X155853543Y-120914328D01*
X155851134Y-120910457D01*
X155848226Y-120906301D01*
X155845494Y-120902386D01*
X155842369Y-120897811D01*
X155836618Y-120889410D01*
X155828463Y-120877505D01*
X155818122Y-120862415D01*
X155805816Y-120844463D01*
X155791766Y-120823969D01*
X155776191Y-120801255D01*
X155759312Y-120776642D01*
X155741348Y-120750451D01*
X155722521Y-120723003D01*
X155703050Y-120694620D01*
X155700030Y-120690217D01*
X155680707Y-120662039D01*
X155662160Y-120634966D01*
X155644592Y-120609298D01*
X155628206Y-120585329D01*
X155613202Y-120563359D01*
X155599785Y-120543683D01*
X155588157Y-120526599D01*
X155578520Y-120512404D01*
X155571077Y-120501394D01*
X155566030Y-120493867D01*
X155563582Y-120490120D01*
X155563407Y-120489823D01*
X155561443Y-120483596D01*
X155560507Y-120475669D01*
X155560495Y-120474753D01*
X155560576Y-120473141D01*
X155560955Y-120471404D01*
X155561831Y-120469332D01*
X155563405Y-120466714D01*
X155565877Y-120463339D01*
X155569448Y-120458996D01*
X155574318Y-120453476D01*
X155580686Y-120446567D01*
X155588754Y-120438059D01*
X155598723Y-120427740D01*
X155610791Y-120415402D01*
X155625160Y-120400832D01*
X155642031Y-120383820D01*
X155661602Y-120364155D01*
X155684076Y-120341628D01*
X155709652Y-120316027D01*
X155738530Y-120287141D01*
X155747241Y-120278429D01*
X155933988Y-120091683D01*
X155944972Y-120091683D01*
X155946369Y-120091594D01*
X155947491Y-120091417D01*
X155948543Y-120091286D01*
X155949727Y-120091335D01*
X155951247Y-120091700D01*
X155953305Y-120092514D01*
X155956105Y-120093912D01*
X155959851Y-120096028D01*
X155964744Y-120098997D01*
X155970989Y-120102953D01*
X155978789Y-120108030D01*
X155988346Y-120114364D01*
X155999864Y-120122087D01*
X156013546Y-120131336D01*
X156029595Y-120142243D01*
X156048215Y-120154944D01*
X156069608Y-120169574D01*
X156093978Y-120186265D01*
X156121528Y-120205153D01*
X156152460Y-120226373D01*
X156186979Y-120250058D01*
X156225287Y-120276344D01*
X156258033Y-120298809D01*
X156285331Y-120317530D01*
X156308804Y-120333605D01*
X156328772Y-120347235D01*
X156345556Y-120358622D01*
X156359475Y-120367967D01*
X156370851Y-120375472D01*
X156380003Y-120381339D01*
X156387253Y-120385769D01*
X156392919Y-120388963D01*
X156397323Y-120391124D01*
X156400786Y-120392454D01*
X156403627Y-120393152D01*
X156406166Y-120393422D01*
X156408451Y-120393465D01*
X156411406Y-120393229D01*
X156415398Y-120392441D01*
X156420742Y-120390979D01*
X156427755Y-120388723D01*
X156436754Y-120385553D01*
X156448054Y-120381347D01*
X156461972Y-120375985D01*
X156478824Y-120369345D01*
X156498927Y-120361308D01*
X156522596Y-120351752D01*
X156550148Y-120340556D01*
X156581900Y-120327600D01*
X156596141Y-120321777D01*
X156624446Y-120310172D01*
X156651495Y-120299031D01*
X156676912Y-120288511D01*
X156700319Y-120278772D01*
X156721341Y-120269970D01*
X156739601Y-120262266D01*
X156754722Y-120255816D01*
X156766327Y-120250779D01*
X156774041Y-120247313D01*
X156777486Y-120245577D01*
X156777527Y-120245547D01*
X156779785Y-120243863D01*
X156781830Y-120242155D01*
X156783729Y-120240136D01*
X156785547Y-120237517D01*
X156787351Y-120234014D01*
X156789207Y-120229338D01*
X156791181Y-120223203D01*
X156793339Y-120215322D01*
X156795747Y-120205407D01*
X156798471Y-120193173D01*
X156801577Y-120178331D01*
X156805131Y-120160596D01*
X156809200Y-120139680D01*
X156813849Y-120115296D01*
X156819144Y-120087158D01*
X156825152Y-120054977D01*
X156831939Y-120018468D01*
X156839570Y-119977344D01*
X156840771Y-119970869D01*
X156847357Y-119935447D01*
X156853728Y-119901329D01*
X156859819Y-119868850D01*
X156865567Y-119838348D01*
X156870907Y-119810159D01*
X156875774Y-119784620D01*
X156880105Y-119762068D01*
X156883834Y-119742838D01*
X156886898Y-119727269D01*
X156889233Y-119715695D01*
X156890773Y-119708455D01*
X156891400Y-119705984D01*
X156895549Y-119699638D01*
X156901701Y-119694214D01*
X156901968Y-119694048D01*
X156903368Y-119693288D01*
X156905123Y-119692614D01*
X156907526Y-119692020D01*
X156910872Y-119691503D01*
X156915454Y-119691056D01*
X156921565Y-119690675D01*
X156929501Y-119690354D01*
X156939553Y-119690089D01*
X156952017Y-119689873D01*
X156967185Y-119689702D01*
X156985351Y-119689571D01*
X157006810Y-119689474D01*
X157031855Y-119689406D01*
X157060779Y-119689363D01*
X157093876Y-119689338D01*
X157131441Y-119689328D01*
X157170000Y-119689325D01*
X157211912Y-119689328D01*
D12*
X141800000Y-107475000D03*
X142900000Y-107475000D03*
X144000000Y-107475000D03*
X145100000Y-107475000D03*
X146200000Y-107475000D03*
X147300000Y-107475000D03*
X148400000Y-107475000D03*
X149500000Y-107475000D03*
X150450000Y-107475000D03*
D13*
X140250000Y-107475000D03*
D14*
X137900000Y-92375000D03*
D15*
X151400000Y-92825000D03*
D16*
X151400000Y-96975000D03*
D13*
X151400000Y-103175000D03*
D17*
X134250000Y-95420000D03*
X164460000Y-120650000D03*
D18*
X161190000Y-100200000D03*
X161190000Y-100600000D03*
X161190000Y-101000000D03*
X161190000Y-101400000D03*
X161190000Y-101800000D03*
X161190000Y-102200000D03*
X161190000Y-102600000D03*
X161190000Y-103000000D03*
X161190000Y-103400000D03*
X161190000Y-103800000D03*
X161190000Y-107800000D03*
X161190000Y-107400000D03*
X161190000Y-107000000D03*
X161190000Y-106600000D03*
X161190000Y-106200000D03*
X161190000Y-105800000D03*
X161190000Y-105400000D03*
X161190000Y-105000000D03*
X161190000Y-104600000D03*
X161190000Y-104200000D03*
X161190000Y-108200000D03*
X161190000Y-108600000D03*
X161190000Y-109000000D03*
X161190000Y-109400000D03*
X161190000Y-109800000D03*
X161190000Y-110200000D03*
X161190000Y-110600000D03*
X161190000Y-111000000D03*
X161190000Y-111400000D03*
X161190000Y-111800000D03*
X161190000Y-115800000D03*
X161190000Y-115400000D03*
X161190000Y-115000000D03*
X161190000Y-114600000D03*
X161190000Y-114200000D03*
X161190000Y-113800000D03*
X161190000Y-113400000D03*
X161190000Y-113000000D03*
X161190000Y-112600000D03*
X161190000Y-112200000D03*
X158110000Y-112200000D03*
X158110000Y-112600000D03*
X158110000Y-113000000D03*
X158110000Y-113400000D03*
X158110000Y-113800000D03*
X158110000Y-114200000D03*
X158110000Y-114600000D03*
X158110000Y-115000000D03*
X158110000Y-115400000D03*
X158110000Y-115800000D03*
X158110000Y-111800000D03*
X158110000Y-111400000D03*
X158110000Y-111000000D03*
X158110000Y-110600000D03*
X158110000Y-110200000D03*
X158110000Y-109800000D03*
X158110000Y-109400000D03*
X158110000Y-109000000D03*
X158110000Y-108600000D03*
X158110000Y-108200000D03*
X158110000Y-104200000D03*
X158110000Y-104600000D03*
X158110000Y-105000000D03*
X158110000Y-105400000D03*
X158110000Y-105800000D03*
X158110000Y-106200000D03*
X158110000Y-106600000D03*
X158110000Y-107000000D03*
X158110000Y-107400000D03*
X158110000Y-107800000D03*
X158110000Y-103800000D03*
X158110000Y-103400000D03*
X158110000Y-103000000D03*
X158110000Y-102600000D03*
X158110000Y-102200000D03*
X158110000Y-101800000D03*
X158110000Y-101400000D03*
X158110000Y-101000000D03*
X158110000Y-100600000D03*
X158110000Y-100200000D03*
D19*
X158461920Y-94250000D03*
X158461920Y-93599760D03*
X158461920Y-92949520D03*
X155800000Y-92949520D03*
X155800000Y-93599760D03*
X155800000Y-94250000D03*
X164300000Y-98250000D03*
X164300000Y-97599760D03*
X164300000Y-96949520D03*
X161638080Y-96949520D03*
X161638080Y-97599760D03*
X161638080Y-98250000D03*
X158611920Y-96700000D03*
X158611920Y-96049760D03*
X158611920Y-95399520D03*
X155950000Y-95399520D03*
X155950000Y-96049760D03*
X155950000Y-96700000D03*
D20*
X143800000Y-111600000D03*
X143800000Y-115600000D03*
D21*
X137300000Y-114300000D03*
X137300000Y-112400000D03*
D22*
X138000000Y-124749300D03*
X138000000Y-123250700D03*
X141000000Y-124749300D03*
X141000000Y-123250700D03*
D23*
X138000000Y-121100000D03*
X138000000Y-118900000D03*
X141000000Y-121200000D03*
X141000000Y-119000000D03*
D24*
X141400000Y-114300000D03*
X141400000Y-113350000D03*
X141400000Y-112400000D03*
X139200000Y-112400000D03*
X139200000Y-114300000D03*
D17*
X134580000Y-120750000D03*
D25*
X162950000Y-97849974D03*
X162500000Y-95300000D03*
X142980000Y-104300000D03*
X137900000Y-94200000D03*
X152600000Y-92800000D03*
X138000000Y-117600000D03*
X143700000Y-113600000D03*
X138400000Y-109400000D03*
X144800000Y-104300000D03*
D26*
X163335170Y-106128721D03*
X162579214Y-106491109D03*
X162993938Y-107218712D03*
X162237982Y-107581100D03*
X162237982Y-108419301D03*
X162993938Y-108781689D03*
X162579214Y-109509292D03*
X163335170Y-109871680D03*
D25*
X164264956Y-95352566D03*
X160500000Y-95450000D03*
X157300000Y-95000000D03*
X159100000Y-98150000D03*
X159950000Y-93400000D03*
X154500000Y-92950000D03*
X153600000Y-93750000D03*
X154325068Y-92130246D03*
X160303087Y-96914049D03*
X157300000Y-97100000D03*
X156750000Y-92200000D03*
X154650000Y-94900000D03*
D26*
X156380187Y-105401118D03*
D25*
X160729126Y-94320874D03*
X145300000Y-112100000D03*
X149900000Y-111000000D03*
D26*
X156306694Y-107218712D03*
X157062650Y-107581100D03*
X157062650Y-108419301D03*
X156306694Y-108781689D03*
X156721418Y-109509292D03*
X155965462Y-109871680D03*
D25*
X145100000Y-105800000D03*
X143600000Y-109000000D03*
D26*
X154941767Y-102858749D03*
X155697723Y-103221137D03*
D25*
X160900000Y-117100000D03*
D26*
X158255617Y-116945501D03*
X161045015Y-99054899D03*
X158255617Y-99054899D03*
X158255617Y-99054899D03*
D25*
X149495270Y-110121206D03*
X148692632Y-110972641D03*
X161794374Y-116868470D03*
X161926514Y-117720151D03*
X147000000Y-110700000D03*
X148531177Y-109668852D03*
X162800000Y-118300000D03*
X163738213Y-117600000D03*
D26*
X164626605Y-116049236D03*
X165041329Y-115321633D03*
X164285373Y-114959245D03*
X164700097Y-114231642D03*
X163944142Y-113869254D03*
X164358866Y-113141651D03*
X163602910Y-112779264D03*
X164017634Y-112051661D03*
X163261678Y-111689273D03*
X163676402Y-110961670D03*
X162920446Y-110599282D03*
X162920446Y-105401118D03*
X163676402Y-105038731D03*
X163261678Y-104311128D03*
X164017634Y-103948740D03*
X163602910Y-103221137D03*
X164358866Y-102858749D03*
X163944142Y-102131146D03*
X164700097Y-101768759D03*
X164285373Y-101041156D03*
X165041329Y-100678768D03*
X164626605Y-99951165D03*
X163642567Y-99005000D03*
X163166374Y-99692120D03*
X162511810Y-99165956D03*
X162035617Y-99853076D03*
X157265015Y-99853076D03*
X156788823Y-99165956D03*
X156134258Y-99692120D03*
D25*
X153856097Y-98376510D03*
X150200000Y-108900000D03*
X145712765Y-111096015D03*
X153230000Y-98930000D03*
X151290000Y-98290000D03*
D26*
X154259303Y-100678768D03*
X155015259Y-101041156D03*
X154600535Y-101768759D03*
X155356491Y-102131146D03*
X155965462Y-106128721D03*
X156721418Y-106491109D03*
X156380187Y-110599282D03*
X155624231Y-110961670D03*
X156038955Y-111689273D03*
X155282999Y-112051661D03*
X155697723Y-112779264D03*
X154941767Y-113141651D03*
X155356491Y-113869254D03*
X154600535Y-114231642D03*
X155015259Y-114959245D03*
X154259303Y-115321633D03*
X154674027Y-116049236D03*
X155658066Y-116995401D03*
X156134258Y-116308281D03*
X156788823Y-116834445D03*
X157265015Y-116147324D03*
D27*
X162950000Y-97849974D02*
X162950000Y-96450000D01*
X162950000Y-96450000D02*
X162850000Y-96350000D01*
X162950000Y-97849974D02*
X163350266Y-98250240D01*
X163350266Y-98250240D02*
X163350506Y-98250000D01*
X163350506Y-98250000D02*
X164300000Y-98250000D01*
X162850000Y-96350000D02*
X162550000Y-96050000D01*
X158461920Y-94250000D02*
X158461920Y-95249520D01*
X158461920Y-95249520D02*
X158611920Y-95399520D01*
X159353696Y-95399520D02*
X159975678Y-96021502D01*
X158611920Y-95399520D02*
X159353696Y-95399520D01*
X160771502Y-96021502D02*
X160528498Y-96021502D01*
X162550000Y-96050000D02*
X160800000Y-96050000D01*
X160800000Y-96050000D02*
X160771502Y-96021502D01*
X160528498Y-96021502D02*
X159914476Y-96021502D01*
X159235978Y-96700000D02*
X158611920Y-96700000D01*
X159975678Y-96021502D02*
X160528498Y-96021502D01*
X159914476Y-96021502D02*
X159235978Y-96700000D01*
X162500000Y-96000000D02*
X162500000Y-95784933D01*
X162550000Y-96050000D02*
X162500000Y-96000000D01*
X162500000Y-95784933D02*
X162500000Y-95300000D01*
X158611920Y-94261920D02*
X158600000Y-94250000D01*
X143325000Y-104300000D02*
X142980000Y-104300000D01*
X150450000Y-107475000D02*
X151915000Y-107475000D01*
X152660000Y-103782600D02*
X152052400Y-103175000D01*
X152052400Y-103175000D02*
X151400000Y-103175000D01*
X151915000Y-107475000D02*
X152660000Y-106730000D01*
X152660000Y-106730000D02*
X152660000Y-103782600D01*
X137900000Y-92375000D02*
X137900000Y-94200000D01*
X151400000Y-92825000D02*
X152575000Y-92825000D01*
X152575000Y-92825000D02*
X152600000Y-92800000D01*
X138000000Y-118900000D02*
X138000000Y-117600000D01*
X143700000Y-113600000D02*
X143700000Y-115500000D01*
X143700000Y-115500000D02*
X143800000Y-115600000D01*
X141400000Y-113350000D02*
X143450000Y-113350000D01*
X143450000Y-113350000D02*
X143700000Y-113600000D01*
X138400000Y-109400000D02*
X140250000Y-107550000D01*
X140250000Y-107550000D02*
X140250000Y-107475000D01*
X137300000Y-112400000D02*
X137300000Y-110500000D01*
X137300000Y-110500000D02*
X138400000Y-109400000D01*
X151400000Y-103175000D02*
X145925000Y-103175000D01*
X145925000Y-103175000D02*
X144800000Y-104300000D01*
X144800000Y-104300000D02*
X145142899Y-104642899D01*
X145142899Y-104642899D02*
X145220299Y-104642899D01*
X145220299Y-104642899D02*
X147300000Y-106722600D01*
X147300000Y-106722600D02*
X147300000Y-107475000D01*
X140250000Y-107475000D02*
X140250000Y-107375000D01*
X140250000Y-107375000D02*
X143325000Y-104300000D01*
X143325000Y-104300000D02*
X143425000Y-104300000D01*
X143425000Y-104300000D02*
X144800000Y-104300000D01*
X161190316Y-106624000D02*
X161540316Y-106624000D01*
X161540316Y-106624000D02*
X162460992Y-105841578D01*
X162460992Y-105841578D02*
X162749830Y-105946114D01*
X162749830Y-105946114D02*
X163335170Y-106128721D01*
X161190316Y-107024000D02*
X161540316Y-107024000D01*
X161540316Y-107024000D02*
X162406505Y-106287883D01*
X162406505Y-106287883D02*
X162579214Y-106491109D01*
X161190316Y-107424000D02*
X161540316Y-107424000D01*
X161540316Y-107424000D02*
X162119760Y-106931569D01*
X162119760Y-106931569D02*
X162408598Y-107036104D01*
X162408598Y-107036104D02*
X162993938Y-107218712D01*
X161190316Y-107824000D02*
X161540316Y-107824000D01*
X161540316Y-107824000D02*
X162065274Y-107377873D01*
X162065274Y-107377873D02*
X162237982Y-107581100D01*
X161190316Y-108176401D02*
X161540316Y-108176401D01*
X161540316Y-108176401D02*
X162065274Y-108622527D01*
X162065274Y-108622527D02*
X162237982Y-108419301D01*
X161190316Y-108576401D02*
X161540316Y-108576401D01*
X161540316Y-108576401D02*
X162119760Y-109068832D01*
X162119760Y-109068832D02*
X162408598Y-108964297D01*
X162408598Y-108964297D02*
X162993938Y-108781689D01*
X161190316Y-108976401D02*
X161540316Y-108976401D01*
X161540316Y-108976401D02*
X162406505Y-109712518D01*
X162406505Y-109712518D02*
X162579214Y-109509292D01*
X161190316Y-109376401D02*
X161540316Y-109376401D01*
X161540316Y-109376401D02*
X162460992Y-110158823D01*
X162460992Y-110158823D02*
X162749830Y-110054287D01*
X162749830Y-110054287D02*
X163335170Y-109871680D01*
X165202970Y-96290580D02*
X164607855Y-95695465D01*
X163412390Y-94500000D02*
X163922057Y-95009667D01*
X164851180Y-96949520D02*
X165202970Y-96597730D01*
X164300000Y-96949520D02*
X164851180Y-96949520D01*
X160500000Y-95450000D02*
X161450000Y-94500000D01*
X163922057Y-95009667D02*
X164264956Y-95352566D01*
X165202970Y-96597730D02*
X165202970Y-96290580D01*
X161450000Y-94500000D02*
X163412390Y-94500000D01*
X164607855Y-95695465D02*
X164264956Y-95352566D01*
X164300000Y-97599760D02*
X164300000Y-96949520D01*
X160500000Y-95450000D02*
X160500000Y-94965067D01*
X160500000Y-94965067D02*
X159134693Y-93599760D01*
X159134693Y-93599760D02*
X158461920Y-93599760D01*
X158611920Y-96049760D02*
X157708950Y-96049760D01*
X157708950Y-96049760D02*
X157300000Y-95640810D01*
X157300000Y-95640810D02*
X157300000Y-95000000D01*
X159502970Y-92949520D02*
X158461920Y-92949520D01*
X158265067Y-97800000D02*
X156698210Y-97800000D01*
X155950000Y-97051790D02*
X155950000Y-96700000D01*
X156698210Y-97800000D02*
X155950000Y-97051790D01*
X159100000Y-98150000D02*
X158615067Y-98150000D01*
X158615067Y-98150000D02*
X158265067Y-97800000D01*
X159950000Y-93396550D02*
X159950000Y-93400000D01*
X159502970Y-92949520D02*
X159950000Y-93396550D01*
X156470220Y-96800240D02*
X155919040Y-96800240D01*
X157607600Y-105000000D02*
X158110000Y-105000000D01*
X154598740Y-103948740D02*
X156495045Y-103948740D01*
X154425059Y-98994479D02*
X153600000Y-99819538D01*
X153600000Y-102950000D02*
X154598740Y-103948740D01*
X156903232Y-104295632D02*
X157607600Y-105000000D01*
X153600000Y-97278348D02*
X154425059Y-98103407D01*
X153600000Y-93750000D02*
X153600000Y-97278348D01*
X154425059Y-98103407D02*
X154425059Y-98994479D01*
X153600000Y-99819538D02*
X153600000Y-102950000D01*
X156495045Y-103948740D02*
X156903232Y-104295632D01*
X155800000Y-92949520D02*
X154500480Y-92949520D01*
X154500480Y-92949520D02*
X154500000Y-92950000D01*
X155938080Y-92949520D02*
X155937600Y-92950000D01*
X161638080Y-98250000D02*
X160346552Y-98250000D01*
X160346552Y-98250000D02*
X160303087Y-98206535D01*
X160303087Y-98206535D02*
X160303087Y-97700000D01*
X160303087Y-97700000D02*
X160303087Y-97398982D01*
X161638080Y-97599760D02*
X160735110Y-97599760D01*
X160735110Y-97599760D02*
X160634870Y-97700000D01*
X160634870Y-97700000D02*
X160303087Y-97700000D01*
X158110000Y-106200000D02*
X159531067Y-106200000D01*
X154650000Y-93945822D02*
X154650000Y-93846790D01*
X154650000Y-93846790D02*
X154897030Y-93599760D01*
X154897030Y-93599760D02*
X155800000Y-93599760D01*
X154650000Y-94900000D02*
X154650000Y-93945822D01*
X154650000Y-93945822D02*
X153928499Y-93224321D01*
X153928499Y-93224321D02*
X153928499Y-92526815D01*
X153928499Y-92526815D02*
X153982169Y-92473145D01*
X153982169Y-92473145D02*
X154325068Y-92130246D01*
X154394822Y-92200000D02*
X154325068Y-92130246D01*
X156750000Y-92200000D02*
X154394822Y-92200000D01*
X160303087Y-97398982D02*
X160303087Y-96914049D01*
X160239234Y-98270388D02*
X160303087Y-98206535D01*
X156957101Y-96757101D02*
X156957101Y-96153891D01*
X157300000Y-97100000D02*
X156957101Y-96757101D01*
X156957101Y-96153891D02*
X156852970Y-96049760D01*
X156852970Y-96049760D02*
X155950000Y-96049760D01*
X160054811Y-98454811D02*
X160239234Y-98270388D01*
X160054811Y-98454811D02*
X160050000Y-98450000D01*
X160059620Y-104997487D02*
X160054811Y-104992678D01*
X159531067Y-106200000D02*
X160059620Y-105671447D01*
X160054811Y-104992678D02*
X160054811Y-98454811D01*
X160059620Y-105671447D02*
X160059620Y-104997487D01*
X158110316Y-106224000D02*
X157760316Y-106224000D01*
X157760316Y-106224000D02*
X156552895Y-105197892D01*
X156552895Y-105197892D02*
X156380187Y-105401118D01*
X160729126Y-94320874D02*
X160729126Y-92679126D01*
X160729126Y-92679126D02*
X160500000Y-92450000D01*
X156917251Y-93032749D02*
X156917251Y-94173799D01*
X156917251Y-94173799D02*
X156841050Y-94250000D01*
X156841050Y-94250000D02*
X155800000Y-94250000D01*
X160500000Y-92450000D02*
X157500000Y-92450000D01*
X157500000Y-92450000D02*
X156917251Y-93032749D01*
X159450000Y-105800000D02*
X158110000Y-105800000D01*
X159750000Y-105500000D02*
X159450000Y-105800000D01*
X159700000Y-96671314D02*
X159700000Y-99250000D01*
X159750000Y-99300000D02*
X159750000Y-105500000D01*
X159700000Y-99250000D02*
X159750000Y-99300000D01*
X159885657Y-96485657D02*
X159700000Y-96671314D01*
X161638080Y-96949520D02*
X160874588Y-96949520D01*
X160874588Y-96949520D02*
X160874588Y-96639728D01*
X160874588Y-96639728D02*
X160577408Y-96342548D01*
X160577408Y-96342548D02*
X160028766Y-96342548D01*
X160028766Y-96342548D02*
X159885657Y-96485657D01*
X158110000Y-105400000D02*
X159350000Y-105400000D01*
X155146302Y-95399520D02*
X155950000Y-95399520D01*
X159445190Y-99426256D02*
X158452433Y-98433499D01*
X159350000Y-105400000D02*
X159445190Y-105304810D01*
X159445190Y-105304810D02*
X159445190Y-99426256D01*
X158452433Y-98433499D02*
X154733499Y-98433499D01*
X154733499Y-98433499D02*
X154733499Y-95812323D01*
X154733499Y-95812323D02*
X155146302Y-95399520D01*
X156721418Y-109509292D02*
X156327850Y-109509292D01*
X156327850Y-109509292D02*
X155965462Y-109871680D01*
X156306694Y-107793306D02*
X156518900Y-107581100D01*
X156518900Y-107581100D02*
X157062650Y-107581100D01*
X156306694Y-107218712D02*
X156306694Y-107793306D01*
X141400000Y-114300000D02*
X140717600Y-114300000D01*
X140717600Y-114300000D02*
X140300000Y-113882400D01*
X140300000Y-113882400D02*
X140300000Y-112817600D01*
X140300000Y-112817600D02*
X140717600Y-112400000D01*
X140717600Y-112400000D02*
X141400000Y-112400000D01*
X141400000Y-112400000D02*
X143000000Y-112400000D01*
X143000000Y-112400000D02*
X143800000Y-111600000D01*
X145300000Y-112100000D02*
X144800000Y-111600000D01*
X144800000Y-111600000D02*
X143800000Y-111600000D01*
X155965462Y-109871680D02*
X151028320Y-109871680D01*
X151028320Y-109871680D02*
X149900000Y-111000000D01*
X158110316Y-107424000D02*
X157760316Y-107424000D01*
X157760316Y-107424000D02*
X157180872Y-106931569D01*
X157180872Y-106931569D02*
X156892034Y-107036104D01*
X156892034Y-107036104D02*
X156306694Y-107218712D01*
X158110316Y-107824000D02*
X157760316Y-107824000D01*
X157760316Y-107824000D02*
X157235359Y-107377873D01*
X157235359Y-107377873D02*
X157062650Y-107581100D01*
X158110316Y-108176401D02*
X157760316Y-108176401D01*
X157760316Y-108176401D02*
X157235359Y-108622527D01*
X157235359Y-108622527D02*
X157062650Y-108419301D01*
X158110316Y-108576401D02*
X157760316Y-108576401D01*
X157760316Y-108576401D02*
X157180872Y-109068832D01*
X157180872Y-109068832D02*
X156892034Y-108964297D01*
X156892034Y-108964297D02*
X156306694Y-108781689D01*
X158110316Y-108976401D02*
X157760316Y-108976401D01*
X157760316Y-108976401D02*
X156894127Y-109712518D01*
X156894127Y-109712518D02*
X156721418Y-109509292D01*
X158110316Y-109376401D02*
X157760316Y-109376401D01*
X157760316Y-109376401D02*
X156839640Y-110158823D01*
X156839640Y-110158823D02*
X156550802Y-110054287D01*
X156550802Y-110054287D02*
X155965462Y-109871680D01*
X145100000Y-105800000D02*
X145100000Y-107475000D01*
X138300000Y-113827400D02*
X139039082Y-113827400D01*
X139039082Y-113827400D02*
X139958601Y-112907881D01*
X139958601Y-112907881D02*
X139958601Y-112641399D01*
X139958601Y-112641399D02*
X143600000Y-109000000D01*
X137300000Y-114300000D02*
X137827400Y-114300000D01*
X137827400Y-114300000D02*
X138300000Y-113827400D01*
X137300000Y-114300000D02*
X139200000Y-114300000D01*
X139200000Y-124100480D02*
X139848820Y-124749300D01*
X139848820Y-124749300D02*
X141000000Y-124749300D01*
X139200000Y-114300000D02*
X139200000Y-124100480D01*
X139200000Y-124100480D02*
X138551180Y-124749300D01*
X138551180Y-124749300D02*
X138000000Y-124749300D01*
X138000000Y-123250700D02*
X138000000Y-121100000D01*
X141000000Y-121200000D02*
X141000000Y-123250700D01*
X158110316Y-104224000D02*
X157760316Y-104224000D01*
X155815945Y-102571606D02*
X155527107Y-102676142D01*
X157760316Y-104224000D02*
X155815945Y-102571606D01*
X155527107Y-102676142D02*
X154941767Y-102858749D01*
X155870431Y-103017911D02*
X155697723Y-103221137D01*
X157760316Y-104624000D02*
X155870431Y-103017911D01*
X158110316Y-104624000D02*
X157760316Y-104624000D01*
X148966953Y-110401140D02*
X149264133Y-110698320D01*
X148455214Y-110401140D02*
X148966953Y-110401140D01*
X149264133Y-111570935D02*
X155478765Y-117785567D01*
X160214433Y-117785567D02*
X160557101Y-117442899D01*
X155478765Y-117785567D02*
X160214433Y-117785567D01*
X149264133Y-110698320D02*
X149264133Y-111570935D01*
X147978447Y-109924373D02*
X148455214Y-110401140D01*
X146199373Y-109924373D02*
X147978447Y-109924373D01*
X160557101Y-117442899D02*
X160900000Y-117100000D01*
X144000000Y-107725000D02*
X146199373Y-109924373D01*
X144000000Y-107475000D02*
X144000000Y-107725000D01*
X158255617Y-115800200D02*
X158255617Y-116945501D01*
X161045015Y-100200200D02*
X161045015Y-99054899D01*
X158255617Y-100200200D02*
X158255617Y-99054899D01*
X158255617Y-100200200D02*
X158255617Y-99054899D01*
X148692632Y-111457574D02*
X148692632Y-110972641D01*
X155325436Y-118090378D02*
X148692632Y-111457574D01*
X161794374Y-116868470D02*
X161471501Y-117191343D01*
X161471501Y-117374321D02*
X160755444Y-118090378D01*
X160755444Y-118090378D02*
X155325436Y-118090378D01*
X161471501Y-117191343D02*
X161471501Y-117374321D01*
X149495270Y-108820270D02*
X149495270Y-109636273D01*
X148400000Y-107725000D02*
X149495270Y-108820270D01*
X148400000Y-107475000D02*
X148400000Y-107725000D01*
X149495270Y-109636273D02*
X149495270Y-110121206D01*
X161251476Y-118395189D02*
X161583615Y-118063050D01*
X154695189Y-118395189D02*
X161251476Y-118395189D01*
X161583615Y-118063050D02*
X161926514Y-117720151D01*
X147000000Y-110700000D02*
X154695189Y-118395189D01*
X146200000Y-107475000D02*
X146200000Y-107725000D01*
X146200000Y-107725000D02*
X147800953Y-109325953D01*
X147800953Y-109325953D02*
X148188278Y-109325953D01*
X148188278Y-109325953D02*
X148531177Y-109668852D01*
X154125000Y-118700000D02*
X162400000Y-118700000D01*
X162400000Y-118700000D02*
X162457101Y-118642899D01*
X146796502Y-111371502D02*
X154125000Y-118700000D01*
X146328498Y-111074322D02*
X146625678Y-111371502D01*
X142900000Y-107725000D02*
X143478601Y-108303601D01*
X146328498Y-110903498D02*
X146328498Y-111074322D01*
X146625678Y-111371502D02*
X146796502Y-111371502D01*
X142900000Y-107475000D02*
X142900000Y-107725000D01*
X143478601Y-108303601D02*
X143728601Y-108303601D01*
X162457101Y-118642899D02*
X162800000Y-118300000D01*
X143728601Y-108303601D02*
X146328498Y-110903498D01*
X163738213Y-117600000D02*
X163363915Y-117600000D01*
X163363915Y-117600000D02*
X161540316Y-115776401D01*
X161190316Y-115776401D02*
X161540316Y-115776401D01*
X163647342Y-117028499D02*
X164283706Y-116392135D01*
X161540316Y-115376401D02*
X163484339Y-117028499D01*
X161190316Y-115376401D02*
X161540316Y-115376401D01*
X164283706Y-116392135D02*
X164626605Y-116049236D01*
X163484339Y-117028499D02*
X163647342Y-117028499D01*
X161190316Y-114976401D02*
X161540316Y-114976401D01*
X161540316Y-114976401D02*
X163377626Y-116537810D01*
X163377626Y-116537810D02*
X164167151Y-115608776D01*
X164167151Y-115608776D02*
X164455989Y-115504240D01*
X164455989Y-115504240D02*
X165041329Y-115321633D01*
X161190316Y-114576401D02*
X161540316Y-114576401D01*
X161540316Y-114576401D02*
X163323139Y-116091505D01*
X163323139Y-116091505D02*
X164112665Y-115162471D01*
X164112665Y-115162471D02*
X164285373Y-114959245D01*
X161190316Y-114176401D02*
X161540316Y-114176401D01*
X161540316Y-114176401D02*
X163036394Y-115447819D01*
X163036394Y-115447819D02*
X163825920Y-114518785D01*
X163825920Y-114518785D02*
X164114757Y-114414250D01*
X164114757Y-114414250D02*
X164700097Y-114231642D01*
X161190316Y-113776401D02*
X161540316Y-113776401D01*
X161540316Y-113776401D02*
X162981908Y-115001515D01*
X162981908Y-115001515D02*
X163771433Y-114072481D01*
X163771433Y-114072481D02*
X163944142Y-113869254D01*
X161190316Y-113376401D02*
X161540316Y-113376401D01*
X161540316Y-113376401D02*
X162695162Y-114357829D01*
X162695162Y-114357829D02*
X163484688Y-113428795D01*
X163484688Y-113428795D02*
X163773526Y-113324259D01*
X163773526Y-113324259D02*
X164358866Y-113141651D01*
X161190316Y-112976401D02*
X161540316Y-112976401D01*
X161540316Y-112976401D02*
X162640676Y-113911524D01*
X162640676Y-113911524D02*
X163430201Y-112982490D01*
X163430201Y-112982490D02*
X163602910Y-112779264D01*
X161190316Y-110976401D02*
X161540316Y-110976401D01*
X161540316Y-110976401D02*
X163143456Y-112338804D01*
X163143456Y-112338804D02*
X163432294Y-112234268D01*
X163432294Y-112234268D02*
X164017634Y-112051661D01*
X161190316Y-110576401D02*
X161540316Y-110576401D01*
X161540316Y-110576401D02*
X163088969Y-111892499D01*
X163088969Y-111892499D02*
X163261678Y-111689273D01*
X161190316Y-110176401D02*
X161540316Y-110176401D01*
X161540316Y-110176401D02*
X162802224Y-111248813D01*
X162802224Y-111248813D02*
X163091062Y-111144278D01*
X163091062Y-111144278D02*
X163676402Y-110961670D01*
X161190316Y-109776401D02*
X161540316Y-109776401D01*
X161540316Y-109776401D02*
X162747737Y-110802509D01*
X162747737Y-110802509D02*
X162920446Y-110599282D01*
X161190316Y-106224000D02*
X161540316Y-106224000D01*
X161540316Y-106224000D02*
X162747737Y-105197892D01*
X162747737Y-105197892D02*
X162920446Y-105401118D01*
X161190316Y-105824000D02*
X161540316Y-105824000D01*
X161540316Y-105824000D02*
X162802224Y-104751587D01*
X162802224Y-104751587D02*
X163091062Y-104856123D01*
X163091062Y-104856123D02*
X163676402Y-105038731D01*
X161190316Y-105424000D02*
X161540316Y-105424000D01*
X161540316Y-105424000D02*
X163088969Y-104107901D01*
X163088969Y-104107901D02*
X163261678Y-104311128D01*
X161190316Y-105024000D02*
X161540316Y-105024000D01*
X161540316Y-105024000D02*
X163143456Y-103661597D01*
X163143456Y-103661597D02*
X163432294Y-103766132D01*
X163432294Y-103766132D02*
X164017634Y-103948740D01*
X161190316Y-104624000D02*
X161540316Y-104624000D01*
X161540316Y-104624000D02*
X163430201Y-103017911D01*
X163430201Y-103017911D02*
X163602910Y-103221137D01*
X161190316Y-104224000D02*
X161540316Y-104224000D01*
X161540316Y-104224000D02*
X163484688Y-102571606D01*
X163484688Y-102571606D02*
X163773526Y-102676142D01*
X163773526Y-102676142D02*
X164358866Y-102858749D01*
X161190316Y-103824000D02*
X161540316Y-103824000D01*
X161540316Y-103824000D02*
X163771433Y-101927920D01*
X163771433Y-101927920D02*
X163944142Y-102131146D01*
X161190316Y-103424000D02*
X161540316Y-103424000D01*
X161540316Y-103424000D02*
X163825920Y-101481616D01*
X163825920Y-101481616D02*
X164114757Y-101586151D01*
X164114757Y-101586151D02*
X164700097Y-101768759D01*
X161190316Y-103024000D02*
X161540316Y-103024000D01*
X161540316Y-103024000D02*
X164112665Y-100837930D01*
X164112665Y-100837930D02*
X164285373Y-101041156D01*
X161190316Y-102624000D02*
X161540316Y-102624000D01*
X161540316Y-102624000D02*
X164167151Y-100391625D01*
X164167151Y-100391625D02*
X164455989Y-100496161D01*
X164455989Y-100496161D02*
X165041329Y-100678768D01*
X161190316Y-102224000D02*
X161540316Y-102224000D01*
X161540316Y-102224000D02*
X164453897Y-99747939D01*
X164453897Y-99747939D02*
X164626605Y-99951165D01*
X161190316Y-101824000D02*
X161540316Y-101824000D01*
X161540316Y-101824000D02*
X163788332Y-99913558D01*
X163788332Y-99913558D02*
X163731753Y-99611642D01*
X163731753Y-99611642D02*
X163642567Y-99005000D01*
X161190316Y-101424000D02*
X161540316Y-101424000D01*
X161540316Y-101424000D02*
X163339083Y-99895346D01*
X163339083Y-99895346D02*
X163166374Y-99692120D01*
X161190316Y-101024000D02*
X161540316Y-101024000D01*
X161540316Y-101024000D02*
X162657575Y-100074515D01*
X162657575Y-100074515D02*
X162600996Y-99772598D01*
X162600996Y-99772598D02*
X162511810Y-99165956D01*
X161190316Y-100624000D02*
X161540316Y-100624000D01*
X161540316Y-100624000D02*
X162208326Y-100056303D01*
X162208326Y-100056303D02*
X162035617Y-99853076D01*
X158110316Y-100624000D02*
X157760316Y-100624000D01*
X157760316Y-100624000D02*
X157092307Y-100056303D01*
X157092307Y-100056303D02*
X157265015Y-99853076D01*
X156699637Y-99772598D02*
X156788823Y-99165956D01*
X156648403Y-100045978D02*
X156699637Y-99772598D01*
X156868693Y-100266269D02*
X156648403Y-100045978D01*
X157760316Y-101024000D02*
X156868693Y-100266269D01*
X158110316Y-101024000D02*
X157760316Y-101024000D01*
X156685720Y-100510771D02*
X156134258Y-99959309D01*
X157760318Y-101424000D02*
X157760316Y-101423998D01*
X158110316Y-101424000D02*
X157760318Y-101424000D01*
X157760316Y-101423998D02*
X156685720Y-100510771D01*
X156134258Y-99959309D02*
X156134258Y-99692120D01*
X151031066Y-108900000D02*
X152962271Y-106968795D01*
X153856097Y-98861443D02*
X153856097Y-98376510D01*
X153856097Y-99135966D02*
X153856097Y-98861443D01*
X152962271Y-100029792D02*
X153856097Y-99135966D01*
X150200000Y-108900000D02*
X151031066Y-108900000D01*
X152962271Y-106968795D02*
X152962271Y-100029792D01*
X146055664Y-112190158D02*
X146055664Y-111438914D01*
X145712765Y-112533057D02*
X146055664Y-112190158D01*
X145712765Y-115872168D02*
X145712765Y-112533057D01*
X141000000Y-119000000D02*
X142584933Y-119000000D01*
X146055664Y-111438914D02*
X145712765Y-111096015D01*
X142584933Y-119000000D02*
X145712765Y-115872168D01*
X153230000Y-98930000D02*
X152590000Y-98290000D01*
X152590000Y-98290000D02*
X151290000Y-98290000D01*
X151290000Y-98290000D02*
X151290000Y-97085000D01*
X151290000Y-97085000D02*
X151400000Y-96975000D01*
X151400000Y-97527400D02*
X151400000Y-96975000D01*
X157571475Y-101824000D02*
X158110316Y-101824000D01*
X156050876Y-100303400D02*
X157571475Y-101824000D01*
X154634671Y-100303400D02*
X156050876Y-100303400D01*
X154259303Y-100678768D02*
X154634671Y-100303400D01*
X157544001Y-102224000D02*
X157760316Y-102224000D01*
X155015259Y-101041156D02*
X155385349Y-100605671D01*
X155385349Y-100605671D02*
X155925672Y-100605671D01*
X155925672Y-100605671D02*
X157544001Y-102224000D01*
X157760316Y-102224000D02*
X158110316Y-102224000D01*
X155672094Y-101249357D02*
X156141884Y-101249357D01*
X156141884Y-101249357D02*
X157516527Y-102624000D01*
X157516527Y-102624000D02*
X157760316Y-102624000D01*
X155185875Y-101586151D02*
X154600535Y-101768759D01*
X155474713Y-101481616D02*
X155185875Y-101586151D01*
X155672094Y-101249357D02*
X155474713Y-101481616D01*
X158110316Y-102624000D02*
X157760316Y-102624000D01*
X155356491Y-102131146D02*
X155726581Y-101695662D01*
X155726581Y-101695662D02*
X156075662Y-101695662D01*
X156075662Y-101695662D02*
X157404000Y-103024000D01*
X157404000Y-103024000D02*
X157760316Y-103024000D01*
X157760316Y-103024000D02*
X158110316Y-103024000D01*
X158110316Y-106624000D02*
X157760316Y-106624000D01*
X157760316Y-106624000D02*
X156839640Y-105841578D01*
X156839640Y-105841578D02*
X156550802Y-105946114D01*
X156550802Y-105946114D02*
X155965462Y-106128721D01*
X158110316Y-107024000D02*
X157760316Y-107024000D01*
X157760316Y-107024000D02*
X156894127Y-106287883D01*
X156894127Y-106287883D02*
X156721418Y-106491109D01*
X158110316Y-109776401D02*
X157760316Y-109776401D01*
X157760316Y-109776401D02*
X156552895Y-110802509D01*
X156552895Y-110802509D02*
X156380187Y-110599282D01*
X158110316Y-110176401D02*
X157760316Y-110176401D01*
X157760316Y-110176401D02*
X156498409Y-111248813D01*
X156498409Y-111248813D02*
X156209571Y-111144278D01*
X156209571Y-111144278D02*
X155624231Y-110961670D01*
X158110316Y-110576401D02*
X157760316Y-110576401D01*
X157760316Y-110576401D02*
X156211663Y-111892499D01*
X156211663Y-111892499D02*
X156038955Y-111689273D01*
X158110316Y-110976401D02*
X157760316Y-110976401D01*
X157760316Y-110976401D02*
X156157177Y-112338804D01*
X156157177Y-112338804D02*
X155868339Y-112234268D01*
X155868339Y-112234268D02*
X155282999Y-112051661D01*
X158110316Y-111376401D02*
X157760316Y-111376401D01*
X157760316Y-111376401D02*
X155870431Y-112982490D01*
X155870431Y-112982490D02*
X155697723Y-112779264D01*
X158110316Y-111776401D02*
X157760316Y-111776401D01*
X157760316Y-111776401D02*
X155815945Y-113428795D01*
X155815945Y-113428795D02*
X155527107Y-113324259D01*
X155527107Y-113324259D02*
X154941767Y-113141651D01*
X158110316Y-112176401D02*
X157760316Y-112176401D01*
X157760316Y-112176401D02*
X155529200Y-114072481D01*
X155529200Y-114072481D02*
X155356491Y-113869254D01*
X158110316Y-112576401D02*
X157760316Y-112576401D01*
X157760316Y-112576401D02*
X155474713Y-114518785D01*
X155474713Y-114518785D02*
X155185875Y-114414250D01*
X155185875Y-114414250D02*
X154600535Y-114231642D01*
X158110316Y-112976401D02*
X157760316Y-112976401D01*
X157760316Y-112976401D02*
X155187968Y-115162471D01*
X155187968Y-115162471D02*
X155015259Y-114959245D01*
X158110316Y-113376401D02*
X157760316Y-113376401D01*
X157760316Y-113376401D02*
X155133481Y-115608776D01*
X155133481Y-115608776D02*
X154844643Y-115504240D01*
X154844643Y-115504240D02*
X154259303Y-115321633D01*
X158110316Y-113776401D02*
X157760316Y-113776401D01*
X157760316Y-113776401D02*
X154846736Y-116252462D01*
X154846736Y-116252462D02*
X154674027Y-116049236D01*
X158110316Y-114176401D02*
X157760316Y-114176401D01*
X157760316Y-114176401D02*
X155512300Y-116086842D01*
X155512300Y-116086842D02*
X155568880Y-116388759D01*
X155568880Y-116388759D02*
X155658066Y-116995401D01*
X158110316Y-114576401D02*
X157760316Y-114576401D01*
X157760316Y-114576401D02*
X155961549Y-116105055D01*
X155961549Y-116105055D02*
X156134258Y-116308281D01*
X158110316Y-114976401D02*
X157760316Y-114976401D01*
X157760316Y-114976401D02*
X156643057Y-115925886D01*
X156643057Y-115925886D02*
X156699637Y-116227803D01*
X156699637Y-116227803D02*
X156788823Y-116834445D01*
X158110316Y-115376401D02*
X157760316Y-115376401D01*
X157760316Y-115376401D02*
X157092307Y-115944098D01*
X157092307Y-115944098D02*
X157265015Y-116147324D01*
D28*
G36*
X155770092Y-107106451D02*
X155954093Y-107106611D01*
X156166759Y-107319649D01*
X156526048Y-107468839D01*
X156915081Y-107469178D01*
X157087567Y-107397909D01*
X157125000Y-107622510D01*
X157125000Y-107626310D01*
X157126060Y-107628869D01*
X157166737Y-107872929D01*
X157125000Y-107973690D01*
X157125000Y-107991250D01*
X157133750Y-108000000D01*
X157125000Y-108008750D01*
X157125000Y-108026310D01*
X157196945Y-108200000D01*
X157125000Y-108373690D01*
X157125000Y-108391250D01*
X157133750Y-108400000D01*
X157125000Y-108408750D01*
X157125000Y-108426310D01*
X157196945Y-108600000D01*
X157125000Y-108773690D01*
X157125000Y-108791250D01*
X157133750Y-108800000D01*
X157125000Y-108808750D01*
X157125000Y-108826310D01*
X157174556Y-108945949D01*
X157126563Y-109169917D01*
X157125000Y-109173690D01*
X157125000Y-109177210D01*
X157071088Y-109428799D01*
X156756074Y-109696509D01*
X156575557Y-109621552D01*
X156186524Y-109621213D01*
X155826975Y-109769775D01*
X155612706Y-109983671D01*
X155530015Y-107006762D01*
X155770092Y-107106451D01*
X155770092Y-107106451D01*
G37*
X155770092Y-107106451D02*
X155954093Y-107106611D01*
X156166759Y-107319649D01*
X156526048Y-107468839D01*
X156915081Y-107469178D01*
X157087567Y-107397909D01*
X157125000Y-107622510D01*
X157125000Y-107626310D01*
X157126060Y-107628869D01*
X157166737Y-107872929D01*
X157125000Y-107973690D01*
X157125000Y-107991250D01*
X157133750Y-108000000D01*
X157125000Y-108008750D01*
X157125000Y-108026310D01*
X157196945Y-108200000D01*
X157125000Y-108373690D01*
X157125000Y-108391250D01*
X157133750Y-108400000D01*
X157125000Y-108408750D01*
X157125000Y-108426310D01*
X157196945Y-108600000D01*
X157125000Y-108773690D01*
X157125000Y-108791250D01*
X157133750Y-108800000D01*
X157125000Y-108808750D01*
X157125000Y-108826310D01*
X157174556Y-108945949D01*
X157126563Y-109169917D01*
X157125000Y-109173690D01*
X157125000Y-109177210D01*
X157071088Y-109428799D01*
X156756074Y-109696509D01*
X156575557Y-109621552D01*
X156186524Y-109621213D01*
X155826975Y-109769775D01*
X155612706Y-109983671D01*
X155530015Y-107006762D01*
X155770092Y-107106451D01*
M02*
