G04 #@! TF.FileFunction,Copper,L2,Bot,Signal*
%FSLAX46Y46*%
G04 Gerber Fmt 4.6, Leading zero omitted, Abs format (unit mm)*
G04 Created by KiCad (PCBNEW 4.0.1-stable) date Tuesday, January 19, 2016 'PMt' 05:37:16 PM*
%MOMM*%
G01*
G04 APERTURE LIST*
%ADD10C,0.100000*%
%ADD11C,0.010000*%
%ADD12R,0.660000X0.230000*%
%ADD13R,0.660000X0.350000*%
%ADD14R,1.200000X0.750000*%
%ADD15R,0.750000X0.300000*%
%ADD16R,0.875000X0.725000*%
%ADD17R,1.200000X0.900000*%
%ADD18C,1.524000*%
%ADD19C,0.685800*%
%ADD20C,0.685801*%
%ADD21C,0.152400*%
G04 APERTURE END LIST*
D10*
D11*
G36*
X142909423Y-93294931D02*
X142941094Y-93294428D01*
X142968725Y-93293379D01*
X142993824Y-93291660D01*
X143017893Y-93289149D01*
X143042439Y-93285724D01*
X143068967Y-93281260D01*
X143090931Y-93277185D01*
X143149786Y-93264422D01*
X143210883Y-93248355D01*
X143271336Y-93229818D01*
X143328260Y-93209646D01*
X143339639Y-93205223D01*
X143382817Y-93188030D01*
X143425192Y-93170892D01*
X143467150Y-93153630D01*
X143509080Y-93136063D01*
X143551369Y-93118011D01*
X143594404Y-93099293D01*
X143638573Y-93079729D01*
X143684265Y-93059138D01*
X143731866Y-93037341D01*
X143781764Y-93014156D01*
X143834347Y-92989403D01*
X143890003Y-92962901D01*
X143949118Y-92934472D01*
X144012082Y-92903933D01*
X144079280Y-92871104D01*
X144151102Y-92835806D01*
X144227935Y-92797857D01*
X144310166Y-92757077D01*
X144398183Y-92713286D01*
X144420903Y-92701963D01*
X144499183Y-92663019D01*
X144571702Y-92627120D01*
X144638949Y-92594039D01*
X144701415Y-92563552D01*
X144759589Y-92535433D01*
X144813962Y-92509455D01*
X144865024Y-92485394D01*
X144913265Y-92463022D01*
X144959175Y-92442115D01*
X145003244Y-92422447D01*
X145045962Y-92403792D01*
X145087819Y-92385924D01*
X145129306Y-92368618D01*
X145170912Y-92351647D01*
X145213128Y-92334787D01*
X145246403Y-92321719D01*
X145269926Y-92312482D01*
X145291319Y-92303963D01*
X145309688Y-92296527D01*
X145324143Y-92290540D01*
X145333791Y-92286365D01*
X145337732Y-92284376D01*
X145337199Y-92280281D01*
X145331987Y-92272263D01*
X145322739Y-92261032D01*
X145310100Y-92247296D01*
X145294712Y-92231764D01*
X145277219Y-92215145D01*
X145264178Y-92203343D01*
X145196199Y-92147242D01*
X145121764Y-92093747D01*
X145040994Y-92042914D01*
X144954011Y-91994800D01*
X144860938Y-91949462D01*
X144761897Y-91906957D01*
X144657009Y-91867342D01*
X144546398Y-91830673D01*
X144430185Y-91797008D01*
X144343292Y-91774704D01*
X144242697Y-91751462D01*
X144147709Y-91732133D01*
X144058081Y-91716697D01*
X143973561Y-91705132D01*
X143893901Y-91697420D01*
X143818851Y-91693538D01*
X143748163Y-91693465D01*
X143681587Y-91697182D01*
X143618874Y-91704668D01*
X143581082Y-91711340D01*
X143520450Y-91726252D01*
X143465094Y-91745633D01*
X143415086Y-91769410D01*
X143370499Y-91797509D01*
X143331404Y-91829858D01*
X143297873Y-91866383D01*
X143269979Y-91907012D01*
X143247795Y-91951671D01*
X143231392Y-92000287D01*
X143220842Y-92052786D01*
X143217903Y-92079060D01*
X143217085Y-92090167D01*
X143216149Y-92098302D01*
X143214111Y-92104006D01*
X143209991Y-92107822D01*
X143202806Y-92110290D01*
X143191575Y-92111954D01*
X143175315Y-92113354D01*
X143153045Y-92115033D01*
X143152667Y-92115063D01*
X143125115Y-92117290D01*
X143103944Y-92119184D01*
X143088491Y-92120834D01*
X143078094Y-92122327D01*
X143072090Y-92123751D01*
X143069817Y-92125193D01*
X143069918Y-92126026D01*
X143067973Y-92127335D01*
X143061139Y-92127560D01*
X143051468Y-92126886D01*
X143041010Y-92125503D01*
X143031817Y-92123597D01*
X143027431Y-92122141D01*
X143021923Y-92120624D01*
X143010616Y-92118164D01*
X142994669Y-92114992D01*
X142975241Y-92111335D01*
X142953489Y-92107422D01*
X142948056Y-92106471D01*
X142866570Y-92092964D01*
X142789154Y-92081591D01*
X142713266Y-92072013D01*
X142636367Y-92063891D01*
X142612917Y-92061706D01*
X142590487Y-92060112D01*
X142563281Y-92058879D01*
X142532652Y-92058007D01*
X142499951Y-92057496D01*
X142466529Y-92057348D01*
X142433738Y-92057562D01*
X142402930Y-92058139D01*
X142375455Y-92059080D01*
X142352666Y-92060385D01*
X142339514Y-92061598D01*
X142266686Y-92071253D01*
X142195829Y-92083140D01*
X142125068Y-92097651D01*
X142052527Y-92115178D01*
X141976331Y-92136110D01*
X141960857Y-92140632D01*
X141938243Y-92147425D01*
X141921577Y-92152778D01*
X141909982Y-92157041D01*
X141902578Y-92160562D01*
X141898490Y-92163691D01*
X141897057Y-92166032D01*
X141896091Y-92171145D01*
X141894509Y-92182439D01*
X141892410Y-92199075D01*
X141889895Y-92220217D01*
X141887063Y-92245025D01*
X141884013Y-92272662D01*
X141880918Y-92301608D01*
X141877321Y-92335601D01*
X141874435Y-92363243D01*
X141872312Y-92385209D01*
X141871001Y-92402170D01*
X141870553Y-92414802D01*
X141871018Y-92423777D01*
X141872447Y-92429770D01*
X141874890Y-92433453D01*
X141878397Y-92435501D01*
X141883018Y-92436587D01*
X141888805Y-92437385D01*
X141891091Y-92437717D01*
X141902337Y-92439746D01*
X141919389Y-92443203D01*
X141941193Y-92447849D01*
X141966700Y-92453445D01*
X141994858Y-92459751D01*
X142024615Y-92466529D01*
X142054921Y-92473539D01*
X142084725Y-92480543D01*
X142112975Y-92487300D01*
X142138620Y-92493573D01*
X142157833Y-92498407D01*
X142260462Y-92525766D01*
X142356453Y-92553603D01*
X142446213Y-92582055D01*
X142530153Y-92611258D01*
X142608680Y-92641350D01*
X142682203Y-92672466D01*
X142694056Y-92677787D01*
X142764730Y-92712240D01*
X142836700Y-92751978D01*
X142908246Y-92795908D01*
X142977648Y-92842934D01*
X143043190Y-92891963D01*
X143087403Y-92928214D01*
X143105065Y-92943577D01*
X143123398Y-92959988D01*
X143141684Y-92976756D01*
X143159206Y-92993190D01*
X143175249Y-93008599D01*
X143189095Y-93022291D01*
X143200027Y-93033576D01*
X143207329Y-93041762D01*
X143210283Y-93046159D01*
X143210219Y-93046632D01*
X143204114Y-93049881D01*
X143192137Y-93054203D01*
X143175347Y-93059337D01*
X143154801Y-93065020D01*
X143131556Y-93070989D01*
X143106670Y-93076981D01*
X143081199Y-93082735D01*
X143056201Y-93087987D01*
X143032732Y-93092474D01*
X143011852Y-93095935D01*
X143011556Y-93095979D01*
X142956513Y-93102523D01*
X142902179Y-93105577D01*
X142847039Y-93105107D01*
X142789581Y-93101077D01*
X142728289Y-93093452D01*
X142698461Y-93088739D01*
X142605204Y-93070150D01*
X142515771Y-93046293D01*
X142430377Y-93017275D01*
X142349234Y-92983203D01*
X142272557Y-92944182D01*
X142200558Y-92900319D01*
X142133451Y-92851720D01*
X142071449Y-92798491D01*
X142027949Y-92755085D01*
X141985574Y-92706444D01*
X141947536Y-92655667D01*
X141914493Y-92603770D01*
X141887105Y-92551770D01*
X141869656Y-92510645D01*
X141864680Y-92498231D01*
X141860056Y-92488063D01*
X141856789Y-92482348D01*
X141853532Y-92479042D01*
X141845631Y-92471330D01*
X141833561Y-92459666D01*
X141817793Y-92444504D01*
X141798801Y-92426296D01*
X141777057Y-92405496D01*
X141753034Y-92382558D01*
X141727205Y-92357935D01*
X141708042Y-92339691D01*
X141681341Y-92314263D01*
X141656208Y-92290288D01*
X141633104Y-92268206D01*
X141612486Y-92248460D01*
X141594813Y-92231487D01*
X141580545Y-92217730D01*
X141570139Y-92207629D01*
X141564055Y-92201624D01*
X141562607Y-92200078D01*
X141565572Y-92198301D01*
X141574384Y-92193948D01*
X141588436Y-92187299D01*
X141607123Y-92178632D01*
X141629836Y-92168227D01*
X141655972Y-92156363D01*
X141684923Y-92143317D01*
X141716083Y-92129370D01*
X141723468Y-92126077D01*
X141885126Y-92054058D01*
X141901981Y-91993786D01*
X141910094Y-91965801D01*
X141919941Y-91933466D01*
X141930916Y-91898653D01*
X141942411Y-91863238D01*
X141953817Y-91829093D01*
X141964527Y-91798093D01*
X141973511Y-91773243D01*
X141978959Y-91759557D01*
X141983479Y-91751083D01*
X141988136Y-91746267D01*
X141993830Y-91743608D01*
X142001132Y-91742442D01*
X142014453Y-91741504D01*
X142032760Y-91740791D01*
X142055020Y-91740303D01*
X142080201Y-91740035D01*
X142107269Y-91739987D01*
X142135192Y-91740155D01*
X142162937Y-91740539D01*
X142189472Y-91741134D01*
X142213763Y-91741940D01*
X142234777Y-91742954D01*
X142251319Y-91744159D01*
X142414261Y-91761788D01*
X142514139Y-91775162D01*
X142556859Y-91781600D01*
X142593678Y-91787900D01*
X142625734Y-91794376D01*
X142654167Y-91801339D01*
X142680116Y-91809101D01*
X142704721Y-91817975D01*
X142729122Y-91828273D01*
X142754457Y-91840306D01*
X142757556Y-91841853D01*
X142813115Y-91873187D01*
X142867664Y-91910789D01*
X142920233Y-91953872D01*
X142969852Y-92001647D01*
X143010314Y-92046958D01*
X143028347Y-92068681D01*
X143030748Y-92043431D01*
X143037775Y-91996009D01*
X143049681Y-91946832D01*
X143065802Y-91897776D01*
X143085477Y-91850718D01*
X143108042Y-91807537D01*
X143121719Y-91785711D01*
X143159340Y-91735994D01*
X143202141Y-91690997D01*
X143250037Y-91650749D01*
X143302937Y-91615277D01*
X143360757Y-91584611D01*
X143423406Y-91558777D01*
X143490799Y-91537803D01*
X143562848Y-91521718D01*
X143639465Y-91510549D01*
X143720562Y-91504324D01*
X143806053Y-91503071D01*
X143895848Y-91506818D01*
X143974639Y-91513861D01*
X144047782Y-91523178D01*
X144125875Y-91535491D01*
X144207621Y-91550519D01*
X144291724Y-91567976D01*
X144376887Y-91587582D01*
X144461813Y-91609051D01*
X144545205Y-91632101D01*
X144621986Y-91655255D01*
X144719460Y-91687888D01*
X144813786Y-91723330D01*
X144904613Y-91761371D01*
X144991592Y-91801797D01*
X145074372Y-91844400D01*
X145152604Y-91888966D01*
X145225937Y-91935286D01*
X145294021Y-91983147D01*
X145356506Y-92032339D01*
X145413041Y-92082650D01*
X145463278Y-92133869D01*
X145506865Y-92185785D01*
X145511516Y-92191897D01*
X145521132Y-92204324D01*
X145527892Y-92211896D01*
X145532929Y-92215578D01*
X145537377Y-92216336D01*
X145539726Y-92215921D01*
X145559163Y-92211612D01*
X145584240Y-92206930D01*
X145613568Y-92202078D01*
X145645757Y-92197263D01*
X145679415Y-92192687D01*
X145713152Y-92188557D01*
X145745578Y-92185077D01*
X145756167Y-92184068D01*
X145787905Y-92181538D01*
X145819888Y-92179816D01*
X145852791Y-92178933D01*
X145887290Y-92178920D01*
X145924060Y-92179806D01*
X145963775Y-92181623D01*
X146007113Y-92184401D01*
X146054746Y-92188171D01*
X146107352Y-92192963D01*
X146165605Y-92198808D01*
X146227125Y-92205400D01*
X146316165Y-92215763D01*
X146411639Y-92227982D01*
X146513193Y-92241993D01*
X146620469Y-92257731D01*
X146733115Y-92275132D01*
X146850774Y-92294133D01*
X146973091Y-92314668D01*
X147099712Y-92336674D01*
X147230280Y-92360086D01*
X147364441Y-92384840D01*
X147501840Y-92410872D01*
X147642121Y-92438118D01*
X147784930Y-92466514D01*
X147929911Y-92495994D01*
X148076709Y-92526495D01*
X148224969Y-92557954D01*
X148374335Y-92590304D01*
X148461972Y-92609592D01*
X148506466Y-92619446D01*
X148544684Y-92627733D01*
X148577258Y-92634320D01*
X148604823Y-92639072D01*
X148628011Y-92641854D01*
X148647455Y-92642532D01*
X148663788Y-92640972D01*
X148677642Y-92637038D01*
X148689652Y-92630596D01*
X148700449Y-92621512D01*
X148710667Y-92609652D01*
X148720938Y-92594880D01*
X148731896Y-92577062D01*
X148744174Y-92556064D01*
X148748453Y-92548705D01*
X148785722Y-92482928D01*
X148820654Y-92417678D01*
X148852855Y-92353786D01*
X148881929Y-92292085D01*
X148907481Y-92233406D01*
X148929117Y-92178581D01*
X148942982Y-92139141D01*
X148958442Y-92086728D01*
X148969158Y-92037816D01*
X148975158Y-91992633D01*
X148976469Y-91951406D01*
X148973119Y-91914365D01*
X148965134Y-91881738D01*
X148952543Y-91853753D01*
X148935372Y-91830638D01*
X148913649Y-91812622D01*
X148903124Y-91806605D01*
X148892991Y-91801846D01*
X148881941Y-91797476D01*
X148869615Y-91793467D01*
X148855657Y-91789791D01*
X148839709Y-91786419D01*
X148821413Y-91783323D01*
X148800414Y-91780476D01*
X148776352Y-91777848D01*
X148748872Y-91775413D01*
X148717615Y-91773141D01*
X148682225Y-91771005D01*
X148642343Y-91768977D01*
X148597613Y-91767027D01*
X148547677Y-91765129D01*
X148492178Y-91763254D01*
X148430759Y-91761374D01*
X148363062Y-91759460D01*
X148288731Y-91757485D01*
X148275000Y-91757131D01*
X148152923Y-91753793D01*
X148037344Y-91750214D01*
X147927707Y-91746361D01*
X147823456Y-91742206D01*
X147724037Y-91737716D01*
X147628895Y-91732862D01*
X147537474Y-91727612D01*
X147449219Y-91721936D01*
X147363574Y-91715804D01*
X147279985Y-91709184D01*
X147197897Y-91702046D01*
X147116754Y-91694360D01*
X147089667Y-91691655D01*
X146960967Y-91677823D01*
X146836502Y-91662727D01*
X146715523Y-91646195D01*
X146597281Y-91628059D01*
X146481028Y-91608149D01*
X146366016Y-91586295D01*
X146251496Y-91562329D01*
X146136721Y-91536080D01*
X146020941Y-91507380D01*
X145903408Y-91476058D01*
X145783373Y-91441946D01*
X145660090Y-91404873D01*
X145532808Y-91364671D01*
X145400780Y-91321170D01*
X145295792Y-91285449D01*
X145245932Y-91267941D01*
X145198400Y-91250515D01*
X145152527Y-91232850D01*
X145107643Y-91214626D01*
X145063080Y-91195524D01*
X145018167Y-91175221D01*
X144972235Y-91153399D01*
X144924615Y-91129737D01*
X144874637Y-91103915D01*
X144821633Y-91075612D01*
X144764932Y-91044508D01*
X144703865Y-91010283D01*
X144637763Y-90972616D01*
X144616694Y-90960507D01*
X144558073Y-90926777D01*
X144505102Y-90896349D01*
X144457334Y-90868975D01*
X144414321Y-90844409D01*
X144375616Y-90822404D01*
X144340771Y-90802713D01*
X144309338Y-90785090D01*
X144280870Y-90769286D01*
X144254919Y-90755056D01*
X144231037Y-90742152D01*
X144208777Y-90730328D01*
X144187692Y-90719336D01*
X144167332Y-90708930D01*
X144147252Y-90698862D01*
X144127003Y-90688887D01*
X144106138Y-90678756D01*
X144104306Y-90677872D01*
X144036867Y-90646435D01*
X143973250Y-90619181D01*
X143912082Y-90595718D01*
X143851992Y-90575655D01*
X143791609Y-90558598D01*
X143729560Y-90544156D01*
X143664474Y-90531936D01*
X143594978Y-90521546D01*
X143530139Y-90513721D01*
X143489152Y-90509961D01*
X143443206Y-90507001D01*
X143394358Y-90504895D01*
X143344663Y-90503699D01*
X143296179Y-90503468D01*
X143250962Y-90504256D01*
X143221458Y-90505492D01*
X143141912Y-90512135D01*
X143061456Y-90523257D01*
X142981278Y-90538557D01*
X142902567Y-90557737D01*
X142826511Y-90580499D01*
X142754298Y-90606544D01*
X142687116Y-90635573D01*
X142669008Y-90644375D01*
X142588028Y-90688628D01*
X142508806Y-90739592D01*
X142431482Y-90797107D01*
X142356195Y-90861017D01*
X142283086Y-90931164D01*
X142212295Y-91007390D01*
X142143960Y-91089537D01*
X142078223Y-91177448D01*
X142015222Y-91270964D01*
X141955097Y-91369930D01*
X141897989Y-91474186D01*
X141852897Y-91564799D01*
X141834559Y-91604713D01*
X141816937Y-91646078D01*
X141799526Y-91690186D01*
X141781819Y-91738328D01*
X141763310Y-91791796D01*
X141758965Y-91804750D01*
X141751296Y-91828196D01*
X141743193Y-91853786D01*
X141735008Y-91880327D01*
X141727093Y-91906627D01*
X141719801Y-91931492D01*
X141713485Y-91953731D01*
X141708496Y-91972152D01*
X141705187Y-91985560D01*
X141704378Y-91989442D01*
X141702209Y-92001004D01*
X141497595Y-92083572D01*
X141461615Y-92098117D01*
X141427607Y-92111915D01*
X141396132Y-92124734D01*
X141367748Y-92136346D01*
X141343014Y-92146520D01*
X141322490Y-92155026D01*
X141306734Y-92161633D01*
X141296307Y-92166111D01*
X141291768Y-92168231D01*
X141291619Y-92168344D01*
X141293960Y-92170994D01*
X141301162Y-92177950D01*
X141312812Y-92188837D01*
X141328495Y-92203276D01*
X141347797Y-92220892D01*
X141370304Y-92241306D01*
X141395601Y-92264141D01*
X141423274Y-92289021D01*
X141452909Y-92315568D01*
X141478286Y-92338231D01*
X141514302Y-92370360D01*
X141545416Y-92398154D01*
X141571998Y-92421967D01*
X141594415Y-92442152D01*
X141613038Y-92459065D01*
X141628235Y-92473058D01*
X141640376Y-92484487D01*
X141649830Y-92493706D01*
X141656965Y-92501069D01*
X141662152Y-92506929D01*
X141665759Y-92511642D01*
X141668156Y-92515561D01*
X141669712Y-92519041D01*
X141670795Y-92522435D01*
X141670979Y-92523103D01*
X141677388Y-92543652D01*
X141686490Y-92568602D01*
X141697560Y-92596184D01*
X141709874Y-92624625D01*
X141722705Y-92652157D01*
X141729300Y-92665446D01*
X141761749Y-92723655D01*
X141798977Y-92779780D01*
X141841666Y-92834751D01*
X141890499Y-92889498D01*
X141903642Y-92903151D01*
X141959151Y-92956690D01*
X142016431Y-93005173D01*
X142076685Y-93049469D01*
X142141117Y-93090443D01*
X142210931Y-93128963D01*
X142231917Y-93139580D01*
X142299971Y-93171452D01*
X142367985Y-93199287D01*
X142437187Y-93223459D01*
X142508807Y-93244341D01*
X142584072Y-93262308D01*
X142664212Y-93277732D01*
X142710680Y-93285248D01*
X142730516Y-93288168D01*
X142747844Y-93290434D01*
X142764061Y-93292130D01*
X142780562Y-93293341D01*
X142798742Y-93294152D01*
X142819998Y-93294645D01*
X142845724Y-93294906D01*
X142872208Y-93295009D01*
X142909423Y-93294931D01*
X142909423Y-93294931D01*
G37*
X142909423Y-93294931D02*
X142941094Y-93294428D01*
X142968725Y-93293379D01*
X142993824Y-93291660D01*
X143017893Y-93289149D01*
X143042439Y-93285724D01*
X143068967Y-93281260D01*
X143090931Y-93277185D01*
X143149786Y-93264422D01*
X143210883Y-93248355D01*
X143271336Y-93229818D01*
X143328260Y-93209646D01*
X143339639Y-93205223D01*
X143382817Y-93188030D01*
X143425192Y-93170892D01*
X143467150Y-93153630D01*
X143509080Y-93136063D01*
X143551369Y-93118011D01*
X143594404Y-93099293D01*
X143638573Y-93079729D01*
X143684265Y-93059138D01*
X143731866Y-93037341D01*
X143781764Y-93014156D01*
X143834347Y-92989403D01*
X143890003Y-92962901D01*
X143949118Y-92934472D01*
X144012082Y-92903933D01*
X144079280Y-92871104D01*
X144151102Y-92835806D01*
X144227935Y-92797857D01*
X144310166Y-92757077D01*
X144398183Y-92713286D01*
X144420903Y-92701963D01*
X144499183Y-92663019D01*
X144571702Y-92627120D01*
X144638949Y-92594039D01*
X144701415Y-92563552D01*
X144759589Y-92535433D01*
X144813962Y-92509455D01*
X144865024Y-92485394D01*
X144913265Y-92463022D01*
X144959175Y-92442115D01*
X145003244Y-92422447D01*
X145045962Y-92403792D01*
X145087819Y-92385924D01*
X145129306Y-92368618D01*
X145170912Y-92351647D01*
X145213128Y-92334787D01*
X145246403Y-92321719D01*
X145269926Y-92312482D01*
X145291319Y-92303963D01*
X145309688Y-92296527D01*
X145324143Y-92290540D01*
X145333791Y-92286365D01*
X145337732Y-92284376D01*
X145337199Y-92280281D01*
X145331987Y-92272263D01*
X145322739Y-92261032D01*
X145310100Y-92247296D01*
X145294712Y-92231764D01*
X145277219Y-92215145D01*
X145264178Y-92203343D01*
X145196199Y-92147242D01*
X145121764Y-92093747D01*
X145040994Y-92042914D01*
X144954011Y-91994800D01*
X144860938Y-91949462D01*
X144761897Y-91906957D01*
X144657009Y-91867342D01*
X144546398Y-91830673D01*
X144430185Y-91797008D01*
X144343292Y-91774704D01*
X144242697Y-91751462D01*
X144147709Y-91732133D01*
X144058081Y-91716697D01*
X143973561Y-91705132D01*
X143893901Y-91697420D01*
X143818851Y-91693538D01*
X143748163Y-91693465D01*
X143681587Y-91697182D01*
X143618874Y-91704668D01*
X143581082Y-91711340D01*
X143520450Y-91726252D01*
X143465094Y-91745633D01*
X143415086Y-91769410D01*
X143370499Y-91797509D01*
X143331404Y-91829858D01*
X143297873Y-91866383D01*
X143269979Y-91907012D01*
X143247795Y-91951671D01*
X143231392Y-92000287D01*
X143220842Y-92052786D01*
X143217903Y-92079060D01*
X143217085Y-92090167D01*
X143216149Y-92098302D01*
X143214111Y-92104006D01*
X143209991Y-92107822D01*
X143202806Y-92110290D01*
X143191575Y-92111954D01*
X143175315Y-92113354D01*
X143153045Y-92115033D01*
X143152667Y-92115063D01*
X143125115Y-92117290D01*
X143103944Y-92119184D01*
X143088491Y-92120834D01*
X143078094Y-92122327D01*
X143072090Y-92123751D01*
X143069817Y-92125193D01*
X143069918Y-92126026D01*
X143067973Y-92127335D01*
X143061139Y-92127560D01*
X143051468Y-92126886D01*
X143041010Y-92125503D01*
X143031817Y-92123597D01*
X143027431Y-92122141D01*
X143021923Y-92120624D01*
X143010616Y-92118164D01*
X142994669Y-92114992D01*
X142975241Y-92111335D01*
X142953489Y-92107422D01*
X142948056Y-92106471D01*
X142866570Y-92092964D01*
X142789154Y-92081591D01*
X142713266Y-92072013D01*
X142636367Y-92063891D01*
X142612917Y-92061706D01*
X142590487Y-92060112D01*
X142563281Y-92058879D01*
X142532652Y-92058007D01*
X142499951Y-92057496D01*
X142466529Y-92057348D01*
X142433738Y-92057562D01*
X142402930Y-92058139D01*
X142375455Y-92059080D01*
X142352666Y-92060385D01*
X142339514Y-92061598D01*
X142266686Y-92071253D01*
X142195829Y-92083140D01*
X142125068Y-92097651D01*
X142052527Y-92115178D01*
X141976331Y-92136110D01*
X141960857Y-92140632D01*
X141938243Y-92147425D01*
X141921577Y-92152778D01*
X141909982Y-92157041D01*
X141902578Y-92160562D01*
X141898490Y-92163691D01*
X141897057Y-92166032D01*
X141896091Y-92171145D01*
X141894509Y-92182439D01*
X141892410Y-92199075D01*
X141889895Y-92220217D01*
X141887063Y-92245025D01*
X141884013Y-92272662D01*
X141880918Y-92301608D01*
X141877321Y-92335601D01*
X141874435Y-92363243D01*
X141872312Y-92385209D01*
X141871001Y-92402170D01*
X141870553Y-92414802D01*
X141871018Y-92423777D01*
X141872447Y-92429770D01*
X141874890Y-92433453D01*
X141878397Y-92435501D01*
X141883018Y-92436587D01*
X141888805Y-92437385D01*
X141891091Y-92437717D01*
X141902337Y-92439746D01*
X141919389Y-92443203D01*
X141941193Y-92447849D01*
X141966700Y-92453445D01*
X141994858Y-92459751D01*
X142024615Y-92466529D01*
X142054921Y-92473539D01*
X142084725Y-92480543D01*
X142112975Y-92487300D01*
X142138620Y-92493573D01*
X142157833Y-92498407D01*
X142260462Y-92525766D01*
X142356453Y-92553603D01*
X142446213Y-92582055D01*
X142530153Y-92611258D01*
X142608680Y-92641350D01*
X142682203Y-92672466D01*
X142694056Y-92677787D01*
X142764730Y-92712240D01*
X142836700Y-92751978D01*
X142908246Y-92795908D01*
X142977648Y-92842934D01*
X143043190Y-92891963D01*
X143087403Y-92928214D01*
X143105065Y-92943577D01*
X143123398Y-92959988D01*
X143141684Y-92976756D01*
X143159206Y-92993190D01*
X143175249Y-93008599D01*
X143189095Y-93022291D01*
X143200027Y-93033576D01*
X143207329Y-93041762D01*
X143210283Y-93046159D01*
X143210219Y-93046632D01*
X143204114Y-93049881D01*
X143192137Y-93054203D01*
X143175347Y-93059337D01*
X143154801Y-93065020D01*
X143131556Y-93070989D01*
X143106670Y-93076981D01*
X143081199Y-93082735D01*
X143056201Y-93087987D01*
X143032732Y-93092474D01*
X143011852Y-93095935D01*
X143011556Y-93095979D01*
X142956513Y-93102523D01*
X142902179Y-93105577D01*
X142847039Y-93105107D01*
X142789581Y-93101077D01*
X142728289Y-93093452D01*
X142698461Y-93088739D01*
X142605204Y-93070150D01*
X142515771Y-93046293D01*
X142430377Y-93017275D01*
X142349234Y-92983203D01*
X142272557Y-92944182D01*
X142200558Y-92900319D01*
X142133451Y-92851720D01*
X142071449Y-92798491D01*
X142027949Y-92755085D01*
X141985574Y-92706444D01*
X141947536Y-92655667D01*
X141914493Y-92603770D01*
X141887105Y-92551770D01*
X141869656Y-92510645D01*
X141864680Y-92498231D01*
X141860056Y-92488063D01*
X141856789Y-92482348D01*
X141853532Y-92479042D01*
X141845631Y-92471330D01*
X141833561Y-92459666D01*
X141817793Y-92444504D01*
X141798801Y-92426296D01*
X141777057Y-92405496D01*
X141753034Y-92382558D01*
X141727205Y-92357935D01*
X141708042Y-92339691D01*
X141681341Y-92314263D01*
X141656208Y-92290288D01*
X141633104Y-92268206D01*
X141612486Y-92248460D01*
X141594813Y-92231487D01*
X141580545Y-92217730D01*
X141570139Y-92207629D01*
X141564055Y-92201624D01*
X141562607Y-92200078D01*
X141565572Y-92198301D01*
X141574384Y-92193948D01*
X141588436Y-92187299D01*
X141607123Y-92178632D01*
X141629836Y-92168227D01*
X141655972Y-92156363D01*
X141684923Y-92143317D01*
X141716083Y-92129370D01*
X141723468Y-92126077D01*
X141885126Y-92054058D01*
X141901981Y-91993786D01*
X141910094Y-91965801D01*
X141919941Y-91933466D01*
X141930916Y-91898653D01*
X141942411Y-91863238D01*
X141953817Y-91829093D01*
X141964527Y-91798093D01*
X141973511Y-91773243D01*
X141978959Y-91759557D01*
X141983479Y-91751083D01*
X141988136Y-91746267D01*
X141993830Y-91743608D01*
X142001132Y-91742442D01*
X142014453Y-91741504D01*
X142032760Y-91740791D01*
X142055020Y-91740303D01*
X142080201Y-91740035D01*
X142107269Y-91739987D01*
X142135192Y-91740155D01*
X142162937Y-91740539D01*
X142189472Y-91741134D01*
X142213763Y-91741940D01*
X142234777Y-91742954D01*
X142251319Y-91744159D01*
X142414261Y-91761788D01*
X142514139Y-91775162D01*
X142556859Y-91781600D01*
X142593678Y-91787900D01*
X142625734Y-91794376D01*
X142654167Y-91801339D01*
X142680116Y-91809101D01*
X142704721Y-91817975D01*
X142729122Y-91828273D01*
X142754457Y-91840306D01*
X142757556Y-91841853D01*
X142813115Y-91873187D01*
X142867664Y-91910789D01*
X142920233Y-91953872D01*
X142969852Y-92001647D01*
X143010314Y-92046958D01*
X143028347Y-92068681D01*
X143030748Y-92043431D01*
X143037775Y-91996009D01*
X143049681Y-91946832D01*
X143065802Y-91897776D01*
X143085477Y-91850718D01*
X143108042Y-91807537D01*
X143121719Y-91785711D01*
X143159340Y-91735994D01*
X143202141Y-91690997D01*
X143250037Y-91650749D01*
X143302937Y-91615277D01*
X143360757Y-91584611D01*
X143423406Y-91558777D01*
X143490799Y-91537803D01*
X143562848Y-91521718D01*
X143639465Y-91510549D01*
X143720562Y-91504324D01*
X143806053Y-91503071D01*
X143895848Y-91506818D01*
X143974639Y-91513861D01*
X144047782Y-91523178D01*
X144125875Y-91535491D01*
X144207621Y-91550519D01*
X144291724Y-91567976D01*
X144376887Y-91587582D01*
X144461813Y-91609051D01*
X144545205Y-91632101D01*
X144621986Y-91655255D01*
X144719460Y-91687888D01*
X144813786Y-91723330D01*
X144904613Y-91761371D01*
X144991592Y-91801797D01*
X145074372Y-91844400D01*
X145152604Y-91888966D01*
X145225937Y-91935286D01*
X145294021Y-91983147D01*
X145356506Y-92032339D01*
X145413041Y-92082650D01*
X145463278Y-92133869D01*
X145506865Y-92185785D01*
X145511516Y-92191897D01*
X145521132Y-92204324D01*
X145527892Y-92211896D01*
X145532929Y-92215578D01*
X145537377Y-92216336D01*
X145539726Y-92215921D01*
X145559163Y-92211612D01*
X145584240Y-92206930D01*
X145613568Y-92202078D01*
X145645757Y-92197263D01*
X145679415Y-92192687D01*
X145713152Y-92188557D01*
X145745578Y-92185077D01*
X145756167Y-92184068D01*
X145787905Y-92181538D01*
X145819888Y-92179816D01*
X145852791Y-92178933D01*
X145887290Y-92178920D01*
X145924060Y-92179806D01*
X145963775Y-92181623D01*
X146007113Y-92184401D01*
X146054746Y-92188171D01*
X146107352Y-92192963D01*
X146165605Y-92198808D01*
X146227125Y-92205400D01*
X146316165Y-92215763D01*
X146411639Y-92227982D01*
X146513193Y-92241993D01*
X146620469Y-92257731D01*
X146733115Y-92275132D01*
X146850774Y-92294133D01*
X146973091Y-92314668D01*
X147099712Y-92336674D01*
X147230280Y-92360086D01*
X147364441Y-92384840D01*
X147501840Y-92410872D01*
X147642121Y-92438118D01*
X147784930Y-92466514D01*
X147929911Y-92495994D01*
X148076709Y-92526495D01*
X148224969Y-92557954D01*
X148374335Y-92590304D01*
X148461972Y-92609592D01*
X148506466Y-92619446D01*
X148544684Y-92627733D01*
X148577258Y-92634320D01*
X148604823Y-92639072D01*
X148628011Y-92641854D01*
X148647455Y-92642532D01*
X148663788Y-92640972D01*
X148677642Y-92637038D01*
X148689652Y-92630596D01*
X148700449Y-92621512D01*
X148710667Y-92609652D01*
X148720938Y-92594880D01*
X148731896Y-92577062D01*
X148744174Y-92556064D01*
X148748453Y-92548705D01*
X148785722Y-92482928D01*
X148820654Y-92417678D01*
X148852855Y-92353786D01*
X148881929Y-92292085D01*
X148907481Y-92233406D01*
X148929117Y-92178581D01*
X148942982Y-92139141D01*
X148958442Y-92086728D01*
X148969158Y-92037816D01*
X148975158Y-91992633D01*
X148976469Y-91951406D01*
X148973119Y-91914365D01*
X148965134Y-91881738D01*
X148952543Y-91853753D01*
X148935372Y-91830638D01*
X148913649Y-91812622D01*
X148903124Y-91806605D01*
X148892991Y-91801846D01*
X148881941Y-91797476D01*
X148869615Y-91793467D01*
X148855657Y-91789791D01*
X148839709Y-91786419D01*
X148821413Y-91783323D01*
X148800414Y-91780476D01*
X148776352Y-91777848D01*
X148748872Y-91775413D01*
X148717615Y-91773141D01*
X148682225Y-91771005D01*
X148642343Y-91768977D01*
X148597613Y-91767027D01*
X148547677Y-91765129D01*
X148492178Y-91763254D01*
X148430759Y-91761374D01*
X148363062Y-91759460D01*
X148288731Y-91757485D01*
X148275000Y-91757131D01*
X148152923Y-91753793D01*
X148037344Y-91750214D01*
X147927707Y-91746361D01*
X147823456Y-91742206D01*
X147724037Y-91737716D01*
X147628895Y-91732862D01*
X147537474Y-91727612D01*
X147449219Y-91721936D01*
X147363574Y-91715804D01*
X147279985Y-91709184D01*
X147197897Y-91702046D01*
X147116754Y-91694360D01*
X147089667Y-91691655D01*
X146960967Y-91677823D01*
X146836502Y-91662727D01*
X146715523Y-91646195D01*
X146597281Y-91628059D01*
X146481028Y-91608149D01*
X146366016Y-91586295D01*
X146251496Y-91562329D01*
X146136721Y-91536080D01*
X146020941Y-91507380D01*
X145903408Y-91476058D01*
X145783373Y-91441946D01*
X145660090Y-91404873D01*
X145532808Y-91364671D01*
X145400780Y-91321170D01*
X145295792Y-91285449D01*
X145245932Y-91267941D01*
X145198400Y-91250515D01*
X145152527Y-91232850D01*
X145107643Y-91214626D01*
X145063080Y-91195524D01*
X145018167Y-91175221D01*
X144972235Y-91153399D01*
X144924615Y-91129737D01*
X144874637Y-91103915D01*
X144821633Y-91075612D01*
X144764932Y-91044508D01*
X144703865Y-91010283D01*
X144637763Y-90972616D01*
X144616694Y-90960507D01*
X144558073Y-90926777D01*
X144505102Y-90896349D01*
X144457334Y-90868975D01*
X144414321Y-90844409D01*
X144375616Y-90822404D01*
X144340771Y-90802713D01*
X144309338Y-90785090D01*
X144280870Y-90769286D01*
X144254919Y-90755056D01*
X144231037Y-90742152D01*
X144208777Y-90730328D01*
X144187692Y-90719336D01*
X144167332Y-90708930D01*
X144147252Y-90698862D01*
X144127003Y-90688887D01*
X144106138Y-90678756D01*
X144104306Y-90677872D01*
X144036867Y-90646435D01*
X143973250Y-90619181D01*
X143912082Y-90595718D01*
X143851992Y-90575655D01*
X143791609Y-90558598D01*
X143729560Y-90544156D01*
X143664474Y-90531936D01*
X143594978Y-90521546D01*
X143530139Y-90513721D01*
X143489152Y-90509961D01*
X143443206Y-90507001D01*
X143394358Y-90504895D01*
X143344663Y-90503699D01*
X143296179Y-90503468D01*
X143250962Y-90504256D01*
X143221458Y-90505492D01*
X143141912Y-90512135D01*
X143061456Y-90523257D01*
X142981278Y-90538557D01*
X142902567Y-90557737D01*
X142826511Y-90580499D01*
X142754298Y-90606544D01*
X142687116Y-90635573D01*
X142669008Y-90644375D01*
X142588028Y-90688628D01*
X142508806Y-90739592D01*
X142431482Y-90797107D01*
X142356195Y-90861017D01*
X142283086Y-90931164D01*
X142212295Y-91007390D01*
X142143960Y-91089537D01*
X142078223Y-91177448D01*
X142015222Y-91270964D01*
X141955097Y-91369930D01*
X141897989Y-91474186D01*
X141852897Y-91564799D01*
X141834559Y-91604713D01*
X141816937Y-91646078D01*
X141799526Y-91690186D01*
X141781819Y-91738328D01*
X141763310Y-91791796D01*
X141758965Y-91804750D01*
X141751296Y-91828196D01*
X141743193Y-91853786D01*
X141735008Y-91880327D01*
X141727093Y-91906627D01*
X141719801Y-91931492D01*
X141713485Y-91953731D01*
X141708496Y-91972152D01*
X141705187Y-91985560D01*
X141704378Y-91989442D01*
X141702209Y-92001004D01*
X141497595Y-92083572D01*
X141461615Y-92098117D01*
X141427607Y-92111915D01*
X141396132Y-92124734D01*
X141367748Y-92136346D01*
X141343014Y-92146520D01*
X141322490Y-92155026D01*
X141306734Y-92161633D01*
X141296307Y-92166111D01*
X141291768Y-92168231D01*
X141291619Y-92168344D01*
X141293960Y-92170994D01*
X141301162Y-92177950D01*
X141312812Y-92188837D01*
X141328495Y-92203276D01*
X141347797Y-92220892D01*
X141370304Y-92241306D01*
X141395601Y-92264141D01*
X141423274Y-92289021D01*
X141452909Y-92315568D01*
X141478286Y-92338231D01*
X141514302Y-92370360D01*
X141545416Y-92398154D01*
X141571998Y-92421967D01*
X141594415Y-92442152D01*
X141613038Y-92459065D01*
X141628235Y-92473058D01*
X141640376Y-92484487D01*
X141649830Y-92493706D01*
X141656965Y-92501069D01*
X141662152Y-92506929D01*
X141665759Y-92511642D01*
X141668156Y-92515561D01*
X141669712Y-92519041D01*
X141670795Y-92522435D01*
X141670979Y-92523103D01*
X141677388Y-92543652D01*
X141686490Y-92568602D01*
X141697560Y-92596184D01*
X141709874Y-92624625D01*
X141722705Y-92652157D01*
X141729300Y-92665446D01*
X141761749Y-92723655D01*
X141798977Y-92779780D01*
X141841666Y-92834751D01*
X141890499Y-92889498D01*
X141903642Y-92903151D01*
X141959151Y-92956690D01*
X142016431Y-93005173D01*
X142076685Y-93049469D01*
X142141117Y-93090443D01*
X142210931Y-93128963D01*
X142231917Y-93139580D01*
X142299971Y-93171452D01*
X142367985Y-93199287D01*
X142437187Y-93223459D01*
X142508807Y-93244341D01*
X142584072Y-93262308D01*
X142664212Y-93277732D01*
X142710680Y-93285248D01*
X142730516Y-93288168D01*
X142747844Y-93290434D01*
X142764061Y-93292130D01*
X142780562Y-93293341D01*
X142798742Y-93294152D01*
X142819998Y-93294645D01*
X142845724Y-93294906D01*
X142872208Y-93295009D01*
X142909423Y-93294931D01*
D12*
X161005000Y-115800000D03*
X158295000Y-115800000D03*
X161005000Y-100200000D03*
X158295000Y-100200000D03*
X161005000Y-115400000D03*
X161005000Y-115000000D03*
X161005000Y-114600000D03*
X161005000Y-114200000D03*
X161005000Y-113800000D03*
X161005000Y-113400000D03*
X161005000Y-113000000D03*
X161005000Y-112600000D03*
X161005000Y-112200000D03*
X161005000Y-111800000D03*
X161005000Y-111400000D03*
X161005000Y-111000000D03*
X161005000Y-110600000D03*
X161005000Y-110200000D03*
X161005000Y-109800000D03*
X161005000Y-109400000D03*
X161005000Y-109000000D03*
X161005000Y-108600000D03*
X161005000Y-108200000D03*
X161005000Y-107800000D03*
X161005000Y-107400000D03*
X161005000Y-107000000D03*
X161005000Y-106600000D03*
X161005000Y-106200000D03*
X161005000Y-105800000D03*
X161005000Y-105400000D03*
X161005000Y-105000000D03*
X161005000Y-104600000D03*
X161005000Y-104200000D03*
X161005000Y-103800000D03*
X161005000Y-103400000D03*
X161005000Y-103000000D03*
X161005000Y-102600000D03*
X161005000Y-102200000D03*
X161005000Y-101800000D03*
X161005000Y-101400000D03*
X161005000Y-101000000D03*
X161005000Y-100600000D03*
D13*
X161005000Y-99725000D03*
X158295000Y-99725000D03*
X161005000Y-116275000D03*
X158295000Y-116275000D03*
D12*
X158295000Y-100600000D03*
X158295000Y-101000000D03*
X158295000Y-101400000D03*
X158295000Y-101800000D03*
X158295000Y-102200000D03*
X158295000Y-102600000D03*
X158295000Y-103000000D03*
X158295000Y-103400000D03*
X158295000Y-103800000D03*
X158295000Y-104200000D03*
X158295000Y-104600000D03*
X158295000Y-105000000D03*
X158295000Y-105400000D03*
X158295000Y-105800000D03*
X158295000Y-106200000D03*
X158295000Y-106600000D03*
X158295000Y-107000000D03*
X158295000Y-107400000D03*
X158295000Y-107800000D03*
X158295000Y-108200000D03*
X158295000Y-108600000D03*
X158295000Y-109000000D03*
X158295000Y-109400000D03*
X158295000Y-109800000D03*
X158295000Y-110200000D03*
X158295000Y-110600000D03*
X158295000Y-111000000D03*
X158295000Y-111400000D03*
X158295000Y-111800000D03*
X158295000Y-112200000D03*
X158295000Y-112600000D03*
X158295000Y-113000000D03*
X158295000Y-113400000D03*
X158295000Y-113800000D03*
X158295000Y-114200000D03*
X158295000Y-114600000D03*
X158295000Y-115000000D03*
X158295000Y-115400000D03*
D14*
X156250000Y-95900000D03*
X158150000Y-95900000D03*
D15*
X158712500Y-92862500D03*
X158712500Y-93362500D03*
X158712500Y-93862500D03*
X158712500Y-94362500D03*
X155812500Y-94362500D03*
X155812500Y-93862500D03*
X155812500Y-93362500D03*
X155812500Y-92862500D03*
D16*
X156825000Y-93975000D03*
X156825000Y-93250000D03*
X157700000Y-93975000D03*
X157700000Y-93250000D03*
D17*
X156550000Y-91200000D03*
X154350000Y-91200000D03*
D18*
X158550000Y-91250000D03*
D19*
X162950000Y-97849974D03*
X162500000Y-95300000D03*
X137900000Y-94200000D03*
X152600000Y-92800000D03*
X138000000Y-117600000D03*
X143700000Y-113600000D03*
X138400000Y-109400000D03*
X144800000Y-104300000D03*
D20*
X163335170Y-106128721D03*
X162579214Y-106491109D03*
X162993938Y-107218712D03*
X162237982Y-107581100D03*
X162237982Y-108419301D03*
X162993938Y-108781689D03*
X162579214Y-109509292D03*
X163335170Y-109871680D03*
D19*
X164264956Y-95352566D03*
X160500000Y-95450000D03*
X157300000Y-95000000D03*
X159100000Y-98150000D03*
X159950000Y-93400000D03*
X154500000Y-92950000D03*
X153600000Y-93750000D03*
X154325068Y-92130246D03*
X160303087Y-96914049D03*
X157300000Y-97100000D03*
X156750000Y-92200000D03*
X154650000Y-94900000D03*
D20*
X156380187Y-105401118D03*
D19*
X160729126Y-94320874D03*
X145300000Y-112100000D03*
X149900000Y-111000000D03*
D20*
X156306694Y-107218712D03*
X157062650Y-107581100D03*
X157062650Y-108419301D03*
X156306694Y-108781689D03*
X156721418Y-109509292D03*
X155965462Y-109871680D03*
D19*
X145100000Y-105800000D03*
X143600000Y-109000000D03*
D20*
X154941767Y-102858749D03*
X155697723Y-103221137D03*
D19*
X160900000Y-117100000D03*
D20*
X158255617Y-116945501D03*
X161045015Y-99054899D03*
X158255617Y-99054899D03*
X158255617Y-99054899D03*
D19*
X149495270Y-110121206D03*
X148692632Y-110972641D03*
X161794374Y-116868470D03*
X161926514Y-117720151D03*
X147000000Y-110700000D03*
X148531177Y-109668852D03*
X162800000Y-118300000D03*
X163738213Y-117600000D03*
D20*
X164626605Y-116049236D03*
X165041329Y-115321633D03*
X164285373Y-114959245D03*
X164700097Y-114231642D03*
X163944142Y-113869254D03*
X164358866Y-113141651D03*
X163602910Y-112779264D03*
X164017634Y-112051661D03*
X163261678Y-111689273D03*
X163676402Y-110961670D03*
X162920446Y-110599282D03*
X162920446Y-105401118D03*
X163676402Y-105038731D03*
X163261678Y-104311128D03*
X164017634Y-103948740D03*
X163602910Y-103221137D03*
X164358866Y-102858749D03*
X163944142Y-102131146D03*
X164700097Y-101768759D03*
X164285373Y-101041156D03*
X165041329Y-100678768D03*
X164626605Y-99951165D03*
X163642567Y-99005000D03*
X163166374Y-99692120D03*
X162511810Y-99165956D03*
X162035617Y-99853076D03*
X157265015Y-99853076D03*
X156788823Y-99165956D03*
X156134258Y-99692120D03*
D19*
X150200000Y-108900000D03*
X145712765Y-111096015D03*
X153300000Y-99000000D03*
D20*
X154674027Y-99951165D03*
X154259303Y-100678768D03*
X155015259Y-101041156D03*
X154600535Y-101768759D03*
X155356491Y-102131146D03*
X155965462Y-106128721D03*
X156721418Y-106491109D03*
X156380187Y-110599282D03*
X155624231Y-110961670D03*
X156038955Y-111689273D03*
X155282999Y-112051661D03*
X155697723Y-112779264D03*
X154941767Y-113141651D03*
X155356491Y-113869254D03*
X154600535Y-114231642D03*
X155015259Y-114959245D03*
X154259303Y-115321633D03*
X154674027Y-116049236D03*
X155658066Y-116995401D03*
X156134258Y-116308281D03*
X156788823Y-116834445D03*
X157265015Y-116147324D03*
D21*
X162154815Y-98095191D02*
X162850000Y-97400006D01*
X162850000Y-97400006D02*
X162850000Y-97749974D01*
X162850000Y-97749974D02*
X162950000Y-97849974D01*
X159945189Y-105385878D02*
X159945189Y-98623744D01*
X160473743Y-98095191D02*
X162154815Y-98095191D01*
X159531067Y-105800000D02*
X159945189Y-105385878D01*
X159945189Y-98623744D02*
X160473743Y-98095191D01*
X158295000Y-105800000D02*
X159531067Y-105800000D01*
X162500000Y-94815067D02*
X162500000Y-95300000D01*
X159239900Y-92560100D02*
X160445033Y-92560100D01*
X158937500Y-92862500D02*
X159239900Y-92560100D01*
X160445033Y-92560100D02*
X162500000Y-94615067D01*
X158712500Y-92862500D02*
X158937500Y-92862500D01*
X162500000Y-94615067D02*
X162500000Y-94815067D01*
X159700000Y-109000000D02*
X159700000Y-109400000D01*
X159700000Y-109400000D02*
X159700000Y-109800000D01*
X161005000Y-109400000D02*
X159700000Y-109400000D01*
X159700000Y-108600000D02*
X159700000Y-109000000D01*
X161005000Y-109000000D02*
X159700000Y-109000000D01*
X159700000Y-108200000D02*
X159700000Y-108600000D01*
X161005000Y-108600000D02*
X160522600Y-108600000D01*
X160522600Y-108600000D02*
X159700000Y-108600000D01*
X159700000Y-107800000D02*
X159700000Y-108200000D01*
X161005000Y-108200000D02*
X159700000Y-108200000D01*
X159700000Y-107500000D02*
X159700000Y-107800000D01*
X161005000Y-107800000D02*
X159700000Y-107800000D01*
X159700000Y-107100000D02*
X159700000Y-107500000D01*
X161005000Y-107400000D02*
X159800000Y-107400000D01*
X159800000Y-107400000D02*
X159700000Y-107500000D01*
X159700000Y-106900000D02*
X159700000Y-107100000D01*
X161005000Y-107000000D02*
X159800000Y-107000000D01*
X159800000Y-107000000D02*
X159700000Y-107100000D01*
X160000000Y-106600000D02*
X159700000Y-106900000D01*
X161005000Y-106600000D02*
X160000000Y-106600000D01*
X137900000Y-94200000D02*
X137900000Y-95000000D01*
X152600000Y-92800000D02*
X152600000Y-93200000D01*
X138000000Y-117600000D02*
X138000000Y-117115067D01*
X138000000Y-117115067D02*
X138015067Y-117100000D01*
X143700000Y-113600000D02*
X144042899Y-113942899D01*
X144042899Y-113942899D02*
X144357101Y-113942899D01*
X138400000Y-109400000D02*
X138742899Y-109057101D01*
X138742899Y-109057101D02*
X139057101Y-109057101D01*
X144800000Y-104300000D02*
X145142899Y-103957101D01*
X145142899Y-103957101D02*
X146042899Y-103957101D01*
X160522600Y-106600000D02*
X160250000Y-106327400D01*
X161005000Y-106600000D02*
X160522600Y-106600000D01*
X160250000Y-99550000D02*
X160473514Y-99326486D01*
X160473514Y-99326486D02*
X160473514Y-98780578D01*
X160770694Y-98483398D02*
X163362426Y-98483398D01*
X163362426Y-98483398D02*
X164200000Y-97645824D01*
X164200000Y-97645824D02*
X164200000Y-97400000D01*
X160250000Y-106327400D02*
X160250000Y-99550000D01*
X160473514Y-98780578D02*
X160770694Y-98483398D01*
X161190316Y-106624000D02*
X161540316Y-106624000D01*
X161540316Y-106624000D02*
X162460992Y-105841578D01*
X162460992Y-105841578D02*
X162749830Y-105946114D01*
X162749830Y-105946114D02*
X163335170Y-106128721D01*
X161190316Y-107024000D02*
X161540316Y-107024000D01*
X161540316Y-107024000D02*
X162406505Y-106287883D01*
X162406505Y-106287883D02*
X162579214Y-106491109D01*
X161190316Y-107424000D02*
X161540316Y-107424000D01*
X161540316Y-107424000D02*
X162119760Y-106931569D01*
X162119760Y-106931569D02*
X162408598Y-107036104D01*
X162408598Y-107036104D02*
X162993938Y-107218712D01*
X161190316Y-107824000D02*
X161540316Y-107824000D01*
X161540316Y-107824000D02*
X162065274Y-107377873D01*
X162065274Y-107377873D02*
X162237982Y-107581100D01*
X161190316Y-108176401D02*
X161540316Y-108176401D01*
X161540316Y-108176401D02*
X162065274Y-108622527D01*
X162065274Y-108622527D02*
X162237982Y-108419301D01*
X161190316Y-108576401D02*
X161540316Y-108576401D01*
X161540316Y-108576401D02*
X162119760Y-109068832D01*
X162119760Y-109068832D02*
X162408598Y-108964297D01*
X162408598Y-108964297D02*
X162993938Y-108781689D01*
X161190316Y-108976401D02*
X161540316Y-108976401D01*
X161540316Y-108976401D02*
X162406505Y-109712518D01*
X162406505Y-109712518D02*
X162579214Y-109509292D01*
X161190316Y-109376401D02*
X161540316Y-109376401D01*
X161540316Y-109376401D02*
X162460992Y-110158823D01*
X162460992Y-110158823D02*
X162749830Y-110054287D01*
X162749830Y-110054287D02*
X163335170Y-109871680D01*
X163750000Y-95382589D02*
X163780023Y-95352566D01*
X163780023Y-95352566D02*
X164264956Y-95352566D01*
X163750000Y-95450000D02*
X163750000Y-95382589D01*
X160500000Y-95450000D02*
X160050000Y-95900000D01*
X160050000Y-95900000D02*
X158150000Y-95900000D01*
X160500000Y-95450000D02*
X159497600Y-95450000D01*
X159497600Y-95450000D02*
X158712500Y-94664900D01*
X158712500Y-94664900D02*
X158712500Y-94362500D01*
X157300000Y-95000000D02*
X158377400Y-95000000D01*
X158377400Y-95000000D02*
X158712500Y-94664900D01*
X157300000Y-95000000D02*
X157300000Y-95050000D01*
X157300000Y-95050000D02*
X158150000Y-95900000D01*
X158808467Y-105400000D02*
X159300000Y-104908467D01*
X158295000Y-105400000D02*
X158808467Y-105400000D01*
X160228028Y-93749372D02*
X159927400Y-94050000D01*
X159589348Y-98950000D02*
X159589348Y-98548519D01*
X161003448Y-93749372D02*
X160228028Y-93749372D01*
X161376312Y-97163035D02*
X161376312Y-94122236D01*
X161376312Y-94122236D02*
X161003448Y-93749372D01*
X160748967Y-97790380D02*
X161376312Y-97163035D01*
X159589348Y-98548519D02*
X160347487Y-97790380D01*
X160347487Y-97790380D02*
X160748967Y-97790380D01*
X159589348Y-98639348D02*
X159100000Y-98150000D01*
X159300000Y-99239348D02*
X159589348Y-98950000D01*
X159589348Y-98950000D02*
X159589348Y-98639348D01*
X159300000Y-104908467D02*
X159300000Y-99239348D01*
X159950000Y-94027400D02*
X159927400Y-94050000D01*
X159950000Y-93400000D02*
X159950000Y-94027400D01*
X159927400Y-94050000D02*
X159239900Y-93362500D01*
X159239900Y-93362500D02*
X158712500Y-93362500D01*
X154400000Y-92950000D02*
X154500000Y-92950000D01*
X153600000Y-93750000D02*
X154400000Y-92950000D01*
X154350000Y-92105314D02*
X154325068Y-92130246D01*
X154350000Y-91200000D02*
X154350000Y-92105314D01*
X157300000Y-97100000D02*
X160117136Y-97100000D01*
X160117136Y-97100000D02*
X160303087Y-96914049D01*
X156250000Y-96050000D02*
X156250000Y-95900000D01*
X157300000Y-97100000D02*
X156250000Y-96050000D01*
X156750000Y-92200000D02*
X156475000Y-92200000D01*
X156475000Y-92200000D02*
X155812500Y-92862500D01*
X156250000Y-95900000D02*
X156025000Y-95900000D01*
X155025000Y-94900000D02*
X154650000Y-94900000D01*
X156025000Y-95900000D02*
X155025000Y-94900000D01*
X158110316Y-106224000D02*
X157760316Y-106224000D01*
X157760316Y-106224000D02*
X156552895Y-105197892D01*
X156552895Y-105197892D02*
X156380187Y-105401118D01*
X158295000Y-105000000D02*
X158777400Y-105000000D01*
X158777400Y-105000000D02*
X158950000Y-104827400D01*
X161071501Y-97036738D02*
X161071501Y-95175679D01*
X158528498Y-98474322D02*
X158528498Y-97875678D01*
X161071501Y-95175679D02*
X160745822Y-94850000D01*
X160745822Y-94850000D02*
X160227400Y-94850000D01*
X160622670Y-97485569D02*
X161071501Y-97036738D01*
X158950000Y-104827400D02*
X158950000Y-98895824D01*
X158528498Y-97875678D02*
X158918607Y-97485569D01*
X158918607Y-97485569D02*
X160622670Y-97485569D01*
X158950000Y-98895824D02*
X158528498Y-98474322D01*
X160227400Y-94850000D02*
X160227400Y-94822600D01*
X160227400Y-94822600D02*
X160386227Y-94663773D01*
X160386227Y-94663773D02*
X160729126Y-94320874D01*
X160227400Y-94850000D02*
X159239900Y-93862500D01*
X159239900Y-93862500D02*
X158712500Y-93862500D01*
X156400000Y-91200000D02*
X156550000Y-91200000D01*
X155812500Y-93362500D02*
X155285100Y-93362500D01*
X155208899Y-93286299D02*
X155208899Y-92391101D01*
X155208899Y-92391101D02*
X156400000Y-91200000D01*
X155285100Y-93362500D02*
X155208899Y-93286299D01*
X156550000Y-91200000D02*
X158500000Y-91200000D01*
X158500000Y-91200000D02*
X158550000Y-91250000D01*
X148800000Y-112100000D02*
X145300000Y-112100000D01*
X149900000Y-111000000D02*
X148800000Y-112100000D01*
X158110316Y-107424000D02*
X157760316Y-107424000D01*
X157760316Y-107424000D02*
X157180872Y-106931569D01*
X157180872Y-106931569D02*
X156892034Y-107036104D01*
X156892034Y-107036104D02*
X156306694Y-107218712D01*
X158110316Y-107824000D02*
X157760316Y-107824000D01*
X157760316Y-107824000D02*
X157235359Y-107377873D01*
X157235359Y-107377873D02*
X157062650Y-107581100D01*
X158110316Y-108176401D02*
X157760316Y-108176401D01*
X157760316Y-108176401D02*
X157235359Y-108622527D01*
X157235359Y-108622527D02*
X157062650Y-108419301D01*
X158110316Y-108576401D02*
X157760316Y-108576401D01*
X157760316Y-108576401D02*
X157180872Y-109068832D01*
X157180872Y-109068832D02*
X156892034Y-108964297D01*
X156892034Y-108964297D02*
X156306694Y-108781689D01*
X158110316Y-108976401D02*
X157760316Y-108976401D01*
X157760316Y-108976401D02*
X156894127Y-109712518D01*
X156894127Y-109712518D02*
X156721418Y-109509292D01*
X158110316Y-109376401D02*
X157760316Y-109376401D01*
X157760316Y-109376401D02*
X156839640Y-110158823D01*
X156839640Y-110158823D02*
X156550802Y-110054287D01*
X156550802Y-110054287D02*
X155965462Y-109871680D01*
X143600000Y-109000000D02*
X145100000Y-107500000D01*
X145100000Y-107500000D02*
X145100000Y-105800000D01*
X154375678Y-94328498D02*
X153650000Y-95054176D01*
X155285100Y-94362500D02*
X155251098Y-94328498D01*
X155812500Y-94362500D02*
X155285100Y-94362500D01*
X153650000Y-100295824D02*
X153650000Y-101664047D01*
X153650000Y-97704176D02*
X152628498Y-98725678D01*
X152628498Y-98725678D02*
X152628498Y-99274322D01*
X153650000Y-101664047D02*
X154501803Y-102515850D01*
X153650000Y-95054176D02*
X153650000Y-97704176D01*
X154501803Y-102515850D02*
X154598868Y-102515850D01*
X152628498Y-99274322D02*
X153650000Y-100295824D01*
X155251098Y-94328498D02*
X154375678Y-94328498D01*
X154598868Y-102515850D02*
X154941767Y-102858749D01*
X158110316Y-104224000D02*
X157760316Y-104224000D01*
X157760316Y-104224000D02*
X155815945Y-102571606D01*
X155815945Y-102571606D02*
X155527107Y-102676142D01*
X155527107Y-102676142D02*
X154941767Y-102858749D01*
X154801231Y-103564036D02*
X155354824Y-103564036D01*
X152323687Y-98599422D02*
X152323687Y-99400578D01*
X153345189Y-97577920D02*
X152323687Y-98599422D01*
X155812500Y-93862500D02*
X154410609Y-93862500D01*
X154410609Y-93862500D02*
X153345189Y-94927920D01*
X152323687Y-99400578D02*
X153345189Y-100422080D01*
X153345189Y-100422080D02*
X153345189Y-102107994D01*
X153345189Y-102107994D02*
X154801231Y-103564036D01*
X153345189Y-94927920D02*
X153345189Y-97577920D01*
X155354824Y-103564036D02*
X155697723Y-103221137D01*
X158110316Y-104624000D02*
X157760316Y-104624000D01*
X157760316Y-104624000D02*
X155870431Y-103017911D01*
X155870431Y-103017911D02*
X155697723Y-103221137D01*
X160900000Y-116615067D02*
X160900000Y-117100000D01*
X160900000Y-116305000D02*
X160900000Y-116615067D01*
X161005000Y-116200000D02*
X160900000Y-116305000D01*
X161005000Y-115800000D02*
X161005000Y-116200000D01*
X158295000Y-116200000D02*
X158295000Y-116906118D01*
X158295000Y-116906118D02*
X158255617Y-116945501D01*
X158295000Y-115800000D02*
X158295000Y-116200000D01*
X161005000Y-99800000D02*
X161005000Y-99094914D01*
X161005000Y-99094914D02*
X161045015Y-99054899D01*
X161005000Y-100200000D02*
X161005000Y-99800000D01*
X158295000Y-99800000D02*
X158295000Y-99094282D01*
X158295000Y-99094282D02*
X158255617Y-99054899D01*
X158295000Y-100200000D02*
X158295000Y-99800000D01*
X149495270Y-110170003D02*
X149495270Y-110121206D01*
X148692632Y-110972641D02*
X149495270Y-110170003D01*
X161540316Y-115376401D02*
X161794374Y-115630459D01*
X161190316Y-115376401D02*
X161540316Y-115376401D01*
X161794374Y-115630459D02*
X161794374Y-116383537D01*
X161794374Y-116383537D02*
X161794374Y-116868470D01*
X162511810Y-116834445D02*
X162511810Y-117134855D01*
X162657575Y-115925886D02*
X162600996Y-116227803D01*
X161540316Y-114976401D02*
X162657575Y-115925886D01*
X162600996Y-116227803D02*
X162511810Y-116834445D01*
X162511810Y-117134855D02*
X162269413Y-117377252D01*
X161190316Y-114976401D02*
X161540316Y-114976401D01*
X162269413Y-117377252D02*
X161926514Y-117720151D01*
X147484933Y-110700000D02*
X147000000Y-110700000D01*
X147500029Y-110700000D02*
X147484933Y-110700000D01*
X148531177Y-109668852D02*
X147500029Y-110700000D01*
X162800000Y-117815067D02*
X162800000Y-118300000D01*
X162800000Y-117315067D02*
X162800000Y-117815067D01*
X163339083Y-116775984D02*
X162800000Y-117315067D01*
X161540316Y-114576401D02*
X163339083Y-116105055D01*
X161190316Y-114576401D02*
X161540316Y-114576401D01*
X163339083Y-116105055D02*
X163339083Y-116775984D01*
X163788332Y-116086842D02*
X164081112Y-116379622D01*
X161190316Y-114176401D02*
X161540316Y-114176401D01*
X161540316Y-114176401D02*
X163788332Y-116086842D01*
X164081112Y-116379622D02*
X164081112Y-117257101D01*
X164081112Y-117257101D02*
X163738213Y-117600000D01*
X161540316Y-113776401D02*
X164453897Y-116252462D01*
X164453897Y-116252462D02*
X164626605Y-116049236D01*
X161190316Y-113776401D02*
X161540316Y-113776401D01*
X161190316Y-113376401D02*
X161540316Y-113376401D01*
X161540316Y-113376401D02*
X164167151Y-115608776D01*
X164167151Y-115608776D02*
X164455989Y-115504240D01*
X164455989Y-115504240D02*
X165041329Y-115321633D01*
X161190316Y-112976401D02*
X161540316Y-112976401D01*
X161540316Y-112976401D02*
X164112665Y-115162471D01*
X164112665Y-115162471D02*
X164285373Y-114959245D01*
X161190316Y-112576401D02*
X161540316Y-112576401D01*
X161540316Y-112576401D02*
X163825920Y-114518785D01*
X163825920Y-114518785D02*
X164114757Y-114414250D01*
X164114757Y-114414250D02*
X164700097Y-114231642D01*
X161190316Y-112176401D02*
X161540316Y-112176401D01*
X161540316Y-112176401D02*
X163771433Y-114072481D01*
X163771433Y-114072481D02*
X163944142Y-113869254D01*
X161190316Y-111776401D02*
X161540316Y-111776401D01*
X161540316Y-111776401D02*
X163484688Y-113428795D01*
X163484688Y-113428795D02*
X163773526Y-113324259D01*
X163773526Y-113324259D02*
X164358866Y-113141651D01*
X161190316Y-111376401D02*
X161540316Y-111376401D01*
X161540316Y-111376401D02*
X163430201Y-112982490D01*
X163430201Y-112982490D02*
X163602910Y-112779264D01*
X161190316Y-110976401D02*
X161540316Y-110976401D01*
X161540316Y-110976401D02*
X163143456Y-112338804D01*
X163143456Y-112338804D02*
X163432294Y-112234268D01*
X163432294Y-112234268D02*
X164017634Y-112051661D01*
X161190316Y-110576401D02*
X161540316Y-110576401D01*
X161540316Y-110576401D02*
X163088969Y-111892499D01*
X163088969Y-111892499D02*
X163261678Y-111689273D01*
X161190316Y-110176401D02*
X161540316Y-110176401D01*
X161540316Y-110176401D02*
X162802224Y-111248813D01*
X162802224Y-111248813D02*
X163091062Y-111144278D01*
X163091062Y-111144278D02*
X163676402Y-110961670D01*
X161190316Y-109776401D02*
X161540316Y-109776401D01*
X161540316Y-109776401D02*
X162747737Y-110802509D01*
X162747737Y-110802509D02*
X162920446Y-110599282D01*
X161190316Y-106224000D02*
X161540316Y-106224000D01*
X161540316Y-106224000D02*
X162747737Y-105197892D01*
X162747737Y-105197892D02*
X162920446Y-105401118D01*
X161190316Y-105824000D02*
X161540316Y-105824000D01*
X161540316Y-105824000D02*
X162802224Y-104751587D01*
X162802224Y-104751587D02*
X163091062Y-104856123D01*
X163091062Y-104856123D02*
X163676402Y-105038731D01*
X161190316Y-105424000D02*
X161540316Y-105424000D01*
X161540316Y-105424000D02*
X163088969Y-104107901D01*
X163088969Y-104107901D02*
X163261678Y-104311128D01*
X161190316Y-105024000D02*
X161540316Y-105024000D01*
X161540316Y-105024000D02*
X163143456Y-103661597D01*
X163143456Y-103661597D02*
X163432294Y-103766132D01*
X163432294Y-103766132D02*
X164017634Y-103948740D01*
X161190316Y-104624000D02*
X161540316Y-104624000D01*
X161540316Y-104624000D02*
X163430201Y-103017911D01*
X163430201Y-103017911D02*
X163602910Y-103221137D01*
X161190316Y-104224000D02*
X161540316Y-104224000D01*
X161540316Y-104224000D02*
X163484688Y-102571606D01*
X163484688Y-102571606D02*
X163773526Y-102676142D01*
X163773526Y-102676142D02*
X164358866Y-102858749D01*
X161190316Y-103824000D02*
X161540316Y-103824000D01*
X161540316Y-103824000D02*
X163771433Y-101927920D01*
X163771433Y-101927920D02*
X163944142Y-102131146D01*
X161190316Y-103424000D02*
X161540316Y-103424000D01*
X161540316Y-103424000D02*
X163825920Y-101481616D01*
X163825920Y-101481616D02*
X164114757Y-101586151D01*
X164114757Y-101586151D02*
X164700097Y-101768759D01*
X161190316Y-103024000D02*
X161540316Y-103024000D01*
X161540316Y-103024000D02*
X164112665Y-100837930D01*
X164112665Y-100837930D02*
X164285373Y-101041156D01*
X161190316Y-102624000D02*
X161540316Y-102624000D01*
X161540316Y-102624000D02*
X164167151Y-100391625D01*
X164167151Y-100391625D02*
X164455989Y-100496161D01*
X164455989Y-100496161D02*
X165041329Y-100678768D01*
X161190316Y-102224000D02*
X161540316Y-102224000D01*
X161540316Y-102224000D02*
X164453897Y-99747939D01*
X164453897Y-99747939D02*
X164626605Y-99951165D01*
X161190316Y-101824000D02*
X161540316Y-101824000D01*
X161540316Y-101824000D02*
X163788332Y-99913558D01*
X163788332Y-99913558D02*
X163731753Y-99611642D01*
X163731753Y-99611642D02*
X163642567Y-99005000D01*
X161190316Y-101424000D02*
X161540316Y-101424000D01*
X161540316Y-101424000D02*
X163339083Y-99895346D01*
X163339083Y-99895346D02*
X163166374Y-99692120D01*
X161190316Y-101024000D02*
X161540316Y-101024000D01*
X161540316Y-101024000D02*
X162657575Y-100074515D01*
X162657575Y-100074515D02*
X162600996Y-99772598D01*
X162600996Y-99772598D02*
X162511810Y-99165956D01*
X161190316Y-100624000D02*
X161540316Y-100624000D01*
X161540316Y-100624000D02*
X162208326Y-100056303D01*
X162208326Y-100056303D02*
X162035617Y-99853076D01*
X158110316Y-100624000D02*
X157760316Y-100624000D01*
X157760316Y-100624000D02*
X157092307Y-100056303D01*
X157092307Y-100056303D02*
X157265015Y-99853076D01*
X158110316Y-101024000D02*
X157760316Y-101024000D01*
X157760316Y-101024000D02*
X156643057Y-100074515D01*
X156643057Y-100074515D02*
X156699637Y-99772598D01*
X156699637Y-99772598D02*
X156788823Y-99165956D01*
X158110316Y-101424000D02*
X157760316Y-101424000D01*
X157760316Y-101424000D02*
X155961549Y-99895346D01*
X155961549Y-99895346D02*
X156134258Y-99692120D01*
X149715067Y-108900000D02*
X150200000Y-108900000D01*
X147908780Y-108900000D02*
X149715067Y-108900000D01*
X145712765Y-111096015D02*
X147908780Y-108900000D01*
X155658066Y-99005000D02*
X153305000Y-99005000D01*
X153305000Y-99005000D02*
X153300000Y-99000000D01*
X158110316Y-101824000D02*
X157760316Y-101824000D01*
X157760316Y-101824000D02*
X155512300Y-99913558D01*
X155512300Y-99913558D02*
X155568880Y-99611642D01*
X155568880Y-99611642D02*
X155658066Y-99005000D01*
X158110316Y-102224000D02*
X157760316Y-102224000D01*
X157760316Y-102224000D02*
X154846736Y-99747939D01*
X154846736Y-99747939D02*
X154674027Y-99951165D01*
X158110316Y-102624000D02*
X157760316Y-102624000D01*
X157760316Y-102624000D02*
X155133481Y-100391625D01*
X155133481Y-100391625D02*
X154844643Y-100496161D01*
X154844643Y-100496161D02*
X154259303Y-100678768D01*
X158110316Y-103024000D02*
X157760316Y-103024000D01*
X157760316Y-103024000D02*
X155187968Y-100837930D01*
X155187968Y-100837930D02*
X155015259Y-101041156D01*
X158110316Y-103424000D02*
X157760316Y-103424000D01*
X157760316Y-103424000D02*
X155474713Y-101481616D01*
X155474713Y-101481616D02*
X155185875Y-101586151D01*
X155185875Y-101586151D02*
X154600535Y-101768759D01*
X158110316Y-103824000D02*
X157760316Y-103824000D01*
X157760316Y-103824000D02*
X155529200Y-101927920D01*
X155529200Y-101927920D02*
X155356491Y-102131146D01*
X158110316Y-106624000D02*
X157760316Y-106624000D01*
X157760316Y-106624000D02*
X156839640Y-105841578D01*
X156839640Y-105841578D02*
X156550802Y-105946114D01*
X156550802Y-105946114D02*
X155965462Y-106128721D01*
X158110316Y-107024000D02*
X157760316Y-107024000D01*
X157760316Y-107024000D02*
X156894127Y-106287883D01*
X156894127Y-106287883D02*
X156721418Y-106491109D01*
X158110316Y-109776401D02*
X157760316Y-109776401D01*
X157760316Y-109776401D02*
X156552895Y-110802509D01*
X156552895Y-110802509D02*
X156380187Y-110599282D01*
X158110316Y-110176401D02*
X157760316Y-110176401D01*
X157760316Y-110176401D02*
X156498409Y-111248813D01*
X156498409Y-111248813D02*
X156209571Y-111144278D01*
X156209571Y-111144278D02*
X155624231Y-110961670D01*
X158110316Y-110576401D02*
X157760316Y-110576401D01*
X157760316Y-110576401D02*
X156211663Y-111892499D01*
X156211663Y-111892499D02*
X156038955Y-111689273D01*
X158110316Y-110976401D02*
X157760316Y-110976401D01*
X157760316Y-110976401D02*
X156157177Y-112338804D01*
X156157177Y-112338804D02*
X155868339Y-112234268D01*
X155868339Y-112234268D02*
X155282999Y-112051661D01*
X158110316Y-111376401D02*
X157760316Y-111376401D01*
X157760316Y-111376401D02*
X155870431Y-112982490D01*
X155870431Y-112982490D02*
X155697723Y-112779264D01*
X158110316Y-111776401D02*
X157760316Y-111776401D01*
X157760316Y-111776401D02*
X155815945Y-113428795D01*
X155815945Y-113428795D02*
X155527107Y-113324259D01*
X155527107Y-113324259D02*
X154941767Y-113141651D01*
X158110316Y-112176401D02*
X157760316Y-112176401D01*
X157760316Y-112176401D02*
X155529200Y-114072481D01*
X155529200Y-114072481D02*
X155356491Y-113869254D01*
X158110316Y-112576401D02*
X157760316Y-112576401D01*
X157760316Y-112576401D02*
X155474713Y-114518785D01*
X155474713Y-114518785D02*
X155185875Y-114414250D01*
X155185875Y-114414250D02*
X154600535Y-114231642D01*
X158110316Y-112976401D02*
X157760316Y-112976401D01*
X157760316Y-112976401D02*
X155187968Y-115162471D01*
X155187968Y-115162471D02*
X155015259Y-114959245D01*
X158110316Y-113376401D02*
X157760316Y-113376401D01*
X157760316Y-113376401D02*
X155133481Y-115608776D01*
X155133481Y-115608776D02*
X154844643Y-115504240D01*
X154844643Y-115504240D02*
X154259303Y-115321633D01*
X158110316Y-113776401D02*
X157760316Y-113776401D01*
X157760316Y-113776401D02*
X154846736Y-116252462D01*
X154846736Y-116252462D02*
X154674027Y-116049236D01*
X158110316Y-114176401D02*
X157760316Y-114176401D01*
X157760316Y-114176401D02*
X155512300Y-116086842D01*
X155512300Y-116086842D02*
X155568880Y-116388759D01*
X155568880Y-116388759D02*
X155658066Y-116995401D01*
X158110316Y-114576401D02*
X157760316Y-114576401D01*
X157760316Y-114576401D02*
X155961549Y-116105055D01*
X155961549Y-116105055D02*
X156134258Y-116308281D01*
X158110316Y-114976401D02*
X157760316Y-114976401D01*
X157760316Y-114976401D02*
X156643057Y-115925886D01*
X156643057Y-115925886D02*
X156699637Y-116227803D01*
X156699637Y-116227803D02*
X156788823Y-116834445D01*
X158110316Y-115376401D02*
X157760316Y-115376401D01*
X157760316Y-115376401D02*
X157092307Y-115944098D01*
X157092307Y-115944098D02*
X157265015Y-116147324D01*
G36*
X157624618Y-90630511D02*
X157556897Y-90793600D01*
X157486669Y-90793600D01*
X157486669Y-90750000D01*
X157463644Y-90627635D01*
X157391327Y-90515251D01*
X157280983Y-90439856D01*
X157150000Y-90413331D01*
X155950000Y-90413331D01*
X155827635Y-90436356D01*
X155715251Y-90508673D01*
X155639856Y-90619017D01*
X155613331Y-90750000D01*
X155613331Y-91411933D01*
X155264172Y-91761092D01*
X155286669Y-91650000D01*
X155286669Y-90750000D01*
X155263644Y-90627635D01*
X155191327Y-90515251D01*
X155080983Y-90439856D01*
X154950000Y-90413331D01*
X153750000Y-90413331D01*
X153627635Y-90436356D01*
X153515251Y-90508673D01*
X153439856Y-90619017D01*
X153413331Y-90750000D01*
X153413331Y-91650000D01*
X153436356Y-91772365D01*
X153508673Y-91884749D01*
X153619017Y-91960144D01*
X153663166Y-91969085D01*
X153652085Y-91995771D01*
X153651851Y-92263547D01*
X153754109Y-92511029D01*
X153894894Y-92652059D01*
X153827017Y-92815525D01*
X153826901Y-92948363D01*
X153698279Y-93076985D01*
X153466699Y-93076783D01*
X153219217Y-93179041D01*
X153029706Y-93368222D01*
X152927017Y-93615525D01*
X152926783Y-93883301D01*
X153029041Y-94130783D01*
X153218222Y-94320294D01*
X153331176Y-94367197D01*
X153057821Y-94640552D01*
X152969724Y-94772397D01*
X152938789Y-94927920D01*
X152938789Y-97409584D01*
X152036319Y-98312054D01*
X151948222Y-98443899D01*
X151917287Y-98599422D01*
X151917287Y-99400578D01*
X151948222Y-99556101D01*
X151994833Y-99625858D01*
X152036319Y-99687946D01*
X152938789Y-100590416D01*
X152938789Y-102107994D01*
X152969724Y-102263517D01*
X153030195Y-102354017D01*
X153057821Y-102395362D01*
X154513863Y-103851404D01*
X154645708Y-103939501D01*
X154801231Y-103970436D01*
X155354824Y-103970436D01*
X155510347Y-103939501D01*
X155578244Y-103894133D01*
X155831024Y-103894354D01*
X156078506Y-103792096D01*
X156113149Y-103757513D01*
X157497142Y-104933678D01*
X157552302Y-104964391D01*
X157604793Y-104999465D01*
X157621129Y-105002714D01*
X157628331Y-105006724D01*
X157628331Y-105115000D01*
X157644912Y-105203120D01*
X157628331Y-105285000D01*
X157628331Y-105515000D01*
X157642555Y-105590590D01*
X156837080Y-104906070D01*
X156761965Y-104830824D01*
X156514662Y-104728135D01*
X156246886Y-104727901D01*
X155999404Y-104830159D01*
X155809893Y-105019340D01*
X155707204Y-105266643D01*
X155706994Y-105507222D01*
X155584679Y-105557762D01*
X155395168Y-105746943D01*
X155292479Y-105994246D01*
X155292245Y-106262022D01*
X155394503Y-106509504D01*
X155583684Y-106699015D01*
X155789110Y-106784315D01*
X155736400Y-106836934D01*
X155633711Y-107084237D01*
X155633477Y-107352013D01*
X155735735Y-107599495D01*
X155924916Y-107789006D01*
X156172219Y-107891695D01*
X156439995Y-107891929D01*
X156459463Y-107883885D01*
X156491691Y-107961883D01*
X156529843Y-108000101D01*
X156492356Y-108037523D01*
X156459617Y-108116366D01*
X156441169Y-108108706D01*
X156173393Y-108108472D01*
X155925911Y-108210730D01*
X155736400Y-108399911D01*
X155633711Y-108647214D01*
X155633477Y-108914990D01*
X155735735Y-109162472D01*
X155789330Y-109216160D01*
X155584679Y-109300721D01*
X155395168Y-109489902D01*
X155292479Y-109737205D01*
X155292245Y-110004981D01*
X155394503Y-110252463D01*
X155448098Y-110306151D01*
X155243448Y-110390711D01*
X155053937Y-110579892D01*
X154951248Y-110827195D01*
X154951014Y-111094971D01*
X155053272Y-111342453D01*
X155106867Y-111396141D01*
X154902216Y-111480702D01*
X154712705Y-111669883D01*
X154610016Y-111917186D01*
X154609782Y-112184962D01*
X154712040Y-112432444D01*
X154765634Y-112486132D01*
X154560984Y-112570692D01*
X154371473Y-112759873D01*
X154268784Y-113007176D01*
X154268550Y-113274952D01*
X154370808Y-113522434D01*
X154424403Y-113576122D01*
X154219752Y-113660683D01*
X154030241Y-113849864D01*
X153927552Y-114097167D01*
X153927318Y-114364943D01*
X154029576Y-114612425D01*
X154083171Y-114666113D01*
X153878520Y-114750674D01*
X153689009Y-114939855D01*
X153586320Y-115187158D01*
X153586086Y-115454934D01*
X153688344Y-115702416D01*
X153877525Y-115891927D01*
X154001019Y-115943206D01*
X154000810Y-116182537D01*
X154103068Y-116430019D01*
X154292249Y-116619530D01*
X154539552Y-116722219D01*
X154807328Y-116722453D01*
X155054810Y-116620195D01*
X155130467Y-116544670D01*
X155175417Y-116506470D01*
X155177937Y-116523615D01*
X155087772Y-116613623D01*
X154985083Y-116860926D01*
X154984849Y-117128702D01*
X155087107Y-117376184D01*
X155276288Y-117565695D01*
X155523591Y-117668384D01*
X155791367Y-117668618D01*
X156038849Y-117566360D01*
X156228360Y-117377179D01*
X156272769Y-117270229D01*
X156407045Y-117404739D01*
X156654348Y-117507428D01*
X156922124Y-117507662D01*
X157169606Y-117405404D01*
X157359117Y-117216223D01*
X157461806Y-116968920D01*
X157461959Y-116794244D01*
X157616038Y-116730580D01*
X157582634Y-116811026D01*
X157582400Y-117078802D01*
X157684658Y-117326284D01*
X157873839Y-117515795D01*
X158121142Y-117618484D01*
X158388918Y-117618718D01*
X158636400Y-117516460D01*
X158825911Y-117327279D01*
X158928600Y-117079976D01*
X158928834Y-116812200D01*
X158871677Y-116673870D01*
X158935144Y-116580983D01*
X158961669Y-116450000D01*
X158961669Y-116100000D01*
X158943625Y-116004105D01*
X158961669Y-115915000D01*
X158961669Y-115685000D01*
X158945088Y-115596880D01*
X158961669Y-115515000D01*
X158961669Y-115285000D01*
X158945088Y-115196880D01*
X158961669Y-115115000D01*
X158961669Y-114885000D01*
X158945088Y-114796880D01*
X158961669Y-114715000D01*
X158961669Y-114485000D01*
X158945088Y-114396880D01*
X158961669Y-114315000D01*
X158961669Y-114085000D01*
X158945088Y-113996880D01*
X158961669Y-113915000D01*
X158961669Y-113685000D01*
X158945088Y-113596880D01*
X158961669Y-113515000D01*
X158961669Y-113285000D01*
X158945088Y-113196880D01*
X158961669Y-113115000D01*
X158961669Y-112885000D01*
X158945088Y-112796880D01*
X158961669Y-112715000D01*
X158961669Y-112485000D01*
X158945088Y-112396880D01*
X158961669Y-112315000D01*
X158961669Y-112085000D01*
X158945088Y-111996880D01*
X158961669Y-111915000D01*
X158961669Y-111685000D01*
X158945088Y-111596880D01*
X158961669Y-111515000D01*
X158961669Y-111285000D01*
X158945088Y-111196880D01*
X158961669Y-111115000D01*
X158961669Y-110885000D01*
X158945088Y-110796880D01*
X158961669Y-110715000D01*
X158961669Y-110485000D01*
X158945088Y-110396880D01*
X158961669Y-110315000D01*
X158961669Y-110085000D01*
X158945088Y-109996880D01*
X158961669Y-109915000D01*
X158961669Y-109685000D01*
X158945088Y-109596880D01*
X158961669Y-109515000D01*
X158961669Y-109285000D01*
X158945088Y-109196880D01*
X158961669Y-109115000D01*
X158961669Y-108885000D01*
X158945088Y-108796880D01*
X158961669Y-108715000D01*
X158961669Y-108485000D01*
X158945088Y-108396880D01*
X158961669Y-108315000D01*
X158961669Y-108085000D01*
X158945088Y-107996880D01*
X158961669Y-107915000D01*
X158961669Y-107685000D01*
X158945088Y-107596880D01*
X158961669Y-107515000D01*
X158961669Y-107285000D01*
X158945088Y-107196880D01*
X158961669Y-107115000D01*
X158961669Y-106885000D01*
X158945088Y-106796880D01*
X158961669Y-106715000D01*
X158961669Y-106485000D01*
X158945088Y-106396880D01*
X158961669Y-106315000D01*
X158961669Y-106206400D01*
X159531067Y-106206400D01*
X159686590Y-106175465D01*
X159818435Y-106087368D01*
X160232557Y-105673246D01*
X160251780Y-105644477D01*
X160320654Y-105541401D01*
X160338331Y-105452531D01*
X160338331Y-105515000D01*
X160354912Y-105603120D01*
X160338331Y-105685000D01*
X160338331Y-105915000D01*
X160351793Y-105986543D01*
X160344077Y-105989739D01*
X160179739Y-106154078D01*
X160090800Y-106368796D01*
X160090800Y-106396450D01*
X160214083Y-106519733D01*
X160179739Y-106554078D01*
X160090800Y-106768796D01*
X160090800Y-106796450D01*
X160094350Y-106800000D01*
X160090800Y-106803550D01*
X160090800Y-106831204D01*
X160160718Y-107000000D01*
X160090800Y-107168796D01*
X160090800Y-107196450D01*
X160094350Y-107200000D01*
X160090800Y-107203550D01*
X160090800Y-107231204D01*
X160160718Y-107400000D01*
X160090800Y-107568796D01*
X160090800Y-107596450D01*
X160094350Y-107600000D01*
X160090800Y-107603550D01*
X160090800Y-107631204D01*
X160160718Y-107800000D01*
X160090800Y-107968796D01*
X160090800Y-107996450D01*
X160094350Y-108000000D01*
X160090800Y-108003550D01*
X160090800Y-108031204D01*
X160160718Y-108200000D01*
X160090800Y-108368796D01*
X160090800Y-108396450D01*
X160094350Y-108400000D01*
X160090800Y-108403550D01*
X160090800Y-108431204D01*
X160160718Y-108600000D01*
X160090800Y-108768796D01*
X160090800Y-108796450D01*
X160094350Y-108800000D01*
X160090800Y-108803550D01*
X160090800Y-108831204D01*
X160160718Y-109000000D01*
X160090800Y-109168796D01*
X160090800Y-109196450D01*
X160094350Y-109200000D01*
X160090800Y-109203550D01*
X160090800Y-109231204D01*
X160179739Y-109445922D01*
X160214083Y-109480267D01*
X160090800Y-109603550D01*
X160090800Y-109631204D01*
X160179739Y-109845922D01*
X160344077Y-110010261D01*
X160352740Y-110013849D01*
X160338331Y-110085000D01*
X160338331Y-110315000D01*
X160354912Y-110403120D01*
X160338331Y-110485000D01*
X160338331Y-110715000D01*
X160354912Y-110803120D01*
X160338331Y-110885000D01*
X160338331Y-111115000D01*
X160354912Y-111203120D01*
X160338331Y-111285000D01*
X160338331Y-111515000D01*
X160354912Y-111603120D01*
X160338331Y-111685000D01*
X160338331Y-111915000D01*
X160354912Y-112003120D01*
X160338331Y-112085000D01*
X160338331Y-112315000D01*
X160354912Y-112403120D01*
X160338331Y-112485000D01*
X160338331Y-112715000D01*
X160354912Y-112803120D01*
X160338331Y-112885000D01*
X160338331Y-113115000D01*
X160354912Y-113203120D01*
X160338331Y-113285000D01*
X160338331Y-113515000D01*
X160354912Y-113603120D01*
X160338331Y-113685000D01*
X160338331Y-113915000D01*
X160354912Y-114003120D01*
X160338331Y-114085000D01*
X160338331Y-114315000D01*
X160354912Y-114403120D01*
X160338331Y-114485000D01*
X160338331Y-114715000D01*
X160354912Y-114803120D01*
X160338331Y-114885000D01*
X160338331Y-115115000D01*
X160354912Y-115203120D01*
X160338331Y-115285000D01*
X160338331Y-115515000D01*
X160354912Y-115603120D01*
X160338331Y-115685000D01*
X160338331Y-115915000D01*
X160356375Y-116010895D01*
X160338331Y-116100000D01*
X160338331Y-116450000D01*
X160361356Y-116572365D01*
X160406124Y-116641937D01*
X160329706Y-116718222D01*
X160227017Y-116965525D01*
X160226783Y-117233301D01*
X160329041Y-117480783D01*
X160518222Y-117670294D01*
X160765525Y-117772983D01*
X161033301Y-117773217D01*
X161253447Y-117682254D01*
X161253297Y-117853452D01*
X161355555Y-118100934D01*
X161544736Y-118290445D01*
X161792039Y-118393134D01*
X162059815Y-118393368D01*
X162126842Y-118365673D01*
X162126783Y-118433301D01*
X162229041Y-118680783D01*
X162418222Y-118870294D01*
X162665525Y-118972983D01*
X162933301Y-118973217D01*
X163180783Y-118870959D01*
X163370294Y-118681778D01*
X163472983Y-118434475D01*
X163473171Y-118218767D01*
X163603738Y-118272983D01*
X163871514Y-118273217D01*
X164118996Y-118170959D01*
X164308507Y-117981778D01*
X164411196Y-117734475D01*
X164411418Y-117480208D01*
X164456577Y-117412624D01*
X164461178Y-117389494D01*
X164487512Y-117257101D01*
X164487512Y-116720301D01*
X164492130Y-116722219D01*
X164759906Y-116722453D01*
X165007388Y-116620195D01*
X165196899Y-116431014D01*
X165299588Y-116183711D01*
X165299798Y-115943131D01*
X165422112Y-115892592D01*
X165594800Y-115720205D01*
X165594800Y-123210093D01*
X165408979Y-124144277D01*
X164902410Y-124902412D01*
X164144277Y-125408979D01*
X163210092Y-125594800D01*
X132789907Y-125594800D01*
X131855723Y-125408979D01*
X131097588Y-124902410D01*
X130591021Y-124144277D01*
X130485235Y-123612452D01*
X130919483Y-123612452D01*
X131197527Y-124285371D01*
X131711921Y-124800664D01*
X132384354Y-125079882D01*
X133112452Y-125080517D01*
X133785371Y-124802473D01*
X134300664Y-124288079D01*
X134579882Y-123615646D01*
X134579884Y-123612452D01*
X161419483Y-123612452D01*
X161697527Y-124285371D01*
X162211921Y-124800664D01*
X162884354Y-125079882D01*
X163612452Y-125080517D01*
X164285371Y-124802473D01*
X164800664Y-124288079D01*
X165079882Y-123615646D01*
X165080517Y-122887548D01*
X164802473Y-122214629D01*
X164288079Y-121699336D01*
X163615646Y-121420118D01*
X162887548Y-121419483D01*
X162214629Y-121697527D01*
X161699336Y-122211921D01*
X161420118Y-122884354D01*
X161419483Y-123612452D01*
X134579884Y-123612452D01*
X134580517Y-122887548D01*
X134302473Y-122214629D01*
X133788079Y-121699336D01*
X133115646Y-121420118D01*
X132387548Y-121419483D01*
X131714629Y-121697527D01*
X131199336Y-122211921D01*
X130920118Y-122884354D01*
X130919483Y-123612452D01*
X130485235Y-123612452D01*
X130405200Y-123210092D01*
X130405200Y-112233301D01*
X144626783Y-112233301D01*
X144729041Y-112480783D01*
X144918222Y-112670294D01*
X145165525Y-112772983D01*
X145433301Y-112773217D01*
X145680783Y-112670959D01*
X145845629Y-112506400D01*
X148800000Y-112506400D01*
X148955523Y-112475465D01*
X149087368Y-112387368D01*
X149801721Y-111673015D01*
X150033301Y-111673217D01*
X150280783Y-111570959D01*
X150470294Y-111381778D01*
X150572983Y-111134475D01*
X150573217Y-110866699D01*
X150470959Y-110619217D01*
X150281778Y-110429706D01*
X150123314Y-110363906D01*
X150168253Y-110255681D01*
X150168487Y-109987905D01*
X150066229Y-109740423D01*
X149877048Y-109550912D01*
X149629745Y-109448223D01*
X149361969Y-109447989D01*
X149196470Y-109516372D01*
X149109710Y-109306400D01*
X149654613Y-109306400D01*
X149818222Y-109470294D01*
X150065525Y-109572983D01*
X150333301Y-109573217D01*
X150580783Y-109470959D01*
X150770294Y-109281778D01*
X150872983Y-109034475D01*
X150873217Y-108766699D01*
X150770959Y-108519217D01*
X150581778Y-108329706D01*
X150334475Y-108227017D01*
X150066699Y-108226783D01*
X149819217Y-108329041D01*
X149654371Y-108493600D01*
X147908780Y-108493600D01*
X147753257Y-108524535D01*
X147621412Y-108612632D01*
X145811044Y-110423000D01*
X145579464Y-110422798D01*
X145331982Y-110525056D01*
X145142471Y-110714237D01*
X145039782Y-110961540D01*
X145039548Y-111229316D01*
X145127784Y-111442862D01*
X144919217Y-111529041D01*
X144729706Y-111718222D01*
X144627017Y-111965525D01*
X144626783Y-112233301D01*
X130405200Y-112233301D01*
X130405200Y-109133301D01*
X142926783Y-109133301D01*
X143029041Y-109380783D01*
X143218222Y-109570294D01*
X143465525Y-109672983D01*
X143733301Y-109673217D01*
X143980783Y-109570959D01*
X144170294Y-109381778D01*
X144272983Y-109134475D01*
X144273187Y-108901549D01*
X145387368Y-107787368D01*
X145475465Y-107655523D01*
X145478344Y-107641048D01*
X145506400Y-107500000D01*
X145506400Y-106345387D01*
X145670294Y-106181778D01*
X145772983Y-105934475D01*
X145773217Y-105666699D01*
X145670959Y-105419217D01*
X145481778Y-105229706D01*
X145234475Y-105127017D01*
X144966699Y-105126783D01*
X144719217Y-105229041D01*
X144529706Y-105418222D01*
X144427017Y-105665525D01*
X144426783Y-105933301D01*
X144529041Y-106180783D01*
X144693600Y-106345629D01*
X144693600Y-107331664D01*
X143698279Y-108326985D01*
X143466699Y-108326783D01*
X143219217Y-108429041D01*
X143029706Y-108618222D01*
X142927017Y-108865525D01*
X142926783Y-109133301D01*
X130405200Y-109133301D01*
X130405200Y-93112452D01*
X130919483Y-93112452D01*
X131197527Y-93785371D01*
X131711921Y-94300664D01*
X132384354Y-94579882D01*
X133112452Y-94580517D01*
X133785371Y-94302473D01*
X134300664Y-93788079D01*
X134579882Y-93115646D01*
X134580517Y-92387548D01*
X134302473Y-91714629D01*
X133788079Y-91199336D01*
X133115646Y-90920118D01*
X132387548Y-90919483D01*
X131714629Y-91197527D01*
X131199336Y-91711921D01*
X130920118Y-92384354D01*
X130919483Y-93112452D01*
X130405200Y-93112452D01*
X130405200Y-92789908D01*
X130591021Y-91855723D01*
X131097588Y-91097590D01*
X131855723Y-90591021D01*
X132789907Y-90405200D01*
X157850322Y-90405200D01*
X157624618Y-90630511D01*
X157624618Y-90630511D01*
G37*
X157624618Y-90630511D02*
X157556897Y-90793600D01*
X157486669Y-90793600D01*
X157486669Y-90750000D01*
X157463644Y-90627635D01*
X157391327Y-90515251D01*
X157280983Y-90439856D01*
X157150000Y-90413331D01*
X155950000Y-90413331D01*
X155827635Y-90436356D01*
X155715251Y-90508673D01*
X155639856Y-90619017D01*
X155613331Y-90750000D01*
X155613331Y-91411933D01*
X155264172Y-91761092D01*
X155286669Y-91650000D01*
X155286669Y-90750000D01*
X155263644Y-90627635D01*
X155191327Y-90515251D01*
X155080983Y-90439856D01*
X154950000Y-90413331D01*
X153750000Y-90413331D01*
X153627635Y-90436356D01*
X153515251Y-90508673D01*
X153439856Y-90619017D01*
X153413331Y-90750000D01*
X153413331Y-91650000D01*
X153436356Y-91772365D01*
X153508673Y-91884749D01*
X153619017Y-91960144D01*
X153663166Y-91969085D01*
X153652085Y-91995771D01*
X153651851Y-92263547D01*
X153754109Y-92511029D01*
X153894894Y-92652059D01*
X153827017Y-92815525D01*
X153826901Y-92948363D01*
X153698279Y-93076985D01*
X153466699Y-93076783D01*
X153219217Y-93179041D01*
X153029706Y-93368222D01*
X152927017Y-93615525D01*
X152926783Y-93883301D01*
X153029041Y-94130783D01*
X153218222Y-94320294D01*
X153331176Y-94367197D01*
X153057821Y-94640552D01*
X152969724Y-94772397D01*
X152938789Y-94927920D01*
X152938789Y-97409584D01*
X152036319Y-98312054D01*
X151948222Y-98443899D01*
X151917287Y-98599422D01*
X151917287Y-99400578D01*
X151948222Y-99556101D01*
X151994833Y-99625858D01*
X152036319Y-99687946D01*
X152938789Y-100590416D01*
X152938789Y-102107994D01*
X152969724Y-102263517D01*
X153030195Y-102354017D01*
X153057821Y-102395362D01*
X154513863Y-103851404D01*
X154645708Y-103939501D01*
X154801231Y-103970436D01*
X155354824Y-103970436D01*
X155510347Y-103939501D01*
X155578244Y-103894133D01*
X155831024Y-103894354D01*
X156078506Y-103792096D01*
X156113149Y-103757513D01*
X157497142Y-104933678D01*
X157552302Y-104964391D01*
X157604793Y-104999465D01*
X157621129Y-105002714D01*
X157628331Y-105006724D01*
X157628331Y-105115000D01*
X157644912Y-105203120D01*
X157628331Y-105285000D01*
X157628331Y-105515000D01*
X157642555Y-105590590D01*
X156837080Y-104906070D01*
X156761965Y-104830824D01*
X156514662Y-104728135D01*
X156246886Y-104727901D01*
X155999404Y-104830159D01*
X155809893Y-105019340D01*
X155707204Y-105266643D01*
X155706994Y-105507222D01*
X155584679Y-105557762D01*
X155395168Y-105746943D01*
X155292479Y-105994246D01*
X155292245Y-106262022D01*
X155394503Y-106509504D01*
X155583684Y-106699015D01*
X155789110Y-106784315D01*
X155736400Y-106836934D01*
X155633711Y-107084237D01*
X155633477Y-107352013D01*
X155735735Y-107599495D01*
X155924916Y-107789006D01*
X156172219Y-107891695D01*
X156439995Y-107891929D01*
X156459463Y-107883885D01*
X156491691Y-107961883D01*
X156529843Y-108000101D01*
X156492356Y-108037523D01*
X156459617Y-108116366D01*
X156441169Y-108108706D01*
X156173393Y-108108472D01*
X155925911Y-108210730D01*
X155736400Y-108399911D01*
X155633711Y-108647214D01*
X155633477Y-108914990D01*
X155735735Y-109162472D01*
X155789330Y-109216160D01*
X155584679Y-109300721D01*
X155395168Y-109489902D01*
X155292479Y-109737205D01*
X155292245Y-110004981D01*
X155394503Y-110252463D01*
X155448098Y-110306151D01*
X155243448Y-110390711D01*
X155053937Y-110579892D01*
X154951248Y-110827195D01*
X154951014Y-111094971D01*
X155053272Y-111342453D01*
X155106867Y-111396141D01*
X154902216Y-111480702D01*
X154712705Y-111669883D01*
X154610016Y-111917186D01*
X154609782Y-112184962D01*
X154712040Y-112432444D01*
X154765634Y-112486132D01*
X154560984Y-112570692D01*
X154371473Y-112759873D01*
X154268784Y-113007176D01*
X154268550Y-113274952D01*
X154370808Y-113522434D01*
X154424403Y-113576122D01*
X154219752Y-113660683D01*
X154030241Y-113849864D01*
X153927552Y-114097167D01*
X153927318Y-114364943D01*
X154029576Y-114612425D01*
X154083171Y-114666113D01*
X153878520Y-114750674D01*
X153689009Y-114939855D01*
X153586320Y-115187158D01*
X153586086Y-115454934D01*
X153688344Y-115702416D01*
X153877525Y-115891927D01*
X154001019Y-115943206D01*
X154000810Y-116182537D01*
X154103068Y-116430019D01*
X154292249Y-116619530D01*
X154539552Y-116722219D01*
X154807328Y-116722453D01*
X155054810Y-116620195D01*
X155130467Y-116544670D01*
X155175417Y-116506470D01*
X155177937Y-116523615D01*
X155087772Y-116613623D01*
X154985083Y-116860926D01*
X154984849Y-117128702D01*
X155087107Y-117376184D01*
X155276288Y-117565695D01*
X155523591Y-117668384D01*
X155791367Y-117668618D01*
X156038849Y-117566360D01*
X156228360Y-117377179D01*
X156272769Y-117270229D01*
X156407045Y-117404739D01*
X156654348Y-117507428D01*
X156922124Y-117507662D01*
X157169606Y-117405404D01*
X157359117Y-117216223D01*
X157461806Y-116968920D01*
X157461959Y-116794244D01*
X157616038Y-116730580D01*
X157582634Y-116811026D01*
X157582400Y-117078802D01*
X157684658Y-117326284D01*
X157873839Y-117515795D01*
X158121142Y-117618484D01*
X158388918Y-117618718D01*
X158636400Y-117516460D01*
X158825911Y-117327279D01*
X158928600Y-117079976D01*
X158928834Y-116812200D01*
X158871677Y-116673870D01*
X158935144Y-116580983D01*
X158961669Y-116450000D01*
X158961669Y-116100000D01*
X158943625Y-116004105D01*
X158961669Y-115915000D01*
X158961669Y-115685000D01*
X158945088Y-115596880D01*
X158961669Y-115515000D01*
X158961669Y-115285000D01*
X158945088Y-115196880D01*
X158961669Y-115115000D01*
X158961669Y-114885000D01*
X158945088Y-114796880D01*
X158961669Y-114715000D01*
X158961669Y-114485000D01*
X158945088Y-114396880D01*
X158961669Y-114315000D01*
X158961669Y-114085000D01*
X158945088Y-113996880D01*
X158961669Y-113915000D01*
X158961669Y-113685000D01*
X158945088Y-113596880D01*
X158961669Y-113515000D01*
X158961669Y-113285000D01*
X158945088Y-113196880D01*
X158961669Y-113115000D01*
X158961669Y-112885000D01*
X158945088Y-112796880D01*
X158961669Y-112715000D01*
X158961669Y-112485000D01*
X158945088Y-112396880D01*
X158961669Y-112315000D01*
X158961669Y-112085000D01*
X158945088Y-111996880D01*
X158961669Y-111915000D01*
X158961669Y-111685000D01*
X158945088Y-111596880D01*
X158961669Y-111515000D01*
X158961669Y-111285000D01*
X158945088Y-111196880D01*
X158961669Y-111115000D01*
X158961669Y-110885000D01*
X158945088Y-110796880D01*
X158961669Y-110715000D01*
X158961669Y-110485000D01*
X158945088Y-110396880D01*
X158961669Y-110315000D01*
X158961669Y-110085000D01*
X158945088Y-109996880D01*
X158961669Y-109915000D01*
X158961669Y-109685000D01*
X158945088Y-109596880D01*
X158961669Y-109515000D01*
X158961669Y-109285000D01*
X158945088Y-109196880D01*
X158961669Y-109115000D01*
X158961669Y-108885000D01*
X158945088Y-108796880D01*
X158961669Y-108715000D01*
X158961669Y-108485000D01*
X158945088Y-108396880D01*
X158961669Y-108315000D01*
X158961669Y-108085000D01*
X158945088Y-107996880D01*
X158961669Y-107915000D01*
X158961669Y-107685000D01*
X158945088Y-107596880D01*
X158961669Y-107515000D01*
X158961669Y-107285000D01*
X158945088Y-107196880D01*
X158961669Y-107115000D01*
X158961669Y-106885000D01*
X158945088Y-106796880D01*
X158961669Y-106715000D01*
X158961669Y-106485000D01*
X158945088Y-106396880D01*
X158961669Y-106315000D01*
X158961669Y-106206400D01*
X159531067Y-106206400D01*
X159686590Y-106175465D01*
X159818435Y-106087368D01*
X160232557Y-105673246D01*
X160251780Y-105644477D01*
X160320654Y-105541401D01*
X160338331Y-105452531D01*
X160338331Y-105515000D01*
X160354912Y-105603120D01*
X160338331Y-105685000D01*
X160338331Y-105915000D01*
X160351793Y-105986543D01*
X160344077Y-105989739D01*
X160179739Y-106154078D01*
X160090800Y-106368796D01*
X160090800Y-106396450D01*
X160214083Y-106519733D01*
X160179739Y-106554078D01*
X160090800Y-106768796D01*
X160090800Y-106796450D01*
X160094350Y-106800000D01*
X160090800Y-106803550D01*
X160090800Y-106831204D01*
X160160718Y-107000000D01*
X160090800Y-107168796D01*
X160090800Y-107196450D01*
X160094350Y-107200000D01*
X160090800Y-107203550D01*
X160090800Y-107231204D01*
X160160718Y-107400000D01*
X160090800Y-107568796D01*
X160090800Y-107596450D01*
X160094350Y-107600000D01*
X160090800Y-107603550D01*
X160090800Y-107631204D01*
X160160718Y-107800000D01*
X160090800Y-107968796D01*
X160090800Y-107996450D01*
X160094350Y-108000000D01*
X160090800Y-108003550D01*
X160090800Y-108031204D01*
X160160718Y-108200000D01*
X160090800Y-108368796D01*
X160090800Y-108396450D01*
X160094350Y-108400000D01*
X160090800Y-108403550D01*
X160090800Y-108431204D01*
X160160718Y-108600000D01*
X160090800Y-108768796D01*
X160090800Y-108796450D01*
X160094350Y-108800000D01*
X160090800Y-108803550D01*
X160090800Y-108831204D01*
X160160718Y-109000000D01*
X160090800Y-109168796D01*
X160090800Y-109196450D01*
X160094350Y-109200000D01*
X160090800Y-109203550D01*
X160090800Y-109231204D01*
X160179739Y-109445922D01*
X160214083Y-109480267D01*
X160090800Y-109603550D01*
X160090800Y-109631204D01*
X160179739Y-109845922D01*
X160344077Y-110010261D01*
X160352740Y-110013849D01*
X160338331Y-110085000D01*
X160338331Y-110315000D01*
X160354912Y-110403120D01*
X160338331Y-110485000D01*
X160338331Y-110715000D01*
X160354912Y-110803120D01*
X160338331Y-110885000D01*
X160338331Y-111115000D01*
X160354912Y-111203120D01*
X160338331Y-111285000D01*
X160338331Y-111515000D01*
X160354912Y-111603120D01*
X160338331Y-111685000D01*
X160338331Y-111915000D01*
X160354912Y-112003120D01*
X160338331Y-112085000D01*
X160338331Y-112315000D01*
X160354912Y-112403120D01*
X160338331Y-112485000D01*
X160338331Y-112715000D01*
X160354912Y-112803120D01*
X160338331Y-112885000D01*
X160338331Y-113115000D01*
X160354912Y-113203120D01*
X160338331Y-113285000D01*
X160338331Y-113515000D01*
X160354912Y-113603120D01*
X160338331Y-113685000D01*
X160338331Y-113915000D01*
X160354912Y-114003120D01*
X160338331Y-114085000D01*
X160338331Y-114315000D01*
X160354912Y-114403120D01*
X160338331Y-114485000D01*
X160338331Y-114715000D01*
X160354912Y-114803120D01*
X160338331Y-114885000D01*
X160338331Y-115115000D01*
X160354912Y-115203120D01*
X160338331Y-115285000D01*
X160338331Y-115515000D01*
X160354912Y-115603120D01*
X160338331Y-115685000D01*
X160338331Y-115915000D01*
X160356375Y-116010895D01*
X160338331Y-116100000D01*
X160338331Y-116450000D01*
X160361356Y-116572365D01*
X160406124Y-116641937D01*
X160329706Y-116718222D01*
X160227017Y-116965525D01*
X160226783Y-117233301D01*
X160329041Y-117480783D01*
X160518222Y-117670294D01*
X160765525Y-117772983D01*
X161033301Y-117773217D01*
X161253447Y-117682254D01*
X161253297Y-117853452D01*
X161355555Y-118100934D01*
X161544736Y-118290445D01*
X161792039Y-118393134D01*
X162059815Y-118393368D01*
X162126842Y-118365673D01*
X162126783Y-118433301D01*
X162229041Y-118680783D01*
X162418222Y-118870294D01*
X162665525Y-118972983D01*
X162933301Y-118973217D01*
X163180783Y-118870959D01*
X163370294Y-118681778D01*
X163472983Y-118434475D01*
X163473171Y-118218767D01*
X163603738Y-118272983D01*
X163871514Y-118273217D01*
X164118996Y-118170959D01*
X164308507Y-117981778D01*
X164411196Y-117734475D01*
X164411418Y-117480208D01*
X164456577Y-117412624D01*
X164461178Y-117389494D01*
X164487512Y-117257101D01*
X164487512Y-116720301D01*
X164492130Y-116722219D01*
X164759906Y-116722453D01*
X165007388Y-116620195D01*
X165196899Y-116431014D01*
X165299588Y-116183711D01*
X165299798Y-115943131D01*
X165422112Y-115892592D01*
X165594800Y-115720205D01*
X165594800Y-123210093D01*
X165408979Y-124144277D01*
X164902410Y-124902412D01*
X164144277Y-125408979D01*
X163210092Y-125594800D01*
X132789907Y-125594800D01*
X131855723Y-125408979D01*
X131097588Y-124902410D01*
X130591021Y-124144277D01*
X130485235Y-123612452D01*
X130919483Y-123612452D01*
X131197527Y-124285371D01*
X131711921Y-124800664D01*
X132384354Y-125079882D01*
X133112452Y-125080517D01*
X133785371Y-124802473D01*
X134300664Y-124288079D01*
X134579882Y-123615646D01*
X134579884Y-123612452D01*
X161419483Y-123612452D01*
X161697527Y-124285371D01*
X162211921Y-124800664D01*
X162884354Y-125079882D01*
X163612452Y-125080517D01*
X164285371Y-124802473D01*
X164800664Y-124288079D01*
X165079882Y-123615646D01*
X165080517Y-122887548D01*
X164802473Y-122214629D01*
X164288079Y-121699336D01*
X163615646Y-121420118D01*
X162887548Y-121419483D01*
X162214629Y-121697527D01*
X161699336Y-122211921D01*
X161420118Y-122884354D01*
X161419483Y-123612452D01*
X134579884Y-123612452D01*
X134580517Y-122887548D01*
X134302473Y-122214629D01*
X133788079Y-121699336D01*
X133115646Y-121420118D01*
X132387548Y-121419483D01*
X131714629Y-121697527D01*
X131199336Y-122211921D01*
X130920118Y-122884354D01*
X130919483Y-123612452D01*
X130485235Y-123612452D01*
X130405200Y-123210092D01*
X130405200Y-112233301D01*
X144626783Y-112233301D01*
X144729041Y-112480783D01*
X144918222Y-112670294D01*
X145165525Y-112772983D01*
X145433301Y-112773217D01*
X145680783Y-112670959D01*
X145845629Y-112506400D01*
X148800000Y-112506400D01*
X148955523Y-112475465D01*
X149087368Y-112387368D01*
X149801721Y-111673015D01*
X150033301Y-111673217D01*
X150280783Y-111570959D01*
X150470294Y-111381778D01*
X150572983Y-111134475D01*
X150573217Y-110866699D01*
X150470959Y-110619217D01*
X150281778Y-110429706D01*
X150123314Y-110363906D01*
X150168253Y-110255681D01*
X150168487Y-109987905D01*
X150066229Y-109740423D01*
X149877048Y-109550912D01*
X149629745Y-109448223D01*
X149361969Y-109447989D01*
X149196470Y-109516372D01*
X149109710Y-109306400D01*
X149654613Y-109306400D01*
X149818222Y-109470294D01*
X150065525Y-109572983D01*
X150333301Y-109573217D01*
X150580783Y-109470959D01*
X150770294Y-109281778D01*
X150872983Y-109034475D01*
X150873217Y-108766699D01*
X150770959Y-108519217D01*
X150581778Y-108329706D01*
X150334475Y-108227017D01*
X150066699Y-108226783D01*
X149819217Y-108329041D01*
X149654371Y-108493600D01*
X147908780Y-108493600D01*
X147753257Y-108524535D01*
X147621412Y-108612632D01*
X145811044Y-110423000D01*
X145579464Y-110422798D01*
X145331982Y-110525056D01*
X145142471Y-110714237D01*
X145039782Y-110961540D01*
X145039548Y-111229316D01*
X145127784Y-111442862D01*
X144919217Y-111529041D01*
X144729706Y-111718222D01*
X144627017Y-111965525D01*
X144626783Y-112233301D01*
X130405200Y-112233301D01*
X130405200Y-109133301D01*
X142926783Y-109133301D01*
X143029041Y-109380783D01*
X143218222Y-109570294D01*
X143465525Y-109672983D01*
X143733301Y-109673217D01*
X143980783Y-109570959D01*
X144170294Y-109381778D01*
X144272983Y-109134475D01*
X144273187Y-108901549D01*
X145387368Y-107787368D01*
X145475465Y-107655523D01*
X145478344Y-107641048D01*
X145506400Y-107500000D01*
X145506400Y-106345387D01*
X145670294Y-106181778D01*
X145772983Y-105934475D01*
X145773217Y-105666699D01*
X145670959Y-105419217D01*
X145481778Y-105229706D01*
X145234475Y-105127017D01*
X144966699Y-105126783D01*
X144719217Y-105229041D01*
X144529706Y-105418222D01*
X144427017Y-105665525D01*
X144426783Y-105933301D01*
X144529041Y-106180783D01*
X144693600Y-106345629D01*
X144693600Y-107331664D01*
X143698279Y-108326985D01*
X143466699Y-108326783D01*
X143219217Y-108429041D01*
X143029706Y-108618222D01*
X142927017Y-108865525D01*
X142926783Y-109133301D01*
X130405200Y-109133301D01*
X130405200Y-93112452D01*
X130919483Y-93112452D01*
X131197527Y-93785371D01*
X131711921Y-94300664D01*
X132384354Y-94579882D01*
X133112452Y-94580517D01*
X133785371Y-94302473D01*
X134300664Y-93788079D01*
X134579882Y-93115646D01*
X134580517Y-92387548D01*
X134302473Y-91714629D01*
X133788079Y-91199336D01*
X133115646Y-90920118D01*
X132387548Y-90919483D01*
X131714629Y-91197527D01*
X131199336Y-91711921D01*
X130920118Y-92384354D01*
X130919483Y-93112452D01*
X130405200Y-93112452D01*
X130405200Y-92789908D01*
X130591021Y-91855723D01*
X131097588Y-91097590D01*
X131855723Y-90591021D01*
X132789907Y-90405200D01*
X157850322Y-90405200D01*
X157624618Y-90630511D01*
G36*
X165594800Y-114923331D02*
X165423107Y-114751339D01*
X165217681Y-114666039D01*
X165270391Y-114613420D01*
X165373080Y-114366117D01*
X165373314Y-114098341D01*
X165271056Y-113850859D01*
X165081875Y-113661348D01*
X164876449Y-113576048D01*
X164929160Y-113523429D01*
X165031849Y-113276126D01*
X165032083Y-113008350D01*
X164929825Y-112760868D01*
X164740644Y-112571357D01*
X164535218Y-112486057D01*
X164587928Y-112433439D01*
X164690617Y-112186136D01*
X164690851Y-111918360D01*
X164588593Y-111670878D01*
X164399412Y-111481367D01*
X164193986Y-111396067D01*
X164246696Y-111343448D01*
X164349385Y-111096145D01*
X164349619Y-110828369D01*
X164247361Y-110580887D01*
X164058180Y-110391376D01*
X163810877Y-110288687D01*
X163543101Y-110288453D01*
X163523633Y-110296497D01*
X163491405Y-110218499D01*
X163302224Y-110028988D01*
X163054921Y-109926299D01*
X162787145Y-109926065D01*
X162539663Y-110028323D01*
X162505019Y-110062907D01*
X161806717Y-109469466D01*
X161830261Y-109445922D01*
X161919200Y-109231204D01*
X161919200Y-109203550D01*
X161915650Y-109200000D01*
X161919200Y-109196450D01*
X161919200Y-109168796D01*
X161849282Y-109000000D01*
X161919200Y-108831204D01*
X161919200Y-108803550D01*
X161915650Y-108800000D01*
X161919200Y-108796450D01*
X161919200Y-108768796D01*
X161849282Y-108600000D01*
X161919200Y-108431204D01*
X161919200Y-108403550D01*
X161915650Y-108400000D01*
X161919200Y-108396450D01*
X161919200Y-108368796D01*
X161849282Y-108200000D01*
X161919200Y-108031204D01*
X161919200Y-108003550D01*
X161915650Y-108000000D01*
X161919200Y-107996450D01*
X161919200Y-107968796D01*
X161849282Y-107800000D01*
X161919200Y-107631204D01*
X161919200Y-107603550D01*
X161915650Y-107600000D01*
X161919200Y-107596450D01*
X161919200Y-107568796D01*
X161849282Y-107400000D01*
X161919200Y-107231204D01*
X161919200Y-107203550D01*
X161915650Y-107200000D01*
X161919200Y-107196450D01*
X161919200Y-107168796D01*
X161849282Y-107000000D01*
X161919200Y-106831204D01*
X161919200Y-106803550D01*
X161915650Y-106800000D01*
X161919200Y-106796450D01*
X161919200Y-106768796D01*
X161830261Y-106554078D01*
X161806934Y-106530751D01*
X162504906Y-105937591D01*
X162538668Y-105971412D01*
X162785971Y-106074101D01*
X163053747Y-106074335D01*
X163301229Y-105972077D01*
X163490740Y-105782896D01*
X163523478Y-105704053D01*
X163541927Y-105711714D01*
X163809703Y-105711948D01*
X164057185Y-105609690D01*
X164246696Y-105420509D01*
X164349385Y-105173206D01*
X164349619Y-104905430D01*
X164247361Y-104657948D01*
X164193766Y-104604260D01*
X164398417Y-104519699D01*
X164587928Y-104330518D01*
X164690617Y-104083215D01*
X164690851Y-103815439D01*
X164588593Y-103567957D01*
X164534998Y-103514269D01*
X164739649Y-103429708D01*
X164929160Y-103240527D01*
X165031849Y-102993224D01*
X165032083Y-102725448D01*
X164929825Y-102477966D01*
X164876230Y-102424278D01*
X165080880Y-102339718D01*
X165270391Y-102150537D01*
X165373080Y-101903234D01*
X165373314Y-101635458D01*
X165271056Y-101387976D01*
X165217461Y-101334288D01*
X165422112Y-101249727D01*
X165594800Y-101077340D01*
X165594800Y-114923331D01*
X165594800Y-114923331D01*
G37*
X165594800Y-114923331D02*
X165423107Y-114751339D01*
X165217681Y-114666039D01*
X165270391Y-114613420D01*
X165373080Y-114366117D01*
X165373314Y-114098341D01*
X165271056Y-113850859D01*
X165081875Y-113661348D01*
X164876449Y-113576048D01*
X164929160Y-113523429D01*
X165031849Y-113276126D01*
X165032083Y-113008350D01*
X164929825Y-112760868D01*
X164740644Y-112571357D01*
X164535218Y-112486057D01*
X164587928Y-112433439D01*
X164690617Y-112186136D01*
X164690851Y-111918360D01*
X164588593Y-111670878D01*
X164399412Y-111481367D01*
X164193986Y-111396067D01*
X164246696Y-111343448D01*
X164349385Y-111096145D01*
X164349619Y-110828369D01*
X164247361Y-110580887D01*
X164058180Y-110391376D01*
X163810877Y-110288687D01*
X163543101Y-110288453D01*
X163523633Y-110296497D01*
X163491405Y-110218499D01*
X163302224Y-110028988D01*
X163054921Y-109926299D01*
X162787145Y-109926065D01*
X162539663Y-110028323D01*
X162505019Y-110062907D01*
X161806717Y-109469466D01*
X161830261Y-109445922D01*
X161919200Y-109231204D01*
X161919200Y-109203550D01*
X161915650Y-109200000D01*
X161919200Y-109196450D01*
X161919200Y-109168796D01*
X161849282Y-109000000D01*
X161919200Y-108831204D01*
X161919200Y-108803550D01*
X161915650Y-108800000D01*
X161919200Y-108796450D01*
X161919200Y-108768796D01*
X161849282Y-108600000D01*
X161919200Y-108431204D01*
X161919200Y-108403550D01*
X161915650Y-108400000D01*
X161919200Y-108396450D01*
X161919200Y-108368796D01*
X161849282Y-108200000D01*
X161919200Y-108031204D01*
X161919200Y-108003550D01*
X161915650Y-108000000D01*
X161919200Y-107996450D01*
X161919200Y-107968796D01*
X161849282Y-107800000D01*
X161919200Y-107631204D01*
X161919200Y-107603550D01*
X161915650Y-107600000D01*
X161919200Y-107596450D01*
X161919200Y-107568796D01*
X161849282Y-107400000D01*
X161919200Y-107231204D01*
X161919200Y-107203550D01*
X161915650Y-107200000D01*
X161919200Y-107196450D01*
X161919200Y-107168796D01*
X161849282Y-107000000D01*
X161919200Y-106831204D01*
X161919200Y-106803550D01*
X161915650Y-106800000D01*
X161919200Y-106796450D01*
X161919200Y-106768796D01*
X161830261Y-106554078D01*
X161806934Y-106530751D01*
X162504906Y-105937591D01*
X162538668Y-105971412D01*
X162785971Y-106074101D01*
X163053747Y-106074335D01*
X163301229Y-105972077D01*
X163490740Y-105782896D01*
X163523478Y-105704053D01*
X163541927Y-105711714D01*
X163809703Y-105711948D01*
X164057185Y-105609690D01*
X164246696Y-105420509D01*
X164349385Y-105173206D01*
X164349619Y-104905430D01*
X164247361Y-104657948D01*
X164193766Y-104604260D01*
X164398417Y-104519699D01*
X164587928Y-104330518D01*
X164690617Y-104083215D01*
X164690851Y-103815439D01*
X164588593Y-103567957D01*
X164534998Y-103514269D01*
X164739649Y-103429708D01*
X164929160Y-103240527D01*
X165031849Y-102993224D01*
X165032083Y-102725448D01*
X164929825Y-102477966D01*
X164876230Y-102424278D01*
X165080880Y-102339718D01*
X165270391Y-102150537D01*
X165373080Y-101903234D01*
X165373314Y-101635458D01*
X165271056Y-101387976D01*
X165217461Y-101334288D01*
X165422112Y-101249727D01*
X165594800Y-101077340D01*
X165594800Y-114923331D01*
G36*
X164144277Y-90591021D02*
X164902410Y-91097588D01*
X165408979Y-91855723D01*
X165594800Y-92789907D01*
X165594800Y-100280466D01*
X165423107Y-100108474D01*
X165299613Y-100057195D01*
X165299822Y-99817864D01*
X165197564Y-99570382D01*
X165008383Y-99380871D01*
X164761080Y-99278182D01*
X164493304Y-99277948D01*
X164245822Y-99380206D01*
X164170161Y-99455736D01*
X164125216Y-99493931D01*
X164122696Y-99476786D01*
X164212861Y-99386778D01*
X164315550Y-99139475D01*
X164315784Y-98871699D01*
X164213526Y-98624217D01*
X164024345Y-98434706D01*
X163777042Y-98332017D01*
X163509266Y-98331783D01*
X163357108Y-98394654D01*
X163520294Y-98231752D01*
X163622983Y-97984449D01*
X163623217Y-97716673D01*
X163520959Y-97469191D01*
X163331778Y-97279680D01*
X163217190Y-97232099D01*
X163137368Y-97112638D01*
X163005523Y-97024541D01*
X162850000Y-96993606D01*
X162694477Y-97024541D01*
X162562632Y-97112638D01*
X161986479Y-97688791D01*
X161425292Y-97688791D01*
X161663680Y-97450403D01*
X161668534Y-97443138D01*
X161751777Y-97318558D01*
X161782712Y-97163035D01*
X161782712Y-94472515D01*
X162079193Y-94768996D01*
X161929706Y-94918222D01*
X161827017Y-95165525D01*
X161826783Y-95433301D01*
X161929041Y-95680783D01*
X162118222Y-95870294D01*
X162365525Y-95972983D01*
X162633301Y-95973217D01*
X162880783Y-95870959D01*
X163070294Y-95681778D01*
X163172983Y-95434475D01*
X163173217Y-95166699D01*
X163070959Y-94919217D01*
X162906400Y-94754371D01*
X162906400Y-94615067D01*
X162899404Y-94579895D01*
X163612452Y-94580517D01*
X164285371Y-94302473D01*
X164800664Y-93788079D01*
X165079882Y-93115646D01*
X165080517Y-92387548D01*
X164802473Y-91714629D01*
X164288079Y-91199336D01*
X163615646Y-90920118D01*
X162887548Y-90919483D01*
X162214629Y-91197527D01*
X161699336Y-91711921D01*
X161420118Y-92384354D01*
X161419616Y-92959947D01*
X160732401Y-92272732D01*
X160676798Y-92235579D01*
X160600556Y-92184635D01*
X160445033Y-92153700D01*
X159239900Y-92153700D01*
X159178426Y-92165928D01*
X159475382Y-91869489D01*
X159642010Y-91468205D01*
X159642389Y-91033701D01*
X159476462Y-90632127D01*
X159249931Y-90405200D01*
X163210092Y-90405200D01*
X164144277Y-90591021D01*
X164144277Y-90591021D01*
G37*
X164144277Y-90591021D02*
X164902410Y-91097588D01*
X165408979Y-91855723D01*
X165594800Y-92789907D01*
X165594800Y-100280466D01*
X165423107Y-100108474D01*
X165299613Y-100057195D01*
X165299822Y-99817864D01*
X165197564Y-99570382D01*
X165008383Y-99380871D01*
X164761080Y-99278182D01*
X164493304Y-99277948D01*
X164245822Y-99380206D01*
X164170161Y-99455736D01*
X164125216Y-99493931D01*
X164122696Y-99476786D01*
X164212861Y-99386778D01*
X164315550Y-99139475D01*
X164315784Y-98871699D01*
X164213526Y-98624217D01*
X164024345Y-98434706D01*
X163777042Y-98332017D01*
X163509266Y-98331783D01*
X163357108Y-98394654D01*
X163520294Y-98231752D01*
X163622983Y-97984449D01*
X163623217Y-97716673D01*
X163520959Y-97469191D01*
X163331778Y-97279680D01*
X163217190Y-97232099D01*
X163137368Y-97112638D01*
X163005523Y-97024541D01*
X162850000Y-96993606D01*
X162694477Y-97024541D01*
X162562632Y-97112638D01*
X161986479Y-97688791D01*
X161425292Y-97688791D01*
X161663680Y-97450403D01*
X161668534Y-97443138D01*
X161751777Y-97318558D01*
X161782712Y-97163035D01*
X161782712Y-94472515D01*
X162079193Y-94768996D01*
X161929706Y-94918222D01*
X161827017Y-95165525D01*
X161826783Y-95433301D01*
X161929041Y-95680783D01*
X162118222Y-95870294D01*
X162365525Y-95972983D01*
X162633301Y-95973217D01*
X162880783Y-95870959D01*
X163070294Y-95681778D01*
X163172983Y-95434475D01*
X163173217Y-95166699D01*
X163070959Y-94919217D01*
X162906400Y-94754371D01*
X162906400Y-94615067D01*
X162899404Y-94579895D01*
X163612452Y-94580517D01*
X164285371Y-94302473D01*
X164800664Y-93788079D01*
X165079882Y-93115646D01*
X165080517Y-92387548D01*
X164802473Y-91714629D01*
X164288079Y-91199336D01*
X163615646Y-90920118D01*
X162887548Y-90919483D01*
X162214629Y-91197527D01*
X161699336Y-91711921D01*
X161420118Y-92384354D01*
X161419616Y-92959947D01*
X160732401Y-92272732D01*
X160676798Y-92235579D01*
X160600556Y-92184635D01*
X160445033Y-92153700D01*
X159239900Y-92153700D01*
X159178426Y-92165928D01*
X159475382Y-91869489D01*
X159642010Y-91468205D01*
X159642389Y-91033701D01*
X159476462Y-90632127D01*
X159249931Y-90405200D01*
X163210092Y-90405200D01*
X164144277Y-90591021D01*
G36*
X159940032Y-95137368D02*
X160071877Y-95225465D01*
X160227400Y-95256400D01*
X160577486Y-95256400D01*
X160665101Y-95344015D01*
X160665101Y-96335548D01*
X160437562Y-96241066D01*
X160169786Y-96240832D01*
X159922304Y-96343090D01*
X159732793Y-96532271D01*
X159665803Y-96693600D01*
X159157584Y-96693600D01*
X159245261Y-96605922D01*
X159334200Y-96391204D01*
X159334200Y-96223850D01*
X159188150Y-96077800D01*
X158327800Y-96077800D01*
X158327800Y-96097800D01*
X157972200Y-96097800D01*
X157972200Y-96077800D01*
X157952200Y-96077800D01*
X157952200Y-95722200D01*
X157972200Y-95722200D01*
X157972200Y-95702200D01*
X158327800Y-95702200D01*
X158327800Y-95722200D01*
X159188150Y-95722200D01*
X159334200Y-95576150D01*
X159334200Y-95408796D01*
X159245261Y-95194078D01*
X159147884Y-95096700D01*
X159203705Y-95096700D01*
X159418423Y-95007761D01*
X159582761Y-94843422D01*
X159601308Y-94798644D01*
X159940032Y-95137368D01*
X159940032Y-95137368D01*
G37*
X159940032Y-95137368D02*
X160071877Y-95225465D01*
X160227400Y-95256400D01*
X160577486Y-95256400D01*
X160665101Y-95344015D01*
X160665101Y-96335548D01*
X160437562Y-96241066D01*
X160169786Y-96240832D01*
X159922304Y-96343090D01*
X159732793Y-96532271D01*
X159665803Y-96693600D01*
X159157584Y-96693600D01*
X159245261Y-96605922D01*
X159334200Y-96391204D01*
X159334200Y-96223850D01*
X159188150Y-96077800D01*
X158327800Y-96077800D01*
X158327800Y-96097800D01*
X157972200Y-96097800D01*
X157972200Y-96077800D01*
X157952200Y-96077800D01*
X157952200Y-95722200D01*
X157972200Y-95722200D01*
X157972200Y-95702200D01*
X158327800Y-95702200D01*
X158327800Y-95722200D01*
X159188150Y-95722200D01*
X159334200Y-95576150D01*
X159334200Y-95408796D01*
X159245261Y-95194078D01*
X159147884Y-95096700D01*
X159203705Y-95096700D01*
X159418423Y-95007761D01*
X159582761Y-94843422D01*
X159601308Y-94798644D01*
X159940032Y-95137368D01*
G36*
X158910300Y-94437500D02*
X158890300Y-94437500D01*
X158890300Y-94512500D01*
X158534700Y-94512500D01*
X158534700Y-94437500D01*
X158514700Y-94437500D01*
X158514700Y-94349169D01*
X158910300Y-94349169D01*
X158910300Y-94437500D01*
X158910300Y-94437500D01*
G37*
X158910300Y-94437500D02*
X158890300Y-94437500D01*
X158890300Y-94512500D01*
X158534700Y-94512500D01*
X158534700Y-94437500D01*
X158514700Y-94437500D01*
X158514700Y-94349169D01*
X158910300Y-94349169D01*
X158910300Y-94437500D01*
M02*
