G04 #@! TF.FileFunction,Paste,Top*
%FSLAX46Y46*%
G04 Gerber Fmt 4.6, Leading zero omitted, Abs format (unit mm)*
G04 Created by KiCad (PCBNEW 4.0.1-stable) date Wednesday, April 13, 2016 'AMt' 11:34:57 AM*
%MOMM*%
G01*
G04 APERTURE LIST*
%ADD10C,0.100000*%
%ADD11R,0.700000X1.200000*%
%ADD12R,1.000000X1.200000*%
%ADD13R,1.300000X1.900000*%
%ADD14R,1.000000X2.800000*%
%ADD15R,1.000000X0.800000*%
%ADD16R,0.700000X0.200000*%
%ADD17R,1.501140X0.398780*%
%ADD18R,1.600000X2.000000*%
%ADD19R,0.750000X1.200000*%
%ADD20R,0.797560X0.797560*%
%ADD21R,0.900000X1.200000*%
%ADD22R,1.060000X0.650000*%
G04 APERTURE END LIST*
D10*
D11*
X141800000Y-107475000D03*
X142900000Y-107475000D03*
X144000000Y-107475000D03*
X145100000Y-107475000D03*
X146200000Y-107475000D03*
X147300000Y-107475000D03*
X148400000Y-107475000D03*
X149500000Y-107475000D03*
X150450000Y-107475000D03*
D12*
X140250000Y-107475000D03*
D13*
X137900000Y-92375000D03*
D14*
X151400000Y-92825000D03*
D15*
X151400000Y-96975000D03*
D12*
X151400000Y-103175000D03*
D16*
X161190000Y-100200000D03*
X161190000Y-100600000D03*
X161190000Y-101000000D03*
X161190000Y-101400000D03*
X161190000Y-101800000D03*
X161190000Y-102200000D03*
X161190000Y-102600000D03*
X161190000Y-103000000D03*
X161190000Y-103400000D03*
X161190000Y-103800000D03*
X161190000Y-107800000D03*
X161190000Y-107400000D03*
X161190000Y-107000000D03*
X161190000Y-106600000D03*
X161190000Y-106200000D03*
X161190000Y-105800000D03*
X161190000Y-105400000D03*
X161190000Y-105000000D03*
X161190000Y-104600000D03*
X161190000Y-104200000D03*
X161190000Y-108200000D03*
X161190000Y-108600000D03*
X161190000Y-109000000D03*
X161190000Y-109400000D03*
X161190000Y-109800000D03*
X161190000Y-110200000D03*
X161190000Y-110600000D03*
X161190000Y-111000000D03*
X161190000Y-111400000D03*
X161190000Y-111800000D03*
X161190000Y-115800000D03*
X161190000Y-115400000D03*
X161190000Y-115000000D03*
X161190000Y-114600000D03*
X161190000Y-114200000D03*
X161190000Y-113800000D03*
X161190000Y-113400000D03*
X161190000Y-113000000D03*
X161190000Y-112600000D03*
X161190000Y-112200000D03*
X158110000Y-112200000D03*
X158110000Y-112600000D03*
X158110000Y-113000000D03*
X158110000Y-113400000D03*
X158110000Y-113800000D03*
X158110000Y-114200000D03*
X158110000Y-114600000D03*
X158110000Y-115000000D03*
X158110000Y-115400000D03*
X158110000Y-115800000D03*
X158110000Y-111800000D03*
X158110000Y-111400000D03*
X158110000Y-111000000D03*
X158110000Y-110600000D03*
X158110000Y-110200000D03*
X158110000Y-109800000D03*
X158110000Y-109400000D03*
X158110000Y-109000000D03*
X158110000Y-108600000D03*
X158110000Y-108200000D03*
X158110000Y-104200000D03*
X158110000Y-104600000D03*
X158110000Y-105000000D03*
X158110000Y-105400000D03*
X158110000Y-105800000D03*
X158110000Y-106200000D03*
X158110000Y-106600000D03*
X158110000Y-107000000D03*
X158110000Y-107400000D03*
X158110000Y-107800000D03*
X158110000Y-103800000D03*
X158110000Y-103400000D03*
X158110000Y-103000000D03*
X158110000Y-102600000D03*
X158110000Y-102200000D03*
X158110000Y-101800000D03*
X158110000Y-101400000D03*
X158110000Y-101000000D03*
X158110000Y-100600000D03*
X158110000Y-100200000D03*
D17*
X158461920Y-94250000D03*
X158461920Y-93599760D03*
X158461920Y-92949520D03*
X155800000Y-92949520D03*
X155800000Y-93599760D03*
X155800000Y-94250000D03*
X164300000Y-98250000D03*
X164300000Y-97599760D03*
X164300000Y-96949520D03*
X161638080Y-96949520D03*
X161638080Y-97599760D03*
X161638080Y-98250000D03*
X158611920Y-96700000D03*
X158611920Y-96049760D03*
X158611920Y-95399520D03*
X155950000Y-95399520D03*
X155950000Y-96049760D03*
X155950000Y-96700000D03*
D18*
X143800000Y-111600000D03*
X143800000Y-115600000D03*
D19*
X137300000Y-114300000D03*
X137300000Y-112400000D03*
D20*
X138000000Y-124749300D03*
X138000000Y-123250700D03*
X141000000Y-124749300D03*
X141000000Y-123250700D03*
D21*
X138000000Y-121100000D03*
X138000000Y-118900000D03*
X141000000Y-121200000D03*
X141000000Y-119000000D03*
D22*
X141400000Y-114300000D03*
X141400000Y-113350000D03*
X141400000Y-112400000D03*
X139200000Y-112400000D03*
X139200000Y-114300000D03*
M02*
